  0
SECTION
  2
HEADER
  9
$ACADVER
  1
AC1014
  9
$HANDSEED
  5
FFFF
  9
$MEASUREMENT
 70
     1
  0
ENDSEC
  0
SECTION
  2
TABLES
  0
TABLE
  2
VPORT
  5
8
330
0
100
AcDbSymbolTable
 70
     4
  0
VPORT
  5
2E
330
8
100
AcDbSymbolTableRecord
100
AcDbViewportTableRecord
  2
*ACTIVE
 70
     0
 10
0.0
 20
0.0
 11
1.0
 21
1.0
 12
210.0
 22
148.5
 13
0.0
 23
0.0
 14
10.0
 24
10.0
 15
10.0
 25
10.0
 16
0.0
 26
0.0
 36
1.0
 17
0.0
 27
0.0
 37
0.0
 40
341.0
 41
1.24
 42
50.0
 43
0.0
 44
0.0
 50
0.0
 51
0.0
 71
     0
 72
   100
 73
     1
 74
     3
 75
     0
 76
     0
 77
     0
 78
     0
  0
ENDTAB
  0
TABLE
  2
LTYPE
  5
5
330
0
100
AcDbSymbolTable
 70
     1
  0
LTYPE
  5
14
330
5
100
AcDbSymbolTableRecord
100
AcDbLinetypeTableRecord
  2
BYBLOCK
 70
     0
  3

 72
    65
 73
     0
 40
0.0
  0
LTYPE
  5
15
330
5
100
AcDbSymbolTableRecord
100
AcDbLinetypeTableRecord
  2
BYLAYER
 70
     0
  3

 72
    65
 73
     0
 40
0.0
  0
LTYPE
  5
16
330
5
100
AcDbSymbolTableRecord
100
AcDbLinetypeTableRecord
  2
CONTINUOUS
 70
     0
  3
Solid line
 72
    65
 73
     0
 40
0.0
  0
ENDTAB
  0
TABLE
  2
LAYER
  5
2
100
AcDbSymbolTable
 70
2
  0
LAYER
  5
50
100
AcDbSymbolTableRecord
100
AcDbLayerTableRecord
  2
0
 70
0
  6
CONTINUOUS
  0
LAYER
  5
51
100
AcDbSymbolTableRecord
100
AcDbLayerTableRecord
  2
baffles_jr_30_1.0
 70
0
  6
CONTINUOUS
  0
ENDTAB
  0
TABLE
  2
STYLE
  5
3
330
0
100
AcDbSymbolTable
 70
     1
  0
STYLE
  5
11
330
3
100
AcDbSymbolTableRecord
100
AcDbTextStyleTableRecord
  2
STANDARD
 70
     0
 40
0.0
 41
1.0
 50
0.0
 71
     0
 42
2.5
  3
txt
  4

  0
ENDTAB
  0
TABLE
  2
VIEW
  5
6
330
0
100
AcDbSymbolTable
 70
     0
  0
ENDTAB
  0
TABLE
  2
UCS
  5
7
330
0
100
AcDbSymbolTable
 70
     0
  0
ENDTAB
  0
TABLE
  2
APPID
  5
9
330
0
100
AcDbSymbolTable
 70
     2
  0
APPID
  5
12
330
9
100
AcDbSymbolTableRecord
100
AcDbRegAppTableRecord
  2
ACAD
 70
     0
  0
ENDTAB
  0
TABLE
  2
DIMSTYLE
  5
A
330
0
100
AcDbSymbolTable
 70
     1
  0
DIMSTYLE
105
27
330
A
100
AcDbSymbolTableRecord
100
AcDbDimStyleTableRecord
  2
ISO-25
 70
     0
  3

  4

  5

  6

  7

 40
1.0
 41
2.5
 42
0.625
 43
3.75
 44
1.25
 45
0.0
 46
0.0
 47
0.0
 48
0.0
140
2.5
141
2.5
142
0.0
143
0.03937007874016
144
1.0
145
0.0
146
1.0
147
0.625
 71
     0
 72
     0
 73
     0
 74
     0
 75
     0
 76
     0
 77
     1
 78
     8
170
     0
171
     3
172
     1
173
     0
174
     0
175
     0
176
     0
177
     0
178
     0
270
     2
271
     2
272
     2
273
     2
274
     3
340
11
275
     0
280
     0
281
     0
282
     0
283
     0
284
     8
285
     0
286
     0
287
     3
288
     0
  0
ENDTAB
  0
TABLE
  2
BLOCK_RECORD
  5
1
330
0
100
AcDbSymbolTable
 70
     1
  0
BLOCK_RECORD
  5
1F
330
1
100
AcDbSymbolTableRecord
100
AcDbBlockTableRecord
  2
*MODEL_SPACE
  0
BLOCK_RECORD
  5
1B
330
1
100
AcDbSymbolTableRecord
100
AcDbBlockTableRecord
  2
*PAPER_SPACE
  0
ENDTAB
  0
ENDSEC
  0
SECTION
  2
BLOCKS
  0
BLOCK
  5
20
330
1F
100
AcDbEntity
  8
0
100
AcDbBlockBegin
  2
*MODEL_SPACE
 70
     0
 10
0.0
 20
0.0
 30
0.0
  3
*MODEL_SPACE
  1

  0
ENDBLK
  5
21
330
1F
100
AcDbEntity
  8
0
100
AcDbBlockEnd
  0
BLOCK
  5
1C
330
1B
100
AcDbEntity
 67
     1
  8
0
100
AcDbBlockBegin
  2
*PAPER_SPACE
  1

  0
ENDBLK
  5
1D
330
1B
100
AcDbEntity
 67
     1
  8
0
100
AcDbBlockEnd
  0
ENDSEC
  0
SECTION
  2
ENTITIES
  0
LINE
  5
100
100
AcDbEntity
  8
baffles_jr_30_1.0
 62
1
100
AcDbLine
 10
19.999999
 20
32.699999
 30
0.0
 11
16.000000
 21
32.699999
 31
0.0
  0
LINE
  5
101
100
AcDbEntity
  8
baffles_jr_30_1.0
 62
1
100
AcDbLine
 10
16.000000
 20
32.699999
 30
0.0
 11
16.000000
 21
55.200000
 31
0.0
  0
LINE
  5
102
100
AcDbEntity
  8
baffles_jr_30_1.0
 62
1
100
AcDbLine
 10
16.000000
 20
55.200000
 30
0.0
 11
18.994354
 21
55.200000
 31
0.0
  0
LINE
  5
103
100
AcDbEntity
  8
baffles_jr_30_1.0
 62
1
100
AcDbLine
 10
18.994354
 20
55.200000
 30
0.0
 11
18.994354
 21
43.944353
 31
0.0
  0
LINE
  5
104
100
AcDbEntity
  8
baffles_jr_30_1.0
 62
1
100
AcDbLine
 10
18.994354
 20
43.944353
 30
0.0
 11
19.999999
 21
43.944353
 31
0.0
  0
LINE
  5
105
100
AcDbEntity
  8
baffles_jr_30_1.0
 62
1
100
AcDbLine
 10
19.999999
 20
43.944353
 30
0.0
 11
21.005643
 21
43.944353
 31
0.0
  0
LINE
  5
106
100
AcDbEntity
  8
baffles_jr_30_1.0
 62
1
100
AcDbLine
 10
21.005643
 20
43.944353
 30
0.0
 11
21.005643
 21
55.200000
 31
0.0
  0
LINE
  5
107
100
AcDbEntity
  8
baffles_jr_30_1.0
 62
1
100
AcDbLine
 10
21.005643
 20
55.200000
 30
0.0
 11
35.664355
 21
55.200000
 31
0.0
  0
LINE
  5
108
100
AcDbEntity
  8
baffles_jr_30_1.0
 62
1
100
AcDbLine
 10
35.664355
 20
55.200000
 30
0.0
 11
35.664355
 21
43.944353
 31
0.0
  0
LINE
  5
109
100
AcDbEntity
  8
baffles_jr_30_1.0
 62
1
100
AcDbLine
 10
35.664355
 20
43.944353
 30
0.0
 11
36.669998
 21
43.944353
 31
0.0
  0
LINE
  5
10a
100
AcDbEntity
  8
baffles_jr_30_1.0
 62
1
100
AcDbLine
 10
36.669998
 20
43.944353
 30
0.0
 11
37.675644
 21
43.944353
 31
0.0
  0
LINE
  5
10b
100
AcDbEntity
  8
baffles_jr_30_1.0
 62
1
100
AcDbLine
 10
37.675644
 20
43.944353
 30
0.0
 11
37.675644
 21
55.200000
 31
0.0
  0
LINE
  5
10c
100
AcDbEntity
  8
baffles_jr_30_1.0
 62
1
100
AcDbLine
 10
37.675644
 20
55.200000
 30
0.0
 11
52.334354
 21
55.200000
 31
0.0
  0
LINE
  5
10d
100
AcDbEntity
  8
baffles_jr_30_1.0
 62
1
100
AcDbLine
 10
52.334354
 20
55.200000
 30
0.0
 11
52.334354
 21
43.944353
 31
0.0
  0
LINE
  5
10e
100
AcDbEntity
  8
baffles_jr_30_1.0
 62
1
100
AcDbLine
 10
52.334354
 20
43.944353
 30
0.0
 11
53.340000
 21
43.944353
 31
0.0
  0
LINE
  5
10f
100
AcDbEntity
  8
baffles_jr_30_1.0
 62
1
100
AcDbLine
 10
53.340000
 20
43.944353
 30
0.0
 11
54.345642
 21
43.944353
 31
0.0
  0
LINE
  5
110
100
AcDbEntity
  8
baffles_jr_30_1.0
 62
1
100
AcDbLine
 10
54.345642
 20
43.944353
 30
0.0
 11
54.345642
 21
55.200000
 31
0.0
  0
LINE
  5
111
100
AcDbEntity
  8
baffles_jr_30_1.0
 62
1
100
AcDbLine
 10
54.345642
 20
55.200000
 30
0.0
 11
69.004360
 21
55.200000
 31
0.0
  0
LINE
  5
112
100
AcDbEntity
  8
baffles_jr_30_1.0
 62
1
100
AcDbLine
 10
69.004360
 20
55.200000
 30
0.0
 11
69.004360
 21
43.944353
 31
0.0
  0
LINE
  5
113
100
AcDbEntity
  8
baffles_jr_30_1.0
 62
1
100
AcDbLine
 10
69.004360
 20
43.944353
 30
0.0
 11
70.009988
 21
43.944353
 31
0.0
  0
LINE
  5
114
100
AcDbEntity
  8
baffles_jr_30_1.0
 62
1
100
AcDbLine
 10
70.009988
 20
43.944353
 30
0.0
 11
71.015652
 21
43.944353
 31
0.0
  0
LINE
  5
115
100
AcDbEntity
  8
baffles_jr_30_1.0
 62
1
100
AcDbLine
 10
71.015652
 20
43.944353
 30
0.0
 11
71.015652
 21
55.200000
 31
0.0
  0
LINE
  5
116
100
AcDbEntity
  8
baffles_jr_30_1.0
 62
1
100
AcDbLine
 10
71.015652
 20
55.200000
 30
0.0
 11
85.674345
 21
55.200000
 31
0.0
  0
LINE
  5
117
100
AcDbEntity
  8
baffles_jr_30_1.0
 62
1
100
AcDbLine
 10
85.674345
 20
55.200000
 30
0.0
 11
85.674345
 21
43.944353
 31
0.0
  0
LINE
  5
118
100
AcDbEntity
  8
baffles_jr_30_1.0
 62
1
100
AcDbLine
 10
85.674345
 20
43.944353
 30
0.0
 11
86.680008
 21
43.944353
 31
0.0
  0
LINE
  5
119
100
AcDbEntity
  8
baffles_jr_30_1.0
 62
1
100
AcDbLine
 10
86.680008
 20
43.944353
 30
0.0
 11
87.685637
 21
43.944353
 31
0.0
  0
LINE
  5
11a
100
AcDbEntity
  8
baffles_jr_30_1.0
 62
1
100
AcDbLine
 10
87.685637
 20
43.944353
 30
0.0
 11
87.685637
 21
55.200000
 31
0.0
  0
LINE
  5
11b
100
AcDbEntity
  8
baffles_jr_30_1.0
 62
1
100
AcDbLine
 10
87.685637
 20
55.200000
 30
0.0
 11
102.344365
 21
55.200000
 31
0.0
  0
LINE
  5
11c
100
AcDbEntity
  8
baffles_jr_30_1.0
 62
1
100
AcDbLine
 10
102.344365
 20
55.200000
 30
0.0
 11
102.344365
 21
43.944353
 31
0.0
  0
LINE
  5
11d
100
AcDbEntity
  8
baffles_jr_30_1.0
 62
1
100
AcDbLine
 10
102.344365
 20
43.944353
 30
0.0
 11
103.349993
 21
43.944353
 31
0.0
  0
LINE
  5
11e
100
AcDbEntity
  8
baffles_jr_30_1.0
 62
1
100
AcDbLine
 10
103.349993
 20
43.944353
 30
0.0
 11
104.355657
 21
43.944353
 31
0.0
  0
LINE
  5
11f
100
AcDbEntity
  8
baffles_jr_30_1.0
 62
1
100
AcDbLine
 10
104.355657
 20
43.944353
 30
0.0
 11
104.355657
 21
55.200000
 31
0.0
  0
LINE
  5
120
100
AcDbEntity
  8
baffles_jr_30_1.0
 62
1
100
AcDbLine
 10
104.355657
 20
55.200000
 30
0.0
 11
119.014349
 21
55.200000
 31
0.0
  0
LINE
  5
121
100
AcDbEntity
  8
baffles_jr_30_1.0
 62
1
100
AcDbLine
 10
119.014349
 20
55.200000
 30
0.0
 11
119.014349
 21
43.944353
 31
0.0
  0
LINE
  5
122
100
AcDbEntity
  8
baffles_jr_30_1.0
 62
1
100
AcDbLine
 10
119.014349
 20
43.944353
 30
0.0
 11
120.020013
 21
43.944353
 31
0.0
  0
LINE
  5
123
100
AcDbEntity
  8
baffles_jr_30_1.0
 62
1
100
AcDbLine
 10
120.020013
 20
43.944353
 30
0.0
 11
121.025641
 21
43.944353
 31
0.0
  0
LINE
  5
124
100
AcDbEntity
  8
baffles_jr_30_1.0
 62
1
100
AcDbLine
 10
121.025641
 20
43.944353
 30
0.0
 11
121.025641
 21
55.200000
 31
0.0
  0
LINE
  5
125
100
AcDbEntity
  8
baffles_jr_30_1.0
 62
1
100
AcDbLine
 10
121.025641
 20
55.200000
 30
0.0
 11
135.684369
 21
55.200000
 31
0.0
  0
LINE
  5
126
100
AcDbEntity
  8
baffles_jr_30_1.0
 62
1
100
AcDbLine
 10
135.684369
 20
55.200000
 30
0.0
 11
135.684369
 21
43.944353
 31
0.0
  0
LINE
  5
127
100
AcDbEntity
  8
baffles_jr_30_1.0
 62
1
100
AcDbLine
 10
135.684369
 20
43.944353
 30
0.0
 11
136.689998
 21
43.944353
 31
0.0
  0
LINE
  5
128
100
AcDbEntity
  8
baffles_jr_30_1.0
 62
1
100
AcDbLine
 10
136.689998
 20
43.944353
 30
0.0
 11
137.695626
 21
43.944353
 31
0.0
  0
LINE
  5
129
100
AcDbEntity
  8
baffles_jr_30_1.0
 62
1
100
AcDbLine
 10
137.695626
 20
43.944353
 30
0.0
 11
137.695626
 21
55.200000
 31
0.0
  0
LINE
  5
12a
100
AcDbEntity
  8
baffles_jr_30_1.0
 62
1
100
AcDbLine
 10
137.695626
 20
55.200000
 30
0.0
 11
152.354354
 21
55.200000
 31
0.0
  0
LINE
  5
12b
100
AcDbEntity
  8
baffles_jr_30_1.0
 62
1
100
AcDbLine
 10
152.354354
 20
55.200000
 30
0.0
 11
152.354354
 21
43.944353
 31
0.0
  0
LINE
  5
12c
100
AcDbEntity
  8
baffles_jr_30_1.0
 62
1
100
AcDbLine
 10
152.354354
 20
43.944353
 30
0.0
 11
153.359982
 21
43.944353
 31
0.0
  0
LINE
  5
12d
100
AcDbEntity
  8
baffles_jr_30_1.0
 62
1
100
AcDbLine
 10
153.359982
 20
43.944353
 30
0.0
 11
154.365646
 21
43.944353
 31
0.0
  0
LINE
  5
12e
100
AcDbEntity
  8
baffles_jr_30_1.0
 62
1
100
AcDbLine
 10
154.365646
 20
43.944353
 30
0.0
 11
154.365646
 21
55.200000
 31
0.0
  0
LINE
  5
12f
100
AcDbEntity
  8
baffles_jr_30_1.0
 62
1
100
AcDbLine
 10
154.365646
 20
55.200000
 30
0.0
 11
169.024339
 21
55.200000
 31
0.0
  0
LINE
  5
130
100
AcDbEntity
  8
baffles_jr_30_1.0
 62
1
100
AcDbLine
 10
169.024339
 20
55.200000
 30
0.0
 11
169.024339
 21
43.944353
 31
0.0
  0
LINE
  5
131
100
AcDbEntity
  8
baffles_jr_30_1.0
 62
1
100
AcDbLine
 10
169.024339
 20
43.944353
 30
0.0
 11
170.030002
 21
43.944353
 31
0.0
  0
LINE
  5
132
100
AcDbEntity
  8
baffles_jr_30_1.0
 62
1
100
AcDbLine
 10
170.030002
 20
43.944353
 30
0.0
 11
171.035631
 21
43.944353
 31
0.0
  0
LINE
  5
133
100
AcDbEntity
  8
baffles_jr_30_1.0
 62
1
100
AcDbLine
 10
171.035631
 20
43.944353
 30
0.0
 11
171.035631
 21
55.200000
 31
0.0
  0
LINE
  5
134
100
AcDbEntity
  8
baffles_jr_30_1.0
 62
1
100
AcDbLine
 10
171.035631
 20
55.200000
 30
0.0
 11
185.694359
 21
55.200000
 31
0.0
  0
LINE
  5
135
100
AcDbEntity
  8
baffles_jr_30_1.0
 62
1
100
AcDbLine
 10
185.694359
 20
55.200000
 30
0.0
 11
185.694359
 21
43.944353
 31
0.0
  0
LINE
  5
136
100
AcDbEntity
  8
baffles_jr_30_1.0
 62
1
100
AcDbLine
 10
185.694359
 20
43.944353
 30
0.0
 11
186.699987
 21
43.944353
 31
0.0
  0
LINE
  5
137
100
AcDbEntity
  8
baffles_jr_30_1.0
 62
1
100
AcDbLine
 10
186.699987
 20
43.944353
 30
0.0
 11
187.705651
 21
43.944353
 31
0.0
  0
LINE
  5
138
100
AcDbEntity
  8
baffles_jr_30_1.0
 62
1
100
AcDbLine
 10
187.705651
 20
43.944353
 30
0.0
 11
187.705651
 21
55.200000
 31
0.0
  0
LINE
  5
139
100
AcDbEntity
  8
baffles_jr_30_1.0
 62
1
100
AcDbLine
 10
187.705651
 20
55.200000
 30
0.0
 11
202.364344
 21
55.200000
 31
0.0
  0
LINE
  5
13a
100
AcDbEntity
  8
baffles_jr_30_1.0
 62
1
100
AcDbLine
 10
202.364344
 20
55.200000
 30
0.0
 11
202.364344
 21
43.944353
 31
0.0
  0
LINE
  5
13b
100
AcDbEntity
  8
baffles_jr_30_1.0
 62
1
100
AcDbLine
 10
202.364344
 20
43.944353
 30
0.0
 11
203.370007
 21
43.944353
 31
0.0
  0
LINE
  5
13c
100
AcDbEntity
  8
baffles_jr_30_1.0
 62
1
100
AcDbLine
 10
203.370007
 20
43.944353
 30
0.0
 11
204.375635
 21
43.944353
 31
0.0
  0
LINE
  5
13d
100
AcDbEntity
  8
baffles_jr_30_1.0
 62
1
100
AcDbLine
 10
204.375635
 20
43.944353
 30
0.0
 11
204.375635
 21
55.200000
 31
0.0
  0
LINE
  5
13e
100
AcDbEntity
  8
baffles_jr_30_1.0
 62
1
100
AcDbLine
 10
204.375635
 20
55.200000
 30
0.0
 11
219.034364
 21
55.200000
 31
0.0
  0
LINE
  5
13f
100
AcDbEntity
  8
baffles_jr_30_1.0
 62
1
100
AcDbLine
 10
219.034364
 20
55.200000
 30
0.0
 11
219.034364
 21
43.944353
 31
0.0
  0
LINE
  5
140
100
AcDbEntity
  8
baffles_jr_30_1.0
 62
1
100
AcDbLine
 10
219.034364
 20
43.944353
 30
0.0
 11
220.039992
 21
43.944353
 31
0.0
  0
LINE
  5
141
100
AcDbEntity
  8
baffles_jr_30_1.0
 62
1
100
AcDbLine
 10
220.039992
 20
43.944353
 30
0.0
 11
221.045655
 21
43.944353
 31
0.0
  0
LINE
  5
142
100
AcDbEntity
  8
baffles_jr_30_1.0
 62
1
100
AcDbLine
 10
221.045655
 20
43.944353
 30
0.0
 11
221.045655
 21
55.200000
 31
0.0
  0
LINE
  5
143
100
AcDbEntity
  8
baffles_jr_30_1.0
 62
1
100
AcDbLine
 10
221.045655
 20
55.200000
 30
0.0
 11
235.704348
 21
55.200000
 31
0.0
  0
LINE
  5
144
100
AcDbEntity
  8
baffles_jr_30_1.0
 62
1
100
AcDbLine
 10
235.704348
 20
55.200000
 30
0.0
 11
235.704348
 21
43.944353
 31
0.0
  0
LINE
  5
145
100
AcDbEntity
  8
baffles_jr_30_1.0
 62
1
100
AcDbLine
 10
235.704348
 20
43.944353
 30
0.0
 11
236.710012
 21
43.944353
 31
0.0
  0
LINE
  5
146
100
AcDbEntity
  8
baffles_jr_30_1.0
 62
1
100
AcDbLine
 10
236.710012
 20
43.944353
 30
0.0
 11
237.715640
 21
43.944353
 31
0.0
  0
LINE
  5
147
100
AcDbEntity
  8
baffles_jr_30_1.0
 62
1
100
AcDbLine
 10
237.715640
 20
43.944353
 30
0.0
 11
237.715640
 21
55.200000
 31
0.0
  0
LINE
  5
148
100
AcDbEntity
  8
baffles_jr_30_1.0
 62
1
100
AcDbLine
 10
237.715640
 20
55.200000
 30
0.0
 11
252.374368
 21
55.200000
 31
0.0
  0
LINE
  5
149
100
AcDbEntity
  8
baffles_jr_30_1.0
 62
1
100
AcDbLine
 10
252.374368
 20
55.200000
 30
0.0
 11
252.374368
 21
43.944353
 31
0.0
  0
LINE
  5
14a
100
AcDbEntity
  8
baffles_jr_30_1.0
 62
1
100
AcDbLine
 10
252.374368
 20
43.944353
 30
0.0
 11
253.379997
 21
43.944353
 31
0.0
  0
LINE
  5
14b
100
AcDbEntity
  8
baffles_jr_30_1.0
 62
1
100
AcDbLine
 10
253.379997
 20
43.944353
 30
0.0
 11
254.385660
 21
43.944353
 31
0.0
  0
LINE
  5
14c
100
AcDbEntity
  8
baffles_jr_30_1.0
 62
1
100
AcDbLine
 10
254.385660
 20
43.944353
 30
0.0
 11
254.385660
 21
55.200000
 31
0.0
  0
LINE
  5
14d
100
AcDbEntity
  8
baffles_jr_30_1.0
 62
1
100
AcDbLine
 10
254.385660
 20
55.200000
 30
0.0
 11
257.380003
 21
55.200000
 31
0.0
  0
LINE
  5
14e
100
AcDbEntity
  8
baffles_jr_30_1.0
 62
1
100
AcDbLine
 10
257.380003
 20
55.200000
 30
0.0
 11
257.380003
 21
32.699999
 31
0.0
  0
LINE
  5
14f
100
AcDbEntity
  8
baffles_jr_30_1.0
 62
1
100
AcDbLine
 10
257.380003
 20
32.699999
 30
0.0
 11
253.379997
 21
32.699999
 31
0.0
  0
LINE
  5
150
100
AcDbEntity
  8
baffles_jr_30_1.0
 62
1
100
AcDbLine
 10
253.379997
 20
32.699999
 30
0.0
 11
19.999999
 21
32.699999
 31
0.0
  0
LINE
  5
151
100
AcDbEntity
  8
baffles_jr_30_1.0
 62
1
100
AcDbLine
 10
19.999999
 20
55.732253
 30
0.0
 11
16.000000
 21
55.732253
 31
0.0
  0
LINE
  5
152
100
AcDbEntity
  8
baffles_jr_30_1.0
 62
1
100
AcDbLine
 10
16.000000
 20
55.732253
 30
0.0
 11
16.000000
 21
78.232243
 31
0.0
  0
LINE
  5
153
100
AcDbEntity
  8
baffles_jr_30_1.0
 62
1
100
AcDbLine
 10
16.000000
 20
78.232243
 30
0.0
 11
18.994354
 21
78.232243
 31
0.0
  0
LINE
  5
154
100
AcDbEntity
  8
baffles_jr_30_1.0
 62
1
100
AcDbLine
 10
18.994354
 20
78.232243
 30
0.0
 11
18.994354
 21
66.976621
 31
0.0
  0
LINE
  5
155
100
AcDbEntity
  8
baffles_jr_30_1.0
 62
1
100
AcDbLine
 10
18.994354
 20
66.976621
 30
0.0
 11
19.999999
 21
66.976621
 31
0.0
  0
LINE
  5
156
100
AcDbEntity
  8
baffles_jr_30_1.0
 62
1
100
AcDbLine
 10
19.999999
 20
66.976621
 30
0.0
 11
21.005643
 21
66.976621
 31
0.0
  0
LINE
  5
157
100
AcDbEntity
  8
baffles_jr_30_1.0
 62
1
100
AcDbLine
 10
21.005643
 20
66.976621
 30
0.0
 11
21.005643
 21
78.232243
 31
0.0
  0
LINE
  5
158
100
AcDbEntity
  8
baffles_jr_30_1.0
 62
1
100
AcDbLine
 10
21.005643
 20
78.232243
 30
0.0
 11
36.940356
 21
78.232243
 31
0.0
  0
LINE
  5
159
100
AcDbEntity
  8
baffles_jr_30_1.0
 62
1
100
AcDbLine
 10
36.940356
 20
78.232243
 30
0.0
 11
36.940356
 21
66.976621
 31
0.0
  0
LINE
  5
15a
100
AcDbEntity
  8
baffles_jr_30_1.0
 62
1
100
AcDbLine
 10
36.940356
 20
66.976621
 30
0.0
 11
37.945998
 21
66.976621
 31
0.0
  0
LINE
  5
15b
100
AcDbEntity
  8
baffles_jr_30_1.0
 62
1
100
AcDbLine
 10
37.945998
 20
66.976621
 30
0.0
 11
38.951644
 21
66.976621
 31
0.0
  0
LINE
  5
15c
100
AcDbEntity
  8
baffles_jr_30_1.0
 62
1
100
AcDbLine
 10
38.951644
 20
66.976621
 30
0.0
 11
38.951644
 21
78.232243
 31
0.0
  0
LINE
  5
15d
100
AcDbEntity
  8
baffles_jr_30_1.0
 62
1
100
AcDbLine
 10
38.951644
 20
78.232243
 30
0.0
 11
54.886356
 21
78.232243
 31
0.0
  0
LINE
  5
15e
100
AcDbEntity
  8
baffles_jr_30_1.0
 62
1
100
AcDbLine
 10
54.886356
 20
78.232243
 30
0.0
 11
54.886356
 21
66.976621
 31
0.0
  0
LINE
  5
15f
100
AcDbEntity
  8
baffles_jr_30_1.0
 62
1
100
AcDbLine
 10
54.886356
 20
66.976621
 30
0.0
 11
55.891998
 21
66.976621
 31
0.0
  0
LINE
  5
160
100
AcDbEntity
  8
baffles_jr_30_1.0
 62
1
100
AcDbLine
 10
55.891998
 20
66.976621
 30
0.0
 11
56.897626
 21
66.976621
 31
0.0
  0
LINE
  5
161
100
AcDbEntity
  8
baffles_jr_30_1.0
 62
1
100
AcDbLine
 10
56.897626
 20
66.976621
 30
0.0
 11
56.897626
 21
78.232243
 31
0.0
  0
LINE
  5
162
100
AcDbEntity
  8
baffles_jr_30_1.0
 62
1
100
AcDbLine
 10
56.897626
 20
78.232243
 30
0.0
 11
72.832352
 21
78.232243
 31
0.0
  0
LINE
  5
163
100
AcDbEntity
  8
baffles_jr_30_1.0
 62
1
100
AcDbLine
 10
72.832352
 20
78.232243
 30
0.0
 11
72.832352
 21
66.976621
 31
0.0
  0
LINE
  5
164
100
AcDbEntity
  8
baffles_jr_30_1.0
 62
1
100
AcDbLine
 10
72.832352
 20
66.976621
 30
0.0
 11
73.838015
 21
66.976621
 31
0.0
  0
LINE
  5
165
100
AcDbEntity
  8
baffles_jr_30_1.0
 62
1
100
AcDbLine
 10
73.838015
 20
66.976621
 30
0.0
 11
74.843644
 21
66.976621
 31
0.0
  0
LINE
  5
166
100
AcDbEntity
  8
baffles_jr_30_1.0
 62
1
100
AcDbLine
 10
74.843644
 20
66.976621
 30
0.0
 11
74.843644
 21
78.232243
 31
0.0
  0
LINE
  5
167
100
AcDbEntity
  8
baffles_jr_30_1.0
 62
1
100
AcDbLine
 10
74.843644
 20
78.232243
 30
0.0
 11
90.778369
 21
78.232243
 31
0.0
  0
LINE
  5
168
100
AcDbEntity
  8
baffles_jr_30_1.0
 62
1
100
AcDbLine
 10
90.778369
 20
78.232243
 30
0.0
 11
90.778369
 21
66.976621
 31
0.0
  0
LINE
  5
169
100
AcDbEntity
  8
baffles_jr_30_1.0
 62
1
100
AcDbLine
 10
90.778369
 20
66.976621
 30
0.0
 11
91.783997
 21
66.976621
 31
0.0
  0
LINE
  5
16a
100
AcDbEntity
  8
baffles_jr_30_1.0
 62
1
100
AcDbLine
 10
91.783997
 20
66.976621
 30
0.0
 11
92.789661
 21
66.976621
 31
0.0
  0
LINE
  5
16b
100
AcDbEntity
  8
baffles_jr_30_1.0
 62
1
100
AcDbLine
 10
92.789661
 20
66.976621
 30
0.0
 11
92.789661
 21
78.232243
 31
0.0
  0
LINE
  5
16c
100
AcDbEntity
  8
baffles_jr_30_1.0
 62
1
100
AcDbLine
 10
92.789661
 20
78.232243
 30
0.0
 11
108.724351
 21
78.232243
 31
0.0
  0
LINE
  5
16d
100
AcDbEntity
  8
baffles_jr_30_1.0
 62
1
100
AcDbLine
 10
108.724351
 20
78.232243
 30
0.0
 11
108.724351
 21
66.976621
 31
0.0
  0
LINE
  5
16e
100
AcDbEntity
  8
baffles_jr_30_1.0
 62
1
100
AcDbLine
 10
108.724351
 20
66.976621
 30
0.0
 11
109.730014
 21
66.976621
 31
0.0
  0
LINE
  5
16f
100
AcDbEntity
  8
baffles_jr_30_1.0
 62
1
100
AcDbLine
 10
109.730014
 20
66.976621
 30
0.0
 11
110.735643
 21
66.976621
 31
0.0
  0
LINE
  5
170
100
AcDbEntity
  8
baffles_jr_30_1.0
 62
1
100
AcDbLine
 10
110.735643
 20
66.976621
 30
0.0
 11
110.735643
 21
78.232243
 31
0.0
  0
LINE
  5
171
100
AcDbEntity
  8
baffles_jr_30_1.0
 62
1
100
AcDbLine
 10
110.735643
 20
78.232243
 30
0.0
 11
126.670368
 21
78.232243
 31
0.0
  0
LINE
  5
172
100
AcDbEntity
  8
baffles_jr_30_1.0
 62
1
100
AcDbLine
 10
126.670368
 20
78.232243
 30
0.0
 11
126.670368
 21
66.976621
 31
0.0
  0
LINE
  5
173
100
AcDbEntity
  8
baffles_jr_30_1.0
 62
1
100
AcDbLine
 10
126.670368
 20
66.976621
 30
0.0
 11
127.675996
 21
66.976621
 31
0.0
  0
LINE
  5
174
100
AcDbEntity
  8
baffles_jr_30_1.0
 62
1
100
AcDbLine
 10
127.675996
 20
66.976621
 30
0.0
 11
128.681660
 21
66.976621
 31
0.0
  0
LINE
  5
175
100
AcDbEntity
  8
baffles_jr_30_1.0
 62
1
100
AcDbLine
 10
128.681660
 20
66.976621
 30
0.0
 11
128.681660
 21
78.232243
 31
0.0
  0
LINE
  5
176
100
AcDbEntity
  8
baffles_jr_30_1.0
 62
1
100
AcDbLine
 10
128.681660
 20
78.232243
 30
0.0
 11
144.616350
 21
78.232243
 31
0.0
  0
LINE
  5
177
100
AcDbEntity
  8
baffles_jr_30_1.0
 62
1
100
AcDbLine
 10
144.616350
 20
78.232243
 30
0.0
 11
144.616350
 21
66.976621
 31
0.0
  0
LINE
  5
178
100
AcDbEntity
  8
baffles_jr_30_1.0
 62
1
100
AcDbLine
 10
144.616350
 20
66.976621
 30
0.0
 11
145.622014
 21
66.976621
 31
0.0
  0
LINE
  5
179
100
AcDbEntity
  8
baffles_jr_30_1.0
 62
1
100
AcDbLine
 10
145.622014
 20
66.976621
 30
0.0
 11
146.627642
 21
66.976621
 31
0.0
  0
LINE
  5
17a
100
AcDbEntity
  8
baffles_jr_30_1.0
 62
1
100
AcDbLine
 10
146.627642
 20
66.976621
 30
0.0
 11
146.627642
 21
78.232243
 31
0.0
  0
LINE
  5
17b
100
AcDbEntity
  8
baffles_jr_30_1.0
 62
1
100
AcDbLine
 10
146.627642
 20
78.232243
 30
0.0
 11
162.562367
 21
78.232243
 31
0.0
  0
LINE
  5
17c
100
AcDbEntity
  8
baffles_jr_30_1.0
 62
1
100
AcDbLine
 10
162.562367
 20
78.232243
 30
0.0
 11
162.562367
 21
66.976621
 31
0.0
  0
LINE
  5
17d
100
AcDbEntity
  8
baffles_jr_30_1.0
 62
1
100
AcDbLine
 10
162.562367
 20
66.976621
 30
0.0
 11
163.567995
 21
66.976621
 31
0.0
  0
LINE
  5
17e
100
AcDbEntity
  8
baffles_jr_30_1.0
 62
1
100
AcDbLine
 10
163.567995
 20
66.976621
 30
0.0
 11
164.573659
 21
66.976621
 31
0.0
  0
LINE
  5
17f
100
AcDbEntity
  8
baffles_jr_30_1.0
 62
1
100
AcDbLine
 10
164.573659
 20
66.976621
 30
0.0
 11
164.573659
 21
78.232243
 31
0.0
  0
LINE
  5
180
100
AcDbEntity
  8
baffles_jr_30_1.0
 62
1
100
AcDbLine
 10
164.573659
 20
78.232243
 30
0.0
 11
180.508349
 21
78.232243
 31
0.0
  0
LINE
  5
181
100
AcDbEntity
  8
baffles_jr_30_1.0
 62
1
100
AcDbLine
 10
180.508349
 20
78.232243
 30
0.0
 11
180.508349
 21
66.976621
 31
0.0
  0
LINE
  5
182
100
AcDbEntity
  8
baffles_jr_30_1.0
 62
1
100
AcDbLine
 10
180.508349
 20
66.976621
 30
0.0
 11
181.514013
 21
66.976621
 31
0.0
  0
LINE
  5
183
100
AcDbEntity
  8
baffles_jr_30_1.0
 62
1
100
AcDbLine
 10
181.514013
 20
66.976621
 30
0.0
 11
182.519641
 21
66.976621
 31
0.0
  0
LINE
  5
184
100
AcDbEntity
  8
baffles_jr_30_1.0
 62
1
100
AcDbLine
 10
182.519641
 20
66.976621
 30
0.0
 11
182.519641
 21
78.232243
 31
0.0
  0
LINE
  5
185
100
AcDbEntity
  8
baffles_jr_30_1.0
 62
1
100
AcDbLine
 10
182.519641
 20
78.232243
 30
0.0
 11
198.454366
 21
78.232243
 31
0.0
  0
LINE
  5
186
100
AcDbEntity
  8
baffles_jr_30_1.0
 62
1
100
AcDbLine
 10
198.454366
 20
78.232243
 30
0.0
 11
198.454366
 21
66.976621
 31
0.0
  0
LINE
  5
187
100
AcDbEntity
  8
baffles_jr_30_1.0
 62
1
100
AcDbLine
 10
198.454366
 20
66.976621
 30
0.0
 11
199.459995
 21
66.976621
 31
0.0
  0
LINE
  5
188
100
AcDbEntity
  8
baffles_jr_30_1.0
 62
1
100
AcDbLine
 10
199.459995
 20
66.976621
 30
0.0
 11
200.465658
 21
66.976621
 31
0.0
  0
LINE
  5
189
100
AcDbEntity
  8
baffles_jr_30_1.0
 62
1
100
AcDbLine
 10
200.465658
 20
66.976621
 30
0.0
 11
200.465658
 21
78.232243
 31
0.0
  0
LINE
  5
18a
100
AcDbEntity
  8
baffles_jr_30_1.0
 62
1
100
AcDbLine
 10
200.465658
 20
78.232243
 30
0.0
 11
216.400348
 21
78.232243
 31
0.0
  0
LINE
  5
18b
100
AcDbEntity
  8
baffles_jr_30_1.0
 62
1
100
AcDbLine
 10
216.400348
 20
78.232243
 30
0.0
 11
216.400348
 21
66.976621
 31
0.0
  0
LINE
  5
18c
100
AcDbEntity
  8
baffles_jr_30_1.0
 62
1
100
AcDbLine
 10
216.400348
 20
66.976621
 30
0.0
 11
217.406012
 21
66.976621
 31
0.0
  0
LINE
  5
18d
100
AcDbEntity
  8
baffles_jr_30_1.0
 62
1
100
AcDbLine
 10
217.406012
 20
66.976621
 30
0.0
 11
218.411640
 21
66.976621
 31
0.0
  0
LINE
  5
18e
100
AcDbEntity
  8
baffles_jr_30_1.0
 62
1
100
AcDbLine
 10
218.411640
 20
66.976621
 30
0.0
 11
218.411640
 21
78.232243
 31
0.0
  0
LINE
  5
18f
100
AcDbEntity
  8
baffles_jr_30_1.0
 62
1
100
AcDbLine
 10
218.411640
 20
78.232243
 30
0.0
 11
234.346365
 21
78.232243
 31
0.0
  0
LINE
  5
190
100
AcDbEntity
  8
baffles_jr_30_1.0
 62
1
100
AcDbLine
 10
234.346365
 20
78.232243
 30
0.0
 11
234.346365
 21
66.976621
 31
0.0
  0
LINE
  5
191
100
AcDbEntity
  8
baffles_jr_30_1.0
 62
1
100
AcDbLine
 10
234.346365
 20
66.976621
 30
0.0
 11
235.351994
 21
66.976621
 31
0.0
  0
LINE
  5
192
100
AcDbEntity
  8
baffles_jr_30_1.0
 62
1
100
AcDbLine
 10
235.351994
 20
66.976621
 30
0.0
 11
236.357657
 21
66.976621
 31
0.0
  0
LINE
  5
193
100
AcDbEntity
  8
baffles_jr_30_1.0
 62
1
100
AcDbLine
 10
236.357657
 20
66.976621
 30
0.0
 11
236.357657
 21
78.232243
 31
0.0
  0
LINE
  5
194
100
AcDbEntity
  8
baffles_jr_30_1.0
 62
1
100
AcDbLine
 10
236.357657
 20
78.232243
 30
0.0
 11
252.292347
 21
78.232243
 31
0.0
  0
LINE
  5
195
100
AcDbEntity
  8
baffles_jr_30_1.0
 62
1
100
AcDbLine
 10
252.292347
 20
78.232243
 30
0.0
 11
252.292347
 21
66.976621
 31
0.0
  0
LINE
  5
196
100
AcDbEntity
  8
baffles_jr_30_1.0
 62
1
100
AcDbLine
 10
252.292347
 20
66.976621
 30
0.0
 11
253.298011
 21
66.976621
 31
0.0
  0
LINE
  5
197
100
AcDbEntity
  8
baffles_jr_30_1.0
 62
1
100
AcDbLine
 10
253.298011
 20
66.976621
 30
0.0
 11
254.303639
 21
66.976621
 31
0.0
  0
LINE
  5
198
100
AcDbEntity
  8
baffles_jr_30_1.0
 62
1
100
AcDbLine
 10
254.303639
 20
66.976621
 30
0.0
 11
254.303639
 21
78.232243
 31
0.0
  0
LINE
  5
199
100
AcDbEntity
  8
baffles_jr_30_1.0
 62
1
100
AcDbLine
 10
254.303639
 20
78.232243
 30
0.0
 11
257.297982
 21
78.232243
 31
0.0
  0
LINE
  5
19a
100
AcDbEntity
  8
baffles_jr_30_1.0
 62
1
100
AcDbLine
 10
257.297982
 20
78.232243
 30
0.0
 11
257.297982
 21
55.732253
 31
0.0
  0
LINE
  5
19b
100
AcDbEntity
  8
baffles_jr_30_1.0
 62
1
100
AcDbLine
 10
257.297982
 20
55.732253
 30
0.0
 11
253.298011
 21
55.732253
 31
0.0
  0
LINE
  5
19c
100
AcDbEntity
  8
baffles_jr_30_1.0
 62
1
100
AcDbLine
 10
253.298011
 20
55.732253
 30
0.0
 11
249.425005
 21
55.732253
 31
0.0
  0
LINE
  5
19d
100
AcDbEntity
  8
baffles_jr_30_1.0
 62
1
100
AcDbLine
 10
249.425005
 20
55.732253
 30
0.0
 11
249.425005
 21
56.732237
 31
0.0
  0
LINE
  5
19e
100
AcDbEntity
  8
baffles_jr_30_1.0
 62
1
100
AcDbLine
 10
249.425005
 20
56.732237
 30
0.0
 11
239.225000
 21
56.732237
 31
0.0
  0
LINE
  5
19f
100
AcDbEntity
  8
baffles_jr_30_1.0
 62
1
100
AcDbLine
 10
239.225000
 20
56.732237
 30
0.0
 11
239.225000
 21
55.732253
 31
0.0
  0
LINE
  5
1a0
100
AcDbEntity
  8
baffles_jr_30_1.0
 62
1
100
AcDbLine
 10
239.225000
 20
55.732253
 30
0.0
 11
235.351994
 21
55.732253
 31
0.0
  0
LINE
  5
1a1
100
AcDbEntity
  8
baffles_jr_30_1.0
 62
1
100
AcDbLine
 10
235.351994
 20
55.732253
 30
0.0
 11
231.478988
 21
55.732253
 31
0.0
  0
LINE
  5
1a2
100
AcDbEntity
  8
baffles_jr_30_1.0
 62
1
100
AcDbLine
 10
231.478988
 20
55.732253
 30
0.0
 11
231.478988
 21
56.732237
 31
0.0
  0
LINE
  5
1a3
100
AcDbEntity
  8
baffles_jr_30_1.0
 62
1
100
AcDbLine
 10
231.478988
 20
56.732237
 30
0.0
 11
221.278983
 21
56.732237
 31
0.0
  0
LINE
  5
1a4
100
AcDbEntity
  8
baffles_jr_30_1.0
 62
1
100
AcDbLine
 10
221.278983
 20
56.732237
 30
0.0
 11
221.278983
 21
55.732253
 31
0.0
  0
LINE
  5
1a5
100
AcDbEntity
  8
baffles_jr_30_1.0
 62
1
100
AcDbLine
 10
221.278983
 20
55.732253
 30
0.0
 11
217.406012
 21
55.732253
 31
0.0
  0
LINE
  5
1a6
100
AcDbEntity
  8
baffles_jr_30_1.0
 62
1
100
AcDbLine
 10
217.406012
 20
55.732253
 30
0.0
 11
213.533006
 21
55.732253
 31
0.0
  0
LINE
  5
1a7
100
AcDbEntity
  8
baffles_jr_30_1.0
 62
1
100
AcDbLine
 10
213.533006
 20
55.732253
 30
0.0
 11
213.533006
 21
56.732237
 31
0.0
  0
LINE
  5
1a8
100
AcDbEntity
  8
baffles_jr_30_1.0
 62
1
100
AcDbLine
 10
213.533006
 20
56.732237
 30
0.0
 11
203.333001
 21
56.732237
 31
0.0
  0
LINE
  5
1a9
100
AcDbEntity
  8
baffles_jr_30_1.0
 62
1
100
AcDbLine
 10
203.333001
 20
56.732237
 30
0.0
 11
203.333001
 21
55.732253
 31
0.0
  0
LINE
  5
1aa
100
AcDbEntity
  8
baffles_jr_30_1.0
 62
1
100
AcDbLine
 10
203.333001
 20
55.732253
 30
0.0
 11
199.459995
 21
55.732253
 31
0.0
  0
LINE
  5
1ab
100
AcDbEntity
  8
baffles_jr_30_1.0
 62
1
100
AcDbLine
 10
199.459995
 20
55.732253
 30
0.0
 11
195.586989
 21
55.732253
 31
0.0
  0
LINE
  5
1ac
100
AcDbEntity
  8
baffles_jr_30_1.0
 62
1
100
AcDbLine
 10
195.586989
 20
55.732253
 30
0.0
 11
195.586989
 21
56.732237
 31
0.0
  0
LINE
  5
1ad
100
AcDbEntity
  8
baffles_jr_30_1.0
 62
1
100
AcDbLine
 10
195.586989
 20
56.732237
 30
0.0
 11
185.386984
 21
56.732237
 31
0.0
  0
LINE
  5
1ae
100
AcDbEntity
  8
baffles_jr_30_1.0
 62
1
100
AcDbLine
 10
185.386984
 20
56.732237
 30
0.0
 11
185.386984
 21
55.732253
 31
0.0
  0
LINE
  5
1af
100
AcDbEntity
  8
baffles_jr_30_1.0
 62
1
100
AcDbLine
 10
185.386984
 20
55.732253
 30
0.0
 11
181.514013
 21
55.732253
 31
0.0
  0
LINE
  5
1b0
100
AcDbEntity
  8
baffles_jr_30_1.0
 62
1
100
AcDbLine
 10
181.514013
 20
55.732253
 30
0.0
 11
177.641007
 21
55.732253
 31
0.0
  0
LINE
  5
1b1
100
AcDbEntity
  8
baffles_jr_30_1.0
 62
1
100
AcDbLine
 10
177.641007
 20
55.732253
 30
0.0
 11
177.641007
 21
56.732237
 31
0.0
  0
LINE
  5
1b2
100
AcDbEntity
  8
baffles_jr_30_1.0
 62
1
100
AcDbLine
 10
177.641007
 20
56.732237
 30
0.0
 11
167.441002
 21
56.732237
 31
0.0
  0
LINE
  5
1b3
100
AcDbEntity
  8
baffles_jr_30_1.0
 62
1
100
AcDbLine
 10
167.441002
 20
56.732237
 30
0.0
 11
167.441002
 21
55.732253
 31
0.0
  0
LINE
  5
1b4
100
AcDbEntity
  8
baffles_jr_30_1.0
 62
1
100
AcDbLine
 10
167.441002
 20
55.732253
 30
0.0
 11
163.567995
 21
55.732253
 31
0.0
  0
LINE
  5
1b5
100
AcDbEntity
  8
baffles_jr_30_1.0
 62
1
100
AcDbLine
 10
163.567995
 20
55.732253
 30
0.0
 11
159.694989
 21
55.732253
 31
0.0
  0
LINE
  5
1b6
100
AcDbEntity
  8
baffles_jr_30_1.0
 62
1
100
AcDbLine
 10
159.694989
 20
55.732253
 30
0.0
 11
159.694989
 21
56.732237
 31
0.0
  0
LINE
  5
1b7
100
AcDbEntity
  8
baffles_jr_30_1.0
 62
1
100
AcDbLine
 10
159.694989
 20
56.732237
 30
0.0
 11
149.494984
 21
56.732237
 31
0.0
  0
LINE
  5
1b8
100
AcDbEntity
  8
baffles_jr_30_1.0
 62
1
100
AcDbLine
 10
149.494984
 20
56.732237
 30
0.0
 11
149.494984
 21
55.732253
 31
0.0
  0
LINE
  5
1b9
100
AcDbEntity
  8
baffles_jr_30_1.0
 62
1
100
AcDbLine
 10
149.494984
 20
55.732253
 30
0.0
 11
145.622014
 21
55.732253
 31
0.0
  0
LINE
  5
1ba
100
AcDbEntity
  8
baffles_jr_30_1.0
 62
1
100
AcDbLine
 10
145.622014
 20
55.732253
 30
0.0
 11
141.749007
 21
55.732253
 31
0.0
  0
LINE
  5
1bb
100
AcDbEntity
  8
baffles_jr_30_1.0
 62
1
100
AcDbLine
 10
141.749007
 20
55.732253
 30
0.0
 11
141.749007
 21
56.732237
 31
0.0
  0
LINE
  5
1bc
100
AcDbEntity
  8
baffles_jr_30_1.0
 62
1
100
AcDbLine
 10
141.749007
 20
56.732237
 30
0.0
 11
131.549002
 21
56.732237
 31
0.0
  0
LINE
  5
1bd
100
AcDbEntity
  8
baffles_jr_30_1.0
 62
1
100
AcDbLine
 10
131.549002
 20
56.732237
 30
0.0
 11
131.549002
 21
55.732253
 31
0.0
  0
LINE
  5
1be
100
AcDbEntity
  8
baffles_jr_30_1.0
 62
1
100
AcDbLine
 10
131.549002
 20
55.732253
 30
0.0
 11
127.675996
 21
55.732253
 31
0.0
  0
LINE
  5
1bf
100
AcDbEntity
  8
baffles_jr_30_1.0
 62
1
100
AcDbLine
 10
127.675996
 20
55.732253
 30
0.0
 11
123.802990
 21
55.732253
 31
0.0
  0
LINE
  5
1c0
100
AcDbEntity
  8
baffles_jr_30_1.0
 62
1
100
AcDbLine
 10
123.802990
 20
55.732253
 30
0.0
 11
123.802990
 21
56.732237
 31
0.0
  0
LINE
  5
1c1
100
AcDbEntity
  8
baffles_jr_30_1.0
 62
1
100
AcDbLine
 10
123.802990
 20
56.732237
 30
0.0
 11
113.602985
 21
56.732237
 31
0.0
  0
LINE
  5
1c2
100
AcDbEntity
  8
baffles_jr_30_1.0
 62
1
100
AcDbLine
 10
113.602985
 20
56.732237
 30
0.0
 11
113.602985
 21
55.732253
 31
0.0
  0
LINE
  5
1c3
100
AcDbEntity
  8
baffles_jr_30_1.0
 62
1
100
AcDbLine
 10
113.602985
 20
55.732253
 30
0.0
 11
109.730014
 21
55.732253
 31
0.0
  0
LINE
  5
1c4
100
AcDbEntity
  8
baffles_jr_30_1.0
 62
1
100
AcDbLine
 10
109.730014
 20
55.732253
 30
0.0
 11
105.857008
 21
55.732253
 31
0.0
  0
LINE
  5
1c5
100
AcDbEntity
  8
baffles_jr_30_1.0
 62
1
100
AcDbLine
 10
105.857008
 20
55.732253
 30
0.0
 11
105.857008
 21
56.732237
 31
0.0
  0
LINE
  5
1c6
100
AcDbEntity
  8
baffles_jr_30_1.0
 62
1
100
AcDbLine
 10
105.857008
 20
56.732237
 30
0.0
 11
95.657003
 21
56.732237
 31
0.0
  0
LINE
  5
1c7
100
AcDbEntity
  8
baffles_jr_30_1.0
 62
1
100
AcDbLine
 10
95.657003
 20
56.732237
 30
0.0
 11
95.657003
 21
55.732253
 31
0.0
  0
LINE
  5
1c8
100
AcDbEntity
  8
baffles_jr_30_1.0
 62
1
100
AcDbLine
 10
95.657003
 20
55.732253
 30
0.0
 11
91.783997
 21
55.732253
 31
0.0
  0
LINE
  5
1c9
100
AcDbEntity
  8
baffles_jr_30_1.0
 62
1
100
AcDbLine
 10
91.783997
 20
55.732253
 30
0.0
 11
87.910991
 21
55.732253
 31
0.0
  0
LINE
  5
1ca
100
AcDbEntity
  8
baffles_jr_30_1.0
 62
1
100
AcDbLine
 10
87.910991
 20
55.732253
 30
0.0
 11
87.910991
 21
56.732237
 31
0.0
  0
LINE
  5
1cb
100
AcDbEntity
  8
baffles_jr_30_1.0
 62
1
100
AcDbLine
 10
87.910991
 20
56.732237
 30
0.0
 11
77.710986
 21
56.732237
 31
0.0
  0
LINE
  5
1cc
100
AcDbEntity
  8
baffles_jr_30_1.0
 62
1
100
AcDbLine
 10
77.710986
 20
56.732237
 30
0.0
 11
77.710986
 21
55.732253
 31
0.0
  0
LINE
  5
1cd
100
AcDbEntity
  8
baffles_jr_30_1.0
 62
1
100
AcDbLine
 10
77.710986
 20
55.732253
 30
0.0
 11
73.838015
 21
55.732253
 31
0.0
  0
LINE
  5
1ce
100
AcDbEntity
  8
baffles_jr_30_1.0
 62
1
100
AcDbLine
 10
73.838015
 20
55.732253
 30
0.0
 11
69.965009
 21
55.732253
 31
0.0
  0
LINE
  5
1cf
100
AcDbEntity
  8
baffles_jr_30_1.0
 62
1
100
AcDbLine
 10
69.965009
 20
55.732253
 30
0.0
 11
69.965009
 21
56.732237
 31
0.0
  0
LINE
  5
1d0
100
AcDbEntity
  8
baffles_jr_30_1.0
 62
1
100
AcDbLine
 10
69.965009
 20
56.732237
 30
0.0
 11
59.765004
 21
56.732237
 31
0.0
  0
LINE
  5
1d1
100
AcDbEntity
  8
baffles_jr_30_1.0
 62
1
100
AcDbLine
 10
59.765004
 20
56.732237
 30
0.0
 11
59.765004
 21
55.732253
 31
0.0
  0
LINE
  5
1d2
100
AcDbEntity
  8
baffles_jr_30_1.0
 62
1
100
AcDbLine
 10
59.765004
 20
55.732253
 30
0.0
 11
55.891998
 21
55.732253
 31
0.0
  0
LINE
  5
1d3
100
AcDbEntity
  8
baffles_jr_30_1.0
 62
1
100
AcDbLine
 10
55.891998
 20
55.732253
 30
0.0
 11
52.018999
 21
55.732253
 31
0.0
  0
LINE
  5
1d4
100
AcDbEntity
  8
baffles_jr_30_1.0
 62
1
100
AcDbLine
 10
52.018999
 20
55.732253
 30
0.0
 11
52.018999
 21
56.732237
 31
0.0
  0
LINE
  5
1d5
100
AcDbEntity
  8
baffles_jr_30_1.0
 62
1
100
AcDbLine
 10
52.018999
 20
56.732237
 30
0.0
 11
41.818997
 21
56.732237
 31
0.0
  0
LINE
  5
1d6
100
AcDbEntity
  8
baffles_jr_30_1.0
 62
1
100
AcDbLine
 10
41.818997
 20
56.732237
 30
0.0
 11
41.818997
 21
55.732253
 31
0.0
  0
LINE
  5
1d7
100
AcDbEntity
  8
baffles_jr_30_1.0
 62
1
100
AcDbLine
 10
41.818997
 20
55.732253
 30
0.0
 11
37.945998
 21
55.732253
 31
0.0
  0
LINE
  5
1d8
100
AcDbEntity
  8
baffles_jr_30_1.0
 62
1
100
AcDbLine
 10
37.945998
 20
55.732253
 30
0.0
 11
34.072999
 21
55.732253
 31
0.0
  0
LINE
  5
1d9
100
AcDbEntity
  8
baffles_jr_30_1.0
 62
1
100
AcDbLine
 10
34.072999
 20
55.732253
 30
0.0
 11
34.072999
 21
56.732237
 31
0.0
  0
LINE
  5
1da
100
AcDbEntity
  8
baffles_jr_30_1.0
 62
1
100
AcDbLine
 10
34.072999
 20
56.732237
 30
0.0
 11
23.872998
 21
56.732237
 31
0.0
  0
LINE
  5
1db
100
AcDbEntity
  8
baffles_jr_30_1.0
 62
1
100
AcDbLine
 10
23.872998
 20
56.732237
 30
0.0
 11
23.872998
 21
55.732253
 31
0.0
  0
LINE
  5
1dc
100
AcDbEntity
  8
baffles_jr_30_1.0
 62
1
100
AcDbLine
 10
23.872998
 20
55.732253
 30
0.0
 11
19.999999
 21
55.732253
 31
0.0
  0
LINE
  5
1dd
100
AcDbEntity
  8
baffles_jr_30_1.0
 62
1
100
AcDbLine
 10
19.999999
 20
55.732253
 30
0.0
 11
19.999999
 21
55.732253
 31
0.0
  0
ENDSEC
  0
SECTION
  2
OBJECTS
  0
DICTIONARY
  5
C
330
0
100
AcDbDictionary
  3
ACAD_GROUP
350
D
  3
ACAD_MLINESTYLE
350
17
  0
DICTIONARY
  5
D
330
C
100
AcDbDictionary
  0
DICTIONARY
  5
1A
330
C
100
AcDbDictionary
  0
DICTIONARY
  5
17
330
C
100
AcDbDictionary
  3
STANDARD
350
18
  0
DICTIONARY
  5
19
330
C
100
AcDbDictionary
  0
ENDSEC
  0
EOF
