<?xml version="1.0" encoding="UTF-8" standalone="no"?>
<!-- Created with Inkscape (http://www.inkscape.org/) -->

<svg
   xmlns:dc="http://purl.org/dc/elements/1.1/"
   xmlns:cc="http://creativecommons.org/ns#"
   xmlns:rdf="http://www.w3.org/1999/02/22-rdf-syntax-ns#"
   xmlns:svg="http://www.w3.org/2000/svg"
   xmlns="http://www.w3.org/2000/svg"
   xmlns:sodipodi="http://sodipodi.sourceforge.net/DTD/sodipodi-0.dtd"
   xmlns:inkscape="http://www.inkscape.org/namespaces/inkscape"
   id="svg3144"
   version="1.1"
   inkscape:version="0.48.5 r10040"
   width="1119.685"
   height="1119.685"
   xml:space="preserve"
   sodipodi:docname="backplate_C4_v2.1.pdf"><sodipodi:namedview
     pagecolor="#ffffff"
     bordercolor="#666666"
     borderopacity="1"
     objecttolerance="10"
     gridtolerance="10"
     guidetolerance="10"
     inkscape:pageopacity="0"
     inkscape:pageshadow="2"
     inkscape:window-width="1301"
     inkscape:window-height="744"
     id="namedview3146"
     showgrid="false"
     inkscape:zoom="0.51621659"
     inkscape:cx="559.84253"
     inkscape:cy="559.84253"
     inkscape:window-x="65"
     inkscape:window-y="24"
     inkscape:window-maximized="1"
     inkscape:current-layer="g3152" /><metadata
     id="metadata3150"><rdf:RDF><cc:Work
         rdf:about=""><dc:format>image/svg+xml</dc:format><dc:type
           rdf:resource="http://purl.org/dc/dcmitype/StillImage" /><dc:title></dc:title></cc:Work></rdf:RDF></metadata><defs
     id="defs3148"><marker
       inkscape:stockid="Arrow1Lstart"
       style="overflow:visible"
       refY="0.0"
       refX="0.0"
       orient="auto"
       id="Arrow1Lstart"><path
         id="path3230"
         style="fill-rule:evenodd;stroke:#000000;stroke-width:1.0pt;marker-start:none"
         transform="scale(0.8) translate(12.5,0)"
         d="M 0.0,0.0 L 5.0,-5.0 L -12.5,0.0 L 5.0,5.0 L 0.0,0.0 z " /></marker><marker
       inkscape:stockid="Arrow1Lend"
       style="overflow:visible"
       refY="0.0"
       refX="0.0"
       orient="auto"
       id="Arrow1Lend"><path
         id="path3233"
         style="fill-rule:evenodd;stroke:#000000;stroke-width:1.0pt;marker-start:none"
         transform="scale(0.8) rotate(180) translate(12.5,0)"
         d="M 0.0,0.0 L 5.0,-5.0 L -12.5,0.0 L 5.0,5.0 L 0.0,0.0 z " /></marker></defs><g
     transform="matrix(1.25,0,0,-1.25,0,1119.685)"
     inkscape:label="backplate_C4_v2.1"
     inkscape:groupmode="layer"
     id="g3152"><text
       id="text3154"
       transform="matrix(1,0,0,-1,322.834,867.4016)"><tspan
         id="tspan3156"
         sodipodi:role="line"
         y="0"
         x="0 8.664 11.328 18 24 30 37.332 46.668 55.332 63.996 67.332 75.336 82.008 88.008 94.008 100.68 103.344 110.016 113.352 120.024 123.36 132.024 138.696 145.368 151.368 158.04 161.376 168.048 171.384 178.056 184.728 191.4 197.4 204.072 210.744 217.416 223.416 230.088 240.084"
         style="fill:#000000;fill-opacity:1;fill-rule:nonzero;stroke:none;font-family:Helvetica;font-variant:normal;font-weight:normal;font-size:12;writing-mode:lr;-inkscape-font-specification:Helvetica">ClockFOUR Backplate C4_v2.1 276x276x3mm</tspan></text>
<g
       transform="translate(56.69291,56.69291)"
       id="g3158"><text
         id="text3160"
         transform="matrix(1,0,0,-1,140.2335,720)"><tspan
           id="tspan3162"
           sodipodi:role="line"
           y="0"
           x="0 8.664 15.336 21.336 28.008"
           style="fill:#000000;fill-opacity:1;fill-rule:nonzero;stroke:none;font-family:Helvetica;font-variant:normal;font-weight:normal;font-size:12;writing-mode:lr;-inkscape-font-specification:Helvetica">Reset</tspan></text>
<text
         id="text3164"
         transform="matrix(1,0,0,-1,195.9297,702.9921)"><tspan
           id="tspan3166"
           sodipodi:role="line"
           y="0"
           x="0 7.332 14.664 23.328 26.664 30 36.672"
           style="fill:#000000;fill-opacity:1;fill-rule:nonzero;stroke:none;font-family:Helvetica;font-variant:normal;font-weight:normal;font-size:12;writing-mode:lr;-inkscape-font-specification:Helvetica">FTDI 5V</tspan></text>
<text
         id="text3168"
         transform="matrix(1,0,0,-1,183.5877,674.6457)"><tspan
           id="tspan3170"
           sodipodi:role="line"
           y="0"
           x="0 9.336 18 26.664 46.68 54.684 61.356"
           style="fill:#000000;fill-opacity:1;fill-rule:nonzero;stroke:none;font-family:Helvetica;font-variant:normal;font-weight:normal;font-size:12;writing-mode:lr;-inkscape-font-specification:Helvetica">GRN BLK</tspan></text>
<text
         id="text3172"
         transform="matrix(1,0,0,-1,100.5538,615.1181)"><tspan
           id="tspan3174"
           sodipodi:role="line"
           y="0"
           x="0 8.664 18 24.672 34.008"
           style="fill:#000000;fill-opacity:1;fill-rule:nonzero;stroke:none;font-family:Helvetica;font-variant:normal;font-weight:normal;font-size:12;writing-mode:lr;-inkscape-font-specification:Helvetica">COLOR</tspan></text>
<text
         id="text3176"
         transform="matrix(1,0,0,-1,98.54976,600.9449)"><tspan
           id="tspan3178"
           sodipodi:role="line"
           y="0"
           x="0 3.996 9.996 16.668 23.34 30.012 36.012 42.684"
           style="fill:#000000;fill-opacity:1;fill-rule:nonzero;stroke:none;font-family:Helvetica;font-variant:normal;font-weight:normal;font-size:12;writing-mode:lr;-inkscape-font-specification:Helvetica">(choose)</tspan></text>
<text
         id="text3180"
         transform="matrix(1,0,0,-1,171.9213,615.1181)"><tspan
           id="tspan3182"
           sodipodi:role="line"
           y="0"
           x="0 9.996 19.332 27.996"
           style="fill:#000000;fill-opacity:1;fill-rule:nonzero;stroke:none;font-family:Helvetica;font-variant:normal;font-weight:normal;font-size:12;writing-mode:lr;-inkscape-font-specification:Helvetica">MODE</tspan></text>
<text
         id="text3184"
         transform="matrix(1,0,0,-1,177.9213,600.9449)"><tspan
           id="tspan3186"
           sodipodi:role="line"
           y="0"
           x="0 3.996 9.996 16.668 20.004"
           style="fill:#000000;fill-opacity:1;fill-rule:nonzero;stroke:none;font-family:Helvetica;font-variant:normal;font-weight:normal;font-size:12;writing-mode:lr;-inkscape-font-specification:Helvetica">(set)</tspan></text>
<text
         id="text3188"
         transform="matrix(1,0,0,-1,334.6611,53.85827)"><tspan
           id="tspan3190"
           sodipodi:role="line"
           y="0"
           x="0 3.336 12 20.004 28.668 36 39.336 42.672 49.344 57.348 60.684 67.356 75.36 85.368 88.704 91.368 98.04 102.036 109.044"
           style="fill:#000000;fill-opacity:1;fill-rule:nonzero;stroke:none;font-family:Helvetica;font-variant:normal;font-weight:normal;font-size:12;writing-mode:lr;-inkscape-font-specification:Helvetica">INPUT: 5V 3A tip(+)</tspan></text>
<path
         id="path3194"
         style="fill:none;stroke:#000000;stroke-opacity:1;stroke-width:0.566929;stroke-linecap:butt;stroke-linejoin:miter;stroke-miterlimit:10;stroke-dasharray:none"
         d="m 32.59843,28.34646 c 0,2.34829 -1.90368,4.25197 -4.25197,4.25197 -2.3483,0 -4.25197,-1.90368 -4.25197,-4.25197 0,-2.3483 1.90367,-4.25197 4.25197,-4.25197 2.34829,0 4.25197,1.90367 4.25197,4.25197" /><path
         id="path3196"
         style="fill:none;stroke:#000000;stroke-opacity:1;stroke-width:0.566929;stroke-linecap:butt;stroke-linejoin:miter;stroke-miterlimit:10;stroke-dasharray:none"
         d="m 32.59843,754.0157 c 0,2.3483 -1.90368,4.252 -4.25197,4.252 -2.3483,0 -4.25197,-1.9037 -4.25197,-4.252 0,-2.3482 1.90367,-4.2519 4.25197,-4.2519 2.34829,0 4.25197,1.9037 4.25197,4.2519" /><path
         id="path3198"
         style="fill:none;stroke:#000000;stroke-opacity:1;stroke-width:0.566929;stroke-linecap:butt;stroke-linejoin:miter;stroke-miterlimit:10;stroke-dasharray:none"
         d="m 758.2677,28.34646 c 0,2.34829 -1.9037,4.25197 -4.252,4.25197 -2.3482,0 -4.2519,-1.90368 -4.2519,-4.25197 0,-2.3483 1.9037,-4.25197 4.2519,-4.25197 2.3483,0 4.252,1.90367 4.252,4.25197" /><path
         id="path3200"
         style="fill:none;stroke:#000000;stroke-opacity:1;stroke-width:0.566929;stroke-linecap:butt;stroke-linejoin:miter;stroke-miterlimit:10;stroke-dasharray:none"
         d="m 758.2677,754.0157 c 0,2.3483 -1.9037,4.252 -4.252,4.252 -2.3482,0 -4.2519,-1.9037 -4.2519,-4.252 0,-2.3482 1.9037,-4.2519 4.2519,-4.2519 2.3483,0 4.252,1.9037 4.252,4.2519" /><path
         id="path3202"
         style="fill:none;stroke:#000000;stroke-opacity:1;stroke-width:0.566929;stroke-linecap:butt;stroke-linejoin:miter;stroke-miterlimit:10;stroke-dasharray:none"
         d="m 111.9685,82.20472 c 0,2.3483 -1.9037,4.25197 -4.252,4.25197 -2.3483,0 -4.2519,-1.90367 -4.2519,-4.25197 0,-2.34829 1.9036,-4.25196 4.2519,-4.25196 2.3483,0 4.252,1.90367 4.252,4.25196" /><path
         id="path3204"
         style="fill:none;stroke:#000000;stroke-opacity:1;stroke-width:0.566929;stroke-linecap:butt;stroke-linejoin:miter;stroke-miterlimit:10;stroke-dasharray:none"
         d="m 111.9685,700.1575 c 0,2.3483 -1.9037,4.2519 -4.252,4.2519 -2.3483,0 -4.2519,-1.9036 -4.2519,-4.2519 0,-2.3483 1.9036,-4.252 4.2519,-4.252 2.3483,0 4.252,1.9037 4.252,4.252" /><path
         id="path3206"
         style="fill:none;stroke:#000000;stroke-opacity:1;stroke-width:0.566929;stroke-linecap:butt;stroke-linejoin:miter;stroke-miterlimit:10;stroke-dasharray:none"
         d="m 678.8976,82.20472 c 0,2.3483 -1.9036,4.25197 -4.2519,4.25197 -2.3483,0 -4.252,-1.90367 -4.252,-4.25197 0,-2.34829 1.9037,-4.25196 4.252,-4.25196 2.3483,0 4.2519,1.90367 4.2519,4.25196" /><path
         id="path3208"
         style="fill:none;stroke:#000000;stroke-opacity:1;stroke-width:0.566929;stroke-linecap:butt;stroke-linejoin:miter;stroke-miterlimit:10;stroke-dasharray:none"
         d="m 678.8976,700.1575 c 0,2.3483 -1.9036,4.2519 -4.2519,4.2519 -2.3483,0 -4.252,-1.9036 -4.252,-4.2519 0,-2.3483 1.9037,-4.252 4.252,-4.252 2.3483,0 4.2519,1.9037 4.2519,4.252" /><path
         id="path3210"
         style="fill:none;stroke:#000000;stroke-opacity:1;stroke-width:0.566929;stroke-linecap:butt;stroke-linejoin:miter;stroke-miterlimit:10;stroke-dasharray:none"
         d="m 167.2441,702.9921 c 0,6.2622 -5.0765,11.3386 -11.3386,11.3386 -6.2621,0 -11.3386,-5.0764 -11.3386,-11.3386 0,-6.2621 5.0765,-11.3386 11.3386,-11.3386 6.2621,0 11.3386,5.0765 11.3386,11.3386" /><path
         id="path3212"
         style="fill:none;stroke:#000000;stroke-opacity:1;stroke-width:0.566929;stroke-linecap:butt;stroke-linejoin:miter;stroke-miterlimit:10;stroke-dasharray:none"
         d="m 138.8976,644.8819 c 0,9.3932 -7.6146,17.0079 -17.0078,17.0079 -9.3932,0 -17.0079,-7.6147 -17.0079,-17.0079 0,-9.3932 7.6147,-17.0079 17.0079,-17.0079 9.3932,0 17.0078,7.6147 17.0078,17.0079" /><path
         id="path3214"
         style="fill:none;stroke:#000000;stroke-opacity:1;stroke-width:0.566929;stroke-linecap:butt;stroke-linejoin:miter;stroke-miterlimit:10;stroke-dasharray:none"
         d="m 206.9291,644.8819 c 0,9.3932 -7.6147,17.0079 -17.0078,17.0079 -9.3932,0 -17.0079,-7.6147 -17.0079,-17.0079 0,-9.3932 7.6147,-17.0079 17.0079,-17.0079 9.3931,0 17.0078,7.6147 17.0078,17.0079" /><path
         id="path3216"
         style="fill:none;stroke:#000000;stroke-opacity:1;stroke-width:0.566929;stroke-linecap:butt;stroke-linejoin:miter;stroke-miterlimit:10;stroke-dasharray:none"
         d="m 402.6614,34.01575 c 0,6.3404 -5.1399,11.48031 -11.4803,11.48031 -6.3404,0 -11.4803,-5.13991 -11.4803,-11.48031 0,-6.3404 5.1399,-11.48032 11.4803,-11.48032 6.3404,0 11.4803,5.13992 11.4803,11.48032" /><path
         id="path3218"
         style="fill:none;stroke:#000000;stroke-opacity:1;stroke-width:0.566929;stroke-linecap:butt;stroke-linejoin:miter;stroke-miterlimit:10;stroke-dasharray:none"
         d="m 63.77953,697.3228 c 0,9.3932 -7.61469,17.0079 -17.00788,17.0079 -9.39319,0 -17.00787,-7.6147 -17.00787,-17.0079 0,-9.3932 7.61468,-17.0078 17.00787,-17.0078 9.39319,0 17.00788,7.6146 17.00788,17.0078" /><path
         id="path3220"
         style="fill:none;stroke:#000000;stroke-opacity:1;stroke-width:0.566929;stroke-linecap:butt;stroke-linejoin:miter;stroke-miterlimit:10;stroke-dasharray:none"
         d="m 53.85827,717.1654 c 0,3.9138 -3.17279,7.0866 -7.08662,7.0866 -3.91383,0 -7.08661,-3.1728 -7.08661,-7.0866 0,-3.9139 3.17278,-7.0867 7.08661,-7.0867 3.91383,0 7.08662,3.1728 7.08662,7.0867" /><path
         id="path3222"
         style="fill:none;stroke:#000000;stroke-opacity:1;stroke-width:0.566929;stroke-linecap:butt;stroke-linejoin:miter;stroke-miterlimit:10;stroke-dasharray:none"
         d="m 752.5984,697.3228 c 0,9.3932 -7.6147,17.0079 -17.0078,17.0079 -9.3932,0 -17.0079,-7.6147 -17.0079,-17.0079 0,-9.3932 7.6147,-17.0078 17.0079,-17.0078 9.3931,0 17.0078,7.6146 17.0078,17.0078" /><path
         id="path3224"
         style="fill:none;stroke:#000000;stroke-opacity:1;stroke-width:0.566929;stroke-linecap:butt;stroke-linejoin:miter;stroke-miterlimit:10;stroke-dasharray:none"
         d="m 742.6772,717.1654 c 0,3.9138 -3.1728,7.0866 -7.0866,7.0866 -3.9139,0 -7.0867,-3.1728 -7.0867,-7.0866 0,-3.9139 3.1728,-7.0867 7.0867,-7.0867 3.9138,0 7.0866,3.1728 7.0866,7.0867" /><g
         id="g3272"
         stroke="black"
         fill="none"><path
           id="path3192"
           style="fill:none;stroke:#000000;stroke-opacity:1;stroke-width:0.566929;stroke-linecap:butt;stroke-linejoin:miter;stroke-miterlimit:10;stroke-dasharray:none"
           d="m 0,0 782.3622,0 0,782.3622 L 0,782.3622 0,0 m 192.7559,685.9843 51.0236,0 0,11.3385 -51.0236,0 0,-11.3385" /></g></g></g></svg>