<?xml version="1.0" encoding="UTF-8" standalone="no"?>
<!-- Created with Inkscape (http://www.inkscape.org/) -->

<svg
   xmlns:dc="http://purl.org/dc/elements/1.1/"
   xmlns:cc="http://creativecommons.org/ns#"
   xmlns:rdf="http://www.w3.org/1999/02/22-rdf-syntax-ns#"
   xmlns:svg="http://www.w3.org/2000/svg"
   xmlns="http://www.w3.org/2000/svg"
   xmlns:sodipodi="http://sodipodi.sourceforge.net/DTD/sodipodi-0.dtd"
   xmlns:inkscape="http://www.inkscape.org/namespaces/inkscape"
   id="svg4316"
   version="1.1"
   inkscape:version="0.48.5 r10040"
   width="1119.685"
   height="1119.685"
   xml:space="preserve"
   sodipodi:docname="sides_C4_v2.1.pdf"><metadata
     id="metadata4322"><rdf:RDF><cc:Work
         rdf:about=""><dc:format>image/svg+xml</dc:format><dc:type
           rdf:resource="http://purl.org/dc/dcmitype/StillImage" /><dc:title></dc:title></cc:Work></rdf:RDF></metadata><defs
     id="defs4320" /><sodipodi:namedview
     pagecolor="#ffffff"
     bordercolor="#666666"
     borderopacity="1"
     objecttolerance="10"
     gridtolerance="10"
     guidetolerance="10"
     inkscape:pageopacity="0"
     inkscape:pageshadow="2"
     inkscape:window-width="1301"
     inkscape:window-height="744"
     id="namedview4318"
     showgrid="false"
     inkscape:zoom="0.21077355"
     inkscape:cx="559.84253"
     inkscape:cy="559.84253"
     inkscape:window-x="65"
     inkscape:window-y="24"
     inkscape:window-maximized="1"
     inkscape:current-layer="g4324" /><g
     id="g4324"
     inkscape:groupmode="layer"
     inkscape:label="sides_C4_v2.1"
     transform="matrix(1.25,0,0,-1.25,0,1119.685)"><text
       transform="matrix(1,0,0,-1,376.192,867.4016)"
       id="text4326"><tspan
         style="fill:#000000;fill-opacity:1;fill-rule:nonzero;stroke:none;font-family:Helvetica;font-variant:normal;font-weight:normal;font-size:12;writing-mode:lr;-inkscape-font-specification:Helvetica"
         x="0 8.664 11.328 18 24 30 37.332 46.668 55.332 63.996 67.332 73.332 75.996 82.668 89.34 95.34 98.676 107.34 114.012 120.684 126.684 133.356 136.692"
         y="0"
         sodipodi:role="line"
         id="tspan4328">ClockFOUR sides C4_v2.1</tspan></text>
<g
       id="g4330"
       transform="translate(56.69291,56.69291)"><text
         transform="matrix(1,0,0,-1,327.6531,-14.17323)"
         id="text4332"><tspan
           style="fill:#000000;fill-opacity:1;fill-rule:nonzero;stroke:none;font-family:Helvetica;font-variant:normal;font-weight:normal;font-size:12;writing-mode:lr;-inkscape-font-specification:Helvetica"
           x="0 7.332 16.668 24.672 28.008 35.016 38.352 45.024 51.696 58.368 61.704 67.704 71.04 77.712 84.384 87.72 93.72 97.056 103.728 107.064 117.06"
           y="0"
           sodipodi:role="line"
           id="tspan4334">TOP = 276 x 20 x 3 mm</tspan></text>
<text
         transform="matrix(1,0,0,-1,314.3211,99.2126)"
         id="text4336"><tspan
           style="fill:#000000;fill-opacity:1;fill-rule:nonzero;stroke:none;font-family:Helvetica;font-variant:normal;font-weight:normal;font-size:12;writing-mode:lr;-inkscape-font-specification:Helvetica"
           x="0 8.004 17.34 24.672 32.004 41.34 51.336 54.672 61.68 65.016 71.688 78.36 85.032 88.368 94.368 97.704 104.376 111.048 114.384 120.384 123.72 130.392 133.728 143.724"
           y="0"
           sodipodi:role="line"
           id="tspan4338">BOTTOM = 276 x 20 x 3 mm</tspan></text>
<text
         transform="matrix(1,0,0,-1,325.3191,212.5984)"
         id="text4340"><tspan
           style="fill:#000000;fill-opacity:1;fill-rule:nonzero;stroke:none;font-family:Helvetica;font-variant:normal;font-weight:normal;font-size:12;writing-mode:lr;-inkscape-font-specification:Helvetica"
           x="0 6.672 14.676 22.008 29.34 32.676 39.684 43.02 49.692 56.364 63.036 66.372 72.372 75.708 82.38 89.052 92.388 98.388 101.724 108.396 111.732 121.728"
           y="0"
           sodipodi:role="line"
           id="tspan4342">LEFT = 270 x 20 x 3 mm</tspan></text>
<text
         transform="matrix(1,0,0,-1,321.3231,325.9843)"
         id="text4344"><tspan
           style="fill:#000000;fill-opacity:1;fill-rule:nonzero;stroke:none;font-family:Helvetica;font-variant:normal;font-weight:normal;font-size:12;writing-mode:lr;-inkscape-font-specification:Helvetica"
           x="0 8.664 12 21.336 30 37.332 40.668 47.676 51.012 57.684 64.356 71.028 74.364 80.364 83.7 90.372 97.044 100.38 106.38 109.716 116.388 119.724 129.72"
           y="0"
           sodipodi:role="line"
           id="tspan4346">RIGHT = 270 x 20 x 3 mm</tspan></text>
<path
         d="m 0,0 782.3622,0 0,56.69291 L 0,56.69291 0,0 m 0,113.3858 782.3622,0 0,56.6929 -782.3622,0 0,-56.6929 m 8.503937,113.3859 765.354363,0 0,56.6929 -765.354363,0 0,-56.6929 m 0,113.3858 765.354363,0 0,56.6929 -765.354363,0 0,-56.6929"
         style="fill:none;stroke:#000000;stroke-opacity:1;stroke-width:0.566929;stroke-linecap:butt;stroke-linejoin:miter;stroke-miterlimit:10;stroke-dasharray:none"
         id="path4348" /></g></g></svg>