<?xml version="1.0" encoding="UTF-8" standalone="no"?>
<!-- Created with Inkscape (http://www.inkscape.org/) -->

<svg
   xmlns:dc="http://purl.org/dc/elements/1.1/"
   xmlns:cc="http://creativecommons.org/ns#"
   xmlns:rdf="http://www.w3.org/1999/02/22-rdf-syntax-ns#"
   xmlns:svg="http://www.w3.org/2000/svg"
   xmlns="http://www.w3.org/2000/svg"
   xmlns:sodipodi="http://sodipodi.sourceforge.net/DTD/sodipodi-0.dtd"
   xmlns:inkscape="http://www.inkscape.org/namespaces/inkscape"
   width="2167.5322"
   height="1163.2015"
   id="svg8864"
   version="1.1"
   inkscape:version="0.48.5 r10040"
   sodipodi:docname="ClockFOUR_v1.svg">
  <sodipodi:namedview
     id="base"
     pagecolor="#ffffff"
     bordercolor="#666666"
     borderopacity="1.0"
     inkscape:pageopacity="0.0"
     inkscape:pageshadow="2"
     inkscape:zoom="0.70710678"
     inkscape:cx="891.21594"
     inkscape:cy="776.22745"
     inkscape:document-units="mm"
     inkscape:current-layer="layer1"
     showgrid="false"
     inkscape:window-width="1292"
     inkscape:window-height="741"
     inkscape:window-x="-9"
     inkscape:window-y="-9"
     inkscape:window-maximized="1"
     units="mm"
     fit-margin-top="0"
     fit-margin-left="0"
     fit-margin-right="0"
     fit-margin-bottom="0" />
  <defs
     id="defs8866">
    <clipPath
       id="clipPath9976"
       clipPathUnits="userSpaceOnUse">
      <path
         id="path9978"
         clip-rule="evenodd"
         d="m 0,1028.92 4958,0 0,4958 -4958,0 0,-4958 z"
         inkscape:connector-curvature="0" />
    </clipPath>
    <clipPath
       id="clipPath9924"
       clipPathUnits="userSpaceOnUse">
      <path
         id="path9926"
         clip-rule="evenodd"
         d="m 0,1028.92 4958,0 0,4958 -4958,0 0,-4958 z"
         inkscape:connector-curvature="0" />
    </clipPath>
    <clipPath
       id="clipPath9924-0"
       clipPathUnits="userSpaceOnUse">
      <path
         inkscape:connector-curvature="0"
         id="path9926-7"
         clip-rule="evenodd"
         d="m 0,1028.92 4958,0 0,4958 -4958,0 0,-4958 z" />
    </clipPath>
    <clipPath
       id="clipPath9976-6"
       clipPathUnits="userSpaceOnUse">
      <path
         inkscape:connector-curvature="0"
         id="path9978-1"
         clip-rule="evenodd"
         d="m 0,1028.92 4958,0 0,4958 -4958,0 0,-4958 z" />
    </clipPath>
    <clipPath
       id="clipPath10374"
       clipPathUnits="userSpaceOnUse">
      <path
         id="path10376"
         clip-rule="evenodd"
         d="m 0,1028.92 4958,0 0,4958 -4958,0 0,-4958 z"
         inkscape:connector-curvature="0" />
    </clipPath>
    <clipPath
       id="clipPath10312"
       clipPathUnits="userSpaceOnUse">
      <path
         id="path10314"
         clip-rule="evenodd"
         d="m 0,1028.92 4958,0 0,4958 -4958,0 0,-4958 z"
         inkscape:connector-curvature="0" />
    </clipPath>
  </defs>
  <metadata
     id="metadata8869">
    <rdf:RDF>
      <cc:Work
         rdf:about="">
        <dc:format>image/svg+xml</dc:format>
        <dc:type
           rdf:resource="http://purl.org/dc/dcmitype/StillImage" />
        <dc:title />
      </cc:Work>
    </rdf:RDF>
  </metadata>
  <g
     id="layer1"
     inkscape:groupmode="layer"
     inkscape:label="Layer 1"
     transform="translate(-13.673175,-13.673228)">
    <path
       style="fill:none;stroke:#000000"
       d="m 117.25,1094.875 0,10.625 -18.03125,0 0,7.8125 10.625,0 0,18.4063 -10.625,0 0,18.4374 10.625,0 0,18.4376 -10.625,0 0,7.75 992.06245,0 0.063,0.031 0,-7.7812 -10.625,0 0,-18.4376 10.625,0 0,-18.4374 -10.625,0 0,-18.4063 10.625,0 0,-7.8125 -18.0313,0 0,-10.625 -18.0625,0 0,10.625 -18.0312,0 0,-10.625 -18.0313,0 0,10.625 -18.0313,0 0,-10.625 -18.0312,0 0,8.4688 c 0,0.2011 -0.0247,0.3942 -0.0312,0.5937 l 0,1.5625 -0.125,0 c -1.06406,8.7914 -8.47486,15.5625 -17.5625,15.5625 l -0.90625,0 c -9.0879,0 -16.53002,-6.7707 -17.59375,-15.5625 l -17.90625,0 0,-10.625 -18.0625,0 0,10.625 -18.03125,0 0,-10.625 -18.03125,0 0,10.625 -18.03125,0 0,-10.625 -18.03125,0 0,10.625 -18.0625,0 0,-10.625 -18.03125,0 0,10.625 -18.03125,0 0,-10.625 -18.03125,0 0,10.625 -18.0625,0 0,-10.625 -18.03125,0 0,10.625 -18.03125,0 0,-10.625 -18.03125,0 0,10.625 -18.0625,0 0,-10.625 -18.03125,0 0,10.625 -18.03125,0 0,-10.625 -18.03125,0 0,10.625 -18.0625,0 0,-10.625 -18.03125,0 0,10.625 -18.03125,0 0,-10.625 -18.03125,0 0,10.625 -18.0625,0 0,-10.625 -18.03125,0 0,10.625 -18.03125,0 0,-10.625 -18.03125,0 0,10.625 -18.03125,0 0,-10.625 -18.0625,0 0,10.625 -18.03125,0 0,-10.625 -18.03125,0 0,10.625 -18.03125,0 0,-10.625 -18.0625,0 0,10.625 -18.03125,0 0,-10.625 -18.03125,0 0,10.625 -18.03125,0 0,-10.625 -18.0625,0 0,10.625 -18.03125,0 0,-10.625 -18.03125,0 0,10.625 -18.03125,0 0,-10.625 -18.0625,0 0,10.625 -18.03125,0 0,-10.625 -18.03125,0 0,10.625 -18.03125,0 0,-10.625 -18.03125,0 0,10.625 -18.0625,0 0,-10.625 -18.03125,0 z m -18.03125,81.4688 -0.125,0 0.125,0.031 0,-0.031 z"
       transform="translate(0,2.5390623e-6)"
       id="path9011"
       inkscape:connector-curvature="0" />
    <path
       style="fill:none;stroke:#000000"
       d="m 99.21875,99.21875 0,18.03125 10.625,0 0,18.03125 -10.625,0 0,18.0625 10.625,0 0,18.03125 -10.625,0 0,18.03125 10.625,0 0,18.03125 -10.625,0 0,18.03125 10.625,0 0,18.0625 -10.625,0 0,18.03125 10.625,0 0,18.03125 -10.625,0 0,18.03125 10.625,0 0,18.0625 -10.625,0 0,18.03125 10.625,0 0,18.03125 -10.625,0 0,18.03125 10.625,0 0,18.0625 -10.625,0 0,18.03125 10.625,0 0,18.03125 -10.625,0 0,18.03125 10.625,0 0,18.0625 -10.625,0 0,18.03125 10.625,0 0,18.03125 -10.625,0 0,18.03125 10.625,0 0,18.03125 -10.625,0 0,18.0625 10.625,0 0,18.03125 -10.625,0 0,18.03125 10.625,0 0,18.03125 -10.625,0 0,18.0625 10.625,0 0,18.03125 -10.625,0 0,18.03125 10.625,0 0,18.03125 -10.625,0 0,18.0625 10.625,0 0,18.03125 -10.625,0 0,18.03125 10.625,0 0,18.03125 -10.625,0 0,18.0625 10.625,0 0,18.03125 -10.625,0 0,18.03125 10.625,0 0,18.03125 -10.625,0 0,18.0625 10.625,0 0,18.03125 -10.625,0 0,18.03125 10.625,0 0,18.03125 -10.625,0 0,18.03125 10.625,0 0,18.0625 -10.625,0 0,18.03125 10.625,0 0,18.03125 -10.625,0 0,18.03125 10.625,0 0,18.06245 -10.625,0 0,18.0313 10.625,0 0,18.0313 -10.625,0 0,18.0312 10.625,0 0,18.0625 -10.625,0 0,18.0313 18.03125,0 0,-10.625 18.03125,0 0,10.625 18.0625,0 0,-10.625 18.03125,0 0,10.625 18.03125,0 0,-10.625 18.03125,0 0,10.625 18.03125,0 0,-10.625 18.0625,0 0,10.625 18.03125,0 0,-10.625 18.03125,0 0,10.625 18.03125,0 0,-10.625 18.0625,0 0,10.625 18.03125,0 0,-10.625 18.03125,0 0,10.625 18.03125,0 0,-10.625 18.0625,0 0,10.625 18.03125,0 0,-10.625 18.03125,0 0,10.625 18.03125,0 0,-10.625 18.0625,0 0,10.625 18.03125,0 0,-10.625 18.03125,0 0,10.625 18.03125,0 0,-10.625 18.03125,0 0,10.625 18.0625,0 0,-10.625 18.03125,0 0,10.625 18.03125,0 0,-10.625 18.03125,0 0,10.625 18.0625,0 0,-10.625 18.03125,0 0,10.625 18.03125,0 0,-10.625 18.03125,0 0,10.625 18.0625,0 0,-10.625 18.03125,0 0,10.625 18.03125,0 0,-10.625 18.03125,0 0,10.625 18.0625,0 0,-10.625 18.03125,0 0,10.625 18.03125,0 0,-10.625 18.03125,0 0,10.625 18.0625,0 0,-10.625 18.03125,0 0,10.625 18.03125,0 0,-10.625 18.03125,0 0,10.625 18.03125,0 0,-10.625 18.0625,0 0,10.625 18.03125,0 0,-8.625 0,-2 0.0937,0 c 0.978,-8.8848 8.47127,-15.75 17.625,-15.75 l 0.90625,0 c 9.15363,0 16.61562,6.8654 17.59375,15.75 l 17.90625,0 0,10.625 18.0313,0 0,-10.625 18.0313,0 0,10.625 18.0312,0 0,-10.625 18.0625,0 0,10.625 18.0313,0 0,-18.0313 -10.625,0 0,-18.0625 10.625,0 0,-18.0312 -10.625,0 0,-18.0313 10.625,0 0,-18.0313 -10.625,0 0,-18.06245 10.625,0 0,-18.03125 -10.625,0 0,-18.03125 10.625,0 0,-18.03125 -10.625,0 0,-18.0625 10.625,0 0,-18.03125 -10.625,0 0,-18.03125 10.625,0 0,-18.03125 -10.625,0 0,-18.03125 10.625,0 0,-18.0625 -10.625,0 0,-18.03125 10.625,0 0,-18.03125 -10.625,0 0,-18.03125 10.625,0 0,-18.0625 -10.625,0 0,-18.03125 10.625,0 0,-18.03125 -10.625,0 0,-18.03125 10.625,0 0,-18.0625 -10.625,0 0,-18.03125 10.625,0 0,-18.03125 -10.625,0 0,-18.03125 10.625,0 0,-18.0625 -10.625,0 0,-18.03125 10.625,0 0,-18.03125 -10.625,0 0,-18.03125 10.625,0 0,-18.0625 -10.625,0 0,-18.03125 10.625,0 0,-18.03125 -10.625,0 0,-18.03125 10.625,0 0,-18.03125 -10.625,0 0,-18.0625 10.625,0 0,-18.03125 -10.625,0 0,-18.03125 10.625,0 0,-18.03125 -10.625,0 0,-18.0625 10.625,0 0,-18.03125 -10.625,0 0,-18.03125 10.625,0 0,-18.03125 -10.625,0 0,-18.0625 10.625,0 0,-18.03125 -10.625,0 0,-18.03125 10.625,0 0,-18.03125 -10.625,0 0,-18.0625 10.625,0 0,-18.03125 -10.625,0 0,-18.03125 10.625,0 0,-18.03125 -10.625,0 0,-18.03125 10.625,0 0,-18.0625 -10.625,0 0,-18.03125 10.625,0 0,-18.03125 -18.0313,0 0,10.625 -18.0625,0 0,-10.625 -18.0312,0 0,10.625 -18.0313,0 0,-10.625 -18.0313,0 0,10.625 -18.0625,0 0,-10.625 -18.03125,0 0,10.625 -18.03125,0 0,-10.625 -18.03125,0 0,10.625 -18.0625,0 0,-10.625 -18.03125,0 0,10.625 -18.03125,0 0,-10.625 -18.03125,0 0,10.625 -18.03125,0 0,-10.625 -18.0625,0 0,10.625 -18.03125,0 0,-10.625 -18.03125,0 0,10.625 -18.03125,0 0,-10.625 -18.0625,0 0,10.625 -18.03125,0 0,-10.625 -18.03125,0 0,10.625 -18.03125,0 0,-10.625 -18.0625,0 0,10.625 -18.03125,0 0,-10.625 -18.03125,0 0,10.625 -18.03125,0 0,-10.625 -18.0625,0 0,10.625 -18.03125,0 0,-10.625 -18.03125,0 0,10.625 -18.03125,0 0,-10.625 -18.0625,0 0,10.625 -18.03125,0 0,-10.625 -18.03125,0 0,10.625 -18.03125,0 0,-10.625 -18.03125,0 0,10.625 -18.0625,0 0,-10.625 -18.03125,0 0,10.625 -18.03125,0 0,-10.625 -18.03125,0 0,10.625 -18.0625,0 0,-10.625 -18.03125,0 0,10.625 -18.03125,0 0,-10.625 -18.03125,0 0,10.625 -18.0625,0 0,-10.625 -18.03125,0 0,10.625 -18.03125,0 0,-10.625 -18.03125,0 0,10.625 -18.0625,0 0,-10.625 -18.03125,0 0,10.625 -18.03125,0 0,-10.625 -18.03125,0 0,10.625 -18.03125,0 0,-10.625 -18.0625,0 0,10.625 -18.03125,0 0,-10.625 -18.03125,0 z"
       transform="translate(0,2.5390623e-6)"
       id="path9031"
       inkscape:connector-curvature="0" />
    <path
       id="path9039"
       d="m 1105.5118,1080.7087 0,-7.4088 -10.6299,0 0,-18.0386 10.6299,0 0,-18.0387 -10.6299,0 0,-18.0386 10.6299,0 0,-18.0387 -10.6299,0 0,-18.03864 10.6299,0 0,-18.03866 -10.6299,0 0,-18.03865 10.6299,0 0,-18.03866 -10.6299,0 0,-18.03865 10.6299,0 0,-18.03865 -10.6299,0 0,-18.03866 10.6299,0 0,-18.03865 -10.6299,0 0,-18.03866 10.6299,0 0,-18.03865 -10.6299,0 0,-18.03866 10.6299,0 0,-18.03865 -10.6299,0 0,-18.03865 10.6299,0 0,-18.03866 -10.6299,0 0,-18.03865 10.6299,0 0,-18.03866 -10.6299,0 0,-18.03865 10.6299,0 0,-18.03866 -10.6299,0 0,-18.03865 10.6299,0 0,-18.03865 -10.6299,0 0,-18.03866 10.6299,0 0,-18.03865 -10.6299,0 0,-18.03866 10.6299,0 0,-18.03865 -10.6299,0 0,-18.03866 10.6299,0 0,-18.03865 -10.6299,0 0,-18.03865 10.6299,0 0,-18.03866 -10.6299,0 0,-18.03865 10.6299,0 0,-18.03866 -10.6299,0 0,-18.03865 10.6299,0 0,-18.03865 -10.6299,0 0,-18.03866 10.6299,0 0,-18.03865 -10.6299,0 0,-18.03866 10.6299,0 0,-18.03865 -10.6299,0 0,-18.03866 10.6299,0 0,-18.03865 -10.6299,0 0,-18.03865 10.6299,0 0,-18.03866 -10.6299,0 0,-18.03865 10.6299,0 0,-18.03866 -10.6299,0 0,-18.03865 10.6299,0 0,-18.03866 -10.6299,0 0,-18.03865 10.6299,0 0,-18.03865 -10.6299,0 0,-18.03866 10.6299,0 0,-18.03865 -10.6299,0 0,-18.03866 10.6299,0 0,-7.40873 0,0 7.7953,0 0,-10.629922 18.4252,0 0,10.629922 18.4252,0 0,-10.629922 18.4252,0 0,10.629922 7.7953,0 -0.5025,0.012 0,936.75528 0,34.0959 0.5025,0 -7.7953,0 0,10.6299 -18.4252,0 0,-10.6299 -18.4252,0 0,10.6299 -18.4252,0 0,-10.6299 -7.7953,0"
       style="fill:none;stroke:#000000"
       inkscape:label="part"
       inkscape:connector-curvature="0"
       sodipodi:nodetypes="ccccccccccccccccccccccccccccccccccccccccccccccccccccccccccccccccccccccccccccccccccccccccccccccccccccccccccccccccccccccccccccccccccccc" />
    <path
       id="path9051"
       d="m 1091.3386,85.03937 0,-7.795276 -10.6299,0 0,-18.425196 10.6299,0 0,-18.425197 -10.6299,0 0,-18.425197 10.6299,0 0,-7.795276 -0.017,0.503871 -10.5924,0 -981.522454,0 0.0063,-0.503871 0,7.795276 10.629924,0 0,18.425197 -10.629924,0 0,18.425197 10.629924,0 0,18.425196 -10.629924,0 0,7.795276 -4.48e-4,0 18.038652,0 0,10.629921 18.03866,0 0,-10.629921 18.03865,0 0,10.629921 18.03866,0 0,-10.629921 18.03865,0 0,10.629921 18.03865,0 0,-10.629921 18.03866,0 0,10.629921 18.03865,0 0,-10.629921 18.03866,0 0,10.629921 18.03865,0 0,-10.629921 18.03866,0 0,10.629921 18.03865,0 0,-10.629921 18.03865,0 0,10.629921 18.03866,0 0,-10.629921 18.03865,0 0,10.629921 18.03866,0 0,-10.629921 18.03865,0 0,10.629921 18.03866,0 0,-10.629921 18.03865,0 0,10.629921 18.03865,0 0,-10.629921 18.03866,0 0,10.629921 18.03865,0 0,-10.629921 18.03866,0 0,10.629921 18.03865,0 0,-10.629921 18.03865,0 0,10.629921 18.03866,0 0,-10.629921 18.03865,0 0,10.629921 18.03866,0 0,-10.629921 18.03865,0 0,10.629921 18.03866,0 0,-10.629921 18.03865,0 0,10.629921 18.03865,0 0,-10.629921 18.03866,0 0,10.629921 18.03865,0 0,-10.629921 18.03866,0 0,10.629921 18.03865,0 0,-10.629921 18.03866,0 0,10.629921 18.03865,0 0,-10.629921 18.03865,0 0,10.629921 18.03866,0 0,-10.629921 18.03865,0 0,10.629921 18.03866,0 0,-10.629921 18.03865,0 0,10.629921 18.03866,0 0,-10.629921 18.03865,0 0,10.629921 18.03865,0 0,-10.629921 18.03866,0 0,10.629921 18.03865,0 0,-10.629921 18.03866,0 0,10.629921 18.03864,0 0,-10.629921 18.0387,0 0,10.629921 18.0386,0 0,-10.629921 18.0387,0 0,10.629921 18.0386,0 0,-10.629921 18.0387,0 z"
       style="fill:none;stroke:#000000"
       inkscape:label="part"
       inkscape:connector-curvature="0"
       sodipodi:nodetypes="cccccccccccccccccccccccccccccccccccccccccccccccccccccccccccccccccccccccccccccccccccccccccccccccccccccccccccccccccccccccccccccccccccccc" />
    <path
       style="fill:none;stroke:#000000;stroke-width:1.00010562px;stroke-linecap:butt;stroke-linejoin:miter;stroke-opacity:1"
       d="m 14.677597,1080.7096 0,-964.10257 0,-6.7425 -0.504369,-0.022 7.795276,0 0,-10.629922 18.425197,0 0,10.629922 18.425197,0 0,-10.629922 18.425196,0 0,10.629922 7.795276,0 0,0 0,7.40873 10.629921,0 0,18.03866 -10.629921,0 0,18.03865 10.629921,0 0,18.03866 -10.629921,0 0,18.03865 10.629921,0 0,18.03865 -10.629921,0 0,18.03866 10.629921,0 0,18.03865 -10.629921,0 0,18.03866 10.629921,0 0,18.03865 -10.629921,0 0,18.03866 10.629921,0 0,18.03865 -10.629921,0 0,18.03865 10.629921,0 0,18.03866 -10.629921,0 0,18.03865 10.629921,0 0,18.03866 -10.629921,0 0,18.03865 10.629921,0 0,18.03866 -10.629921,0 0,18.03865 10.629921,0 0,18.03865 -10.629921,0 0,18.03866 10.629921,0 0,18.03865 -10.629921,0 0,18.03866 10.629921,0 0,18.03865 -10.629921,0 0,18.03865 10.629921,0 0,18.03866 -10.629921,0 0,18.03865 10.629921,0 0,18.03866 -10.629921,0 0,18.03865 10.629921,0 0,18.03866 -10.629921,0 0,18.03865 10.629921,0 0,18.03865 -10.629921,0 0,18.03866 10.629921,0 0,18.03865 -10.629921,0 0,18.03866 10.629921,0 0,18.03865 -10.629921,0 0,18.03866 10.629921,0 0,18.03865 -10.629921,0 0,18.03865 10.629921,0 0,18.03866 -10.629921,0 0,18.03865 10.629921,0 0,18.03866 -10.629921,0 0,18.03865 10.629921,0 0,18.03866 -10.629921,0 0,18.03865 10.629921,0 0,18.03865 -10.629921,0 0,18.03866 10.629921,0 0,18.03865 -10.629921,0 0,18.03866 10.629921,0 0,18.03863 -10.629921,0 0,18.0387 10.629921,0 0,18.0386 -10.629921,0 0,18.0387 10.629921,0 0,18.0386 -10.629921,0 0,7.4088 0,0 -7.795276,0 0,10.6299 -18.425196,0 0,-10.6299 -18.425197,0 0,10.6299 -18.425197,0 0,-10.6299 -7.795276,0 z"
       id="path9867"
       inkscape:connector-curvature="0"
       sodipodi:nodetypes="cccccccccccccccccccccccccccccccccccccccccccccccccccccccccccccccccccccccccccccccccccccccccccccccccccccccccccccccccccccccccccccccccccccc" />
    <g
       id="g9920"
       transform="matrix(0,0.20010608,0.20010608,0,983.1864,109.47258)">
      <g
         clip-path="url(#clipPath9924-0)"
         id="g9922">
        <path
           id="path9928"
           style="fill:#ffffff;fill-opacity:1;fill-rule:evenodd;stroke:none"
           d="m 0,1028.92 4959,0 0,4959 -4959,0 0,-4959 z"
           inkscape:connector-curvature="0" />
      </g>
    </g>
    <g
       transform="matrix(0,1.66755,1.66755,0,983.1864,99.47258)"
       id="g9930">
      <text
         id="text9932"
         transform="matrix(0,1,1,0,509.28,208.671)">
        <tspan
           id="tspan9934"
           y="0"
           x="0"
           style="font-size:22.44000053px;font-variant:normal;font-weight:normal;writing-mode:lr-tb;fill:#000000;fill-opacity:1;fill-rule:nonzero;stroke:none;font-family:Calibri;-inkscape-font-specification:Calibri">k</tspan>
        <tspan
           id="tspan9936"
           sodipodi:role="line"
           y="-408.12"
           x="415.67999 379.44 350.16 317.88 288.23999 255 222.24001 190.44 160.67999 126.72 98.160004 64.919998 33.240002 -0"
           style="font-size:22.44000053px;font-variant:normal;font-weight:normal;writing-mode:lr-tb;fill:#000000;fill-opacity:1;fill-rule:nonzero;stroke:none;font-family:Calibri;-inkscape-font-specification:Calibri">twentydpthirty</tspan>
        <tspan
           id="tspan9938"
           sodipodi:role="line"
           y="-374.16"
           x="416.04001 381.60001 351.84 320.04001 286.56 256.67999 225.60001 192.96001 160.67999 127.56 94.800003 65.040001 31.200001 -0.83999997"
           style="font-size:22.44000053px;font-variant:normal;font-weight:normal;writing-mode:lr-tb;fill:#000000;fill-opacity:1;fill-rule:nonzero;stroke:none;font-family:Calibri;-inkscape-font-specification:Calibri">fortyfiftybten</tspan>
        <tspan
           id="tspan9940"
           sodipodi:role="line"
           y="-340.32001"
           x="415.67999 381.60001 353.16 319.92001 287.88 254.52 222.60001 190.44 158.52 126.72 95.160004 65.040001 28.68 -0.83999997"
           style="font-size:22.44000053px;font-variant:normal;font-weight:normal;writing-mode:lr-tb;fill:#000000;fill-opacity:1;fill-rule:nonzero;stroke:none;font-family:Calibri;-inkscape-font-specification:Calibri">thirteenonetwo</tspan>
        <tspan
           id="tspan9942"
           sodipodi:role="line"
           y="-306.60001"
           x="416.04001 381.60001 349.79999 319.92001 287.88 254.52 222.60001 190.44 159 129.24001 98.160004 63.720001 31.200001 0"
           style="font-size:22.44000053px;font-variant:normal;font-weight:normal;writing-mode:lr-tb;fill:#000000;fill-opacity:1;fill-rule:nonzero;stroke:none;font-family:Calibri;-inkscape-font-specification:Calibri">fourteenafivek</tspan>
        <tspan
           id="tspan9944"
           sodipodi:role="line"
           y="-272.76001"
           x="416.04001 384.95999 352.32001 320.04001 286.07999 254.52 222.24001 192 161.88 127.8 96.959999 63.240002 31.200001 -0.83999997"
           style="font-size:22.44000053px;font-variant:normal;font-weight:normal;writing-mode:lr-tb;fill:#000000;fill-opacity:1;fill-rule:nonzero;stroke:none;font-family:Calibri;-inkscape-font-specification:Calibri">fifteensixteen</tspan>
        <tspan
           id="tspan9946"
           sodipodi:role="line"
           y="-239.28"
           x="415.07999 381.95999 350.64001 318.23999 285.72 256.32001 222.60001 190.8 158.52 128.88 94.800003 64.919998 31.200001 -0.47999999"
           style="font-size:22.44000053px;font-variant:normal;font-weight:normal;writing-mode:lr-tb;fill:#000000;fill-opacity:1;fill-rule:nonzero;stroke:none;font-family:Calibri;-inkscape-font-specification:Calibri">seventeenthree</tspan>
        <tspan
           id="tspan9948"
           sodipodi:role="line"
           y="-205.08"
           x="413.88 384.95999 350.39999 317.88 287.88 254.52 222.60001 190.44 158.88 130.08 95.160004 63.720001 31.200001 -0.83999997"
           style="font-size:22.44000053px;font-variant:normal;font-weight:normal;writing-mode:lr-tb;fill:#000000;fill-opacity:1;fill-rule:nonzero;stroke:none;font-family:Calibri;-inkscape-font-specification:Calibri">eighteeneleven</tspan>
        <tspan
           id="tspan9950"
           sodipodi:role="line"
           y="-171"
           x="413.51999 384.95999 349.79999 318.23999 287.88 254.52 222.60001 190.44 160.67999 124.56 95.160004 66.239998 31.68 -0.47999999"
           style="font-size:22.44000053px;font-variant:normal;font-weight:normal;writing-mode:lr-tb;fill:#000000;fill-opacity:1;fill-rule:nonzero;stroke:none;font-family:Calibri;-inkscape-font-specification:Calibri">nineteentwelve</tspan>
        <tspan
           id="tspan9952"
           sodipodi:role="line"
           y="-136.8"
           x="414.35999 378.60001 353.16 317.88 285.72 256.32001 222.60001 192 160.67999 126.72 95.279999 64.440002 33 -0.83999997"
           style="font-size:22.44000053px;font-variant:normal;font-weight:normal;writing-mode:lr-tb;fill:#000000;fill-opacity:1;fill-rule:nonzero;stroke:none;font-family:Calibri;-inkscape-font-specification:Calibri">vminutestpasto</tspan>
        <tspan
           id="tspan9954"
           sodipodi:role="line"
           y="-102.6"
           x="415.67999 379.44 349.79999 317.88 286.07999 257.51999 222.84 190.44 160.67999 127.08 94.800003 64.440002 34.200001 0.23999999"
           style="font-size:22.44000053px;font-variant:normal;font-weight:normal;writing-mode:lr-tb;fill:#000000;fill-opacity:1;fill-rule:nonzero;stroke:none;font-family:Calibri;-inkscape-font-specification:Calibri">twoneightensix</tspan>
        <tspan
           id="tspan9956"
           sodipodi:role="line"
           y="-68.400002"
           x="415.67999 381.60001 351.84 318.23999 286.07999 254.16 225.60001 190.44 158.88 130.08 95.160004 63.720001 31.200001 -0.83999997"
           style="font-size:22.44000053px;font-variant:normal;font-weight:normal;writing-mode:lr-tb;fill:#000000;fill-opacity:1;fill-rule:nonzero;stroke:none;font-family:Calibri;-inkscape-font-specification:Calibri">threenineleven</tspan>
        <tspan
           id="tspan9958"
           sodipodi:role="line"
           y="-34.200001"
           x="416.04001 381.60001 349.79999 319.92001 288.23999 257.51999 223.08 190.8 160.67999 124.56 95.160004 66.239998 31.68 -0.47999999"
           style="font-size:22.44000053px;font-variant:normal;font-weight:normal;writing-mode:lr-tb;fill:#000000;fill-opacity:1;fill-rule:nonzero;stroke:none;font-family:Calibri;-inkscape-font-specification:Calibri">fourfivetwelve</tspan>
        <tspan
           id="tspan9960"
           sodipodi:role="line"
           y="-5.6843419e-014"
           x="415.07999 381.95999 350.64001 318.23999 285.72 254.16 225.60001 190.44 158.52 127.92 98.160004 62.880001 32.040001"
           style="font-size:22.44000053px;font-variant:normal;font-weight:normal;writing-mode:lr-tb;fill:#000000;fill-opacity:1;fill-rule:nonzero;stroke:none;font-family:Calibri;-inkscape-font-specification:Calibri">sevendlpocloc</tspan>
        <tspan
           id="tspan9962"
           y="-3.48"
           x="150.48"
           style="font-size:22.44000053px;font-variant:normal;font-weight:normal;writing-mode:lr-tb;fill:#000000;fill-opacity:1;fill-rule:nonzero;stroke:none;font-family:Calibri;-inkscape-font-specification:Calibri">‘</tspan>
      </text>
    </g>
    <g
       id="g9972"
       transform="matrix(0,0.20010608,0.20010608,0,983.1864,99.47258)">
      <g
         clip-path="url(#clipPath9976-6)"
         id="g9974">
        <path
           id="path9980"
           style="fill:#000000;fill-opacity:1;fill-rule:nonzero;stroke:none"
           d="m 0,1026.92 c -1,0 -2,1 -2,2 l 0,4958 c 0,2 1,3 2,3 l 4958,0 c 2,0 3,-1 3,-3 l 0,-4958 c 0,-1 -1,-2 -3,-2 l -4958,0 z m 4958,5 -2,-3 0,4958 2,-2 -4958,0 3,2 0,-4958 -3,3"
           inkscape:connector-curvature="0" />
      </g>
    </g>
    <path
       sodipodi:type="arc"
       style="opacity:0.5;fill:none;stroke:#ff0000;stroke-width:0.70866144;stroke-miterlimit:10;stroke-opacity:1;stroke-dasharray:none"
       id="path10255-8"
       sodipodi:cx="1216.25"
       sodipodi:cy="153.25504"
       sodipodi:rx="8.5714283"
       sodipodi:ry="8.5714283"
       d="m 1224.8214,153.25504 c 0,4.73386 -3.8375,8.57142 -8.5714,8.57142 -4.7339,0 -8.5714,-3.83756 -8.5714,-8.57142 0,-4.73387 3.8375,-8.57143 8.5714,-8.57143 4.7339,0 8.5714,3.83756 8.5714,8.57143 z"
       transform="matrix(0.59546316,0,0,0.59546316,1421.2155,43.63241)" />
    <path
       sodipodi:type="arc"
       style="opacity:0.5;fill:none;stroke:#ff0000;stroke-width:0.70866144;stroke-miterlimit:10;stroke-opacity:1;stroke-dasharray:none"
       id="path10255-0"
       sodipodi:cx="1216.25"
       sodipodi:cy="153.25504"
       sodipodi:rx="8.5714283"
       sodipodi:ry="8.5714283"
       d="m 1224.8214,153.25504 c 0,4.73386 -3.8375,8.57142 -8.5714,8.57142 -4.7339,0 -8.5714,-3.83756 -8.5714,-8.57142 0,-4.73387 3.8375,-8.57143 8.5714,-8.57143 4.7339,0 8.5714,3.83756 8.5714,8.57143 z"
       transform="matrix(0.59546316,0,0,0.59546316,1421.1313,964.80721)" />
    <path
       sodipodi:type="arc"
       style="opacity:0.5;fill:none;stroke:#ff0000;stroke-width:0.70866144;stroke-miterlimit:10;stroke-opacity:1;stroke-dasharray:none"
       id="path10255-3"
       sodipodi:cx="1216.25"
       sodipodi:cy="153.25504"
       sodipodi:rx="8.5714283"
       sodipodi:ry="8.5714283"
       d="m 1224.8214,153.25504 c 0,4.73386 -3.8375,8.57142 -8.5714,8.57142 -4.7339,0 -8.5714,-3.83756 -8.5714,-8.57142 0,-4.73387 3.8375,-8.57143 8.5714,-8.57143 4.7339,0 8.5714,3.83756 8.5714,8.57143 z"
       transform="matrix(0.59546316,0,0,0.59546316,500.65409,964.80721)" />
    <path
       sodipodi:type="arc"
       style="opacity:0.5;fill:none;stroke:#ff0000;stroke-width:0.70866144;stroke-miterlimit:10;stroke-opacity:1;stroke-dasharray:none"
       id="path10255-5"
       sodipodi:cx="1216.25"
       sodipodi:cy="153.25504"
       sodipodi:rx="8.5714283"
       sodipodi:ry="8.5714283"
       d="m 1224.8214,153.25504 c 0,4.73386 -3.8375,8.57142 -8.5714,8.57142 -4.7339,0 -8.5714,-3.83756 -8.5714,-8.57142 0,-4.73387 3.8375,-8.57143 8.5714,-8.57143 4.7339,0 8.5714,3.83756 8.5714,8.57143 z"
       transform="matrix(0.59546316,0,0,0.59546316,-589.54457,964.85446)" />
    <path
       sodipodi:type="arc"
       style="opacity:0.5;fill:none;stroke:#ff0000;stroke-width:0.70866144;stroke-miterlimit:10;stroke-opacity:1;stroke-dasharray:none"
       id="path10255-09"
       sodipodi:cx="1216.25"
       sodipodi:cy="153.25504"
       sodipodi:rx="8.5714283"
       sodipodi:ry="8.5714283"
       d="m 1224.8214,153.25504 c 0,4.73386 -3.8375,8.57142 -8.5714,8.57142 -4.7339,0 -8.5714,-3.83756 -8.5714,-8.57142 0,-4.73387 3.8375,-8.57143 8.5714,-8.57143 4.7339,0 8.5714,3.83756 8.5714,8.57143 z"
       transform="matrix(0.59546316,0,0,0.59546316,-483.26332,890.47946)" />
    <path
       sodipodi:type="arc"
       style="opacity:0.5;fill:none;stroke:#ff0000;stroke-width:0.70866144;stroke-miterlimit:10;stroke-opacity:1;stroke-dasharray:none"
       id="path10255-51"
       sodipodi:cx="1216.25"
       sodipodi:cy="153.25504"
       sodipodi:rx="8.5714283"
       sodipodi:ry="8.5714283"
       d="m 1224.8214,153.25504 c 0,4.73386 -3.8375,8.57142 -8.5714,8.57142 -4.7339,0 -8.5714,-3.83756 -8.5714,-8.57142 0,-4.73387 3.8375,-8.57143 8.5714,-8.57143 4.7339,0 8.5714,3.83756 8.5714,8.57143 z"
       transform="matrix(0.59546316,0,0,0.59546316,225.38078,890.45303)" />
    <path
       sodipodi:type="arc"
       style="opacity:0.5;fill:none;stroke:#ff0000;stroke-width:0.70866144;stroke-miterlimit:10;stroke-opacity:1;stroke-dasharray:none"
       id="path10255-1"
       sodipodi:cx="1216.25"
       sodipodi:cy="153.25504"
       sodipodi:rx="8.5714283"
       sodipodi:ry="8.5714283"
       d="m 1224.8214,153.25504 c 0,4.73386 -3.8375,8.57142 -8.5714,8.57142 -4.7339,0 -8.5714,-3.83756 -8.5714,-8.57142 0,-4.73387 3.8375,-8.57143 8.5714,-8.57143 4.7339,0 8.5714,3.83756 8.5714,8.57143 z"
       transform="matrix(0.59546316,0,0,0.59546316,331.65855,964.80759)" />
    <path
       sodipodi:type="arc"
       style="opacity:0.5;fill:none;stroke:#ff0000;stroke-width:0.70866144;stroke-miterlimit:10;stroke-opacity:1;stroke-dasharray:none"
       id="path10255-34"
       sodipodi:cx="1216.25"
       sodipodi:cy="153.25504"
       sodipodi:rx="8.5714283"
       sodipodi:ry="8.5714283"
       d="m 1224.8214,153.25504 c 0,4.73386 -3.8375,8.57142 -8.5714,8.57142 -4.7339,0 -8.5714,-3.83756 -8.5714,-8.57142 0,-4.73387 3.8375,-8.57143 8.5714,-8.57143 4.7339,0 8.5714,3.83756 8.5714,8.57143 z"
       transform="matrix(0.59546316,0,0,0.59546316,331.65513,43.633411)" />
    <path
       sodipodi:type="arc"
       style="opacity:0.5;fill:none;stroke:#ff0000;stroke-width:0.70866144;stroke-miterlimit:10;stroke-opacity:1;stroke-dasharray:none"
       id="path10255-83"
       sodipodi:cx="1216.25"
       sodipodi:cy="153.25504"
       sodipodi:rx="8.5714283"
       sodipodi:ry="8.5714283"
       d="m 1224.8214,153.25504 c 0,4.73386 -3.8375,8.57142 -8.5714,8.57142 -4.7339,0 -8.5714,-3.83756 -8.5714,-8.57142 0,-4.73387 3.8375,-8.57143 8.5714,-8.57143 4.7339,0 8.5714,3.83756 8.5714,8.57143 z"
       transform="matrix(0.59546316,0,0,0.59546316,225.39024,117.96801)" />
    <path
       sodipodi:type="arc"
       style="opacity:0.5;fill:none;stroke:#ff0000;stroke-width:0.70866144;stroke-miterlimit:10;stroke-opacity:1;stroke-dasharray:none"
       id="path10255-9"
       sodipodi:cx="1216.25"
       sodipodi:cy="153.25504"
       sodipodi:rx="8.5714283"
       sodipodi:ry="8.5714283"
       d="m 1224.8214,153.25504 c 0,4.73386 -3.8375,8.57142 -8.5714,8.57142 -4.7339,0 -8.5714,-3.83756 -8.5714,-8.57142 0,-4.73387 3.8375,-8.57143 8.5714,-8.57143 4.7339,0 8.5714,3.83756 8.5714,8.57143 z"
       transform="matrix(0.59546316,0,0,0.59546316,-589.55033,43.611313)" />
    <path
       sodipodi:type="arc"
       style="opacity:0.5;fill:none;stroke:#ff0000;stroke-width:0.70866144;stroke-miterlimit:10;stroke-opacity:1;stroke-dasharray:none"
       id="path10255-80"
       sodipodi:cx="1216.25"
       sodipodi:cy="153.25504"
       sodipodi:rx="8.5714283"
       sodipodi:ry="8.5714283"
       d="m 1224.8214,153.25504 c 0,4.73386 -3.8375,8.57142 -8.5714,8.57142 -4.7339,0 -8.5714,-3.83756 -8.5714,-8.57142 0,-4.73387 3.8375,-8.57143 8.5714,-8.57143 4.7339,0 8.5714,3.83756 8.5714,8.57143 z"
       transform="matrix(0.59546316,0,0,0.59546316,-483.27857,117.97429)" />
    <rect
       style="opacity:0.5;fill:none;stroke:#ff0101;stroke-width:0.71419287;stroke-miterlimit:10;stroke-opacity:1;stroke-dasharray:none"
       id="rect10544"
       width="144.47932"
       height="69.75"
       x="815.25"
       y="245.36218"
       ry="11.707087" />
    <path
       sodipodi:type="arc"
       style="opacity:0.5;fill:none;stroke:#ff0000;stroke-width:0.70866144;stroke-miterlimit:10;stroke-opacity:1;stroke-dasharray:none"
       id="path10255-4"
       sodipodi:cx="1216.25"
       sodipodi:cy="153.25504"
       sodipodi:rx="8.5714283"
       sodipodi:ry="8.5714283"
       d="m 1224.8214,153.25504 c 0,4.73386 -3.8375,8.57142 -8.5714,8.57142 -4.7339,0 -8.5714,-3.83756 -8.5714,-8.57142 0,-4.73387 3.8375,-8.57143 8.5714,-8.57143 4.7339,0 8.5714,3.83756 8.5714,8.57143 z"
       transform="matrix(0.59546316,0,0,0.59546316,500.42418,43.63241)" />
    <rect
       style="opacity:0.5;fill:none;stroke:#ff0101;stroke-width:0.26901466;stroke-miterlimit:10;stroke-opacity:1;stroke-dasharray:none"
       id="rect10544-4"
       width="48.793121"
       height="29.303001"
       x="861.74591"
       y="194.82233"
       ry="4.9183192" />
  </g>
  <g
     id="g8925"
     inkscape:groupmode="layer"
     inkscape:label="newlayer"
     transform="translate(-13.673175,-13.673228)" />
  <g
     inkscape:label="newlayer"
     inkscape:groupmode="layer"
     id="g8985"
     transform="translate(-13.673175,-13.673228)" />
  <g
     id="g9059"
     inkscape:groupmode="layer"
     inkscape:label="newlayer"
     transform="translate(-13.673175,-13.673228)" />
</svg>
