<?xml version="1.0" encoding="UTF-8" standalone="no"?>
<!-- Created with Inkscape (http://www.inkscape.org/) -->

<svg
   xmlns:dc="http://purl.org/dc/elements/1.1/"
   xmlns:cc="http://creativecommons.org/ns#"
   xmlns:rdf="http://www.w3.org/1999/02/22-rdf-syntax-ns#"
   xmlns:svg="http://www.w3.org/2000/svg"
   xmlns="http://www.w3.org/2000/svg"
   xmlns:sodipodi="http://sodipodi.sourceforge.net/DTD/sodipodi-0.dtd"
   xmlns:inkscape="http://www.inkscape.org/namespaces/inkscape"
   width="744.09448"
   height="1052.3622"
   id="svg2"
   version="1.1"
   inkscape:version="0.48.5 r10040"
   sodipodi:docname="ClockFOUR_v1.svg">
  <sodipodi:namedview
     id="base"
     pagecolor="#ffffff"
     bordercolor="#666666"
     borderopacity="1.0"
     inkscape:pageopacity="0.0"
     inkscape:pageshadow="2"
     inkscape:zoom="0.49497475"
     inkscape:cx="1140.4297"
     inkscape:cy="512.76345"
     inkscape:document-units="mm"
     inkscape:current-layer="layer1"
     showgrid="false"
     inkscape:window-width="1292"
     inkscape:window-height="741"
     inkscape:window-x="-9"
     inkscape:window-y="-9"
     inkscape:window-maximized="1"
     units="mm" />
  <defs
     id="defs4">
    <clipPath
       id="clipPath4400"
       clipPathUnits="userSpaceOnUse">
      <path
         id="path4402"
         clip-rule="evenodd"
         d="m 0,1028 4958,0 0,4959 -4958,0 0,-4959 z" />
    </clipPath>
    <clipPath
       id="clipPath4338"
       clipPathUnits="userSpaceOnUse">
      <path
         id="path4340"
         clip-rule="evenodd"
         d="m 0,1028 4958,0 0,4959 -4958,0 0,-4959 z" />
    </clipPath>
    <clipPath
       id="clipPath4338-6"
       clipPathUnits="userSpaceOnUse">
      <path
         inkscape:connector-curvature="0"
         id="path4340-3"
         clip-rule="evenodd"
         d="m 0,1028 4958,0 0,4959 -4958,0 0,-4959 z" />
    </clipPath>
    <clipPath
       id="clipPath4400-8"
       clipPathUnits="userSpaceOnUse">
      <path
         inkscape:connector-curvature="0"
         id="path4402-5"
         clip-rule="evenodd"
         d="m 0,1028 4958,0 0,4959 -4958,0 0,-4959 z" />
    </clipPath>
    <clipPath
       id="clipPath4791"
       clipPathUnits="userSpaceOnUse">
      <path
         id="path4793"
         clip-rule="evenodd"
         d="m 0,1028.92 4958,0 0,4958 -4958,0 0,-4958 z" />
    </clipPath>
    <clipPath
       id="clipPath4729"
       clipPathUnits="userSpaceOnUse">
      <path
         id="path4731"
         clip-rule="evenodd"
         d="m 0,1028.92 4958,0 0,4958 -4958,0 0,-4958 z" />
    </clipPath>
  </defs>
  <metadata
     id="metadata7">
    <rdf:RDF>
      <cc:Work
         rdf:about="">
        <dc:format>image/svg+xml</dc:format>
        <dc:type
           rdf:resource="http://purl.org/dc/dcmitype/StillImage" />
        <dc:title></dc:title>
      </cc:Work>
    </rdf:RDF>
  </metadata>
  <g
     transform="translate(0,-2.5390623e-6)"
     id="layer1"
     inkscape:groupmode="layer"
     inkscape:label="Layer 1">
    <path
       id="path4176"
       d="M 77.9527559052,1084.2519685 L 95.9914101643,1084.2519685 L 95.9914101643,1073.62204724 L 114.030064423,1073.62204724 L 114.030064423,1084.2519685 L 132.068718682,1084.2519685 L 132.068718682,1073.62204724 L 150.107372941,1073.62204724 L 150.107372941,1084.2519685 L 168.1460272,1084.2519685 L 168.1460272,1073.62204724 L 186.18468146,1073.62204724 L 186.18468146,1084.2519685 L 204.223335719,1084.2519685 L 204.223335719,1073.62204724 L 222.261989978,1073.62204724 L 222.261989978,1084.2519685 L 240.300644237,1084.2519685 L 240.300644237,1073.62204724 L 258.339298496,1073.62204724 L 258.339298496,1084.2519685 L 276.377952755,1084.2519685 L 276.377952755,1073.62204724 L 294.416607014,1073.62204724 L 294.416607014,1084.2519685 L 312.455261273,1084.2519685 L 312.455261273,1073.62204724 L 330.493915532,1073.62204724 L 330.493915532,1084.2519685 L 348.532569791,1084.2519685 L 348.532569791,1073.62204724 L 366.57122405,1073.62204724 L 366.57122405,1084.2519685 L 384.609878309,1084.2519685 L 384.609878309,1073.62204724 L 402.648532568,1073.62204724 L 402.648532568,1084.2519685 L 420.687186827,1084.2519685 L 420.687186827,1073.62204724 L 438.725841086,1073.62204724 L 438.725841086,1084.2519685 L 456.764495345,1084.2519685 L 456.764495345,1073.62204724 L 474.803149604,1073.62204724 L 474.803149604,1084.2519685 L 492.841803863,1084.2519685 L 492.841803863,1073.62204724 L 510.880458123,1073.62204724 L 510.880458123,1084.2519685 L 528.919112382,1084.2519685 L 528.919112382,1073.62204724 L 546.957766641,1073.62204724 L 546.957766641,1084.2519685 L 564.9964209,1084.2519685 L 564.9964209,1073.62204724 L 583.035075159,1073.62204724 L 583.035075159,1084.2519685 L 601.073729418,1084.2519685 L 601.073729418,1073.62204724 L 619.112383677,1073.62204724 L 619.112383677,1084.2519685 L 637.151037936,1084.2519685 L 637.151037936,1073.62204724 L 655.189692195,1073.62204724 L 655.189692195,1084.2519685 L 673.228346454,1084.2519685 L 673.228346454,1073.62204724 L 691.267000713,1073.62204724 L 691.267000713,1084.2519685 L 709.305654972,1084.2519685 L 709.305654972,1073.62204724 L 727.344309231,1073.62204724 L 727.344309231,1084.2519685 L 745.38296349,1084.2519685 L 745.38296349,1073.62204724 L 763.421617749,1073.62204724 L 763.421617749,1084.2519685 L 781.460272008,1084.2519685 L 781.460272008,1073.62204724 L 799.498926267,1073.62204724 L 799.498926267,1084.2519685 L 817.537580526,1084.2519685 L 817.537580526,1073.62204724 L 835.576234785,1073.62204724 L 835.576234785,1084.2519685 L 853.614889045,1084.2519685 L 853.614889045,1073.62204724 L 871.653543304,1073.62204724 L 871.653543304,1084.2519685 L 889.692197563,1084.2519685 L 889.692197563,1073.62204724 L 907.730851822,1073.62204724 L 907.730851822,1084.2519685 L 925.769506081,1084.2519685 L 925.769506081,1073.62204724 L 943.80816034,1073.62204724 L 943.80816034,1084.2519685 L 961.846814599,1084.2519685 L 961.846814599,1073.62204724 L 979.885468858,1073.62204724 L 979.885468858,1084.2519685 L 997.924123117,1084.2519685 L 997.924123117,1073.62204724 L 1015.96277738,1073.62204724 L 1015.96277738,1084.2519685 L 1034.00143164,1084.2519685 L 1034.00143164,1073.62204724 L 1052.04008589,1073.62204724 L 1052.04008589,1084.2519685 L 1070.07874015,1084.2519685 "
       style="stroke:#000000;fill:none;stroke-width:0.70866142;stroke-miterlimit:4;stroke-dasharray:none"
       inkscape:label="part" />
    <path
       id="path4178"
       d="M 1070.07874015,1084.2519685 L 1070.07874015,1097.24409448 L 1059.44881889,1097.24409448 L 1059.44881889,1120.86614173 L 1070.07874015,1120.86614173 L 1070.07874015,1133.85826771 "
       style="stroke:#000000;fill:none;stroke-width:0.70866142;stroke-miterlimit:4;stroke-dasharray:none"
       inkscape:label="part" />
    <path
       id="path4182"
       d="M 77.9527559052,1133.85826771 L 77.9527559052,1120.86614173 L 88.582677165,1120.86614173 L 88.582677165,1097.24409448 L 77.9527559052,1097.24409448 L 77.9527559052,1084.2519685 "
       style="stroke:#000000;fill:none;stroke-width:0.70866142;stroke-miterlimit:4;stroke-dasharray:none"
       inkscape:label="part" />
    <path
       id="path4184"
       d="M 14.1732283464,88.582677165 L 27.1653543306,88.582677165 L 27.1653543306,77.9527559052 L 50.7874015746,77.9527559052 L 50.7874015746,88.582677165 L 63.7795275588,88.582677165 "
       style="stroke:#000000;fill:none;stroke-width:0.70866142;stroke-miterlimit:4;stroke-dasharray:none"
       inkscape:label="part" />
    <path
       id="path4186"
       d="M 63.7795275588,88.582677165 L 63.7795275588,95.9914101643 L 74.4094488186,95.9914101643 L 74.4094488186,114.030064423 L 63.7795275588,114.030064423 L 63.7795275588,132.068718682 L 74.4094488186,132.068718682 L 74.4094488186,150.107372941 L 63.7795275588,150.107372941 L 63.7795275588,168.1460272 L 74.4094488186,168.1460272 L 74.4094488186,186.18468146 L 63.7795275588,186.18468146 L 63.7795275588,204.223335719 L 74.4094488186,204.223335719 L 74.4094488186,222.261989978 L 63.7795275588,222.261989978 L 63.7795275588,240.300644237 L 74.4094488186,240.300644237 L 74.4094488186,258.339298496 L 63.7795275588,258.339298496 L 63.7795275588,276.377952755 L 74.4094488186,276.377952755 L 74.4094488186,294.416607014 L 63.7795275588,294.416607014 L 63.7795275588,312.455261273 L 74.4094488186,312.455261273 L 74.4094488186,330.493915532 L 63.7795275588,330.493915532 L 63.7795275588,348.532569791 L 74.4094488186,348.532569791 L 74.4094488186,366.57122405 L 63.7795275588,366.57122405 L 63.7795275588,384.609878309 L 74.4094488186,384.609878309 L 74.4094488186,402.648532568 L 63.7795275588,402.648532568 L 63.7795275588,420.687186827 L 74.4094488186,420.687186827 L 74.4094488186,438.725841086 L 63.7795275588,438.725841086 L 63.7795275588,456.764495345 L 74.4094488186,456.764495345 L 74.4094488186,474.803149604 L 63.7795275588,474.803149604 L 63.7795275588,492.841803863 L 74.4094488186,492.841803863 L 74.4094488186,510.880458123 L 63.7795275588,510.880458123 L 63.7795275588,528.919112382 L 74.4094488186,528.919112382 L 74.4094488186,546.957766641 L 63.7795275588,546.957766641 L 63.7795275588,564.9964209 L 74.4094488186,564.9964209 L 74.4094488186,583.035075159 L 63.7795275588,583.035075159 L 63.7795275588,601.073729418 L 74.4094488186,601.073729418 L 74.4094488186,619.112383677 L 63.7795275588,619.112383677 L 63.7795275588,637.151037936 L 74.4094488186,637.151037936 L 74.4094488186,655.189692195 L 63.7795275588,655.189692195 L 63.7795275588,673.228346454 L 74.4094488186,673.228346454 L 74.4094488186,691.267000713 L 63.7795275588,691.267000713 L 63.7795275588,709.305654972 L 74.4094488186,709.305654972 L 74.4094488186,727.344309231 L 63.7795275588,727.344309231 L 63.7795275588,745.38296349 L 74.4094488186,745.38296349 L 74.4094488186,763.421617749 L 63.7795275588,763.421617749 L 63.7795275588,781.460272008 L 74.4094488186,781.460272008 L 74.4094488186,799.498926267 L 63.7795275588,799.498926267 L 63.7795275588,817.537580526 L 74.4094488186,817.537580526 L 74.4094488186,835.576234785 L 63.7795275588,835.576234785 L 63.7795275588,853.614889045 L 74.4094488186,853.614889045 L 74.4094488186,871.653543304 L 63.7795275588,871.653543304 L 63.7795275588,889.692197563 L 74.4094488186,889.692197563 L 74.4094488186,907.730851822 L 63.7795275588,907.730851822 L 63.7795275588,925.769506081 L 74.4094488186,925.769506081 L 74.4094488186,943.80816034 L 63.7795275588,943.80816034 L 63.7795275588,961.846814599 L 74.4094488186,961.846814599 L 74.4094488186,979.885468858 L 63.7795275588,979.885468858 L 63.7795275588,997.924123117 L 74.4094488186,997.924123117 L 74.4094488186,1015.96277738 L 63.7795275588,1015.96277738 L 63.7795275588,1034.00143164 L 74.4094488186,1034.00143164 L 74.4094488186,1052.04008589 L 63.7795275588,1052.04008589 L 63.7795275588,1059.44881889 "
       style="stroke:#000000;fill:none;stroke-width:0.70866142;stroke-miterlimit:4;stroke-dasharray:none"
       inkscape:label="part" />
    <path
       id="path4188"
       d="M 63.7795275588,1059.44881889 L 50.7874015746,1059.44881889 L 50.7874015746,1070.07874015 L 27.1653543306,1070.07874015 L 27.1653543306,1059.44881889 L 14.1732283464,1059.44881889 "
       style="stroke:#000000;fill:none;stroke-width:0.70866142;stroke-miterlimit:4;stroke-dasharray:none"
       inkscape:label="part" />
    <path
       id="path4192"
       d="M 77.9527559052,77.9527559052 L 95.9914101643,77.9527559052 L 95.9914101643,88.582677165 L 114.030064423,88.582677165 L 114.030064423,77.9527559052 L 132.068718682,77.9527559052 L 132.068718682,88.582677165 L 150.107372941,88.582677165 L 150.107372941,77.9527559052 L 168.1460272,77.9527559052 L 168.1460272,88.582677165 L 186.18468146,88.582677165 L 186.18468146,77.9527559052 L 204.223335719,77.9527559052 L 204.223335719,88.582677165 L 222.261989978,88.582677165 L 222.261989978,77.9527559052 L 240.300644237,77.9527559052 L 240.300644237,88.582677165 L 258.339298496,88.582677165 L 258.339298496,77.9527559052 L 276.377952755,77.9527559052 L 276.377952755,88.582677165 L 294.416607014,88.582677165 L 294.416607014,77.9527559052 L 312.455261273,77.9527559052 L 312.455261273,88.582677165 L 330.493915532,88.582677165 L 330.493915532,77.9527559052 L 348.532569791,77.9527559052 L 348.532569791,88.582677165 L 366.57122405,88.582677165 L 366.57122405,77.9527559052 L 384.609878309,77.9527559052 L 384.609878309,88.582677165 L 402.648532568,88.582677165 L 402.648532568,77.9527559052 L 420.687186827,77.9527559052 L 420.687186827,88.582677165 L 438.725841086,88.582677165 L 438.725841086,77.9527559052 L 456.764495345,77.9527559052 L 456.764495345,88.582677165 L 474.803149604,88.582677165 L 474.803149604,77.9527559052 L 492.841803863,77.9527559052 L 492.841803863,88.582677165 L 510.880458123,88.582677165 L 510.880458123,77.9527559052 L 528.919112382,77.9527559052 L 528.919112382,88.582677165 L 546.957766641,88.582677165 L 546.957766641,77.9527559052 L 564.9964209,77.9527559052 L 564.9964209,88.582677165 L 583.035075159,88.582677165 L 583.035075159,77.9527559052 L 601.073729418,77.9527559052 L 601.073729418,88.582677165 L 619.112383677,88.582677165 L 619.112383677,77.9527559052 L 637.151037936,77.9527559052 L 637.151037936,88.582677165 L 655.189692195,88.582677165 L 655.189692195,77.9527559052 L 673.228346454,77.9527559052 L 673.228346454,88.582677165 L 691.267000713,88.582677165 L 691.267000713,77.9527559052 L 709.305654972,77.9527559052 L 709.305654972,88.582677165 L 727.344309231,88.582677165 L 727.344309231,77.9527559052 L 745.38296349,77.9527559052 L 745.38296349,88.582677165 L 763.421617749,88.582677165 L 763.421617749,77.9527559052 L 781.460272008,77.9527559052 L 781.460272008,88.582677165 L 799.498926267,88.582677165 L 799.498926267,77.9527559052 L 817.537580526,77.9527559052 L 817.537580526,88.582677165 L 835.576234785,88.582677165 L 835.576234785,77.9527559052 L 853.614889045,77.9527559052 L 853.614889045,88.582677165 L 871.653543304,88.582677165 L 871.653543304,77.9527559052 L 889.692197563,77.9527559052 L 889.692197563,88.582677165 L 907.730851822,88.582677165 L 907.730851822,77.9527559052 L 925.769506081,77.9527559052 L 925.769506081,88.582677165 L 943.80816034,88.582677165 L 943.80816034,77.9527559052 L 961.846814599,77.9527559052 L 961.846814599,88.582677165 L 979.885468858,88.582677165 L 979.885468858,77.9527559052 L 997.924123117,77.9527559052 L 997.924123117,88.582677165 L 1015.96277738,88.582677165 L 1015.96277738,77.9527559052 L 1034.00143164,77.9527559052 L 1034.00143164,88.582677165 L 1052.04008589,88.582677165 L 1052.04008589,77.9527559052 L 1070.07874015,77.9527559052 "
       style="stroke:#000000;fill:none;stroke-width:0.70866142;stroke-miterlimit:4;stroke-dasharray:none"
       inkscape:label="part" />
    <path
       id="path4194"
       d="M 1070.07874015,77.9527559052 L 1070.07874015,95.9914101643 L 1059.44881889,95.9914101643 L 1059.44881889,114.030064423 L 1070.07874015,114.030064423 L 1070.07874015,132.068718682 L 1059.44881889,132.068718682 L 1059.44881889,150.107372941 L 1070.07874015,150.107372941 L 1070.07874015,168.1460272 L 1059.44881889,168.1460272 L 1059.44881889,186.18468146 L 1070.07874015,186.18468146 L 1070.07874015,204.223335719 L 1059.44881889,204.223335719 L 1059.44881889,222.261989978 L 1070.07874015,222.261989978 L 1070.07874015,240.300644237 L 1059.44881889,240.300644237 L 1059.44881889,258.339298496 L 1070.07874015,258.339298496 L 1070.07874015,276.377952755 L 1059.44881889,276.377952755 L 1059.44881889,294.416607014 L 1070.07874015,294.416607014 L 1070.07874015,312.455261273 L 1059.44881889,312.455261273 L 1059.44881889,330.493915532 L 1070.07874015,330.493915532 L 1070.07874015,348.532569791 L 1059.44881889,348.532569791 L 1059.44881889,366.57122405 L 1070.07874015,366.57122405 L 1070.07874015,384.609878309 L 1059.44881889,384.609878309 L 1059.44881889,402.648532568 L 1070.07874015,402.648532568 L 1070.07874015,420.687186827 L 1059.44881889,420.687186827 L 1059.44881889,438.725841086 L 1070.07874015,438.725841086 L 1070.07874015,456.764495345 L 1059.44881889,456.764495345 L 1059.44881889,474.803149604 L 1070.07874015,474.803149604 L 1070.07874015,492.841803863 L 1059.44881889,492.841803863 L 1059.44881889,510.880458123 L 1070.07874015,510.880458123 L 1070.07874015,528.919112382 L 1059.44881889,528.919112382 L 1059.44881889,546.957766641 L 1070.07874015,546.957766641 L 1070.07874015,564.9964209 L 1059.44881889,564.9964209 L 1059.44881889,583.035075159 L 1070.07874015,583.035075159 L 1070.07874015,601.073729418 L 1059.44881889,601.073729418 L 1059.44881889,619.112383677 L 1070.07874015,619.112383677 L 1070.07874015,637.151037936 L 1059.44881889,637.151037936 L 1059.44881889,655.189692195 L 1070.07874015,655.189692195 L 1070.07874015,673.228346454 L 1059.44881889,673.228346454 L 1059.44881889,691.267000713 L 1070.07874015,691.267000713 L 1070.07874015,709.305654972 L 1059.44881889,709.305654972 L 1059.44881889,727.344309231 L 1070.07874015,727.344309231 L 1070.07874015,745.38296349 L 1059.44881889,745.38296349 L 1059.44881889,763.421617749 L 1070.07874015,763.421617749 L 1070.07874015,781.460272008 L 1059.44881889,781.460272008 L 1059.44881889,799.498926267 L 1070.07874015,799.498926267 L 1070.07874015,817.537580526 L 1059.44881889,817.537580526 L 1059.44881889,835.576234785 L 1070.07874015,835.576234785 L 1070.07874015,853.614889045 L 1059.44881889,853.614889045 L 1059.44881889,871.653543304 L 1070.07874015,871.653543304 L 1070.07874015,889.692197563 L 1059.44881889,889.692197563 L 1059.44881889,907.730851822 L 1070.07874015,907.730851822 L 1070.07874015,925.769506081 L 1059.44881889,925.769506081 L 1059.44881889,943.80816034 L 1070.07874015,943.80816034 L 1070.07874015,961.846814599 L 1059.44881889,961.846814599 L 1059.44881889,979.885468858 L 1070.07874015,979.885468858 L 1070.07874015,997.924123117 L 1059.44881889,997.924123117 L 1059.44881889,1015.96277738 L 1070.07874015,1015.96277738 L 1070.07874015,1034.00143164 L 1059.44881889,1034.00143164 L 1059.44881889,1052.04008589 L 1070.07874015,1052.04008589 L 1070.07874015,1070.07874015 "
       style="stroke:#000000;fill:none;stroke-width:0.70866142;stroke-miterlimit:4;stroke-dasharray:none"
       inkscape:label="part" />
    <path
       id="path4196"
       d="M 1070.07874015,1070.07874015 L 1052.04008589,1070.07874015 L 1052.04008589,1059.44881889 L 1034.00143164,1059.44881889 L 1034.00143164,1070.07874015 L 1015.96277738,1070.07874015 L 1015.96277738,1059.44881889 L 997.924123117,1059.44881889 L 997.924123117,1070.07874015 L 979.885468858,1070.07874015 L 979.885468858,1059.44881889 L 961.846814599,1059.44881889 L 961.846814599,1070.07874015 L 943.80816034,1070.07874015 L 943.80816034,1059.44881889 L 925.769506081,1059.44881889 L 925.769506081,1070.07874015 L 907.730851822,1070.07874015 L 907.730851822,1059.44881889 L 889.692197563,1059.44881889 L 889.692197563,1070.07874015 L 871.653543304,1070.07874015 L 871.653543304,1059.44881889 L 853.614889045,1059.44881889 L 853.614889045,1070.07874015 L 835.576234785,1070.07874015 L 835.576234785,1059.44881889 L 817.537580526,1059.44881889 L 817.537580526,1070.07874015 L 799.498926267,1070.07874015 L 799.498926267,1059.44881889 L 781.460272008,1059.44881889 L 781.460272008,1070.07874015 L 763.421617749,1070.07874015 L 763.421617749,1059.44881889 L 745.38296349,1059.44881889 L 745.38296349,1070.07874015 L 727.344309231,1070.07874015 L 727.344309231,1059.44881889 L 709.305654972,1059.44881889 L 709.305654972,1070.07874015 L 691.267000713,1070.07874015 L 691.267000713,1059.44881889 L 673.228346454,1059.44881889 L 673.228346454,1070.07874015 L 655.189692195,1070.07874015 L 655.189692195,1059.44881889 L 637.151037936,1059.44881889 L 637.151037936,1070.07874015 L 619.112383677,1070.07874015 L 619.112383677,1059.44881889 L 601.073729418,1059.44881889 L 601.073729418,1070.07874015 L 583.035075159,1070.07874015 L 583.035075159,1059.44881889 L 564.9964209,1059.44881889 L 564.9964209,1070.07874015 L 546.957766641,1070.07874015 L 546.957766641,1059.44881889 L 528.919112382,1059.44881889 L 528.919112382,1070.07874015 L 510.880458123,1070.07874015 L 510.880458123,1059.44881889 L 492.841803863,1059.44881889 L 492.841803863,1070.07874015 L 474.803149604,1070.07874015 L 474.803149604,1059.44881889 L 456.764495345,1059.44881889 L 456.764495345,1070.07874015 L 438.725841086,1070.07874015 L 438.725841086,1059.44881889 L 420.687186827,1059.44881889 L 420.687186827,1070.07874015 L 402.648532568,1070.07874015 L 402.648532568,1059.44881889 L 384.609878309,1059.44881889 L 384.609878309,1070.07874015 L 366.57122405,1070.07874015 L 366.57122405,1059.44881889 L 348.532569791,1059.44881889 L 348.532569791,1070.07874015 L 330.493915532,1070.07874015 L 330.493915532,1059.44881889 L 312.455261273,1059.44881889 L 312.455261273,1070.07874015 L 294.416607014,1070.07874015 L 294.416607014,1059.44881889 L 276.377952755,1059.44881889 L 276.377952755,1070.07874015 L 258.339298496,1070.07874015 L 258.339298496,1059.44881889 L 240.300644237,1059.44881889 L 240.300644237,1070.07874015 L 222.261989978,1070.07874015 L 222.261989978,1059.44881889 L 204.223335719,1059.44881889 L 204.223335719,1070.07874015 L 186.18468146,1070.07874015 L 186.18468146,1059.44881889 L 168.1460272,1059.44881889 L 168.1460272,1070.07874015 L 150.107372941,1070.07874015 L 150.107372941,1059.44881889 L 132.068718682,1059.44881889 L 132.068718682,1070.07874015 L 114.030064423,1070.07874015 L 114.030064423,1059.44881889 L 95.9914101643,1059.44881889 L 95.9914101643,1070.07874015 L 77.9527559052,1070.07874015 "
       style="stroke:#000000;fill:none;stroke-width:0.70866142;stroke-miterlimit:4;stroke-dasharray:none"
       inkscape:label="part" />
    <path
       id="path4198"
       d="M 77.9527559052,1070.07874015 L 77.9527559052,1052.04008589 L 88.582677165,1052.04008589 L 88.582677165,1034.00143164 L 77.9527559052,1034.00143164 L 77.9527559052,1015.96277738 L 88.582677165,1015.96277738 L 88.582677165,997.924123117 L 77.9527559052,997.924123117 L 77.9527559052,979.885468858 L 88.582677165,979.885468858 L 88.582677165,961.846814599 L 77.9527559052,961.846814599 L 77.9527559052,943.80816034 L 88.582677165,943.80816034 L 88.582677165,925.769506081 L 77.9527559052,925.769506081 L 77.9527559052,907.730851822 L 88.582677165,907.730851822 L 88.582677165,889.692197563 L 77.9527559052,889.692197563 L 77.9527559052,871.653543304 L 88.582677165,871.653543304 L 88.582677165,853.614889045 L 77.9527559052,853.614889045 L 77.9527559052,835.576234785 L 88.582677165,835.576234785 L 88.582677165,817.537580526 L 77.9527559052,817.537580526 L 77.9527559052,799.498926267 L 88.582677165,799.498926267 L 88.582677165,781.460272008 L 77.9527559052,781.460272008 L 77.9527559052,763.421617749 L 88.582677165,763.421617749 L 88.582677165,745.38296349 L 77.9527559052,745.38296349 L 77.9527559052,727.344309231 L 88.582677165,727.344309231 L 88.582677165,709.305654972 L 77.9527559052,709.305654972 L 77.9527559052,691.267000713 L 88.582677165,691.267000713 L 88.582677165,673.228346454 L 77.9527559052,673.228346454 L 77.9527559052,655.189692195 L 88.582677165,655.189692195 L 88.582677165,637.151037936 L 77.9527559052,637.151037936 L 77.9527559052,619.112383677 L 88.582677165,619.112383677 L 88.582677165,601.073729418 L 77.9527559052,601.073729418 L 77.9527559052,583.035075159 L 88.582677165,583.035075159 L 88.582677165,564.9964209 L 77.9527559052,564.9964209 L 77.9527559052,546.957766641 L 88.582677165,546.957766641 L 88.582677165,528.919112382 L 77.9527559052,528.919112382 L 77.9527559052,510.880458123 L 88.582677165,510.880458123 L 88.582677165,492.841803863 L 77.9527559052,492.841803863 L 77.9527559052,474.803149604 L 88.582677165,474.803149604 L 88.582677165,456.764495345 L 77.9527559052,456.764495345 L 77.9527559052,438.725841086 L 88.582677165,438.725841086 L 88.582677165,420.687186827 L 77.9527559052,420.687186827 L 77.9527559052,402.648532568 L 88.582677165,402.648532568 L 88.582677165,384.609878309 L 77.9527559052,384.609878309 L 77.9527559052,366.57122405 L 88.582677165,366.57122405 L 88.582677165,348.532569791 L 77.9527559052,348.532569791 L 77.9527559052,330.493915532 L 88.582677165,330.493915532 L 88.582677165,312.455261273 L 77.9527559052,312.455261273 L 77.9527559052,294.416607014 L 88.582677165,294.416607014 L 88.582677165,276.377952755 L 77.9527559052,276.377952755 L 77.9527559052,258.339298496 L 88.582677165,258.339298496 L 88.582677165,240.300644237 L 77.9527559052,240.300644237 L 77.9527559052,222.261989978 L 88.582677165,222.261989978 L 88.582677165,204.223335719 L 77.9527559052,204.223335719 L 77.9527559052,186.18468146 L 88.582677165,186.18468146 L 88.582677165,168.1460272 L 77.9527559052,168.1460272 L 77.9527559052,150.107372941 L 88.582677165,150.107372941 L 88.582677165,132.068718682 L 77.9527559052,132.068718682 L 77.9527559052,114.030064423 L 88.582677165,114.030064423 L 88.582677165,95.9914101643 L 77.9527559052,95.9914101643 L 77.9527559052,77.9527559052 "
       style="stroke:#000000;fill:none;stroke-width:0.70866142;stroke-miterlimit:4;stroke-dasharray:none"
       inkscape:label="part" />
    <path
       id="path4200"
       d="M 1084.2519685,88.582677165 L 1097.24409448,88.582677165 L 1097.24409448,77.9527559052 L 1120.86614173,77.9527559052 L 1120.86614173,88.582677165 L 1133.85826771,88.582677165 "
       style="stroke:#000000;fill:none;stroke-width:0.70866142;stroke-miterlimit:4;stroke-dasharray:none"
       inkscape:label="part" />
    <path
       id="path4204"
       d="M 1133.85826771,1059.44881889 L 1120.86614173,1059.44881889 L 1120.86614173,1070.07874015 L 1097.24409448,1070.07874015 L 1097.24409448,1059.44881889 L 1084.2519685,1059.44881889 "
       style="stroke:#000000;fill:none;stroke-width:0.70866142;stroke-miterlimit:4;stroke-dasharray:none"
       inkscape:label="part" />
    <path
       id="path4206"
       d="M 1084.2519685,1059.44881889 L 1084.2519685,1052.04008589 L 1073.62204724,1052.04008589 L 1073.62204724,1034.00143164 L 1084.2519685,1034.00143164 L 1084.2519685,1015.96277738 L 1073.62204724,1015.96277738 L 1073.62204724,997.924123117 L 1084.2519685,997.924123117 L 1084.2519685,979.885468858 L 1073.62204724,979.885468858 L 1073.62204724,961.846814599 L 1084.2519685,961.846814599 L 1084.2519685,943.80816034 L 1073.62204724,943.80816034 L 1073.62204724,925.769506081 L 1084.2519685,925.769506081 L 1084.2519685,907.730851822 L 1073.62204724,907.730851822 L 1073.62204724,889.692197563 L 1084.2519685,889.692197563 L 1084.2519685,871.653543304 L 1073.62204724,871.653543304 L 1073.62204724,853.614889045 L 1084.2519685,853.614889045 L 1084.2519685,835.576234785 L 1073.62204724,835.576234785 L 1073.62204724,817.537580526 L 1084.2519685,817.537580526 L 1084.2519685,799.498926267 L 1073.62204724,799.498926267 L 1073.62204724,781.460272008 L 1084.2519685,781.460272008 L 1084.2519685,763.421617749 L 1073.62204724,763.421617749 L 1073.62204724,745.38296349 L 1084.2519685,745.38296349 L 1084.2519685,727.344309231 L 1073.62204724,727.344309231 L 1073.62204724,709.305654972 L 1084.2519685,709.305654972 L 1084.2519685,691.267000713 L 1073.62204724,691.267000713 L 1073.62204724,673.228346454 L 1084.2519685,673.228346454 L 1084.2519685,655.189692195 L 1073.62204724,655.189692195 L 1073.62204724,637.151037936 L 1084.2519685,637.151037936 L 1084.2519685,619.112383677 L 1073.62204724,619.112383677 L 1073.62204724,601.073729418 L 1084.2519685,601.073729418 L 1084.2519685,583.035075159 L 1073.62204724,583.035075159 L 1073.62204724,564.9964209 L 1084.2519685,564.9964209 L 1084.2519685,546.957766641 L 1073.62204724,546.957766641 L 1073.62204724,528.919112382 L 1084.2519685,528.919112382 L 1084.2519685,510.880458123 L 1073.62204724,510.880458123 L 1073.62204724,492.841803863 L 1084.2519685,492.841803863 L 1084.2519685,474.803149604 L 1073.62204724,474.803149604 L 1073.62204724,456.764495345 L 1084.2519685,456.764495345 L 1084.2519685,438.725841086 L 1073.62204724,438.725841086 L 1073.62204724,420.687186827 L 1084.2519685,420.687186827 L 1084.2519685,402.648532568 L 1073.62204724,402.648532568 L 1073.62204724,384.609878309 L 1084.2519685,384.609878309 L 1084.2519685,366.57122405 L 1073.62204724,366.57122405 L 1073.62204724,348.532569791 L 1084.2519685,348.532569791 L 1084.2519685,330.493915532 L 1073.62204724,330.493915532 L 1073.62204724,312.455261273 L 1084.2519685,312.455261273 L 1084.2519685,294.416607014 L 1073.62204724,294.416607014 L 1073.62204724,276.377952755 L 1084.2519685,276.377952755 L 1084.2519685,258.339298496 L 1073.62204724,258.339298496 L 1073.62204724,240.300644237 L 1084.2519685,240.300644237 L 1084.2519685,222.261989978 L 1073.62204724,222.261989978 L 1073.62204724,204.223335719 L 1084.2519685,204.223335719 L 1084.2519685,186.18468146 L 1073.62204724,186.18468146 L 1073.62204724,168.1460272 L 1084.2519685,168.1460272 L 1084.2519685,150.107372941 L 1073.62204724,150.107372941 L 1073.62204724,132.068718682 L 1084.2519685,132.068718682 L 1084.2519685,114.030064423 L 1073.62204724,114.030064423 L 1073.62204724,95.9914101643 L 1084.2519685,95.9914101643 L 1084.2519685,88.582677165 "
       style="stroke:#000000;fill:none;stroke-width:0.70866142;stroke-miterlimit:4;stroke-dasharray:none"
       inkscape:label="part" />
    <path
       id="path4218"
       d="M 1070.07874015,14.1732283464 L 1070.07874015,27.1653543306 L 1059.44881889,27.1653543306 L 1059.44881889,50.7874015746 L 1070.07874015,50.7874015746 L 1070.07874015,63.7795275588 "
       style="stroke:#000000;fill:none;stroke-width:0.70866142;stroke-miterlimit:4;stroke-dasharray:none"
       inkscape:label="part" />
    <path
       id="path4220"
       d="M 1070.07874015,63.7795275588 L 1052.04008589,63.7795275588 L 1052.04008589,74.4094488186 L 1034.00143164,74.4094488186 L 1034.00143164,63.7795275588 L 1015.96277738,63.7795275588 L 1015.96277738,74.4094488186 L 997.924123117,74.4094488186 L 997.924123117,63.7795275588 L 979.885468858,63.7795275588 L 979.885468858,74.4094488186 L 961.846814599,74.4094488186 L 961.846814599,63.7795275588 L 943.80816034,63.7795275588 L 943.80816034,74.4094488186 L 925.769506081,74.4094488186 L 925.769506081,63.7795275588 L 907.730851822,63.7795275588 L 907.730851822,74.4094488186 L 889.692197563,74.4094488186 L 889.692197563,63.7795275588 L 871.653543304,63.7795275588 L 871.653543304,74.4094488186 L 853.614889045,74.4094488186 L 853.614889045,63.7795275588 L 835.576234785,63.7795275588 L 835.576234785,74.4094488186 L 817.537580526,74.4094488186 L 817.537580526,63.7795275588 L 799.498926267,63.7795275588 L 799.498926267,74.4094488186 L 781.460272008,74.4094488186 L 781.460272008,63.7795275588 L 763.421617749,63.7795275588 L 763.421617749,74.4094488186 L 745.38296349,74.4094488186 L 745.38296349,63.7795275588 L 727.344309231,63.7795275588 L 727.344309231,74.4094488186 L 709.305654972,74.4094488186 L 709.305654972,63.7795275588 L 691.267000713,63.7795275588 L 691.267000713,74.4094488186 L 673.228346454,74.4094488186 L 673.228346454,63.7795275588 L 655.189692195,63.7795275588 L 655.189692195,74.4094488186 L 637.151037936,74.4094488186 L 637.151037936,63.7795275588 L 619.112383677,63.7795275588 L 619.112383677,74.4094488186 L 601.073729418,74.4094488186 L 601.073729418,63.7795275588 L 583.035075159,63.7795275588 L 583.035075159,74.4094488186 L 564.9964209,74.4094488186 L 564.9964209,63.7795275588 L 546.957766641,63.7795275588 L 546.957766641,74.4094488186 L 528.919112382,74.4094488186 L 528.919112382,63.7795275588 L 510.880458123,63.7795275588 L 510.880458123,74.4094488186 L 492.841803863,74.4094488186 L 492.841803863,63.7795275588 L 474.803149604,63.7795275588 L 474.803149604,74.4094488186 L 456.764495345,74.4094488186 L 456.764495345,63.7795275588 L 438.725841086,63.7795275588 L 438.725841086,74.4094488186 L 420.687186827,74.4094488186 L 420.687186827,63.7795275588 L 402.648532568,63.7795275588 L 402.648532568,74.4094488186 L 384.609878309,74.4094488186 L 384.609878309,63.7795275588 L 366.57122405,63.7795275588 L 366.57122405,74.4094488186 L 348.532569791,74.4094488186 L 348.532569791,63.7795275588 L 330.493915532,63.7795275588 L 330.493915532,74.4094488186 L 312.455261273,74.4094488186 L 312.455261273,63.7795275588 L 294.416607014,63.7795275588 L 294.416607014,74.4094488186 L 276.377952755,74.4094488186 L 276.377952755,63.7795275588 L 258.339298496,63.7795275588 L 258.339298496,74.4094488186 L 240.300644237,74.4094488186 L 240.300644237,63.7795275588 L 222.261989978,63.7795275588 L 222.261989978,74.4094488186 L 204.223335719,74.4094488186 L 204.223335719,63.7795275588 L 186.18468146,63.7795275588 L 186.18468146,74.4094488186 L 168.1460272,74.4094488186 L 168.1460272,63.7795275588 L 150.107372941,63.7795275588 L 150.107372941,74.4094488186 L 132.068718682,74.4094488186 L 132.068718682,63.7795275588 L 114.030064423,63.7795275588 L 114.030064423,74.4094488186 L 95.9914101643,74.4094488186 L 95.9914101643,63.7795275588 L 77.9527559052,63.7795275588 "
       style="stroke:#000000;fill:none;stroke-width:0.70866142;stroke-miterlimit:4;stroke-dasharray:none"
       inkscape:label="part" />
    <path
       id="path4222"
       d="M 77.9527559052,63.7795275588 L 77.9527559052,50.7874015746 L 88.582677165,50.7874015746 L 88.582677165,27.1653543306 L 77.9527559052,27.1653543306 L 77.9527559052,14.1732283464 "
       style="stroke:#000000;fill:none;stroke-width:0.70866142;stroke-miterlimit:4;stroke-dasharray:none"
       inkscape:label="part" />
    <path
       style="fill:none;stroke:#000000;stroke-width:0.70866142;stroke-linecap:butt;stroke-linejoin:miter;stroke-opacity:1;stroke-miterlimit:4;stroke-dasharray:none"
       d="m 1133.75,1059.505 0,-28.125 0,-942.76782"
       id="path4264"
       inkscape:connector-curvature="0"
       transform="translate(0,2.5390623e-6)" />
    <path
       style="fill:none;stroke:#000000;stroke-width:0.70866144;stroke-linecap:butt;stroke-linejoin:miter;stroke-miterlimit:4;stroke-opacity:1;stroke-dasharray:none"
       d="m 14.520928,1059.4792 0,-28.125 0,-942.767823"
       id="path4264-1"
       inkscape:connector-curvature="0" />
    <path
       style="fill:none;stroke:#000000;stroke-width:0.70866144;stroke-linecap:butt;stroke-linejoin:miter;stroke-miterlimit:4;stroke-opacity:1;stroke-dasharray:none"
       d="m 77.834822,1133.5006 39.821428,0 952.41075,0 0,0"
       id="path4284"
       inkscape:connector-curvature="0" />
    <path
       style="fill:none;stroke:#000000;stroke-width:0.70866144;stroke-linecap:butt;stroke-linejoin:miter;stroke-miterlimit:4;stroke-opacity:1;stroke-dasharray:none"
       d="m 77.848808,14.520389 39.821432,0 952.41076,0 0,0"
       id="path4284-7"
       inkscape:connector-curvature="0" />
    <g
       id="g4334"
       transform="matrix(0,-0.20010608,-0.20006574,0,2345.1381,1070.6791)">
      <g
         clip-path="url(#clipPath4338)"
         id="g4336">
        <path
           id="path4342"
           style="fill:#ffffff;fill-opacity:1;fill-rule:evenodd;stroke:none"
           d="m 0,1028.92 4958.34,0 0,4959 -4958.34,0 0,-4959 z"
           inkscape:connector-curvature="0" />
      </g>
    </g>
    <g
       transform="matrix(0,-1.66755,-1.6672138,0,2345.1381,1070.6791)"
       id="g4344">
      <text
         id="text4346"
         transform="matrix(0,1,-1,0,85.7208,623.031)">
        <tspan
           id="tspan4348"
           y="0"
           x="0"
           style="font-size:22.44000053px;font-variant:normal;font-weight:normal;writing-mode:lr-tb;fill:#000000;fill-opacity:1;fill-rule:nonzero;stroke:none;font-family:Calibri;-inkscape-font-specification:Calibri">k</tspan>
        <tspan
           id="tspan4350"
           sodipodi:role="line"
           y="-408.12"
           x="-413.04001 -385.43912 -351.1156 -319.54568 -285.47446 -254.99353 -223.90538 -192.11414 -158.04291 -128.28203 -93.130898 -62.542034 -30.613728 -0.01274844"
           style="font-size:22.44000053px;font-variant:normal;font-weight:normal;writing-mode:lr-tb;fill:#000000;fill-opacity:1;fill-rule:nonzero;stroke:none;font-family:Calibri;-inkscape-font-specification:Calibri">twentydpthirty</tspan>
        <tspan
           id="tspan4352"
           sodipodi:role="line"
           y="-374.16"
           x="-412.67999 -383.28406 -349.45175 -317.40363 -286.44269 -253.31453 -220.55841 -189.60939 -158.05336 -127.45238 -96.484222 -62.412987 -32.172169 -0.84227037"
           style="font-size:22.44000053px;font-variant:normal;font-weight:normal;writing-mode:lr-tb;fill:#000000;fill-opacity:1;fill-rule:nonzero;stroke:none;font-family:Calibri;-inkscape-font-specification:Calibri">fortyfiftybten</tspan>
        <tspan
           id="tspan4354"
           sodipodi:role="line"
           y="-340.32001"
           x="-413.04001 -383.27914 -348.12799 -317.53912 -285.13083 -255.48994 -223.56004 -192.11014 -160.19891 -128.28664 -96.135384 -62.405373 -34.684502 -0.84098637"
           style="font-size:22.44000053px;font-variant:normal;font-weight:normal;writing-mode:lr-tb;fill:#000000;fill-opacity:1;fill-rule:nonzero;stroke:none;font-family:Calibri;-inkscape-font-specification:Calibri">thirteenonetwo</tspan>
        <tspan
           id="tspan4356"
           sodipodi:role="line"
           y="-306.60001"
           x="-412.67999 -383.28406 -351.49176 -317.54053 -285.13223 -255.49135 -223.56145 -192.11154 -159.72029 -125.76028 -93.124214 -63.735218 -32.167591 0.0023263199"
           style="font-size:22.44000053px;font-variant:normal;font-weight:normal;writing-mode:lr-tb;fill:#000000;fill-opacity:1;fill-rule:nonzero;stroke:none;font-family:Calibri;-inkscape-font-specification:Calibri">fourteenafivek</tspan>
        <tspan
           id="tspan4358"
           sodipodi:role="line"
           y="-272.76001"
           x="-412.67999 -379.92389 -348.97485 -317.41882 -286.9379 -255.48801 -223.91809 -190.56686 -156.84941 -127.22054 -94.342796 -64.221809 -32.171898 -0.84200114"
           style="font-size:22.44000053px;font-variant:normal;font-weight:normal;writing-mode:lr-tb;fill:#000000;fill-opacity:1;fill-rule:nonzero;stroke:none;font-family:Calibri;-inkscape-font-specification:Calibri">fifteensixteen</tspan>
        <tspan
           id="tspan4360"
           sodipodi:role="line"
           y="-239.28"
           x="-413.64001 -382.92255 -350.63263 -319.18503 -287.25513 -253.66386 -223.54288 -191.73297 -160.16306 -126.09182 -96.450935 -62.49971 -32.131435 -0.44153124"
           style="font-size:22.44000053px;font-variant:normal;font-weight:normal;writing-mode:lr-tb;fill:#000000;fill-opacity:1;fill-rule:nonzero;stroke:none;font-family:Calibri;-inkscape-font-specification:Calibri">seventeenthree</tspan>
        <tspan
           id="tspan4362"
           sodipodi:role="line"
           y="-205.08"
           x="-414.84 -379.91013 -350.88107 -319.55438 -285.12314 -255.48225 -223.55235 -192.10245 -159.83121 -124.90133 -96.112381 -63.702469 -32.134842 -0.80494559"
           style="font-size:22.44000053px;font-variant:normal;font-weight:normal;writing-mode:lr-tb;fill:#000000;fill-opacity:1;fill-rule:nonzero;stroke:none;font-family:Calibri;-inkscape-font-specification:Calibri">eighteeneleven</tspan>
        <tspan
           id="tspan4364"
           sodipodi:role="line"
           y="-171"
           x="-415.20001 -379.9288 -351.49979 -319.22858 -285.13861 -255.49773 -223.56783 -192.11792 -158.04669 -130.4458 -96.122299 -61.192417 -31.683369 -0.47574589"
           style="font-size:22.44000053px;font-variant:normal;font-weight:normal;writing-mode:lr-tb;fill:#000000;fill-opacity:1;fill-rule:nonzero;stroke:none;font-family:Calibri;-inkscape-font-specification:Calibri">nineteentwelve</tspan>
        <tspan
           id="tspan4366"
           sodipodi:role="line"
           y="-136.8"
           x="-414.35999 -386.27237 -348.10849 -319.55945 -287.28821 -253.69696 -223.57597 -190.56606 -158.04871 -128.28783 -96.016602 -63.016697 -30.379286 -0.85841173"
           style="font-size:22.44000053px;font-variant:normal;font-weight:normal;writing-mode:lr-tb;fill:#000000;fill-opacity:1;fill-rule:nonzero;stroke:none;font-family:Calibri;-inkscape-font-specification:Calibri">vminutestpasto</tspan>
        <tspan
           id="tspan4368"
           sodipodi:role="line"
           y="-102.6"
           x="-413.04001 -385.43912 -351.47562 -319.56332 -286.9321 -252.48221 -223.33331 -192.12666 -158.05542 -127.93444 -96.484528 -63.013294 -29.175795 0.21319991"
           style="font-size:22.44000053px;font-variant:normal;font-weight:normal;writing-mode:lr-tb;fill:#000000;fill-opacity:1;fill-rule:nonzero;stroke:none;font-family:Calibri;-inkscape-font-specification:Calibri">twoneightensix</tspan>
        <tspan
           id="tspan4370"
           sodipodi:role="line"
           y="-68.400002"
           x="-413.04001 -383.27914 -349.44788 -319.19965 -286.90973 -255.81984 -220.54865 -192.11963 -159.8484 -124.91853 -96.129578 -63.719662 -32.152035 -0.82213682"
           style="font-size:22.44000053px;font-variant:normal;font-weight:normal;writing-mode:lr-tb;fill:#000000;fill-opacity:1;fill-rule:nonzero;stroke:none;font-family:Calibri;-inkscape-font-specification:Calibri">threenineleven</tspan>
        <tspan
           id="tspan4372"
           sodipodi:role="line"
           y="-34.200001"
           x="-412.67999 -383.28406 -351.49176 -317.54053 -284.77228 -252.49617 -223.10718 -191.77954 -158.04953 -130.44864 -96.125137 -61.195255 -31.686207 -0.47858533"
           style="font-size:22.44000053px;font-variant:normal;font-weight:normal;writing-mode:lr-tb;fill:#000000;fill-opacity:1;fill-rule:nonzero;stroke:none;font-family:Calibri;-inkscape-font-specification:Calibri">fourfivetwelve</tspan>
        <tspan
           id="tspan4374"
           sodipodi:role="line"
           y="-5.6843419e-014"
           x="-413.64001 -382.92255 -350.63263 -319.18503 -287.25513 -255.82388 -220.55269 -192.12367 -160.21245 -127.10016 -93.136772 -64.587708 -31.355413"
           style="font-size:22.44000053px;font-variant:normal;font-weight:normal;writing-mode:lr-tb;fill:#000000;fill-opacity:1;fill-rule:nonzero;stroke:none;font-family:Calibri;-inkscape-font-specification:Calibri">sevendlpocloc</tspan>
        <tspan
           id="tspan4376"
           y="-3.48"
           x="-145.92"
           style="font-size:22.44000053px;font-variant:normal;font-weight:normal;writing-mode:lr-tb;fill:#000000;fill-opacity:1;fill-rule:nonzero;stroke:none;font-family:Calibri;-inkscape-font-specification:Calibri">’</tspan>
      </text>
    </g>
    <path
       id="path4388"
       style="fill:#ff0000;fill-opacity:1;fill-rule:nonzero;stroke:none"
       d="m 2109.4767,114.104 0,-0.2001 -0.2001,-1.00053 0,0 -0.4001,-1.00054 c 0,0 0,0 0,-0.2001 l -0.4002,-0.80043 0,0 -0.8002,-0.80042 0,0 -0.8003,-0.80042 0,0 -0.8003,-0.40022 c -0.2,0 -0.2,0 -0.2,0 l -1.0003,-0.40021 0,0 -1.0004,-0.2001 -0.2,0 -1.0004,0.2001 0,0 -1.0003,0.40021 -0.2001,0 -0.8002,0.40022 0,0 -0.8003,0.80042 -0.2001,0 -0.6002,0.80042 0,0 -0.4001,0.80043 c 0,0.2001 -0.2001,0.2001 -0.2001,0.2001 l -0.2,1.00054 0,0 -0.2001,1.00053 0,0.2001 0.2001,1.00053 0,0 0.2,1.00053 0.2001,0.20011 0.4001,0.80042 0,0 0.6002,0.80043 0.2001,0.2001 0.8003,0.60032 0,0 0.8002,0.40021 0.2001,0.20011 1.0003,0.20011 0,0 1.0004,0.2001 0.2,0 1.0004,-0.2001 0,0 1.0003,-0.20011 c 0,0 0,-0.20011 0.2,-0.20011 l 0.8003,-0.40021 0,0 0.8003,-0.60032 0,-0.2001 0.8002,-0.80043 0,0 0.4002,-0.80042 0,-0.20011 0.4001,-1.00053 0,0 0.2001,-1.00053 z m -0.8003,1.00053 0,-0.2001 -0.4001,1.00053 0.2,0 -0.6002,1.00053 0,-0.20011 -0.6002,0.80042 0,0 -0.8002,0.60032 0.2,0 -1.0003,0.60032 0,0 -1.0003,0.20011 0.2001,0 -1.2004,0.2001 0.2,0 -1.2004,-0.2001 0.2001,0 -1.0003,-0.20011 0,0 -1.0004,-0.60032 0.2001,0 -0.8003,-0.60032 0,0 -0.6002,-0.80042 0,0.20011 -0.6002,-1.00053 0,0 -0.2,-1.00053 0,0.2001 -0.2001,-1.20063 0,0.2001 0.2001,-1.20063 0,0.2001 0.2,-1.00053 0,0 0.6002,-1.00053 0,0.20011 0.6002,-0.80043 0,0 0.8003,-0.60032 -0.2001,0 1.0004,-0.60031 0,0.2001 1.0003,-0.40021 -0.2001,0 1.2004,0 -0.2,0 1.2004,0 -0.2001,0 1.0003,0.40021 0,-0.2001 1.0003,0.60031 -0.2,0 0.8002,0.60032 0,0 0.6002,0.80043 0,-0.20011 0.6002,1.00053 -0.2,0 0.4001,1.00053 0,-0.2001 0,1.20063 0,-0.2001"
       inkscape:connector-curvature="0" />
    <path
       id="path4390"
       style="fill:#ff0000;fill-opacity:1;fill-rule:nonzero;stroke:none"
       d="m 1188.374,114.104 0,-0.2001 -0.2001,-1.00053 0,0 -0.2,-1.00054 c -0.2001,0 -0.2001,0 -0.2001,-0.2001 l -0.4001,-0.80043 0,0 -0.6002,-0.80042 c -0.2001,0 -0.2001,0 -0.2001,0 l -0.8003,-0.80042 0,0 -0.8002,-0.40022 -0.2001,0 -1.0003,-0.40021 0,0 -1.0003,-0.2001 c 0,0 0,0 -0.2001,0 l -1.0003,0.2001 0,0 -1.0004,0.40021 c 0,0 0,0 -0.2,0 l -0.8003,0.40022 0,0 -0.8003,0.80042 0,0 -0.8002,0.80042 0,0 -0.4002,0.80043 c 0,0.2001 0,0.2001 0,0.2001 l -0.4001,1.00054 0,0 -0.2001,1.00053 0,0.2001 0.2001,1.00053 0,0 0.4001,1.00053 0,0.20011 0.4002,0.80042 0,0 0.8002,0.80043 0,0.2001 0.8003,0.60032 0,0 0.8003,0.40021 c 0.2,0 0.2,0.20011 0.2,0.20011 l 1.0004,0.20011 0,0 1.0003,0.2001 c 0.2001,0 0.2001,0 0.2001,0 l 1.0003,-0.2001 0,0 1.0003,-0.20011 0.2001,-0.20011 0.8002,-0.40021 0,0 0.8003,-0.60032 c 0,0 0,-0.2001 0.2001,-0.2001 l 0.6002,-0.80043 0,0 0.4001,-0.80042 c 0,0 0,-0.20011 0.2001,-0.20011 l 0.2,-1.00053 0,0 0.2001,-1.00053 z m -0.8003,1.00053 0,-0.2001 -0.2,1.00053 0,0 -0.6002,1.00053 0,-0.20011 -0.6002,0.80042 0,0 -0.8003,0.60032 0.2001,0 -1.0004,0.60032 0,0 -1.0003,0.20011 0.2001,0 -1.2004,0.2001 0.2001,0 -1.2004,-0.2001 0.2,0 -1.0003,-0.20011 0,0 -1.0003,-0.60032 0.2,0 -0.8002,-0.60032 0,0 -0.6002,-0.80042 0,0.20011 -0.6002,-1.00053 0.2,0 -0.4001,-1.00053 0,0.2001 0,-1.20063 0,0.2001 0,-1.20063 0,0.2001 0.4001,-1.00053 -0.2,0 0.6002,-1.00053 0,0.20011 0.6002,-0.80043 0,0 0.8002,-0.60032 -0.2,0 1.0003,-0.60031 0,0.2001 1.0003,-0.40021 -0.2,0 1.2004,0 -0.2001,0 1.2004,0 -0.2001,0 1.0003,0.40021 0,-0.2001 1.0004,0.60031 -0.2001,0 0.8003,0.60032 0,0 0.6002,0.80043 0,-0.20011 0.6002,1.00053 0,0 0.2,1.00053 0,-0.2001 0.2001,1.20063 0,-0.2001"
       inkscape:connector-curvature="0" />
    <path
       id="path4392"
       style="fill:#ff0000;fill-opacity:1;fill-rule:nonzero;stroke:none"
       d="m 2109.4767,1035.3924 c 0,-0.2001 0,-0.2001 0,-0.2001 l -0.2001,-1.0005 0,0 -0.4001,-1.0006 0,-0.2001 -0.4002,-0.8004 0,0 -0.8002,-0.8004 c 0,0 0,0 0,-0.2001 l -0.8003,-0.6004 0,0 -0.8003,-0.4002 c -0.2,0 -0.2,0 -0.2,-0.2001 l -1.0003,-0.2001 0,0 -1.0004,-0.2001 -0.2,0 -1.0004,0.2001 0,0 -1.0003,0.2001 c 0,0.2001 -0.2001,0.2001 -0.2001,0.2001 l -0.8002,0.4002 0,0 -0.8003,0.6004 c 0,0.2001 -0.2001,0.2001 -0.2001,0.2001 l -0.6002,0.8004 0,0 -0.4001,0.8004 -0.2001,0.2001 -0.2,1.0006 0,0 -0.2001,1.0005 c 0,0 0,0 0,0.2001 l 0.2001,1.0005 0,0 0.2,1.0006 c 0,0 0.2001,0 0.2001,0.2001 l 0.4001,0.8004 0,0 0.6002,0.8004 0.2001,0 0.8003,0.8004 0,0 0.8002,0.4002 0.2001,0 1.0003,0.4003 0,0 1.0004,0.2001 0.2,0 1.0004,-0.2001 0,0 1.0003,-0.4003 c 0,0 0,0 0.2,0 l 0.8003,-0.4002 0,0 0.8003,-0.8004 0,0 0.8002,-0.8004 0,0 0.4002,-0.8004 c 0,-0.2001 0,-0.2001 0,-0.2001 l 0.4001,-1.0006 0,0 0.2001,-1.0005 z m -0.8003,1.0005 0,-0.2001 -0.4001,1.0005 0.2,0 -0.6002,1.0006 0,-0.2001 -0.6002,0.8004 0,0 -0.8002,0.6003 0.2,0 -1.0003,0.6003 0,-0.2001 -1.0003,0.4002 0.2001,0 -1.2004,0 0.2,0 -1.2004,0 0.2001,0 -1.0003,-0.4002 0,0.2001 -1.0004,-0.6003 0.2001,0 -0.8003,-0.6003 0,0 -0.6002,-0.8004 0,0.2001 -0.6002,-1.0006 0,0 -0.2,-1.0005 0,0.2001 -0.2001,-1.2006 0,0.2001 0.2001,-1.2006 0,0.2001 0.2,-1.0006 0,0 0.6002,-1.0005 0,0.2001 0.6002,-0.8004 0,0 0.8003,-0.6003 -0.2001,0 1.0004,-0.6004 0,0 1.0003,-0.2001 -0.2001,0 1.2004,-0.2001 -0.2,0 1.2004,0.2001 -0.2001,0 1.0003,0.2001 0,0 1.0003,0.6004 -0.2,0 0.8002,0.6003 0,0 0.6002,0.8004 0,-0.2001 0.6002,1.0005 -0.2,0 0.4001,1.0006 0,-0.2001 0,1.2006 0,-0.2001"
       inkscape:connector-curvature="0" />
    <path
       id="path4394"
       style="fill:#ff0000;fill-opacity:1;fill-rule:nonzero;stroke:none"
       d="m 1188.374,1035.3924 c 0,-0.2001 0,-0.2001 0,-0.2001 l -0.2001,-1.0005 0,0 -0.2,-1.0006 c -0.2001,0 -0.2001,-0.2001 -0.2001,-0.2001 l -0.4001,-0.8004 0,0 -0.6002,-0.8004 c -0.2001,0 -0.2001,0 -0.2001,-0.2001 l -0.8003,-0.6004 0,0 -0.8002,-0.4002 c 0,0 -0.2001,0 -0.2001,-0.2001 l -1.0003,-0.2001 0,0 -1.0003,-0.2001 c 0,0 0,0 -0.2001,0 l -1.0003,0.2001 0,0 -1.0004,0.2001 c 0,0.2001 0,0.2001 -0.2,0.2001 l -0.8003,0.4002 0,0 -0.8003,0.6004 c 0,0.2001 0,0.2001 0,0.2001 l -0.8002,0.8004 0,0 -0.4002,0.8004 0,0.2001 -0.4001,1.0006 0,0 -0.2001,1.0005 c 0,0 0,0 0,0.2001 l 0.2001,1.0005 0,0 0.4001,1.0006 c 0,0 0,0 0,0.2001 l 0.4002,0.8004 0,0 0.8002,0.8004 0,0 0.8003,0.8004 0,0 0.8003,0.4002 c 0.2,0 0.2,0 0.2,0 l 1.0004,0.4003 0,0 1.0003,0.2001 c 0.2001,0 0.2001,0 0.2001,0 l 1.0003,-0.2001 0,0 1.0003,-0.4003 0.2001,0 0.8002,-0.4002 0,0 0.8003,-0.8004 c 0,0 0,0 0.2001,0 l 0.6002,-0.8004 0,0 0.4001,-0.8004 c 0,-0.2001 0,-0.2001 0.2001,-0.2001 l 0.2,-1.0006 0,0 0.2001,-1.0005 z m -0.8003,1.0005 0,-0.2001 -0.2,1.0005 0,0 -0.6002,1.0006 0,-0.2001 -0.6002,0.8004 0,0 -0.8003,0.6003 0.2001,0 -1.0004,0.6003 0,-0.2001 -1.0003,0.4002 0.2001,0 -1.2004,0 0.2001,0 -1.2004,0 0.2,0 -1.0003,-0.4002 0,0.2001 -1.0003,-0.6003 0.2,0 -0.8002,-0.6003 0,0 -0.6002,-0.8004 0,0.2001 -0.6002,-1.0006 0.2,0 -0.4001,-1.0005 0,0.2001 0,-1.2006 0,0.2001 0,-1.2006 0,0.2001 0.4001,-1.0006 -0.2,0 0.6002,-1.0005 0,0.2001 0.6002,-0.8004 0,0 0.8002,-0.6003 -0.2,0 1.0003,-0.6004 0,0 1.0003,-0.2001 -0.2,0 1.2004,-0.2001 -0.2001,0 1.2004,0.2001 -0.2001,0 1.0003,0.2001 0,0 1.0004,0.6004 -0.2001,0 0.8003,0.6003 0,0 0.6002,0.8004 0,-0.2001 0.6002,1.0005 0,0 0.2,1.0006 0,-0.2001 0.2001,1.2006 0,-0.2001"
       inkscape:connector-curvature="0" />
    <g
       id="g4396"
       transform="matrix(0,-0.20010608,-0.20006574,0,2345.1381,1070.6791)">
      <g
         clip-path="url(#clipPath4400)"
         id="g4398">
        <path
           id="path4404"
           style="fill:#000000;fill-opacity:1;fill-rule:nonzero;stroke:none"
           d="m 4958.34,1026.92 c 1,0 2,1 2,2 l 0,4958 c 0,2 -1,3 -2,3 l -4958.000156,0 c -2.000004,0 -3.000004,-1 -3.000004,-3 l 0,-4958 c 0,-1 1,-2 3.000004,-2 l 4958.000156,0 z m -4958.000156,5 1.999996,-3 0,4958 -1.999996,-2 4958.000156,0 -3,2 0,-4958 3,3"
           inkscape:connector-curvature="0" />
      </g>
    </g>
    <path
       id="path4380-8"
       style="fill:#ff0000;fill-opacity:1;fill-rule:nonzero;stroke:none"
       d="m 934.24369,188.63906 c 0,-0.2001 0,-0.2001 0,-0.2001 l 0,-1.00053 0,0 -0.40013,-1.00053 0,-0.20011 -0.40013,-0.80042 c 0,0 0,0 -0.20007,0 l -0.6002,-0.80043 c 0,0 0,0 0,-0.2001 l -0.80026,-0.60032 0,0 -1.00033,-0.40021 0,-0.20011 -1.00033,-0.20011 0,0 -1.20039,-0.2001 0,0 -1.00033,0.2001 -0.20007,0 -1.00032,0.20011 0,0.20011 -0.80027,0.40021 -0.20006,0 -0.80027,0.60032 c 0,0.2001 0,0.2001 0,0.2001 l -0.60019,0.80043 0,0 -0.6002,0.80042 0,0.20011 -0.20007,1.00053 0,0 -0.20006,1.00053 c 0,0 0,0 0,0.2001 l 0.20006,1.00053 0,0 0.20007,1.00053 c 0,0 0,0 0,0.20011 l 0.6002,0.80042 0,0 0.60019,0.80043 0,0 0.80027,0.80042 0.20006,0 0.80027,0.40022 0,0 1.00032,0.40021 c 0.20007,0 0.20007,0 0.20007,0 l 1.00033,0.2001 0,0 1.20039,-0.2001 0,0 1.00033,-0.40021 0,0 1.00033,-0.40022 0,0 0.80026,-0.80042 0,0 0.6002,-0.80043 c 0.20007,0 0.20007,0 0.20007,0 l 0.40013,-0.80042 c 0,-0.20011 0,-0.20011 0,-0.20011 l 0.40013,-1.00053 0,0 0,-1.00053 z m -0.6002,1.00053 0,-0.2001 -0.40013,1.00053 0,0 -0.40013,1.00053 0,-0.20011 -0.6002,0.80043 0,0 -0.80026,0.60031 0,0 -0.80026,0.60032 0,-0.2001 -1.00033,0.40021 -2.00066,0 -1.00033,-0.40021 0.20007,0.2001 -1.00033,-0.60032 0,0 -0.80026,-0.60031 0.20006,0 -0.80026,-0.80043 0.20006,0.20011 -0.60019,-1.00053 0,0 -0.20007,-1.00053 0,0.2001 -0.20006,-1.20063 0,0.2001 0.20006,-1.20063 0,0.2001 0.20007,-1.00053 0,0 0.60019,-1.00053 -0.20006,0.20011 0.80026,-0.80043 -0.20006,0 0.80026,-0.60031 0,0 1.00033,-0.60032 -0.20007,0 1.00033,-0.20011 0,0 1.00033,-0.2001 0,0 1.00033,0.2001 0,0 1.00033,0.20011 0,0 0.80026,0.60032 0,0 0.80026,0.60031 0,0 0.6002,0.80043 0,-0.20011 0.40013,1.00053 0,0 0.40013,1.00053 0,-0.2001 0,1.20063 0,-0.2001"
       inkscape:connector-curvature="0" />
    <path
       id="path4382-1"
       style="fill:#ff0000;fill-opacity:1;fill-rule:nonzero;stroke:none"
       d="m 225.8109,188.63906 c 0,-0.2001 0,-0.2001 0,-0.2001 l -0.20006,-1.00053 0,0 -0.20007,-1.00053 0,-0.20011 -0.60019,-0.80042 0,0 -0.6002,-0.80043 c 0,0 0,0 0,-0.2001 l -0.80026,-0.60032 -0.20007,0 -0.80026,-0.40021 0,-0.20011 -1.00033,-0.20011 c -0.20007,0 -0.20007,0 -0.20007,0 l -1.00033,-0.2001 0,0 -1.20039,0.2001 0,0 -1.00033,0.20011 0,0.20011 -1.00033,0.40021 0,0 -0.80026,0.60032 c 0,0.2001 0,0.2001 0,0.2001 l -0.6002,0.80043 -0.20006,0 -0.40014,0.80042 0,0.20011 -0.40013,1.00053 0,0 0,1.00053 c 0,0 0,0 0,0.2001 l 0,1.00053 0,0 0.40013,1.00053 c 0,0 0,0 0,0.20011 l 0.40014,0.80042 0.20006,0 0.6002,0.80043 0,0 0.80026,0.80042 0,0 1.00033,0.40022 0,0 1.00033,0.40021 0,0 1.20039,0.2001 0,0 1.00033,-0.2001 c 0,0 0,0 0.20007,0 l 1.00033,-0.40021 0,0 0.80026,-0.40022 0.20007,0 0.80026,-0.80042 0,0 0.6002,-0.80043 0,0 0.60019,-0.80042 c 0,-0.20011 0,-0.20011 0,-0.20011 l 0.20007,-1.00053 0,0 0.20006,-1.00053 z m -0.80026,1.00053 0,-0.2001 -0.20006,1.00053 0,0 -0.6002,1.00053 0.20006,-0.20011 -0.80026,0.80043 0.20007,0 -0.80027,0.60031 0,0 -1.00032,0.60032 0.20006,-0.2001 -1.00033,0.40021 -2.00065,0 -1.00033,-0.40021 0,0.2001 -0.80027,-0.60032 0,0 -0.80026,-0.60031 0,0 -0.6002,-0.80043 0,0.20011 -0.40013,-1.00053 0,0 -0.40013,-1.00053 0,0.2001 0,-1.20063 0,0.2001 0,-1.20063 0,0.2001 0.40013,-1.00053 0,0 0.40013,-1.00053 0,0.20011 0.6002,-0.80043 0,0 0.80026,-0.60031 0,0 0.80027,-0.60032 0,0 1.00033,-0.20011 0,0 1.00032,-0.2001 0,0 1.00033,0.2001 0,0 1.00033,0.20011 -0.20006,0 1.00032,0.60032 0,0 0.80027,0.60031 -0.20007,0 0.80026,0.80043 -0.20006,-0.20011 0.6002,1.00053 0,0 0.20006,1.00053 0,-0.2001 0.20007,1.20063 0,-0.2001"
       inkscape:connector-curvature="0" />
    <path
       id="path4384-1"
       style="fill:#ff0000;fill-opacity:1;fill-rule:nonzero;stroke:none"
       d="m 934.24369,961.04853 c 0,0 0,0 0,-0.2001 l 0,-1.00053 0,0 -0.40013,-1.00053 0,0 -0.40013,-1.00054 c 0,0 0,0 -0.20007,0 l -0.6002,-0.80042 0,0 -0.80026,-0.80042 0,0 -1.00033,-0.40022 0,0 -1.00033,-0.40021 0,0 -1.20039,-0.2001 0,0 -1.00033,0.2001 -0.20007,0 -1.00032,0.40021 0,0 -0.80027,0.40022 -0.20006,0 -0.80027,0.80042 0,0 -0.60019,0.80042 0,0 -0.6002,1.00054 0,0 -0.20007,1.00053 0,0 -0.20006,1.00053 c 0,0.2001 0,0.2001 0,0.2001 l 0.20006,1.00053 0,0 0.20007,1.00053 c 0,0.20011 0,0.20011 0,0.20011 l 0.6002,0.80042 0,0 0.60019,0.80043 0,0.2001 0.80027,0.60032 0.20006,0 0.80027,0.40021 0,0.20011 1.00032,0.20011 c 0.20007,0 0.20007,0 0.20007,0 l 1.00033,0.2001 0,0 1.20039,-0.2001 0,0 1.00033,-0.20011 0,-0.20011 1.00033,-0.40021 0,0 0.80026,-0.60032 0,-0.2001 0.6002,-0.80043 c 0.20007,0 0.20007,0 0.20007,0 l 0.40013,-0.80042 c 0,0 0,0 0,-0.20011 l 0.40013,-1.00053 0,0 0,-1.00053 z m -0.6002,1.00053 0,-0.2001 -0.40013,1.00053 0,0 -0.40013,1.00053 0,-0.20011 -0.6002,0.80043 0,0 -0.80026,0.60031 0,0 -0.80026,0.60032 0,0 -1.00033,0.20011 0,0 -1.00033,0.2001 0,0 -1.00033,-0.2001 0,0 -1.00033,-0.20011 0.20007,0 -1.00033,-0.60032 0,0 -0.80026,-0.60031 0.20006,0 -0.80026,-0.80043 0.20006,0.20011 -0.60019,-1.00053 0,0 -0.20007,-1.00053 0,0.2001 -0.20006,-1.20063 0,0.2001 0.20006,-1.20063 0,0.2001 0.20007,-1.00053 0,0 0.60019,-0.80042 -0.20006,0 0.80026,-0.80043 -0.20006,0 0.80026,-0.60032 0,0 1.00033,-0.40021 -0.20007,0 1.00033,-0.40021 2.00066,0 1.00033,0.40021 0,0 0.80026,0.40021 0,0 0.80026,0.60032 0,0 0.6002,0.80043 0,0 0.40013,0.80042 0,0 0.40013,1.00053 0,-0.2001 0,1.20063 0,-0.2001"
       inkscape:connector-curvature="0" />
    <path
       id="path4386-5"
       style="fill:#ff0000;fill-opacity:1;fill-rule:nonzero;stroke:none"
       d="m 225.8109,961.04853 c 0,0 0,0 0,-0.2001 l -0.20006,-1.00053 0,0 -0.20007,-1.00053 0,0 -0.60019,-1.00054 0,0 -0.6002,-0.80042 0,0 -0.80026,-0.80042 -0.20007,0 -0.80026,-0.40022 0,0 -1.00033,-0.40021 c -0.20007,0 -0.20007,0 -0.20007,0 l -1.00033,-0.2001 0,0 -1.20039,0.2001 0,0 -1.00033,0.40021 0,0 -1.00033,0.40022 0,0 -0.80026,0.80042 0,0 -0.6002,0.80042 -0.20006,0 -0.40014,1.00054 0,0 -0.40013,1.00053 0,0 0,1.00053 c 0,0.2001 0,0.2001 0,0.2001 l 0,1.00053 0,0 0.40013,1.00053 c 0,0.20011 0,0.20011 0,0.20011 l 0.40014,0.80042 0.20006,0 0.6002,0.80043 0,0.2001 0.80026,0.60032 0,0 1.00033,0.40021 0,0.20011 1.00033,0.20011 0,0 1.20039,0.2001 0,0 1.00033,-0.2001 c 0,0 0,0 0.20007,0 l 1.00033,-0.20011 0,-0.20011 0.80026,-0.40021 0.20007,0 0.80026,-0.60032 0,-0.2001 0.6002,-0.80043 0,0 0.60019,-0.80042 c 0,0 0,0 0,-0.20011 l 0.20007,-1.00053 0,0 0.20006,-1.00053 z m -0.80026,1.00053 0,-0.2001 -0.20006,1.00053 0,0 -0.6002,1.00053 0.20006,-0.20011 -0.80026,0.80043 0.20007,0 -0.80027,0.60031 0,0 -1.00032,0.60032 0.20006,0 -1.00033,0.20011 0,0 -1.00033,0.2001 0,0 -1.00032,-0.2001 0,0 -1.00033,-0.20011 0,0 -0.80027,-0.60032 0,0 -0.80026,-0.60031 0,0 -0.6002,-0.80043 0,0.20011 -0.40013,-1.00053 0,0 -0.40013,-1.00053 0,0.2001 0,-1.20063 0,0.2001 0,-1.20063 0,0.2001 0.40013,-1.00053 0,0 0.40013,-0.80042 0,0 0.6002,-0.80043 0,0 0.80026,-0.60032 0,0 0.80027,-0.40021 0,0 1.00033,-0.40021 2.00065,0 1.00033,0.40021 -0.20006,0 1.00032,0.40021 0,0 0.80027,0.60032 -0.20007,0 0.80026,0.80043 -0.20006,0 0.6002,0.80042 0,0 0.20006,1.00053 0,-0.2001 0.20007,1.20063 0,-0.2001"
       inkscape:connector-curvature="0" />
    <path
       id="path4388-2"
       style="fill:#ff0000;fill-opacity:1;fill-rule:nonzero;stroke:none"
       d="m 1040.6787,114.1996 0,-0.2001 -0.2001,-1.00053 0,0 -0.4001,-1.00054 c 0,0 0,0 0,-0.2001 l -0.4002,-0.80043 0,0 -0.8002,-0.80042 0,0 -0.8003,-0.80042 0,0 -0.8003,-0.40022 c -0.2,0 -0.2,0 -0.2,0 l -1.0003,-0.40021 0,0 -1.0004,-0.2001 -0.2,0 -1.0004,0.2001 0,0 -1.0003,0.40021 -0.2001,0 -0.8002,0.40022 0,0 -0.8003,0.80042 -0.2001,0 -0.6002,0.80042 0,0 -0.4001,0.80043 c 0,0.2001 -0.2001,0.2001 -0.2001,0.2001 l -0.2,1.00054 0,0 -0.2001,1.00053 0,0.2001 0.2001,1.00053 0,0 0.2,1.00053 0.2001,0.20011 0.4001,0.80042 0,0 0.6002,0.80043 0.2001,0.2001 0.8003,0.60032 0,0 0.8002,0.40021 0.2001,0.20011 1.0003,0.20011 0,0 1.0004,0.2001 0.2,0 1.0004,-0.2001 0,0 1.0003,-0.20011 c 0,0 0,-0.20011 0.2,-0.20011 l 0.8003,-0.40021 0,0 0.8003,-0.60032 0,-0.2001 0.8002,-0.80043 0,0 0.4002,-0.80042 0,-0.20011 0.4001,-1.00053 0,0 0.2001,-1.00053 z m -0.8003,1.00053 0,-0.2001 -0.4001,1.00053 0.2,0 -0.6002,1.00053 0,-0.20011 -0.6002,0.80042 0,0 -0.8002,0.60032 0.2,0 -1.0003,0.60032 0,0 -1.0003,0.20011 0.2001,0 -1.2004,0.2001 0.2,0 -1.2004,-0.2001 0.2001,0 -1.0003,-0.20011 0,0 -1.0004,-0.60032 0.2001,0 -0.8003,-0.60032 0,0 -0.6002,-0.80042 0,0.20011 -0.6002,-1.00053 0,0 -0.2,-1.00053 0,0.2001 -0.2001,-1.20063 0,0.2001 0.2001,-1.20063 0,0.2001 0.2,-1.00053 0,0 0.6002,-1.00053 0,0.20011 0.6002,-0.80043 0,0 0.8003,-0.60032 -0.2001,0 1.0004,-0.60031 0,0.2001 1.0003,-0.40021 -0.2001,0 1.2004,0 -0.2,0 1.2004,0 -0.2001,0 1.0003,0.40021 0,-0.2001 1.0003,0.60031 -0.2,0 0.8002,0.60032 0,0 0.6002,0.80043 0,-0.20011 0.6002,1.00053 -0.2,0 0.4001,1.00053 0,-0.2001 0,1.20063 0,-0.2001"
       inkscape:connector-curvature="0" />
    <path
       id="path4390-9"
       style="fill:#ff0000;fill-opacity:1;fill-rule:nonzero;stroke:none"
       d="m 119.576,114.1996 0,-0.2001 -0.20007,-1.00053 0,0 -0.20006,-1.00054 c -0.20007,0 -0.20007,0 -0.20007,-0.2001 l -0.40013,-0.80043 0,0 -0.6002,-0.80042 c -0.20007,0 -0.20007,0 -0.20007,0 l -0.80026,-0.80042 0,0 -0.80026,-0.40022 -0.20007,0 -1.00033,-0.40021 0,0 -1.00032,-0.2001 c 0,0 0,0 -0.20007,0 l -1.00033,0.2001 0,0 -1.00033,0.40021 c 0,0 0,0 -0.20006,0 l -0.80027,0.40022 0,0 -0.80026,0.80042 0,0 -0.80026,0.80042 0,0 -0.40013,0.80043 c 0,0.2001 0,0.2001 0,0.2001 l -0.40013,1.00054 0,0 -0.20007,1.00053 0,0.2001 0.20007,1.00053 0,0 0.40013,1.00053 0,0.20011 0.40013,0.80042 0,0 0.80026,0.80043 0,0.2001 0.80026,0.60032 0,0 0.80027,0.40021 c 0.20006,0 0.20006,0.20011 0.20006,0.20011 l 1.00033,0.20011 0,0 1.00033,0.2001 c 0.20007,0 0.20007,0 0.20007,0 l 1.00032,-0.2001 0,0 1.00033,-0.20011 0.20007,-0.20011 0.80026,-0.40021 0,0 0.80026,-0.60032 c 0,0 0,-0.2001 0.20007,-0.2001 l 0.6002,-0.80043 0,0 0.40013,-0.80042 c 0,0 0,-0.20011 0.20007,-0.20011 l 0.20006,-1.00053 0,0 0.20007,-1.00053 z m -0.80027,1.00053 0,-0.2001 -0.20006,1.00053 0,0 -0.6002,1.00053 0,-0.20011 -0.6002,0.80042 0,0 -0.80026,0.60032 0.20007,0 -1.00033,0.60032 0,0 -1.00033,0.20011 0.20006,0 -1.20039,0.2001 0.20007,0 -1.2004,-0.2001 0.20007,0 -1.00033,-0.20011 0,0 -1.00033,-0.60032 0.20007,0 -0.80027,-0.60032 0,0 -0.60019,-0.80042 0,0.20011 -0.6002,-1.00053 0.20006,0 -0.40013,-1.00053 0,0.2001 0,-1.20063 0,0.2001 0,-1.20063 0,0.2001 0.40013,-1.00053 -0.20006,0 0.6002,-1.00053 0,0.20011 0.60019,-0.80043 0,0 0.80027,-0.60032 -0.20007,0 1.00033,-0.60031 0,0.2001 1.00033,-0.40021 -0.20007,0 1.2004,0 -0.20007,0 1.20039,0 -0.20006,0 1.00033,0.40021 0,-0.2001 1.00033,0.60031 -0.20007,0 0.80026,0.60032 0,0 0.6002,0.80043 0,-0.20011 0.6002,1.00053 0,0 0.20006,1.00053 0,-0.2001 0.20007,1.20063 0,-0.2001"
       inkscape:connector-curvature="0" />
    <path
       id="path4392-1"
       style="fill:#ff0000;fill-opacity:1;fill-rule:nonzero;stroke:none"
       d="m 1040.6787,1035.488 c 0,-0.2001 0,-0.2001 0,-0.2001 l -0.2001,-1.0005 0,0 -0.4001,-1.0006 0,-0.2001 -0.4002,-0.8004 0,0 -0.8002,-0.8004 c 0,0 0,0 0,-0.2001 l -0.8003,-0.6004 0,0 -0.8003,-0.4002 c -0.2,0 -0.2,0 -0.2,-0.2001 l -1.0003,-0.2001 0,0 -1.0004,-0.2001 -0.2,0 -1.0004,0.2001 0,0 -1.0003,0.2001 c 0,0.2001 -0.2001,0.2001 -0.2001,0.2001 l -0.8002,0.4002 0,0 -0.8003,0.6004 c 0,0.2001 -0.2001,0.2001 -0.2001,0.2001 l -0.6002,0.8004 0,0 -0.4001,0.8004 -0.2001,0.2001 -0.2,1.0006 0,0 -0.2001,1.0005 c 0,0 0,0 0,0.2001 l 0.2001,1.0005 0,0 0.2,1.0006 c 0,0 0.2001,0 0.2001,0.2001 l 0.4001,0.8004 0,0 0.6002,0.8004 0.2001,0 0.8003,0.8004 0,0 0.8002,0.4002 0.2001,0 1.0003,0.4003 0,0 1.0004,0.2001 0.2,0 1.0004,-0.2001 0,0 1.0003,-0.4003 c 0,0 0,0 0.2,0 l 0.8003,-0.4002 0,0 0.8003,-0.8004 0,0 0.8002,-0.8004 0,0 0.4002,-0.8004 c 0,-0.2001 0,-0.2001 0,-0.2001 l 0.4001,-1.0006 0,0 0.2001,-1.0005 z m -0.8003,1.0005 0,-0.2001 -0.4001,1.0005 0.2,0 -0.6002,1.0006 0,-0.2001 -0.6002,0.8004 0,0 -0.8002,0.6003 0.2,0 -1.0003,0.6003 0,-0.2001 -1.0003,0.4002 0.2001,0 -1.2004,0 0.2,0 -1.2004,0 0.2001,0 -1.0003,-0.4002 0,0.2001 -1.0004,-0.6003 0.2001,0 -0.8003,-0.6003 0,0 -0.6002,-0.8004 0,0.2001 -0.6002,-1.0006 0,0 -0.2,-1.0005 0,0.2001 -0.2001,-1.2006 0,0.2001 0.2001,-1.2006 0,0.2001 0.2,-1.0006 0,0 0.6002,-1.0005 0,0.2001 0.6002,-0.8004 0,0 0.8003,-0.6003 -0.2001,0 1.0004,-0.6004 0,0 1.0003,-0.2001 -0.2001,0 1.2004,-0.2001 -0.2,0 1.2004,0.2001 -0.2001,0 1.0003,0.2001 0,0 1.0003,0.6004 -0.2,0 0.8002,0.6003 0,0 0.6002,0.8004 0,-0.2001 0.6002,1.0005 -0.2,0 0.4001,1.0006 0,-0.2001 0,1.2006 0,-0.2001"
       inkscape:connector-curvature="0" />
    <path
       id="path4394-2"
       style="fill:#ff0000;fill-opacity:1;fill-rule:nonzero;stroke:none"
       d="m 119.576,1035.488 c 0,-0.2001 0,-0.2001 0,-0.2001 l -0.20007,-1.0005 0,0 -0.20006,-1.0006 c -0.20007,0 -0.20007,-0.2001 -0.20007,-0.2001 l -0.40013,-0.8004 0,0 -0.6002,-0.8004 c -0.20007,0 -0.20007,0 -0.20007,-0.2001 l -0.80026,-0.6004 0,0 -0.80026,-0.4002 c 0,0 -0.20007,0 -0.20007,-0.2001 l -1.00033,-0.2001 0,0 -1.00032,-0.2001 c 0,0 0,0 -0.20007,0 l -1.00033,0.2001 0,0 -1.00033,0.2001 c 0,0.2001 0,0.2001 -0.20006,0.2001 l -0.80027,0.4002 0,0 -0.80026,0.6004 c 0,0.2001 0,0.2001 0,0.2001 l -0.80026,0.8004 0,0 -0.40013,0.8004 0,0.2001 -0.40013,1.0006 0,0 -0.20007,1.0005 c 0,0 0,0 0,0.2001 l 0.20007,1.0005 0,0 0.40013,1.0006 c 0,0 0,0 0,0.2001 l 0.40013,0.8004 0,0 0.80026,0.8004 0,0 0.80026,0.8004 0,0 0.80027,0.4002 c 0.20006,0 0.20006,0 0.20006,0 l 1.00033,0.4003 0,0 1.00033,0.2001 c 0.20007,0 0.20007,0 0.20007,0 l 1.00032,-0.2001 0,0 1.00033,-0.4003 0.20007,0 0.80026,-0.4002 0,0 0.80026,-0.8004 c 0,0 0,0 0.20007,0 l 0.6002,-0.8004 0,0 0.40013,-0.8004 c 0,-0.2001 0,-0.2001 0.20007,-0.2001 l 0.20006,-1.0006 0,0 0.20007,-1.0005 z m -0.80027,1.0005 0,-0.2001 -0.20006,1.0005 0,0 -0.6002,1.0006 0,-0.2001 -0.6002,0.8004 0,0 -0.80026,0.6003 0.20007,0 -1.00033,0.6003 0,-0.2001 -1.00033,0.4002 0.20006,0 -1.20039,0 0.20007,0 -1.2004,0 0.20007,0 -1.00033,-0.4002 0,0.2001 -1.00033,-0.6003 0.20007,0 -0.80027,-0.6003 0,0 -0.60019,-0.8004 0,0.2001 -0.6002,-1.0006 0.20006,0 -0.40013,-1.0005 0,0.2001 0,-1.2006 0,0.2001 0,-1.2006 0,0.2001 0.40013,-1.0006 -0.20006,0 0.6002,-1.0005 0,0.2001 0.60019,-0.8004 0,0 0.80027,-0.6003 -0.20007,0 1.00033,-0.6004 0,0 1.00033,-0.2001 -0.20007,0 1.2004,-0.2001 -0.20007,0 1.20039,0.2001 -0.20006,0 1.00033,0.2001 0,0 1.00033,0.6004 -0.20007,0 0.80026,0.6003 0,0 0.6002,0.8004 0,-0.2001 0.6002,1.0005 0,0 0.20006,1.0006 0,-0.2001 0.20007,1.2006 0,-0.2001"
       inkscape:connector-curvature="0" />
    <path
       id="path4797"
       style="fill:#ff0000;fill-opacity:1;fill-rule:nonzero;stroke:none"
       d="m 794.82553,223.02747 c 0,-0.2001 0.2001,-0.40021 0.40021,-0.40021 l 141.67511,0 c 0.40021,0 0.60031,0.20011 0.60031,0.40021 l 0,71.03766 c 0,0.20011 -0.2001,0.40021 -0.60031,0.40021 l -141.67511,0 c -0.20011,0 -0.40021,-0.2001 -0.40021,-0.40021 l 0,-71.03766 z m 1.00053,71.03766 -0.60032,-0.60032 141.67511,0 -0.40022,0.60032 0,-71.03766 0.40022,0.60032 -141.67511,0 0.60032,-0.60032"
       inkscape:connector-curvature="0" />
  </g>
  <g
     transform="translate(0,-2.5390623e-6)"
     id="g3038"
     inkscape:groupmode="layer"
     inkscape:label="newlayer" />
  <g
     transform="translate(0,-2.5390623e-6)"
     inkscape:label="newlayer"
     inkscape:groupmode="layer"
     id="g3146" />
  <g
     transform="translate(0,-2.5390623e-6)"
     id="g3256"
     inkscape:groupmode="layer"
     inkscape:label="newlayer" />
  <g
     transform="translate(0,-2.5390623e-6)"
     inkscape:label="newlayer"
     inkscape:groupmode="layer"
     id="g4112" />
  <g
     id="g4228"
     inkscape:groupmode="layer"
     inkscape:label="newlayer" />
</svg>
