<?xml version="1.0" encoding="UTF-8" standalone="no"?>
<!-- Created with Inkscape (http://www.inkscape.org/) -->

<svg
   xmlns:dc="http://purl.org/dc/elements/1.1/"
   xmlns:cc="http://creativecommons.org/ns#"
   xmlns:rdf="http://www.w3.org/1999/02/22-rdf-syntax-ns#"
   xmlns:svg="http://www.w3.org/2000/svg"
   xmlns="http://www.w3.org/2000/svg"
   xmlns:sodipodi="http://sodipodi.sourceforge.net/DTD/sodipodi-0.dtd"
   xmlns:inkscape="http://www.inkscape.org/namespaces/inkscape"
   width="744.09448"
   height="1052.3622"
   id="svg5540"
   version="1.1"
   inkscape:version="0.48.5 r10040"
   sodipodi:docname="ClockFOUR_v1_second_try.svg">
  <sodipodi:namedview
     id="base"
     pagecolor="#ffffff"
     bordercolor="#666666"
     borderopacity="1.0"
     inkscape:pageopacity="0.0"
     inkscape:pageshadow="2"
     inkscape:zoom="0.24748737"
     inkscape:cx="139.28075"
     inkscape:cy="855.24986"
     inkscape:document-units="mm"
     inkscape:current-layer="layer1"
     showgrid="false"
     inkscape:window-width="1292"
     inkscape:window-height="741"
     inkscape:window-x="-9"
     inkscape:window-y="-9"
     inkscape:window-maximized="1"
     units="mm" />
  <defs
     id="defs5542">
    <clipPath
       id="clipPath6259"
       clipPathUnits="userSpaceOnUse">
      <path
         id="path6261"
         clip-rule="evenodd"
         d="m 0,1028.92 4958,0 0,4958 -4958,0 0,-4958 z" />
    </clipPath>
    <clipPath
       id="clipPath6197"
       clipPathUnits="userSpaceOnUse">
      <path
         id="path6199"
         clip-rule="evenodd"
         d="m 0,1028.92 4958,0 0,4958 -4958,0 0,-4958 z" />
    </clipPath>
  </defs>
  <metadata
     id="metadata5545">
    <rdf:RDF>
      <cc:Work
         rdf:about="">
        <dc:format>image/svg+xml</dc:format>
        <dc:type
           rdf:resource="http://purl.org/dc/dcmitype/StillImage" />
        <dc:title></dc:title>
      </cc:Work>
    </rdf:RDF>
  </metadata>
  <g
     id="layer1"
     inkscape:groupmode="layer"
     inkscape:label="Layer 1"
     transform="translate(0,-2.5390623e-6)">
    <path
       id="path5553"
       d="m 88.582677,1094.8819 18.038653,0 0,-10.6299 18.03866,0 0,10.6299 18.03865,0 0,-10.6299 18.03865,0 0,10.6299 18.03866,0 0,-10.6299 18.03865,0 0,10.6299 18.03866,0 0,-10.6299 18.03865,0 0,10.6299 18.03866,0 0,-10.6299 18.03865,0 0,10.6299 18.03865,0 0,-10.6299 18.03866,0 0,10.6299 18.03865,0 0,-10.6299 18.03866,0 0,10.6299 18.03865,0 0,-10.6299 18.03866,0 0,10.6299 18.03865,0 0,-10.6299 18.03865,0 0,10.6299 18.03866,0 0,-10.6299 18.03865,0 0,10.6299 18.03866,0 0,-10.6299 18.03865,0 0,10.6299 18.03866,0 0,-10.6299 18.03865,0 0,10.6299 18.03865,0 0,-10.6299 18.03866,0 0,10.6299 18.03865,0 0,-10.6299 18.03866,0 0,10.6299 18.03865,0 0,-10.6299 18.03865,0 0,10.6299 18.03866,0 0,-10.6299 18.03865,0 0,10.6299 18.03866,0 0,-10.6299 18.03865,0 0,10.6299 18.03866,0 0,-10.6299 18.03865,0 0,10.6299 18.03865,0 0,-10.6299 18.03866,0 0,10.6299 18.03865,0 0,-10.6299 18.03866,0 0,10.6299 18.03865,0 0,-10.6299 18.03866,0 0,10.6299 18.03865,0 0,-10.6299 18.03865,0 0,10.6299 18.03866,0 0,-10.6299 18.03865,0 0,10.6299 18.03866,0 0,-10.6299 18.03865,0 0,10.6299 18.03866,0 0,-10.6299 18.03865,0 0,10.6299 18.03861,0 0,-10.6299 18.0387,0 0,10.6299 18.0387,0 0,-10.6299 18.0386,0 0,10.6299 18.0387,0"
       style="fill:none;stroke:#000000;stroke-width:0.35433072;stroke-miterlimit:4;stroke-dasharray:none"
       inkscape:label="part"
       inkscape:connector-curvature="0" />
    <path
       id="path5555"
       d="m 1080.7087,1094.8819 0,16.5354 -10.63,0 0,27.1654 10.63,0 0,16.5354"
       style="fill:none;stroke:#000000;stroke-width:0.35433072;stroke-miterlimit:4;stroke-dasharray:none"
       inkscape:label="part"
       inkscape:connector-curvature="0" />
    <path
       id="path5559"
       d="m 88.582677,1155.1181 0,-16.5354 10.629921,0 0,-27.1654 -10.629921,0 0,-16.5354"
       style="fill:none;stroke:#000000;stroke-width:0.35433072;stroke-miterlimit:4;stroke-dasharray:none"
       inkscape:label="part"
       inkscape:connector-curvature="0" />
    <path
       id="path5561"
       d="m 14.173228,99.212598 16.535433,0 0,-10.629921 27.165355,0 0,10.629921 16.535433,0"
       style="fill:none;stroke:#000000;stroke-width:0.35433072;stroke-miterlimit:4;stroke-dasharray:none"
       inkscape:label="part"
       inkscape:connector-curvature="0" />
    <path
       id="path5563"
       d="m 74.409449,99.212598 0,7.408732 10.629921,0 0,18.03866 -10.629921,0 0,18.03865 10.629921,0 0,18.03865 -10.629921,0 0,18.03866 10.629921,0 0,18.03865 -10.629921,0 0,18.03866 10.629921,0 0,18.03865 -10.629921,0 0,18.03866 10.629921,0 0,18.03865 -10.629921,0 0,18.03865 10.629921,0 0,18.03866 -10.629921,0 0,18.03865 10.629921,0 0,18.03866 -10.629921,0 0,18.03865 10.629921,0 0,18.03866 -10.629921,0 0,18.03865 10.629921,0 0,18.03865 -10.629921,0 0,18.03866 10.629921,0 0,18.03865 -10.629921,0 0,18.03866 10.629921,0 0,18.03865 -10.629921,0 0,18.03866 10.629921,0 0,18.03865 -10.629921,0 0,18.03865 10.629921,0 0,18.03866 -10.629921,0 0,18.03865 10.629921,0 0,18.03866 -10.629921,0 0,18.03865 10.629921,0 0,18.03865 -10.629921,0 0,18.03866 10.629921,0 0,18.03865 -10.629921,0 0,18.03866 10.629921,0 0,18.03865 -10.629921,0 0,18.03866 10.629921,0 0,18.03865 -10.629921,0 0,18.03865 10.629921,0 0,18.03866 -10.629921,0 0,18.03865 10.629921,0 0,18.03866 -10.629921,0 0,18.03865 10.629921,0 0,18.03866 -10.629921,0 0,18.03865 10.629921,0 0,18.03865 -10.629921,0 0,18.03866 10.629921,0 0,18.03865 -10.629921,0 0,18.03866 10.629921,0 0,18.03865 -10.629921,0 0,18.03866 10.629921,0 0,18.03865 -10.629921,0 0,18.03861 10.629921,0 0,18.0387 -10.629921,0 0,18.0387 10.629921,0 0,18.0386 -10.629921,0 0,7.4087"
       style="fill:none;stroke:#000000;stroke-width:0.35433072;stroke-miterlimit:4;stroke-dasharray:none"
       inkscape:label="part"
       inkscape:connector-curvature="0" />
    <path
       id="path5565"
       d="m 74.409449,1070.0787 -16.535433,0 0,10.63 -27.165355,0 0,-10.63 -16.535433,0"
       style="fill:none;stroke:#000000;stroke-width:0.35433072;stroke-miterlimit:4;stroke-dasharray:none"
       inkscape:label="part"
       inkscape:connector-curvature="0" />
    <path
       id="path5569"
       d="m 88.582677,88.582677 18.038653,0 0,10.629921 18.03866,0 0,-10.629921 18.03865,0 0,10.629921 18.03865,0 0,-10.629921 18.03866,0 0,10.629921 18.03865,0 0,-10.629921 18.03866,0 0,10.629921 18.03865,0 0,-10.629921 18.03866,0 0,10.629921 18.03865,0 0,-10.629921 18.03865,0 0,10.629921 18.03866,0 0,-10.629921 18.03865,0 0,10.629921 18.03866,0 0,-10.629921 18.03865,0 0,10.629921 18.03866,0 0,-10.629921 18.03865,0 0,10.629921 18.03865,0 0,-10.629921 18.03866,0 0,10.629921 18.03865,0 0,-10.629921 18.03866,0 0,10.629921 18.03865,0 0,-10.629921 18.03866,0 0,10.629921 18.03865,0 0,-10.629921 18.03865,0 0,10.629921 18.03866,0 0,-10.629921 18.03865,0 0,10.629921 18.03866,0 0,-10.629921 18.03865,0 0,10.629921 18.03865,0 0,-10.629921 18.03866,0 0,10.629921 18.03865,0 0,-10.629921 18.03866,0 0,10.629921 18.03865,0 0,-10.629921 18.03866,0 0,10.629921 18.03865,0 0,-10.629921 18.03865,0 0,10.629921 18.03866,0 0,-10.629921 18.03865,0 0,10.629921 18.03866,0 0,-10.629921 18.03865,0 0,10.629921 18.03866,0 0,-10.629921 18.03865,0 0,10.629921 18.03865,0 0,-10.629921 18.03866,0 0,10.629921 18.03865,0 0,-10.629921 18.03866,0 0,10.629921 18.03865,0 0,-10.629921 18.03866,0 0,10.629921 18.03865,0 0,-10.629921 18.03861,0 0,10.629921 18.0387,0 0,-10.629921 18.0387,0 0,10.629921 18.0386,0 0,-10.629921 18.0387,0"
       style="fill:none;stroke:#000000;stroke-width:0.35433072;stroke-miterlimit:4;stroke-dasharray:none"
       inkscape:label="part"
       inkscape:connector-curvature="0" />
    <path
       id="path5571"
       d="m 1080.7087,88.582677 0,18.038653 -10.63,0 0,18.03866 10.63,0 0,18.03865 -10.63,0 0,18.03865 10.63,0 0,18.03866 -10.63,0 0,18.03865 10.63,0 0,18.03866 -10.63,0 0,18.03865 10.63,0 0,18.03866 -10.63,0 0,18.03865 10.63,0 0,18.03865 -10.63,0 0,18.03866 10.63,0 0,18.03865 -10.63,0 0,18.03866 10.63,0 0,18.03865 -10.63,0 0,18.03866 10.63,0 0,18.03865 -10.63,0 0,18.03865 10.63,0 0,18.03866 -10.63,0 0,18.03865 10.63,0 0,18.03866 -10.63,0 0,18.03865 10.63,0 0,18.03866 -10.63,0 0,18.03865 10.63,0 0,18.03865 -10.63,0 0,18.03866 10.63,0 0,18.03865 -10.63,0 0,18.03866 10.63,0 0,18.03865 -10.63,0 0,18.03865 10.63,0 0,18.03866 -10.63,0 0,18.03865 10.63,0 0,18.03866 -10.63,0 0,18.03865 10.63,0 0,18.03866 -10.63,0 0,18.03865 10.63,0 0,18.03865 -10.63,0 0,18.03866 10.63,0 0,18.03865 -10.63,0 0,18.03866 10.63,0 0,18.03865 -10.63,0 0,18.03866 10.63,0 0,18.03865 -10.63,0 0,18.03865 10.63,0 0,18.03866 -10.63,0 0,18.03865 10.63,0 0,18.03866 -10.63,0 0,18.03865 10.63,0 0,18.03866 -10.63,0 0,18.03865 10.63,0 0,18.03861 -10.63,0 0,18.0387 10.63,0 0,18.0387 -10.63,0 0,18.0386 10.63,0 0,18.0387"
       style="fill:none;stroke:#000000;stroke-width:0.35433072;stroke-miterlimit:4;stroke-dasharray:none"
       inkscape:label="part"
       inkscape:connector-curvature="0" />
    <path
       id="path5573"
       d="m 1080.7087,1080.7087 -18.0387,0 0,-10.63 -18.0386,0 0,10.63 -18.0387,0 0,-10.63 -18.0387,0 0,10.63 -18.03861,0 0,-10.63 -18.03865,0 0,10.63 -18.03866,0 0,-10.63 -18.03865,0 0,10.63 -18.03866,0 0,-10.63 -18.03865,0 0,10.63 -18.03866,0 0,-10.63 -18.03865,0 0,10.63 -18.03865,0 0,-10.63 -18.03866,0 0,10.63 -18.03865,0 0,-10.63 -18.03866,0 0,10.63 -18.03865,0 0,-10.63 -18.03866,0 0,10.63 -18.03865,0 0,-10.63 -18.03865,0 0,10.63 -18.03866,0 0,-10.63 -18.03865,0 0,10.63 -18.03866,0 0,-10.63 -18.03865,0 0,10.63 -18.03866,0 0,-10.63 -18.03865,0 0,10.63 -18.03865,0 0,-10.63 -18.03866,0 0,10.63 -18.03865,0 0,-10.63 -18.03866,0 0,10.63 -18.03865,0 0,-10.63 -18.03865,0 0,10.63 -18.03866,0 0,-10.63 -18.03865,0 0,10.63 -18.03866,0 0,-10.63 -18.03865,0 0,10.63 -18.03866,0 0,-10.63 -18.03865,0 0,10.63 -18.03865,0 0,-10.63 -18.03866,0 0,10.63 -18.03865,0 0,-10.63 -18.03866,0 0,10.63 -18.03865,0 0,-10.63 -18.03866,0 0,10.63 -18.03865,0 0,-10.63 -18.03865,0 0,10.63 -18.03866,0 0,-10.63 -18.03865,0 0,10.63 -18.03866,0 0,-10.63 -18.03865,0 0,10.63 -18.03866,0 0,-10.63 -18.03865,0 0,10.63 -18.03865,0 0,-10.63 -18.03866,0 0,10.63 -18.038653,0"
       style="fill:none;stroke:#000000;stroke-width:0.35433072;stroke-miterlimit:4;stroke-dasharray:none"
       inkscape:label="part"
       inkscape:connector-curvature="0" />
    <path
       id="path5575"
       d="m 88.582677,1080.7087 0,-18.0387 10.629921,0 0,-18.0386 -10.629921,0 0,-18.0387 10.629921,0 0,-18.0387 -10.629921,0 0,-18.03861 10.629921,0 0,-18.03865 -10.629921,0 0,-18.03866 10.629921,0 0,-18.03865 -10.629921,0 0,-18.03866 10.629921,0 0,-18.03865 -10.629921,0 0,-18.03866 10.629921,0 0,-18.03865 -10.629921,0 0,-18.03865 10.629921,0 0,-18.03866 -10.629921,0 0,-18.03865 10.629921,0 0,-18.03866 -10.629921,0 0,-18.03865 10.629921,0 0,-18.03866 -10.629921,0 0,-18.03865 10.629921,0 0,-18.03865 -10.629921,0 0,-18.03866 10.629921,0 0,-18.03865 -10.629921,0 0,-18.03866 10.629921,0 0,-18.03865 -10.629921,0 0,-18.03866 10.629921,0 0,-18.03865 -10.629921,0 0,-18.03865 10.629921,0 0,-18.03866 -10.629921,0 0,-18.03865 10.629921,0 0,-18.03866 -10.629921,0 0,-18.03865 10.629921,0 0,-18.03865 -10.629921,0 0,-18.03866 10.629921,0 0,-18.03865 -10.629921,0 0,-18.03866 10.629921,0 0,-18.03865 -10.629921,0 0,-18.03866 10.629921,0 0,-18.03865 -10.629921,0 0,-18.03865 10.629921,0 0,-18.03866 -10.629921,0 0,-18.03865 10.629921,0 0,-18.03866 -10.629921,0 0,-18.03865 10.629921,0 0,-18.03866 -10.629921,0 0,-18.03865 10.629921,0 0,-18.03865 -10.629921,0 0,-18.03866 10.629921,0 0,-18.03865 -10.629921,0 0,-18.03866 10.629921,0 0,-18.03865 -10.629921,0 0,-18.03866 10.629921,0 0,-18.03865 -10.629921,0 0,-18.03865 10.629921,0 0,-18.03866 -10.629921,0 0,-18.038653"
       style="fill:none;stroke:#000000;stroke-width:0.35433072;stroke-miterlimit:4;stroke-dasharray:none"
       inkscape:label="part"
       inkscape:connector-curvature="0" />
    <path
       id="path5577"
       d="m 1094.8819,99.212598 16.5354,0 0,-10.629921 27.1654,0 0,10.629921 16.5354,0"
       style="fill:none;stroke:#000000;stroke-width:0.35433072;stroke-miterlimit:4;stroke-dasharray:none"
       inkscape:label="part"
       inkscape:connector-curvature="0" />
    <path
       id="path5581"
       d="m 1155.1181,1070.0787 -16.5354,0 0,10.63 -27.1654,0 0,-10.63 -16.5354,0"
       style="fill:none;stroke:#000000;stroke-width:0.35433072;stroke-miterlimit:4;stroke-dasharray:none"
       inkscape:label="part"
       inkscape:connector-curvature="0" />
    <path
       id="path5583"
       d="m 1094.8819,1070.0787 0,-7.4087 -10.6299,0 0,-18.0386 10.6299,0 0,-18.0387 -10.6299,0 0,-18.0387 10.6299,0 0,-18.03861 -10.6299,0 0,-18.03865 10.6299,0 0,-18.03866 -10.6299,0 0,-18.03865 10.6299,0 0,-18.03866 -10.6299,0 0,-18.03865 10.6299,0 0,-18.03866 -10.6299,0 0,-18.03865 10.6299,0 0,-18.03865 -10.6299,0 0,-18.03866 10.6299,0 0,-18.03865 -10.6299,0 0,-18.03866 10.6299,0 0,-18.03865 -10.6299,0 0,-18.03866 10.6299,0 0,-18.03865 -10.6299,0 0,-18.03865 10.6299,0 0,-18.03866 -10.6299,0 0,-18.03865 10.6299,0 0,-18.03866 -10.6299,0 0,-18.03865 10.6299,0 0,-18.03866 -10.6299,0 0,-18.03865 10.6299,0 0,-18.03865 -10.6299,0 0,-18.03866 10.6299,0 0,-18.03865 -10.6299,0 0,-18.03866 10.6299,0 0,-18.03865 -10.6299,0 0,-18.03865 10.6299,0 0,-18.03866 -10.6299,0 0,-18.03865 10.6299,0 0,-18.03866 -10.6299,0 0,-18.03865 10.6299,0 0,-18.03866 -10.6299,0 0,-18.03865 10.6299,0 0,-18.03865 -10.6299,0 0,-18.03866 10.6299,0 0,-18.03865 -10.6299,0 0,-18.03866 10.6299,0 0,-18.03865 -10.6299,0 0,-18.03866 10.6299,0 0,-18.03865 -10.6299,0 0,-18.03865 10.6299,0 0,-18.03866 -10.6299,0 0,-18.03865 10.6299,0 0,-18.03866 -10.6299,0 0,-18.03865 10.6299,0 0,-18.03866 -10.6299,0 0,-18.03865 10.6299,0 0,-18.03865 -10.6299,0 0,-18.03866 10.6299,0 0,-7.408732"
       style="fill:none;stroke:#000000;stroke-width:0.35433072;stroke-miterlimit:4;stroke-dasharray:none"
       inkscape:label="part"
       inkscape:connector-curvature="0" />
    <path
       id="path5595"
       d="m 1080.7087,14.173228 0,16.535433 -10.63,0 0,27.165355 10.63,0 0,16.535433"
       style="fill:none;stroke:#000000;stroke-width:0.35433072;stroke-miterlimit:4;stroke-dasharray:none"
       inkscape:label="part"
       inkscape:connector-curvature="0" />
    <path
       id="path5597"
       d="m 1080.7087,74.409449 -18.0387,0 0,10.629921 -18.0386,0 0,-10.629921 -18.0387,0 0,10.629921 -18.0387,0 0,-10.629921 -18.03861,0 0,10.629921 -18.03865,0 0,-10.629921 -18.03866,0 0,10.629921 -18.03865,0 0,-10.629921 -18.03866,0 0,10.629921 -18.03865,0 0,-10.629921 -18.03866,0 0,10.629921 -18.03865,0 0,-10.629921 -18.03865,0 0,10.629921 -18.03866,0 0,-10.629921 -18.03865,0 0,10.629921 -18.03866,0 0,-10.629921 -18.03865,0 0,10.629921 -18.03866,0 0,-10.629921 -18.03865,0 0,10.629921 -18.03865,0 0,-10.629921 -18.03866,0 0,10.629921 -18.03865,0 0,-10.629921 -18.03866,0 0,10.629921 -18.03865,0 0,-10.629921 -18.03866,0 0,10.629921 -18.03865,0 0,-10.629921 -18.03865,0 0,10.629921 -18.03866,0 0,-10.629921 -18.03865,0 0,10.629921 -18.03866,0 0,-10.629921 -18.03865,0 0,10.629921 -18.03865,0 0,-10.629921 -18.03866,0 0,10.629921 -18.03865,0 0,-10.629921 -18.03866,0 0,10.629921 -18.03865,0 0,-10.629921 -18.03866,0 0,10.629921 -18.03865,0 0,-10.629921 -18.03865,0 0,10.629921 -18.03866,0 0,-10.629921 -18.03865,0 0,10.629921 -18.03866,0 0,-10.629921 -18.03865,0 0,10.629921 -18.03866,0 0,-10.629921 -18.03865,0 0,10.629921 -18.03865,0 0,-10.629921 -18.03866,0 0,10.629921 -18.03865,0 0,-10.629921 -18.03866,0 0,10.629921 -18.03865,0 0,-10.629921 -18.03866,0 0,10.629921 -18.03865,0 0,-10.629921 -18.03865,0 0,10.629921 -18.03866,0 0,-10.629921 -18.038653,0"
       style="fill:none;stroke:#000000;stroke-width:0.35433072;stroke-miterlimit:4;stroke-dasharray:none"
       inkscape:label="part"
       inkscape:connector-curvature="0" />
    <path
       id="path5599"
       d="m 88.582677,74.409449 0,-16.535433 10.629921,0 0,-27.165355 -10.629921,0 0,-16.535433"
       style="fill:none;stroke:#000000;stroke-width:0.35433072;stroke-miterlimit:4;stroke-dasharray:none"
       inkscape:label="part"
       inkscape:connector-curvature="0" />
    <path
       style="fill:none;stroke:#000000;stroke-width:0.35433072;stroke-linecap:butt;stroke-linejoin:miter;stroke-miterlimit:4;stroke-opacity:1;stroke-dasharray:none"
       d="m 1080.7212,1154.9389 -5.0429,0 -987.08455,0"
       id="path6141"
       inkscape:connector-curvature="0" />
    <path
       style="fill:none;stroke:#000000;stroke-width:0.35433072;stroke-linecap:butt;stroke-linejoin:miter;stroke-miterlimit:4;stroke-opacity:1;stroke-dasharray:none"
       d="m 1080.7046,14.35333 -5.0429,0 -987.084597,0"
       id="path6141-6"
       inkscape:connector-curvature="0" />
    <path
       style="fill:none;stroke:#000000;stroke-width:0.35433072;stroke-linecap:butt;stroke-linejoin:miter;stroke-miterlimit:4;stroke-opacity:1;stroke-dasharray:none"
       d="m 14.352679,99.182171 0,4.821439 0,966.07139"
       id="path6161"
       inkscape:connector-curvature="0" />
    <path
       style="fill:none;stroke:#000000;stroke-width:0.35433072;stroke-linecap:butt;stroke-linejoin:miter;stroke-miterlimit:4;stroke-opacity:1;stroke-dasharray:none"
       d="m 1154.9388,99.207493 0,4.821447 0,966.07136"
       id="path6161-0"
       inkscape:connector-curvature="0" />
    <path
       id="path6239"
       style="fill:#ff0000;fill-opacity:1;fill-rule:nonzero;stroke:none"
       d="m 224.77904,198.4483 c 0,-0.20011 0,-0.20011 0,-0.20011 l 0,-1.00053 0,0 0.40021,-1.00053 0,-0.2001 0.40021,-0.80043 c 0,0 0,0 0.20011,0 l 0.60032,-0.80042 c 0,0 0,0 0,-0.20011 l 0.80042,-0.60032 0,0 1.00053,-0.40021 0,-0.20011 1.00053,-0.2001 0,0 1.20064,-0.20011 0,0 1.00053,0.20011 0.20011,0 1.00053,0.2001 0,0.20011 0.80042,0.40021 0.20011,0 0.80042,0.60032 c 0,0.20011 0,0.20011 0,0.20011 l 0.60032,0.80042 0,0 0.60032,0.80043 0,0.2001 0.2001,1.00053 0,0 0.20011,1.00053 c 0,0 0,0 0,0.20011 l -0.20011,1.00053 0,0 -0.2001,1.00053 c 0,0 0,0 0,0.20011 l -0.60032,0.80042 0,0 -0.60032,0.80042 0,0 -0.80042,0.80043 -0.20011,0 -0.80042,0.40021 0,0 -1.00053,0.40021 c -0.20011,0 -0.20011,0 -0.20011,0 l -1.00053,0.20011 0,0 -1.20064,-0.20011 0,0 -1.00053,-0.40021 0,0 -1.00053,-0.40021 0,0 -0.80042,-0.80043 0,0 -0.60032,-0.80042 c -0.20011,0 -0.20011,0 -0.20011,0 l -0.40021,-0.80042 c 0,-0.20011 0,-0.20011 0,-0.20011 l -0.40021,-1.00053 0,0 0,-1.00053 z m 0.60032,1.00053 0,-0.20011 0.40021,1.00053 0,0 0.40021,1.00053 0,-0.2001 0.60032,0.80042 0,0 0.80042,0.60032 0,0 0.80043,0.60032 0,-0.20011 1.00053,0.40021 2.00106,0 1.00053,-0.40021 -0.20011,0.20011 1.00053,-0.60032 0,0 0.80043,-0.60032 -0.20011,0 0.80043,-0.80042 -0.20011,0.2001 0.60032,-1.00053 0,0 0.2001,-1.00053 0,0.20011 0.20011,-1.20064 0,0.20011 -0.20011,-1.20064 0,0.20011 -0.2001,-1.00053 0,0 -0.60032,-1.00053 0.20011,0.2001 -0.80043,-0.80042 0.20011,0 -0.80043,-0.60032 0,0 -1.00053,-0.60032 0.20011,0 -1.00053,-0.2001 0,0 -1.00053,-0.20011 0,0 -1.00053,0.20011 0,0 -1.00053,0.2001 0,0 -0.80043,0.60032 0,0 -0.80042,0.60032 0,0 -0.60032,0.80042 0,-0.2001 -0.40021,1.00053 0,0 -0.40021,1.00053 0,-0.20011 0,1.20064 0,-0.20011"
       inkscape:connector-curvature="0" />
    <path
       id="path6241"
       style="fill:#ff0000;fill-opacity:1;fill-rule:nonzero;stroke:none"
       d="m 933.35467,198.4483 c 0,-0.20011 0,-0.20011 0,-0.20011 l 0.2001,-1.00053 0,0 0.20011,-1.00053 0,-0.2001 0.60032,-0.80043 0,0 0.60032,-0.80042 c 0,0 0,0 0,-0.20011 l 0.80042,-0.60032 0.20011,0 0.80042,-0.40021 0,-0.20011 1.00053,-0.2001 c 0.20011,0 0.20011,0 0.20011,0 l 1.00053,-0.20011 0,0 1.20063,0.20011 0,0 1.00053,0.2001 0,0.20011 1.00054,0.40021 0,0 0.80042,0.60032 c 0,0.20011 0,0.20011 0,0.20011 l 0.60032,0.80042 0.2001,0 0.40022,0.80043 0,0.2001 0.40021,1.00053 0,0 0,1.00053 c 0,0 0,0 0,0.20011 l 0,1.00053 0,0 -0.40021,1.00053 c 0,0 0,0 0,0.20011 l -0.40022,0.80042 -0.2001,0 -0.60032,0.80042 0,0 -0.80042,0.80043 0,0 -1.00054,0.40021 0,0 -1.00053,0.40021 0,0 -1.20063,0.20011 0,0 -1.00053,-0.20011 c 0,0 0,0 -0.20011,0 l -1.00053,-0.40021 0,0 -0.80042,-0.40021 -0.20011,0 -0.80042,-0.80043 0,0 -0.60032,-0.80042 0,0 -0.60032,-0.80042 c 0,-0.20011 0,-0.20011 0,-0.20011 l -0.20011,-1.00053 0,0 -0.2001,-1.00053 z m 0.80042,1.00053 0,-0.20011 0.20011,1.00053 0,0 0.60032,1.00053 -0.20011,-0.2001 0.80042,0.80042 -0.2001,0 0.80042,0.60032 0,0 1.00053,0.60032 -0.2001,-0.20011 1.00053,0.40021 2.00106,0 1.00053,-0.40021 0,0.20011 0.80042,-0.60032 0,0 0.80043,-0.60032 0,0 0.60032,-0.80042 0,0.2001 0.40021,-1.00053 0,0 0.40021,-1.00053 0,0.20011 0,-1.20064 0,0.20011 0,-1.20064 0,0.20011 -0.40021,-1.00053 0,0 -0.40021,-1.00053 0,0.2001 -0.60032,-0.80042 0,0 -0.80043,-0.60032 0,0 -0.80042,-0.60032 0,0 -1.00053,-0.2001 0,0 -1.00053,-0.20011 0,0 -1.00053,0.20011 0,0 -1.00053,0.2001 0.2001,0 -1.00053,0.60032 0,0 -0.80042,0.60032 0.2001,0 -0.80042,0.80042 0.20011,-0.2001 -0.60032,1.00053 0,0 -0.20011,1.00053 0,-0.20011 -0.2001,1.20064 0,-0.20011"
       inkscape:connector-curvature="0" />
    <path
       id="path6243"
       style="fill:#ff0000;fill-opacity:1;fill-rule:nonzero;stroke:none"
       d="m 224.77904,970.85777 c 0,0 0,0 0,-0.20011 l 0,-1.00053 0,0 0.40021,-1.00053 0,0 0.40021,-1.00053 c 0,0 0,0 0.20011,0 l 0.60032,-0.80042 0,0 0.80042,-0.80043 0,0 1.00053,-0.40021 0,0 1.00053,-0.40021 0,0 1.20064,-0.20011 0,0 1.00053,0.20011 0.20011,0 1.00053,0.40021 0,0 0.80042,0.40021 0.20011,0 0.80042,0.80043 0,0 0.60032,0.80042 0,0 0.60032,1.00053 0,0 0.2001,1.00053 0,0 0.20011,1.00053 c 0,0.20011 0,0.20011 0,0.20011 l -0.20011,1.00053 0,0 -0.2001,1.00053 c 0,0.2001 0,0.2001 0,0.2001 l -0.60032,0.80043 0,0 -0.60032,0.80042 0,0.20011 -0.80042,0.60032 -0.20011,0 -0.80042,0.40021 0,0.20011 -1.00053,0.2001 c -0.20011,0 -0.20011,0 -0.20011,0 l -1.00053,0.20011 0,0 -1.20064,-0.20011 0,0 -1.00053,-0.2001 0,-0.20011 -1.00053,-0.40021 0,0 -0.80042,-0.60032 0,-0.20011 -0.60032,-0.80042 c -0.20011,0 -0.20011,0 -0.20011,0 l -0.40021,-0.80043 c 0,0 0,0 0,-0.2001 l -0.40021,-1.00053 0,0 0,-1.00053 z m 0.60032,1.00053 0,-0.20011 0.40021,1.00053 0,0 0.40021,1.00053 0,-0.2001 0.60032,0.80042 0,0 0.80042,0.60032 0,0 0.80043,0.60032 0,0 1.00053,0.2001 0,0 1.00053,0.20011 0,0 1.00053,-0.20011 0,0 1.00053,-0.2001 -0.20011,0 1.00053,-0.60032 0,0 0.80043,-0.60032 -0.20011,0 0.80043,-0.80042 -0.20011,0.2001 0.60032,-1.00053 0,0 0.2001,-1.00053 0,0.20011 0.20011,-1.20064 0,0.20011 -0.20011,-1.20064 0,0.20011 -0.2001,-1.00053 0,0 -0.60032,-0.80043 0.20011,0 -0.80043,-0.80042 0.20011,0 -0.80043,-0.60032 0,0 -1.00053,-0.40021 0.20011,0 -1.00053,-0.40021 -2.00106,0 -1.00053,0.40021 0,0 -0.80043,0.40021 0,0 -0.80042,0.60032 0,0 -0.60032,0.80042 0,0 -0.40021,0.80043 0,0 -0.40021,1.00053 0,-0.20011 0,1.20064 0,-0.20011"
       inkscape:connector-curvature="0" />
    <path
       id="path6245"
       style="fill:#ff0000;fill-opacity:1;fill-rule:nonzero;stroke:none"
       d="m 933.35467,970.85777 c 0,0 0,0 0,-0.20011 l 0.2001,-1.00053 0,0 0.20011,-1.00053 0,0 0.60032,-1.00053 0,0 0.60032,-0.80042 0,0 0.80042,-0.80043 0.20011,0 0.80042,-0.40021 0,0 1.00053,-0.40021 c 0.20011,0 0.20011,0 0.20011,0 l 1.00053,-0.20011 0,0 1.20063,0.20011 0,0 1.00053,0.40021 0,0 1.00054,0.40021 0,0 0.80042,0.80043 0,0 0.60032,0.80042 0.2001,0 0.40022,1.00053 0,0 0.40021,1.00053 0,0 0,1.00053 c 0,0.20011 0,0.20011 0,0.20011 l 0,1.00053 0,0 -0.40021,1.00053 c 0,0.2001 0,0.2001 0,0.2001 l -0.40022,0.80043 -0.2001,0 -0.60032,0.80042 0,0.20011 -0.80042,0.60032 0,0 -1.00054,0.40021 0,0.20011 -1.00053,0.2001 0,0 -1.20063,0.20011 0,0 -1.00053,-0.20011 c 0,0 0,0 -0.20011,0 l -1.00053,-0.2001 0,-0.20011 -0.80042,-0.40021 -0.20011,0 -0.80042,-0.60032 0,-0.20011 -0.60032,-0.80042 0,0 -0.60032,-0.80043 c 0,0 0,0 0,-0.2001 l -0.20011,-1.00053 0,0 -0.2001,-1.00053 z m 0.80042,1.00053 0,-0.20011 0.20011,1.00053 0,0 0.60032,1.00053 -0.20011,-0.2001 0.80042,0.80042 -0.2001,0 0.80042,0.60032 0,0 1.00053,0.60032 -0.2001,0 1.00053,0.2001 0,0 1.00053,0.20011 0,0 1.00053,-0.20011 0,0 1.00053,-0.2001 0,0 0.80042,-0.60032 0,0 0.80043,-0.60032 0,0 0.60032,-0.80042 0,0.2001 0.40021,-1.00053 0,0 0.40021,-1.00053 0,0.20011 0,-1.20064 0,0.20011 0,-1.20064 0,0.20011 -0.40021,-1.00053 0,0 -0.40021,-0.80043 0,0 -0.60032,-0.80042 0,0 -0.80043,-0.60032 0,0 -0.80042,-0.40021 0,0 -1.00053,-0.40021 -2.00106,0 -1.00053,0.40021 0.2001,0 -1.00053,0.40021 0,0 -0.80042,0.60032 0.2001,0 -0.80042,0.80042 0.20011,0 -0.60032,0.80043 0,0 -0.20011,1.00053 0,-0.20011 -0.2001,1.20064 0,-0.20011"
       inkscape:connector-curvature="0" />
    <path
       id="path6247"
       style="fill:#ff0000;fill-opacity:1;fill-rule:nonzero;stroke:none"
       d="m 118.3226,124.00884 0,-0.20011 0.20011,-1.00053 0,0 0.40021,-1.00053 c 0,0 0,0 0,-0.20011 l 0.40021,-0.80042 0,0 0.80043,-0.80042 0,0 0.80042,-0.80043 0,0 0.80043,-0.40021 c 0.2001,0 0.2001,0 0.2001,0 l 1.00053,-0.40021 0,0 1.00053,-0.20011 0.20011,0 1.00053,0.20011 0,0 1.00053,0.40021 0.20011,0 0.80042,0.40021 0,0 0.80043,0.80043 0.2001,0 0.60032,0.80042 0,0 0.40021,0.80042 c 0,0.20011 0.20011,0.20011 0.20011,0.20011 l 0.2001,1.00053 0,0 0.20011,1.00053 0,0.20011 -0.20011,1.00053 0,0 -0.2001,1.00053 -0.20011,0.2001 -0.40021,0.80043 0,0 -0.60032,0.80042 -0.2001,0.20011 -0.80043,0.60032 0,0 -0.80042,0.40021 -0.20011,0.20011 -1.00053,0.2001 0,0 -1.00053,0.20011 -0.20011,0 -1.00053,-0.20011 0,0 -1.00053,-0.2001 c 0,0 0,-0.20011 -0.2001,-0.20011 l -0.80043,-0.40021 0,0 -0.80042,-0.60032 0,-0.20011 -0.80043,-0.80042 0,0 -0.40021,-0.80043 0,-0.2001 -0.40021,-1.00053 0,0 -0.20011,-1.00053 z m 0.80043,1.00053 0,-0.20011 0.40021,1.00053 -0.20011,0 0.60032,1.00053 0,-0.2001 0.60032,0.80042 0,0 0.80042,0.60032 -0.2001,0 1.00053,0.60032 0,0 1.00053,0.2001 -0.20011,0 1.20064,0.20011 -0.20011,0 1.20064,-0.20011 -0.20011,0 1.00053,-0.2001 0,0 1.00054,-0.60032 -0.20011,0 0.80042,-0.60032 0,0 0.60032,-0.80042 0,0.2001 0.60032,-1.00053 0,0 0.20011,-1.00053 0,0.20011 0.2001,-1.20064 0,0.20011 -0.2001,-1.20064 0,0.20011 -0.20011,-1.00053 0,0 -0.60032,-1.00053 0,0.2001 -0.60032,-0.80042 0,0 -0.80042,-0.60032 0.20011,0 -1.00054,-0.60032 0,0.20011 -1.00053,-0.40021 0.20011,0 -1.20064,0 0.20011,0 -1.20064,0 0.20011,0 -1.00053,0.40021 0,-0.20011 -1.00053,0.60032 0.2001,0 -0.80042,0.60032 0,0 -0.60032,0.80042 0,-0.2001 -0.60032,1.00053 0.20011,0 -0.40021,1.00053 0,-0.20011 0,1.20064 0,-0.20011"
       inkscape:connector-curvature="0" />
    <path
       id="path6249"
       style="fill:#ff0000;fill-opacity:1;fill-rule:nonzero;stroke:none"
       d="m 1039.611,124.00884 0,-0.20011 0.2001,-1.00053 0,0 0.2001,-1.00053 c 0.2001,0 0.2001,0 0.2001,-0.20011 l 0.4002,-0.80042 0,0 0.6003,-0.80042 c 0.2002,0 0.2002,0 0.2002,0 l 0.8004,-0.80043 0,0 0.8004,-0.40021 0.2001,0 1.0005,-0.40021 0,0 1.0006,-0.20011 c 0,0 0,0 0.2001,0 l 1.0005,0.20011 0,0 1.0005,0.40021 c 0,0 0,0 0.2001,0 l 0.8005,0.40021 0,0 0.8004,0.80043 0,0 0.8004,0.80042 0,0 0.4002,0.80042 c 0,0.20011 0,0.20011 0,0.20011 l 0.4002,1.00053 0,0 0.2001,1.00053 0,0.20011 -0.2001,1.00053 0,0 -0.4002,1.00053 0,0.2001 -0.4002,0.80043 0,0 -0.8004,0.80042 0,0.20011 -0.8004,0.60032 0,0 -0.8005,0.40021 c -0.2001,0 -0.2001,0.20011 -0.2001,0.20011 l -1.0005,0.2001 0,0 -1.0005,0.20011 c -0.2001,0 -0.2001,0 -0.2001,0 l -1.0006,-0.20011 0,0 -1.0005,-0.2001 -0.2001,-0.20011 -0.8004,-0.40021 0,0 -0.8004,-0.60032 c 0,0 0,-0.20011 -0.2002,-0.20011 l -0.6003,-0.80042 0,0 -0.4002,-0.80043 c 0,0 0,-0.2001 -0.2001,-0.2001 l -0.2001,-1.00053 0,0 -0.2001,-1.00053 z m 0.8004,1.00053 0,-0.20011 0.2001,1.00053 0,0 0.6003,1.00053 0,-0.2001 0.6004,0.80042 0,0 0.8004,0.60032 -0.2001,0 1.0005,0.60032 0,0 1.0005,0.2001 -0.2001,0 1.2007,0.20011 -0.2001,0 1.2006,-0.20011 -0.2001,0 1.0005,-0.2001 0,0 1.0006,-0.60032 -0.2001,0 0.8004,-0.60032 0,0 0.6003,-0.80042 0,0.2001 0.6003,-1.00053 -0.2001,0 0.4002,-1.00053 0,0.20011 0,-1.20064 0,0.20011 0,-1.20064 0,0.20011 -0.4002,-1.00053 0.2001,0 -0.6003,-1.00053 0,0.2001 -0.6003,-0.80042 0,0 -0.8004,-0.60032 0.2001,0 -1.0006,-0.60032 0,0.20011 -1.0005,-0.40021 0.2001,0 -1.2006,0 0.2001,0 -1.2007,0 0.2001,0 -1.0005,0.40021 0,-0.20011 -1.0005,0.60032 0.2001,0 -0.8004,0.60032 0,0 -0.6004,0.80042 0,-0.2001 -0.6003,1.00053 0,0 -0.2001,1.00053 0,-0.20011 -0.2001,1.20064 0,-0.20011"
       inkscape:connector-curvature="0" />
    <path
       id="path6251"
       style="fill:#ff0000;fill-opacity:1;fill-rule:nonzero;stroke:none"
       d="m 118.3226,1045.2972 c 0,-0.2001 0,-0.2001 0,-0.2001 l 0.20011,-1.0005 0,0 0.40021,-1.0005 0,-0.2001 0.40021,-0.8005 0,0 0.80043,-0.8004 c 0,0 0,0 0,-0.2001 l 0.80042,-0.6003 0,0 0.80043,-0.4002 c 0.2001,0 0.2001,0 0.2001,-0.2001 l 1.00053,-0.2001 0,0 1.00053,-0.2001 0.20011,0 1.00053,0.2001 0,0 1.00053,0.2001 c 0,0.2001 0.20011,0.2001 0.20011,0.2001 l 0.80042,0.4002 0,0 0.80043,0.6003 c 0,0.2001 0.2001,0.2001 0.2001,0.2001 l 0.60032,0.8004 0,0 0.40021,0.8005 0.20011,0.2001 0.2001,1.0005 0,0 0.20011,1.0005 c 0,0 0,0 0,0.2001 l -0.20011,1.0006 0,0 -0.2001,1.0005 c 0,0 -0.20011,0 -0.20011,0.2001 l -0.40021,0.8004 0,0 -0.60032,0.8004 -0.2001,0 -0.80043,0.8005 0,0 -0.80042,0.4002 -0.20011,0 -1.00053,0.4002 0,0 -1.00053,0.2001 -0.20011,0 -1.00053,-0.2001 0,0 -1.00053,-0.4002 c 0,0 0,0 -0.2001,0 l -0.80043,-0.4002 0,0 -0.80042,-0.8005 0,0 -0.80043,-0.8004 0,0 -0.40021,-0.8004 c 0,-0.2001 0,-0.2001 0,-0.2001 l -0.40021,-1.0005 0,0 -0.20011,-1.0006 z m 0.80043,1.0006 0,-0.2001 0.40021,1.0005 -0.20011,0 0.60032,1.0005 0,-0.2001 0.60032,0.8004 0,0 0.80042,0.6004 -0.2001,0 1.00053,0.6003 0,-0.2001 1.00053,0.4002 -0.20011,0 1.20064,0 -0.20011,0 1.20064,0 -0.20011,0 1.00053,-0.4002 0,0.2001 1.00054,-0.6003 -0.20011,0 0.80042,-0.6004 0,0 0.60032,-0.8004 0,0.2001 0.60032,-1.0005 0,0 0.20011,-1.0005 0,0.2001 0.2001,-1.2007 0,0.2001 -0.2001,-1.2006 0,0.2001 -0.20011,-1.0005 0,0 -0.60032,-1.0006 0,0.2001 -0.60032,-0.8004 0,0 -0.80042,-0.6003 0.20011,0 -1.00054,-0.6003 0,0 -1.00053,-0.2001 0.20011,0 -1.20064,-0.2001 0.20011,0 -1.20064,0.2001 0.20011,0 -1.00053,0.2001 0,0 -1.00053,0.6003 0.2001,0 -0.80042,0.6003 0,0 -0.60032,0.8004 0,-0.2001 -0.60032,1.0006 0.20011,0 -0.40021,1.0005 0,-0.2001 0,1.2006 0,-0.2001"
       inkscape:connector-curvature="0" />
    <path
       id="path6253"
       style="fill:#ff0000;fill-opacity:1;fill-rule:nonzero;stroke:none"
       d="m 1039.611,1045.2972 c 0,-0.2001 0,-0.2001 0,-0.2001 l 0.2001,-1.0005 0,0 0.2001,-1.0005 c 0.2001,0 0.2001,-0.2001 0.2001,-0.2001 l 0.4002,-0.8005 0,0 0.6003,-0.8004 c 0.2002,0 0.2002,0 0.2002,-0.2001 l 0.8004,-0.6003 0,0 0.8004,-0.4002 c 0,0 0.2001,0 0.2001,-0.2001 l 1.0005,-0.2001 0,0 1.0006,-0.2001 c 0,0 0,0 0.2001,0 l 1.0005,0.2001 0,0 1.0005,0.2001 c 0,0.2001 0,0.2001 0.2001,0.2001 l 0.8005,0.4002 0,0 0.8004,0.6003 c 0,0.2001 0,0.2001 0,0.2001 l 0.8004,0.8004 0,0 0.4002,0.8005 0,0.2001 0.4002,1.0005 0,0 0.2001,1.0005 c 0,0 0,0 0,0.2001 l -0.2001,1.0006 0,0 -0.4002,1.0005 c 0,0 0,0 0,0.2001 l -0.4002,0.8004 0,0 -0.8004,0.8004 0,0 -0.8004,0.8005 0,0 -0.8005,0.4002 c -0.2001,0 -0.2001,0 -0.2001,0 l -1.0005,0.4002 0,0 -1.0005,0.2001 c -0.2001,0 -0.2001,0 -0.2001,0 l -1.0006,-0.2001 0,0 -1.0005,-0.4002 -0.2001,0 -0.8004,-0.4002 0,0 -0.8004,-0.8005 c 0,0 0,0 -0.2002,0 l -0.6003,-0.8004 0,0 -0.4002,-0.8004 c 0,-0.2001 0,-0.2001 -0.2001,-0.2001 l -0.2001,-1.0005 0,0 -0.2001,-1.0006 z m 0.8004,1.0006 0,-0.2001 0.2001,1.0005 0,0 0.6003,1.0005 0,-0.2001 0.6004,0.8004 0,0 0.8004,0.6004 -0.2001,0 1.0005,0.6003 0,-0.2001 1.0005,0.4002 -0.2001,0 1.2007,0 -0.2001,0 1.2006,0 -0.2001,0 1.0005,-0.4002 0,0.2001 1.0006,-0.6003 -0.2001,0 0.8004,-0.6004 0,0 0.6003,-0.8004 0,0.2001 0.6003,-1.0005 -0.2001,0 0.4002,-1.0005 0,0.2001 0,-1.2007 0,0.2001 0,-1.2006 0,0.2001 -0.4002,-1.0005 0.2001,0 -0.6003,-1.0006 0,0.2001 -0.6003,-0.8004 0,0 -0.8004,-0.6003 0.2001,0 -1.0006,-0.6003 0,0 -1.0005,-0.2001 0.2001,0 -1.2006,-0.2001 0.2001,0 -1.2007,0.2001 0.2001,0 -1.0005,0.2001 0,0 -1.0005,0.6003 0.2001,0 -0.8004,0.6003 0,0 -0.6004,0.8004 0,-0.2001 -0.6003,1.0006 0,0 -0.2001,1.0005 0,-0.2001 -0.2001,1.2006 0,-0.2001"
       inkscape:connector-curvature="0" />
    <path
       id="path6265"
       style="fill:#ff0000;fill-opacity:1;fill-rule:nonzero;stroke:none"
       d="m 805.68699,233.66697 c 0,-0.20011 0.2001,-0.40021 0.40021,-0.40021 l 141.67511,0 c 0.40021,0 0.60031,0.2001 0.60031,0.40021 l 0,71.03766 c 0,0.2001 -0.2001,0.40021 -0.60031,0.40021 l -141.67511,0 c -0.20011,0 -0.40021,-0.20011 -0.40021,-0.40021 l 0,-71.03766 z m 1.00053,71.03766 -0.60032,-0.60032 141.67511,0 -0.40022,0.60032 0,-71.03766 0.40022,0.60032 -141.67511,0 0.60032,-0.60032"
       inkscape:connector-curvature="0" />
  </g>
  <g
     id="g5601"
     inkscape:groupmode="layer"
     inkscape:label="newlayer"
     transform="translate(0,-2.5390623e-6)" />
</svg>
