G04 #@! TF.FileFunction,Drawing*
%FSLAX46Y46*%
G04 Gerber Fmt 4.6, Leading zero omitted, Abs format (unit mm)*
G04 Created by KiCad (PCBNEW (2014-12-11 BZR 5320)-product) date Thu Jan 29 13:35:59 2015*
%MOMM*%
G01*
G04 APERTURE LIST*
%ADD10C,0.150000*%
%ADD11C,0.300000*%
%ADD12C,0.400000*%
%ADD13C,0.100000*%
%ADD14C,2.000000*%
%ADD15C,0.200000*%
G04 APERTURE END LIST*
D10*
X299989000Y-253002200D02*
X299989000Y-285002200D01*
X407989000Y-285002200D01*
X407989000Y-253002200D01*
X299989000Y-253002200D01*
X10000000Y-10000000D02*
X10000000Y-287002200D01*
X409989000Y-287002200D01*
X409989000Y-10000000D01*
X10000000Y-10000000D01*
X12000000Y-12000000D02*
X12000000Y-285002200D01*
X407989000Y-285002200D01*
X407989000Y-12000000D01*
X12000000Y-12000000D01*
X60000000Y-12000000D02*
X60000000Y-10000000D01*
X110000000Y-12000000D02*
X110000000Y-10000000D01*
X160000000Y-12000000D02*
X160000000Y-10000000D01*
X210000000Y-12000000D02*
X210000000Y-10000000D01*
X260000000Y-12000000D02*
X260000000Y-10000000D01*
X310000000Y-12000000D02*
X310000000Y-10000000D01*
X360000000Y-12000000D02*
X360000000Y-10000000D01*
X35990476Y-11588095D02*
X35247619Y-11588095D01*
X35619048Y-11588095D02*
X35619048Y-10288095D01*
X35495238Y-10473810D01*
X35371429Y-10597619D01*
X35247619Y-10659524D01*
X85247619Y-10411905D02*
X85309524Y-10350000D01*
X85433333Y-10288095D01*
X85742857Y-10288095D01*
X85866667Y-10350000D01*
X85928571Y-10411905D01*
X85990476Y-10535714D01*
X85990476Y-10659524D01*
X85928571Y-10845238D01*
X85185714Y-11588095D01*
X85990476Y-11588095D01*
X135185714Y-10288095D02*
X135990476Y-10288095D01*
X135557143Y-10783333D01*
X135742857Y-10783333D01*
X135866667Y-10845238D01*
X135928571Y-10907143D01*
X135990476Y-11030952D01*
X135990476Y-11340476D01*
X135928571Y-11464286D01*
X135866667Y-11526190D01*
X135742857Y-11588095D01*
X135371429Y-11588095D01*
X135247619Y-11526190D01*
X135185714Y-11464286D01*
X185866667Y-10721429D02*
X185866667Y-11588095D01*
X185557143Y-10226190D02*
X185247619Y-11154762D01*
X186052381Y-11154762D01*
X235928571Y-10288095D02*
X235309524Y-10288095D01*
X235247619Y-10907143D01*
X235309524Y-10845238D01*
X235433333Y-10783333D01*
X235742857Y-10783333D01*
X235866667Y-10845238D01*
X235928571Y-10907143D01*
X235990476Y-11030952D01*
X235990476Y-11340476D01*
X235928571Y-11464286D01*
X235866667Y-11526190D01*
X235742857Y-11588095D01*
X235433333Y-11588095D01*
X235309524Y-11526190D01*
X235247619Y-11464286D01*
X285866667Y-10288095D02*
X285619048Y-10288095D01*
X285495238Y-10350000D01*
X285433333Y-10411905D01*
X285309524Y-10597619D01*
X285247619Y-10845238D01*
X285247619Y-11340476D01*
X285309524Y-11464286D01*
X285371429Y-11526190D01*
X285495238Y-11588095D01*
X285742857Y-11588095D01*
X285866667Y-11526190D01*
X285928571Y-11464286D01*
X285990476Y-11340476D01*
X285990476Y-11030952D01*
X285928571Y-10907143D01*
X285866667Y-10845238D01*
X285742857Y-10783333D01*
X285495238Y-10783333D01*
X285371429Y-10845238D01*
X285309524Y-10907143D01*
X285247619Y-11030952D01*
X335185714Y-10288095D02*
X336052381Y-10288095D01*
X335495238Y-11588095D01*
X385495238Y-10845238D02*
X385371429Y-10783333D01*
X385309524Y-10721429D01*
X385247619Y-10597619D01*
X385247619Y-10535714D01*
X385309524Y-10411905D01*
X385371429Y-10350000D01*
X385495238Y-10288095D01*
X385742857Y-10288095D01*
X385866667Y-10350000D01*
X385928571Y-10411905D01*
X385990476Y-10535714D01*
X385990476Y-10597619D01*
X385928571Y-10721429D01*
X385866667Y-10783333D01*
X385742857Y-10845238D01*
X385495238Y-10845238D01*
X385371429Y-10907143D01*
X385309524Y-10969048D01*
X385247619Y-11092857D01*
X385247619Y-11340476D01*
X385309524Y-11464286D01*
X385371429Y-11526190D01*
X385495238Y-11588095D01*
X385742857Y-11588095D01*
X385866667Y-11526190D01*
X385928571Y-11464286D01*
X385990476Y-11340476D01*
X385990476Y-11092857D01*
X385928571Y-10969048D01*
X385866667Y-10907143D01*
X385742857Y-10845238D01*
X60000000Y-285002200D02*
X60000000Y-287002200D01*
X110000000Y-285002200D02*
X110000000Y-287002200D01*
X160000000Y-285002200D02*
X160000000Y-287002200D01*
X210000000Y-285002200D02*
X210000000Y-287002200D01*
X260000000Y-285002200D02*
X260000000Y-287002200D01*
X310000000Y-285002200D02*
X310000000Y-287002200D01*
X360000000Y-285002200D02*
X360000000Y-287002200D01*
X35990476Y-286590295D02*
X35247619Y-286590295D01*
X35619048Y-286590295D02*
X35619048Y-285290295D01*
X35495238Y-285476010D01*
X35371429Y-285599819D01*
X35247619Y-285661724D01*
X85247619Y-285414105D02*
X85309524Y-285352200D01*
X85433333Y-285290295D01*
X85742857Y-285290295D01*
X85866667Y-285352200D01*
X85928571Y-285414105D01*
X85990476Y-285537914D01*
X85990476Y-285661724D01*
X85928571Y-285847438D01*
X85185714Y-286590295D01*
X85990476Y-286590295D01*
X135185714Y-285290295D02*
X135990476Y-285290295D01*
X135557143Y-285785533D01*
X135742857Y-285785533D01*
X135866667Y-285847438D01*
X135928571Y-285909343D01*
X135990476Y-286033152D01*
X135990476Y-286342676D01*
X135928571Y-286466486D01*
X135866667Y-286528390D01*
X135742857Y-286590295D01*
X135371429Y-286590295D01*
X135247619Y-286528390D01*
X135185714Y-286466486D01*
X185866667Y-285723629D02*
X185866667Y-286590295D01*
X185557143Y-285228390D02*
X185247619Y-286156962D01*
X186052381Y-286156962D01*
X235928571Y-285290295D02*
X235309524Y-285290295D01*
X235247619Y-285909343D01*
X235309524Y-285847438D01*
X235433333Y-285785533D01*
X235742857Y-285785533D01*
X235866667Y-285847438D01*
X235928571Y-285909343D01*
X235990476Y-286033152D01*
X235990476Y-286342676D01*
X235928571Y-286466486D01*
X235866667Y-286528390D01*
X235742857Y-286590295D01*
X235433333Y-286590295D01*
X235309524Y-286528390D01*
X235247619Y-286466486D01*
X285866667Y-285290295D02*
X285619048Y-285290295D01*
X285495238Y-285352200D01*
X285433333Y-285414105D01*
X285309524Y-285599819D01*
X285247619Y-285847438D01*
X285247619Y-286342676D01*
X285309524Y-286466486D01*
X285371429Y-286528390D01*
X285495238Y-286590295D01*
X285742857Y-286590295D01*
X285866667Y-286528390D01*
X285928571Y-286466486D01*
X285990476Y-286342676D01*
X285990476Y-286033152D01*
X285928571Y-285909343D01*
X285866667Y-285847438D01*
X285742857Y-285785533D01*
X285495238Y-285785533D01*
X285371429Y-285847438D01*
X285309524Y-285909343D01*
X285247619Y-286033152D01*
X335185714Y-285290295D02*
X336052381Y-285290295D01*
X335495238Y-286590295D01*
X385495238Y-285847438D02*
X385371429Y-285785533D01*
X385309524Y-285723629D01*
X385247619Y-285599819D01*
X385247619Y-285537914D01*
X385309524Y-285414105D01*
X385371429Y-285352200D01*
X385495238Y-285290295D01*
X385742857Y-285290295D01*
X385866667Y-285352200D01*
X385928571Y-285414105D01*
X385990476Y-285537914D01*
X385990476Y-285599819D01*
X385928571Y-285723629D01*
X385866667Y-285785533D01*
X385742857Y-285847438D01*
X385495238Y-285847438D01*
X385371429Y-285909343D01*
X385309524Y-285971248D01*
X385247619Y-286095057D01*
X385247619Y-286342676D01*
X385309524Y-286466486D01*
X385371429Y-286528390D01*
X385495238Y-286590295D01*
X385742857Y-286590295D01*
X385866667Y-286528390D01*
X385928571Y-286466486D01*
X385990476Y-286342676D01*
X385990476Y-286095057D01*
X385928571Y-285971248D01*
X385866667Y-285909343D01*
X385742857Y-285847438D01*
X10000000Y-60000000D02*
X12000000Y-60000000D01*
X10000000Y-110000000D02*
X12000000Y-110000000D01*
X10000000Y-160000000D02*
X12000000Y-160000000D01*
X10000000Y-210000000D02*
X12000000Y-210000000D01*
X10000000Y-260000000D02*
X12000000Y-260000000D01*
X10690476Y-35216667D02*
X11309524Y-35216667D01*
X10566667Y-35588095D02*
X11000000Y-34288095D01*
X11433333Y-35588095D01*
X11092857Y-84907143D02*
X11278571Y-84969048D01*
X11340476Y-85030952D01*
X11402381Y-85154762D01*
X11402381Y-85340476D01*
X11340476Y-85464286D01*
X11278571Y-85526190D01*
X11154762Y-85588095D01*
X10659524Y-85588095D01*
X10659524Y-84288095D01*
X11092857Y-84288095D01*
X11216667Y-84350000D01*
X11278571Y-84411905D01*
X11340476Y-84535714D01*
X11340476Y-84659524D01*
X11278571Y-84783333D01*
X11216667Y-84845238D01*
X11092857Y-84907143D01*
X10659524Y-84907143D01*
X11402381Y-135464286D02*
X11340476Y-135526190D01*
X11154762Y-135588095D01*
X11030952Y-135588095D01*
X10845238Y-135526190D01*
X10721429Y-135402381D01*
X10659524Y-135278571D01*
X10597619Y-135030952D01*
X10597619Y-134845238D01*
X10659524Y-134597619D01*
X10721429Y-134473810D01*
X10845238Y-134350000D01*
X11030952Y-134288095D01*
X11154762Y-134288095D01*
X11340476Y-134350000D01*
X11402381Y-134411905D01*
X10659524Y-185588095D02*
X10659524Y-184288095D01*
X10969048Y-184288095D01*
X11154762Y-184350000D01*
X11278571Y-184473810D01*
X11340476Y-184597619D01*
X11402381Y-184845238D01*
X11402381Y-185030952D01*
X11340476Y-185278571D01*
X11278571Y-185402381D01*
X11154762Y-185526190D01*
X10969048Y-185588095D01*
X10659524Y-185588095D01*
X10721429Y-234907143D02*
X11154762Y-234907143D01*
X11340476Y-235588095D02*
X10721429Y-235588095D01*
X10721429Y-234288095D01*
X11340476Y-234288095D01*
X11185714Y-284907143D02*
X10752381Y-284907143D01*
X10752381Y-285588095D02*
X10752381Y-284288095D01*
X11371428Y-284288095D01*
X409989000Y-60000000D02*
X407989000Y-60000000D01*
X409989000Y-110000000D02*
X407989000Y-110000000D01*
X409989000Y-160000000D02*
X407989000Y-160000000D01*
X409989000Y-210000000D02*
X407989000Y-210000000D01*
X409989000Y-260000000D02*
X407989000Y-260000000D01*
X408679476Y-35216667D02*
X409298524Y-35216667D01*
X408555667Y-35588095D02*
X408989000Y-34288095D01*
X409422333Y-35588095D01*
X409081857Y-84907143D02*
X409267571Y-84969048D01*
X409329476Y-85030952D01*
X409391381Y-85154762D01*
X409391381Y-85340476D01*
X409329476Y-85464286D01*
X409267571Y-85526190D01*
X409143762Y-85588095D01*
X408648524Y-85588095D01*
X408648524Y-84288095D01*
X409081857Y-84288095D01*
X409205667Y-84350000D01*
X409267571Y-84411905D01*
X409329476Y-84535714D01*
X409329476Y-84659524D01*
X409267571Y-84783333D01*
X409205667Y-84845238D01*
X409081857Y-84907143D01*
X408648524Y-84907143D01*
X409391381Y-135464286D02*
X409329476Y-135526190D01*
X409143762Y-135588095D01*
X409019952Y-135588095D01*
X408834238Y-135526190D01*
X408710429Y-135402381D01*
X408648524Y-135278571D01*
X408586619Y-135030952D01*
X408586619Y-134845238D01*
X408648524Y-134597619D01*
X408710429Y-134473810D01*
X408834238Y-134350000D01*
X409019952Y-134288095D01*
X409143762Y-134288095D01*
X409329476Y-134350000D01*
X409391381Y-134411905D01*
X408648524Y-185588095D02*
X408648524Y-184288095D01*
X408958048Y-184288095D01*
X409143762Y-184350000D01*
X409267571Y-184473810D01*
X409329476Y-184597619D01*
X409391381Y-184845238D01*
X409391381Y-185030952D01*
X409329476Y-185278571D01*
X409267571Y-185402381D01*
X409143762Y-185526190D01*
X408958048Y-185588095D01*
X408648524Y-185588095D01*
X408710429Y-234907143D02*
X409143762Y-234907143D01*
X409329476Y-235588095D02*
X408710429Y-235588095D01*
X408710429Y-234288095D01*
X409329476Y-234288095D01*
X409174714Y-284907143D02*
X408741381Y-284907143D01*
X408741381Y-285588095D02*
X408741381Y-284288095D01*
X409360428Y-284288095D01*
X323346143Y-280780771D02*
X323346143Y-279280771D01*
X323703286Y-279280771D01*
X323917571Y-279352200D01*
X324060429Y-279495057D01*
X324131857Y-279637914D01*
X324203286Y-279923629D01*
X324203286Y-280137914D01*
X324131857Y-280423629D01*
X324060429Y-280566486D01*
X323917571Y-280709343D01*
X323703286Y-280780771D01*
X323346143Y-280780771D01*
X325489000Y-280780771D02*
X325489000Y-279995057D01*
X325417571Y-279852200D01*
X325274714Y-279780771D01*
X324989000Y-279780771D01*
X324846143Y-279852200D01*
X325489000Y-280709343D02*
X325346143Y-280780771D01*
X324989000Y-280780771D01*
X324846143Y-280709343D01*
X324774714Y-280566486D01*
X324774714Y-280423629D01*
X324846143Y-280280771D01*
X324989000Y-280209343D01*
X325346143Y-280209343D01*
X325489000Y-280137914D01*
X325989000Y-279780771D02*
X326560429Y-279780771D01*
X326203286Y-279280771D02*
X326203286Y-280566486D01*
X326274714Y-280709343D01*
X326417572Y-280780771D01*
X326560429Y-280780771D01*
X327631857Y-280709343D02*
X327489000Y-280780771D01*
X327203286Y-280780771D01*
X327060429Y-280709343D01*
X326989000Y-280566486D01*
X326989000Y-279995057D01*
X327060429Y-279852200D01*
X327203286Y-279780771D01*
X327489000Y-279780771D01*
X327631857Y-279852200D01*
X327703286Y-279995057D01*
X327703286Y-280137914D01*
X326989000Y-280280771D01*
X328346143Y-280637914D02*
X328417571Y-280709343D01*
X328346143Y-280780771D01*
X328274714Y-280709343D01*
X328346143Y-280637914D01*
X328346143Y-280780771D01*
X328346143Y-279852200D02*
X328417571Y-279923629D01*
X328346143Y-279995057D01*
X328274714Y-279923629D01*
X328346143Y-279852200D01*
X328346143Y-279995057D01*
X299989000Y-281502200D02*
X407989000Y-281502200D01*
X301346143Y-283580771D02*
X301346143Y-282080771D01*
X302203286Y-283580771D02*
X301560429Y-282723629D01*
X302203286Y-282080771D02*
X301346143Y-282937914D01*
X302846143Y-283580771D02*
X302846143Y-282580771D01*
X302846143Y-282080771D02*
X302774714Y-282152200D01*
X302846143Y-282223629D01*
X302917571Y-282152200D01*
X302846143Y-282080771D01*
X302846143Y-282223629D01*
X304417572Y-283437914D02*
X304346143Y-283509343D01*
X304131857Y-283580771D01*
X303989000Y-283580771D01*
X303774715Y-283509343D01*
X303631857Y-283366486D01*
X303560429Y-283223629D01*
X303489000Y-282937914D01*
X303489000Y-282723629D01*
X303560429Y-282437914D01*
X303631857Y-282295057D01*
X303774715Y-282152200D01*
X303989000Y-282080771D01*
X304131857Y-282080771D01*
X304346143Y-282152200D01*
X304417572Y-282223629D01*
X305703286Y-283580771D02*
X305703286Y-282795057D01*
X305631857Y-282652200D01*
X305489000Y-282580771D01*
X305203286Y-282580771D01*
X305060429Y-282652200D01*
X305703286Y-283509343D02*
X305560429Y-283580771D01*
X305203286Y-283580771D01*
X305060429Y-283509343D01*
X304989000Y-283366486D01*
X304989000Y-283223629D01*
X305060429Y-283080771D01*
X305203286Y-283009343D01*
X305560429Y-283009343D01*
X305703286Y-282937914D01*
X307060429Y-283580771D02*
X307060429Y-282080771D01*
X307060429Y-283509343D02*
X306917572Y-283580771D01*
X306631858Y-283580771D01*
X306489000Y-283509343D01*
X306417572Y-283437914D01*
X306346143Y-283295057D01*
X306346143Y-282866486D01*
X306417572Y-282723629D01*
X306489000Y-282652200D01*
X306631858Y-282580771D01*
X306917572Y-282580771D01*
X307060429Y-282652200D01*
X308917572Y-282795057D02*
X309417572Y-282795057D01*
X309631858Y-283580771D02*
X308917572Y-283580771D01*
X308917572Y-282080771D01*
X309631858Y-282080771D01*
X310274715Y-283437914D02*
X310346143Y-283509343D01*
X310274715Y-283580771D01*
X310203286Y-283509343D01*
X310274715Y-283437914D01*
X310274715Y-283580771D01*
X310989001Y-283580771D02*
X310989001Y-282080771D01*
X311346144Y-282080771D01*
X311560429Y-282152200D01*
X311703287Y-282295057D01*
X311774715Y-282437914D01*
X311846144Y-282723629D01*
X311846144Y-282937914D01*
X311774715Y-283223629D01*
X311703287Y-283366486D01*
X311560429Y-283509343D01*
X311346144Y-283580771D01*
X310989001Y-283580771D01*
X312489001Y-283437914D02*
X312560429Y-283509343D01*
X312489001Y-283580771D01*
X312417572Y-283509343D01*
X312489001Y-283437914D01*
X312489001Y-283580771D01*
X313131858Y-283152200D02*
X313846144Y-283152200D01*
X312989001Y-283580771D02*
X313489001Y-282080771D01*
X313989001Y-283580771D01*
X314489001Y-283437914D02*
X314560429Y-283509343D01*
X314489001Y-283580771D01*
X314417572Y-283509343D01*
X314489001Y-283437914D01*
X314489001Y-283580771D01*
X317489001Y-283580771D02*
X317489001Y-282080771D01*
X317631858Y-283009343D02*
X318060429Y-283580771D01*
X318060429Y-282580771D02*
X317489001Y-283152200D01*
X318703287Y-283580771D02*
X318703287Y-282580771D01*
X318703287Y-282080771D02*
X318631858Y-282152200D01*
X318703287Y-282223629D01*
X318774715Y-282152200D01*
X318703287Y-282080771D01*
X318703287Y-282223629D01*
X320060430Y-283509343D02*
X319917573Y-283580771D01*
X319631859Y-283580771D01*
X319489001Y-283509343D01*
X319417573Y-283437914D01*
X319346144Y-283295057D01*
X319346144Y-282866486D01*
X319417573Y-282723629D01*
X319489001Y-282652200D01*
X319631859Y-282580771D01*
X319917573Y-282580771D01*
X320060430Y-282652200D01*
X321346144Y-283580771D02*
X321346144Y-282795057D01*
X321274715Y-282652200D01*
X321131858Y-282580771D01*
X320846144Y-282580771D01*
X320703287Y-282652200D01*
X321346144Y-283509343D02*
X321203287Y-283580771D01*
X320846144Y-283580771D01*
X320703287Y-283509343D01*
X320631858Y-283366486D01*
X320631858Y-283223629D01*
X320703287Y-283080771D01*
X320846144Y-283009343D01*
X321203287Y-283009343D01*
X321346144Y-282937914D01*
X322703287Y-283580771D02*
X322703287Y-282080771D01*
X322703287Y-283509343D02*
X322560430Y-283580771D01*
X322274716Y-283580771D01*
X322131858Y-283509343D01*
X322060430Y-283437914D01*
X321989001Y-283295057D01*
X321989001Y-282866486D01*
X322060430Y-282723629D01*
X322131858Y-282652200D01*
X322274716Y-282580771D01*
X322560430Y-282580771D01*
X322703287Y-282652200D01*
X324989001Y-284152200D02*
X324917573Y-284080771D01*
X324774716Y-283866486D01*
X324703287Y-283723629D01*
X324631858Y-283509343D01*
X324560430Y-283152200D01*
X324560430Y-282866486D01*
X324631858Y-282509343D01*
X324703287Y-282295057D01*
X324774716Y-282152200D01*
X324917573Y-281937914D01*
X324989001Y-281866486D01*
X325489001Y-282223629D02*
X325560430Y-282152200D01*
X325703287Y-282080771D01*
X326060430Y-282080771D01*
X326203287Y-282152200D01*
X326274716Y-282223629D01*
X326346144Y-282366486D01*
X326346144Y-282509343D01*
X326274716Y-282723629D01*
X325417573Y-283580771D01*
X326346144Y-283580771D01*
X327274715Y-282080771D02*
X327417572Y-282080771D01*
X327560429Y-282152200D01*
X327631858Y-282223629D01*
X327703287Y-282366486D01*
X327774715Y-282652200D01*
X327774715Y-283009343D01*
X327703287Y-283295057D01*
X327631858Y-283437914D01*
X327560429Y-283509343D01*
X327417572Y-283580771D01*
X327274715Y-283580771D01*
X327131858Y-283509343D01*
X327060429Y-283437914D01*
X326989001Y-283295057D01*
X326917572Y-283009343D01*
X326917572Y-282652200D01*
X326989001Y-282366486D01*
X327060429Y-282223629D01*
X327131858Y-282152200D01*
X327274715Y-282080771D01*
X329203286Y-283580771D02*
X328346143Y-283580771D01*
X328774715Y-283580771D02*
X328774715Y-282080771D01*
X328631858Y-282295057D01*
X328489000Y-282437914D01*
X328346143Y-282509343D01*
X330489000Y-282580771D02*
X330489000Y-283580771D01*
X330131857Y-282009343D02*
X329774714Y-283080771D01*
X330703286Y-283080771D01*
X331274714Y-283009343D02*
X332417571Y-283009343D01*
X333917571Y-283580771D02*
X333060428Y-283580771D01*
X333489000Y-283580771D02*
X333489000Y-282080771D01*
X333346143Y-282295057D01*
X333203285Y-282437914D01*
X333060428Y-282509343D01*
X334488999Y-282223629D02*
X334560428Y-282152200D01*
X334703285Y-282080771D01*
X335060428Y-282080771D01*
X335203285Y-282152200D01*
X335274714Y-282223629D01*
X335346142Y-282366486D01*
X335346142Y-282509343D01*
X335274714Y-282723629D01*
X334417571Y-283580771D01*
X335346142Y-283580771D01*
X335988999Y-283009343D02*
X337131856Y-283009343D01*
X338631856Y-283580771D02*
X337774713Y-283580771D01*
X338203285Y-283580771D02*
X338203285Y-282080771D01*
X338060428Y-282295057D01*
X337917570Y-282437914D01*
X337774713Y-282509343D01*
X340060427Y-283580771D02*
X339203284Y-283580771D01*
X339631856Y-283580771D02*
X339631856Y-282080771D01*
X339488999Y-282295057D01*
X339346141Y-282437914D01*
X339203284Y-282509343D01*
X342346141Y-282795057D02*
X342560427Y-282866486D01*
X342631855Y-282937914D01*
X342703284Y-283080771D01*
X342703284Y-283295057D01*
X342631855Y-283437914D01*
X342560427Y-283509343D01*
X342417569Y-283580771D01*
X341846141Y-283580771D01*
X341846141Y-282080771D01*
X342346141Y-282080771D01*
X342488998Y-282152200D01*
X342560427Y-282223629D01*
X342631855Y-282366486D01*
X342631855Y-282509343D01*
X342560427Y-282652200D01*
X342488998Y-282723629D01*
X342346141Y-282795057D01*
X341846141Y-282795057D01*
X343203284Y-282080771D02*
X344203284Y-282080771D01*
X343203284Y-283580771D01*
X344203284Y-283580771D01*
X345631855Y-283580771D02*
X345131855Y-282866486D01*
X344774712Y-283580771D02*
X344774712Y-282080771D01*
X345346140Y-282080771D01*
X345488998Y-282152200D01*
X345560426Y-282223629D01*
X345631855Y-282366486D01*
X345631855Y-282580771D01*
X345560426Y-282723629D01*
X345488998Y-282795057D01*
X345346140Y-282866486D01*
X344774712Y-282866486D01*
X348131855Y-282080771D02*
X347417569Y-282080771D01*
X347346140Y-282795057D01*
X347417569Y-282723629D01*
X347560426Y-282652200D01*
X347917569Y-282652200D01*
X348060426Y-282723629D01*
X348131855Y-282795057D01*
X348203283Y-282937914D01*
X348203283Y-283295057D01*
X348131855Y-283437914D01*
X348060426Y-283509343D01*
X347917569Y-283580771D01*
X347560426Y-283580771D01*
X347417569Y-283509343D01*
X347346140Y-283437914D01*
X348703283Y-282080771D02*
X349631854Y-282080771D01*
X349131854Y-282652200D01*
X349346140Y-282652200D01*
X349488997Y-282723629D01*
X349560426Y-282795057D01*
X349631854Y-282937914D01*
X349631854Y-283295057D01*
X349560426Y-283437914D01*
X349488997Y-283509343D01*
X349346140Y-283580771D01*
X348917568Y-283580771D01*
X348774711Y-283509343D01*
X348703283Y-283437914D01*
X350203282Y-282223629D02*
X350274711Y-282152200D01*
X350417568Y-282080771D01*
X350774711Y-282080771D01*
X350917568Y-282152200D01*
X350988997Y-282223629D01*
X351060425Y-282366486D01*
X351060425Y-282509343D01*
X350988997Y-282723629D01*
X350131854Y-283580771D01*
X351060425Y-283580771D01*
X351988996Y-282080771D02*
X352131853Y-282080771D01*
X352274710Y-282152200D01*
X352346139Y-282223629D01*
X352417568Y-282366486D01*
X352488996Y-282652200D01*
X352488996Y-283009343D01*
X352417568Y-283295057D01*
X352346139Y-283437914D01*
X352274710Y-283509343D01*
X352131853Y-283580771D01*
X351988996Y-283580771D01*
X351846139Y-283509343D01*
X351774710Y-283437914D01*
X351703282Y-283295057D01*
X351631853Y-283009343D01*
X351631853Y-282652200D01*
X351703282Y-282366486D01*
X351774710Y-282223629D01*
X351846139Y-282152200D01*
X351988996Y-282080771D01*
X352988996Y-284152200D02*
X353060424Y-284080771D01*
X353203281Y-283866486D01*
X353274710Y-283723629D01*
X353346139Y-283509343D01*
X353417567Y-283152200D01*
X353417567Y-282866486D01*
X353346139Y-282509343D01*
X353274710Y-282295057D01*
X353203281Y-282152200D01*
X353060424Y-281937914D01*
X352988996Y-281866486D01*
X354131853Y-283009343D02*
X355274710Y-283009343D01*
X355988996Y-282580771D02*
X355988996Y-284080771D01*
X355988996Y-282652200D02*
X356131853Y-282580771D01*
X356417567Y-282580771D01*
X356560424Y-282652200D01*
X356631853Y-282723629D01*
X356703282Y-282866486D01*
X356703282Y-283295057D01*
X356631853Y-283437914D01*
X356560424Y-283509343D01*
X356417567Y-283580771D01*
X356131853Y-283580771D01*
X355988996Y-283509343D01*
X357346139Y-283580771D02*
X357346139Y-282580771D01*
X357346139Y-282866486D02*
X357417567Y-282723629D01*
X357488996Y-282652200D01*
X357631853Y-282580771D01*
X357774710Y-282580771D01*
X358488996Y-283580771D02*
X358346138Y-283509343D01*
X358274710Y-283437914D01*
X358203281Y-283295057D01*
X358203281Y-282866486D01*
X358274710Y-282723629D01*
X358346138Y-282652200D01*
X358488996Y-282580771D01*
X358703281Y-282580771D01*
X358846138Y-282652200D01*
X358917567Y-282723629D01*
X358988996Y-282866486D01*
X358988996Y-283295057D01*
X358917567Y-283437914D01*
X358846138Y-283509343D01*
X358703281Y-283580771D01*
X358488996Y-283580771D01*
X360274710Y-283580771D02*
X360274710Y-282080771D01*
X360274710Y-283509343D02*
X360131853Y-283580771D01*
X359846139Y-283580771D01*
X359703281Y-283509343D01*
X359631853Y-283437914D01*
X359560424Y-283295057D01*
X359560424Y-282866486D01*
X359631853Y-282723629D01*
X359703281Y-282652200D01*
X359846139Y-282580771D01*
X360131853Y-282580771D01*
X360274710Y-282652200D01*
X361631853Y-282580771D02*
X361631853Y-283580771D01*
X360988996Y-282580771D02*
X360988996Y-283366486D01*
X361060424Y-283509343D01*
X361203282Y-283580771D01*
X361417567Y-283580771D01*
X361560424Y-283509343D01*
X361631853Y-283437914D01*
X362988996Y-283509343D02*
X362846139Y-283580771D01*
X362560425Y-283580771D01*
X362417567Y-283509343D01*
X362346139Y-283437914D01*
X362274710Y-283295057D01*
X362274710Y-282866486D01*
X362346139Y-282723629D01*
X362417567Y-282652200D01*
X362560425Y-282580771D01*
X362846139Y-282580771D01*
X362988996Y-282652200D01*
X363417567Y-282580771D02*
X363988996Y-282580771D01*
X363631853Y-282080771D02*
X363631853Y-283366486D01*
X363703281Y-283509343D01*
X363846139Y-283580771D01*
X363988996Y-283580771D01*
X299989000Y-278502200D02*
X407989000Y-278502200D01*
D11*
X387203286Y-280780771D02*
X386703286Y-280066486D01*
X386346143Y-280780771D02*
X386346143Y-279280771D01*
X386917571Y-279280771D01*
X387060429Y-279352200D01*
X387131857Y-279423629D01*
X387203286Y-279566486D01*
X387203286Y-279780771D01*
X387131857Y-279923629D01*
X387060429Y-279995057D01*
X386917571Y-280066486D01*
X386346143Y-280066486D01*
X388417571Y-280709343D02*
X388274714Y-280780771D01*
X387989000Y-280780771D01*
X387846143Y-280709343D01*
X387774714Y-280566486D01*
X387774714Y-279995057D01*
X387846143Y-279852200D01*
X387989000Y-279780771D01*
X388274714Y-279780771D01*
X388417571Y-279852200D01*
X388489000Y-279995057D01*
X388489000Y-280137914D01*
X387774714Y-280280771D01*
X388989000Y-279780771D02*
X389346143Y-280780771D01*
X389703285Y-279780771D01*
X390274714Y-280637914D02*
X390346142Y-280709343D01*
X390274714Y-280780771D01*
X390203285Y-280709343D01*
X390274714Y-280637914D01*
X390274714Y-280780771D01*
X390274714Y-279852200D02*
X390346142Y-279923629D01*
X390274714Y-279995057D01*
X390203285Y-279923629D01*
X390274714Y-279852200D01*
X390274714Y-279995057D01*
D10*
X301274714Y-280709343D02*
X301489000Y-280780771D01*
X301846143Y-280780771D01*
X301989000Y-280709343D01*
X302060429Y-280637914D01*
X302131857Y-280495057D01*
X302131857Y-280352200D01*
X302060429Y-280209343D01*
X301989000Y-280137914D01*
X301846143Y-280066486D01*
X301560429Y-279995057D01*
X301417571Y-279923629D01*
X301346143Y-279852200D01*
X301274714Y-279709343D01*
X301274714Y-279566486D01*
X301346143Y-279423629D01*
X301417571Y-279352200D01*
X301560429Y-279280771D01*
X301917571Y-279280771D01*
X302131857Y-279352200D01*
X302774714Y-280780771D02*
X302774714Y-279780771D01*
X302774714Y-279280771D02*
X302703285Y-279352200D01*
X302774714Y-279423629D01*
X302846142Y-279352200D01*
X302774714Y-279280771D01*
X302774714Y-279423629D01*
X303346143Y-279780771D02*
X304131857Y-279780771D01*
X303346143Y-280780771D01*
X304131857Y-280780771D01*
X305274714Y-280709343D02*
X305131857Y-280780771D01*
X304846143Y-280780771D01*
X304703286Y-280709343D01*
X304631857Y-280566486D01*
X304631857Y-279995057D01*
X304703286Y-279852200D01*
X304846143Y-279780771D01*
X305131857Y-279780771D01*
X305274714Y-279852200D01*
X305346143Y-279995057D01*
X305346143Y-280137914D01*
X304631857Y-280280771D01*
X305989000Y-280637914D02*
X306060428Y-280709343D01*
X305989000Y-280780771D01*
X305917571Y-280709343D01*
X305989000Y-280637914D01*
X305989000Y-280780771D01*
X305989000Y-279852200D02*
X306060428Y-279923629D01*
X305989000Y-279995057D01*
X305917571Y-279923629D01*
X305989000Y-279852200D01*
X305989000Y-279995057D01*
X307774714Y-280352200D02*
X308489000Y-280352200D01*
X307631857Y-280780771D02*
X308131857Y-279280771D01*
X308631857Y-280780771D01*
X308989000Y-279280771D02*
X309917571Y-279280771D01*
X309417571Y-279852200D01*
X309631857Y-279852200D01*
X309774714Y-279923629D01*
X309846143Y-279995057D01*
X309917571Y-280137914D01*
X309917571Y-280495057D01*
X309846143Y-280637914D01*
X309774714Y-280709343D01*
X309631857Y-280780771D01*
X309203285Y-280780771D01*
X309060428Y-280709343D01*
X308989000Y-280637914D01*
X386346143Y-283580771D02*
X386346143Y-282080771D01*
X387703286Y-283580771D02*
X387703286Y-282080771D01*
X387703286Y-283509343D02*
X387560429Y-283580771D01*
X387274715Y-283580771D01*
X387131857Y-283509343D01*
X387060429Y-283437914D01*
X386989000Y-283295057D01*
X386989000Y-282866486D01*
X387060429Y-282723629D01*
X387131857Y-282652200D01*
X387274715Y-282580771D01*
X387560429Y-282580771D01*
X387703286Y-282652200D01*
X388417572Y-283437914D02*
X388489000Y-283509343D01*
X388417572Y-283580771D01*
X388346143Y-283509343D01*
X388417572Y-283437914D01*
X388417572Y-283580771D01*
X388417572Y-282652200D02*
X388489000Y-282723629D01*
X388417572Y-282795057D01*
X388346143Y-282723629D01*
X388417572Y-282652200D01*
X388417572Y-282795057D01*
X391060429Y-283580771D02*
X390203286Y-283580771D01*
X390631858Y-283580771D02*
X390631858Y-282080771D01*
X390489001Y-282295057D01*
X390346143Y-282437914D01*
X390203286Y-282509343D01*
X392774714Y-282009343D02*
X391489000Y-283937914D01*
X394060429Y-283580771D02*
X393203286Y-283580771D01*
X393631858Y-283580771D02*
X393631858Y-282080771D01*
X393489001Y-282295057D01*
X393346143Y-282437914D01*
X393203286Y-282509343D01*
X299989000Y-274502200D02*
X407989000Y-274502200D01*
D12*
X301441381Y-275206962D02*
X302584238Y-275206962D01*
X301762810Y-277206962D02*
X302012810Y-275206962D01*
X303000905Y-277206962D02*
X303167571Y-275873629D01*
X303250905Y-275206962D02*
X303143762Y-275302200D01*
X303227095Y-275397438D01*
X303334239Y-275302200D01*
X303250905Y-275206962D01*
X303227095Y-275397438D01*
X303834238Y-275873629D02*
X304596143Y-275873629D01*
X304203286Y-275206962D02*
X303989000Y-276921248D01*
X304060430Y-277111724D01*
X304239001Y-277206962D01*
X304429477Y-277206962D01*
X305381858Y-277206962D02*
X305203287Y-277111724D01*
X305131857Y-276921248D01*
X305346143Y-275206962D01*
X306917572Y-277111724D02*
X306715191Y-277206962D01*
X306334239Y-277206962D01*
X306155667Y-277111724D01*
X306084238Y-276921248D01*
X306179476Y-276159343D01*
X306298524Y-275968867D01*
X306500905Y-275873629D01*
X306881857Y-275873629D01*
X307060429Y-275968867D01*
X307131857Y-276159343D01*
X307108048Y-276349819D01*
X306131857Y-276540295D01*
X307881857Y-277016486D02*
X307965192Y-277111724D01*
X307858048Y-277206962D01*
X307774715Y-277111724D01*
X307881857Y-277016486D01*
X307858048Y-277206962D01*
X308012810Y-275968867D02*
X308096144Y-276064105D01*
X307989000Y-276159343D01*
X307905667Y-276064105D01*
X308012810Y-275968867D01*
X307989000Y-276159343D01*
X311500906Y-277016486D02*
X311393764Y-277111724D01*
X311096144Y-277206962D01*
X310905668Y-277206962D01*
X310631859Y-277111724D01*
X310465192Y-276921248D01*
X310393763Y-276730771D01*
X310346144Y-276349819D01*
X310381858Y-276064105D01*
X310524715Y-275683152D01*
X310643764Y-275492676D01*
X310858049Y-275302200D01*
X311155668Y-275206962D01*
X311346144Y-275206962D01*
X311619954Y-275302200D01*
X311703287Y-275397438D01*
X312619954Y-277206962D02*
X312441383Y-277111724D01*
X312369953Y-276921248D01*
X312584239Y-275206962D01*
X313667573Y-277206962D02*
X313489002Y-277111724D01*
X313405667Y-277016486D01*
X313334239Y-276826010D01*
X313405667Y-276254581D01*
X313524715Y-276064105D01*
X313631859Y-275968867D01*
X313834239Y-275873629D01*
X314119953Y-275873629D01*
X314298525Y-275968867D01*
X314381858Y-276064105D01*
X314453286Y-276254581D01*
X314381858Y-276826010D01*
X314262810Y-277016486D01*
X314155668Y-277111724D01*
X313953287Y-277206962D01*
X313667573Y-277206962D01*
X316060430Y-277111724D02*
X315858049Y-277206962D01*
X315477097Y-277206962D01*
X315298526Y-277111724D01*
X315215191Y-277016486D01*
X315143763Y-276826010D01*
X315215191Y-276254581D01*
X315334239Y-276064105D01*
X315441383Y-275968867D01*
X315643763Y-275873629D01*
X316024715Y-275873629D01*
X316203287Y-275968867D01*
X316905668Y-277206962D02*
X317155668Y-275206962D01*
X317191383Y-276445057D02*
X317667573Y-277206962D01*
X317834239Y-275873629D02*
X316977096Y-276635533D01*
X319322335Y-276159343D02*
X318655668Y-276159343D01*
X318524716Y-277206962D02*
X318774716Y-275206962D01*
X319727097Y-275206962D01*
X320869955Y-275206962D02*
X321250907Y-275206962D01*
X321429478Y-275302200D01*
X321596146Y-275492676D01*
X321643764Y-275873629D01*
X321560431Y-276540295D01*
X321417574Y-276921248D01*
X321203288Y-277111724D01*
X321000907Y-277206962D01*
X320619955Y-277206962D01*
X320441384Y-277111724D01*
X320274716Y-276921248D01*
X320227097Y-276540295D01*
X320310430Y-275873629D01*
X320453288Y-275492676D01*
X320667574Y-275302200D01*
X320869955Y-275206962D01*
X322584240Y-275206962D02*
X322381859Y-276826010D01*
X322453288Y-277016486D01*
X322536622Y-277111724D01*
X322715193Y-277206962D01*
X323096145Y-277206962D01*
X323298526Y-277111724D01*
X323405669Y-277016486D01*
X323524717Y-276826010D01*
X323727098Y-275206962D01*
X325572336Y-277206962D02*
X325024716Y-276254581D01*
X324429478Y-277206962D02*
X324679478Y-275206962D01*
X325441383Y-275206962D01*
X325619954Y-275302200D01*
X325703288Y-275397438D01*
X325774717Y-275587914D01*
X325739002Y-275873629D01*
X325619955Y-276064105D01*
X325512811Y-276159343D01*
X325310430Y-276254581D01*
X324548525Y-276254581D01*
D10*
X301846143Y-272595057D02*
X301346143Y-272595057D01*
X301346143Y-273380771D02*
X301346143Y-271880771D01*
X302060429Y-271880771D01*
X302631857Y-273380771D02*
X302631857Y-272380771D01*
X302631857Y-271880771D02*
X302560428Y-271952200D01*
X302631857Y-272023629D01*
X302703285Y-271952200D01*
X302631857Y-271880771D01*
X302631857Y-272023629D01*
X303560429Y-273380771D02*
X303417571Y-273309343D01*
X303346143Y-273166486D01*
X303346143Y-271880771D01*
X304703285Y-273309343D02*
X304560428Y-273380771D01*
X304274714Y-273380771D01*
X304131857Y-273309343D01*
X304060428Y-273166486D01*
X304060428Y-272595057D01*
X304131857Y-272452200D01*
X304274714Y-272380771D01*
X304560428Y-272380771D01*
X304703285Y-272452200D01*
X304774714Y-272595057D01*
X304774714Y-272737914D01*
X304060428Y-272880771D01*
X305417571Y-273237914D02*
X305488999Y-273309343D01*
X305417571Y-273380771D01*
X305346142Y-273309343D01*
X305417571Y-273237914D01*
X305417571Y-273380771D01*
X305417571Y-272452200D02*
X305488999Y-272523629D01*
X305417571Y-272595057D01*
X305346142Y-272523629D01*
X305417571Y-272452200D01*
X305417571Y-272595057D01*
X308131857Y-273237914D02*
X308060428Y-273309343D01*
X307846142Y-273380771D01*
X307703285Y-273380771D01*
X307489000Y-273309343D01*
X307346142Y-273166486D01*
X307274714Y-273023629D01*
X307203285Y-272737914D01*
X307203285Y-272523629D01*
X307274714Y-272237914D01*
X307346142Y-272095057D01*
X307489000Y-271952200D01*
X307703285Y-271880771D01*
X307846142Y-271880771D01*
X308060428Y-271952200D01*
X308131857Y-272023629D01*
X308989000Y-273380771D02*
X308846142Y-273309343D01*
X308774714Y-273166486D01*
X308774714Y-271880771D01*
X309774714Y-273380771D02*
X309631856Y-273309343D01*
X309560428Y-273237914D01*
X309488999Y-273095057D01*
X309488999Y-272666486D01*
X309560428Y-272523629D01*
X309631856Y-272452200D01*
X309774714Y-272380771D01*
X309988999Y-272380771D01*
X310131856Y-272452200D01*
X310203285Y-272523629D01*
X310274714Y-272666486D01*
X310274714Y-273095057D01*
X310203285Y-273237914D01*
X310131856Y-273309343D01*
X309988999Y-273380771D01*
X309774714Y-273380771D01*
X311560428Y-273309343D02*
X311417571Y-273380771D01*
X311131857Y-273380771D01*
X310988999Y-273309343D01*
X310917571Y-273237914D01*
X310846142Y-273095057D01*
X310846142Y-272666486D01*
X310917571Y-272523629D01*
X310988999Y-272452200D01*
X311131857Y-272380771D01*
X311417571Y-272380771D01*
X311560428Y-272452200D01*
X312203285Y-273380771D02*
X312203285Y-271880771D01*
X312346142Y-272809343D02*
X312774713Y-273380771D01*
X312774713Y-272380771D02*
X312203285Y-272952200D01*
X313917571Y-272595057D02*
X313417571Y-272595057D01*
X313417571Y-273380771D02*
X313417571Y-271880771D01*
X314131857Y-271880771D01*
X314988999Y-271880771D02*
X315274713Y-271880771D01*
X315417571Y-271952200D01*
X315560428Y-272095057D01*
X315631856Y-272380771D01*
X315631856Y-272880771D01*
X315560428Y-273166486D01*
X315417571Y-273309343D01*
X315274713Y-273380771D01*
X314988999Y-273380771D01*
X314846142Y-273309343D01*
X314703285Y-273166486D01*
X314631856Y-272880771D01*
X314631856Y-272380771D01*
X314703285Y-272095057D01*
X314846142Y-271952200D01*
X314988999Y-271880771D01*
X316274714Y-271880771D02*
X316274714Y-273095057D01*
X316346142Y-273237914D01*
X316417571Y-273309343D01*
X316560428Y-273380771D01*
X316846142Y-273380771D01*
X316989000Y-273309343D01*
X317060428Y-273237914D01*
X317131857Y-273095057D01*
X317131857Y-271880771D01*
X318703286Y-273380771D02*
X318203286Y-272666486D01*
X317846143Y-273380771D02*
X317846143Y-271880771D01*
X318417571Y-271880771D01*
X318560429Y-271952200D01*
X318631857Y-272023629D01*
X318703286Y-272166486D01*
X318703286Y-272380771D01*
X318631857Y-272523629D01*
X318560429Y-272595057D01*
X318417571Y-272666486D01*
X317846143Y-272666486D01*
X319346143Y-273237914D02*
X319417571Y-273309343D01*
X319346143Y-273380771D01*
X319274714Y-273309343D01*
X319346143Y-273237914D01*
X319346143Y-273380771D01*
X320060429Y-273380771D02*
X320060429Y-271880771D01*
X320203286Y-272809343D02*
X320631857Y-273380771D01*
X320631857Y-272380771D02*
X320060429Y-272952200D01*
X321274715Y-273380771D02*
X321274715Y-272380771D01*
X321274715Y-271880771D02*
X321203286Y-271952200D01*
X321274715Y-272023629D01*
X321346143Y-271952200D01*
X321274715Y-271880771D01*
X321274715Y-272023629D01*
X322631858Y-273309343D02*
X322489001Y-273380771D01*
X322203287Y-273380771D01*
X322060429Y-273309343D01*
X321989001Y-273237914D01*
X321917572Y-273095057D01*
X321917572Y-272666486D01*
X321989001Y-272523629D01*
X322060429Y-272452200D01*
X322203287Y-272380771D01*
X322489001Y-272380771D01*
X322631858Y-272452200D01*
X323917572Y-273380771D02*
X323917572Y-272595057D01*
X323846143Y-272452200D01*
X323703286Y-272380771D01*
X323417572Y-272380771D01*
X323274715Y-272452200D01*
X323917572Y-273309343D02*
X323774715Y-273380771D01*
X323417572Y-273380771D01*
X323274715Y-273309343D01*
X323203286Y-273166486D01*
X323203286Y-273023629D01*
X323274715Y-272880771D01*
X323417572Y-272809343D01*
X323774715Y-272809343D01*
X323917572Y-272737914D01*
X325274715Y-273380771D02*
X325274715Y-271880771D01*
X325274715Y-273309343D02*
X325131858Y-273380771D01*
X324846144Y-273380771D01*
X324703286Y-273309343D01*
X324631858Y-273237914D01*
X324560429Y-273095057D01*
X324560429Y-272666486D01*
X324631858Y-272523629D01*
X324703286Y-272452200D01*
X324846144Y-272380771D01*
X325131858Y-272380771D01*
X325274715Y-272452200D01*
X325631858Y-273523629D02*
X326774715Y-273523629D01*
X327131858Y-272380771D02*
X327131858Y-273880771D01*
X327131858Y-272452200D02*
X327274715Y-272380771D01*
X327560429Y-272380771D01*
X327703286Y-272452200D01*
X327774715Y-272523629D01*
X327846144Y-272666486D01*
X327846144Y-273095057D01*
X327774715Y-273237914D01*
X327703286Y-273309343D01*
X327560429Y-273380771D01*
X327274715Y-273380771D01*
X327131858Y-273309343D01*
X329131858Y-273309343D02*
X328989001Y-273380771D01*
X328703287Y-273380771D01*
X328560429Y-273309343D01*
X328489001Y-273237914D01*
X328417572Y-273095057D01*
X328417572Y-272666486D01*
X328489001Y-272523629D01*
X328560429Y-272452200D01*
X328703287Y-272380771D01*
X328989001Y-272380771D01*
X329131858Y-272452200D01*
X329774715Y-273380771D02*
X329774715Y-271880771D01*
X329774715Y-272452200D02*
X329917572Y-272380771D01*
X330203286Y-272380771D01*
X330346143Y-272452200D01*
X330417572Y-272523629D01*
X330489001Y-272666486D01*
X330489001Y-273095057D01*
X330417572Y-273237914D01*
X330346143Y-273309343D01*
X330203286Y-273380771D01*
X329917572Y-273380771D01*
X329774715Y-273309343D01*
X299989000Y-268502200D02*
X407989000Y-268502200D01*
X301274714Y-270609343D02*
X301489000Y-270680771D01*
X301846143Y-270680771D01*
X301989000Y-270609343D01*
X302060429Y-270537914D01*
X302131857Y-270395057D01*
X302131857Y-270252200D01*
X302060429Y-270109343D01*
X301989000Y-270037914D01*
X301846143Y-269966486D01*
X301560429Y-269895057D01*
X301417571Y-269823629D01*
X301346143Y-269752200D01*
X301274714Y-269609343D01*
X301274714Y-269466486D01*
X301346143Y-269323629D01*
X301417571Y-269252200D01*
X301560429Y-269180771D01*
X301917571Y-269180771D01*
X302131857Y-269252200D01*
X302774714Y-270680771D02*
X302774714Y-269180771D01*
X303417571Y-270680771D02*
X303417571Y-269895057D01*
X303346142Y-269752200D01*
X303203285Y-269680771D01*
X302989000Y-269680771D01*
X302846142Y-269752200D01*
X302774714Y-269823629D01*
X304703285Y-270609343D02*
X304560428Y-270680771D01*
X304274714Y-270680771D01*
X304131857Y-270609343D01*
X304060428Y-270466486D01*
X304060428Y-269895057D01*
X304131857Y-269752200D01*
X304274714Y-269680771D01*
X304560428Y-269680771D01*
X304703285Y-269752200D01*
X304774714Y-269895057D01*
X304774714Y-270037914D01*
X304060428Y-270180771D01*
X305988999Y-270609343D02*
X305846142Y-270680771D01*
X305560428Y-270680771D01*
X305417571Y-270609343D01*
X305346142Y-270466486D01*
X305346142Y-269895057D01*
X305417571Y-269752200D01*
X305560428Y-269680771D01*
X305846142Y-269680771D01*
X305988999Y-269752200D01*
X306060428Y-269895057D01*
X306060428Y-270037914D01*
X305346142Y-270180771D01*
X306488999Y-269680771D02*
X307060428Y-269680771D01*
X306703285Y-269180771D02*
X306703285Y-270466486D01*
X306774713Y-270609343D01*
X306917571Y-270680771D01*
X307060428Y-270680771D01*
X307560428Y-270537914D02*
X307631856Y-270609343D01*
X307560428Y-270680771D01*
X307488999Y-270609343D01*
X307560428Y-270537914D01*
X307560428Y-270680771D01*
X307560428Y-269752200D02*
X307631856Y-269823629D01*
X307560428Y-269895057D01*
X307488999Y-269823629D01*
X307560428Y-269752200D01*
X307560428Y-269895057D01*
D11*
X301203286Y-266180771D02*
X301560429Y-267680771D01*
X301846143Y-266609343D01*
X302131857Y-267680771D01*
X302489000Y-266180771D01*
X302917572Y-266680771D02*
X303274715Y-267680771D01*
X303631857Y-266680771D02*
X303274715Y-267680771D01*
X303131857Y-268037914D01*
X303060429Y-268109343D01*
X302917572Y-268180771D01*
X304417572Y-267680771D02*
X304274714Y-267609343D01*
X304203286Y-267537914D01*
X304131857Y-267395057D01*
X304131857Y-266966486D01*
X304203286Y-266823629D01*
X304274714Y-266752200D01*
X304417572Y-266680771D01*
X304631857Y-266680771D01*
X304774714Y-266752200D01*
X304846143Y-266823629D01*
X304917572Y-266966486D01*
X304917572Y-267395057D01*
X304846143Y-267537914D01*
X304774714Y-267609343D01*
X304631857Y-267680771D01*
X304417572Y-267680771D01*
X306274715Y-267680771D02*
X305560429Y-267680771D01*
X305560429Y-266180771D01*
X307417572Y-266680771D02*
X307417572Y-267680771D01*
X306774715Y-266680771D02*
X306774715Y-267466486D01*
X306846143Y-267609343D01*
X306989001Y-267680771D01*
X307203286Y-267680771D01*
X307346143Y-267609343D01*
X307417572Y-267537914D01*
X308131858Y-267680771D02*
X308131858Y-266680771D01*
X308131858Y-266823629D02*
X308203286Y-266752200D01*
X308346144Y-266680771D01*
X308560429Y-266680771D01*
X308703286Y-266752200D01*
X308774715Y-266895057D01*
X308774715Y-267680771D01*
X308774715Y-266895057D02*
X308846144Y-266752200D01*
X308989001Y-266680771D01*
X309203286Y-266680771D01*
X309346144Y-266752200D01*
X309417572Y-266895057D01*
X309417572Y-267680771D01*
D10*
X301203286Y-263680771D02*
X301489000Y-264680771D01*
X301774714Y-263966486D01*
X302060429Y-264680771D01*
X302346143Y-263680771D01*
X302774715Y-263680771D02*
X303060429Y-264680771D01*
X303346143Y-263966486D01*
X303631858Y-264680771D01*
X303917572Y-263680771D01*
X304346144Y-263680771D02*
X304631858Y-264680771D01*
X304917572Y-263966486D01*
X305203287Y-264680771D01*
X305489001Y-263680771D01*
X306060430Y-264537914D02*
X306131858Y-264609343D01*
X306060430Y-264680771D01*
X305989001Y-264609343D01*
X306060430Y-264537914D01*
X306060430Y-264680771D01*
X306631859Y-263680771D02*
X306917573Y-264680771D01*
X307203287Y-263966486D01*
X307489002Y-264680771D01*
X307774716Y-263680771D01*
X308203288Y-263680771D02*
X308560431Y-264680771D01*
X308917573Y-263680771D02*
X308560431Y-264680771D01*
X308417573Y-265037914D01*
X308346145Y-265109343D01*
X308203288Y-265180771D01*
X309703288Y-264680771D02*
X309560430Y-264609343D01*
X309489002Y-264537914D01*
X309417573Y-264395057D01*
X309417573Y-263966486D01*
X309489002Y-263823629D01*
X309560430Y-263752200D01*
X309703288Y-263680771D01*
X309917573Y-263680771D01*
X310060430Y-263752200D01*
X310131859Y-263823629D01*
X310203288Y-263966486D01*
X310203288Y-264395057D01*
X310131859Y-264537914D01*
X310060430Y-264609343D01*
X309917573Y-264680771D01*
X309703288Y-264680771D01*
X311060431Y-264680771D02*
X310917573Y-264609343D01*
X310846145Y-264466486D01*
X310846145Y-263180771D01*
X312274716Y-263680771D02*
X312274716Y-264680771D01*
X311631859Y-263680771D02*
X311631859Y-264466486D01*
X311703287Y-264609343D01*
X311846145Y-264680771D01*
X312060430Y-264680771D01*
X312203287Y-264609343D01*
X312274716Y-264537914D01*
X312989002Y-264680771D02*
X312989002Y-263680771D01*
X312989002Y-263823629D02*
X313060430Y-263752200D01*
X313203288Y-263680771D01*
X313417573Y-263680771D01*
X313560430Y-263752200D01*
X313631859Y-263895057D01*
X313631859Y-264680771D01*
X313631859Y-263895057D02*
X313703288Y-263752200D01*
X313846145Y-263680771D01*
X314060430Y-263680771D01*
X314203288Y-263752200D01*
X314274716Y-263895057D01*
X314274716Y-264680771D01*
X314989002Y-264537914D02*
X315060430Y-264609343D01*
X314989002Y-264680771D01*
X314917573Y-264609343D01*
X314989002Y-264537914D01*
X314989002Y-264680771D01*
X316346145Y-264609343D02*
X316203288Y-264680771D01*
X315917574Y-264680771D01*
X315774716Y-264609343D01*
X315703288Y-264537914D01*
X315631859Y-264395057D01*
X315631859Y-263966486D01*
X315703288Y-263823629D01*
X315774716Y-263752200D01*
X315917574Y-263680771D01*
X316203288Y-263680771D01*
X316346145Y-263752200D01*
X317203288Y-264680771D02*
X317060430Y-264609343D01*
X316989002Y-264537914D01*
X316917573Y-264395057D01*
X316917573Y-263966486D01*
X316989002Y-263823629D01*
X317060430Y-263752200D01*
X317203288Y-263680771D01*
X317417573Y-263680771D01*
X317560430Y-263752200D01*
X317631859Y-263823629D01*
X317703288Y-263966486D01*
X317703288Y-264395057D01*
X317631859Y-264537914D01*
X317560430Y-264609343D01*
X317417573Y-264680771D01*
X317203288Y-264680771D01*
X318346145Y-264680771D02*
X318346145Y-263680771D01*
X318346145Y-263823629D02*
X318417573Y-263752200D01*
X318560431Y-263680771D01*
X318774716Y-263680771D01*
X318917573Y-263752200D01*
X318989002Y-263895057D01*
X318989002Y-264680771D01*
X318989002Y-263895057D02*
X319060431Y-263752200D01*
X319203288Y-263680771D01*
X319417573Y-263680771D01*
X319560431Y-263752200D01*
X319631859Y-263895057D01*
X319631859Y-264680771D01*
X301346143Y-261680771D02*
X301346143Y-260180771D01*
X301703286Y-260180771D01*
X301917571Y-260252200D01*
X302060429Y-260395057D01*
X302131857Y-260537914D01*
X302203286Y-260823629D01*
X302203286Y-261037914D01*
X302131857Y-261323629D01*
X302060429Y-261466486D01*
X301917571Y-261609343D01*
X301703286Y-261680771D01*
X301346143Y-261680771D01*
X303489000Y-261680771D02*
X303489000Y-260895057D01*
X303417571Y-260752200D01*
X303274714Y-260680771D01*
X302989000Y-260680771D01*
X302846143Y-260752200D01*
X303489000Y-261609343D02*
X303346143Y-261680771D01*
X302989000Y-261680771D01*
X302846143Y-261609343D01*
X302774714Y-261466486D01*
X302774714Y-261323629D01*
X302846143Y-261180771D01*
X302989000Y-261109343D01*
X303346143Y-261109343D01*
X303489000Y-261037914D01*
X304060429Y-260680771D02*
X304417572Y-261680771D01*
X304774714Y-260680771D01*
X305346143Y-261680771D02*
X305346143Y-260680771D01*
X305346143Y-260180771D02*
X305274714Y-260252200D01*
X305346143Y-260323629D01*
X305417571Y-260252200D01*
X305346143Y-260180771D01*
X305346143Y-260323629D01*
X306703286Y-261680771D02*
X306703286Y-260180771D01*
X306703286Y-261609343D02*
X306560429Y-261680771D01*
X306274715Y-261680771D01*
X306131857Y-261609343D01*
X306060429Y-261537914D01*
X305989000Y-261395057D01*
X305989000Y-260966486D01*
X306060429Y-260823629D01*
X306131857Y-260752200D01*
X306274715Y-260680771D01*
X306560429Y-260680771D01*
X306703286Y-260752200D01*
X308560429Y-261680771D02*
X308560429Y-260180771D01*
X309131857Y-260180771D01*
X309274715Y-260252200D01*
X309346143Y-260323629D01*
X309417572Y-260466486D01*
X309417572Y-260680771D01*
X309346143Y-260823629D01*
X309274715Y-260895057D01*
X309131857Y-260966486D01*
X308560429Y-260966486D01*
X310060429Y-261680771D02*
X310060429Y-260680771D01*
X310060429Y-260180771D02*
X309989000Y-260252200D01*
X310060429Y-260323629D01*
X310131857Y-260252200D01*
X310060429Y-260180771D01*
X310060429Y-260323629D01*
X310774715Y-260680771D02*
X310774715Y-261680771D01*
X310774715Y-260823629D02*
X310846143Y-260752200D01*
X310989001Y-260680771D01*
X311203286Y-260680771D01*
X311346143Y-260752200D01*
X311417572Y-260895057D01*
X311417572Y-261680771D01*
X312774715Y-261609343D02*
X312631858Y-261680771D01*
X312346144Y-261680771D01*
X312203286Y-261609343D01*
X312131858Y-261537914D01*
X312060429Y-261395057D01*
X312060429Y-260966486D01*
X312131858Y-260823629D01*
X312203286Y-260752200D01*
X312346144Y-260680771D01*
X312631858Y-260680771D01*
X312774715Y-260752200D01*
X314060429Y-260680771D02*
X314060429Y-261680771D01*
X313417572Y-260680771D02*
X313417572Y-261466486D01*
X313489000Y-261609343D01*
X313631858Y-261680771D01*
X313846143Y-261680771D01*
X313989000Y-261609343D01*
X314060429Y-261537914D01*
X314703286Y-261609343D02*
X314846143Y-261680771D01*
X315131858Y-261680771D01*
X315274715Y-261609343D01*
X315346143Y-261466486D01*
X315346143Y-261395057D01*
X315274715Y-261252200D01*
X315131858Y-261180771D01*
X314917572Y-261180771D01*
X314774715Y-261109343D01*
X314703286Y-260966486D01*
X314703286Y-260895057D01*
X314774715Y-260752200D01*
X314917572Y-260680771D01*
X315131858Y-260680771D01*
X315274715Y-260752200D01*
X319989000Y-278502200D02*
X319989000Y-281502200D01*
X383989000Y-278502200D02*
X383989000Y-285002200D01*
D11*
X242892858Y-272028570D02*
X243821429Y-272028570D01*
X243321429Y-272599999D01*
X243535715Y-272599999D01*
X243678572Y-272671428D01*
X243750001Y-272742856D01*
X243821429Y-272885713D01*
X243821429Y-273242856D01*
X243750001Y-273385713D01*
X243678572Y-273457142D01*
X243535715Y-273528570D01*
X243107143Y-273528570D01*
X242964286Y-273457142D01*
X242892858Y-273385713D01*
X244392857Y-272171428D02*
X244464286Y-272099999D01*
X244607143Y-272028570D01*
X244964286Y-272028570D01*
X245107143Y-272099999D01*
X245178572Y-272171428D01*
X245250000Y-272314285D01*
X245250000Y-272457142D01*
X245178572Y-272671428D01*
X244321429Y-273528570D01*
X245250000Y-273528570D01*
X245892857Y-273385713D02*
X245964285Y-273457142D01*
X245892857Y-273528570D01*
X245821428Y-273457142D01*
X245892857Y-273385713D01*
X245892857Y-273528570D01*
X247321429Y-272028570D02*
X246607143Y-272028570D01*
X246535714Y-272742856D01*
X246607143Y-272671428D01*
X246750000Y-272599999D01*
X247107143Y-272599999D01*
X247250000Y-272671428D01*
X247321429Y-272742856D01*
X247392857Y-272885713D01*
X247392857Y-273242856D01*
X247321429Y-273385713D01*
X247250000Y-273457142D01*
X247107143Y-273528570D01*
X246750000Y-273528570D01*
X246607143Y-273457142D01*
X246535714Y-273385713D01*
X249178571Y-273528570D02*
X249178571Y-272528570D01*
X249178571Y-272671428D02*
X249249999Y-272599999D01*
X249392857Y-272528570D01*
X249607142Y-272528570D01*
X249749999Y-272599999D01*
X249821428Y-272742856D01*
X249821428Y-273528570D01*
X249821428Y-272742856D02*
X249892857Y-272599999D01*
X250035714Y-272528570D01*
X250249999Y-272528570D01*
X250392857Y-272599999D01*
X250464285Y-272742856D01*
X250464285Y-273528570D01*
X251178571Y-273528570D02*
X251178571Y-272528570D01*
X251178571Y-272671428D02*
X251249999Y-272599999D01*
X251392857Y-272528570D01*
X251607142Y-272528570D01*
X251749999Y-272599999D01*
X251821428Y-272742856D01*
X251821428Y-273528570D01*
X251821428Y-272742856D02*
X251892857Y-272599999D01*
X252035714Y-272528570D01*
X252249999Y-272528570D01*
X252392857Y-272599999D01*
X252464285Y-272742856D01*
X252464285Y-273528570D01*
X231500000Y-271499999D02*
X264000000Y-271499999D01*
X231500000Y-269000000D02*
X231500000Y-274199999D01*
X264000000Y-269000000D02*
X264000000Y-274199999D01*
X264000000Y-271499999D02*
X262873496Y-272086420D01*
X264000000Y-271499999D02*
X262873496Y-270913578D01*
X231500000Y-271499999D02*
X232626504Y-272086420D01*
X231500000Y-271499999D02*
X232626504Y-270913578D01*
X223642858Y-273528570D02*
X222785715Y-273528570D01*
X223214287Y-273528570D02*
X223214287Y-272028570D01*
X223071430Y-272242856D01*
X222928572Y-272385713D01*
X222785715Y-272457142D01*
X224571429Y-272028570D02*
X224714286Y-272028570D01*
X224857143Y-272099999D01*
X224928572Y-272171428D01*
X225000001Y-272314285D01*
X225071429Y-272599999D01*
X225071429Y-272957142D01*
X225000001Y-273242856D01*
X224928572Y-273385713D01*
X224857143Y-273457142D01*
X224714286Y-273528570D01*
X224571429Y-273528570D01*
X224428572Y-273457142D01*
X224357143Y-273385713D01*
X224285715Y-273242856D01*
X224214286Y-272957142D01*
X224214286Y-272599999D01*
X224285715Y-272314285D01*
X224357143Y-272171428D01*
X224428572Y-272099999D01*
X224571429Y-272028570D01*
X226857143Y-273528570D02*
X226857143Y-272528570D01*
X226857143Y-272671428D02*
X226928571Y-272599999D01*
X227071429Y-272528570D01*
X227285714Y-272528570D01*
X227428571Y-272599999D01*
X227500000Y-272742856D01*
X227500000Y-273528570D01*
X227500000Y-272742856D02*
X227571429Y-272599999D01*
X227714286Y-272528570D01*
X227928571Y-272528570D01*
X228071429Y-272599999D01*
X228142857Y-272742856D01*
X228142857Y-273528570D01*
X228857143Y-273528570D02*
X228857143Y-272528570D01*
X228857143Y-272671428D02*
X228928571Y-272599999D01*
X229071429Y-272528570D01*
X229285714Y-272528570D01*
X229428571Y-272599999D01*
X229500000Y-272742856D01*
X229500000Y-273528570D01*
X229500000Y-272742856D02*
X229571429Y-272599999D01*
X229714286Y-272528570D01*
X229928571Y-272528570D01*
X230071429Y-272599999D01*
X230142857Y-272742856D01*
X230142857Y-273528570D01*
X221500000Y-271499999D02*
X231500000Y-271499999D01*
X221500000Y-269000000D02*
X221500000Y-274199999D01*
X231500000Y-269000000D02*
X231500000Y-274199999D01*
X231500000Y-271499999D02*
X230373496Y-272086420D01*
X231500000Y-271499999D02*
X230373496Y-270913578D01*
X221500000Y-271499999D02*
X222626504Y-272086420D01*
X221500000Y-271499999D02*
X222626504Y-270913578D01*
X213642858Y-273528570D02*
X212785715Y-273528570D01*
X213214287Y-273528570D02*
X213214287Y-272028570D01*
X213071430Y-272242856D01*
X212928572Y-272385713D01*
X212785715Y-272457142D01*
X214571429Y-272028570D02*
X214714286Y-272028570D01*
X214857143Y-272099999D01*
X214928572Y-272171428D01*
X215000001Y-272314285D01*
X215071429Y-272599999D01*
X215071429Y-272957142D01*
X215000001Y-273242856D01*
X214928572Y-273385713D01*
X214857143Y-273457142D01*
X214714286Y-273528570D01*
X214571429Y-273528570D01*
X214428572Y-273457142D01*
X214357143Y-273385713D01*
X214285715Y-273242856D01*
X214214286Y-272957142D01*
X214214286Y-272599999D01*
X214285715Y-272314285D01*
X214357143Y-272171428D01*
X214428572Y-272099999D01*
X214571429Y-272028570D01*
X216857143Y-273528570D02*
X216857143Y-272528570D01*
X216857143Y-272671428D02*
X216928571Y-272599999D01*
X217071429Y-272528570D01*
X217285714Y-272528570D01*
X217428571Y-272599999D01*
X217500000Y-272742856D01*
X217500000Y-273528570D01*
X217500000Y-272742856D02*
X217571429Y-272599999D01*
X217714286Y-272528570D01*
X217928571Y-272528570D01*
X218071429Y-272599999D01*
X218142857Y-272742856D01*
X218142857Y-273528570D01*
X218857143Y-273528570D02*
X218857143Y-272528570D01*
X218857143Y-272671428D02*
X218928571Y-272599999D01*
X219071429Y-272528570D01*
X219285714Y-272528570D01*
X219428571Y-272599999D01*
X219500000Y-272742856D01*
X219500000Y-273528570D01*
X219500000Y-272742856D02*
X219571429Y-272599999D01*
X219714286Y-272528570D01*
X219928571Y-272528570D01*
X220071429Y-272599999D01*
X220142857Y-272742856D01*
X220142857Y-273528570D01*
X211500000Y-271499999D02*
X221500000Y-271499999D01*
X211500000Y-269000000D02*
X211500000Y-274199999D01*
X221500000Y-269000000D02*
X221500000Y-274199999D01*
X221500000Y-271499999D02*
X220373496Y-272086420D01*
X221500000Y-271499999D02*
X220373496Y-270913578D01*
X211500000Y-271499999D02*
X212626504Y-272086420D01*
X211500000Y-271499999D02*
X212626504Y-270913578D01*
X201142858Y-273528570D02*
X200285715Y-273528570D01*
X200714287Y-273528570D02*
X200714287Y-272028570D01*
X200571430Y-272242856D01*
X200428572Y-272385713D01*
X200285715Y-272457142D01*
X202500001Y-272028570D02*
X201785715Y-272028570D01*
X201714286Y-272742856D01*
X201785715Y-272671428D01*
X201928572Y-272599999D01*
X202285715Y-272599999D01*
X202428572Y-272671428D01*
X202500001Y-272742856D01*
X202571429Y-272885713D01*
X202571429Y-273242856D01*
X202500001Y-273385713D01*
X202428572Y-273457142D01*
X202285715Y-273528570D01*
X201928572Y-273528570D01*
X201785715Y-273457142D01*
X201714286Y-273385713D01*
X204357143Y-273528570D02*
X204357143Y-272528570D01*
X204357143Y-272671428D02*
X204428571Y-272599999D01*
X204571429Y-272528570D01*
X204785714Y-272528570D01*
X204928571Y-272599999D01*
X205000000Y-272742856D01*
X205000000Y-273528570D01*
X205000000Y-272742856D02*
X205071429Y-272599999D01*
X205214286Y-272528570D01*
X205428571Y-272528570D01*
X205571429Y-272599999D01*
X205642857Y-272742856D01*
X205642857Y-273528570D01*
X206357143Y-273528570D02*
X206357143Y-272528570D01*
X206357143Y-272671428D02*
X206428571Y-272599999D01*
X206571429Y-272528570D01*
X206785714Y-272528570D01*
X206928571Y-272599999D01*
X207000000Y-272742856D01*
X207000000Y-273528570D01*
X207000000Y-272742856D02*
X207071429Y-272599999D01*
X207214286Y-272528570D01*
X207428571Y-272528570D01*
X207571429Y-272599999D01*
X207642857Y-272742856D01*
X207642857Y-273528570D01*
X196500000Y-271499999D02*
X211500000Y-271499999D01*
X196500000Y-269000000D02*
X196500000Y-274199999D01*
X211500000Y-269000000D02*
X211500000Y-274199999D01*
X211500000Y-271499999D02*
X210373496Y-272086420D01*
X211500000Y-271499999D02*
X210373496Y-270913578D01*
X196500000Y-271499999D02*
X197626504Y-272086420D01*
X196500000Y-271499999D02*
X197626504Y-270913578D01*
X120607144Y-273528570D02*
X119750001Y-273528570D01*
X120178573Y-273528570D02*
X120178573Y-272028570D01*
X120035716Y-272242856D01*
X119892858Y-272385713D01*
X119750001Y-272457142D01*
X121892858Y-272528570D02*
X121892858Y-273528570D01*
X121535715Y-271957142D02*
X121178572Y-273028570D01*
X122107144Y-273028570D01*
X122607143Y-272171428D02*
X122678572Y-272099999D01*
X122821429Y-272028570D01*
X123178572Y-272028570D01*
X123321429Y-272099999D01*
X123392858Y-272171428D01*
X123464286Y-272314285D01*
X123464286Y-272457142D01*
X123392858Y-272671428D01*
X122535715Y-273528570D01*
X123464286Y-273528570D01*
X124107143Y-273385713D02*
X124178571Y-273457142D01*
X124107143Y-273528570D01*
X124035714Y-273457142D01*
X124107143Y-273385713D01*
X124107143Y-273528570D01*
X125535715Y-272028570D02*
X124821429Y-272028570D01*
X124750000Y-272742856D01*
X124821429Y-272671428D01*
X124964286Y-272599999D01*
X125321429Y-272599999D01*
X125464286Y-272671428D01*
X125535715Y-272742856D01*
X125607143Y-272885713D01*
X125607143Y-273242856D01*
X125535715Y-273385713D01*
X125464286Y-273457142D01*
X125321429Y-273528570D01*
X124964286Y-273528570D01*
X124821429Y-273457142D01*
X124750000Y-273385713D01*
X127392857Y-273528570D02*
X127392857Y-272528570D01*
X127392857Y-272671428D02*
X127464285Y-272599999D01*
X127607143Y-272528570D01*
X127821428Y-272528570D01*
X127964285Y-272599999D01*
X128035714Y-272742856D01*
X128035714Y-273528570D01*
X128035714Y-272742856D02*
X128107143Y-272599999D01*
X128250000Y-272528570D01*
X128464285Y-272528570D01*
X128607143Y-272599999D01*
X128678571Y-272742856D01*
X128678571Y-273528570D01*
X129392857Y-273528570D02*
X129392857Y-272528570D01*
X129392857Y-272671428D02*
X129464285Y-272599999D01*
X129607143Y-272528570D01*
X129821428Y-272528570D01*
X129964285Y-272599999D01*
X130035714Y-272742856D01*
X130035714Y-273528570D01*
X130035714Y-272742856D02*
X130107143Y-272599999D01*
X130250000Y-272528570D01*
X130464285Y-272528570D01*
X130607143Y-272599999D01*
X130678571Y-272742856D01*
X130678571Y-273528570D01*
X54000000Y-271499999D02*
X196500000Y-271499999D01*
X54000000Y-269000000D02*
X54000000Y-274199999D01*
X196500000Y-269000000D02*
X196500000Y-274199999D01*
X196500000Y-271499999D02*
X195373496Y-272086420D01*
X196500000Y-271499999D02*
X195373496Y-270913578D01*
X54000000Y-271499999D02*
X55126504Y-272086420D01*
X54000000Y-271499999D02*
X55126504Y-270913578D01*
D13*
X220000000Y-269000000D02*
X59000000Y-269000000D01*
X233000000Y-269000000D02*
X259000000Y-269000000D01*
X231500000Y-261500000D02*
X231500000Y-267500000D01*
X221500000Y-267500000D02*
X221500000Y-261500000D01*
X231500000Y-267500000D02*
G75*
G03X233000000Y-269000000I1500000J0D01*
G01*
X220000000Y-269000000D02*
G75*
G03X221500000Y-267500000I0J1500000D01*
G01*
X231500000Y-261500000D02*
G75*
G03X230000000Y-260000000I-1500000J0D01*
G01*
X223000000Y-260000000D02*
G75*
G03X221500000Y-261500000I0J-1500000D01*
G01*
D11*
X268471429Y-56142858D02*
X268471429Y-55285715D01*
X268471429Y-55714287D02*
X269971429Y-55714287D01*
X269757143Y-55571430D01*
X269614286Y-55428572D01*
X269542857Y-55285715D01*
X269971429Y-57428572D02*
X269971429Y-57142858D01*
X269900000Y-57000001D01*
X269828571Y-56928572D01*
X269614286Y-56785715D01*
X269328571Y-56714286D01*
X268757143Y-56714286D01*
X268614286Y-56785715D01*
X268542857Y-56857143D01*
X268471429Y-57000001D01*
X268471429Y-57285715D01*
X268542857Y-57428572D01*
X268614286Y-57500001D01*
X268757143Y-57571429D01*
X269114286Y-57571429D01*
X269257143Y-57500001D01*
X269328571Y-57428572D01*
X269400000Y-57285715D01*
X269400000Y-57000001D01*
X269328571Y-56857143D01*
X269257143Y-56785715D01*
X269114286Y-56714286D01*
X268471429Y-59357143D02*
X269471429Y-59357143D01*
X269328571Y-59357143D02*
X269400000Y-59428571D01*
X269471429Y-59571429D01*
X269471429Y-59785714D01*
X269400000Y-59928571D01*
X269257143Y-60000000D01*
X268471429Y-60000000D01*
X269257143Y-60000000D02*
X269400000Y-60071429D01*
X269471429Y-60214286D01*
X269471429Y-60428571D01*
X269400000Y-60571429D01*
X269257143Y-60642857D01*
X268471429Y-60642857D01*
X268471429Y-61357143D02*
X269471429Y-61357143D01*
X269328571Y-61357143D02*
X269400000Y-61428571D01*
X269471429Y-61571429D01*
X269471429Y-61785714D01*
X269400000Y-61928571D01*
X269257143Y-62000000D01*
X268471429Y-62000000D01*
X269257143Y-62000000D02*
X269400000Y-62071429D01*
X269471429Y-62214286D01*
X269471429Y-62428571D01*
X269400000Y-62571429D01*
X269257143Y-62642857D01*
X268471429Y-62642857D01*
X267800000Y-51000000D02*
X267800000Y-67000000D01*
X264000000Y-51000000D02*
X270500000Y-51000000D01*
X264000000Y-67000000D02*
X270500000Y-67000000D01*
X267800000Y-67000000D02*
X267213579Y-65873496D01*
X267800000Y-67000000D02*
X268386421Y-65873496D01*
X267800000Y-51000000D02*
X267213579Y-52126504D01*
X267800000Y-51000000D02*
X268386421Y-52126504D01*
X253642858Y-37928571D02*
X252785715Y-37928571D01*
X253214287Y-37928571D02*
X253214287Y-36428571D01*
X253071430Y-36642857D01*
X252928572Y-36785714D01*
X252785715Y-36857143D01*
X255000001Y-36428571D02*
X254285715Y-36428571D01*
X254214286Y-37142857D01*
X254285715Y-37071429D01*
X254428572Y-37000000D01*
X254785715Y-37000000D01*
X254928572Y-37071429D01*
X255000001Y-37142857D01*
X255071429Y-37285714D01*
X255071429Y-37642857D01*
X255000001Y-37785714D01*
X254928572Y-37857143D01*
X254785715Y-37928571D01*
X254428572Y-37928571D01*
X254285715Y-37857143D01*
X254214286Y-37785714D01*
X256857143Y-37928571D02*
X256857143Y-36928571D01*
X256857143Y-37071429D02*
X256928571Y-37000000D01*
X257071429Y-36928571D01*
X257285714Y-36928571D01*
X257428571Y-37000000D01*
X257500000Y-37142857D01*
X257500000Y-37928571D01*
X257500000Y-37142857D02*
X257571429Y-37000000D01*
X257714286Y-36928571D01*
X257928571Y-36928571D01*
X258071429Y-37000000D01*
X258142857Y-37142857D01*
X258142857Y-37928571D01*
X258857143Y-37928571D02*
X258857143Y-36928571D01*
X258857143Y-37071429D02*
X258928571Y-37000000D01*
X259071429Y-36928571D01*
X259285714Y-36928571D01*
X259428571Y-37000000D01*
X259500000Y-37142857D01*
X259500000Y-37928571D01*
X259500000Y-37142857D02*
X259571429Y-37000000D01*
X259714286Y-36928571D01*
X259928571Y-36928571D01*
X260071429Y-37000000D01*
X260142857Y-37142857D01*
X260142857Y-37928571D01*
X249000000Y-38600000D02*
X264000000Y-38600000D01*
X249000000Y-51000000D02*
X249000000Y-35900000D01*
X264000000Y-51000000D02*
X264000000Y-35900000D01*
X264000000Y-38600000D02*
X262873496Y-39186421D01*
X264000000Y-38600000D02*
X262873496Y-38013579D01*
X249000000Y-38600000D02*
X250126504Y-39186421D01*
X249000000Y-38600000D02*
X250126504Y-38013579D01*
X227285715Y-36471429D02*
X227357144Y-36400000D01*
X227500001Y-36328571D01*
X227857144Y-36328571D01*
X228000001Y-36400000D01*
X228071430Y-36471429D01*
X228142858Y-36614286D01*
X228142858Y-36757143D01*
X228071430Y-36971429D01*
X227214287Y-37828571D01*
X228142858Y-37828571D01*
X228714286Y-36471429D02*
X228785715Y-36400000D01*
X228928572Y-36328571D01*
X229285715Y-36328571D01*
X229428572Y-36400000D01*
X229500001Y-36471429D01*
X229571429Y-36614286D01*
X229571429Y-36757143D01*
X229500001Y-36971429D01*
X228642858Y-37828571D01*
X229571429Y-37828571D01*
X231357143Y-37828571D02*
X231357143Y-36828571D01*
X231357143Y-36971429D02*
X231428571Y-36900000D01*
X231571429Y-36828571D01*
X231785714Y-36828571D01*
X231928571Y-36900000D01*
X232000000Y-37042857D01*
X232000000Y-37828571D01*
X232000000Y-37042857D02*
X232071429Y-36900000D01*
X232214286Y-36828571D01*
X232428571Y-36828571D01*
X232571429Y-36900000D01*
X232642857Y-37042857D01*
X232642857Y-37828571D01*
X233357143Y-37828571D02*
X233357143Y-36828571D01*
X233357143Y-36971429D02*
X233428571Y-36900000D01*
X233571429Y-36828571D01*
X233785714Y-36828571D01*
X233928571Y-36900000D01*
X234000000Y-37042857D01*
X234000000Y-37828571D01*
X234000000Y-37042857D02*
X234071429Y-36900000D01*
X234214286Y-36828571D01*
X234428571Y-36828571D01*
X234571429Y-36900000D01*
X234642857Y-37042857D01*
X234642857Y-37828571D01*
X220000000Y-38500000D02*
X242000000Y-38500000D01*
X220000000Y-41000000D02*
X220000000Y-35800000D01*
X242000000Y-41000000D02*
X242000000Y-35800000D01*
X242000000Y-38500000D02*
X240873496Y-39086421D01*
X242000000Y-38500000D02*
X240873496Y-37913579D01*
X220000000Y-38500000D02*
X221126504Y-39086421D01*
X220000000Y-38500000D02*
X221126504Y-37913579D01*
X203785715Y-36471429D02*
X203857144Y-36400000D01*
X204000001Y-36328571D01*
X204357144Y-36328571D01*
X204500001Y-36400000D01*
X204571430Y-36471429D01*
X204642858Y-36614286D01*
X204642858Y-36757143D01*
X204571430Y-36971429D01*
X203714287Y-37828571D01*
X204642858Y-37828571D01*
X206000001Y-36328571D02*
X205285715Y-36328571D01*
X205214286Y-37042857D01*
X205285715Y-36971429D01*
X205428572Y-36900000D01*
X205785715Y-36900000D01*
X205928572Y-36971429D01*
X206000001Y-37042857D01*
X206071429Y-37185714D01*
X206071429Y-37542857D01*
X206000001Y-37685714D01*
X205928572Y-37757143D01*
X205785715Y-37828571D01*
X205428572Y-37828571D01*
X205285715Y-37757143D01*
X205214286Y-37685714D01*
X207857143Y-37828571D02*
X207857143Y-36828571D01*
X207857143Y-36971429D02*
X207928571Y-36900000D01*
X208071429Y-36828571D01*
X208285714Y-36828571D01*
X208428571Y-36900000D01*
X208500000Y-37042857D01*
X208500000Y-37828571D01*
X208500000Y-37042857D02*
X208571429Y-36900000D01*
X208714286Y-36828571D01*
X208928571Y-36828571D01*
X209071429Y-36900000D01*
X209142857Y-37042857D01*
X209142857Y-37828571D01*
X209857143Y-37828571D02*
X209857143Y-36828571D01*
X209857143Y-36971429D02*
X209928571Y-36900000D01*
X210071429Y-36828571D01*
X210285714Y-36828571D01*
X210428571Y-36900000D01*
X210500000Y-37042857D01*
X210500000Y-37828571D01*
X210500000Y-37042857D02*
X210571429Y-36900000D01*
X210714286Y-36828571D01*
X210928571Y-36828571D01*
X211071429Y-36900000D01*
X211142857Y-37042857D01*
X211142857Y-37828571D01*
X195000000Y-38500000D02*
X220000000Y-38500000D01*
X195000000Y-41000000D02*
X195000000Y-35800000D01*
X220000000Y-41000000D02*
X220000000Y-35800000D01*
X220000000Y-38500000D02*
X218873496Y-39086421D01*
X220000000Y-38500000D02*
X218873496Y-37913579D01*
X195000000Y-38500000D02*
X196126504Y-39086421D01*
X195000000Y-38500000D02*
X196126504Y-37913579D01*
X185142858Y-37828571D02*
X184285715Y-37828571D01*
X184714287Y-37828571D02*
X184714287Y-36328571D01*
X184571430Y-36542857D01*
X184428572Y-36685714D01*
X184285715Y-36757143D01*
X186428572Y-36828571D02*
X186428572Y-37828571D01*
X186071429Y-36257143D02*
X185714286Y-37328571D01*
X186642858Y-37328571D01*
X188357143Y-37828571D02*
X188357143Y-36828571D01*
X188357143Y-36971429D02*
X188428571Y-36900000D01*
X188571429Y-36828571D01*
X188785714Y-36828571D01*
X188928571Y-36900000D01*
X189000000Y-37042857D01*
X189000000Y-37828571D01*
X189000000Y-37042857D02*
X189071429Y-36900000D01*
X189214286Y-36828571D01*
X189428571Y-36828571D01*
X189571429Y-36900000D01*
X189642857Y-37042857D01*
X189642857Y-37828571D01*
X190357143Y-37828571D02*
X190357143Y-36828571D01*
X190357143Y-36971429D02*
X190428571Y-36900000D01*
X190571429Y-36828571D01*
X190785714Y-36828571D01*
X190928571Y-36900000D01*
X191000000Y-37042857D01*
X191000000Y-37828571D01*
X191000000Y-37042857D02*
X191071429Y-36900000D01*
X191214286Y-36828571D01*
X191428571Y-36828571D01*
X191571429Y-36900000D01*
X191642857Y-37042857D01*
X191642857Y-37828571D01*
X181000000Y-38500000D02*
X195000000Y-38500000D01*
X181000000Y-41000000D02*
X181000000Y-35800000D01*
X195000000Y-41000000D02*
X195000000Y-35800000D01*
X195000000Y-38500000D02*
X193873496Y-39086421D01*
X195000000Y-38500000D02*
X193873496Y-37913579D01*
X181000000Y-38500000D02*
X182126504Y-39086421D01*
X181000000Y-38500000D02*
X182126504Y-37913579D01*
X172142858Y-37828571D02*
X171285715Y-37828571D01*
X171714287Y-37828571D02*
X171714287Y-36328571D01*
X171571430Y-36542857D01*
X171428572Y-36685714D01*
X171285715Y-36757143D01*
X172714286Y-36471429D02*
X172785715Y-36400000D01*
X172928572Y-36328571D01*
X173285715Y-36328571D01*
X173428572Y-36400000D01*
X173500001Y-36471429D01*
X173571429Y-36614286D01*
X173571429Y-36757143D01*
X173500001Y-36971429D01*
X172642858Y-37828571D01*
X173571429Y-37828571D01*
X175357143Y-37828571D02*
X175357143Y-36828571D01*
X175357143Y-36971429D02*
X175428571Y-36900000D01*
X175571429Y-36828571D01*
X175785714Y-36828571D01*
X175928571Y-36900000D01*
X176000000Y-37042857D01*
X176000000Y-37828571D01*
X176000000Y-37042857D02*
X176071429Y-36900000D01*
X176214286Y-36828571D01*
X176428571Y-36828571D01*
X176571429Y-36900000D01*
X176642857Y-37042857D01*
X176642857Y-37828571D01*
X177357143Y-37828571D02*
X177357143Y-36828571D01*
X177357143Y-36971429D02*
X177428571Y-36900000D01*
X177571429Y-36828571D01*
X177785714Y-36828571D01*
X177928571Y-36900000D01*
X178000000Y-37042857D01*
X178000000Y-37828571D01*
X178000000Y-37042857D02*
X178071429Y-36900000D01*
X178214286Y-36828571D01*
X178428571Y-36828571D01*
X178571429Y-36900000D01*
X178642857Y-37042857D01*
X178642857Y-37828571D01*
X169000000Y-38500000D02*
X181000000Y-38500000D01*
X169000000Y-41000000D02*
X169000000Y-35800000D01*
X181000000Y-41000000D02*
X181000000Y-35800000D01*
X181000000Y-38500000D02*
X179873496Y-39086421D01*
X181000000Y-38500000D02*
X179873496Y-37913579D01*
X169000000Y-38500000D02*
X170126504Y-39086421D01*
X169000000Y-38500000D02*
X170126504Y-37913579D01*
X156642858Y-37828571D02*
X155785715Y-37828571D01*
X156214287Y-37828571D02*
X156214287Y-36328571D01*
X156071430Y-36542857D01*
X155928572Y-36685714D01*
X155785715Y-36757143D01*
X157357143Y-37828571D02*
X157642858Y-37828571D01*
X157785715Y-37757143D01*
X157857143Y-37685714D01*
X158000001Y-37471429D01*
X158071429Y-37185714D01*
X158071429Y-36614286D01*
X158000001Y-36471429D01*
X157928572Y-36400000D01*
X157785715Y-36328571D01*
X157500001Y-36328571D01*
X157357143Y-36400000D01*
X157285715Y-36471429D01*
X157214286Y-36614286D01*
X157214286Y-36971429D01*
X157285715Y-37114286D01*
X157357143Y-37185714D01*
X157500001Y-37257143D01*
X157785715Y-37257143D01*
X157928572Y-37185714D01*
X158000001Y-37114286D01*
X158071429Y-36971429D01*
X159857143Y-37828571D02*
X159857143Y-36828571D01*
X159857143Y-36971429D02*
X159928571Y-36900000D01*
X160071429Y-36828571D01*
X160285714Y-36828571D01*
X160428571Y-36900000D01*
X160500000Y-37042857D01*
X160500000Y-37828571D01*
X160500000Y-37042857D02*
X160571429Y-36900000D01*
X160714286Y-36828571D01*
X160928571Y-36828571D01*
X161071429Y-36900000D01*
X161142857Y-37042857D01*
X161142857Y-37828571D01*
X161857143Y-37828571D02*
X161857143Y-36828571D01*
X161857143Y-36971429D02*
X161928571Y-36900000D01*
X162071429Y-36828571D01*
X162285714Y-36828571D01*
X162428571Y-36900000D01*
X162500000Y-37042857D01*
X162500000Y-37828571D01*
X162500000Y-37042857D02*
X162571429Y-36900000D01*
X162714286Y-36828571D01*
X162928571Y-36828571D01*
X163071429Y-36900000D01*
X163142857Y-37042857D01*
X163142857Y-37828571D01*
X150000000Y-38500000D02*
X169000000Y-38500000D01*
X150000000Y-41000000D02*
X150000000Y-35800000D01*
X169000000Y-41000000D02*
X169000000Y-35800000D01*
X169000000Y-38500000D02*
X167873496Y-39086421D01*
X169000000Y-38500000D02*
X167873496Y-37913579D01*
X150000000Y-38500000D02*
X151126504Y-39086421D01*
X150000000Y-38500000D02*
X151126504Y-37913579D01*
X130964286Y-36471429D02*
X131035715Y-36400000D01*
X131178572Y-36328571D01*
X131535715Y-36328571D01*
X131678572Y-36400000D01*
X131750001Y-36471429D01*
X131821429Y-36614286D01*
X131821429Y-36757143D01*
X131750001Y-36971429D01*
X130892858Y-37828571D01*
X131821429Y-37828571D01*
X132678572Y-36971429D02*
X132535714Y-36900000D01*
X132464286Y-36828571D01*
X132392857Y-36685714D01*
X132392857Y-36614286D01*
X132464286Y-36471429D01*
X132535714Y-36400000D01*
X132678572Y-36328571D01*
X132964286Y-36328571D01*
X133107143Y-36400000D01*
X133178572Y-36471429D01*
X133250000Y-36614286D01*
X133250000Y-36685714D01*
X133178572Y-36828571D01*
X133107143Y-36900000D01*
X132964286Y-36971429D01*
X132678572Y-36971429D01*
X132535714Y-37042857D01*
X132464286Y-37114286D01*
X132392857Y-37257143D01*
X132392857Y-37542857D01*
X132464286Y-37685714D01*
X132535714Y-37757143D01*
X132678572Y-37828571D01*
X132964286Y-37828571D01*
X133107143Y-37757143D01*
X133178572Y-37685714D01*
X133250000Y-37542857D01*
X133250000Y-37257143D01*
X133178572Y-37114286D01*
X133107143Y-37042857D01*
X132964286Y-36971429D01*
X133892857Y-37685714D02*
X133964285Y-37757143D01*
X133892857Y-37828571D01*
X133821428Y-37757143D01*
X133892857Y-37685714D01*
X133892857Y-37828571D01*
X135321429Y-36328571D02*
X134607143Y-36328571D01*
X134535714Y-37042857D01*
X134607143Y-36971429D01*
X134750000Y-36900000D01*
X135107143Y-36900000D01*
X135250000Y-36971429D01*
X135321429Y-37042857D01*
X135392857Y-37185714D01*
X135392857Y-37542857D01*
X135321429Y-37685714D01*
X135250000Y-37757143D01*
X135107143Y-37828571D01*
X134750000Y-37828571D01*
X134607143Y-37757143D01*
X134535714Y-37685714D01*
X137178571Y-37828571D02*
X137178571Y-36828571D01*
X137178571Y-36971429D02*
X137249999Y-36900000D01*
X137392857Y-36828571D01*
X137607142Y-36828571D01*
X137749999Y-36900000D01*
X137821428Y-37042857D01*
X137821428Y-37828571D01*
X137821428Y-37042857D02*
X137892857Y-36900000D01*
X138035714Y-36828571D01*
X138249999Y-36828571D01*
X138392857Y-36900000D01*
X138464285Y-37042857D01*
X138464285Y-37828571D01*
X139178571Y-37828571D02*
X139178571Y-36828571D01*
X139178571Y-36971429D02*
X139249999Y-36900000D01*
X139392857Y-36828571D01*
X139607142Y-36828571D01*
X139749999Y-36900000D01*
X139821428Y-37042857D01*
X139821428Y-37828571D01*
X139821428Y-37042857D02*
X139892857Y-36900000D01*
X140035714Y-36828571D01*
X140249999Y-36828571D01*
X140392857Y-36900000D01*
X140464285Y-37042857D01*
X140464285Y-37828571D01*
X121500000Y-38500000D02*
X150000000Y-38500000D01*
X121500000Y-41000000D02*
X121500000Y-35800000D01*
X150000000Y-41000000D02*
X150000000Y-35800000D01*
X150000000Y-38500000D02*
X148873496Y-39086421D01*
X150000000Y-38500000D02*
X148873496Y-37913579D01*
X121500000Y-38500000D02*
X122626504Y-39086421D01*
X121500000Y-38500000D02*
X122626504Y-37913579D01*
X102714287Y-36428571D02*
X103642858Y-36428571D01*
X103142858Y-37000000D01*
X103357144Y-37000000D01*
X103500001Y-37071429D01*
X103571430Y-37142857D01*
X103642858Y-37285714D01*
X103642858Y-37642857D01*
X103571430Y-37785714D01*
X103500001Y-37857143D01*
X103357144Y-37928571D01*
X102928572Y-37928571D01*
X102785715Y-37857143D01*
X102714287Y-37785714D01*
X104571429Y-36428571D02*
X104714286Y-36428571D01*
X104857143Y-36500000D01*
X104928572Y-36571429D01*
X105000001Y-36714286D01*
X105071429Y-37000000D01*
X105071429Y-37357143D01*
X105000001Y-37642857D01*
X104928572Y-37785714D01*
X104857143Y-37857143D01*
X104714286Y-37928571D01*
X104571429Y-37928571D01*
X104428572Y-37857143D01*
X104357143Y-37785714D01*
X104285715Y-37642857D01*
X104214286Y-37357143D01*
X104214286Y-37000000D01*
X104285715Y-36714286D01*
X104357143Y-36571429D01*
X104428572Y-36500000D01*
X104571429Y-36428571D01*
X106857143Y-37928571D02*
X106857143Y-36928571D01*
X106857143Y-37071429D02*
X106928571Y-37000000D01*
X107071429Y-36928571D01*
X107285714Y-36928571D01*
X107428571Y-37000000D01*
X107500000Y-37142857D01*
X107500000Y-37928571D01*
X107500000Y-37142857D02*
X107571429Y-37000000D01*
X107714286Y-36928571D01*
X107928571Y-36928571D01*
X108071429Y-37000000D01*
X108142857Y-37142857D01*
X108142857Y-37928571D01*
X108857143Y-37928571D02*
X108857143Y-36928571D01*
X108857143Y-37071429D02*
X108928571Y-37000000D01*
X109071429Y-36928571D01*
X109285714Y-36928571D01*
X109428571Y-37000000D01*
X109500000Y-37142857D01*
X109500000Y-37928571D01*
X109500000Y-37142857D02*
X109571429Y-37000000D01*
X109714286Y-36928571D01*
X109928571Y-36928571D01*
X110071429Y-37000000D01*
X110142857Y-37142857D01*
X110142857Y-37928571D01*
X91500000Y-38600000D02*
X121500000Y-38600000D01*
X91500000Y-41000000D02*
X91500000Y-35900000D01*
X121500000Y-41000000D02*
X121500000Y-35900000D01*
X121500000Y-38600000D02*
X120373496Y-39186421D01*
X121500000Y-38600000D02*
X120373496Y-38013579D01*
X91500000Y-38600000D02*
X92626504Y-39186421D01*
X91500000Y-38600000D02*
X92626504Y-38013579D01*
X81142858Y-37928571D02*
X80285715Y-37928571D01*
X80714287Y-37928571D02*
X80714287Y-36428571D01*
X80571430Y-36642857D01*
X80428572Y-36785714D01*
X80285715Y-36857143D01*
X82500001Y-36428571D02*
X81785715Y-36428571D01*
X81714286Y-37142857D01*
X81785715Y-37071429D01*
X81928572Y-37000000D01*
X82285715Y-37000000D01*
X82428572Y-37071429D01*
X82500001Y-37142857D01*
X82571429Y-37285714D01*
X82571429Y-37642857D01*
X82500001Y-37785714D01*
X82428572Y-37857143D01*
X82285715Y-37928571D01*
X81928572Y-37928571D01*
X81785715Y-37857143D01*
X81714286Y-37785714D01*
X84357143Y-37928571D02*
X84357143Y-36928571D01*
X84357143Y-37071429D02*
X84428571Y-37000000D01*
X84571429Y-36928571D01*
X84785714Y-36928571D01*
X84928571Y-37000000D01*
X85000000Y-37142857D01*
X85000000Y-37928571D01*
X85000000Y-37142857D02*
X85071429Y-37000000D01*
X85214286Y-36928571D01*
X85428571Y-36928571D01*
X85571429Y-37000000D01*
X85642857Y-37142857D01*
X85642857Y-37928571D01*
X86357143Y-37928571D02*
X86357143Y-36928571D01*
X86357143Y-37071429D02*
X86428571Y-37000000D01*
X86571429Y-36928571D01*
X86785714Y-36928571D01*
X86928571Y-37000000D01*
X87000000Y-37142857D01*
X87000000Y-37928571D01*
X87000000Y-37142857D02*
X87071429Y-37000000D01*
X87214286Y-36928571D01*
X87428571Y-36928571D01*
X87571429Y-37000000D01*
X87642857Y-37142857D01*
X87642857Y-37928571D01*
X76500000Y-38600000D02*
X91500000Y-38600000D01*
X76500000Y-41000000D02*
X76500000Y-35900000D01*
X91500000Y-41000000D02*
X91500000Y-35900000D01*
X91500000Y-38600000D02*
X90373496Y-39186421D01*
X91500000Y-38600000D02*
X90373496Y-38013579D01*
X76500000Y-38600000D02*
X77626504Y-39186421D01*
X76500000Y-38600000D02*
X77626504Y-38013579D01*
X60464286Y-36571429D02*
X60535715Y-36500000D01*
X60678572Y-36428571D01*
X61035715Y-36428571D01*
X61178572Y-36500000D01*
X61250001Y-36571429D01*
X61321429Y-36714286D01*
X61321429Y-36857143D01*
X61250001Y-37071429D01*
X60392858Y-37928571D01*
X61321429Y-37928571D01*
X61892857Y-36571429D02*
X61964286Y-36500000D01*
X62107143Y-36428571D01*
X62464286Y-36428571D01*
X62607143Y-36500000D01*
X62678572Y-36571429D01*
X62750000Y-36714286D01*
X62750000Y-36857143D01*
X62678572Y-37071429D01*
X61821429Y-37928571D01*
X62750000Y-37928571D01*
X63392857Y-37785714D02*
X63464285Y-37857143D01*
X63392857Y-37928571D01*
X63321428Y-37857143D01*
X63392857Y-37785714D01*
X63392857Y-37928571D01*
X64821429Y-36428571D02*
X64107143Y-36428571D01*
X64035714Y-37142857D01*
X64107143Y-37071429D01*
X64250000Y-37000000D01*
X64607143Y-37000000D01*
X64750000Y-37071429D01*
X64821429Y-37142857D01*
X64892857Y-37285714D01*
X64892857Y-37642857D01*
X64821429Y-37785714D01*
X64750000Y-37857143D01*
X64607143Y-37928571D01*
X64250000Y-37928571D01*
X64107143Y-37857143D01*
X64035714Y-37785714D01*
X66678571Y-37928571D02*
X66678571Y-36928571D01*
X66678571Y-37071429D02*
X66749999Y-37000000D01*
X66892857Y-36928571D01*
X67107142Y-36928571D01*
X67249999Y-37000000D01*
X67321428Y-37142857D01*
X67321428Y-37928571D01*
X67321428Y-37142857D02*
X67392857Y-37000000D01*
X67535714Y-36928571D01*
X67749999Y-36928571D01*
X67892857Y-37000000D01*
X67964285Y-37142857D01*
X67964285Y-37928571D01*
X68678571Y-37928571D02*
X68678571Y-36928571D01*
X68678571Y-37071429D02*
X68749999Y-37000000D01*
X68892857Y-36928571D01*
X69107142Y-36928571D01*
X69249999Y-37000000D01*
X69321428Y-37142857D01*
X69321428Y-37928571D01*
X69321428Y-37142857D02*
X69392857Y-37000000D01*
X69535714Y-36928571D01*
X69749999Y-36928571D01*
X69892857Y-37000000D01*
X69964285Y-37142857D01*
X69964285Y-37928571D01*
X54000000Y-38600000D02*
X76500000Y-38600000D01*
X54000000Y-41000000D02*
X54000000Y-35900000D01*
X76500000Y-41000000D02*
X76500000Y-35900000D01*
X76500000Y-38600000D02*
X75373496Y-39186421D01*
X76500000Y-38600000D02*
X75373496Y-38013579D01*
X54000000Y-38600000D02*
X55126504Y-39186421D01*
X54000000Y-38600000D02*
X55126504Y-38013579D01*
X154571429Y-19071429D02*
X154642858Y-19000000D01*
X154785715Y-18928571D01*
X155142858Y-18928571D01*
X155285715Y-19000000D01*
X155357144Y-19071429D01*
X155428572Y-19214286D01*
X155428572Y-19357143D01*
X155357144Y-19571429D01*
X154500001Y-20428571D01*
X155428572Y-20428571D01*
X156357143Y-18928571D02*
X156500000Y-18928571D01*
X156642857Y-19000000D01*
X156714286Y-19071429D01*
X156785715Y-19214286D01*
X156857143Y-19500000D01*
X156857143Y-19857143D01*
X156785715Y-20142857D01*
X156714286Y-20285714D01*
X156642857Y-20357143D01*
X156500000Y-20428571D01*
X156357143Y-20428571D01*
X156214286Y-20357143D01*
X156142857Y-20285714D01*
X156071429Y-20142857D01*
X156000000Y-19857143D01*
X156000000Y-19500000D01*
X156071429Y-19214286D01*
X156142857Y-19071429D01*
X156214286Y-19000000D01*
X156357143Y-18928571D01*
X157785714Y-18928571D02*
X157928571Y-18928571D01*
X158071428Y-19000000D01*
X158142857Y-19071429D01*
X158214286Y-19214286D01*
X158285714Y-19500000D01*
X158285714Y-19857143D01*
X158214286Y-20142857D01*
X158142857Y-20285714D01*
X158071428Y-20357143D01*
X157928571Y-20428571D01*
X157785714Y-20428571D01*
X157642857Y-20357143D01*
X157571428Y-20285714D01*
X157500000Y-20142857D01*
X157428571Y-19857143D01*
X157428571Y-19500000D01*
X157500000Y-19214286D01*
X157571428Y-19071429D01*
X157642857Y-19000000D01*
X157785714Y-18928571D01*
X160071428Y-20428571D02*
X160071428Y-19428571D01*
X160071428Y-19571429D02*
X160142856Y-19500000D01*
X160285714Y-19428571D01*
X160499999Y-19428571D01*
X160642856Y-19500000D01*
X160714285Y-19642857D01*
X160714285Y-20428571D01*
X160714285Y-19642857D02*
X160785714Y-19500000D01*
X160928571Y-19428571D01*
X161142856Y-19428571D01*
X161285714Y-19500000D01*
X161357142Y-19642857D01*
X161357142Y-20428571D01*
X162071428Y-20428571D02*
X162071428Y-19428571D01*
X162071428Y-19571429D02*
X162142856Y-19500000D01*
X162285714Y-19428571D01*
X162499999Y-19428571D01*
X162642856Y-19500000D01*
X162714285Y-19642857D01*
X162714285Y-20428571D01*
X162714285Y-19642857D02*
X162785714Y-19500000D01*
X162928571Y-19428571D01*
X163142856Y-19428571D01*
X163285714Y-19500000D01*
X163357142Y-19642857D01*
X163357142Y-20428571D01*
X59000000Y-21100000D02*
X259000000Y-21100000D01*
X59000000Y-46000000D02*
X59000000Y-18400000D01*
X259000000Y-46000000D02*
X259000000Y-18400000D01*
X259000000Y-21100000D02*
X257873496Y-21686421D01*
X259000000Y-21100000D02*
X257873496Y-20513579D01*
X59000000Y-21100000D02*
X60126504Y-21686421D01*
X59000000Y-21100000D02*
X60126504Y-20513579D01*
X154571429Y-15471429D02*
X154642858Y-15400000D01*
X154785715Y-15328571D01*
X155142858Y-15328571D01*
X155285715Y-15400000D01*
X155357144Y-15471429D01*
X155428572Y-15614286D01*
X155428572Y-15757143D01*
X155357144Y-15971429D01*
X154500001Y-16828571D01*
X155428572Y-16828571D01*
X156857143Y-16828571D02*
X156000000Y-16828571D01*
X156428572Y-16828571D02*
X156428572Y-15328571D01*
X156285715Y-15542857D01*
X156142857Y-15685714D01*
X156000000Y-15757143D01*
X157785714Y-15328571D02*
X157928571Y-15328571D01*
X158071428Y-15400000D01*
X158142857Y-15471429D01*
X158214286Y-15614286D01*
X158285714Y-15900000D01*
X158285714Y-16257143D01*
X158214286Y-16542857D01*
X158142857Y-16685714D01*
X158071428Y-16757143D01*
X157928571Y-16828571D01*
X157785714Y-16828571D01*
X157642857Y-16757143D01*
X157571428Y-16685714D01*
X157500000Y-16542857D01*
X157428571Y-16257143D01*
X157428571Y-15900000D01*
X157500000Y-15614286D01*
X157571428Y-15471429D01*
X157642857Y-15400000D01*
X157785714Y-15328571D01*
X160071428Y-16828571D02*
X160071428Y-15828571D01*
X160071428Y-15971429D02*
X160142856Y-15900000D01*
X160285714Y-15828571D01*
X160499999Y-15828571D01*
X160642856Y-15900000D01*
X160714285Y-16042857D01*
X160714285Y-16828571D01*
X160714285Y-16042857D02*
X160785714Y-15900000D01*
X160928571Y-15828571D01*
X161142856Y-15828571D01*
X161285714Y-15900000D01*
X161357142Y-16042857D01*
X161357142Y-16828571D01*
X162071428Y-16828571D02*
X162071428Y-15828571D01*
X162071428Y-15971429D02*
X162142856Y-15900000D01*
X162285714Y-15828571D01*
X162499999Y-15828571D01*
X162642856Y-15900000D01*
X162714285Y-16042857D01*
X162714285Y-16828571D01*
X162714285Y-16042857D02*
X162785714Y-15900000D01*
X162928571Y-15828571D01*
X163142856Y-15828571D01*
X163285714Y-15900000D01*
X163357142Y-16042857D01*
X163357142Y-16828571D01*
X54000000Y-17500000D02*
X264000000Y-17500000D01*
X54000000Y-41000000D02*
X54000000Y-14800000D01*
X264000000Y-41000000D02*
X264000000Y-14800000D01*
X264000000Y-17500000D02*
X262873496Y-18086421D01*
X264000000Y-17500000D02*
X262873496Y-16913579D01*
X54000000Y-17500000D02*
X55126504Y-18086421D01*
X54000000Y-17500000D02*
X55126504Y-16913579D01*
X42428572Y-150571429D02*
X42500001Y-150642858D01*
X42571430Y-150785715D01*
X42571430Y-151142858D01*
X42500001Y-151285715D01*
X42428572Y-151357144D01*
X42285715Y-151428572D01*
X42142858Y-151428572D01*
X41928572Y-151357144D01*
X41071430Y-150500001D01*
X41071430Y-151428572D01*
X42428572Y-152000000D02*
X42500001Y-152071429D01*
X42571430Y-152214286D01*
X42571430Y-152571429D01*
X42500001Y-152714286D01*
X42428572Y-152785715D01*
X42285715Y-152857143D01*
X42142858Y-152857143D01*
X41928572Y-152785715D01*
X41071430Y-151928572D01*
X41071430Y-152857143D01*
X41928572Y-153714286D02*
X42000001Y-153571428D01*
X42071430Y-153500000D01*
X42214287Y-153428571D01*
X42285715Y-153428571D01*
X42428572Y-153500000D01*
X42500001Y-153571428D01*
X42571430Y-153714286D01*
X42571430Y-154000000D01*
X42500001Y-154142857D01*
X42428572Y-154214286D01*
X42285715Y-154285714D01*
X42214287Y-154285714D01*
X42071430Y-154214286D01*
X42000001Y-154142857D01*
X41928572Y-154000000D01*
X41928572Y-153714286D01*
X41857144Y-153571428D01*
X41785715Y-153500000D01*
X41642858Y-153428571D01*
X41357144Y-153428571D01*
X41214287Y-153500000D01*
X41142858Y-153571428D01*
X41071430Y-153714286D01*
X41071430Y-154000000D01*
X41142858Y-154142857D01*
X41214287Y-154214286D01*
X41357144Y-154285714D01*
X41642858Y-154285714D01*
X41785715Y-154214286D01*
X41857144Y-154142857D01*
X41928572Y-154000000D01*
X41071430Y-156071428D02*
X42071430Y-156071428D01*
X41928572Y-156071428D02*
X42000001Y-156142856D01*
X42071430Y-156285714D01*
X42071430Y-156499999D01*
X42000001Y-156642856D01*
X41857144Y-156714285D01*
X41071430Y-156714285D01*
X41857144Y-156714285D02*
X42000001Y-156785714D01*
X42071430Y-156928571D01*
X42071430Y-157142856D01*
X42000001Y-157285714D01*
X41857144Y-157357142D01*
X41071430Y-157357142D01*
X41071430Y-158071428D02*
X42071430Y-158071428D01*
X41928572Y-158071428D02*
X42000001Y-158142856D01*
X42071430Y-158285714D01*
X42071430Y-158499999D01*
X42000001Y-158642856D01*
X41857144Y-158714285D01*
X41071430Y-158714285D01*
X41857144Y-158714285D02*
X42000001Y-158785714D01*
X42071430Y-158928571D01*
X42071430Y-159142856D01*
X42000001Y-159285714D01*
X41857144Y-159357142D01*
X41071430Y-159357142D01*
X43100001Y-41000000D02*
X43100001Y-269000000D01*
X54000000Y-41000000D02*
X40400001Y-41000000D01*
X54000000Y-269000000D02*
X40400001Y-269000000D01*
X43100001Y-269000000D02*
X42513580Y-267873496D01*
X43100001Y-269000000D02*
X43686422Y-267873496D01*
X43100001Y-41000000D02*
X42513580Y-42126504D01*
X43100001Y-41000000D02*
X43686422Y-42126504D01*
X46828572Y-150571429D02*
X46900001Y-150642858D01*
X46971430Y-150785715D01*
X46971430Y-151142858D01*
X46900001Y-151285715D01*
X46828572Y-151357144D01*
X46685715Y-151428572D01*
X46542858Y-151428572D01*
X46328572Y-151357144D01*
X45471430Y-150500001D01*
X45471430Y-151428572D01*
X45471430Y-152857143D02*
X45471430Y-152000000D01*
X45471430Y-152428572D02*
X46971430Y-152428572D01*
X46757144Y-152285715D01*
X46614287Y-152142857D01*
X46542858Y-152000000D01*
X46328572Y-153714286D02*
X46400001Y-153571428D01*
X46471430Y-153500000D01*
X46614287Y-153428571D01*
X46685715Y-153428571D01*
X46828572Y-153500000D01*
X46900001Y-153571428D01*
X46971430Y-153714286D01*
X46971430Y-154000000D01*
X46900001Y-154142857D01*
X46828572Y-154214286D01*
X46685715Y-154285714D01*
X46614287Y-154285714D01*
X46471430Y-154214286D01*
X46400001Y-154142857D01*
X46328572Y-154000000D01*
X46328572Y-153714286D01*
X46257144Y-153571428D01*
X46185715Y-153500000D01*
X46042858Y-153428571D01*
X45757144Y-153428571D01*
X45614287Y-153500000D01*
X45542858Y-153571428D01*
X45471430Y-153714286D01*
X45471430Y-154000000D01*
X45542858Y-154142857D01*
X45614287Y-154214286D01*
X45757144Y-154285714D01*
X46042858Y-154285714D01*
X46185715Y-154214286D01*
X46257144Y-154142857D01*
X46328572Y-154000000D01*
X45471430Y-156071428D02*
X46471430Y-156071428D01*
X46328572Y-156071428D02*
X46400001Y-156142856D01*
X46471430Y-156285714D01*
X46471430Y-156499999D01*
X46400001Y-156642856D01*
X46257144Y-156714285D01*
X45471430Y-156714285D01*
X46257144Y-156714285D02*
X46400001Y-156785714D01*
X46471430Y-156928571D01*
X46471430Y-157142856D01*
X46400001Y-157285714D01*
X46257144Y-157357142D01*
X45471430Y-157357142D01*
X45471430Y-158071428D02*
X46471430Y-158071428D01*
X46328572Y-158071428D02*
X46400001Y-158142856D01*
X46471430Y-158285714D01*
X46471430Y-158499999D01*
X46400001Y-158642856D01*
X46257144Y-158714285D01*
X45471430Y-158714285D01*
X46257144Y-158714285D02*
X46400001Y-158785714D01*
X46471430Y-158928571D01*
X46471430Y-159142856D01*
X46400001Y-159285714D01*
X46257144Y-159357142D01*
X45471430Y-159357142D01*
X47500001Y-46000000D02*
X47500001Y-264000000D01*
X59000000Y-46000000D02*
X44800001Y-46000000D01*
X59000000Y-264000000D02*
X44800001Y-264000000D01*
X47500001Y-264000000D02*
X46913580Y-262873496D01*
X47500001Y-264000000D02*
X48086422Y-262873496D01*
X47500001Y-46000000D02*
X46913580Y-47126504D01*
X47500001Y-46000000D02*
X48086422Y-47126504D01*
D13*
X264000000Y-46000000D02*
X264000000Y-264000000D01*
X93000000Y-41000000D02*
X259000000Y-41000000D01*
X75000000Y-41000000D02*
X59000000Y-41000000D01*
X76500000Y-42500000D02*
X76500000Y-42600000D01*
X76500000Y-42500000D02*
G75*
G03X75000000Y-41000000I-1500000J0D01*
G01*
X91500000Y-42500000D02*
X91500000Y-42600000D01*
X93000000Y-41000000D02*
G75*
G03X91500000Y-42500000I0J-1500000D01*
G01*
X90000000Y-44100000D02*
G75*
G03X91500000Y-42600000I0J1500000D01*
G01*
X76500000Y-42600000D02*
G75*
G03X78000000Y-44100000I1500000J0D01*
G01*
X84000000Y-44100000D02*
X90000000Y-44100000D01*
X84000000Y-44100000D02*
X78000000Y-44100000D01*
X54000000Y-264000000D02*
X54000000Y-46000000D01*
X259000000Y-269000000D02*
G75*
G03X264000000Y-264000000I0J5000000D01*
G01*
X264000000Y-46000000D02*
G75*
G03X259000000Y-41000000I-5000000J0D01*
G01*
X59000000Y-41000000D02*
G75*
G03X54000000Y-46000000I0J-5000000D01*
G01*
X54000000Y-264000000D02*
G75*
G03X59000000Y-269000000I5000000J0D01*
G01*
X230000000Y-260000000D02*
X223000000Y-260000000D01*
D14*
X54000000Y-83000000D02*
X264000000Y-83000000D01*
X54000000Y-67000000D02*
X264000000Y-67000000D01*
X54000000Y-51000000D02*
X264000000Y-51000000D01*
D15*
X76500000Y-51000000D02*
X76500000Y-259000000D01*
X196500000Y-259000000D02*
X196500000Y-51000000D01*
X181500000Y-51000000D02*
X181500000Y-259000000D01*
D14*
X189000000Y-259000000D02*
X189000000Y-51000000D01*
D15*
X264000000Y-251000000D02*
X54000000Y-251000000D01*
X54000000Y-235000000D02*
X264000000Y-235000000D01*
X264000000Y-219000000D02*
X54000000Y-219000000D01*
X54000000Y-203000000D02*
X264000000Y-203000000D01*
X264000000Y-187000000D02*
X54000000Y-187000000D01*
X54000000Y-171000000D02*
X264000000Y-171000000D01*
X264000000Y-155000000D02*
X54000000Y-155000000D01*
X54000000Y-139000000D02*
X264000000Y-139000000D01*
X264000000Y-123000000D02*
X54000000Y-123000000D01*
X54000000Y-107000000D02*
X264000000Y-107000000D01*
X54000000Y-91000000D02*
X264000000Y-91000000D01*
D14*
X54000000Y-99000000D02*
X264000000Y-99000000D01*
D15*
X69000000Y-67000000D02*
X69000000Y-83000000D01*
X69000000Y-67000000D02*
X69000000Y-83000000D01*
X69000000Y-67000000D02*
X69000000Y-83000000D01*
X69000000Y-67000000D02*
X69000000Y-83000000D01*
X264000000Y-59000000D02*
X54000000Y-59000000D01*
X54000000Y-75000000D02*
X264000000Y-75000000D01*
X256500000Y-51000000D02*
X256500000Y-259000000D01*
X241500000Y-259000000D02*
X241500000Y-51000000D01*
X226500000Y-51000000D02*
X226500000Y-259000000D01*
X211500000Y-259000000D02*
X211500000Y-51000000D01*
X166500000Y-51000000D02*
X166500000Y-259000000D01*
X151500000Y-259000000D02*
X151500000Y-51000000D01*
X136500000Y-51000000D02*
X136500000Y-259000000D01*
X121500000Y-259000000D02*
X121500000Y-51000000D01*
X106500000Y-51000000D02*
X106500000Y-259000000D01*
X91500000Y-259000000D02*
X91500000Y-51000000D01*
X61500000Y-259000000D02*
X77000000Y-259000000D01*
X61500000Y-51000000D02*
X61500000Y-259000000D01*
D14*
X54000000Y-243000000D02*
X264000000Y-243000000D01*
X54000000Y-227000000D02*
X264000000Y-227000000D01*
X264000000Y-211000000D02*
X54000000Y-211000000D01*
X54000000Y-195000000D02*
X264000000Y-195000000D01*
X264000000Y-179000000D02*
X54000000Y-179000000D01*
X54000000Y-163000000D02*
X264000000Y-163000000D01*
X264000000Y-147000000D02*
X54000000Y-147000000D01*
X54000000Y-131000000D02*
X264000000Y-131000000D01*
X264000000Y-115000000D02*
X54000000Y-115000000D01*
X249000000Y-259000000D02*
X249000000Y-51000000D01*
X234000000Y-51000000D02*
X234000000Y-259000000D01*
X219000000Y-259000000D02*
X219000000Y-51000000D01*
X204000000Y-51000000D02*
X204000000Y-259000000D01*
X174000000Y-51000000D02*
X174000000Y-259000000D01*
X159000000Y-259000000D02*
X159000000Y-51000000D01*
X144000000Y-51000000D02*
X144000000Y-259000000D01*
X129000000Y-259000000D02*
X129000000Y-51000000D01*
X114000000Y-51000000D02*
X114000000Y-259000000D01*
X99000000Y-51000000D02*
X99000000Y-259000000D01*
X84000000Y-51000000D02*
X84000000Y-259000000D01*
X69000000Y-51000000D02*
X69000000Y-259000000D01*
D15*
X84000000Y-51000000D02*
X84000000Y-67000000D01*
X84000000Y-67000000D02*
X69000000Y-67000000D01*
X84000000Y-67000000D02*
X69000000Y-67000000D01*
X84000000Y-51000000D02*
X84000000Y-67000000D01*
X84000000Y-51000000D02*
X84000000Y-67000000D01*
X84000000Y-67000000D02*
X69000000Y-67000000D01*
X84000000Y-67000000D02*
X69000000Y-67000000D01*
X84000000Y-51000000D02*
X84000000Y-67000000D01*
X99000000Y-51000000D02*
X99000000Y-67000000D01*
X99000000Y-67000000D02*
X84000000Y-67000000D01*
X84000000Y-67000000D02*
X84000000Y-51000000D01*
X84000000Y-67000000D02*
X84000000Y-51000000D01*
X99000000Y-67000000D02*
X84000000Y-67000000D01*
X99000000Y-51000000D02*
X99000000Y-67000000D01*
X99000000Y-51000000D02*
X99000000Y-67000000D01*
X99000000Y-67000000D02*
X84000000Y-67000000D01*
X84000000Y-67000000D02*
X84000000Y-51000000D01*
X84000000Y-67000000D02*
X84000000Y-51000000D01*
X99000000Y-67000000D02*
X84000000Y-67000000D01*
X99000000Y-51000000D02*
X99000000Y-67000000D01*
X69000000Y-67000000D02*
X84000000Y-67000000D01*
X69000000Y-67000000D02*
X84000000Y-67000000D01*
X69000000Y-67000000D02*
X84000000Y-67000000D01*
X69000000Y-67000000D02*
X84000000Y-67000000D01*
X54000000Y-67000000D02*
X69000000Y-67000000D01*
X54000000Y-67000000D02*
X69000000Y-67000000D01*
X54000000Y-67000000D02*
X69000000Y-67000000D01*
X54000000Y-67000000D02*
X69000000Y-67000000D01*
D14*
X54000000Y-259000000D02*
X264000000Y-259000000D01*
D15*
X84000000Y-51000000D02*
X84000000Y-67000000D01*
X84000000Y-67000000D02*
X69000000Y-67000000D01*
X69000000Y-67000000D02*
X69000000Y-51000000D01*
X69000000Y-67000000D02*
X69000000Y-51000000D01*
X84000000Y-67000000D02*
X69000000Y-67000000D01*
X84000000Y-51000000D02*
X84000000Y-67000000D01*
X84000000Y-51000000D02*
X84000000Y-67000000D01*
X84000000Y-67000000D02*
X69000000Y-67000000D01*
X69000000Y-67000000D02*
X69000000Y-51000000D01*
X69000000Y-67000000D02*
X69000000Y-51000000D01*
X84000000Y-67000000D02*
X69000000Y-67000000D01*
X84000000Y-51000000D02*
X84000000Y-67000000D01*
X69000000Y-51000000D02*
X69000000Y-67000000D01*
X69000000Y-67000000D02*
X54000000Y-67000000D01*
X69000000Y-67000000D02*
X54000000Y-67000000D01*
X69000000Y-51000000D02*
X69000000Y-67000000D01*
X69000000Y-51000000D02*
X69000000Y-67000000D01*
X69000000Y-67000000D02*
X54000000Y-67000000D01*
X69000000Y-67000000D02*
X54000000Y-67000000D01*
X69000000Y-51000000D02*
X69000000Y-67000000D01*
M02*
