G04 #@! TF.FileFunction,Profile,NP*
%FSLAX46Y46*%
G04 Gerber Fmt 4.6, Leading zero omitted, Abs format (unit mm)*
G04 Created by KiCad (PCBNEW (2015-07-01 BZR 5850)-product) date Mon Oct 12 14:49:48 2015*
%MOMM*%
G01*
G04 APERTURE LIST*
%ADD10C,0.150000*%
%ADD11C,0.100000*%
G04 APERTURE END LIST*
D10*
D11*
X220000000Y-269000000D02*
X59000000Y-269000000D01*
X233000000Y-269000000D02*
X259000000Y-269000000D01*
X231500000Y-261500000D02*
X231500000Y-267500000D01*
X221500000Y-267500000D02*
X221500000Y-261500000D01*
X231500000Y-267500000D02*
G75*
G03X233000000Y-269000000I1500000J0D01*
G01*
X220000000Y-269000000D02*
G75*
G03X221500000Y-267500000I0J1500000D01*
G01*
X231500000Y-261500000D02*
G75*
G03X230000000Y-260000000I-1500000J0D01*
G01*
X223000000Y-260000000D02*
G75*
G03X221500000Y-261500000I0J-1500000D01*
G01*
X264000000Y-46000000D02*
X264000000Y-264000000D01*
X93000000Y-41000000D02*
X259000000Y-41000000D01*
X75000000Y-41000000D02*
X59000000Y-41000000D01*
X76500000Y-42500000D02*
X76500000Y-42600000D01*
X76500000Y-42500000D02*
G75*
G03X75000000Y-41000000I-1500000J0D01*
G01*
X91500000Y-42500000D02*
X91500000Y-42600000D01*
X93000000Y-41000000D02*
G75*
G03X91500000Y-42500000I0J-1500000D01*
G01*
X90000000Y-44100000D02*
G75*
G03X91500000Y-42600000I0J1500000D01*
G01*
X76500000Y-42600000D02*
G75*
G03X78000000Y-44100000I1500000J0D01*
G01*
X84000000Y-44100000D02*
X90000000Y-44100000D01*
X84000000Y-44100000D02*
X78000000Y-44100000D01*
X54000000Y-264000000D02*
X54000000Y-46000000D01*
X259000000Y-269000000D02*
G75*
G03X264000000Y-264000000I0J5000000D01*
G01*
X264000000Y-46000000D02*
G75*
G03X259000000Y-41000000I-5000000J0D01*
G01*
X59000000Y-41000000D02*
G75*
G03X54000000Y-46000000I0J-5000000D01*
G01*
X54000000Y-264000000D02*
G75*
G03X59000000Y-269000000I5000000J0D01*
G01*
X230000000Y-260000000D02*
X223000000Y-260000000D01*
M02*
