%FSLAX46Y46*%
G04 Gerber Fmt 4.6, Leading zero omitted, Abs format (unit mm)*
G04 Created by KiCad (PCBNEW (2014-09-25 BZR 5147)-product) date Friday 10 October 2014 04:41:16 PM IST*
%MOMM*%
G01*
G04 APERTURE LIST*
%ADD10C,0.150000*%
%ADD11C,0.100000*%
%ADD12C,6.500000*%
%ADD13R,1.524000X1.524000*%
%ADD14O,2.000000X3.500000*%
%ADD15O,3.500000X2.000000*%
%ADD16C,2.500000*%
%ADD17C,2.100000*%
%ADD18R,5.715000X5.715000*%
%ADD19C,12.000000*%
%ADD20R,1.998980X0.599440*%
%ADD21R,1.498600X1.300480*%
%ADD22R,1.300480X1.049020*%
%ADD23R,0.449580X1.998980*%
%ADD24R,1.998980X0.449580*%
%ADD25R,1.600000X1.600000*%
%ADD26C,1.600000*%
%ADD27C,1.524000*%
%ADD28C,1.778000*%
%ADD29C,2.032000*%
%ADD30R,1.550000X1.350000*%
%ADD31R,1.350000X1.550000*%
%ADD32R,1.778000X1.778000*%
%ADD33C,0.889000*%
%ADD34C,0.254000*%
%ADD35C,0.508000*%
G04 APERTURE END LIST*
D10*
D11*
X264000000Y-46000000D02*
X264000000Y-264000000D01*
X93000000Y-41000000D02*
X259000000Y-41000000D01*
X75000000Y-41000000D02*
X59000000Y-41000000D01*
X76500000Y-42500000D02*
X76500000Y-42600000D01*
X76500000Y-42500000D02*
G75*
G03X75000000Y-41000000I-1500000J0D01*
G74*
G01*
X91500000Y-42500000D02*
X91500000Y-42600000D01*
X93000000Y-41000000D02*
G75*
G03X91500000Y-42500000I0J-1500000D01*
G74*
G01*
X90000000Y-44100000D02*
G75*
G03X91500000Y-42600000I0J1500000D01*
G74*
G01*
X76500000Y-42600000D02*
G75*
G03X78000000Y-44100000I1500000J0D01*
G74*
G01*
X84000000Y-44100000D02*
X90000000Y-44100000D01*
X84000000Y-44100000D02*
X78000000Y-44100000D01*
X54000000Y-264000000D02*
X54000000Y-46000000D01*
X225500000Y-269000000D02*
X59000000Y-269000000D01*
X259000000Y-269000000D02*
X238500000Y-269000000D01*
X259000000Y-269000000D02*
G75*
G03X264000000Y-264000000I0J5000000D01*
G74*
G01*
X264000000Y-46000000D02*
G75*
G03X259000000Y-41000000I-5000000J0D01*
G74*
G01*
X59000000Y-41000000D02*
G75*
G03X54000000Y-46000000I0J-5000000D01*
G74*
G01*
X54000000Y-264000000D02*
G75*
G03X59000000Y-269000000I5000000J0D01*
G74*
G01*
X237000000Y-267500000D02*
X237000000Y-261200000D01*
X227000000Y-261200000D02*
X227000000Y-267500000D01*
X225500000Y-269000000D02*
G75*
G03X227000000Y-267500000I0J1500000D01*
G74*
G01*
X237000000Y-267500000D02*
G75*
G03X238500000Y-269000000I1500000J0D01*
G74*
G01*
X237000000Y-261200000D02*
G75*
G03X235500000Y-259700000I-1500000J0D01*
G74*
G01*
X228500000Y-259700000D02*
G75*
G03X227000000Y-261200000I0J-1500000D01*
G74*
G01*
X235500000Y-259700000D02*
X228500000Y-259700000D01*
D12*
X259000000Y-264000000D03*
X59000000Y-264000000D03*
X259000000Y-46000000D03*
X59000000Y-46000000D03*
D13*
X119200000Y-81200000D03*
X123800000Y-81200000D03*
X126800000Y-81200000D03*
X146200000Y-81200000D03*
X149200000Y-81200000D03*
D14*
X159100000Y-264200000D03*
D15*
X161300000Y-260900000D03*
X161300000Y-267500000D03*
X153900000Y-260500000D03*
X153900000Y-267900000D03*
D16*
X155000000Y-264200000D03*
D17*
X207000000Y-261200000D03*
X207000000Y-267200000D03*
X187000000Y-261200000D03*
X187100000Y-267200000D03*
D18*
X96827000Y-50200000D03*
X71173000Y-50200000D03*
D19*
X84000000Y-50200000D03*
D20*
X86649260Y-72845000D03*
X86649260Y-71575000D03*
X86649260Y-70305000D03*
X86649260Y-69035000D03*
X86649260Y-67765000D03*
X86649260Y-66495000D03*
X86649260Y-65225000D03*
X86649260Y-63955000D03*
X95950740Y-63955000D03*
X95950740Y-65225000D03*
X95950740Y-66495000D03*
X95950740Y-67765000D03*
X95950740Y-69035000D03*
X95950740Y-70305000D03*
X95950740Y-71575000D03*
X95950740Y-72845000D03*
D21*
X86300000Y-78252500D03*
X86300000Y-76347500D03*
X88900000Y-78252500D03*
X88900000Y-76347500D03*
X93700000Y-78252500D03*
X93700000Y-76347500D03*
D22*
X132543000Y-88502500D03*
X130257000Y-86597500D03*
X132543000Y-86597500D03*
X130257000Y-88502500D03*
D23*
X133700920Y-79150360D03*
X134501020Y-79150360D03*
X135301120Y-79150360D03*
X136101220Y-79150360D03*
X136898780Y-79150360D03*
X137698880Y-79150360D03*
X138498980Y-79150360D03*
X139299080Y-79150360D03*
X139299080Y-70849640D03*
X133700920Y-70849640D03*
X134501020Y-70849640D03*
X135301120Y-70849640D03*
X136101220Y-70849640D03*
X136898780Y-70849640D03*
X137698880Y-70849640D03*
X138498980Y-70849640D03*
D24*
X140650360Y-77799080D03*
X140650360Y-76998980D03*
X140650360Y-76198880D03*
X140650360Y-75398780D03*
X140650360Y-74601220D03*
X140650360Y-73801120D03*
X140650360Y-73001020D03*
X140650360Y-72200920D03*
X132349640Y-77799080D03*
X132349640Y-76998980D03*
X132349640Y-76198880D03*
X132349640Y-75398780D03*
X132349640Y-74601220D03*
X132349640Y-73801120D03*
X132349640Y-73001020D03*
X132349640Y-72200920D03*
D25*
X123940000Y-47270000D03*
D26*
X123940000Y-44730000D03*
X121400000Y-47270000D03*
X121400000Y-44730000D03*
X118860000Y-47270000D03*
X118860000Y-44730000D03*
D21*
X146000000Y-44797500D03*
X146000000Y-46702500D03*
D13*
X149480000Y-44750000D03*
D27*
X152020000Y-44750000D03*
D21*
X155500000Y-46702500D03*
X155500000Y-44797500D03*
X190000000Y-44797500D03*
X190000000Y-46702500D03*
D13*
X196520000Y-44750000D03*
D27*
X193980000Y-44750000D03*
D21*
X200000000Y-44797500D03*
X200000000Y-46702500D03*
X234000000Y-46702500D03*
X234000000Y-44797500D03*
D28*
X239277500Y-43300000D03*
X243722500Y-43300000D03*
D29*
X238007500Y-45840000D03*
X244992500Y-45840000D03*
D28*
X243722500Y-49777000D03*
X239277500Y-49777000D03*
X242770000Y-47872000D03*
X240230000Y-47872000D03*
D21*
X96300000Y-78252500D03*
X96300000Y-76347500D03*
D30*
X229500000Y-44750000D03*
X229500000Y-46750000D03*
X159000000Y-44750000D03*
X159000000Y-46750000D03*
X142500000Y-44750000D03*
X142500000Y-46750000D03*
X129750000Y-46750000D03*
X129750000Y-44750000D03*
X104000000Y-46750000D03*
X104000000Y-44750000D03*
D31*
X135600000Y-66000000D03*
X137600000Y-66000000D03*
X136250000Y-83750000D03*
X138250000Y-83750000D03*
X132400000Y-83800000D03*
X130400000Y-83800000D03*
X132400000Y-91250000D03*
X130400000Y-91250000D03*
D13*
X212650000Y-44750000D03*
X215190000Y-44750000D03*
D27*
X217730000Y-44750000D03*
X220270000Y-44750000D03*
X222810000Y-44750000D03*
X225350000Y-44750000D03*
D30*
X181000000Y-55750000D03*
X181000000Y-57750000D03*
X169500000Y-55750000D03*
X169500000Y-57750000D03*
D21*
X177750000Y-57702500D03*
X177750000Y-55797500D03*
X172750000Y-57702500D03*
X172750000Y-55797500D03*
D28*
X165190000Y-44750000D03*
X167730000Y-44750000D03*
X170270000Y-44750000D03*
D32*
X172810000Y-44750000D03*
D28*
X177690000Y-50000000D03*
X180230000Y-50000000D03*
X182770000Y-50000000D03*
D32*
X185310000Y-50000000D03*
D33*
X137600000Y-53200000D03*
X65250000Y-54250000D03*
X159600000Y-68000000D03*
X106600000Y-68000000D03*
X158200000Y-66800000D03*
X103800000Y-66800000D03*
X234000000Y-63500000D03*
X84100000Y-79500000D03*
X98000000Y-79500000D03*
X132750000Y-64500000D03*
X177250000Y-63500000D03*
X188250000Y-55750000D03*
X142500000Y-55750000D03*
X159000000Y-55750000D03*
X82000000Y-71500000D03*
X261500000Y-248500000D03*
X90400000Y-70600000D03*
X138100000Y-86600000D03*
D34*
X142500000Y-44750000D02*
X141050000Y-44750000D01*
X140600000Y-56000000D02*
X147750000Y-63150000D01*
X140600000Y-45200000D02*
X140600000Y-56000000D01*
X141050000Y-44750000D02*
X140600000Y-45200000D01*
X146650360Y-70849640D02*
X139299080Y-70849640D01*
X147750000Y-63150000D02*
X147750000Y-69750000D01*
X147750000Y-69750000D02*
X146650360Y-70849640D01*
X142500000Y-44750000D02*
X145952500Y-44750000D01*
X145952500Y-44750000D02*
X146000000Y-44797500D01*
X149480000Y-44750000D02*
X146047500Y-44750000D01*
X146047500Y-44750000D02*
X146000000Y-44797500D01*
X159000000Y-44750000D02*
X160550000Y-44750000D01*
X161200000Y-56000000D02*
X154000000Y-63200000D01*
X161200000Y-45400000D02*
X161200000Y-56000000D01*
X160550000Y-44750000D02*
X161200000Y-45400000D01*
X154000000Y-72000000D02*
X152976120Y-73023880D01*
X152976120Y-73023880D02*
X141326000Y-73023880D01*
X154000000Y-63200000D02*
X154000000Y-72000000D01*
X159000000Y-44750000D02*
X155547500Y-44750000D01*
X155547500Y-44750000D02*
X155500000Y-44797500D01*
X152020000Y-44750000D02*
X155452500Y-44750000D01*
X155452500Y-44750000D02*
X155500000Y-44797500D01*
X149200000Y-81200000D02*
X149200000Y-80400000D01*
X149200000Y-80400000D02*
X148615840Y-79815840D01*
X139324480Y-79815840D02*
X148615840Y-79815840D01*
X146200000Y-81200000D02*
X139200000Y-81200000D01*
X139200000Y-81200000D02*
X138524380Y-80524380D01*
X138524380Y-79815840D02*
X138524380Y-80524380D01*
X126800000Y-81200000D02*
X126800000Y-78600000D01*
X127580600Y-77819400D02*
X131724800Y-77819400D01*
X126800000Y-78600000D02*
X127580600Y-77819400D01*
X123800000Y-81200000D02*
X123800000Y-78000000D01*
X124768000Y-77032000D02*
X131724800Y-77032000D01*
X123800000Y-78000000D02*
X124768000Y-77032000D01*
X119200000Y-81200000D02*
X119200000Y-77000000D01*
X119980800Y-76219200D02*
X131724800Y-76219200D01*
X119200000Y-77000000D02*
X119980800Y-76219200D01*
X193980000Y-44750000D02*
X190047500Y-44750000D01*
X190047500Y-44750000D02*
X190000000Y-44797500D01*
X200000000Y-46702500D02*
X194702500Y-46702500D01*
X193980000Y-45980000D02*
X193980000Y-44750000D01*
X194702500Y-46702500D02*
X193980000Y-45980000D01*
X138498980Y-70849640D02*
X138498980Y-68901020D01*
X139600000Y-67800000D02*
X139600000Y-63900000D01*
X138498980Y-68901020D02*
X139600000Y-67800000D01*
X137600000Y-61900000D02*
X139600000Y-63900000D01*
X137600000Y-53200000D02*
X137600000Y-61900000D01*
X65250000Y-54250000D02*
X65250000Y-93500000D01*
X65250000Y-93500000D02*
X66250000Y-94500000D01*
X141326000Y-77824480D02*
X150574480Y-77824480D01*
X150500000Y-94500000D02*
X66250000Y-94500000D01*
X151750000Y-93250000D02*
X150500000Y-94500000D01*
X151750000Y-79000000D02*
X151750000Y-93250000D01*
X150574480Y-77824480D02*
X151750000Y-79000000D01*
X123940000Y-47270000D02*
X123940000Y-68640000D01*
X127500920Y-72200920D02*
X132349640Y-72200920D01*
X123940000Y-68640000D02*
X127500920Y-72200920D01*
X122100000Y-68400000D02*
X122100000Y-51050000D01*
X122100000Y-68400000D02*
X126701020Y-73001020D01*
X132349640Y-73001020D02*
X126701020Y-73001020D01*
X120100000Y-46030000D02*
X121400000Y-44730000D01*
X120100000Y-49050000D02*
X120100000Y-46030000D01*
X122100000Y-51050000D02*
X120100000Y-49050000D01*
X229500000Y-44750000D02*
X229500000Y-43300000D01*
X234000000Y-44797500D02*
X234000000Y-43300000D01*
X118860000Y-47270000D02*
X116250000Y-47270000D01*
X116250000Y-60000000D02*
X116250000Y-47270000D01*
X86534260Y-69150000D02*
X86649260Y-69035000D01*
X116250000Y-60000000D02*
X113350000Y-62900000D01*
X93000000Y-62900000D02*
X113350000Y-62900000D01*
X88600000Y-67300000D02*
X93000000Y-62900000D01*
X239277500Y-48824500D02*
X240230000Y-47872000D01*
X239277500Y-49777000D02*
X239277500Y-48824500D01*
X240230000Y-44252500D02*
X239277500Y-43300000D01*
X240230000Y-47872000D02*
X240230000Y-44252500D01*
X116250000Y-43350000D02*
X117350000Y-42250000D01*
X116250000Y-47270000D02*
X116250000Y-43350000D01*
X205500000Y-42250000D02*
X117350000Y-42250000D01*
X239277500Y-43300000D02*
X234000000Y-43300000D01*
X234000000Y-43300000D02*
X229500000Y-43300000D01*
X227550000Y-42250000D02*
X205500000Y-42250000D01*
X228600000Y-43300000D02*
X227550000Y-42250000D01*
X229500000Y-43300000D02*
X228600000Y-43300000D01*
X87965000Y-69035000D02*
X88600000Y-68400000D01*
X88600000Y-68400000D02*
X88600000Y-67300000D01*
X86649260Y-69035000D02*
X87965000Y-69035000D01*
X203823280Y-75426720D02*
X205500000Y-73750000D01*
X205500000Y-73750000D02*
X205500000Y-42250000D01*
X141326000Y-75426720D02*
X203823280Y-75426720D01*
X220270000Y-44750000D02*
X220270000Y-75230000D01*
X220270000Y-75230000D02*
X219275720Y-76224280D01*
X219275720Y-76224280D02*
X141326000Y-76224280D01*
X125900000Y-69200000D02*
X125900000Y-46650000D01*
X133700920Y-70849640D02*
X127549640Y-70849640D01*
X127549640Y-70849640D02*
X125900000Y-69200000D01*
X122670000Y-46000000D02*
X121400000Y-47270000D01*
X125250000Y-46000000D02*
X122670000Y-46000000D01*
X125900000Y-46650000D02*
X125250000Y-46000000D01*
X96300000Y-76347500D02*
X96300000Y-74600000D01*
X95950740Y-74250740D02*
X95950740Y-72845000D01*
X96300000Y-74600000D02*
X95950740Y-74250740D01*
X106600000Y-68000000D02*
X106600000Y-71900000D01*
X105655000Y-72845000D02*
X106600000Y-71900000D01*
X95950740Y-72845000D02*
X105655000Y-72845000D01*
X158575920Y-74624080D02*
X159600000Y-73600000D01*
X141326000Y-74624080D02*
X158575920Y-74624080D01*
X159600000Y-73600000D02*
X159600000Y-68000000D01*
X170270000Y-47730000D02*
X166000000Y-52000000D01*
X166000000Y-52000000D02*
X166000000Y-61600000D01*
X166000000Y-61600000D02*
X159600000Y-68000000D01*
X170270000Y-44750000D02*
X170270000Y-47730000D01*
X93700000Y-76347500D02*
X93700000Y-72000000D01*
X93700000Y-72000000D02*
X94125000Y-71575000D01*
X94125000Y-71575000D02*
X95950740Y-71575000D01*
X158200000Y-72800000D02*
X158200000Y-66800000D01*
X157173480Y-73826520D02*
X141326000Y-73826520D01*
X157173480Y-73826520D02*
X158200000Y-72800000D01*
X103800000Y-70300000D02*
X102525000Y-71575000D01*
X103800000Y-66800000D02*
X103800000Y-70300000D01*
X95950740Y-71575000D02*
X102525000Y-71575000D01*
X94125000Y-71575000D02*
X95950740Y-71575000D01*
X167730000Y-47520000D02*
X164250000Y-51000000D01*
X164250000Y-51000000D02*
X164250000Y-60750000D01*
X164250000Y-60750000D02*
X158200000Y-66800000D01*
X167730000Y-44750000D02*
X167730000Y-47520000D01*
X140650360Y-72200920D02*
X149299080Y-72200920D01*
X150750000Y-70750000D02*
X150750000Y-46702500D01*
X149299080Y-72200920D02*
X150750000Y-70750000D01*
X155500000Y-46702500D02*
X150750000Y-46702500D01*
X150750000Y-46702500D02*
X146000000Y-46702500D01*
X222810000Y-44750000D02*
X222810000Y-75940000D01*
X221723080Y-77026920D02*
X141326000Y-77026920D01*
X222810000Y-75940000D02*
X221723080Y-77026920D01*
D35*
X234000000Y-46702500D02*
X234000000Y-63500000D01*
X196520000Y-44750000D02*
X199952500Y-44750000D01*
X199952500Y-44750000D02*
X200000000Y-44797500D01*
X128100000Y-64500000D02*
X132750000Y-64500000D01*
X127300000Y-63700000D02*
X127300000Y-44730000D01*
X128100000Y-64500000D02*
X127300000Y-63700000D01*
X123940000Y-44730000D02*
X127300000Y-44730000D01*
X127300000Y-44730000D02*
X129730000Y-44730000D01*
X129730000Y-44730000D02*
X129750000Y-44750000D01*
X86300000Y-78252500D02*
X84100000Y-78252500D01*
X84100000Y-72400000D02*
X84100000Y-78252500D01*
X84925000Y-71575000D02*
X84100000Y-72400000D01*
X86649260Y-71575000D02*
X84925000Y-71575000D01*
X84100000Y-78252500D02*
X84100000Y-79500000D01*
X96300000Y-78252500D02*
X97752500Y-78252500D01*
X98000000Y-78500000D02*
X98000000Y-79500000D01*
X97752500Y-78252500D02*
X98000000Y-78500000D01*
X88900000Y-78252500D02*
X86300000Y-78252500D01*
X96300000Y-78252500D02*
X93700000Y-78252500D01*
X135323980Y-82876480D02*
X136197500Y-83750000D01*
X134518800Y-70250200D02*
X134518800Y-69318800D01*
X132750000Y-67550000D02*
X132750000Y-64500000D01*
X134518800Y-69318800D02*
X132750000Y-67550000D01*
X135323980Y-79815840D02*
X135323980Y-82876480D01*
D34*
X86574260Y-71650000D02*
X86649260Y-71575000D01*
D35*
X135301120Y-73401120D02*
X134501020Y-72601020D01*
X134501020Y-72601020D02*
X134501020Y-70849640D01*
X135301120Y-77300000D02*
X135301120Y-73401120D01*
X135301120Y-79150360D02*
X135301120Y-77300000D01*
X136898780Y-77598780D02*
X136600000Y-77300000D01*
X136600000Y-77300000D02*
X135301120Y-77300000D01*
X136898780Y-79150360D02*
X136898780Y-77598780D01*
X172750000Y-57702500D02*
X177750000Y-57702500D01*
X177250000Y-62250000D02*
X177250000Y-63500000D01*
X177750000Y-61750000D02*
X177250000Y-62250000D01*
X177750000Y-57702500D02*
X177750000Y-61750000D01*
X261500000Y-248500000D02*
X166500000Y-248500000D01*
X165200000Y-262600000D02*
X163600000Y-264200000D01*
X165200000Y-249800000D02*
X165200000Y-262600000D01*
X166500000Y-248500000D02*
X165200000Y-249800000D01*
X159100000Y-264200000D02*
X163600000Y-264200000D01*
X190000000Y-46702500D02*
X190000000Y-50750000D01*
X188250000Y-52500000D02*
X188250000Y-55750000D01*
X190000000Y-50750000D02*
X188250000Y-52500000D01*
X142500000Y-46750000D02*
X142500000Y-55750000D01*
X159000000Y-46750000D02*
X159000000Y-55750000D01*
X130400000Y-91250000D02*
X130400000Y-92400000D01*
X138100000Y-92400000D02*
X138100000Y-86600000D01*
X137500000Y-93000000D02*
X138100000Y-92400000D01*
X131000000Y-93000000D02*
X137500000Y-93000000D01*
X130400000Y-92400000D02*
X131000000Y-93000000D01*
X86649260Y-63955000D02*
X86649260Y-63000000D01*
X91750000Y-63000000D02*
X86649260Y-63000000D01*
X106250000Y-44750000D02*
X107000000Y-45500000D01*
X107000000Y-45500000D02*
X107000000Y-60000000D01*
X107000000Y-60000000D02*
X105500000Y-61500000D01*
X105500000Y-61500000D02*
X93250000Y-61500000D01*
X93250000Y-61500000D02*
X91750000Y-63000000D01*
X104000000Y-44750000D02*
X106250000Y-44750000D01*
X86649260Y-63000000D02*
X83000000Y-63000000D01*
X83000000Y-63000000D02*
X82000000Y-64000000D01*
X82000000Y-64000000D02*
X82000000Y-71500000D01*
X104000000Y-44750000D02*
X89450000Y-44750000D01*
X89450000Y-44750000D02*
X84000000Y-50200000D01*
X90400000Y-70600000D02*
X90400000Y-68500000D01*
X90400000Y-68500000D02*
X91135000Y-67765000D01*
X137452500Y-67747500D02*
X137452500Y-66000000D01*
D34*
X137281800Y-66170700D02*
X137452500Y-66000000D01*
D35*
X136931800Y-70250200D02*
X136931800Y-68268200D01*
X136931800Y-68268200D02*
X137452500Y-67747500D01*
X136124080Y-79815840D02*
X136124080Y-81374080D01*
X137724280Y-79815840D02*
X137724280Y-81750000D01*
X136124080Y-81374080D02*
X136500000Y-81750000D01*
X136500000Y-81750000D02*
X137724280Y-81750000D01*
X138102500Y-82128220D02*
X137724280Y-81750000D01*
X138102500Y-83750000D02*
X138102500Y-82128220D01*
X130400000Y-88645500D02*
X130257000Y-88502500D01*
X130400000Y-91250000D02*
X130400000Y-88645500D01*
X132400000Y-86454500D02*
X132543000Y-86597500D01*
X132400000Y-83800000D02*
X132400000Y-86454500D01*
X130447500Y-88502500D02*
X130257000Y-88502500D01*
X132352500Y-86597500D02*
X130447500Y-88502500D01*
X132543000Y-86597500D02*
X132352500Y-86597500D01*
X137698880Y-73398880D02*
X136898780Y-72598780D01*
X136898780Y-72598780D02*
X136898780Y-70849640D01*
X137698880Y-79150360D02*
X137698880Y-73398880D01*
X86649260Y-67765000D02*
X86649260Y-66495000D01*
X86649260Y-66495000D02*
X86649260Y-65225000D01*
X86649260Y-65225000D02*
X86649260Y-63955000D01*
X95950740Y-69035000D02*
X95950740Y-67765000D01*
X95950740Y-67765000D02*
X95950740Y-66495000D01*
X95950740Y-66495000D02*
X95950740Y-65225000D01*
X95950740Y-65225000D02*
X95950740Y-63955000D01*
X95950740Y-67765000D02*
X91135000Y-67765000D01*
X138250000Y-85450000D02*
X138100000Y-85600000D01*
X138250000Y-83750000D02*
X138250000Y-85450000D01*
X138100000Y-85600000D02*
X138100000Y-86600000D01*
X185310000Y-55310000D02*
X185750000Y-55750000D01*
X185750000Y-55750000D02*
X188250000Y-55750000D01*
X185310000Y-50000000D02*
X185310000Y-55310000D01*
D34*
X136119000Y-70250200D02*
X136119000Y-68519000D01*
X136119000Y-68519000D02*
X135547500Y-67947500D01*
X135547500Y-67947500D02*
X135547500Y-66000000D01*
X134501020Y-79150360D02*
X134501020Y-88198980D01*
X134197500Y-88502500D02*
X132543000Y-88502500D01*
X134501020Y-88198980D02*
X134197500Y-88502500D01*
X132543000Y-91107000D02*
X132400000Y-91250000D01*
X132543000Y-88502500D02*
X132543000Y-91107000D01*
X229500000Y-46750000D02*
X226250000Y-46750000D01*
X225350000Y-45850000D02*
X225350000Y-44750000D01*
X226250000Y-46750000D02*
X225350000Y-45850000D01*
X130257000Y-83943000D02*
X130400000Y-83800000D01*
X130257000Y-86597500D02*
X130257000Y-83943000D01*
X130400000Y-82600000D02*
X130800000Y-82200000D01*
X130800000Y-82200000D02*
X133200000Y-82200000D01*
X133200000Y-82200000D02*
X133700920Y-81699080D01*
X133700920Y-81699080D02*
X133700920Y-79150360D01*
X130400000Y-83800000D02*
X130400000Y-82600000D01*
X104000000Y-46750000D02*
X104000000Y-49550000D01*
X103350000Y-50200000D02*
X96827000Y-50200000D01*
X104000000Y-49550000D02*
X103350000Y-50200000D01*
X91995000Y-70305000D02*
X95950740Y-70305000D01*
X91300000Y-71000000D02*
X91995000Y-70305000D01*
X91300000Y-80700000D02*
X91300000Y-71000000D01*
X90600000Y-81400000D02*
X91300000Y-80700000D01*
X72000000Y-81400000D02*
X90600000Y-81400000D01*
X71173000Y-80573000D02*
X72000000Y-81400000D01*
X71173000Y-62000000D02*
X71173000Y-80573000D01*
X71173000Y-50200000D02*
X71173000Y-62000000D01*
X96827000Y-56673000D02*
X91500000Y-62000000D01*
X91500000Y-62000000D02*
X71173000Y-62000000D01*
X96827000Y-50200000D02*
X96827000Y-56673000D01*
X88900000Y-76347500D02*
X88900000Y-70700000D01*
X88505000Y-70305000D02*
X86649260Y-70305000D01*
X88900000Y-70700000D02*
X88505000Y-70305000D01*
X86300000Y-76347500D02*
X86300000Y-74700000D01*
X86649260Y-74350740D02*
X86649260Y-72845000D01*
X86300000Y-74700000D02*
X86649260Y-74350740D01*
X177690000Y-55737500D02*
X177750000Y-55797500D01*
X177690000Y-50000000D02*
X177690000Y-55737500D01*
X177797500Y-55750000D02*
X177750000Y-55797500D01*
X181000000Y-55750000D02*
X177797500Y-55750000D01*
X172810000Y-55737500D02*
X172750000Y-55797500D01*
X172810000Y-44750000D02*
X172810000Y-55737500D01*
X172702500Y-55750000D02*
X172750000Y-55797500D01*
X169500000Y-55750000D02*
X172702500Y-55750000D01*
G36*
X133739020Y-85731284D02*
X133731567Y-85713291D01*
X133710000Y-85691724D01*
X133710000Y-84701310D01*
X133710000Y-84448691D01*
X133710000Y-84085750D01*
X133551250Y-83927000D01*
X132527000Y-83927000D01*
X132527000Y-85051250D01*
X132685750Y-85210000D01*
X133201309Y-85210000D01*
X133434698Y-85113327D01*
X133613327Y-84934699D01*
X133710000Y-84701310D01*
X133710000Y-85691724D01*
X133552938Y-85534663D01*
X133319549Y-85437990D01*
X132828750Y-85437990D01*
X132670000Y-85596740D01*
X132670000Y-86470500D01*
X132690000Y-86470500D01*
X132690000Y-86724500D01*
X132670000Y-86724500D01*
X132670000Y-86744500D01*
X132416000Y-86744500D01*
X132416000Y-86724500D01*
X132396000Y-86724500D01*
X132396000Y-86470500D01*
X132416000Y-86470500D01*
X132416000Y-85596740D01*
X132257250Y-85437990D01*
X131766451Y-85437990D01*
X131533062Y-85534663D01*
X131399999Y-85667724D01*
X131266939Y-85534663D01*
X131033550Y-85437990D01*
X131019000Y-85437990D01*
X131019000Y-85210000D01*
X131201309Y-85210000D01*
X131400000Y-85127699D01*
X131598691Y-85210000D01*
X132114250Y-85210000D01*
X132273000Y-85051250D01*
X132273000Y-83927000D01*
X132253000Y-83927000D01*
X132253000Y-83673000D01*
X132273000Y-83673000D01*
X132273000Y-83653000D01*
X132527000Y-83653000D01*
X132527000Y-83673000D01*
X133551250Y-83673000D01*
X133710000Y-83514250D01*
X133710000Y-83151309D01*
X133710000Y-82898690D01*
X133664379Y-82788551D01*
X133738815Y-82738815D01*
X133739020Y-82738610D01*
X133739020Y-85731284D01*
X133739020Y-85731284D01*
G37*
X133739020Y-85731284D02*
X133731567Y-85713291D01*
X133710000Y-85691724D01*
X133710000Y-84701310D01*
X133710000Y-84448691D01*
X133710000Y-84085750D01*
X133551250Y-83927000D01*
X132527000Y-83927000D01*
X132527000Y-85051250D01*
X132685750Y-85210000D01*
X133201309Y-85210000D01*
X133434698Y-85113327D01*
X133613327Y-84934699D01*
X133710000Y-84701310D01*
X133710000Y-85691724D01*
X133552938Y-85534663D01*
X133319549Y-85437990D01*
X132828750Y-85437990D01*
X132670000Y-85596740D01*
X132670000Y-86470500D01*
X132690000Y-86470500D01*
X132690000Y-86724500D01*
X132670000Y-86724500D01*
X132670000Y-86744500D01*
X132416000Y-86744500D01*
X132416000Y-86724500D01*
X132396000Y-86724500D01*
X132396000Y-86470500D01*
X132416000Y-86470500D01*
X132416000Y-85596740D01*
X132257250Y-85437990D01*
X131766451Y-85437990D01*
X131533062Y-85534663D01*
X131399999Y-85667724D01*
X131266939Y-85534663D01*
X131033550Y-85437990D01*
X131019000Y-85437990D01*
X131019000Y-85210000D01*
X131201309Y-85210000D01*
X131400000Y-85127699D01*
X131598691Y-85210000D01*
X132114250Y-85210000D01*
X132273000Y-85051250D01*
X132273000Y-83927000D01*
X132253000Y-83927000D01*
X132253000Y-83673000D01*
X132273000Y-83673000D01*
X132273000Y-83653000D01*
X132527000Y-83653000D01*
X132527000Y-83673000D01*
X133551250Y-83673000D01*
X133710000Y-83514250D01*
X133710000Y-83151309D01*
X133710000Y-82898690D01*
X133664379Y-82788551D01*
X133738815Y-82738815D01*
X133739020Y-82738610D01*
X133739020Y-85731284D01*
G36*
X139036145Y-77399029D02*
X139015870Y-77447980D01*
X139015870Y-77515870D01*
X138947981Y-77515870D01*
X138899030Y-77536145D01*
X138850080Y-77515870D01*
X138597461Y-77515870D01*
X138147881Y-77515870D01*
X138098930Y-77536145D01*
X138049980Y-77515870D01*
X137970025Y-77515870D01*
X137825882Y-77660013D01*
X137825882Y-77515870D01*
X137771288Y-77515870D01*
X137720109Y-77258575D01*
X137720109Y-77258574D01*
X137527398Y-76970162D01*
X137228618Y-76671382D01*
X136940206Y-76478671D01*
X136600000Y-76411000D01*
X136190120Y-76411000D01*
X136190120Y-73401120D01*
X136122449Y-73060914D01*
X135929738Y-72772502D01*
X135641366Y-72484130D01*
X135652219Y-72484130D01*
X135701169Y-72463854D01*
X135750120Y-72484130D01*
X136002739Y-72484130D01*
X136452319Y-72484130D01*
X136499999Y-72464380D01*
X136547680Y-72484130D01*
X136627635Y-72484130D01*
X136786385Y-72325380D01*
X136786385Y-72286780D01*
X136864337Y-72208829D01*
X136900050Y-72122609D01*
X136935763Y-72208828D01*
X137011175Y-72284240D01*
X137011175Y-72325380D01*
X137169925Y-72484130D01*
X137249880Y-72484130D01*
X137298830Y-72463854D01*
X137347780Y-72484130D01*
X137600399Y-72484130D01*
X138049979Y-72484130D01*
X138098929Y-72463854D01*
X138147880Y-72484130D01*
X138400499Y-72484130D01*
X138850079Y-72484130D01*
X138899029Y-72463854D01*
X138947980Y-72484130D01*
X139015870Y-72484130D01*
X139015870Y-72552019D01*
X139036145Y-72600969D01*
X139015870Y-72649920D01*
X139015870Y-72902539D01*
X139015870Y-73352119D01*
X139036145Y-73401069D01*
X139015870Y-73450020D01*
X139015870Y-73702639D01*
X139015870Y-74152219D01*
X139036145Y-74201169D01*
X139015870Y-74250120D01*
X139015870Y-74502739D01*
X139015870Y-74952319D01*
X139035619Y-74999999D01*
X139015870Y-75047680D01*
X139015870Y-75300299D01*
X139015870Y-75749879D01*
X139036145Y-75798829D01*
X139015870Y-75847780D01*
X139015870Y-76100399D01*
X139015870Y-76549979D01*
X139036145Y-76598929D01*
X139015870Y-76647880D01*
X139015870Y-76900499D01*
X139015870Y-77350079D01*
X139036145Y-77399029D01*
X139036145Y-77399029D01*
G37*
X139036145Y-77399029D02*
X139015870Y-77447980D01*
X139015870Y-77515870D01*
X138947981Y-77515870D01*
X138899030Y-77536145D01*
X138850080Y-77515870D01*
X138597461Y-77515870D01*
X138147881Y-77515870D01*
X138098930Y-77536145D01*
X138049980Y-77515870D01*
X137970025Y-77515870D01*
X137825882Y-77660013D01*
X137825882Y-77515870D01*
X137771288Y-77515870D01*
X137720109Y-77258575D01*
X137720109Y-77258574D01*
X137527398Y-76970162D01*
X137228618Y-76671382D01*
X136940206Y-76478671D01*
X136600000Y-76411000D01*
X136190120Y-76411000D01*
X136190120Y-73401120D01*
X136122449Y-73060914D01*
X135929738Y-72772502D01*
X135641366Y-72484130D01*
X135652219Y-72484130D01*
X135701169Y-72463854D01*
X135750120Y-72484130D01*
X136002739Y-72484130D01*
X136452319Y-72484130D01*
X136499999Y-72464380D01*
X136547680Y-72484130D01*
X136627635Y-72484130D01*
X136786385Y-72325380D01*
X136786385Y-72286780D01*
X136864337Y-72208829D01*
X136900050Y-72122609D01*
X136935763Y-72208828D01*
X137011175Y-72284240D01*
X137011175Y-72325380D01*
X137169925Y-72484130D01*
X137249880Y-72484130D01*
X137298830Y-72463854D01*
X137347780Y-72484130D01*
X137600399Y-72484130D01*
X138049979Y-72484130D01*
X138098929Y-72463854D01*
X138147880Y-72484130D01*
X138400499Y-72484130D01*
X138850079Y-72484130D01*
X138899029Y-72463854D01*
X138947980Y-72484130D01*
X139015870Y-72484130D01*
X139015870Y-72552019D01*
X139036145Y-72600969D01*
X139015870Y-72649920D01*
X139015870Y-72902539D01*
X139015870Y-73352119D01*
X139036145Y-73401069D01*
X139015870Y-73450020D01*
X139015870Y-73702639D01*
X139015870Y-74152219D01*
X139036145Y-74201169D01*
X139015870Y-74250120D01*
X139015870Y-74502739D01*
X139015870Y-74952319D01*
X139035619Y-74999999D01*
X139015870Y-75047680D01*
X139015870Y-75300299D01*
X139015870Y-75749879D01*
X139036145Y-75798829D01*
X139015870Y-75847780D01*
X139015870Y-76100399D01*
X139015870Y-76549979D01*
X139036145Y-76598929D01*
X139015870Y-76647880D01*
X139015870Y-76900499D01*
X139015870Y-77350079D01*
X139036145Y-77399029D01*
G36*
X149988000Y-70434369D02*
X148983449Y-71438920D01*
X147113649Y-71438920D01*
X147189175Y-71388455D01*
X148288815Y-70288815D01*
X148288816Y-70288815D01*
X148387834Y-70140623D01*
X148453996Y-70041605D01*
X148453996Y-70041604D01*
X148512000Y-69750000D01*
X148512000Y-63150000D01*
X148453996Y-62858396D01*
X148453996Y-62858395D01*
X148288815Y-62611185D01*
X143910000Y-58232370D01*
X143910000Y-47551309D01*
X143910000Y-47035750D01*
X143751250Y-46877000D01*
X142627000Y-46877000D01*
X142627000Y-47901250D01*
X142785750Y-48060000D01*
X143148691Y-48060000D01*
X143401310Y-48060000D01*
X143634699Y-47963327D01*
X143813327Y-47784698D01*
X143910000Y-47551309D01*
X143910000Y-58232370D01*
X141362000Y-55684370D01*
X141362000Y-47960025D01*
X141365301Y-47963327D01*
X141598690Y-48060000D01*
X141851309Y-48060000D01*
X142214250Y-48060000D01*
X142373000Y-47901250D01*
X142373000Y-46877000D01*
X142353000Y-46877000D01*
X142353000Y-46623000D01*
X142373000Y-46623000D01*
X142373000Y-46603000D01*
X142627000Y-46603000D01*
X142627000Y-46623000D01*
X143751250Y-46623000D01*
X143910000Y-46464250D01*
X143910000Y-45948691D01*
X143827699Y-45750000D01*
X143910000Y-45551310D01*
X143910000Y-45512000D01*
X144615700Y-45512000D01*
X144615700Y-45574049D01*
X144688581Y-45749999D01*
X144615700Y-45925950D01*
X144615700Y-46178569D01*
X144615700Y-47479049D01*
X144712373Y-47712438D01*
X144891001Y-47891067D01*
X145124390Y-47987740D01*
X145377009Y-47987740D01*
X146875609Y-47987740D01*
X147108998Y-47891067D01*
X147287627Y-47712439D01*
X147384300Y-47479050D01*
X147384300Y-47464500D01*
X149988000Y-47464500D01*
X149988000Y-70434369D01*
X149988000Y-70434369D01*
G37*
X149988000Y-70434369D02*
X148983449Y-71438920D01*
X147113649Y-71438920D01*
X147189175Y-71388455D01*
X148288815Y-70288815D01*
X148288816Y-70288815D01*
X148387834Y-70140623D01*
X148453996Y-70041605D01*
X148453996Y-70041604D01*
X148512000Y-69750000D01*
X148512000Y-63150000D01*
X148453996Y-62858396D01*
X148453996Y-62858395D01*
X148288815Y-62611185D01*
X143910000Y-58232370D01*
X143910000Y-47551309D01*
X143910000Y-47035750D01*
X143751250Y-46877000D01*
X142627000Y-46877000D01*
X142627000Y-47901250D01*
X142785750Y-48060000D01*
X143148691Y-48060000D01*
X143401310Y-48060000D01*
X143634699Y-47963327D01*
X143813327Y-47784698D01*
X143910000Y-47551309D01*
X143910000Y-58232370D01*
X141362000Y-55684370D01*
X141362000Y-47960025D01*
X141365301Y-47963327D01*
X141598690Y-48060000D01*
X141851309Y-48060000D01*
X142214250Y-48060000D01*
X142373000Y-47901250D01*
X142373000Y-46877000D01*
X142353000Y-46877000D01*
X142353000Y-46623000D01*
X142373000Y-46623000D01*
X142373000Y-46603000D01*
X142627000Y-46603000D01*
X142627000Y-46623000D01*
X143751250Y-46623000D01*
X143910000Y-46464250D01*
X143910000Y-45948691D01*
X143827699Y-45750000D01*
X143910000Y-45551310D01*
X143910000Y-45512000D01*
X144615700Y-45512000D01*
X144615700Y-45574049D01*
X144688581Y-45749999D01*
X144615700Y-45925950D01*
X144615700Y-46178569D01*
X144615700Y-47479049D01*
X144712373Y-47712438D01*
X144891001Y-47891067D01*
X145124390Y-47987740D01*
X145377009Y-47987740D01*
X146875609Y-47987740D01*
X147108998Y-47891067D01*
X147287627Y-47712439D01*
X147384300Y-47479050D01*
X147384300Y-47464500D01*
X149988000Y-47464500D01*
X149988000Y-70434369D01*
G36*
X160438000Y-55684369D02*
X160410000Y-55712369D01*
X160410000Y-47551309D01*
X160410000Y-47035750D01*
X160251250Y-46877000D01*
X159127000Y-46877000D01*
X159127000Y-47901250D01*
X159285750Y-48060000D01*
X159648691Y-48060000D01*
X159901310Y-48060000D01*
X160134699Y-47963327D01*
X160313327Y-47784698D01*
X160410000Y-47551309D01*
X160410000Y-55712369D01*
X158873000Y-57249369D01*
X158873000Y-47901250D01*
X158873000Y-46877000D01*
X157748750Y-46877000D01*
X157590000Y-47035750D01*
X157590000Y-47551309D01*
X157686673Y-47784698D01*
X157865301Y-47963327D01*
X158098690Y-48060000D01*
X158351309Y-48060000D01*
X158714250Y-48060000D01*
X158873000Y-47901250D01*
X158873000Y-57249369D01*
X153461185Y-62661185D01*
X153296004Y-62908395D01*
X153238000Y-63200000D01*
X153238000Y-71684370D01*
X152660489Y-72261880D01*
X150315750Y-72261880D01*
X151288815Y-71288815D01*
X151288816Y-71288815D01*
X151387834Y-71140623D01*
X151453996Y-71041605D01*
X151453996Y-71041604D01*
X151512000Y-70750000D01*
X151512000Y-47464500D01*
X154115700Y-47464500D01*
X154115700Y-47479049D01*
X154212373Y-47712438D01*
X154391001Y-47891067D01*
X154624390Y-47987740D01*
X154877009Y-47987740D01*
X156375609Y-47987740D01*
X156608998Y-47891067D01*
X156787627Y-47712439D01*
X156884300Y-47479050D01*
X156884300Y-47226431D01*
X156884300Y-45925951D01*
X156811418Y-45750000D01*
X156884300Y-45574050D01*
X156884300Y-45512000D01*
X157590000Y-45512000D01*
X157590000Y-45551309D01*
X157672300Y-45750000D01*
X157590000Y-45948691D01*
X157590000Y-46464250D01*
X157748750Y-46623000D01*
X158873000Y-46623000D01*
X158873000Y-46603000D01*
X159127000Y-46603000D01*
X159127000Y-46623000D01*
X160251250Y-46623000D01*
X160410000Y-46464250D01*
X160410000Y-45948691D01*
X160327699Y-45750000D01*
X160370072Y-45647702D01*
X160438000Y-45715630D01*
X160438000Y-55684369D01*
X160438000Y-55684369D01*
G37*
X160438000Y-55684369D02*
X160410000Y-55712369D01*
X160410000Y-47551309D01*
X160410000Y-47035750D01*
X160251250Y-46877000D01*
X159127000Y-46877000D01*
X159127000Y-47901250D01*
X159285750Y-48060000D01*
X159648691Y-48060000D01*
X159901310Y-48060000D01*
X160134699Y-47963327D01*
X160313327Y-47784698D01*
X160410000Y-47551309D01*
X160410000Y-55712369D01*
X158873000Y-57249369D01*
X158873000Y-47901250D01*
X158873000Y-46877000D01*
X157748750Y-46877000D01*
X157590000Y-47035750D01*
X157590000Y-47551309D01*
X157686673Y-47784698D01*
X157865301Y-47963327D01*
X158098690Y-48060000D01*
X158351309Y-48060000D01*
X158714250Y-48060000D01*
X158873000Y-47901250D01*
X158873000Y-57249369D01*
X153461185Y-62661185D01*
X153296004Y-62908395D01*
X153238000Y-63200000D01*
X153238000Y-71684370D01*
X152660489Y-72261880D01*
X150315750Y-72261880D01*
X151288815Y-71288815D01*
X151288816Y-71288815D01*
X151387834Y-71140623D01*
X151453996Y-71041605D01*
X151453996Y-71041604D01*
X151512000Y-70750000D01*
X151512000Y-47464500D01*
X154115700Y-47464500D01*
X154115700Y-47479049D01*
X154212373Y-47712438D01*
X154391001Y-47891067D01*
X154624390Y-47987740D01*
X154877009Y-47987740D01*
X156375609Y-47987740D01*
X156608998Y-47891067D01*
X156787627Y-47712439D01*
X156884300Y-47479050D01*
X156884300Y-47226431D01*
X156884300Y-45925951D01*
X156811418Y-45750000D01*
X156884300Y-45574050D01*
X156884300Y-45512000D01*
X157590000Y-45512000D01*
X157590000Y-45551309D01*
X157672300Y-45750000D01*
X157590000Y-45948691D01*
X157590000Y-46464250D01*
X157748750Y-46623000D01*
X158873000Y-46623000D01*
X158873000Y-46603000D01*
X159127000Y-46603000D01*
X159127000Y-46623000D01*
X160251250Y-46623000D01*
X160410000Y-46464250D01*
X160410000Y-45948691D01*
X160327699Y-45750000D01*
X160370072Y-45647702D01*
X160438000Y-45715630D01*
X160438000Y-55684369D01*
G36*
X204738000Y-73434370D02*
X203507650Y-74664720D01*
X201384300Y-74664720D01*
X201384300Y-47479050D01*
X201384300Y-47226431D01*
X201384300Y-45925951D01*
X201311418Y-45750000D01*
X201384300Y-45574050D01*
X201384300Y-45321431D01*
X201384300Y-44020951D01*
X201287627Y-43787562D01*
X201108999Y-43608933D01*
X200875610Y-43512260D01*
X200622991Y-43512260D01*
X199124391Y-43512260D01*
X198891002Y-43608933D01*
X198712373Y-43787561D01*
X198681953Y-43861000D01*
X197916713Y-43861000D01*
X197820327Y-43628302D01*
X197641699Y-43449673D01*
X197408310Y-43353000D01*
X197155691Y-43353000D01*
X195631691Y-43353000D01*
X195398302Y-43449673D01*
X195219673Y-43628301D01*
X195123000Y-43861690D01*
X195123000Y-43917613D01*
X194772370Y-43566371D01*
X194259100Y-43353243D01*
X193703339Y-43352758D01*
X193189697Y-43564990D01*
X192796371Y-43957630D01*
X192783760Y-43988000D01*
X191370651Y-43988000D01*
X191287627Y-43787562D01*
X191108999Y-43608933D01*
X190875610Y-43512260D01*
X190622991Y-43512260D01*
X189124391Y-43512260D01*
X188891002Y-43608933D01*
X188712373Y-43787561D01*
X188615700Y-44020950D01*
X188615700Y-44273569D01*
X188615700Y-45574049D01*
X188688581Y-45750000D01*
X188615700Y-45925951D01*
X188615700Y-46416750D01*
X188774450Y-46575500D01*
X189873000Y-46575500D01*
X189873000Y-46555500D01*
X190127000Y-46555500D01*
X190127000Y-46575500D01*
X191225550Y-46575500D01*
X191384300Y-46416750D01*
X191384300Y-45925951D01*
X191311418Y-45750000D01*
X191384300Y-45574050D01*
X191384300Y-45512000D01*
X192783295Y-45512000D01*
X192794990Y-45540303D01*
X193187630Y-45933629D01*
X193218000Y-45946239D01*
X193218000Y-45980000D01*
X193276004Y-46271605D01*
X193441185Y-46518815D01*
X194163684Y-47241315D01*
X194163685Y-47241315D01*
X194410895Y-47406496D01*
X194702500Y-47464500D01*
X198615700Y-47464500D01*
X198615700Y-47479049D01*
X198712373Y-47712438D01*
X198891001Y-47891067D01*
X199124390Y-47987740D01*
X199377009Y-47987740D01*
X200875609Y-47987740D01*
X201108998Y-47891067D01*
X201287627Y-47712439D01*
X201384300Y-47479050D01*
X201384300Y-74664720D01*
X191384300Y-74664720D01*
X191384300Y-47479049D01*
X191384300Y-46988250D01*
X191225550Y-46829500D01*
X190127000Y-46829500D01*
X190127000Y-47828990D01*
X190285750Y-47987740D01*
X190622991Y-47987740D01*
X190875610Y-47987740D01*
X191108999Y-47891067D01*
X191287627Y-47712438D01*
X191384300Y-47479049D01*
X191384300Y-74664720D01*
X189873000Y-74664720D01*
X189873000Y-47828990D01*
X189873000Y-46829500D01*
X188774450Y-46829500D01*
X188615700Y-46988250D01*
X188615700Y-47479049D01*
X188712373Y-47712438D01*
X188891001Y-47891067D01*
X189124390Y-47987740D01*
X189377009Y-47987740D01*
X189714250Y-47987740D01*
X189873000Y-47828990D01*
X189873000Y-74664720D01*
X186834000Y-74664720D01*
X186834000Y-51015310D01*
X186834000Y-50762691D01*
X186834000Y-50285750D01*
X186834000Y-49714250D01*
X186834000Y-49237309D01*
X186834000Y-48984690D01*
X186737327Y-48751301D01*
X186558698Y-48572673D01*
X186325309Y-48476000D01*
X185595750Y-48476000D01*
X185437000Y-48634750D01*
X185437000Y-49873000D01*
X186675250Y-49873000D01*
X186834000Y-49714250D01*
X186834000Y-50285750D01*
X186675250Y-50127000D01*
X185437000Y-50127000D01*
X185437000Y-51365250D01*
X185595750Y-51524000D01*
X186325309Y-51524000D01*
X186558698Y-51427327D01*
X186737327Y-51248699D01*
X186834000Y-51015310D01*
X186834000Y-74664720D01*
X182410000Y-74664720D01*
X182410000Y-58551309D01*
X182410000Y-58035750D01*
X182251250Y-57877000D01*
X181127000Y-57877000D01*
X181127000Y-58901250D01*
X181285750Y-59060000D01*
X181648691Y-59060000D01*
X181901310Y-59060000D01*
X182134699Y-58963327D01*
X182313327Y-58784698D01*
X182410000Y-58551309D01*
X182410000Y-74664720D01*
X180873000Y-74664720D01*
X180873000Y-58901250D01*
X180873000Y-57877000D01*
X179748750Y-57877000D01*
X179590000Y-58035750D01*
X179590000Y-58551309D01*
X179686673Y-58784698D01*
X179865301Y-58963327D01*
X180098690Y-59060000D01*
X180351309Y-59060000D01*
X180714250Y-59060000D01*
X180873000Y-58901250D01*
X180873000Y-74664720D01*
X170910000Y-74664720D01*
X170910000Y-58551309D01*
X170910000Y-58035750D01*
X170751250Y-57877000D01*
X169627000Y-57877000D01*
X169627000Y-58901250D01*
X169785750Y-59060000D01*
X170148691Y-59060000D01*
X170401310Y-59060000D01*
X170634699Y-58963327D01*
X170813327Y-58784698D01*
X170910000Y-58551309D01*
X170910000Y-74664720D01*
X169373000Y-74664720D01*
X169373000Y-58901250D01*
X169373000Y-57877000D01*
X168248750Y-57877000D01*
X168090000Y-58035750D01*
X168090000Y-58551309D01*
X168186673Y-58784698D01*
X168365301Y-58963327D01*
X168598690Y-59060000D01*
X168851309Y-59060000D01*
X169214250Y-59060000D01*
X169373000Y-58901250D01*
X169373000Y-74664720D01*
X159612910Y-74664720D01*
X160138815Y-74138815D01*
X160303996Y-73891605D01*
X160303996Y-73891604D01*
X160362000Y-73600000D01*
X160362000Y-68764641D01*
X160514622Y-68612286D01*
X160679313Y-68215668D01*
X160679502Y-67998127D01*
X166538815Y-62138815D01*
X166538816Y-62138815D01*
X166637834Y-61990623D01*
X166703996Y-61891605D01*
X166703996Y-61891604D01*
X166762000Y-61600000D01*
X166762000Y-52315630D01*
X170808815Y-48268815D01*
X170973996Y-48021605D01*
X170973996Y-48021604D01*
X171032000Y-47730000D01*
X171032000Y-46084118D01*
X171132149Y-46042738D01*
X171322292Y-45852926D01*
X171382673Y-45998698D01*
X171561301Y-46177327D01*
X171794690Y-46274000D01*
X172047309Y-46274000D01*
X172048000Y-46274000D01*
X172048000Y-54512260D01*
X171874391Y-54512260D01*
X171641002Y-54608933D01*
X171462373Y-54787561D01*
X171379348Y-54988000D01*
X170910000Y-54988000D01*
X170910000Y-54948691D01*
X170813327Y-54715302D01*
X170634699Y-54536673D01*
X170401310Y-54440000D01*
X170148691Y-54440000D01*
X168598691Y-54440000D01*
X168365302Y-54536673D01*
X168186673Y-54715301D01*
X168090000Y-54948690D01*
X168090000Y-55201309D01*
X168090000Y-56551309D01*
X168172300Y-56750000D01*
X168090000Y-56948691D01*
X168090000Y-57464250D01*
X168248750Y-57623000D01*
X169373000Y-57623000D01*
X169373000Y-57603000D01*
X169627000Y-57603000D01*
X169627000Y-57623000D01*
X170751250Y-57623000D01*
X170910000Y-57464250D01*
X170910000Y-56948691D01*
X170827699Y-56750000D01*
X170910000Y-56551310D01*
X170910000Y-56512000D01*
X171365700Y-56512000D01*
X171365700Y-56574049D01*
X171438581Y-56749999D01*
X171365700Y-56925950D01*
X171365700Y-57178569D01*
X171365700Y-58479049D01*
X171462373Y-58712438D01*
X171641001Y-58891067D01*
X171874390Y-58987740D01*
X172127009Y-58987740D01*
X173625609Y-58987740D01*
X173858998Y-58891067D01*
X174037627Y-58712439D01*
X174087721Y-58591500D01*
X176412278Y-58591500D01*
X176462373Y-58712438D01*
X176641001Y-58891067D01*
X176861000Y-58982193D01*
X176861000Y-61381764D01*
X176621382Y-61621382D01*
X176428671Y-61909794D01*
X176361000Y-62250000D01*
X176361000Y-62862136D01*
X176335378Y-62887714D01*
X176170687Y-63284332D01*
X176170313Y-63713784D01*
X176334311Y-64110689D01*
X176637714Y-64414622D01*
X177034332Y-64579313D01*
X177463784Y-64579687D01*
X177860689Y-64415689D01*
X178164622Y-64112286D01*
X178329313Y-63715668D01*
X178329687Y-63286216D01*
X178165689Y-62889311D01*
X178139000Y-62862575D01*
X178139000Y-62618236D01*
X178378618Y-62378618D01*
X178571329Y-62090206D01*
X178571329Y-62090205D01*
X178639000Y-61750000D01*
X178639000Y-58982193D01*
X178858998Y-58891067D01*
X179037627Y-58712439D01*
X179134300Y-58479050D01*
X179134300Y-58226431D01*
X179134300Y-56925951D01*
X179061418Y-56750000D01*
X179134300Y-56574050D01*
X179134300Y-56512000D01*
X179590000Y-56512000D01*
X179590000Y-56551309D01*
X179672300Y-56750000D01*
X179590000Y-56948691D01*
X179590000Y-57464250D01*
X179748750Y-57623000D01*
X180873000Y-57623000D01*
X180873000Y-57603000D01*
X181127000Y-57603000D01*
X181127000Y-57623000D01*
X182251250Y-57623000D01*
X182410000Y-57464250D01*
X182410000Y-56948691D01*
X182327699Y-56750000D01*
X182410000Y-56551310D01*
X182410000Y-56298691D01*
X182410000Y-54948691D01*
X182313327Y-54715302D01*
X182134699Y-54536673D01*
X181901310Y-54440000D01*
X181648691Y-54440000D01*
X180098691Y-54440000D01*
X179865302Y-54536673D01*
X179686673Y-54715301D01*
X179590000Y-54948690D01*
X179590000Y-54988000D01*
X179120651Y-54988000D01*
X179037627Y-54787562D01*
X178858999Y-54608933D01*
X178625610Y-54512260D01*
X178452000Y-54512260D01*
X178452000Y-51334118D01*
X178552149Y-51292738D01*
X178960335Y-50885262D01*
X179365596Y-51291231D01*
X179925528Y-51523735D01*
X180531812Y-51524264D01*
X181092149Y-51292738D01*
X181500335Y-50885262D01*
X181905596Y-51291231D01*
X182465528Y-51523735D01*
X183071812Y-51524264D01*
X183632149Y-51292738D01*
X183822291Y-51102926D01*
X183882673Y-51248699D01*
X184061302Y-51427327D01*
X184294691Y-51524000D01*
X185024250Y-51524000D01*
X185183000Y-51365250D01*
X185183000Y-50127000D01*
X185163000Y-50127000D01*
X185163000Y-49873000D01*
X185183000Y-49873000D01*
X185183000Y-48634750D01*
X185024250Y-48476000D01*
X184294691Y-48476000D01*
X184061302Y-48572673D01*
X183882673Y-48751301D01*
X183822317Y-48897011D01*
X183634404Y-48708769D01*
X183074472Y-48476265D01*
X182468188Y-48475736D01*
X181907851Y-48707262D01*
X181499664Y-49114737D01*
X181094404Y-48708769D01*
X180534472Y-48476265D01*
X179928188Y-48475736D01*
X179367851Y-48707262D01*
X178959664Y-49114737D01*
X178554404Y-48708769D01*
X177994472Y-48476265D01*
X177388188Y-48475736D01*
X176827851Y-48707262D01*
X176398769Y-49135596D01*
X176166265Y-49695528D01*
X176165736Y-50301812D01*
X176397262Y-50862149D01*
X176825596Y-51291231D01*
X176928000Y-51333752D01*
X176928000Y-54512260D01*
X176874391Y-54512260D01*
X176641002Y-54608933D01*
X176462373Y-54787561D01*
X176365700Y-55020950D01*
X176365700Y-55273569D01*
X176365700Y-56574049D01*
X176438581Y-56749999D01*
X176412278Y-56813500D01*
X174087721Y-56813500D01*
X174061418Y-56750000D01*
X174134300Y-56574050D01*
X174134300Y-56321431D01*
X174134300Y-55020951D01*
X174037627Y-54787562D01*
X173858999Y-54608933D01*
X173625610Y-54512260D01*
X173572000Y-54512260D01*
X173572000Y-46274000D01*
X173825309Y-46274000D01*
X174058698Y-46177327D01*
X174237327Y-45998699D01*
X174334000Y-45765310D01*
X174334000Y-45512691D01*
X174334000Y-43734691D01*
X174237327Y-43501302D01*
X174058699Y-43322673D01*
X173825310Y-43226000D01*
X173572691Y-43226000D01*
X171794691Y-43226000D01*
X171561302Y-43322673D01*
X171382673Y-43501301D01*
X171322317Y-43647011D01*
X171134404Y-43458769D01*
X170574472Y-43226265D01*
X169968188Y-43225736D01*
X169407851Y-43457262D01*
X168999664Y-43864737D01*
X168594404Y-43458769D01*
X168034472Y-43226265D01*
X167428188Y-43225736D01*
X166867851Y-43457262D01*
X166438769Y-43885596D01*
X166427595Y-43912505D01*
X166262196Y-43857409D01*
X166082591Y-44037014D01*
X166082591Y-43677804D01*
X165997533Y-43422461D01*
X165428035Y-43214484D01*
X164822300Y-43240277D01*
X164382467Y-43422461D01*
X164297409Y-43677804D01*
X165190000Y-44570395D01*
X166082591Y-43677804D01*
X166082591Y-44037014D01*
X165369605Y-44750000D01*
X166262196Y-45642591D01*
X166427137Y-45587646D01*
X166437262Y-45612149D01*
X166865596Y-46041231D01*
X166968000Y-46083752D01*
X166968000Y-47204369D01*
X166082591Y-48089778D01*
X166082591Y-45822196D01*
X165190000Y-44929605D01*
X165010395Y-45109210D01*
X165010395Y-44750000D01*
X164117804Y-43857409D01*
X163862461Y-43942467D01*
X163654484Y-44511965D01*
X163680277Y-45117700D01*
X163862461Y-45557533D01*
X164117804Y-45642591D01*
X165010395Y-44750000D01*
X165010395Y-45109210D01*
X164297409Y-45822196D01*
X164382467Y-46077539D01*
X164951965Y-46285516D01*
X165557700Y-46259723D01*
X165997533Y-46077539D01*
X166082591Y-45822196D01*
X166082591Y-48089778D01*
X163711185Y-50461185D01*
X163546004Y-50708395D01*
X163488000Y-51000000D01*
X163488000Y-60434370D01*
X158201869Y-65720500D01*
X157986216Y-65720313D01*
X157589311Y-65884311D01*
X157285378Y-66187714D01*
X157120687Y-66584332D01*
X157120313Y-67013784D01*
X157284311Y-67410689D01*
X157438000Y-67564646D01*
X157438000Y-72484369D01*
X156857849Y-73064520D01*
X154013109Y-73064520D01*
X154538815Y-72538815D01*
X154703996Y-72291605D01*
X154703996Y-72291604D01*
X154761999Y-72000000D01*
X154762000Y-72000000D01*
X154762000Y-63515630D01*
X161738815Y-56538815D01*
X161738816Y-56538815D01*
X161837834Y-56390623D01*
X161903996Y-56291605D01*
X161903996Y-56291604D01*
X161962000Y-56000000D01*
X161962000Y-45400000D01*
X161903996Y-45108396D01*
X161903996Y-45108395D01*
X161738815Y-44861185D01*
X161088815Y-44211185D01*
X160841605Y-44046004D01*
X160550000Y-43988000D01*
X160410000Y-43988000D01*
X160410000Y-43948691D01*
X160313327Y-43715302D01*
X160134699Y-43536673D01*
X159901310Y-43440000D01*
X159648691Y-43440000D01*
X158098691Y-43440000D01*
X157865302Y-43536673D01*
X157686673Y-43715301D01*
X157590000Y-43948690D01*
X157590000Y-43988000D01*
X156870651Y-43988000D01*
X156787627Y-43787562D01*
X156608999Y-43608933D01*
X156375610Y-43512260D01*
X156122991Y-43512260D01*
X154624391Y-43512260D01*
X154391002Y-43608933D01*
X154212373Y-43787561D01*
X154129348Y-43988000D01*
X153216704Y-43988000D01*
X153205010Y-43959697D01*
X152812370Y-43566371D01*
X152299100Y-43353243D01*
X151743339Y-43352758D01*
X151229697Y-43564990D01*
X150877000Y-43917071D01*
X150877000Y-43861691D01*
X150780327Y-43628302D01*
X150601699Y-43449673D01*
X150368310Y-43353000D01*
X150115691Y-43353000D01*
X148591691Y-43353000D01*
X148358302Y-43449673D01*
X148179673Y-43628301D01*
X148083000Y-43861690D01*
X148083000Y-43988000D01*
X147370651Y-43988000D01*
X147287627Y-43787562D01*
X147108999Y-43608933D01*
X146875610Y-43512260D01*
X146622991Y-43512260D01*
X145124391Y-43512260D01*
X144891002Y-43608933D01*
X144712373Y-43787561D01*
X144629348Y-43988000D01*
X143910000Y-43988000D01*
X143910000Y-43948691D01*
X143813327Y-43715302D01*
X143634699Y-43536673D01*
X143401310Y-43440000D01*
X143148691Y-43440000D01*
X141598691Y-43440000D01*
X141365302Y-43536673D01*
X141186673Y-43715301D01*
X141090000Y-43948690D01*
X141090000Y-43988000D01*
X141050000Y-43988000D01*
X140758395Y-44046004D01*
X140511185Y-44211185D01*
X140061185Y-44661185D01*
X139896004Y-44908395D01*
X139838000Y-45200000D01*
X139838000Y-56000000D01*
X139896004Y-56291605D01*
X140061185Y-56538815D01*
X146988000Y-63465630D01*
X146988000Y-69434369D01*
X146334729Y-70087640D01*
X140158870Y-70087640D01*
X140158870Y-69723841D01*
X140062197Y-69490452D01*
X139883569Y-69311823D01*
X139650180Y-69215150D01*
X139397561Y-69215150D01*
X139262480Y-69215150D01*
X140138815Y-68338816D01*
X140138815Y-68338815D01*
X140303996Y-68091605D01*
X140361999Y-67800000D01*
X140362000Y-67800000D01*
X140362000Y-63900000D01*
X140303996Y-63608395D01*
X140138815Y-63361185D01*
X138362000Y-61584370D01*
X138362000Y-53964641D01*
X138514622Y-53812286D01*
X138679313Y-53415668D01*
X138679687Y-52986216D01*
X138515689Y-52589311D01*
X138212286Y-52285378D01*
X137815668Y-52120687D01*
X137386216Y-52120313D01*
X136989311Y-52284311D01*
X136685378Y-52587714D01*
X136520687Y-52984332D01*
X136520313Y-53413784D01*
X136684311Y-53810689D01*
X136838000Y-53964646D01*
X136838000Y-61900000D01*
X136896004Y-62191605D01*
X137061185Y-62438815D01*
X138838000Y-64215630D01*
X138838000Y-64924866D01*
X138813327Y-64865301D01*
X138634698Y-64686673D01*
X138401309Y-64590000D01*
X137885750Y-64590000D01*
X137727000Y-64748750D01*
X137727000Y-65873000D01*
X137747000Y-65873000D01*
X137747000Y-66127000D01*
X137727000Y-66127000D01*
X137727000Y-67251250D01*
X137885750Y-67410000D01*
X138401309Y-67410000D01*
X138634698Y-67313327D01*
X138813327Y-67134699D01*
X138838000Y-67075133D01*
X138838000Y-67484369D01*
X137960165Y-68362205D01*
X137794984Y-68609415D01*
X137736980Y-68901020D01*
X137736980Y-69215150D01*
X137347781Y-69215150D01*
X137298830Y-69235425D01*
X137249880Y-69215150D01*
X137169925Y-69215150D01*
X137011175Y-69373900D01*
X137011175Y-69415039D01*
X136935763Y-69490451D01*
X136900049Y-69576670D01*
X136881000Y-69530679D01*
X136881000Y-68519000D01*
X136822996Y-68227395D01*
X136657815Y-67980185D01*
X136309500Y-67631870D01*
X136309500Y-67410000D01*
X136401309Y-67410000D01*
X136600000Y-67327699D01*
X136798691Y-67410000D01*
X137314250Y-67410000D01*
X137473000Y-67251250D01*
X137473000Y-66127000D01*
X137453000Y-66127000D01*
X137453000Y-65873000D01*
X137473000Y-65873000D01*
X137473000Y-64748750D01*
X137314250Y-64590000D01*
X136798691Y-64590000D01*
X136600000Y-64672300D01*
X136401310Y-64590000D01*
X136148691Y-64590000D01*
X134798691Y-64590000D01*
X134565302Y-64686673D01*
X134386673Y-64865301D01*
X134290000Y-65098690D01*
X134290000Y-65351309D01*
X134290000Y-66901309D01*
X134386673Y-67134698D01*
X134565301Y-67313327D01*
X134785500Y-67404536D01*
X134785500Y-67947500D01*
X134843504Y-68239105D01*
X135008685Y-68486315D01*
X135357000Y-68834630D01*
X135357000Y-69063410D01*
X135340129Y-68978595D01*
X135340129Y-68978594D01*
X135147418Y-68690182D01*
X133639000Y-67181764D01*
X133639000Y-65137863D01*
X133664622Y-65112286D01*
X133829313Y-64715668D01*
X133829687Y-64286216D01*
X133665689Y-63889311D01*
X133362286Y-63585378D01*
X132965668Y-63420687D01*
X132536216Y-63420313D01*
X132139311Y-63584311D01*
X132112575Y-63611000D01*
X131160000Y-63611000D01*
X131160000Y-47551309D01*
X131160000Y-47035750D01*
X131001250Y-46877000D01*
X129877000Y-46877000D01*
X129877000Y-47901250D01*
X130035750Y-48060000D01*
X130398691Y-48060000D01*
X130651310Y-48060000D01*
X130884699Y-47963327D01*
X131063327Y-47784698D01*
X131160000Y-47551309D01*
X131160000Y-63611000D01*
X129623000Y-63611000D01*
X129623000Y-47901250D01*
X129623000Y-46877000D01*
X128498750Y-46877000D01*
X128340000Y-47035750D01*
X128340000Y-47551309D01*
X128436673Y-47784698D01*
X128615301Y-47963327D01*
X128848690Y-48060000D01*
X129101309Y-48060000D01*
X129464250Y-48060000D01*
X129623000Y-47901250D01*
X129623000Y-63611000D01*
X128468236Y-63611000D01*
X128189000Y-63331764D01*
X128189000Y-45619000D01*
X128368038Y-45619000D01*
X128422300Y-45750000D01*
X128340000Y-45948691D01*
X128340000Y-46464250D01*
X128498750Y-46623000D01*
X129623000Y-46623000D01*
X129623000Y-46603000D01*
X129877000Y-46603000D01*
X129877000Y-46623000D01*
X131001250Y-46623000D01*
X131160000Y-46464250D01*
X131160000Y-45948691D01*
X131077699Y-45750000D01*
X131160000Y-45551310D01*
X131160000Y-45298691D01*
X131160000Y-43948691D01*
X131063327Y-43715302D01*
X130884699Y-43536673D01*
X130651310Y-43440000D01*
X130398691Y-43440000D01*
X128848691Y-43440000D01*
X128615302Y-43536673D01*
X128436673Y-43715301D01*
X128384606Y-43841000D01*
X127300000Y-43841000D01*
X125080177Y-43841000D01*
X124753923Y-43514176D01*
X124226691Y-43295250D01*
X123655813Y-43294752D01*
X123128200Y-43512757D01*
X122724176Y-43916077D01*
X122670137Y-44046215D01*
X122617243Y-43918200D01*
X122213923Y-43514176D01*
X121686691Y-43295250D01*
X121115813Y-43294752D01*
X120588200Y-43512757D01*
X120184176Y-43916077D01*
X120136551Y-44030768D01*
X120113864Y-43975995D01*
X119867745Y-43901861D01*
X119688139Y-44081466D01*
X119688139Y-43722255D01*
X119614005Y-43476136D01*
X119076777Y-43283035D01*
X118506546Y-43310222D01*
X118105995Y-43476136D01*
X118031861Y-43722255D01*
X118860000Y-44550395D01*
X119688139Y-43722255D01*
X119688139Y-44081466D01*
X119039605Y-44730000D01*
X119053747Y-44744142D01*
X118874142Y-44923747D01*
X118860000Y-44909605D01*
X118680395Y-45089210D01*
X118680395Y-44730000D01*
X117852255Y-43901861D01*
X117606136Y-43975995D01*
X117413035Y-44513223D01*
X117440222Y-45083454D01*
X117606136Y-45484005D01*
X117852255Y-45558139D01*
X118680395Y-44730000D01*
X118680395Y-45089210D01*
X118031861Y-45737745D01*
X118105995Y-45983864D01*
X118164253Y-46004804D01*
X118048200Y-46052757D01*
X117644176Y-46456077D01*
X117622615Y-46508000D01*
X117012000Y-46508000D01*
X117012000Y-43665630D01*
X117665630Y-43012000D01*
X204738000Y-43012000D01*
X204738000Y-73434370D01*
X204738000Y-73434370D01*
G37*
X204738000Y-73434370D02*
X203507650Y-74664720D01*
X201384300Y-74664720D01*
X201384300Y-47479050D01*
X201384300Y-47226431D01*
X201384300Y-45925951D01*
X201311418Y-45750000D01*
X201384300Y-45574050D01*
X201384300Y-45321431D01*
X201384300Y-44020951D01*
X201287627Y-43787562D01*
X201108999Y-43608933D01*
X200875610Y-43512260D01*
X200622991Y-43512260D01*
X199124391Y-43512260D01*
X198891002Y-43608933D01*
X198712373Y-43787561D01*
X198681953Y-43861000D01*
X197916713Y-43861000D01*
X197820327Y-43628302D01*
X197641699Y-43449673D01*
X197408310Y-43353000D01*
X197155691Y-43353000D01*
X195631691Y-43353000D01*
X195398302Y-43449673D01*
X195219673Y-43628301D01*
X195123000Y-43861690D01*
X195123000Y-43917613D01*
X194772370Y-43566371D01*
X194259100Y-43353243D01*
X193703339Y-43352758D01*
X193189697Y-43564990D01*
X192796371Y-43957630D01*
X192783760Y-43988000D01*
X191370651Y-43988000D01*
X191287627Y-43787562D01*
X191108999Y-43608933D01*
X190875610Y-43512260D01*
X190622991Y-43512260D01*
X189124391Y-43512260D01*
X188891002Y-43608933D01*
X188712373Y-43787561D01*
X188615700Y-44020950D01*
X188615700Y-44273569D01*
X188615700Y-45574049D01*
X188688581Y-45750000D01*
X188615700Y-45925951D01*
X188615700Y-46416750D01*
X188774450Y-46575500D01*
X189873000Y-46575500D01*
X189873000Y-46555500D01*
X190127000Y-46555500D01*
X190127000Y-46575500D01*
X191225550Y-46575500D01*
X191384300Y-46416750D01*
X191384300Y-45925951D01*
X191311418Y-45750000D01*
X191384300Y-45574050D01*
X191384300Y-45512000D01*
X192783295Y-45512000D01*
X192794990Y-45540303D01*
X193187630Y-45933629D01*
X193218000Y-45946239D01*
X193218000Y-45980000D01*
X193276004Y-46271605D01*
X193441185Y-46518815D01*
X194163684Y-47241315D01*
X194163685Y-47241315D01*
X194410895Y-47406496D01*
X194702500Y-47464500D01*
X198615700Y-47464500D01*
X198615700Y-47479049D01*
X198712373Y-47712438D01*
X198891001Y-47891067D01*
X199124390Y-47987740D01*
X199377009Y-47987740D01*
X200875609Y-47987740D01*
X201108998Y-47891067D01*
X201287627Y-47712439D01*
X201384300Y-47479050D01*
X201384300Y-74664720D01*
X191384300Y-74664720D01*
X191384300Y-47479049D01*
X191384300Y-46988250D01*
X191225550Y-46829500D01*
X190127000Y-46829500D01*
X190127000Y-47828990D01*
X190285750Y-47987740D01*
X190622991Y-47987740D01*
X190875610Y-47987740D01*
X191108999Y-47891067D01*
X191287627Y-47712438D01*
X191384300Y-47479049D01*
X191384300Y-74664720D01*
X189873000Y-74664720D01*
X189873000Y-47828990D01*
X189873000Y-46829500D01*
X188774450Y-46829500D01*
X188615700Y-46988250D01*
X188615700Y-47479049D01*
X188712373Y-47712438D01*
X188891001Y-47891067D01*
X189124390Y-47987740D01*
X189377009Y-47987740D01*
X189714250Y-47987740D01*
X189873000Y-47828990D01*
X189873000Y-74664720D01*
X186834000Y-74664720D01*
X186834000Y-51015310D01*
X186834000Y-50762691D01*
X186834000Y-50285750D01*
X186834000Y-49714250D01*
X186834000Y-49237309D01*
X186834000Y-48984690D01*
X186737327Y-48751301D01*
X186558698Y-48572673D01*
X186325309Y-48476000D01*
X185595750Y-48476000D01*
X185437000Y-48634750D01*
X185437000Y-49873000D01*
X186675250Y-49873000D01*
X186834000Y-49714250D01*
X186834000Y-50285750D01*
X186675250Y-50127000D01*
X185437000Y-50127000D01*
X185437000Y-51365250D01*
X185595750Y-51524000D01*
X186325309Y-51524000D01*
X186558698Y-51427327D01*
X186737327Y-51248699D01*
X186834000Y-51015310D01*
X186834000Y-74664720D01*
X182410000Y-74664720D01*
X182410000Y-58551309D01*
X182410000Y-58035750D01*
X182251250Y-57877000D01*
X181127000Y-57877000D01*
X181127000Y-58901250D01*
X181285750Y-59060000D01*
X181648691Y-59060000D01*
X181901310Y-59060000D01*
X182134699Y-58963327D01*
X182313327Y-58784698D01*
X182410000Y-58551309D01*
X182410000Y-74664720D01*
X180873000Y-74664720D01*
X180873000Y-58901250D01*
X180873000Y-57877000D01*
X179748750Y-57877000D01*
X179590000Y-58035750D01*
X179590000Y-58551309D01*
X179686673Y-58784698D01*
X179865301Y-58963327D01*
X180098690Y-59060000D01*
X180351309Y-59060000D01*
X180714250Y-59060000D01*
X180873000Y-58901250D01*
X180873000Y-74664720D01*
X170910000Y-74664720D01*
X170910000Y-58551309D01*
X170910000Y-58035750D01*
X170751250Y-57877000D01*
X169627000Y-57877000D01*
X169627000Y-58901250D01*
X169785750Y-59060000D01*
X170148691Y-59060000D01*
X170401310Y-59060000D01*
X170634699Y-58963327D01*
X170813327Y-58784698D01*
X170910000Y-58551309D01*
X170910000Y-74664720D01*
X169373000Y-74664720D01*
X169373000Y-58901250D01*
X169373000Y-57877000D01*
X168248750Y-57877000D01*
X168090000Y-58035750D01*
X168090000Y-58551309D01*
X168186673Y-58784698D01*
X168365301Y-58963327D01*
X168598690Y-59060000D01*
X168851309Y-59060000D01*
X169214250Y-59060000D01*
X169373000Y-58901250D01*
X169373000Y-74664720D01*
X159612910Y-74664720D01*
X160138815Y-74138815D01*
X160303996Y-73891605D01*
X160303996Y-73891604D01*
X160362000Y-73600000D01*
X160362000Y-68764641D01*
X160514622Y-68612286D01*
X160679313Y-68215668D01*
X160679502Y-67998127D01*
X166538815Y-62138815D01*
X166538816Y-62138815D01*
X166637834Y-61990623D01*
X166703996Y-61891605D01*
X166703996Y-61891604D01*
X166762000Y-61600000D01*
X166762000Y-52315630D01*
X170808815Y-48268815D01*
X170973996Y-48021605D01*
X170973996Y-48021604D01*
X171032000Y-47730000D01*
X171032000Y-46084118D01*
X171132149Y-46042738D01*
X171322292Y-45852926D01*
X171382673Y-45998698D01*
X171561301Y-46177327D01*
X171794690Y-46274000D01*
X172047309Y-46274000D01*
X172048000Y-46274000D01*
X172048000Y-54512260D01*
X171874391Y-54512260D01*
X171641002Y-54608933D01*
X171462373Y-54787561D01*
X171379348Y-54988000D01*
X170910000Y-54988000D01*
X170910000Y-54948691D01*
X170813327Y-54715302D01*
X170634699Y-54536673D01*
X170401310Y-54440000D01*
X170148691Y-54440000D01*
X168598691Y-54440000D01*
X168365302Y-54536673D01*
X168186673Y-54715301D01*
X168090000Y-54948690D01*
X168090000Y-55201309D01*
X168090000Y-56551309D01*
X168172300Y-56750000D01*
X168090000Y-56948691D01*
X168090000Y-57464250D01*
X168248750Y-57623000D01*
X169373000Y-57623000D01*
X169373000Y-57603000D01*
X169627000Y-57603000D01*
X169627000Y-57623000D01*
X170751250Y-57623000D01*
X170910000Y-57464250D01*
X170910000Y-56948691D01*
X170827699Y-56750000D01*
X170910000Y-56551310D01*
X170910000Y-56512000D01*
X171365700Y-56512000D01*
X171365700Y-56574049D01*
X171438581Y-56749999D01*
X171365700Y-56925950D01*
X171365700Y-57178569D01*
X171365700Y-58479049D01*
X171462373Y-58712438D01*
X171641001Y-58891067D01*
X171874390Y-58987740D01*
X172127009Y-58987740D01*
X173625609Y-58987740D01*
X173858998Y-58891067D01*
X174037627Y-58712439D01*
X174087721Y-58591500D01*
X176412278Y-58591500D01*
X176462373Y-58712438D01*
X176641001Y-58891067D01*
X176861000Y-58982193D01*
X176861000Y-61381764D01*
X176621382Y-61621382D01*
X176428671Y-61909794D01*
X176361000Y-62250000D01*
X176361000Y-62862136D01*
X176335378Y-62887714D01*
X176170687Y-63284332D01*
X176170313Y-63713784D01*
X176334311Y-64110689D01*
X176637714Y-64414622D01*
X177034332Y-64579313D01*
X177463784Y-64579687D01*
X177860689Y-64415689D01*
X178164622Y-64112286D01*
X178329313Y-63715668D01*
X178329687Y-63286216D01*
X178165689Y-62889311D01*
X178139000Y-62862575D01*
X178139000Y-62618236D01*
X178378618Y-62378618D01*
X178571329Y-62090206D01*
X178571329Y-62090205D01*
X178639000Y-61750000D01*
X178639000Y-58982193D01*
X178858998Y-58891067D01*
X179037627Y-58712439D01*
X179134300Y-58479050D01*
X179134300Y-58226431D01*
X179134300Y-56925951D01*
X179061418Y-56750000D01*
X179134300Y-56574050D01*
X179134300Y-56512000D01*
X179590000Y-56512000D01*
X179590000Y-56551309D01*
X179672300Y-56750000D01*
X179590000Y-56948691D01*
X179590000Y-57464250D01*
X179748750Y-57623000D01*
X180873000Y-57623000D01*
X180873000Y-57603000D01*
X181127000Y-57603000D01*
X181127000Y-57623000D01*
X182251250Y-57623000D01*
X182410000Y-57464250D01*
X182410000Y-56948691D01*
X182327699Y-56750000D01*
X182410000Y-56551310D01*
X182410000Y-56298691D01*
X182410000Y-54948691D01*
X182313327Y-54715302D01*
X182134699Y-54536673D01*
X181901310Y-54440000D01*
X181648691Y-54440000D01*
X180098691Y-54440000D01*
X179865302Y-54536673D01*
X179686673Y-54715301D01*
X179590000Y-54948690D01*
X179590000Y-54988000D01*
X179120651Y-54988000D01*
X179037627Y-54787562D01*
X178858999Y-54608933D01*
X178625610Y-54512260D01*
X178452000Y-54512260D01*
X178452000Y-51334118D01*
X178552149Y-51292738D01*
X178960335Y-50885262D01*
X179365596Y-51291231D01*
X179925528Y-51523735D01*
X180531812Y-51524264D01*
X181092149Y-51292738D01*
X181500335Y-50885262D01*
X181905596Y-51291231D01*
X182465528Y-51523735D01*
X183071812Y-51524264D01*
X183632149Y-51292738D01*
X183822291Y-51102926D01*
X183882673Y-51248699D01*
X184061302Y-51427327D01*
X184294691Y-51524000D01*
X185024250Y-51524000D01*
X185183000Y-51365250D01*
X185183000Y-50127000D01*
X185163000Y-50127000D01*
X185163000Y-49873000D01*
X185183000Y-49873000D01*
X185183000Y-48634750D01*
X185024250Y-48476000D01*
X184294691Y-48476000D01*
X184061302Y-48572673D01*
X183882673Y-48751301D01*
X183822317Y-48897011D01*
X183634404Y-48708769D01*
X183074472Y-48476265D01*
X182468188Y-48475736D01*
X181907851Y-48707262D01*
X181499664Y-49114737D01*
X181094404Y-48708769D01*
X180534472Y-48476265D01*
X179928188Y-48475736D01*
X179367851Y-48707262D01*
X178959664Y-49114737D01*
X178554404Y-48708769D01*
X177994472Y-48476265D01*
X177388188Y-48475736D01*
X176827851Y-48707262D01*
X176398769Y-49135596D01*
X176166265Y-49695528D01*
X176165736Y-50301812D01*
X176397262Y-50862149D01*
X176825596Y-51291231D01*
X176928000Y-51333752D01*
X176928000Y-54512260D01*
X176874391Y-54512260D01*
X176641002Y-54608933D01*
X176462373Y-54787561D01*
X176365700Y-55020950D01*
X176365700Y-55273569D01*
X176365700Y-56574049D01*
X176438581Y-56749999D01*
X176412278Y-56813500D01*
X174087721Y-56813500D01*
X174061418Y-56750000D01*
X174134300Y-56574050D01*
X174134300Y-56321431D01*
X174134300Y-55020951D01*
X174037627Y-54787562D01*
X173858999Y-54608933D01*
X173625610Y-54512260D01*
X173572000Y-54512260D01*
X173572000Y-46274000D01*
X173825309Y-46274000D01*
X174058698Y-46177327D01*
X174237327Y-45998699D01*
X174334000Y-45765310D01*
X174334000Y-45512691D01*
X174334000Y-43734691D01*
X174237327Y-43501302D01*
X174058699Y-43322673D01*
X173825310Y-43226000D01*
X173572691Y-43226000D01*
X171794691Y-43226000D01*
X171561302Y-43322673D01*
X171382673Y-43501301D01*
X171322317Y-43647011D01*
X171134404Y-43458769D01*
X170574472Y-43226265D01*
X169968188Y-43225736D01*
X169407851Y-43457262D01*
X168999664Y-43864737D01*
X168594404Y-43458769D01*
X168034472Y-43226265D01*
X167428188Y-43225736D01*
X166867851Y-43457262D01*
X166438769Y-43885596D01*
X166427595Y-43912505D01*
X166262196Y-43857409D01*
X166082591Y-44037014D01*
X166082591Y-43677804D01*
X165997533Y-43422461D01*
X165428035Y-43214484D01*
X164822300Y-43240277D01*
X164382467Y-43422461D01*
X164297409Y-43677804D01*
X165190000Y-44570395D01*
X166082591Y-43677804D01*
X166082591Y-44037014D01*
X165369605Y-44750000D01*
X166262196Y-45642591D01*
X166427137Y-45587646D01*
X166437262Y-45612149D01*
X166865596Y-46041231D01*
X166968000Y-46083752D01*
X166968000Y-47204369D01*
X166082591Y-48089778D01*
X166082591Y-45822196D01*
X165190000Y-44929605D01*
X165010395Y-45109210D01*
X165010395Y-44750000D01*
X164117804Y-43857409D01*
X163862461Y-43942467D01*
X163654484Y-44511965D01*
X163680277Y-45117700D01*
X163862461Y-45557533D01*
X164117804Y-45642591D01*
X165010395Y-44750000D01*
X165010395Y-45109210D01*
X164297409Y-45822196D01*
X164382467Y-46077539D01*
X164951965Y-46285516D01*
X165557700Y-46259723D01*
X165997533Y-46077539D01*
X166082591Y-45822196D01*
X166082591Y-48089778D01*
X163711185Y-50461185D01*
X163546004Y-50708395D01*
X163488000Y-51000000D01*
X163488000Y-60434370D01*
X158201869Y-65720500D01*
X157986216Y-65720313D01*
X157589311Y-65884311D01*
X157285378Y-66187714D01*
X157120687Y-66584332D01*
X157120313Y-67013784D01*
X157284311Y-67410689D01*
X157438000Y-67564646D01*
X157438000Y-72484369D01*
X156857849Y-73064520D01*
X154013109Y-73064520D01*
X154538815Y-72538815D01*
X154703996Y-72291605D01*
X154703996Y-72291604D01*
X154761999Y-72000000D01*
X154762000Y-72000000D01*
X154762000Y-63515630D01*
X161738815Y-56538815D01*
X161738816Y-56538815D01*
X161837834Y-56390623D01*
X161903996Y-56291605D01*
X161903996Y-56291604D01*
X161962000Y-56000000D01*
X161962000Y-45400000D01*
X161903996Y-45108396D01*
X161903996Y-45108395D01*
X161738815Y-44861185D01*
X161088815Y-44211185D01*
X160841605Y-44046004D01*
X160550000Y-43988000D01*
X160410000Y-43988000D01*
X160410000Y-43948691D01*
X160313327Y-43715302D01*
X160134699Y-43536673D01*
X159901310Y-43440000D01*
X159648691Y-43440000D01*
X158098691Y-43440000D01*
X157865302Y-43536673D01*
X157686673Y-43715301D01*
X157590000Y-43948690D01*
X157590000Y-43988000D01*
X156870651Y-43988000D01*
X156787627Y-43787562D01*
X156608999Y-43608933D01*
X156375610Y-43512260D01*
X156122991Y-43512260D01*
X154624391Y-43512260D01*
X154391002Y-43608933D01*
X154212373Y-43787561D01*
X154129348Y-43988000D01*
X153216704Y-43988000D01*
X153205010Y-43959697D01*
X152812370Y-43566371D01*
X152299100Y-43353243D01*
X151743339Y-43352758D01*
X151229697Y-43564990D01*
X150877000Y-43917071D01*
X150877000Y-43861691D01*
X150780327Y-43628302D01*
X150601699Y-43449673D01*
X150368310Y-43353000D01*
X150115691Y-43353000D01*
X148591691Y-43353000D01*
X148358302Y-43449673D01*
X148179673Y-43628301D01*
X148083000Y-43861690D01*
X148083000Y-43988000D01*
X147370651Y-43988000D01*
X147287627Y-43787562D01*
X147108999Y-43608933D01*
X146875610Y-43512260D01*
X146622991Y-43512260D01*
X145124391Y-43512260D01*
X144891002Y-43608933D01*
X144712373Y-43787561D01*
X144629348Y-43988000D01*
X143910000Y-43988000D01*
X143910000Y-43948691D01*
X143813327Y-43715302D01*
X143634699Y-43536673D01*
X143401310Y-43440000D01*
X143148691Y-43440000D01*
X141598691Y-43440000D01*
X141365302Y-43536673D01*
X141186673Y-43715301D01*
X141090000Y-43948690D01*
X141090000Y-43988000D01*
X141050000Y-43988000D01*
X140758395Y-44046004D01*
X140511185Y-44211185D01*
X140061185Y-44661185D01*
X139896004Y-44908395D01*
X139838000Y-45200000D01*
X139838000Y-56000000D01*
X139896004Y-56291605D01*
X140061185Y-56538815D01*
X146988000Y-63465630D01*
X146988000Y-69434369D01*
X146334729Y-70087640D01*
X140158870Y-70087640D01*
X140158870Y-69723841D01*
X140062197Y-69490452D01*
X139883569Y-69311823D01*
X139650180Y-69215150D01*
X139397561Y-69215150D01*
X139262480Y-69215150D01*
X140138815Y-68338816D01*
X140138815Y-68338815D01*
X140303996Y-68091605D01*
X140361999Y-67800000D01*
X140362000Y-67800000D01*
X140362000Y-63900000D01*
X140303996Y-63608395D01*
X140138815Y-63361185D01*
X138362000Y-61584370D01*
X138362000Y-53964641D01*
X138514622Y-53812286D01*
X138679313Y-53415668D01*
X138679687Y-52986216D01*
X138515689Y-52589311D01*
X138212286Y-52285378D01*
X137815668Y-52120687D01*
X137386216Y-52120313D01*
X136989311Y-52284311D01*
X136685378Y-52587714D01*
X136520687Y-52984332D01*
X136520313Y-53413784D01*
X136684311Y-53810689D01*
X136838000Y-53964646D01*
X136838000Y-61900000D01*
X136896004Y-62191605D01*
X137061185Y-62438815D01*
X138838000Y-64215630D01*
X138838000Y-64924866D01*
X138813327Y-64865301D01*
X138634698Y-64686673D01*
X138401309Y-64590000D01*
X137885750Y-64590000D01*
X137727000Y-64748750D01*
X137727000Y-65873000D01*
X137747000Y-65873000D01*
X137747000Y-66127000D01*
X137727000Y-66127000D01*
X137727000Y-67251250D01*
X137885750Y-67410000D01*
X138401309Y-67410000D01*
X138634698Y-67313327D01*
X138813327Y-67134699D01*
X138838000Y-67075133D01*
X138838000Y-67484369D01*
X137960165Y-68362205D01*
X137794984Y-68609415D01*
X137736980Y-68901020D01*
X137736980Y-69215150D01*
X137347781Y-69215150D01*
X137298830Y-69235425D01*
X137249880Y-69215150D01*
X137169925Y-69215150D01*
X137011175Y-69373900D01*
X137011175Y-69415039D01*
X136935763Y-69490451D01*
X136900049Y-69576670D01*
X136881000Y-69530679D01*
X136881000Y-68519000D01*
X136822996Y-68227395D01*
X136657815Y-67980185D01*
X136309500Y-67631870D01*
X136309500Y-67410000D01*
X136401309Y-67410000D01*
X136600000Y-67327699D01*
X136798691Y-67410000D01*
X137314250Y-67410000D01*
X137473000Y-67251250D01*
X137473000Y-66127000D01*
X137453000Y-66127000D01*
X137453000Y-65873000D01*
X137473000Y-65873000D01*
X137473000Y-64748750D01*
X137314250Y-64590000D01*
X136798691Y-64590000D01*
X136600000Y-64672300D01*
X136401310Y-64590000D01*
X136148691Y-64590000D01*
X134798691Y-64590000D01*
X134565302Y-64686673D01*
X134386673Y-64865301D01*
X134290000Y-65098690D01*
X134290000Y-65351309D01*
X134290000Y-66901309D01*
X134386673Y-67134698D01*
X134565301Y-67313327D01*
X134785500Y-67404536D01*
X134785500Y-67947500D01*
X134843504Y-68239105D01*
X135008685Y-68486315D01*
X135357000Y-68834630D01*
X135357000Y-69063410D01*
X135340129Y-68978595D01*
X135340129Y-68978594D01*
X135147418Y-68690182D01*
X133639000Y-67181764D01*
X133639000Y-65137863D01*
X133664622Y-65112286D01*
X133829313Y-64715668D01*
X133829687Y-64286216D01*
X133665689Y-63889311D01*
X133362286Y-63585378D01*
X132965668Y-63420687D01*
X132536216Y-63420313D01*
X132139311Y-63584311D01*
X132112575Y-63611000D01*
X131160000Y-63611000D01*
X131160000Y-47551309D01*
X131160000Y-47035750D01*
X131001250Y-46877000D01*
X129877000Y-46877000D01*
X129877000Y-47901250D01*
X130035750Y-48060000D01*
X130398691Y-48060000D01*
X130651310Y-48060000D01*
X130884699Y-47963327D01*
X131063327Y-47784698D01*
X131160000Y-47551309D01*
X131160000Y-63611000D01*
X129623000Y-63611000D01*
X129623000Y-47901250D01*
X129623000Y-46877000D01*
X128498750Y-46877000D01*
X128340000Y-47035750D01*
X128340000Y-47551309D01*
X128436673Y-47784698D01*
X128615301Y-47963327D01*
X128848690Y-48060000D01*
X129101309Y-48060000D01*
X129464250Y-48060000D01*
X129623000Y-47901250D01*
X129623000Y-63611000D01*
X128468236Y-63611000D01*
X128189000Y-63331764D01*
X128189000Y-45619000D01*
X128368038Y-45619000D01*
X128422300Y-45750000D01*
X128340000Y-45948691D01*
X128340000Y-46464250D01*
X128498750Y-46623000D01*
X129623000Y-46623000D01*
X129623000Y-46603000D01*
X129877000Y-46603000D01*
X129877000Y-46623000D01*
X131001250Y-46623000D01*
X131160000Y-46464250D01*
X131160000Y-45948691D01*
X131077699Y-45750000D01*
X131160000Y-45551310D01*
X131160000Y-45298691D01*
X131160000Y-43948691D01*
X131063327Y-43715302D01*
X130884699Y-43536673D01*
X130651310Y-43440000D01*
X130398691Y-43440000D01*
X128848691Y-43440000D01*
X128615302Y-43536673D01*
X128436673Y-43715301D01*
X128384606Y-43841000D01*
X127300000Y-43841000D01*
X125080177Y-43841000D01*
X124753923Y-43514176D01*
X124226691Y-43295250D01*
X123655813Y-43294752D01*
X123128200Y-43512757D01*
X122724176Y-43916077D01*
X122670137Y-44046215D01*
X122617243Y-43918200D01*
X122213923Y-43514176D01*
X121686691Y-43295250D01*
X121115813Y-43294752D01*
X120588200Y-43512757D01*
X120184176Y-43916077D01*
X120136551Y-44030768D01*
X120113864Y-43975995D01*
X119867745Y-43901861D01*
X119688139Y-44081466D01*
X119688139Y-43722255D01*
X119614005Y-43476136D01*
X119076777Y-43283035D01*
X118506546Y-43310222D01*
X118105995Y-43476136D01*
X118031861Y-43722255D01*
X118860000Y-44550395D01*
X119688139Y-43722255D01*
X119688139Y-44081466D01*
X119039605Y-44730000D01*
X119053747Y-44744142D01*
X118874142Y-44923747D01*
X118860000Y-44909605D01*
X118680395Y-45089210D01*
X118680395Y-44730000D01*
X117852255Y-43901861D01*
X117606136Y-43975995D01*
X117413035Y-44513223D01*
X117440222Y-45083454D01*
X117606136Y-45484005D01*
X117852255Y-45558139D01*
X118680395Y-44730000D01*
X118680395Y-45089210D01*
X118031861Y-45737745D01*
X118105995Y-45983864D01*
X118164253Y-46004804D01*
X118048200Y-46052757D01*
X117644176Y-46456077D01*
X117622615Y-46508000D01*
X117012000Y-46508000D01*
X117012000Y-43665630D01*
X117665630Y-43012000D01*
X204738000Y-43012000D01*
X204738000Y-73434370D01*
G36*
X228172300Y-45749999D02*
X228090000Y-45948690D01*
X228090000Y-45988000D01*
X226565630Y-45988000D01*
X226326634Y-45749003D01*
X226533629Y-45542370D01*
X226746757Y-45029100D01*
X226747242Y-44473339D01*
X226535010Y-43959697D01*
X226142370Y-43566371D01*
X225629100Y-43353243D01*
X225073339Y-43352758D01*
X224559697Y-43564990D01*
X224166371Y-43957630D01*
X224080050Y-44165512D01*
X223995010Y-43959697D01*
X223602370Y-43566371D01*
X223089100Y-43353243D01*
X222533339Y-43352758D01*
X222019697Y-43564990D01*
X221626371Y-43957630D01*
X221540050Y-44165512D01*
X221455010Y-43959697D01*
X221062370Y-43566371D01*
X220549100Y-43353243D01*
X219993339Y-43352758D01*
X219479697Y-43564990D01*
X219086371Y-43957630D01*
X219000050Y-44165512D01*
X218915010Y-43959697D01*
X218522370Y-43566371D01*
X218009100Y-43353243D01*
X217453339Y-43352758D01*
X216939697Y-43564990D01*
X216587000Y-43917071D01*
X216587000Y-43861690D01*
X216490327Y-43628301D01*
X216311698Y-43449673D01*
X216078309Y-43353000D01*
X215475750Y-43353000D01*
X215317000Y-43511750D01*
X215317000Y-44623000D01*
X215337000Y-44623000D01*
X215337000Y-44877000D01*
X215317000Y-44877000D01*
X215317000Y-45988250D01*
X215475750Y-46147000D01*
X216078309Y-46147000D01*
X216311698Y-46050327D01*
X216490327Y-45871699D01*
X216587000Y-45638310D01*
X216587000Y-45582386D01*
X216937630Y-45933629D01*
X217450900Y-46146757D01*
X218006661Y-46147242D01*
X218520303Y-45935010D01*
X218913629Y-45542370D01*
X218999949Y-45334487D01*
X219084990Y-45540303D01*
X219477630Y-45933629D01*
X219508000Y-45946239D01*
X219508000Y-74914369D01*
X218960089Y-75462280D01*
X215063000Y-75462280D01*
X215063000Y-45988250D01*
X215063000Y-44877000D01*
X215063000Y-44623000D01*
X215063000Y-43511750D01*
X214904250Y-43353000D01*
X214301691Y-43353000D01*
X214068302Y-43449673D01*
X213920000Y-43597974D01*
X213771698Y-43449673D01*
X213538309Y-43353000D01*
X212935750Y-43353000D01*
X212777000Y-43511750D01*
X212777000Y-44623000D01*
X213888250Y-44623000D01*
X213920000Y-44591250D01*
X213951750Y-44623000D01*
X215063000Y-44623000D01*
X215063000Y-44877000D01*
X213951750Y-44877000D01*
X213920000Y-44908750D01*
X213888250Y-44877000D01*
X212777000Y-44877000D01*
X212777000Y-45988250D01*
X212935750Y-46147000D01*
X213538309Y-46147000D01*
X213771698Y-46050327D01*
X213920000Y-45902025D01*
X214068302Y-46050327D01*
X214301691Y-46147000D01*
X214904250Y-46147000D01*
X215063000Y-45988250D01*
X215063000Y-75462280D01*
X212523000Y-75462280D01*
X212523000Y-45988250D01*
X212523000Y-44877000D01*
X212523000Y-44623000D01*
X212523000Y-43511750D01*
X212364250Y-43353000D01*
X211761691Y-43353000D01*
X211528302Y-43449673D01*
X211349673Y-43628301D01*
X211253000Y-43861690D01*
X211253000Y-44114309D01*
X211253000Y-44464250D01*
X211411750Y-44623000D01*
X212523000Y-44623000D01*
X212523000Y-44877000D01*
X211411750Y-44877000D01*
X211253000Y-45035750D01*
X211253000Y-45385691D01*
X211253000Y-45638310D01*
X211349673Y-45871699D01*
X211528302Y-46050327D01*
X211761691Y-46147000D01*
X212364250Y-46147000D01*
X212523000Y-45988250D01*
X212523000Y-75462280D01*
X204865350Y-75462280D01*
X206038815Y-74288815D01*
X206203996Y-74041605D01*
X206261999Y-73750000D01*
X206262000Y-73750000D01*
X206262000Y-43012000D01*
X227234369Y-43012000D01*
X228061184Y-43838815D01*
X228061185Y-43838815D01*
X228119399Y-43877712D01*
X228119399Y-43877713D01*
X228090000Y-43948690D01*
X228090000Y-44201309D01*
X228090000Y-45551309D01*
X228172300Y-45749999D01*
X228172300Y-45749999D01*
G37*
X228172300Y-45749999D02*
X228090000Y-45948690D01*
X228090000Y-45988000D01*
X226565630Y-45988000D01*
X226326634Y-45749003D01*
X226533629Y-45542370D01*
X226746757Y-45029100D01*
X226747242Y-44473339D01*
X226535010Y-43959697D01*
X226142370Y-43566371D01*
X225629100Y-43353243D01*
X225073339Y-43352758D01*
X224559697Y-43564990D01*
X224166371Y-43957630D01*
X224080050Y-44165512D01*
X223995010Y-43959697D01*
X223602370Y-43566371D01*
X223089100Y-43353243D01*
X222533339Y-43352758D01*
X222019697Y-43564990D01*
X221626371Y-43957630D01*
X221540050Y-44165512D01*
X221455010Y-43959697D01*
X221062370Y-43566371D01*
X220549100Y-43353243D01*
X219993339Y-43352758D01*
X219479697Y-43564990D01*
X219086371Y-43957630D01*
X219000050Y-44165512D01*
X218915010Y-43959697D01*
X218522370Y-43566371D01*
X218009100Y-43353243D01*
X217453339Y-43352758D01*
X216939697Y-43564990D01*
X216587000Y-43917071D01*
X216587000Y-43861690D01*
X216490327Y-43628301D01*
X216311698Y-43449673D01*
X216078309Y-43353000D01*
X215475750Y-43353000D01*
X215317000Y-43511750D01*
X215317000Y-44623000D01*
X215337000Y-44623000D01*
X215337000Y-44877000D01*
X215317000Y-44877000D01*
X215317000Y-45988250D01*
X215475750Y-46147000D01*
X216078309Y-46147000D01*
X216311698Y-46050327D01*
X216490327Y-45871699D01*
X216587000Y-45638310D01*
X216587000Y-45582386D01*
X216937630Y-45933629D01*
X217450900Y-46146757D01*
X218006661Y-46147242D01*
X218520303Y-45935010D01*
X218913629Y-45542370D01*
X218999949Y-45334487D01*
X219084990Y-45540303D01*
X219477630Y-45933629D01*
X219508000Y-45946239D01*
X219508000Y-74914369D01*
X218960089Y-75462280D01*
X215063000Y-75462280D01*
X215063000Y-45988250D01*
X215063000Y-44877000D01*
X215063000Y-44623000D01*
X215063000Y-43511750D01*
X214904250Y-43353000D01*
X214301691Y-43353000D01*
X214068302Y-43449673D01*
X213920000Y-43597974D01*
X213771698Y-43449673D01*
X213538309Y-43353000D01*
X212935750Y-43353000D01*
X212777000Y-43511750D01*
X212777000Y-44623000D01*
X213888250Y-44623000D01*
X213920000Y-44591250D01*
X213951750Y-44623000D01*
X215063000Y-44623000D01*
X215063000Y-44877000D01*
X213951750Y-44877000D01*
X213920000Y-44908750D01*
X213888250Y-44877000D01*
X212777000Y-44877000D01*
X212777000Y-45988250D01*
X212935750Y-46147000D01*
X213538309Y-46147000D01*
X213771698Y-46050327D01*
X213920000Y-45902025D01*
X214068302Y-46050327D01*
X214301691Y-46147000D01*
X214904250Y-46147000D01*
X215063000Y-45988250D01*
X215063000Y-75462280D01*
X212523000Y-75462280D01*
X212523000Y-45988250D01*
X212523000Y-44877000D01*
X212523000Y-44623000D01*
X212523000Y-43511750D01*
X212364250Y-43353000D01*
X211761691Y-43353000D01*
X211528302Y-43449673D01*
X211349673Y-43628301D01*
X211253000Y-43861690D01*
X211253000Y-44114309D01*
X211253000Y-44464250D01*
X211411750Y-44623000D01*
X212523000Y-44623000D01*
X212523000Y-44877000D01*
X211411750Y-44877000D01*
X211253000Y-45035750D01*
X211253000Y-45385691D01*
X211253000Y-45638310D01*
X211349673Y-45871699D01*
X211528302Y-46050327D01*
X211761691Y-46147000D01*
X212364250Y-46147000D01*
X212523000Y-45988250D01*
X212523000Y-75462280D01*
X204865350Y-75462280D01*
X206038815Y-74288815D01*
X206203996Y-74041605D01*
X206261999Y-73750000D01*
X206262000Y-73750000D01*
X206262000Y-43012000D01*
X227234369Y-43012000D01*
X228061184Y-43838815D01*
X228061185Y-43838815D01*
X228119399Y-43877712D01*
X228119399Y-43877713D01*
X228090000Y-43948690D01*
X228090000Y-44201309D01*
X228090000Y-45551309D01*
X228172300Y-45749999D01*
G36*
X263315000Y-263932532D02*
X262974141Y-265646144D01*
X262885673Y-265778545D01*
X262885673Y-263230616D01*
X262885673Y-45230616D01*
X262295463Y-43802199D01*
X261203549Y-42708377D01*
X259776165Y-42115676D01*
X258230616Y-42114327D01*
X256802199Y-42704537D01*
X255708377Y-43796451D01*
X255115676Y-45223835D01*
X255114327Y-46769384D01*
X255704537Y-48197801D01*
X256796451Y-49291623D01*
X258223835Y-49884324D01*
X259769384Y-49885673D01*
X261197801Y-49295463D01*
X262291623Y-48203549D01*
X262884324Y-46776165D01*
X262885673Y-45230616D01*
X262885673Y-263230616D01*
X262295463Y-261802199D01*
X261203549Y-260708377D01*
X259776165Y-260115676D01*
X258230616Y-260114327D01*
X256802199Y-260704537D01*
X255708377Y-261796451D01*
X255115676Y-263223835D01*
X255114327Y-264769384D01*
X255704537Y-266197801D01*
X256796451Y-267291623D01*
X258223835Y-267884324D01*
X259769384Y-267885673D01*
X261197801Y-267295463D01*
X262291623Y-266203549D01*
X262884324Y-264776165D01*
X262885673Y-263230616D01*
X262885673Y-265778545D01*
X262041675Y-267041677D01*
X260646142Y-267974142D01*
X258932532Y-268315000D01*
X246643786Y-268315000D01*
X246643786Y-45513037D01*
X246392966Y-44906005D01*
X245928937Y-44441166D01*
X245322345Y-44189287D01*
X244805966Y-44188836D01*
X245050039Y-44107533D01*
X245258016Y-43538035D01*
X245232223Y-42932300D01*
X245050039Y-42492467D01*
X244794696Y-42407409D01*
X244615091Y-42587014D01*
X244615091Y-42227804D01*
X244530033Y-41972461D01*
X243960535Y-41764484D01*
X243354800Y-41790277D01*
X242914967Y-41972461D01*
X242829909Y-42227804D01*
X243722500Y-43120395D01*
X244615091Y-42227804D01*
X244615091Y-42587014D01*
X243902105Y-43300000D01*
X243916247Y-43314142D01*
X243736642Y-43493747D01*
X243722500Y-43479605D01*
X243542895Y-43659210D01*
X243542895Y-43300000D01*
X242650304Y-42407409D01*
X242394961Y-42492467D01*
X242186984Y-43061965D01*
X242212777Y-43667700D01*
X242394961Y-44107533D01*
X242650304Y-44192591D01*
X243542895Y-43300000D01*
X243542895Y-43659210D01*
X242829909Y-44372196D01*
X242914967Y-44627539D01*
X243484465Y-44835516D01*
X243669734Y-44827626D01*
X243593666Y-44903563D01*
X243341787Y-45510155D01*
X243341214Y-46166963D01*
X243482915Y-46509907D01*
X243008035Y-46336484D01*
X242402300Y-46362277D01*
X241962467Y-46544461D01*
X241877409Y-46799804D01*
X242770000Y-47692395D01*
X242784142Y-47678252D01*
X242963747Y-47857857D01*
X242949605Y-47872000D01*
X242963747Y-47886142D01*
X242784142Y-48065747D01*
X242770000Y-48051605D01*
X241877409Y-48944196D01*
X241962467Y-49199539D01*
X242269934Y-49311824D01*
X242186984Y-49538965D01*
X242212777Y-50144700D01*
X242394961Y-50584533D01*
X242650304Y-50669591D01*
X243542895Y-49777000D01*
X243528752Y-49762857D01*
X243708357Y-49583252D01*
X243722500Y-49597395D01*
X244615091Y-48704804D01*
X244530033Y-48449461D01*
X244222565Y-48337175D01*
X244305516Y-48110035D01*
X244279723Y-47504300D01*
X244193382Y-47295853D01*
X244662655Y-47490713D01*
X245319463Y-47491286D01*
X245926495Y-47240466D01*
X246391334Y-46776437D01*
X246643213Y-46169845D01*
X246643786Y-45513037D01*
X246643786Y-268315000D01*
X245258016Y-268315000D01*
X245258016Y-50015035D01*
X245232223Y-49409300D01*
X245050039Y-48969467D01*
X244794696Y-48884409D01*
X243902105Y-49777000D01*
X244794696Y-50669591D01*
X245050039Y-50584533D01*
X245258016Y-50015035D01*
X245258016Y-268315000D01*
X244615091Y-268315000D01*
X244615091Y-50849196D01*
X243722500Y-49956605D01*
X242829909Y-50849196D01*
X242914967Y-51104539D01*
X243484465Y-51312516D01*
X244090200Y-51286723D01*
X244530033Y-51104539D01*
X244615091Y-50849196D01*
X244615091Y-268315000D01*
X238567467Y-268315000D01*
X238193249Y-268240563D01*
X237933196Y-268066801D01*
X237759436Y-267806750D01*
X237685000Y-267432532D01*
X237685000Y-261200000D01*
X237671838Y-261133830D01*
X237671838Y-261066363D01*
X237557657Y-260492338D01*
X237455376Y-260245410D01*
X237455375Y-260245409D01*
X237130217Y-259758774D01*
X237035721Y-259664279D01*
X236941226Y-259569783D01*
X236454591Y-259244624D01*
X236331126Y-259193484D01*
X236207662Y-259142343D01*
X235633637Y-259028162D01*
X235566170Y-259028162D01*
X235500000Y-259015000D01*
X228500000Y-259015000D01*
X228433830Y-259028162D01*
X228366363Y-259028162D01*
X227792338Y-259142343D01*
X227545410Y-259244624D01*
X227058774Y-259569783D01*
X226964279Y-259664279D01*
X226869783Y-259758774D01*
X226544624Y-260245409D01*
X226493484Y-260368873D01*
X226442343Y-260492338D01*
X226328162Y-261066363D01*
X226328162Y-261133829D01*
X226315000Y-261200000D01*
X226315000Y-267432532D01*
X226240563Y-267806750D01*
X226066801Y-268066803D01*
X225806750Y-268240563D01*
X225432532Y-268315000D01*
X208268083Y-268315000D01*
X208427640Y-268155722D01*
X208684707Y-267536638D01*
X208685292Y-266866303D01*
X208685292Y-260866303D01*
X208429306Y-260246771D01*
X207955722Y-259772360D01*
X207336638Y-259515293D01*
X206666303Y-259514708D01*
X206046771Y-259770694D01*
X205572360Y-260244278D01*
X205315293Y-260863362D01*
X205314708Y-261533697D01*
X205570694Y-262153229D01*
X206044278Y-262627640D01*
X206663362Y-262884707D01*
X207333697Y-262885292D01*
X207953229Y-262629306D01*
X208427640Y-262155722D01*
X208684707Y-261536638D01*
X208685292Y-260866303D01*
X208685292Y-266866303D01*
X208429306Y-266246771D01*
X207955722Y-265772360D01*
X207336638Y-265515293D01*
X206666303Y-265514708D01*
X206046771Y-265770694D01*
X205572360Y-266244278D01*
X205315293Y-266863362D01*
X205314708Y-267533697D01*
X205570694Y-268153229D01*
X205732182Y-268315000D01*
X188368083Y-268315000D01*
X188527640Y-268155722D01*
X188784707Y-267536638D01*
X188785292Y-266866303D01*
X188685292Y-266624285D01*
X188685292Y-260866303D01*
X188429306Y-260246771D01*
X187955722Y-259772360D01*
X187336638Y-259515293D01*
X186666303Y-259514708D01*
X186046771Y-259770694D01*
X185572360Y-260244278D01*
X185315293Y-260863362D01*
X185314708Y-261533697D01*
X185570694Y-262153229D01*
X186044278Y-262627640D01*
X186663362Y-262884707D01*
X187333697Y-262885292D01*
X187953229Y-262629306D01*
X188427640Y-262155722D01*
X188684707Y-261536638D01*
X188685292Y-260866303D01*
X188685292Y-266624285D01*
X188529306Y-266246771D01*
X188055722Y-265772360D01*
X187436638Y-265515293D01*
X186766303Y-265514708D01*
X186146771Y-265770694D01*
X185672360Y-266244278D01*
X185415293Y-266863362D01*
X185414708Y-267533697D01*
X185670694Y-268153229D01*
X185832182Y-268315000D01*
X163480773Y-268315000D01*
X163607268Y-268125687D01*
X163731725Y-267500000D01*
X163640124Y-267039491D01*
X163640124Y-261280434D01*
X163640124Y-260519566D01*
X163609144Y-260391645D01*
X163295922Y-259833683D01*
X162793020Y-259438058D01*
X162177000Y-259265000D01*
X161427000Y-259265000D01*
X161427000Y-260773000D01*
X163520777Y-260773000D01*
X163640124Y-260519566D01*
X163640124Y-261280434D01*
X163520777Y-261027000D01*
X161427000Y-261027000D01*
X161427000Y-262535000D01*
X162177000Y-262535000D01*
X162793020Y-262361942D01*
X163295922Y-261966317D01*
X163609144Y-261408355D01*
X163640124Y-261280434D01*
X163640124Y-267039491D01*
X163607268Y-266874313D01*
X163252845Y-266343880D01*
X162722412Y-265989457D01*
X162096725Y-265865000D01*
X161173000Y-265865000D01*
X161173000Y-262535000D01*
X161173000Y-261027000D01*
X161173000Y-260773000D01*
X161173000Y-259265000D01*
X160423000Y-259265000D01*
X159806980Y-259438058D01*
X159304078Y-259833683D01*
X158990856Y-260391645D01*
X158959876Y-260519566D01*
X159079223Y-260773000D01*
X161173000Y-260773000D01*
X161173000Y-261027000D01*
X159079223Y-261027000D01*
X158959876Y-261280434D01*
X158990856Y-261408355D01*
X159293692Y-261947816D01*
X159227000Y-261979223D01*
X159227000Y-264073000D01*
X160735000Y-264073000D01*
X160735000Y-263323000D01*
X160561942Y-262706980D01*
X160426648Y-262535000D01*
X161173000Y-262535000D01*
X161173000Y-265865000D01*
X160503275Y-265865000D01*
X160412432Y-265883069D01*
X160561942Y-265693020D01*
X160735000Y-265077000D01*
X160735000Y-264327000D01*
X159227000Y-264327000D01*
X159227000Y-266420777D01*
X159279313Y-266445412D01*
X158992732Y-266874313D01*
X158973000Y-266973512D01*
X158973000Y-266420777D01*
X158973000Y-264327000D01*
X158973000Y-264073000D01*
X158973000Y-261979223D01*
X158719566Y-261859876D01*
X158591645Y-261890856D01*
X158033683Y-262204078D01*
X157638058Y-262706980D01*
X157465000Y-263323000D01*
X157465000Y-264073000D01*
X158973000Y-264073000D01*
X158973000Y-264327000D01*
X157465000Y-264327000D01*
X157465000Y-265077000D01*
X157638058Y-265693020D01*
X158033683Y-266195922D01*
X158591645Y-266509144D01*
X158719566Y-266540124D01*
X158973000Y-266420777D01*
X158973000Y-266973512D01*
X158868275Y-267500000D01*
X158992732Y-268125687D01*
X159119226Y-268315000D01*
X156885326Y-268315000D01*
X156885326Y-263826695D01*
X156598957Y-263133628D01*
X156331725Y-262865929D01*
X156331725Y-260500000D01*
X156207268Y-259874313D01*
X155852845Y-259343880D01*
X155322412Y-258989457D01*
X154696725Y-258865000D01*
X153103275Y-258865000D01*
X152477588Y-258989457D01*
X151947155Y-259343880D01*
X151592732Y-259874313D01*
X151468275Y-260500000D01*
X151592732Y-261125687D01*
X151947155Y-261656120D01*
X152477588Y-262010543D01*
X153103275Y-262135000D01*
X154696725Y-262135000D01*
X155322412Y-262010543D01*
X155852845Y-261656120D01*
X156207268Y-261125687D01*
X156331725Y-260500000D01*
X156331725Y-262865929D01*
X156069161Y-262602907D01*
X155376595Y-262315328D01*
X154626695Y-262314674D01*
X153933628Y-262601043D01*
X153402907Y-263130839D01*
X153115328Y-263823405D01*
X153114674Y-264573305D01*
X153401043Y-265266372D01*
X153930839Y-265797093D01*
X154623405Y-266084672D01*
X155373305Y-266085326D01*
X156066372Y-265798957D01*
X156597093Y-265269161D01*
X156884672Y-264576595D01*
X156885326Y-263826695D01*
X156885326Y-268315000D01*
X156249176Y-268315000D01*
X156331725Y-267900000D01*
X156207268Y-267274313D01*
X155852845Y-266743880D01*
X155322412Y-266389457D01*
X154696725Y-266265000D01*
X153103275Y-266265000D01*
X152477588Y-266389457D01*
X151947155Y-266743880D01*
X151592732Y-267274313D01*
X151468275Y-267900000D01*
X151550823Y-268315000D01*
X62885673Y-268315000D01*
X62885673Y-263230616D01*
X62885673Y-45230616D01*
X62295463Y-43802199D01*
X61203549Y-42708377D01*
X59776165Y-42115676D01*
X58230616Y-42114327D01*
X56802199Y-42704537D01*
X55708377Y-43796451D01*
X55115676Y-45223835D01*
X55114327Y-46769384D01*
X55704537Y-48197801D01*
X56796451Y-49291623D01*
X58223835Y-49884324D01*
X59769384Y-49885673D01*
X61197801Y-49295463D01*
X62291623Y-48203549D01*
X62884324Y-46776165D01*
X62885673Y-45230616D01*
X62885673Y-263230616D01*
X62295463Y-261802199D01*
X61203549Y-260708377D01*
X59776165Y-260115676D01*
X58230616Y-260114327D01*
X56802199Y-260704537D01*
X55708377Y-261796451D01*
X55115676Y-263223835D01*
X55114327Y-264769384D01*
X55704537Y-266197801D01*
X56796451Y-267291623D01*
X58223835Y-267884324D01*
X59769384Y-267885673D01*
X61197801Y-267295463D01*
X62291623Y-266203549D01*
X62884324Y-264776165D01*
X62885673Y-263230616D01*
X62885673Y-268315000D01*
X59067467Y-268315000D01*
X57353855Y-267974141D01*
X55958322Y-267041675D01*
X55025857Y-265646142D01*
X54685000Y-263932532D01*
X54685000Y-46067467D01*
X55025857Y-44353857D01*
X55958322Y-42958324D01*
X57353855Y-42025858D01*
X59067467Y-41685000D01*
X74932532Y-41685000D01*
X75306750Y-41759436D01*
X75566801Y-41933196D01*
X75740563Y-42193249D01*
X75815000Y-42567467D01*
X75815000Y-42600000D01*
X75828162Y-42666170D01*
X75828162Y-42733637D01*
X75942343Y-43307662D01*
X75993484Y-43431126D01*
X76044624Y-43554591D01*
X76369783Y-44041226D01*
X76464279Y-44135721D01*
X76558774Y-44230217D01*
X77045409Y-44555375D01*
X77045410Y-44555376D01*
X77292338Y-44657657D01*
X77866363Y-44771838D01*
X77933830Y-44771838D01*
X78000000Y-44785000D01*
X79419609Y-44785000D01*
X79142857Y-45163252D01*
X84000000Y-50020395D01*
X88857143Y-45163252D01*
X88580390Y-44785000D01*
X90000000Y-44785000D01*
X90066170Y-44771837D01*
X90133637Y-44771838D01*
X90707662Y-44657657D01*
X90707662Y-44657656D01*
X90831126Y-44606516D01*
X90954591Y-44555376D01*
X90954591Y-44555375D01*
X91441226Y-44230217D01*
X91535721Y-44135721D01*
X91630217Y-44041226D01*
X91955375Y-43554591D01*
X91955376Y-43554590D01*
X92057657Y-43307662D01*
X92171838Y-42733637D01*
X92171838Y-42666169D01*
X92185000Y-42600000D01*
X92185000Y-42567467D01*
X92259436Y-42193249D01*
X92433196Y-41933198D01*
X92693249Y-41759436D01*
X93067467Y-41685000D01*
X116850373Y-41685000D01*
X116811185Y-41711185D01*
X115711185Y-42811185D01*
X115546004Y-43058395D01*
X115488000Y-43350000D01*
X115488000Y-47270000D01*
X115488000Y-59684369D01*
X113034369Y-62138000D01*
X93000000Y-62138000D01*
X92708395Y-62196004D01*
X92609376Y-62262165D01*
X92461185Y-62361184D01*
X88283750Y-66538618D01*
X88283750Y-66209250D01*
X88283750Y-66068971D01*
X88197191Y-65860000D01*
X88283750Y-65651029D01*
X88283750Y-65510750D01*
X88283750Y-64939250D01*
X88283750Y-64798971D01*
X88197191Y-64590000D01*
X88283750Y-64381029D01*
X88283750Y-64240750D01*
X88283750Y-63669250D01*
X88283750Y-63528971D01*
X88187077Y-63295582D01*
X88008449Y-63116953D01*
X87775060Y-63020280D01*
X87522441Y-63020280D01*
X86935010Y-63020280D01*
X86776260Y-63179030D01*
X86776260Y-63828000D01*
X88125000Y-63828000D01*
X88283750Y-63669250D01*
X88283750Y-64240750D01*
X88125000Y-64082000D01*
X86776260Y-64082000D01*
X86776260Y-64449030D01*
X86776260Y-64730970D01*
X86776260Y-65098000D01*
X88125000Y-65098000D01*
X88283750Y-64939250D01*
X88283750Y-65510750D01*
X88125000Y-65352000D01*
X86776260Y-65352000D01*
X86776260Y-65719030D01*
X86776260Y-66000970D01*
X86776260Y-66368000D01*
X88125000Y-66368000D01*
X88283750Y-66209250D01*
X88283750Y-66538618D01*
X88162684Y-66659684D01*
X88125000Y-66622000D01*
X86776260Y-66622000D01*
X86776260Y-66989030D01*
X86776260Y-67270970D01*
X86776260Y-67638000D01*
X86796260Y-67638000D01*
X86796260Y-67892000D01*
X86776260Y-67892000D01*
X86776260Y-67912000D01*
X86522260Y-67912000D01*
X86522260Y-67892000D01*
X86522260Y-67638000D01*
X86522260Y-67270970D01*
X86522260Y-66989030D01*
X86522260Y-66622000D01*
X86522260Y-66368000D01*
X86522260Y-66000970D01*
X86522260Y-65719030D01*
X86522260Y-65352000D01*
X86522260Y-65098000D01*
X86522260Y-64730970D01*
X86522260Y-64449030D01*
X86522260Y-64082000D01*
X86522260Y-63828000D01*
X86522260Y-63179030D01*
X86363510Y-63020280D01*
X85776079Y-63020280D01*
X85523460Y-63020280D01*
X85290071Y-63116953D01*
X85111443Y-63295582D01*
X85014770Y-63528971D01*
X85014770Y-63669250D01*
X85173520Y-63828000D01*
X86522260Y-63828000D01*
X86522260Y-64082000D01*
X85173520Y-64082000D01*
X85014770Y-64240750D01*
X85014770Y-64381029D01*
X85101328Y-64590000D01*
X85014770Y-64798971D01*
X85014770Y-64939250D01*
X85173520Y-65098000D01*
X86522260Y-65098000D01*
X86522260Y-65352000D01*
X85173520Y-65352000D01*
X85014770Y-65510750D01*
X85014770Y-65651029D01*
X85101328Y-65860000D01*
X85014770Y-66068971D01*
X85014770Y-66209250D01*
X85173520Y-66368000D01*
X86522260Y-66368000D01*
X86522260Y-66622000D01*
X85173520Y-66622000D01*
X85014770Y-66780750D01*
X85014770Y-66921029D01*
X85101328Y-67130000D01*
X85014770Y-67338971D01*
X85014770Y-67479250D01*
X85173520Y-67638000D01*
X86522260Y-67638000D01*
X86522260Y-67892000D01*
X85173520Y-67892000D01*
X85014770Y-68050750D01*
X85014770Y-68191029D01*
X85101328Y-68399999D01*
X85014770Y-68608970D01*
X85014770Y-68861589D01*
X85014770Y-69461029D01*
X85101328Y-69669999D01*
X85014770Y-69878970D01*
X85014770Y-70131589D01*
X85014770Y-70686000D01*
X84925000Y-70686000D01*
X84584794Y-70753671D01*
X84296382Y-70946382D01*
X83471382Y-71771382D01*
X83278671Y-72059794D01*
X83211000Y-72400000D01*
X83211000Y-78252500D01*
X83211000Y-78862136D01*
X83185378Y-78887714D01*
X83020687Y-79284332D01*
X83020313Y-79713784D01*
X83184311Y-80110689D01*
X83487714Y-80414622D01*
X83884332Y-80579313D01*
X84313784Y-80579687D01*
X84710689Y-80415689D01*
X85014622Y-80112286D01*
X85179313Y-79715668D01*
X85179562Y-79429628D01*
X85191001Y-79441067D01*
X85424390Y-79537740D01*
X85677009Y-79537740D01*
X87175609Y-79537740D01*
X87408998Y-79441067D01*
X87587627Y-79262439D01*
X87600000Y-79232567D01*
X87612373Y-79262438D01*
X87791001Y-79441067D01*
X88024390Y-79537740D01*
X88277009Y-79537740D01*
X89775609Y-79537740D01*
X90008998Y-79441067D01*
X90187627Y-79262439D01*
X90284300Y-79029050D01*
X90284300Y-78776431D01*
X90284300Y-77475951D01*
X90211418Y-77300000D01*
X90284300Y-77124050D01*
X90284300Y-76871431D01*
X90284300Y-75570951D01*
X90187627Y-75337562D01*
X90008999Y-75158933D01*
X89775610Y-75062260D01*
X89662000Y-75062260D01*
X89662000Y-70700000D01*
X89603996Y-70408395D01*
X89438815Y-70161185D01*
X89438815Y-70161184D01*
X89043815Y-69766185D01*
X88796605Y-69601004D01*
X88529714Y-69547915D01*
X89138815Y-68938815D01*
X89138816Y-68938815D01*
X89237834Y-68790623D01*
X89303996Y-68691605D01*
X89303996Y-68691604D01*
X89362000Y-68400000D01*
X89362000Y-67615630D01*
X93315630Y-63662000D01*
X94316250Y-63662000D01*
X94316250Y-63669250D01*
X94475000Y-63828000D01*
X95823740Y-63828000D01*
X95823740Y-63808000D01*
X96077740Y-63808000D01*
X96077740Y-63828000D01*
X97426480Y-63828000D01*
X97585230Y-63669250D01*
X97585230Y-63662000D01*
X113350000Y-63662000D01*
X113350000Y-63661999D01*
X113641604Y-63603996D01*
X113641605Y-63603996D01*
X113888815Y-63438815D01*
X116788815Y-60538816D01*
X116788815Y-60538815D01*
X116953996Y-60291605D01*
X117011999Y-60000000D01*
X117012000Y-60000000D01*
X117012000Y-48032000D01*
X117622180Y-48032000D01*
X117642757Y-48081800D01*
X118046077Y-48485824D01*
X118573309Y-48704750D01*
X119144187Y-48705248D01*
X119338000Y-48625166D01*
X119338000Y-49050000D01*
X119396004Y-49341605D01*
X119561185Y-49588815D01*
X121338000Y-51365630D01*
X121338000Y-68400000D01*
X121396004Y-68691605D01*
X121561185Y-68938815D01*
X126162205Y-73539835D01*
X126409415Y-73705016D01*
X126409416Y-73705016D01*
X126701020Y-73763020D01*
X130715150Y-73763020D01*
X130715150Y-74152219D01*
X130735425Y-74201169D01*
X130715150Y-74250120D01*
X130715150Y-74502739D01*
X130715150Y-74952319D01*
X130734899Y-74999999D01*
X130715150Y-75047680D01*
X130715150Y-75300299D01*
X130715150Y-75457200D01*
X119980800Y-75457200D01*
X119689195Y-75515204D01*
X119441985Y-75680385D01*
X118661185Y-76461185D01*
X118496004Y-76708395D01*
X118438000Y-77000000D01*
X118438000Y-79803000D01*
X118311691Y-79803000D01*
X118078302Y-79899673D01*
X117899673Y-80078301D01*
X117803000Y-80311690D01*
X117803000Y-80564309D01*
X117803000Y-82088309D01*
X117899673Y-82321698D01*
X118078301Y-82500327D01*
X118311690Y-82597000D01*
X118564309Y-82597000D01*
X120088309Y-82597000D01*
X120321698Y-82500327D01*
X120500327Y-82321699D01*
X120597000Y-82088310D01*
X120597000Y-81835691D01*
X120597000Y-80311691D01*
X120500327Y-80078302D01*
X120321699Y-79899673D01*
X120088310Y-79803000D01*
X119962000Y-79803000D01*
X119962000Y-77315630D01*
X120296430Y-76981200D01*
X123741169Y-76981200D01*
X123261185Y-77461185D01*
X123096004Y-77708395D01*
X123038000Y-78000000D01*
X123038000Y-79803000D01*
X122911691Y-79803000D01*
X122678302Y-79899673D01*
X122499673Y-80078301D01*
X122403000Y-80311690D01*
X122403000Y-80564309D01*
X122403000Y-82088309D01*
X122499673Y-82321698D01*
X122678301Y-82500327D01*
X122911690Y-82597000D01*
X123164309Y-82597000D01*
X124688309Y-82597000D01*
X124921698Y-82500327D01*
X125100327Y-82321699D01*
X125197000Y-82088310D01*
X125197000Y-81835691D01*
X125197000Y-80311691D01*
X125100327Y-80078302D01*
X124921699Y-79899673D01*
X124688310Y-79803000D01*
X124562000Y-79803000D01*
X124562000Y-78315630D01*
X125083630Y-77794000D01*
X126528370Y-77794000D01*
X126261185Y-78061185D01*
X126096004Y-78308395D01*
X126038000Y-78600000D01*
X126038000Y-79803000D01*
X125911691Y-79803000D01*
X125678302Y-79899673D01*
X125499673Y-80078301D01*
X125403000Y-80311690D01*
X125403000Y-80564309D01*
X125403000Y-82088309D01*
X125499673Y-82321698D01*
X125678301Y-82500327D01*
X125911690Y-82597000D01*
X126164309Y-82597000D01*
X127688309Y-82597000D01*
X127921698Y-82500327D01*
X128100327Y-82321699D01*
X128197000Y-82088310D01*
X128197000Y-81835691D01*
X128197000Y-80311691D01*
X128100327Y-80078302D01*
X127921699Y-79899673D01*
X127688310Y-79803000D01*
X127562000Y-79803000D01*
X127562000Y-78915630D01*
X127896230Y-78581400D01*
X131036811Y-78581400D01*
X131223840Y-78658870D01*
X131476459Y-78658870D01*
X132841130Y-78658870D01*
X132841130Y-80276159D01*
X132937803Y-80509548D01*
X132938920Y-80510665D01*
X132938920Y-81383450D01*
X132884370Y-81438000D01*
X130800000Y-81438000D01*
X130508395Y-81496004D01*
X130261184Y-81661185D01*
X129861185Y-82061185D01*
X129696004Y-82308395D01*
X129679771Y-82390000D01*
X129598691Y-82390000D01*
X129365302Y-82486673D01*
X129186673Y-82665301D01*
X129090000Y-82898690D01*
X129090000Y-83151309D01*
X129090000Y-84701309D01*
X129186673Y-84934698D01*
X129365301Y-85113327D01*
X129495000Y-85167050D01*
X129495000Y-85437990D01*
X129480451Y-85437990D01*
X129247062Y-85534663D01*
X129068433Y-85713291D01*
X128971760Y-85946680D01*
X128971760Y-86199299D01*
X128971760Y-87248319D01*
X129068433Y-87481708D01*
X129136724Y-87549999D01*
X129068433Y-87618291D01*
X128971760Y-87851680D01*
X128971760Y-88104299D01*
X128971760Y-88216750D01*
X129130510Y-88375500D01*
X130130000Y-88375500D01*
X130130000Y-88355500D01*
X130384000Y-88355500D01*
X130384000Y-88375500D01*
X130404000Y-88375500D01*
X130404000Y-88629500D01*
X130384000Y-88629500D01*
X130384000Y-89503260D01*
X130542750Y-89662010D01*
X131033549Y-89662010D01*
X131266938Y-89565337D01*
X131400000Y-89432275D01*
X131533061Y-89565337D01*
X131766450Y-89662010D01*
X131781000Y-89662010D01*
X131781000Y-89840000D01*
X131598691Y-89840000D01*
X131400000Y-89922300D01*
X131201309Y-89840000D01*
X130685750Y-89840000D01*
X130527000Y-89998750D01*
X130527000Y-91123000D01*
X130547000Y-91123000D01*
X130547000Y-91377000D01*
X130527000Y-91377000D01*
X130527000Y-92501250D01*
X130685750Y-92660000D01*
X131201309Y-92660000D01*
X131399999Y-92577699D01*
X131598690Y-92660000D01*
X131851309Y-92660000D01*
X133201309Y-92660000D01*
X133434698Y-92563327D01*
X133613327Y-92384699D01*
X133710000Y-92151310D01*
X133710000Y-91898691D01*
X133710000Y-90348691D01*
X133613327Y-90115302D01*
X133434699Y-89936673D01*
X133305000Y-89882949D01*
X133305000Y-89662010D01*
X133319549Y-89662010D01*
X133552938Y-89565337D01*
X133731567Y-89386709D01*
X133782187Y-89264500D01*
X134197500Y-89264500D01*
X134197500Y-89264499D01*
X134489104Y-89206496D01*
X134489105Y-89206496D01*
X134736315Y-89041315D01*
X135039835Y-88737795D01*
X135205016Y-88490585D01*
X135263019Y-88198980D01*
X135263020Y-88198980D01*
X135263020Y-85083092D01*
X135448690Y-85160000D01*
X135701309Y-85160000D01*
X137051309Y-85160000D01*
X137250000Y-85077699D01*
X137448691Y-85160000D01*
X137964250Y-85160000D01*
X138123000Y-85001250D01*
X138123000Y-83877000D01*
X138103000Y-83877000D01*
X138103000Y-83623000D01*
X138123000Y-83623000D01*
X138123000Y-82498750D01*
X137964250Y-82340000D01*
X137448691Y-82340000D01*
X137250000Y-82422300D01*
X137051310Y-82340000D01*
X136798691Y-82340000D01*
X136212980Y-82340000D01*
X136212980Y-80784850D01*
X136228222Y-80784850D01*
X136228222Y-80640707D01*
X136372365Y-80784850D01*
X136452320Y-80784850D01*
X136500000Y-80765100D01*
X136547680Y-80784850D01*
X136800299Y-80784850D01*
X137249879Y-80784850D01*
X137298829Y-80764574D01*
X137347780Y-80784850D01*
X137427735Y-80784850D01*
X137586485Y-80626100D01*
X137586485Y-80584960D01*
X137661897Y-80509549D01*
X137698880Y-80420263D01*
X137735863Y-80509548D01*
X137765281Y-80538966D01*
X137814190Y-80784850D01*
X137814191Y-80784850D01*
X137820384Y-80815985D01*
X137985565Y-81063195D01*
X138661185Y-81738815D01*
X138908395Y-81903996D01*
X138908396Y-81903996D01*
X139200000Y-81962000D01*
X144803000Y-81962000D01*
X144803000Y-82088309D01*
X144899673Y-82321698D01*
X145078301Y-82500327D01*
X145311690Y-82597000D01*
X145564309Y-82597000D01*
X147088309Y-82597000D01*
X147321698Y-82500327D01*
X147500327Y-82321699D01*
X147597000Y-82088310D01*
X147597000Y-81835691D01*
X147597000Y-80577840D01*
X147803000Y-80577840D01*
X147803000Y-82088309D01*
X147899673Y-82321698D01*
X148078301Y-82500327D01*
X148311690Y-82597000D01*
X148564309Y-82597000D01*
X150088309Y-82597000D01*
X150321698Y-82500327D01*
X150500327Y-82321699D01*
X150597000Y-82088310D01*
X150597000Y-81835691D01*
X150597000Y-80311691D01*
X150500327Y-80078302D01*
X150321699Y-79899673D01*
X150088310Y-79803000D01*
X149835691Y-79803000D01*
X149680630Y-79803000D01*
X149154655Y-79277025D01*
X148907445Y-79111844D01*
X148615840Y-79053840D01*
X140158870Y-79053840D01*
X140158870Y-78658870D01*
X141776159Y-78658870D01*
X141950923Y-78586480D01*
X150258849Y-78586480D01*
X150988000Y-79315630D01*
X150988000Y-92934370D01*
X150184370Y-93738000D01*
X139560000Y-93738000D01*
X139560000Y-84651310D01*
X139560000Y-84398691D01*
X139560000Y-84035750D01*
X139560000Y-83464250D01*
X139560000Y-83101309D01*
X139560000Y-82848690D01*
X139463327Y-82615301D01*
X139284698Y-82436673D01*
X139051309Y-82340000D01*
X138535750Y-82340000D01*
X138377000Y-82498750D01*
X138377000Y-83623000D01*
X139401250Y-83623000D01*
X139560000Y-83464250D01*
X139560000Y-84035750D01*
X139401250Y-83877000D01*
X138377000Y-83877000D01*
X138377000Y-85001250D01*
X138535750Y-85160000D01*
X139051309Y-85160000D01*
X139284698Y-85063327D01*
X139463327Y-84884699D01*
X139560000Y-84651310D01*
X139560000Y-93738000D01*
X130273000Y-93738000D01*
X130273000Y-92501250D01*
X130273000Y-91377000D01*
X130273000Y-91123000D01*
X130273000Y-89998750D01*
X130130000Y-89855750D01*
X130130000Y-89503260D01*
X130130000Y-88629500D01*
X129130510Y-88629500D01*
X128971760Y-88788250D01*
X128971760Y-88900701D01*
X128971760Y-89153320D01*
X129068433Y-89386709D01*
X129247062Y-89565337D01*
X129480451Y-89662010D01*
X129971250Y-89662010D01*
X130130000Y-89503260D01*
X130130000Y-89855750D01*
X130114250Y-89840000D01*
X129598691Y-89840000D01*
X129365302Y-89936673D01*
X129186673Y-90115301D01*
X129090000Y-90348690D01*
X129090000Y-90601309D01*
X129090000Y-90964250D01*
X129248750Y-91123000D01*
X130273000Y-91123000D01*
X130273000Y-91377000D01*
X129248750Y-91377000D01*
X129090000Y-91535750D01*
X129090000Y-91898691D01*
X129090000Y-92151310D01*
X129186673Y-92384699D01*
X129365302Y-92563327D01*
X129598691Y-92660000D01*
X130114250Y-92660000D01*
X130273000Y-92501250D01*
X130273000Y-93738000D01*
X107679687Y-93738000D01*
X107679687Y-67786216D01*
X107515689Y-67389311D01*
X107212286Y-67085378D01*
X106815668Y-66920687D01*
X106386216Y-66920313D01*
X105989311Y-67084311D01*
X105685378Y-67387714D01*
X105520687Y-67784332D01*
X105520313Y-68213784D01*
X105684311Y-68610689D01*
X105838000Y-68764646D01*
X105838000Y-71584370D01*
X105339369Y-72083000D01*
X103094630Y-72083000D01*
X104338815Y-70838816D01*
X104338815Y-70838815D01*
X104503996Y-70591605D01*
X104561999Y-70300000D01*
X104562000Y-70300000D01*
X104562000Y-67564641D01*
X104714622Y-67412286D01*
X104879313Y-67015668D01*
X104879687Y-66586216D01*
X104715689Y-66189311D01*
X104412286Y-65885378D01*
X104015668Y-65720687D01*
X103586216Y-65720313D01*
X103189311Y-65884311D01*
X102885378Y-66187714D01*
X102720687Y-66584332D01*
X102720313Y-67013784D01*
X102884311Y-67410689D01*
X103038000Y-67564646D01*
X103038000Y-69984369D01*
X102209369Y-70813000D01*
X97551276Y-70813000D01*
X97585230Y-70731030D01*
X97585230Y-70478411D01*
X97585230Y-69878971D01*
X97498671Y-69670000D01*
X97585230Y-69461029D01*
X97585230Y-69320750D01*
X97585230Y-68749250D01*
X97585230Y-68608971D01*
X97498671Y-68400000D01*
X97585230Y-68191029D01*
X97585230Y-68050750D01*
X97585230Y-67479250D01*
X97585230Y-67338971D01*
X97498671Y-67130000D01*
X97585230Y-66921029D01*
X97585230Y-66780750D01*
X97585230Y-66209250D01*
X97585230Y-66068971D01*
X97498671Y-65860000D01*
X97585230Y-65651029D01*
X97585230Y-65510750D01*
X97585230Y-64939250D01*
X97585230Y-64798971D01*
X97498671Y-64590000D01*
X97585230Y-64381029D01*
X97585230Y-64240750D01*
X97426480Y-64082000D01*
X96077740Y-64082000D01*
X96077740Y-64449030D01*
X96077740Y-64730970D01*
X96077740Y-65098000D01*
X97426480Y-65098000D01*
X97585230Y-64939250D01*
X97585230Y-65510750D01*
X97426480Y-65352000D01*
X96077740Y-65352000D01*
X96077740Y-65719030D01*
X96077740Y-66000970D01*
X96077740Y-66368000D01*
X97426480Y-66368000D01*
X97585230Y-66209250D01*
X97585230Y-66780750D01*
X97426480Y-66622000D01*
X96077740Y-66622000D01*
X96077740Y-66989030D01*
X96077740Y-67270970D01*
X96077740Y-67638000D01*
X97426480Y-67638000D01*
X97585230Y-67479250D01*
X97585230Y-68050750D01*
X97426480Y-67892000D01*
X96077740Y-67892000D01*
X96077740Y-68259030D01*
X96077740Y-68540970D01*
X96077740Y-68908000D01*
X97426480Y-68908000D01*
X97585230Y-68749250D01*
X97585230Y-69320750D01*
X97426480Y-69162000D01*
X96077740Y-69162000D01*
X96077740Y-69182000D01*
X95823740Y-69182000D01*
X95823740Y-69162000D01*
X95823740Y-68908000D01*
X95823740Y-68540970D01*
X95823740Y-68259030D01*
X95823740Y-67892000D01*
X95823740Y-67638000D01*
X95823740Y-67270970D01*
X95823740Y-66989030D01*
X95823740Y-66622000D01*
X95823740Y-66368000D01*
X95823740Y-66000970D01*
X95823740Y-65719030D01*
X95823740Y-65352000D01*
X95823740Y-65098000D01*
X95823740Y-64730970D01*
X95823740Y-64449030D01*
X95823740Y-64082000D01*
X94475000Y-64082000D01*
X94316250Y-64240750D01*
X94316250Y-64381029D01*
X94402808Y-64590000D01*
X94316250Y-64798971D01*
X94316250Y-64939250D01*
X94475000Y-65098000D01*
X95823740Y-65098000D01*
X95823740Y-65352000D01*
X94475000Y-65352000D01*
X94316250Y-65510750D01*
X94316250Y-65651029D01*
X94402808Y-65860000D01*
X94316250Y-66068971D01*
X94316250Y-66209250D01*
X94475000Y-66368000D01*
X95823740Y-66368000D01*
X95823740Y-66622000D01*
X94475000Y-66622000D01*
X94316250Y-66780750D01*
X94316250Y-66921029D01*
X94402808Y-67130000D01*
X94316250Y-67338971D01*
X94316250Y-67479250D01*
X94475000Y-67638000D01*
X95823740Y-67638000D01*
X95823740Y-67892000D01*
X94475000Y-67892000D01*
X94316250Y-68050750D01*
X94316250Y-68191029D01*
X94402808Y-68400000D01*
X94316250Y-68608971D01*
X94316250Y-68749250D01*
X94475000Y-68908000D01*
X95823740Y-68908000D01*
X95823740Y-69162000D01*
X94475000Y-69162000D01*
X94316250Y-69320750D01*
X94316250Y-69461029D01*
X94350203Y-69543000D01*
X91995000Y-69543000D01*
X91703395Y-69601004D01*
X91456184Y-69766185D01*
X90761185Y-70461185D01*
X90596004Y-70708395D01*
X90538000Y-71000000D01*
X90538000Y-80384369D01*
X90284369Y-80638000D01*
X72315630Y-80638000D01*
X71935000Y-80257369D01*
X71935000Y-62762000D01*
X91500000Y-62762000D01*
X91500000Y-62761999D01*
X91791604Y-62703996D01*
X91791605Y-62703996D01*
X92038815Y-62538815D01*
X97365815Y-57211815D01*
X97365816Y-57211815D01*
X97464834Y-57063623D01*
X97530996Y-56964605D01*
X97530996Y-56964604D01*
X97589000Y-56673000D01*
X97589000Y-54200500D01*
X99911857Y-54200500D01*
X100331958Y-54026489D01*
X100653489Y-53704957D01*
X100827500Y-53284857D01*
X100827500Y-52830143D01*
X100827500Y-50962000D01*
X103350000Y-50962000D01*
X103350000Y-50961999D01*
X103641604Y-50903996D01*
X103641605Y-50903996D01*
X103888815Y-50738815D01*
X104538815Y-50088815D01*
X104703996Y-49841605D01*
X104703996Y-49841604D01*
X104762000Y-49550000D01*
X104762000Y-48060000D01*
X104901309Y-48060000D01*
X105134698Y-47963327D01*
X105313327Y-47784699D01*
X105410000Y-47551310D01*
X105410000Y-47298691D01*
X105410000Y-45948691D01*
X105327699Y-45750000D01*
X105410000Y-45551309D01*
X105410000Y-45035750D01*
X105410000Y-44464250D01*
X105410000Y-43948691D01*
X105313327Y-43715302D01*
X105134699Y-43536673D01*
X104901310Y-43440000D01*
X104648691Y-43440000D01*
X104285750Y-43440000D01*
X104127000Y-43598750D01*
X104127000Y-44623000D01*
X105251250Y-44623000D01*
X105410000Y-44464250D01*
X105410000Y-45035750D01*
X105251250Y-44877000D01*
X104127000Y-44877000D01*
X104127000Y-44897000D01*
X103873000Y-44897000D01*
X103873000Y-44877000D01*
X103873000Y-44623000D01*
X103873000Y-43598750D01*
X103714250Y-43440000D01*
X103351309Y-43440000D01*
X103098690Y-43440000D01*
X102865301Y-43536673D01*
X102686673Y-43715302D01*
X102590000Y-43948691D01*
X102590000Y-44464250D01*
X102748750Y-44623000D01*
X103873000Y-44623000D01*
X103873000Y-44877000D01*
X102748750Y-44877000D01*
X102590000Y-45035750D01*
X102590000Y-45551309D01*
X102672300Y-45749999D01*
X102590000Y-45948690D01*
X102590000Y-46201309D01*
X102590000Y-47551309D01*
X102686673Y-47784698D01*
X102865301Y-47963327D01*
X103098690Y-48060000D01*
X103238000Y-48060000D01*
X103238000Y-49234370D01*
X103034370Y-49438000D01*
X100827500Y-49438000D01*
X100827500Y-47115143D01*
X100653489Y-46695042D01*
X100331957Y-46373511D01*
X99911857Y-46199500D01*
X99457143Y-46199500D01*
X93742143Y-46199500D01*
X93322042Y-46373511D01*
X93000511Y-46695043D01*
X92826500Y-47115143D01*
X92826500Y-47569857D01*
X92826500Y-53284857D01*
X93000511Y-53704958D01*
X93322043Y-54026489D01*
X93742143Y-54200500D01*
X94196857Y-54200500D01*
X96065000Y-54200500D01*
X96065000Y-56357369D01*
X91184369Y-61238000D01*
X91172314Y-61238000D01*
X91172314Y-48935434D01*
X90142426Y-46286967D01*
X89965775Y-46022591D01*
X89036748Y-45342857D01*
X84179605Y-50200000D01*
X89036748Y-55057143D01*
X89965775Y-54377409D01*
X91110283Y-51776420D01*
X91172314Y-48935434D01*
X91172314Y-61238000D01*
X88857143Y-61238000D01*
X88857143Y-55236748D01*
X84000000Y-50379605D01*
X83820395Y-50559210D01*
X83820395Y-50200000D01*
X78963252Y-45342857D01*
X78034225Y-46022591D01*
X76889717Y-48623580D01*
X76827686Y-51464566D01*
X77857574Y-54113033D01*
X78034225Y-54377409D01*
X78963252Y-55057143D01*
X83820395Y-50200000D01*
X83820395Y-50559210D01*
X79142857Y-55236748D01*
X79822591Y-56165775D01*
X82423580Y-57310283D01*
X85264566Y-57372314D01*
X87913033Y-56342426D01*
X88177409Y-56165775D01*
X88857143Y-55236748D01*
X88857143Y-61238000D01*
X71935000Y-61238000D01*
X71935000Y-54200500D01*
X74257857Y-54200500D01*
X74677958Y-54026489D01*
X74999489Y-53704957D01*
X75173500Y-53284857D01*
X75173500Y-52830143D01*
X75173500Y-47115143D01*
X74999489Y-46695042D01*
X74677957Y-46373511D01*
X74257857Y-46199500D01*
X73803143Y-46199500D01*
X68088143Y-46199500D01*
X67668042Y-46373511D01*
X67346511Y-46695043D01*
X67172500Y-47115143D01*
X67172500Y-47569857D01*
X67172500Y-53284857D01*
X67346511Y-53704958D01*
X67668043Y-54026489D01*
X68088143Y-54200500D01*
X68542857Y-54200500D01*
X70411000Y-54200500D01*
X70411000Y-62000000D01*
X70411000Y-80573000D01*
X70469004Y-80864605D01*
X70634185Y-81111815D01*
X71461185Y-81938816D01*
X71609376Y-82037834D01*
X71708395Y-82103996D01*
X71708396Y-82103996D01*
X72000000Y-82162000D01*
X90600000Y-82162000D01*
X90600000Y-82161999D01*
X90891604Y-82103996D01*
X90891605Y-82103996D01*
X91138815Y-81938815D01*
X91838815Y-81238816D01*
X91838815Y-81238815D01*
X92003996Y-80991605D01*
X92061999Y-80700000D01*
X92062000Y-80700000D01*
X92062000Y-71315630D01*
X92310630Y-71067000D01*
X93555369Y-71067000D01*
X93161185Y-71461185D01*
X92996004Y-71708395D01*
X92938000Y-72000000D01*
X92938000Y-75062260D01*
X92824391Y-75062260D01*
X92591002Y-75158933D01*
X92412373Y-75337561D01*
X92315700Y-75570950D01*
X92315700Y-75823569D01*
X92315700Y-77124049D01*
X92388581Y-77299999D01*
X92315700Y-77475950D01*
X92315700Y-77728569D01*
X92315700Y-79029049D01*
X92412373Y-79262438D01*
X92591001Y-79441067D01*
X92824390Y-79537740D01*
X93077009Y-79537740D01*
X94575609Y-79537740D01*
X94808998Y-79441067D01*
X94987627Y-79262439D01*
X95000000Y-79232567D01*
X95012373Y-79262438D01*
X95191001Y-79441067D01*
X95424390Y-79537740D01*
X95677009Y-79537740D01*
X96920466Y-79537740D01*
X96920313Y-79713784D01*
X97084311Y-80110689D01*
X97387714Y-80414622D01*
X97784332Y-80579313D01*
X98213784Y-80579687D01*
X98610689Y-80415689D01*
X98914622Y-80112286D01*
X99079313Y-79715668D01*
X99079687Y-79286216D01*
X98915689Y-78889311D01*
X98889000Y-78862575D01*
X98889000Y-78500000D01*
X98821329Y-78159795D01*
X98821329Y-78159794D01*
X98628618Y-77871382D01*
X98381118Y-77623882D01*
X98092706Y-77431171D01*
X97752500Y-77363500D01*
X97637721Y-77363500D01*
X97611418Y-77300000D01*
X97684300Y-77124050D01*
X97684300Y-76871431D01*
X97684300Y-75570951D01*
X97587627Y-75337562D01*
X97408999Y-75158933D01*
X97175610Y-75062260D01*
X97062000Y-75062260D01*
X97062000Y-74600000D01*
X97003996Y-74308395D01*
X96838815Y-74061185D01*
X96838815Y-74061184D01*
X96712740Y-73935109D01*
X96712740Y-73779720D01*
X97076539Y-73779720D01*
X97309928Y-73683047D01*
X97385975Y-73607000D01*
X105655000Y-73607000D01*
X105655000Y-73606999D01*
X105946604Y-73548996D01*
X105946605Y-73548996D01*
X106193815Y-73383815D01*
X107138815Y-72438815D01*
X107303996Y-72191605D01*
X107303996Y-72191604D01*
X107362000Y-71900000D01*
X107362000Y-68764641D01*
X107514622Y-68612286D01*
X107679313Y-68215668D01*
X107679687Y-67786216D01*
X107679687Y-93738000D01*
X66565630Y-93738000D01*
X66012000Y-93184369D01*
X66012000Y-55014641D01*
X66164622Y-54862286D01*
X66329313Y-54465668D01*
X66329687Y-54036216D01*
X66165689Y-53639311D01*
X65862286Y-53335378D01*
X65465668Y-53170687D01*
X65036216Y-53170313D01*
X64639311Y-53334311D01*
X64335378Y-53637714D01*
X64170687Y-54034332D01*
X64170313Y-54463784D01*
X64334311Y-54860689D01*
X64488000Y-55014646D01*
X64488000Y-93500000D01*
X64546004Y-93791605D01*
X64711185Y-94038815D01*
X65711185Y-95038816D01*
X65958395Y-95203996D01*
X65958396Y-95203997D01*
X66250000Y-95262000D01*
X150500000Y-95262000D01*
X150500000Y-95261999D01*
X150791604Y-95203996D01*
X150791605Y-95203996D01*
X151038815Y-95038815D01*
X152288815Y-93788815D01*
X152453996Y-93541605D01*
X152453996Y-93541604D01*
X152512000Y-93250000D01*
X152512000Y-79000000D01*
X152453996Y-78708395D01*
X152288815Y-78461185D01*
X152288815Y-78461184D01*
X151616550Y-77788920D01*
X221723080Y-77788920D01*
X221723080Y-77788919D01*
X222014684Y-77730916D01*
X222014685Y-77730916D01*
X222261895Y-77565735D01*
X223348815Y-76478815D01*
X223513996Y-76231605D01*
X223513996Y-76231604D01*
X223571999Y-75940000D01*
X223572000Y-75940000D01*
X223572000Y-45946704D01*
X223600303Y-45935010D01*
X223993629Y-45542370D01*
X224079949Y-45334487D01*
X224164990Y-45540303D01*
X224557630Y-45933629D01*
X224608866Y-45954904D01*
X224646004Y-46141605D01*
X224811185Y-46388815D01*
X225711184Y-47288815D01*
X225711185Y-47288815D01*
X225958395Y-47453996D01*
X226250000Y-47512000D01*
X228090000Y-47512000D01*
X228090000Y-47551309D01*
X228186673Y-47784698D01*
X228365301Y-47963327D01*
X228598690Y-48060000D01*
X228851309Y-48060000D01*
X230401309Y-48060000D01*
X230634698Y-47963327D01*
X230813327Y-47784699D01*
X230910000Y-47551310D01*
X230910000Y-47298691D01*
X230910000Y-45948691D01*
X230827699Y-45750000D01*
X230910000Y-45551310D01*
X230910000Y-45298691D01*
X230910000Y-44062000D01*
X232615700Y-44062000D01*
X232615700Y-44273569D01*
X232615700Y-45574049D01*
X232688581Y-45749999D01*
X232615700Y-45925950D01*
X232615700Y-46178569D01*
X232615700Y-47479049D01*
X232712373Y-47712438D01*
X232891001Y-47891067D01*
X233111000Y-47982193D01*
X233111000Y-62862136D01*
X233085378Y-62887714D01*
X232920687Y-63284332D01*
X232920313Y-63713784D01*
X233084311Y-64110689D01*
X233387714Y-64414622D01*
X233784332Y-64579313D01*
X234213784Y-64579687D01*
X234610689Y-64415689D01*
X234914622Y-64112286D01*
X235079313Y-63715668D01*
X235079687Y-63286216D01*
X234915689Y-62889311D01*
X234889000Y-62862575D01*
X234889000Y-47982193D01*
X235108998Y-47891067D01*
X235287627Y-47712439D01*
X235384300Y-47479050D01*
X235384300Y-47226431D01*
X235384300Y-45925951D01*
X235311418Y-45750000D01*
X235384300Y-45574050D01*
X235384300Y-45321431D01*
X235384300Y-44062000D01*
X237943381Y-44062000D01*
X237984762Y-44162149D01*
X238011568Y-44189002D01*
X237680537Y-44188714D01*
X237073505Y-44439534D01*
X236608666Y-44903563D01*
X236356787Y-45510155D01*
X236356214Y-46166963D01*
X236607034Y-46773995D01*
X237071063Y-47238834D01*
X237677655Y-47490713D01*
X238334463Y-47491286D01*
X238821482Y-47290054D01*
X238706265Y-47567528D01*
X238705736Y-48173812D01*
X238748079Y-48276290D01*
X238738685Y-48285685D01*
X238678709Y-48375444D01*
X238415351Y-48484262D01*
X237986269Y-48912596D01*
X237753765Y-49472528D01*
X237753236Y-50078812D01*
X237984762Y-50639149D01*
X238413096Y-51068231D01*
X238973028Y-51300735D01*
X239579312Y-51301264D01*
X240139649Y-51069738D01*
X240568731Y-50641404D01*
X240801235Y-50081472D01*
X240801764Y-49475188D01*
X240734541Y-49312497D01*
X241092149Y-49164738D01*
X241521231Y-48736404D01*
X241532404Y-48709494D01*
X241697804Y-48764591D01*
X242590395Y-47872000D01*
X241697804Y-46979409D01*
X241532862Y-47034353D01*
X241522738Y-47009851D01*
X241094404Y-46580769D01*
X240992000Y-46538247D01*
X240992000Y-44252500D01*
X240933996Y-43960895D01*
X240768815Y-43713685D01*
X240768815Y-43713684D01*
X240759679Y-43704548D01*
X240801235Y-43604472D01*
X240801764Y-42998188D01*
X240570238Y-42437851D01*
X240141904Y-42008769D01*
X239581972Y-41776265D01*
X238975688Y-41775736D01*
X238415351Y-42007262D01*
X237986269Y-42435596D01*
X237943747Y-42538000D01*
X234000000Y-42538000D01*
X229500000Y-42538000D01*
X228915630Y-42538000D01*
X228088815Y-41711185D01*
X228049626Y-41685000D01*
X258932532Y-41685000D01*
X260646142Y-42025857D01*
X262041675Y-42958322D01*
X262974141Y-44353855D01*
X263315000Y-46067467D01*
X263315000Y-263932532D01*
X263315000Y-263932532D01*
G37*
X263315000Y-263932532D02*
X262974141Y-265646144D01*
X262885673Y-265778545D01*
X262885673Y-263230616D01*
X262885673Y-45230616D01*
X262295463Y-43802199D01*
X261203549Y-42708377D01*
X259776165Y-42115676D01*
X258230616Y-42114327D01*
X256802199Y-42704537D01*
X255708377Y-43796451D01*
X255115676Y-45223835D01*
X255114327Y-46769384D01*
X255704537Y-48197801D01*
X256796451Y-49291623D01*
X258223835Y-49884324D01*
X259769384Y-49885673D01*
X261197801Y-49295463D01*
X262291623Y-48203549D01*
X262884324Y-46776165D01*
X262885673Y-45230616D01*
X262885673Y-263230616D01*
X262295463Y-261802199D01*
X261203549Y-260708377D01*
X259776165Y-260115676D01*
X258230616Y-260114327D01*
X256802199Y-260704537D01*
X255708377Y-261796451D01*
X255115676Y-263223835D01*
X255114327Y-264769384D01*
X255704537Y-266197801D01*
X256796451Y-267291623D01*
X258223835Y-267884324D01*
X259769384Y-267885673D01*
X261197801Y-267295463D01*
X262291623Y-266203549D01*
X262884324Y-264776165D01*
X262885673Y-263230616D01*
X262885673Y-265778545D01*
X262041675Y-267041677D01*
X260646142Y-267974142D01*
X258932532Y-268315000D01*
X246643786Y-268315000D01*
X246643786Y-45513037D01*
X246392966Y-44906005D01*
X245928937Y-44441166D01*
X245322345Y-44189287D01*
X244805966Y-44188836D01*
X245050039Y-44107533D01*
X245258016Y-43538035D01*
X245232223Y-42932300D01*
X245050039Y-42492467D01*
X244794696Y-42407409D01*
X244615091Y-42587014D01*
X244615091Y-42227804D01*
X244530033Y-41972461D01*
X243960535Y-41764484D01*
X243354800Y-41790277D01*
X242914967Y-41972461D01*
X242829909Y-42227804D01*
X243722500Y-43120395D01*
X244615091Y-42227804D01*
X244615091Y-42587014D01*
X243902105Y-43300000D01*
X243916247Y-43314142D01*
X243736642Y-43493747D01*
X243722500Y-43479605D01*
X243542895Y-43659210D01*
X243542895Y-43300000D01*
X242650304Y-42407409D01*
X242394961Y-42492467D01*
X242186984Y-43061965D01*
X242212777Y-43667700D01*
X242394961Y-44107533D01*
X242650304Y-44192591D01*
X243542895Y-43300000D01*
X243542895Y-43659210D01*
X242829909Y-44372196D01*
X242914967Y-44627539D01*
X243484465Y-44835516D01*
X243669734Y-44827626D01*
X243593666Y-44903563D01*
X243341787Y-45510155D01*
X243341214Y-46166963D01*
X243482915Y-46509907D01*
X243008035Y-46336484D01*
X242402300Y-46362277D01*
X241962467Y-46544461D01*
X241877409Y-46799804D01*
X242770000Y-47692395D01*
X242784142Y-47678252D01*
X242963747Y-47857857D01*
X242949605Y-47872000D01*
X242963747Y-47886142D01*
X242784142Y-48065747D01*
X242770000Y-48051605D01*
X241877409Y-48944196D01*
X241962467Y-49199539D01*
X242269934Y-49311824D01*
X242186984Y-49538965D01*
X242212777Y-50144700D01*
X242394961Y-50584533D01*
X242650304Y-50669591D01*
X243542895Y-49777000D01*
X243528752Y-49762857D01*
X243708357Y-49583252D01*
X243722500Y-49597395D01*
X244615091Y-48704804D01*
X244530033Y-48449461D01*
X244222565Y-48337175D01*
X244305516Y-48110035D01*
X244279723Y-47504300D01*
X244193382Y-47295853D01*
X244662655Y-47490713D01*
X245319463Y-47491286D01*
X245926495Y-47240466D01*
X246391334Y-46776437D01*
X246643213Y-46169845D01*
X246643786Y-45513037D01*
X246643786Y-268315000D01*
X245258016Y-268315000D01*
X245258016Y-50015035D01*
X245232223Y-49409300D01*
X245050039Y-48969467D01*
X244794696Y-48884409D01*
X243902105Y-49777000D01*
X244794696Y-50669591D01*
X245050039Y-50584533D01*
X245258016Y-50015035D01*
X245258016Y-268315000D01*
X244615091Y-268315000D01*
X244615091Y-50849196D01*
X243722500Y-49956605D01*
X242829909Y-50849196D01*
X242914967Y-51104539D01*
X243484465Y-51312516D01*
X244090200Y-51286723D01*
X244530033Y-51104539D01*
X244615091Y-50849196D01*
X244615091Y-268315000D01*
X238567467Y-268315000D01*
X238193249Y-268240563D01*
X237933196Y-268066801D01*
X237759436Y-267806750D01*
X237685000Y-267432532D01*
X237685000Y-261200000D01*
X237671838Y-261133830D01*
X237671838Y-261066363D01*
X237557657Y-260492338D01*
X237455376Y-260245410D01*
X237455375Y-260245409D01*
X237130217Y-259758774D01*
X237035721Y-259664279D01*
X236941226Y-259569783D01*
X236454591Y-259244624D01*
X236331126Y-259193484D01*
X236207662Y-259142343D01*
X235633637Y-259028162D01*
X235566170Y-259028162D01*
X235500000Y-259015000D01*
X228500000Y-259015000D01*
X228433830Y-259028162D01*
X228366363Y-259028162D01*
X227792338Y-259142343D01*
X227545410Y-259244624D01*
X227058774Y-259569783D01*
X226964279Y-259664279D01*
X226869783Y-259758774D01*
X226544624Y-260245409D01*
X226493484Y-260368873D01*
X226442343Y-260492338D01*
X226328162Y-261066363D01*
X226328162Y-261133829D01*
X226315000Y-261200000D01*
X226315000Y-267432532D01*
X226240563Y-267806750D01*
X226066801Y-268066803D01*
X225806750Y-268240563D01*
X225432532Y-268315000D01*
X208268083Y-268315000D01*
X208427640Y-268155722D01*
X208684707Y-267536638D01*
X208685292Y-266866303D01*
X208685292Y-260866303D01*
X208429306Y-260246771D01*
X207955722Y-259772360D01*
X207336638Y-259515293D01*
X206666303Y-259514708D01*
X206046771Y-259770694D01*
X205572360Y-260244278D01*
X205315293Y-260863362D01*
X205314708Y-261533697D01*
X205570694Y-262153229D01*
X206044278Y-262627640D01*
X206663362Y-262884707D01*
X207333697Y-262885292D01*
X207953229Y-262629306D01*
X208427640Y-262155722D01*
X208684707Y-261536638D01*
X208685292Y-260866303D01*
X208685292Y-266866303D01*
X208429306Y-266246771D01*
X207955722Y-265772360D01*
X207336638Y-265515293D01*
X206666303Y-265514708D01*
X206046771Y-265770694D01*
X205572360Y-266244278D01*
X205315293Y-266863362D01*
X205314708Y-267533697D01*
X205570694Y-268153229D01*
X205732182Y-268315000D01*
X188368083Y-268315000D01*
X188527640Y-268155722D01*
X188784707Y-267536638D01*
X188785292Y-266866303D01*
X188685292Y-266624285D01*
X188685292Y-260866303D01*
X188429306Y-260246771D01*
X187955722Y-259772360D01*
X187336638Y-259515293D01*
X186666303Y-259514708D01*
X186046771Y-259770694D01*
X185572360Y-260244278D01*
X185315293Y-260863362D01*
X185314708Y-261533697D01*
X185570694Y-262153229D01*
X186044278Y-262627640D01*
X186663362Y-262884707D01*
X187333697Y-262885292D01*
X187953229Y-262629306D01*
X188427640Y-262155722D01*
X188684707Y-261536638D01*
X188685292Y-260866303D01*
X188685292Y-266624285D01*
X188529306Y-266246771D01*
X188055722Y-265772360D01*
X187436638Y-265515293D01*
X186766303Y-265514708D01*
X186146771Y-265770694D01*
X185672360Y-266244278D01*
X185415293Y-266863362D01*
X185414708Y-267533697D01*
X185670694Y-268153229D01*
X185832182Y-268315000D01*
X163480773Y-268315000D01*
X163607268Y-268125687D01*
X163731725Y-267500000D01*
X163640124Y-267039491D01*
X163640124Y-261280434D01*
X163640124Y-260519566D01*
X163609144Y-260391645D01*
X163295922Y-259833683D01*
X162793020Y-259438058D01*
X162177000Y-259265000D01*
X161427000Y-259265000D01*
X161427000Y-260773000D01*
X163520777Y-260773000D01*
X163640124Y-260519566D01*
X163640124Y-261280434D01*
X163520777Y-261027000D01*
X161427000Y-261027000D01*
X161427000Y-262535000D01*
X162177000Y-262535000D01*
X162793020Y-262361942D01*
X163295922Y-261966317D01*
X163609144Y-261408355D01*
X163640124Y-261280434D01*
X163640124Y-267039491D01*
X163607268Y-266874313D01*
X163252845Y-266343880D01*
X162722412Y-265989457D01*
X162096725Y-265865000D01*
X161173000Y-265865000D01*
X161173000Y-262535000D01*
X161173000Y-261027000D01*
X161173000Y-260773000D01*
X161173000Y-259265000D01*
X160423000Y-259265000D01*
X159806980Y-259438058D01*
X159304078Y-259833683D01*
X158990856Y-260391645D01*
X158959876Y-260519566D01*
X159079223Y-260773000D01*
X161173000Y-260773000D01*
X161173000Y-261027000D01*
X159079223Y-261027000D01*
X158959876Y-261280434D01*
X158990856Y-261408355D01*
X159293692Y-261947816D01*
X159227000Y-261979223D01*
X159227000Y-264073000D01*
X160735000Y-264073000D01*
X160735000Y-263323000D01*
X160561942Y-262706980D01*
X160426648Y-262535000D01*
X161173000Y-262535000D01*
X161173000Y-265865000D01*
X160503275Y-265865000D01*
X160412432Y-265883069D01*
X160561942Y-265693020D01*
X160735000Y-265077000D01*
X160735000Y-264327000D01*
X159227000Y-264327000D01*
X159227000Y-266420777D01*
X159279313Y-266445412D01*
X158992732Y-266874313D01*
X158973000Y-266973512D01*
X158973000Y-266420777D01*
X158973000Y-264327000D01*
X158973000Y-264073000D01*
X158973000Y-261979223D01*
X158719566Y-261859876D01*
X158591645Y-261890856D01*
X158033683Y-262204078D01*
X157638058Y-262706980D01*
X157465000Y-263323000D01*
X157465000Y-264073000D01*
X158973000Y-264073000D01*
X158973000Y-264327000D01*
X157465000Y-264327000D01*
X157465000Y-265077000D01*
X157638058Y-265693020D01*
X158033683Y-266195922D01*
X158591645Y-266509144D01*
X158719566Y-266540124D01*
X158973000Y-266420777D01*
X158973000Y-266973512D01*
X158868275Y-267500000D01*
X158992732Y-268125687D01*
X159119226Y-268315000D01*
X156885326Y-268315000D01*
X156885326Y-263826695D01*
X156598957Y-263133628D01*
X156331725Y-262865929D01*
X156331725Y-260500000D01*
X156207268Y-259874313D01*
X155852845Y-259343880D01*
X155322412Y-258989457D01*
X154696725Y-258865000D01*
X153103275Y-258865000D01*
X152477588Y-258989457D01*
X151947155Y-259343880D01*
X151592732Y-259874313D01*
X151468275Y-260500000D01*
X151592732Y-261125687D01*
X151947155Y-261656120D01*
X152477588Y-262010543D01*
X153103275Y-262135000D01*
X154696725Y-262135000D01*
X155322412Y-262010543D01*
X155852845Y-261656120D01*
X156207268Y-261125687D01*
X156331725Y-260500000D01*
X156331725Y-262865929D01*
X156069161Y-262602907D01*
X155376595Y-262315328D01*
X154626695Y-262314674D01*
X153933628Y-262601043D01*
X153402907Y-263130839D01*
X153115328Y-263823405D01*
X153114674Y-264573305D01*
X153401043Y-265266372D01*
X153930839Y-265797093D01*
X154623405Y-266084672D01*
X155373305Y-266085326D01*
X156066372Y-265798957D01*
X156597093Y-265269161D01*
X156884672Y-264576595D01*
X156885326Y-263826695D01*
X156885326Y-268315000D01*
X156249176Y-268315000D01*
X156331725Y-267900000D01*
X156207268Y-267274313D01*
X155852845Y-266743880D01*
X155322412Y-266389457D01*
X154696725Y-266265000D01*
X153103275Y-266265000D01*
X152477588Y-266389457D01*
X151947155Y-266743880D01*
X151592732Y-267274313D01*
X151468275Y-267900000D01*
X151550823Y-268315000D01*
X62885673Y-268315000D01*
X62885673Y-263230616D01*
X62885673Y-45230616D01*
X62295463Y-43802199D01*
X61203549Y-42708377D01*
X59776165Y-42115676D01*
X58230616Y-42114327D01*
X56802199Y-42704537D01*
X55708377Y-43796451D01*
X55115676Y-45223835D01*
X55114327Y-46769384D01*
X55704537Y-48197801D01*
X56796451Y-49291623D01*
X58223835Y-49884324D01*
X59769384Y-49885673D01*
X61197801Y-49295463D01*
X62291623Y-48203549D01*
X62884324Y-46776165D01*
X62885673Y-45230616D01*
X62885673Y-263230616D01*
X62295463Y-261802199D01*
X61203549Y-260708377D01*
X59776165Y-260115676D01*
X58230616Y-260114327D01*
X56802199Y-260704537D01*
X55708377Y-261796451D01*
X55115676Y-263223835D01*
X55114327Y-264769384D01*
X55704537Y-266197801D01*
X56796451Y-267291623D01*
X58223835Y-267884324D01*
X59769384Y-267885673D01*
X61197801Y-267295463D01*
X62291623Y-266203549D01*
X62884324Y-264776165D01*
X62885673Y-263230616D01*
X62885673Y-268315000D01*
X59067467Y-268315000D01*
X57353855Y-267974141D01*
X55958322Y-267041675D01*
X55025857Y-265646142D01*
X54685000Y-263932532D01*
X54685000Y-46067467D01*
X55025857Y-44353857D01*
X55958322Y-42958324D01*
X57353855Y-42025858D01*
X59067467Y-41685000D01*
X74932532Y-41685000D01*
X75306750Y-41759436D01*
X75566801Y-41933196D01*
X75740563Y-42193249D01*
X75815000Y-42567467D01*
X75815000Y-42600000D01*
X75828162Y-42666170D01*
X75828162Y-42733637D01*
X75942343Y-43307662D01*
X75993484Y-43431126D01*
X76044624Y-43554591D01*
X76369783Y-44041226D01*
X76464279Y-44135721D01*
X76558774Y-44230217D01*
X77045409Y-44555375D01*
X77045410Y-44555376D01*
X77292338Y-44657657D01*
X77866363Y-44771838D01*
X77933830Y-44771838D01*
X78000000Y-44785000D01*
X79419609Y-44785000D01*
X79142857Y-45163252D01*
X84000000Y-50020395D01*
X88857143Y-45163252D01*
X88580390Y-44785000D01*
X90000000Y-44785000D01*
X90066170Y-44771837D01*
X90133637Y-44771838D01*
X90707662Y-44657657D01*
X90707662Y-44657656D01*
X90831126Y-44606516D01*
X90954591Y-44555376D01*
X90954591Y-44555375D01*
X91441226Y-44230217D01*
X91535721Y-44135721D01*
X91630217Y-44041226D01*
X91955375Y-43554591D01*
X91955376Y-43554590D01*
X92057657Y-43307662D01*
X92171838Y-42733637D01*
X92171838Y-42666169D01*
X92185000Y-42600000D01*
X92185000Y-42567467D01*
X92259436Y-42193249D01*
X92433196Y-41933198D01*
X92693249Y-41759436D01*
X93067467Y-41685000D01*
X116850373Y-41685000D01*
X116811185Y-41711185D01*
X115711185Y-42811185D01*
X115546004Y-43058395D01*
X115488000Y-43350000D01*
X115488000Y-47270000D01*
X115488000Y-59684369D01*
X113034369Y-62138000D01*
X93000000Y-62138000D01*
X92708395Y-62196004D01*
X92609376Y-62262165D01*
X92461185Y-62361184D01*
X88283750Y-66538618D01*
X88283750Y-66209250D01*
X88283750Y-66068971D01*
X88197191Y-65860000D01*
X88283750Y-65651029D01*
X88283750Y-65510750D01*
X88283750Y-64939250D01*
X88283750Y-64798971D01*
X88197191Y-64590000D01*
X88283750Y-64381029D01*
X88283750Y-64240750D01*
X88283750Y-63669250D01*
X88283750Y-63528971D01*
X88187077Y-63295582D01*
X88008449Y-63116953D01*
X87775060Y-63020280D01*
X87522441Y-63020280D01*
X86935010Y-63020280D01*
X86776260Y-63179030D01*
X86776260Y-63828000D01*
X88125000Y-63828000D01*
X88283750Y-63669250D01*
X88283750Y-64240750D01*
X88125000Y-64082000D01*
X86776260Y-64082000D01*
X86776260Y-64449030D01*
X86776260Y-64730970D01*
X86776260Y-65098000D01*
X88125000Y-65098000D01*
X88283750Y-64939250D01*
X88283750Y-65510750D01*
X88125000Y-65352000D01*
X86776260Y-65352000D01*
X86776260Y-65719030D01*
X86776260Y-66000970D01*
X86776260Y-66368000D01*
X88125000Y-66368000D01*
X88283750Y-66209250D01*
X88283750Y-66538618D01*
X88162684Y-66659684D01*
X88125000Y-66622000D01*
X86776260Y-66622000D01*
X86776260Y-66989030D01*
X86776260Y-67270970D01*
X86776260Y-67638000D01*
X86796260Y-67638000D01*
X86796260Y-67892000D01*
X86776260Y-67892000D01*
X86776260Y-67912000D01*
X86522260Y-67912000D01*
X86522260Y-67892000D01*
X86522260Y-67638000D01*
X86522260Y-67270970D01*
X86522260Y-66989030D01*
X86522260Y-66622000D01*
X86522260Y-66368000D01*
X86522260Y-66000970D01*
X86522260Y-65719030D01*
X86522260Y-65352000D01*
X86522260Y-65098000D01*
X86522260Y-64730970D01*
X86522260Y-64449030D01*
X86522260Y-64082000D01*
X86522260Y-63828000D01*
X86522260Y-63179030D01*
X86363510Y-63020280D01*
X85776079Y-63020280D01*
X85523460Y-63020280D01*
X85290071Y-63116953D01*
X85111443Y-63295582D01*
X85014770Y-63528971D01*
X85014770Y-63669250D01*
X85173520Y-63828000D01*
X86522260Y-63828000D01*
X86522260Y-64082000D01*
X85173520Y-64082000D01*
X85014770Y-64240750D01*
X85014770Y-64381029D01*
X85101328Y-64590000D01*
X85014770Y-64798971D01*
X85014770Y-64939250D01*
X85173520Y-65098000D01*
X86522260Y-65098000D01*
X86522260Y-65352000D01*
X85173520Y-65352000D01*
X85014770Y-65510750D01*
X85014770Y-65651029D01*
X85101328Y-65860000D01*
X85014770Y-66068971D01*
X85014770Y-66209250D01*
X85173520Y-66368000D01*
X86522260Y-66368000D01*
X86522260Y-66622000D01*
X85173520Y-66622000D01*
X85014770Y-66780750D01*
X85014770Y-66921029D01*
X85101328Y-67130000D01*
X85014770Y-67338971D01*
X85014770Y-67479250D01*
X85173520Y-67638000D01*
X86522260Y-67638000D01*
X86522260Y-67892000D01*
X85173520Y-67892000D01*
X85014770Y-68050750D01*
X85014770Y-68191029D01*
X85101328Y-68399999D01*
X85014770Y-68608970D01*
X85014770Y-68861589D01*
X85014770Y-69461029D01*
X85101328Y-69669999D01*
X85014770Y-69878970D01*
X85014770Y-70131589D01*
X85014770Y-70686000D01*
X84925000Y-70686000D01*
X84584794Y-70753671D01*
X84296382Y-70946382D01*
X83471382Y-71771382D01*
X83278671Y-72059794D01*
X83211000Y-72400000D01*
X83211000Y-78252500D01*
X83211000Y-78862136D01*
X83185378Y-78887714D01*
X83020687Y-79284332D01*
X83020313Y-79713784D01*
X83184311Y-80110689D01*
X83487714Y-80414622D01*
X83884332Y-80579313D01*
X84313784Y-80579687D01*
X84710689Y-80415689D01*
X85014622Y-80112286D01*
X85179313Y-79715668D01*
X85179562Y-79429628D01*
X85191001Y-79441067D01*
X85424390Y-79537740D01*
X85677009Y-79537740D01*
X87175609Y-79537740D01*
X87408998Y-79441067D01*
X87587627Y-79262439D01*
X87600000Y-79232567D01*
X87612373Y-79262438D01*
X87791001Y-79441067D01*
X88024390Y-79537740D01*
X88277009Y-79537740D01*
X89775609Y-79537740D01*
X90008998Y-79441067D01*
X90187627Y-79262439D01*
X90284300Y-79029050D01*
X90284300Y-78776431D01*
X90284300Y-77475951D01*
X90211418Y-77300000D01*
X90284300Y-77124050D01*
X90284300Y-76871431D01*
X90284300Y-75570951D01*
X90187627Y-75337562D01*
X90008999Y-75158933D01*
X89775610Y-75062260D01*
X89662000Y-75062260D01*
X89662000Y-70700000D01*
X89603996Y-70408395D01*
X89438815Y-70161185D01*
X89438815Y-70161184D01*
X89043815Y-69766185D01*
X88796605Y-69601004D01*
X88529714Y-69547915D01*
X89138815Y-68938815D01*
X89138816Y-68938815D01*
X89237834Y-68790623D01*
X89303996Y-68691605D01*
X89303996Y-68691604D01*
X89362000Y-68400000D01*
X89362000Y-67615630D01*
X93315630Y-63662000D01*
X94316250Y-63662000D01*
X94316250Y-63669250D01*
X94475000Y-63828000D01*
X95823740Y-63828000D01*
X95823740Y-63808000D01*
X96077740Y-63808000D01*
X96077740Y-63828000D01*
X97426480Y-63828000D01*
X97585230Y-63669250D01*
X97585230Y-63662000D01*
X113350000Y-63662000D01*
X113350000Y-63661999D01*
X113641604Y-63603996D01*
X113641605Y-63603996D01*
X113888815Y-63438815D01*
X116788815Y-60538816D01*
X116788815Y-60538815D01*
X116953996Y-60291605D01*
X117011999Y-60000000D01*
X117012000Y-60000000D01*
X117012000Y-48032000D01*
X117622180Y-48032000D01*
X117642757Y-48081800D01*
X118046077Y-48485824D01*
X118573309Y-48704750D01*
X119144187Y-48705248D01*
X119338000Y-48625166D01*
X119338000Y-49050000D01*
X119396004Y-49341605D01*
X119561185Y-49588815D01*
X121338000Y-51365630D01*
X121338000Y-68400000D01*
X121396004Y-68691605D01*
X121561185Y-68938815D01*
X126162205Y-73539835D01*
X126409415Y-73705016D01*
X126409416Y-73705016D01*
X126701020Y-73763020D01*
X130715150Y-73763020D01*
X130715150Y-74152219D01*
X130735425Y-74201169D01*
X130715150Y-74250120D01*
X130715150Y-74502739D01*
X130715150Y-74952319D01*
X130734899Y-74999999D01*
X130715150Y-75047680D01*
X130715150Y-75300299D01*
X130715150Y-75457200D01*
X119980800Y-75457200D01*
X119689195Y-75515204D01*
X119441985Y-75680385D01*
X118661185Y-76461185D01*
X118496004Y-76708395D01*
X118438000Y-77000000D01*
X118438000Y-79803000D01*
X118311691Y-79803000D01*
X118078302Y-79899673D01*
X117899673Y-80078301D01*
X117803000Y-80311690D01*
X117803000Y-80564309D01*
X117803000Y-82088309D01*
X117899673Y-82321698D01*
X118078301Y-82500327D01*
X118311690Y-82597000D01*
X118564309Y-82597000D01*
X120088309Y-82597000D01*
X120321698Y-82500327D01*
X120500327Y-82321699D01*
X120597000Y-82088310D01*
X120597000Y-81835691D01*
X120597000Y-80311691D01*
X120500327Y-80078302D01*
X120321699Y-79899673D01*
X120088310Y-79803000D01*
X119962000Y-79803000D01*
X119962000Y-77315630D01*
X120296430Y-76981200D01*
X123741169Y-76981200D01*
X123261185Y-77461185D01*
X123096004Y-77708395D01*
X123038000Y-78000000D01*
X123038000Y-79803000D01*
X122911691Y-79803000D01*
X122678302Y-79899673D01*
X122499673Y-80078301D01*
X122403000Y-80311690D01*
X122403000Y-80564309D01*
X122403000Y-82088309D01*
X122499673Y-82321698D01*
X122678301Y-82500327D01*
X122911690Y-82597000D01*
X123164309Y-82597000D01*
X124688309Y-82597000D01*
X124921698Y-82500327D01*
X125100327Y-82321699D01*
X125197000Y-82088310D01*
X125197000Y-81835691D01*
X125197000Y-80311691D01*
X125100327Y-80078302D01*
X124921699Y-79899673D01*
X124688310Y-79803000D01*
X124562000Y-79803000D01*
X124562000Y-78315630D01*
X125083630Y-77794000D01*
X126528370Y-77794000D01*
X126261185Y-78061185D01*
X126096004Y-78308395D01*
X126038000Y-78600000D01*
X126038000Y-79803000D01*
X125911691Y-79803000D01*
X125678302Y-79899673D01*
X125499673Y-80078301D01*
X125403000Y-80311690D01*
X125403000Y-80564309D01*
X125403000Y-82088309D01*
X125499673Y-82321698D01*
X125678301Y-82500327D01*
X125911690Y-82597000D01*
X126164309Y-82597000D01*
X127688309Y-82597000D01*
X127921698Y-82500327D01*
X128100327Y-82321699D01*
X128197000Y-82088310D01*
X128197000Y-81835691D01*
X128197000Y-80311691D01*
X128100327Y-80078302D01*
X127921699Y-79899673D01*
X127688310Y-79803000D01*
X127562000Y-79803000D01*
X127562000Y-78915630D01*
X127896230Y-78581400D01*
X131036811Y-78581400D01*
X131223840Y-78658870D01*
X131476459Y-78658870D01*
X132841130Y-78658870D01*
X132841130Y-80276159D01*
X132937803Y-80509548D01*
X132938920Y-80510665D01*
X132938920Y-81383450D01*
X132884370Y-81438000D01*
X130800000Y-81438000D01*
X130508395Y-81496004D01*
X130261184Y-81661185D01*
X129861185Y-82061185D01*
X129696004Y-82308395D01*
X129679771Y-82390000D01*
X129598691Y-82390000D01*
X129365302Y-82486673D01*
X129186673Y-82665301D01*
X129090000Y-82898690D01*
X129090000Y-83151309D01*
X129090000Y-84701309D01*
X129186673Y-84934698D01*
X129365301Y-85113327D01*
X129495000Y-85167050D01*
X129495000Y-85437990D01*
X129480451Y-85437990D01*
X129247062Y-85534663D01*
X129068433Y-85713291D01*
X128971760Y-85946680D01*
X128971760Y-86199299D01*
X128971760Y-87248319D01*
X129068433Y-87481708D01*
X129136724Y-87549999D01*
X129068433Y-87618291D01*
X128971760Y-87851680D01*
X128971760Y-88104299D01*
X128971760Y-88216750D01*
X129130510Y-88375500D01*
X130130000Y-88375500D01*
X130130000Y-88355500D01*
X130384000Y-88355500D01*
X130384000Y-88375500D01*
X130404000Y-88375500D01*
X130404000Y-88629500D01*
X130384000Y-88629500D01*
X130384000Y-89503260D01*
X130542750Y-89662010D01*
X131033549Y-89662010D01*
X131266938Y-89565337D01*
X131400000Y-89432275D01*
X131533061Y-89565337D01*
X131766450Y-89662010D01*
X131781000Y-89662010D01*
X131781000Y-89840000D01*
X131598691Y-89840000D01*
X131400000Y-89922300D01*
X131201309Y-89840000D01*
X130685750Y-89840000D01*
X130527000Y-89998750D01*
X130527000Y-91123000D01*
X130547000Y-91123000D01*
X130547000Y-91377000D01*
X130527000Y-91377000D01*
X130527000Y-92501250D01*
X130685750Y-92660000D01*
X131201309Y-92660000D01*
X131399999Y-92577699D01*
X131598690Y-92660000D01*
X131851309Y-92660000D01*
X133201309Y-92660000D01*
X133434698Y-92563327D01*
X133613327Y-92384699D01*
X133710000Y-92151310D01*
X133710000Y-91898691D01*
X133710000Y-90348691D01*
X133613327Y-90115302D01*
X133434699Y-89936673D01*
X133305000Y-89882949D01*
X133305000Y-89662010D01*
X133319549Y-89662010D01*
X133552938Y-89565337D01*
X133731567Y-89386709D01*
X133782187Y-89264500D01*
X134197500Y-89264500D01*
X134197500Y-89264499D01*
X134489104Y-89206496D01*
X134489105Y-89206496D01*
X134736315Y-89041315D01*
X135039835Y-88737795D01*
X135205016Y-88490585D01*
X135263019Y-88198980D01*
X135263020Y-88198980D01*
X135263020Y-85083092D01*
X135448690Y-85160000D01*
X135701309Y-85160000D01*
X137051309Y-85160000D01*
X137250000Y-85077699D01*
X137448691Y-85160000D01*
X137964250Y-85160000D01*
X138123000Y-85001250D01*
X138123000Y-83877000D01*
X138103000Y-83877000D01*
X138103000Y-83623000D01*
X138123000Y-83623000D01*
X138123000Y-82498750D01*
X137964250Y-82340000D01*
X137448691Y-82340000D01*
X137250000Y-82422300D01*
X137051310Y-82340000D01*
X136798691Y-82340000D01*
X136212980Y-82340000D01*
X136212980Y-80784850D01*
X136228222Y-80784850D01*
X136228222Y-80640707D01*
X136372365Y-80784850D01*
X136452320Y-80784850D01*
X136500000Y-80765100D01*
X136547680Y-80784850D01*
X136800299Y-80784850D01*
X137249879Y-80784850D01*
X137298829Y-80764574D01*
X137347780Y-80784850D01*
X137427735Y-80784850D01*
X137586485Y-80626100D01*
X137586485Y-80584960D01*
X137661897Y-80509549D01*
X137698880Y-80420263D01*
X137735863Y-80509548D01*
X137765281Y-80538966D01*
X137814190Y-80784850D01*
X137814191Y-80784850D01*
X137820384Y-80815985D01*
X137985565Y-81063195D01*
X138661185Y-81738815D01*
X138908395Y-81903996D01*
X138908396Y-81903996D01*
X139200000Y-81962000D01*
X144803000Y-81962000D01*
X144803000Y-82088309D01*
X144899673Y-82321698D01*
X145078301Y-82500327D01*
X145311690Y-82597000D01*
X145564309Y-82597000D01*
X147088309Y-82597000D01*
X147321698Y-82500327D01*
X147500327Y-82321699D01*
X147597000Y-82088310D01*
X147597000Y-81835691D01*
X147597000Y-80577840D01*
X147803000Y-80577840D01*
X147803000Y-82088309D01*
X147899673Y-82321698D01*
X148078301Y-82500327D01*
X148311690Y-82597000D01*
X148564309Y-82597000D01*
X150088309Y-82597000D01*
X150321698Y-82500327D01*
X150500327Y-82321699D01*
X150597000Y-82088310D01*
X150597000Y-81835691D01*
X150597000Y-80311691D01*
X150500327Y-80078302D01*
X150321699Y-79899673D01*
X150088310Y-79803000D01*
X149835691Y-79803000D01*
X149680630Y-79803000D01*
X149154655Y-79277025D01*
X148907445Y-79111844D01*
X148615840Y-79053840D01*
X140158870Y-79053840D01*
X140158870Y-78658870D01*
X141776159Y-78658870D01*
X141950923Y-78586480D01*
X150258849Y-78586480D01*
X150988000Y-79315630D01*
X150988000Y-92934370D01*
X150184370Y-93738000D01*
X139560000Y-93738000D01*
X139560000Y-84651310D01*
X139560000Y-84398691D01*
X139560000Y-84035750D01*
X139560000Y-83464250D01*
X139560000Y-83101309D01*
X139560000Y-82848690D01*
X139463327Y-82615301D01*
X139284698Y-82436673D01*
X139051309Y-82340000D01*
X138535750Y-82340000D01*
X138377000Y-82498750D01*
X138377000Y-83623000D01*
X139401250Y-83623000D01*
X139560000Y-83464250D01*
X139560000Y-84035750D01*
X139401250Y-83877000D01*
X138377000Y-83877000D01*
X138377000Y-85001250D01*
X138535750Y-85160000D01*
X139051309Y-85160000D01*
X139284698Y-85063327D01*
X139463327Y-84884699D01*
X139560000Y-84651310D01*
X139560000Y-93738000D01*
X130273000Y-93738000D01*
X130273000Y-92501250D01*
X130273000Y-91377000D01*
X130273000Y-91123000D01*
X130273000Y-89998750D01*
X130130000Y-89855750D01*
X130130000Y-89503260D01*
X130130000Y-88629500D01*
X129130510Y-88629500D01*
X128971760Y-88788250D01*
X128971760Y-88900701D01*
X128971760Y-89153320D01*
X129068433Y-89386709D01*
X129247062Y-89565337D01*
X129480451Y-89662010D01*
X129971250Y-89662010D01*
X130130000Y-89503260D01*
X130130000Y-89855750D01*
X130114250Y-89840000D01*
X129598691Y-89840000D01*
X129365302Y-89936673D01*
X129186673Y-90115301D01*
X129090000Y-90348690D01*
X129090000Y-90601309D01*
X129090000Y-90964250D01*
X129248750Y-91123000D01*
X130273000Y-91123000D01*
X130273000Y-91377000D01*
X129248750Y-91377000D01*
X129090000Y-91535750D01*
X129090000Y-91898691D01*
X129090000Y-92151310D01*
X129186673Y-92384699D01*
X129365302Y-92563327D01*
X129598691Y-92660000D01*
X130114250Y-92660000D01*
X130273000Y-92501250D01*
X130273000Y-93738000D01*
X107679687Y-93738000D01*
X107679687Y-67786216D01*
X107515689Y-67389311D01*
X107212286Y-67085378D01*
X106815668Y-66920687D01*
X106386216Y-66920313D01*
X105989311Y-67084311D01*
X105685378Y-67387714D01*
X105520687Y-67784332D01*
X105520313Y-68213784D01*
X105684311Y-68610689D01*
X105838000Y-68764646D01*
X105838000Y-71584370D01*
X105339369Y-72083000D01*
X103094630Y-72083000D01*
X104338815Y-70838816D01*
X104338815Y-70838815D01*
X104503996Y-70591605D01*
X104561999Y-70300000D01*
X104562000Y-70300000D01*
X104562000Y-67564641D01*
X104714622Y-67412286D01*
X104879313Y-67015668D01*
X104879687Y-66586216D01*
X104715689Y-66189311D01*
X104412286Y-65885378D01*
X104015668Y-65720687D01*
X103586216Y-65720313D01*
X103189311Y-65884311D01*
X102885378Y-66187714D01*
X102720687Y-66584332D01*
X102720313Y-67013784D01*
X102884311Y-67410689D01*
X103038000Y-67564646D01*
X103038000Y-69984369D01*
X102209369Y-70813000D01*
X97551276Y-70813000D01*
X97585230Y-70731030D01*
X97585230Y-70478411D01*
X97585230Y-69878971D01*
X97498671Y-69670000D01*
X97585230Y-69461029D01*
X97585230Y-69320750D01*
X97585230Y-68749250D01*
X97585230Y-68608971D01*
X97498671Y-68400000D01*
X97585230Y-68191029D01*
X97585230Y-68050750D01*
X97585230Y-67479250D01*
X97585230Y-67338971D01*
X97498671Y-67130000D01*
X97585230Y-66921029D01*
X97585230Y-66780750D01*
X97585230Y-66209250D01*
X97585230Y-66068971D01*
X97498671Y-65860000D01*
X97585230Y-65651029D01*
X97585230Y-65510750D01*
X97585230Y-64939250D01*
X97585230Y-64798971D01*
X97498671Y-64590000D01*
X97585230Y-64381029D01*
X97585230Y-64240750D01*
X97426480Y-64082000D01*
X96077740Y-64082000D01*
X96077740Y-64449030D01*
X96077740Y-64730970D01*
X96077740Y-65098000D01*
X97426480Y-65098000D01*
X97585230Y-64939250D01*
X97585230Y-65510750D01*
X97426480Y-65352000D01*
X96077740Y-65352000D01*
X96077740Y-65719030D01*
X96077740Y-66000970D01*
X96077740Y-66368000D01*
X97426480Y-66368000D01*
X97585230Y-66209250D01*
X97585230Y-66780750D01*
X97426480Y-66622000D01*
X96077740Y-66622000D01*
X96077740Y-66989030D01*
X96077740Y-67270970D01*
X96077740Y-67638000D01*
X97426480Y-67638000D01*
X97585230Y-67479250D01*
X97585230Y-68050750D01*
X97426480Y-67892000D01*
X96077740Y-67892000D01*
X96077740Y-68259030D01*
X96077740Y-68540970D01*
X96077740Y-68908000D01*
X97426480Y-68908000D01*
X97585230Y-68749250D01*
X97585230Y-69320750D01*
X97426480Y-69162000D01*
X96077740Y-69162000D01*
X96077740Y-69182000D01*
X95823740Y-69182000D01*
X95823740Y-69162000D01*
X95823740Y-68908000D01*
X95823740Y-68540970D01*
X95823740Y-68259030D01*
X95823740Y-67892000D01*
X95823740Y-67638000D01*
X95823740Y-67270970D01*
X95823740Y-66989030D01*
X95823740Y-66622000D01*
X95823740Y-66368000D01*
X95823740Y-66000970D01*
X95823740Y-65719030D01*
X95823740Y-65352000D01*
X95823740Y-65098000D01*
X95823740Y-64730970D01*
X95823740Y-64449030D01*
X95823740Y-64082000D01*
X94475000Y-64082000D01*
X94316250Y-64240750D01*
X94316250Y-64381029D01*
X94402808Y-64590000D01*
X94316250Y-64798971D01*
X94316250Y-64939250D01*
X94475000Y-65098000D01*
X95823740Y-65098000D01*
X95823740Y-65352000D01*
X94475000Y-65352000D01*
X94316250Y-65510750D01*
X94316250Y-65651029D01*
X94402808Y-65860000D01*
X94316250Y-66068971D01*
X94316250Y-66209250D01*
X94475000Y-66368000D01*
X95823740Y-66368000D01*
X95823740Y-66622000D01*
X94475000Y-66622000D01*
X94316250Y-66780750D01*
X94316250Y-66921029D01*
X94402808Y-67130000D01*
X94316250Y-67338971D01*
X94316250Y-67479250D01*
X94475000Y-67638000D01*
X95823740Y-67638000D01*
X95823740Y-67892000D01*
X94475000Y-67892000D01*
X94316250Y-68050750D01*
X94316250Y-68191029D01*
X94402808Y-68400000D01*
X94316250Y-68608971D01*
X94316250Y-68749250D01*
X94475000Y-68908000D01*
X95823740Y-68908000D01*
X95823740Y-69162000D01*
X94475000Y-69162000D01*
X94316250Y-69320750D01*
X94316250Y-69461029D01*
X94350203Y-69543000D01*
X91995000Y-69543000D01*
X91703395Y-69601004D01*
X91456184Y-69766185D01*
X90761185Y-70461185D01*
X90596004Y-70708395D01*
X90538000Y-71000000D01*
X90538000Y-80384369D01*
X90284369Y-80638000D01*
X72315630Y-80638000D01*
X71935000Y-80257369D01*
X71935000Y-62762000D01*
X91500000Y-62762000D01*
X91500000Y-62761999D01*
X91791604Y-62703996D01*
X91791605Y-62703996D01*
X92038815Y-62538815D01*
X97365815Y-57211815D01*
X97365816Y-57211815D01*
X97464834Y-57063623D01*
X97530996Y-56964605D01*
X97530996Y-56964604D01*
X97589000Y-56673000D01*
X97589000Y-54200500D01*
X99911857Y-54200500D01*
X100331958Y-54026489D01*
X100653489Y-53704957D01*
X100827500Y-53284857D01*
X100827500Y-52830143D01*
X100827500Y-50962000D01*
X103350000Y-50962000D01*
X103350000Y-50961999D01*
X103641604Y-50903996D01*
X103641605Y-50903996D01*
X103888815Y-50738815D01*
X104538815Y-50088815D01*
X104703996Y-49841605D01*
X104703996Y-49841604D01*
X104762000Y-49550000D01*
X104762000Y-48060000D01*
X104901309Y-48060000D01*
X105134698Y-47963327D01*
X105313327Y-47784699D01*
X105410000Y-47551310D01*
X105410000Y-47298691D01*
X105410000Y-45948691D01*
X105327699Y-45750000D01*
X105410000Y-45551309D01*
X105410000Y-45035750D01*
X105410000Y-44464250D01*
X105410000Y-43948691D01*
X105313327Y-43715302D01*
X105134699Y-43536673D01*
X104901310Y-43440000D01*
X104648691Y-43440000D01*
X104285750Y-43440000D01*
X104127000Y-43598750D01*
X104127000Y-44623000D01*
X105251250Y-44623000D01*
X105410000Y-44464250D01*
X105410000Y-45035750D01*
X105251250Y-44877000D01*
X104127000Y-44877000D01*
X104127000Y-44897000D01*
X103873000Y-44897000D01*
X103873000Y-44877000D01*
X103873000Y-44623000D01*
X103873000Y-43598750D01*
X103714250Y-43440000D01*
X103351309Y-43440000D01*
X103098690Y-43440000D01*
X102865301Y-43536673D01*
X102686673Y-43715302D01*
X102590000Y-43948691D01*
X102590000Y-44464250D01*
X102748750Y-44623000D01*
X103873000Y-44623000D01*
X103873000Y-44877000D01*
X102748750Y-44877000D01*
X102590000Y-45035750D01*
X102590000Y-45551309D01*
X102672300Y-45749999D01*
X102590000Y-45948690D01*
X102590000Y-46201309D01*
X102590000Y-47551309D01*
X102686673Y-47784698D01*
X102865301Y-47963327D01*
X103098690Y-48060000D01*
X103238000Y-48060000D01*
X103238000Y-49234370D01*
X103034370Y-49438000D01*
X100827500Y-49438000D01*
X100827500Y-47115143D01*
X100653489Y-46695042D01*
X100331957Y-46373511D01*
X99911857Y-46199500D01*
X99457143Y-46199500D01*
X93742143Y-46199500D01*
X93322042Y-46373511D01*
X93000511Y-46695043D01*
X92826500Y-47115143D01*
X92826500Y-47569857D01*
X92826500Y-53284857D01*
X93000511Y-53704958D01*
X93322043Y-54026489D01*
X93742143Y-54200500D01*
X94196857Y-54200500D01*
X96065000Y-54200500D01*
X96065000Y-56357369D01*
X91184369Y-61238000D01*
X91172314Y-61238000D01*
X91172314Y-48935434D01*
X90142426Y-46286967D01*
X89965775Y-46022591D01*
X89036748Y-45342857D01*
X84179605Y-50200000D01*
X89036748Y-55057143D01*
X89965775Y-54377409D01*
X91110283Y-51776420D01*
X91172314Y-48935434D01*
X91172314Y-61238000D01*
X88857143Y-61238000D01*
X88857143Y-55236748D01*
X84000000Y-50379605D01*
X83820395Y-50559210D01*
X83820395Y-50200000D01*
X78963252Y-45342857D01*
X78034225Y-46022591D01*
X76889717Y-48623580D01*
X76827686Y-51464566D01*
X77857574Y-54113033D01*
X78034225Y-54377409D01*
X78963252Y-55057143D01*
X83820395Y-50200000D01*
X83820395Y-50559210D01*
X79142857Y-55236748D01*
X79822591Y-56165775D01*
X82423580Y-57310283D01*
X85264566Y-57372314D01*
X87913033Y-56342426D01*
X88177409Y-56165775D01*
X88857143Y-55236748D01*
X88857143Y-61238000D01*
X71935000Y-61238000D01*
X71935000Y-54200500D01*
X74257857Y-54200500D01*
X74677958Y-54026489D01*
X74999489Y-53704957D01*
X75173500Y-53284857D01*
X75173500Y-52830143D01*
X75173500Y-47115143D01*
X74999489Y-46695042D01*
X74677957Y-46373511D01*
X74257857Y-46199500D01*
X73803143Y-46199500D01*
X68088143Y-46199500D01*
X67668042Y-46373511D01*
X67346511Y-46695043D01*
X67172500Y-47115143D01*
X67172500Y-47569857D01*
X67172500Y-53284857D01*
X67346511Y-53704958D01*
X67668043Y-54026489D01*
X68088143Y-54200500D01*
X68542857Y-54200500D01*
X70411000Y-54200500D01*
X70411000Y-62000000D01*
X70411000Y-80573000D01*
X70469004Y-80864605D01*
X70634185Y-81111815D01*
X71461185Y-81938816D01*
X71609376Y-82037834D01*
X71708395Y-82103996D01*
X71708396Y-82103996D01*
X72000000Y-82162000D01*
X90600000Y-82162000D01*
X90600000Y-82161999D01*
X90891604Y-82103996D01*
X90891605Y-82103996D01*
X91138815Y-81938815D01*
X91838815Y-81238816D01*
X91838815Y-81238815D01*
X92003996Y-80991605D01*
X92061999Y-80700000D01*
X92062000Y-80700000D01*
X92062000Y-71315630D01*
X92310630Y-71067000D01*
X93555369Y-71067000D01*
X93161185Y-71461185D01*
X92996004Y-71708395D01*
X92938000Y-72000000D01*
X92938000Y-75062260D01*
X92824391Y-75062260D01*
X92591002Y-75158933D01*
X92412373Y-75337561D01*
X92315700Y-75570950D01*
X92315700Y-75823569D01*
X92315700Y-77124049D01*
X92388581Y-77299999D01*
X92315700Y-77475950D01*
X92315700Y-77728569D01*
X92315700Y-79029049D01*
X92412373Y-79262438D01*
X92591001Y-79441067D01*
X92824390Y-79537740D01*
X93077009Y-79537740D01*
X94575609Y-79537740D01*
X94808998Y-79441067D01*
X94987627Y-79262439D01*
X95000000Y-79232567D01*
X95012373Y-79262438D01*
X95191001Y-79441067D01*
X95424390Y-79537740D01*
X95677009Y-79537740D01*
X96920466Y-79537740D01*
X96920313Y-79713784D01*
X97084311Y-80110689D01*
X97387714Y-80414622D01*
X97784332Y-80579313D01*
X98213784Y-80579687D01*
X98610689Y-80415689D01*
X98914622Y-80112286D01*
X99079313Y-79715668D01*
X99079687Y-79286216D01*
X98915689Y-78889311D01*
X98889000Y-78862575D01*
X98889000Y-78500000D01*
X98821329Y-78159795D01*
X98821329Y-78159794D01*
X98628618Y-77871382D01*
X98381118Y-77623882D01*
X98092706Y-77431171D01*
X97752500Y-77363500D01*
X97637721Y-77363500D01*
X97611418Y-77300000D01*
X97684300Y-77124050D01*
X97684300Y-76871431D01*
X97684300Y-75570951D01*
X97587627Y-75337562D01*
X97408999Y-75158933D01*
X97175610Y-75062260D01*
X97062000Y-75062260D01*
X97062000Y-74600000D01*
X97003996Y-74308395D01*
X96838815Y-74061185D01*
X96838815Y-74061184D01*
X96712740Y-73935109D01*
X96712740Y-73779720D01*
X97076539Y-73779720D01*
X97309928Y-73683047D01*
X97385975Y-73607000D01*
X105655000Y-73607000D01*
X105655000Y-73606999D01*
X105946604Y-73548996D01*
X105946605Y-73548996D01*
X106193815Y-73383815D01*
X107138815Y-72438815D01*
X107303996Y-72191605D01*
X107303996Y-72191604D01*
X107362000Y-71900000D01*
X107362000Y-68764641D01*
X107514622Y-68612286D01*
X107679313Y-68215668D01*
X107679687Y-67786216D01*
X107679687Y-93738000D01*
X66565630Y-93738000D01*
X66012000Y-93184369D01*
X66012000Y-55014641D01*
X66164622Y-54862286D01*
X66329313Y-54465668D01*
X66329687Y-54036216D01*
X66165689Y-53639311D01*
X65862286Y-53335378D01*
X65465668Y-53170687D01*
X65036216Y-53170313D01*
X64639311Y-53334311D01*
X64335378Y-53637714D01*
X64170687Y-54034332D01*
X64170313Y-54463784D01*
X64334311Y-54860689D01*
X64488000Y-55014646D01*
X64488000Y-93500000D01*
X64546004Y-93791605D01*
X64711185Y-94038815D01*
X65711185Y-95038816D01*
X65958395Y-95203996D01*
X65958396Y-95203997D01*
X66250000Y-95262000D01*
X150500000Y-95262000D01*
X150500000Y-95261999D01*
X150791604Y-95203996D01*
X150791605Y-95203996D01*
X151038815Y-95038815D01*
X152288815Y-93788815D01*
X152453996Y-93541605D01*
X152453996Y-93541604D01*
X152512000Y-93250000D01*
X152512000Y-79000000D01*
X152453996Y-78708395D01*
X152288815Y-78461185D01*
X152288815Y-78461184D01*
X151616550Y-77788920D01*
X221723080Y-77788920D01*
X221723080Y-77788919D01*
X222014684Y-77730916D01*
X222014685Y-77730916D01*
X222261895Y-77565735D01*
X223348815Y-76478815D01*
X223513996Y-76231605D01*
X223513996Y-76231604D01*
X223571999Y-75940000D01*
X223572000Y-75940000D01*
X223572000Y-45946704D01*
X223600303Y-45935010D01*
X223993629Y-45542370D01*
X224079949Y-45334487D01*
X224164990Y-45540303D01*
X224557630Y-45933629D01*
X224608866Y-45954904D01*
X224646004Y-46141605D01*
X224811185Y-46388815D01*
X225711184Y-47288815D01*
X225711185Y-47288815D01*
X225958395Y-47453996D01*
X226250000Y-47512000D01*
X228090000Y-47512000D01*
X228090000Y-47551309D01*
X228186673Y-47784698D01*
X228365301Y-47963327D01*
X228598690Y-48060000D01*
X228851309Y-48060000D01*
X230401309Y-48060000D01*
X230634698Y-47963327D01*
X230813327Y-47784699D01*
X230910000Y-47551310D01*
X230910000Y-47298691D01*
X230910000Y-45948691D01*
X230827699Y-45750000D01*
X230910000Y-45551310D01*
X230910000Y-45298691D01*
X230910000Y-44062000D01*
X232615700Y-44062000D01*
X232615700Y-44273569D01*
X232615700Y-45574049D01*
X232688581Y-45749999D01*
X232615700Y-45925950D01*
X232615700Y-46178569D01*
X232615700Y-47479049D01*
X232712373Y-47712438D01*
X232891001Y-47891067D01*
X233111000Y-47982193D01*
X233111000Y-62862136D01*
X233085378Y-62887714D01*
X232920687Y-63284332D01*
X232920313Y-63713784D01*
X233084311Y-64110689D01*
X233387714Y-64414622D01*
X233784332Y-64579313D01*
X234213784Y-64579687D01*
X234610689Y-64415689D01*
X234914622Y-64112286D01*
X235079313Y-63715668D01*
X235079687Y-63286216D01*
X234915689Y-62889311D01*
X234889000Y-62862575D01*
X234889000Y-47982193D01*
X235108998Y-47891067D01*
X235287627Y-47712439D01*
X235384300Y-47479050D01*
X235384300Y-47226431D01*
X235384300Y-45925951D01*
X235311418Y-45750000D01*
X235384300Y-45574050D01*
X235384300Y-45321431D01*
X235384300Y-44062000D01*
X237943381Y-44062000D01*
X237984762Y-44162149D01*
X238011568Y-44189002D01*
X237680537Y-44188714D01*
X237073505Y-44439534D01*
X236608666Y-44903563D01*
X236356787Y-45510155D01*
X236356214Y-46166963D01*
X236607034Y-46773995D01*
X237071063Y-47238834D01*
X237677655Y-47490713D01*
X238334463Y-47491286D01*
X238821482Y-47290054D01*
X238706265Y-47567528D01*
X238705736Y-48173812D01*
X238748079Y-48276290D01*
X238738685Y-48285685D01*
X238678709Y-48375444D01*
X238415351Y-48484262D01*
X237986269Y-48912596D01*
X237753765Y-49472528D01*
X237753236Y-50078812D01*
X237984762Y-50639149D01*
X238413096Y-51068231D01*
X238973028Y-51300735D01*
X239579312Y-51301264D01*
X240139649Y-51069738D01*
X240568731Y-50641404D01*
X240801235Y-50081472D01*
X240801764Y-49475188D01*
X240734541Y-49312497D01*
X241092149Y-49164738D01*
X241521231Y-48736404D01*
X241532404Y-48709494D01*
X241697804Y-48764591D01*
X242590395Y-47872000D01*
X241697804Y-46979409D01*
X241532862Y-47034353D01*
X241522738Y-47009851D01*
X241094404Y-46580769D01*
X240992000Y-46538247D01*
X240992000Y-44252500D01*
X240933996Y-43960895D01*
X240768815Y-43713685D01*
X240768815Y-43713684D01*
X240759679Y-43704548D01*
X240801235Y-43604472D01*
X240801764Y-42998188D01*
X240570238Y-42437851D01*
X240141904Y-42008769D01*
X239581972Y-41776265D01*
X238975688Y-41775736D01*
X238415351Y-42007262D01*
X237986269Y-42435596D01*
X237943747Y-42538000D01*
X234000000Y-42538000D01*
X229500000Y-42538000D01*
X228915630Y-42538000D01*
X228088815Y-41711185D01*
X228049626Y-41685000D01*
X258932532Y-41685000D01*
X260646142Y-42025857D01*
X262041675Y-42958322D01*
X262974141Y-44353855D01*
X263315000Y-46067467D01*
X263315000Y-263932532D01*
M02*
