%FSLAX46Y46*%
G04 Gerber Fmt 4.6, Leading zero omitted, Abs format (unit mm)*
G04 Created by KiCad (PCBNEW (2014-jul-16 BZR unknown)-product) date Friday 10 October 2014 10:21:04 PM IST*
%MOMM*%
G01*
G04 APERTURE LIST*
%ADD10C,0.150000*%
%ADD11C,0.100000*%
%ADD12R,1.300480X1.498600*%
%ADD13R,3.048000X3.048000*%
%ADD14R,1.350000X1.550000*%
%ADD15R,1.550000X1.350000*%
%ADD16R,1.016000X1.524000*%
G04 APERTURE END LIST*
D10*
D11*
X264000000Y-46000000D02*
X264000000Y-264000000D01*
X93000000Y-41000000D02*
X259000000Y-41000000D01*
X75000000Y-41000000D02*
X59000000Y-41000000D01*
X76500000Y-42500000D02*
X76500000Y-42600000D01*
X76500000Y-42500000D02*
G75*
G03X75000000Y-41000000I-1500000J0D01*
G74*
G01*
X91500000Y-42500000D02*
X91500000Y-42600000D01*
X93000000Y-41000000D02*
G75*
G03X91500000Y-42500000I0J-1500000D01*
G74*
G01*
X90000000Y-44100000D02*
G75*
G03X91500000Y-42600000I0J1500000D01*
G74*
G01*
X76500000Y-42600000D02*
G75*
G03X78000000Y-44100000I1500000J0D01*
G74*
G01*
X84000000Y-44100000D02*
X90000000Y-44100000D01*
X84000000Y-44100000D02*
X78000000Y-44100000D01*
X54000000Y-264000000D02*
X54000000Y-46000000D01*
X225500000Y-269000000D02*
X59000000Y-269000000D01*
X259000000Y-269000000D02*
X238500000Y-269000000D01*
X259000000Y-269000000D02*
G75*
G03X264000000Y-264000000I0J5000000D01*
G74*
G01*
X264000000Y-46000000D02*
G75*
G03X259000000Y-41000000I-5000000J0D01*
G74*
G01*
X59000000Y-41000000D02*
G75*
G03X54000000Y-46000000I0J-5000000D01*
G74*
G01*
X54000000Y-264000000D02*
G75*
G03X59000000Y-269000000I5000000J0D01*
G74*
G01*
X237000000Y-267500000D02*
X237000000Y-261200000D01*
X227000000Y-261200000D02*
X227000000Y-267500000D01*
X225500000Y-269000000D02*
G75*
G03X227000000Y-267500000I0J1500000D01*
G74*
G01*
X237000000Y-267500000D02*
G75*
G03X238500000Y-269000000I1500000J0D01*
G74*
G01*
X237000000Y-261200000D02*
G75*
G03X235500000Y-259700000I-1500000J0D01*
G74*
G01*
X228500000Y-259700000D02*
G75*
G03X227000000Y-261200000I0J-1500000D01*
G74*
G01*
X235500000Y-259700000D02*
X228500000Y-259700000D01*
D12*
X62202500Y-54250000D03*
X60297500Y-54250000D03*
D13*
X72186000Y-263250000D03*
X80314000Y-263250000D03*
X117436000Y-263250000D03*
X125564000Y-263250000D03*
X102436000Y-263250000D03*
X110564000Y-263250000D03*
X87436000Y-263250000D03*
X95564000Y-263250000D03*
D14*
X135500000Y-263500000D03*
X137500000Y-263500000D03*
D15*
X252250000Y-250000000D03*
X252250000Y-252000000D03*
X237250000Y-250000000D03*
X237250000Y-252000000D03*
X222250000Y-250000000D03*
X222250000Y-252000000D03*
X207250000Y-250000000D03*
X207250000Y-252000000D03*
X192250000Y-250000000D03*
X192250000Y-252000000D03*
X177250000Y-250000000D03*
X177250000Y-252000000D03*
X162250000Y-250000000D03*
X162250000Y-252000000D03*
X147250000Y-250000000D03*
X147250000Y-252000000D03*
X132250000Y-250000000D03*
X132250000Y-252000000D03*
X117250000Y-250000000D03*
X117250000Y-252000000D03*
X102250000Y-250000000D03*
X102250000Y-252000000D03*
X87250000Y-250000000D03*
X87250000Y-252000000D03*
X72250000Y-250000000D03*
X72250000Y-252000000D03*
X57250000Y-250000000D03*
X57250000Y-252000000D03*
X252250000Y-234000000D03*
X252250000Y-236000000D03*
X237250000Y-234000000D03*
X237250000Y-236000000D03*
X222250000Y-234000000D03*
X222250000Y-236000000D03*
X207250000Y-234000000D03*
X207250000Y-236000000D03*
X192250000Y-234000000D03*
X192250000Y-236000000D03*
X177250000Y-234000000D03*
X177250000Y-236000000D03*
X162250000Y-234000000D03*
X162250000Y-236000000D03*
X147250000Y-234000000D03*
X147250000Y-236000000D03*
X132250000Y-234000000D03*
X132250000Y-236000000D03*
X117250000Y-234000000D03*
X117250000Y-236000000D03*
X102250000Y-234000000D03*
X102250000Y-236000000D03*
X87250000Y-234000000D03*
X87250000Y-236000000D03*
X72250000Y-234000000D03*
X72250000Y-236000000D03*
X57250000Y-234000000D03*
X57250000Y-236000000D03*
X252250000Y-218000000D03*
X252250000Y-220000000D03*
X237250000Y-218000000D03*
X237250000Y-220000000D03*
X222250000Y-218000000D03*
X222250000Y-220000000D03*
X207250000Y-218000000D03*
X207250000Y-220000000D03*
X192250000Y-218000000D03*
X192250000Y-220000000D03*
X177250000Y-218000000D03*
X177250000Y-220000000D03*
X162250000Y-218000000D03*
X162250000Y-220000000D03*
X147250000Y-218000000D03*
X147250000Y-220000000D03*
X132250000Y-218000000D03*
X132250000Y-220000000D03*
X117250000Y-218000000D03*
X117250000Y-220000000D03*
X102250000Y-218000000D03*
X102250000Y-220000000D03*
X87250000Y-218000000D03*
X87250000Y-220000000D03*
X72250000Y-218000000D03*
X72250000Y-220000000D03*
X57250000Y-218000000D03*
X57250000Y-220000000D03*
X252250000Y-202000000D03*
X252250000Y-204000000D03*
X237250000Y-202000000D03*
X237250000Y-204000000D03*
X222250000Y-202000000D03*
X222250000Y-204000000D03*
X207250000Y-202000000D03*
X207250000Y-204000000D03*
X192250000Y-202000000D03*
X192250000Y-204000000D03*
X177250000Y-202000000D03*
X177250000Y-204000000D03*
X162250000Y-202000000D03*
X162250000Y-204000000D03*
X147250000Y-202000000D03*
X147250000Y-204000000D03*
X132250000Y-202000000D03*
X132250000Y-204000000D03*
X117250000Y-202000000D03*
X117250000Y-204000000D03*
X102250000Y-202000000D03*
X102250000Y-204000000D03*
X87250000Y-202000000D03*
X87250000Y-204000000D03*
X72250000Y-202000000D03*
X72250000Y-204000000D03*
X57250000Y-202000000D03*
X57250000Y-204000000D03*
X252250000Y-186000000D03*
X252250000Y-188000000D03*
X237250000Y-186000000D03*
X237250000Y-188000000D03*
X222250000Y-186000000D03*
X222250000Y-188000000D03*
X207250000Y-186000000D03*
X207250000Y-188000000D03*
X192250000Y-186000000D03*
X192250000Y-188000000D03*
X177250000Y-186000000D03*
X177250000Y-188000000D03*
X162250000Y-186000000D03*
X162250000Y-188000000D03*
X147250000Y-186000000D03*
X147250000Y-188000000D03*
X132250000Y-186000000D03*
X132250000Y-188000000D03*
X117250000Y-186000000D03*
X117250000Y-188000000D03*
X102250000Y-186000000D03*
X102250000Y-188000000D03*
X87250000Y-186000000D03*
X87250000Y-188000000D03*
X72250000Y-186000000D03*
X72250000Y-188000000D03*
X57250000Y-186000000D03*
X57250000Y-188000000D03*
X252250000Y-170000000D03*
X252250000Y-172000000D03*
X237250000Y-170000000D03*
X237250000Y-172000000D03*
X222250000Y-170000000D03*
X222250000Y-172000000D03*
X207250000Y-170000000D03*
X207250000Y-172000000D03*
X192250000Y-170000000D03*
X192250000Y-172000000D03*
X177250000Y-170000000D03*
X177250000Y-172000000D03*
X162250000Y-170000000D03*
X162250000Y-172000000D03*
X147250000Y-170000000D03*
X147250000Y-172000000D03*
X132250000Y-170000000D03*
X132250000Y-172000000D03*
X117250000Y-170000000D03*
X117250000Y-172000000D03*
X102250000Y-170000000D03*
X102250000Y-172000000D03*
X87250000Y-170000000D03*
X87250000Y-172000000D03*
X72250000Y-170000000D03*
X72250000Y-172000000D03*
X57250000Y-170000000D03*
X57250000Y-172000000D03*
X252250000Y-154000000D03*
X252250000Y-156000000D03*
X237250000Y-154000000D03*
X237250000Y-156000000D03*
X222250000Y-154000000D03*
X222250000Y-156000000D03*
X207250000Y-154000000D03*
X207250000Y-156000000D03*
X192250000Y-154000000D03*
X192250000Y-156000000D03*
X177250000Y-154000000D03*
X177250000Y-156000000D03*
X162250000Y-154000000D03*
X162250000Y-156000000D03*
X147250000Y-154000000D03*
X147250000Y-156000000D03*
X132250000Y-154000000D03*
X132250000Y-156000000D03*
X117250000Y-154000000D03*
X117250000Y-156000000D03*
X102250000Y-154000000D03*
X102250000Y-156000000D03*
X87250000Y-154000000D03*
X87250000Y-156000000D03*
X72250000Y-154000000D03*
X72250000Y-156000000D03*
X57250000Y-154000000D03*
X57250000Y-156000000D03*
X252250000Y-138000000D03*
X252250000Y-140000000D03*
X237250000Y-138000000D03*
X237250000Y-140000000D03*
X222250000Y-138000000D03*
X222250000Y-140000000D03*
X207250000Y-138000000D03*
X207250000Y-140000000D03*
X192250000Y-138000000D03*
X192250000Y-140000000D03*
X177250000Y-138000000D03*
X177250000Y-140000000D03*
X162250000Y-138000000D03*
X162250000Y-140000000D03*
X147250000Y-138000000D03*
X147250000Y-140000000D03*
X132250000Y-138000000D03*
X132250000Y-140000000D03*
X117250000Y-138000000D03*
X117250000Y-140000000D03*
X102250000Y-138000000D03*
X102250000Y-140000000D03*
X87250000Y-138000000D03*
X87250000Y-140000000D03*
X72250000Y-138000000D03*
X72250000Y-140000000D03*
X57250000Y-138000000D03*
X57250000Y-140000000D03*
X252250000Y-122000000D03*
X252250000Y-124000000D03*
X237250000Y-122000000D03*
X237250000Y-124000000D03*
X222250000Y-122000000D03*
X222250000Y-124000000D03*
X207250000Y-122000000D03*
X207250000Y-124000000D03*
X192250000Y-122000000D03*
X192250000Y-124000000D03*
X177250000Y-122000000D03*
X177250000Y-124000000D03*
X162250000Y-122000000D03*
X162250000Y-124000000D03*
X147250000Y-122000000D03*
X147250000Y-124000000D03*
X132250000Y-122000000D03*
X132250000Y-124000000D03*
X117250000Y-122000000D03*
X117250000Y-124000000D03*
X102250000Y-122000000D03*
X102250000Y-124000000D03*
X87250000Y-122000000D03*
X87250000Y-124000000D03*
X72250000Y-122000000D03*
X72250000Y-124000000D03*
X57250000Y-122000000D03*
X57250000Y-124000000D03*
X252250000Y-106000000D03*
X252250000Y-108000000D03*
X237250000Y-106000000D03*
X237250000Y-108000000D03*
X222250000Y-106000000D03*
X222250000Y-108000000D03*
X207250000Y-106000000D03*
X207250000Y-108000000D03*
X192250000Y-106000000D03*
X192250000Y-108000000D03*
X177250000Y-106000000D03*
X177250000Y-108000000D03*
X162250000Y-106000000D03*
X162250000Y-108000000D03*
X147250000Y-106000000D03*
X147250000Y-108000000D03*
X132250000Y-106000000D03*
X132250000Y-108000000D03*
X117250000Y-106000000D03*
X117250000Y-108000000D03*
X102250000Y-106000000D03*
X102250000Y-108000000D03*
X87250000Y-106000000D03*
X87250000Y-108000000D03*
X72250000Y-106000000D03*
X72250000Y-108000000D03*
X57250000Y-106000000D03*
X57250000Y-108000000D03*
X252250000Y-90000000D03*
X252250000Y-92000000D03*
X237250000Y-90000000D03*
X237250000Y-92000000D03*
X222250000Y-90000000D03*
X222250000Y-92000000D03*
X207250000Y-90000000D03*
X207250000Y-92000000D03*
X192250000Y-90000000D03*
X192250000Y-92000000D03*
X177000000Y-90000000D03*
X177000000Y-92000000D03*
X162250000Y-90000000D03*
X162250000Y-92000000D03*
X147250000Y-90000000D03*
X147250000Y-92000000D03*
X132250000Y-90000000D03*
X132250000Y-92000000D03*
X117250000Y-90000000D03*
X117250000Y-92000000D03*
X102250000Y-90000000D03*
X102250000Y-92000000D03*
X87250000Y-90000000D03*
X87250000Y-92000000D03*
X72250000Y-90000000D03*
X72250000Y-92000000D03*
X57250000Y-90000000D03*
X57250000Y-92000000D03*
X252250000Y-74000000D03*
X252250000Y-76000000D03*
X237250000Y-74000000D03*
X237250000Y-76000000D03*
X222250000Y-74000000D03*
X222250000Y-76000000D03*
X207250000Y-74000000D03*
X207250000Y-76000000D03*
X192250000Y-74000000D03*
X192250000Y-76000000D03*
X177250000Y-74000000D03*
X177250000Y-76000000D03*
X162250000Y-74000000D03*
X162250000Y-76000000D03*
X147250000Y-74000000D03*
X147250000Y-76000000D03*
X132250000Y-74000000D03*
X132250000Y-76000000D03*
X117250000Y-74000000D03*
X117250000Y-76000000D03*
X102250000Y-74000000D03*
X102250000Y-76000000D03*
X87250000Y-74000000D03*
X87250000Y-76000000D03*
X72250000Y-74000000D03*
X72250000Y-76000000D03*
X57250000Y-74000000D03*
X57250000Y-76000000D03*
X252250000Y-58000000D03*
X252250000Y-60000000D03*
X237250000Y-58000000D03*
X237250000Y-60000000D03*
X222250000Y-58000000D03*
X222250000Y-60000000D03*
X207250000Y-58000000D03*
X207250000Y-60000000D03*
X192250000Y-58000000D03*
X192250000Y-60000000D03*
X177250000Y-58000000D03*
X177250000Y-60000000D03*
X162250000Y-58000000D03*
X162250000Y-60000000D03*
X147250000Y-58000000D03*
X147250000Y-60000000D03*
X132250000Y-58000000D03*
X132250000Y-60000000D03*
X117250000Y-58000000D03*
X117250000Y-60000000D03*
X102250000Y-58000000D03*
X102250000Y-60000000D03*
X87250000Y-58000000D03*
X87250000Y-60000000D03*
X72250000Y-58000000D03*
X72250000Y-60000000D03*
X57250000Y-58000000D03*
X57250000Y-60000000D03*
D16*
X138087500Y-72523500D03*
X134912500Y-72523500D03*
X134912500Y-77476500D03*
X138087500Y-77476500D03*
X258087500Y-248523500D03*
X254912500Y-248523500D03*
X254912500Y-253476500D03*
X258087500Y-253476500D03*
X243087500Y-248523500D03*
X239912500Y-248523500D03*
X239912500Y-253476500D03*
X243087500Y-253476500D03*
X228087500Y-248523500D03*
X224912500Y-248523500D03*
X224912500Y-253476500D03*
X228087500Y-253476500D03*
X213087500Y-248523500D03*
X209912500Y-248523500D03*
X209912500Y-253476500D03*
X213087500Y-253476500D03*
X198087500Y-248523500D03*
X194912500Y-248523500D03*
X194912500Y-253476500D03*
X198087500Y-253476500D03*
X183087500Y-248523500D03*
X179912500Y-248523500D03*
X179912500Y-253476500D03*
X183087500Y-253476500D03*
X168087500Y-248523500D03*
X164912500Y-248523500D03*
X164912500Y-253476500D03*
X168087500Y-253476500D03*
X153087500Y-248523500D03*
X149912500Y-248523500D03*
X149912500Y-253476500D03*
X153087500Y-253476500D03*
X138087500Y-248523500D03*
X134912500Y-248523500D03*
X134912500Y-253476500D03*
X138087500Y-253476500D03*
X123087500Y-248523500D03*
X119912500Y-248523500D03*
X119912500Y-253476500D03*
X123087500Y-253476500D03*
X108087500Y-248523500D03*
X104912500Y-248523500D03*
X104912500Y-253476500D03*
X108087500Y-253476500D03*
X93087500Y-248523500D03*
X89912500Y-248523500D03*
X89912500Y-253476500D03*
X93087500Y-253476500D03*
X78087500Y-248523500D03*
X74912500Y-248523500D03*
X74912500Y-253476500D03*
X78087500Y-253476500D03*
X63087500Y-248523500D03*
X59912500Y-248523500D03*
X59912500Y-253476500D03*
X63087500Y-253476500D03*
X258087500Y-232523500D03*
X254912500Y-232523500D03*
X254912500Y-237476500D03*
X258087500Y-237476500D03*
X243087500Y-232523500D03*
X239912500Y-232523500D03*
X239912500Y-237476500D03*
X243087500Y-237476500D03*
X228087500Y-232523500D03*
X224912500Y-232523500D03*
X224912500Y-237476500D03*
X228087500Y-237476500D03*
X213087500Y-232523500D03*
X209912500Y-232523500D03*
X209912500Y-237476500D03*
X213087500Y-237476500D03*
X198087500Y-232523500D03*
X194912500Y-232523500D03*
X194912500Y-237476500D03*
X198087500Y-237476500D03*
X183087500Y-232523500D03*
X179912500Y-232523500D03*
X179912500Y-237476500D03*
X183087500Y-237476500D03*
X168087500Y-232523500D03*
X164912500Y-232523500D03*
X164912500Y-237476500D03*
X168087500Y-237476500D03*
X153087500Y-232523500D03*
X149912500Y-232523500D03*
X149912500Y-237476500D03*
X153087500Y-237476500D03*
X138087500Y-232523500D03*
X134912500Y-232523500D03*
X134912500Y-237476500D03*
X138087500Y-237476500D03*
X123087500Y-232523500D03*
X119912500Y-232523500D03*
X119912500Y-237476500D03*
X123087500Y-237476500D03*
X108087500Y-232523500D03*
X104912500Y-232523500D03*
X104912500Y-237476500D03*
X108087500Y-237476500D03*
X93087500Y-232523500D03*
X89912500Y-232523500D03*
X89912500Y-237476500D03*
X93087500Y-237476500D03*
X78087500Y-232523500D03*
X74912500Y-232523500D03*
X74912500Y-237476500D03*
X78087500Y-237476500D03*
X63087500Y-232523500D03*
X59912500Y-232523500D03*
X59912500Y-237476500D03*
X63087500Y-237476500D03*
X258087500Y-216523500D03*
X254912500Y-216523500D03*
X254912500Y-221476500D03*
X258087500Y-221476500D03*
X243087500Y-216523500D03*
X239912500Y-216523500D03*
X239912500Y-221476500D03*
X243087500Y-221476500D03*
X228087500Y-216523500D03*
X224912500Y-216523500D03*
X224912500Y-221476500D03*
X228087500Y-221476500D03*
X213087500Y-216523500D03*
X209912500Y-216523500D03*
X209912500Y-221476500D03*
X213087500Y-221476500D03*
X198087500Y-216523500D03*
X194912500Y-216523500D03*
X194912500Y-221476500D03*
X198087500Y-221476500D03*
X183087500Y-216523500D03*
X179912500Y-216523500D03*
X179912500Y-221476500D03*
X183087500Y-221476500D03*
X168087500Y-216523500D03*
X164912500Y-216523500D03*
X164912500Y-221476500D03*
X168087500Y-221476500D03*
X153087500Y-216523500D03*
X149912500Y-216523500D03*
X149912500Y-221476500D03*
X153087500Y-221476500D03*
X138087500Y-216523500D03*
X134912500Y-216523500D03*
X134912500Y-221476500D03*
X138087500Y-221476500D03*
X123087500Y-216523500D03*
X119912500Y-216523500D03*
X119912500Y-221476500D03*
X123087500Y-221476500D03*
X108087500Y-216523500D03*
X104912500Y-216523500D03*
X104912500Y-221476500D03*
X108087500Y-221476500D03*
X93087500Y-216523500D03*
X89912500Y-216523500D03*
X89912500Y-221476500D03*
X93087500Y-221476500D03*
X78087500Y-216523500D03*
X74912500Y-216523500D03*
X74912500Y-221476500D03*
X78087500Y-221476500D03*
X63087500Y-216523500D03*
X59912500Y-216523500D03*
X59912500Y-221476500D03*
X63087500Y-221476500D03*
X258087500Y-200523500D03*
X254912500Y-200523500D03*
X254912500Y-205476500D03*
X258087500Y-205476500D03*
X243087500Y-200523500D03*
X239912500Y-200523500D03*
X239912500Y-205476500D03*
X243087500Y-205476500D03*
X228087500Y-200523500D03*
X224912500Y-200523500D03*
X224912500Y-205476500D03*
X228087500Y-205476500D03*
X213087500Y-200523500D03*
X209912500Y-200523500D03*
X209912500Y-205476500D03*
X213087500Y-205476500D03*
X198087500Y-200523500D03*
X194912500Y-200523500D03*
X194912500Y-205476500D03*
X198087500Y-205476500D03*
X183087500Y-200523500D03*
X179912500Y-200523500D03*
X179912500Y-205476500D03*
X183087500Y-205476500D03*
X168087500Y-200523500D03*
X164912500Y-200523500D03*
X164912500Y-205476500D03*
X168087500Y-205476500D03*
X153087500Y-200523500D03*
X149912500Y-200523500D03*
X149912500Y-205476500D03*
X153087500Y-205476500D03*
X138087500Y-200523500D03*
X134912500Y-200523500D03*
X134912500Y-205476500D03*
X138087500Y-205476500D03*
X123087500Y-200523500D03*
X119912500Y-200523500D03*
X119912500Y-205476500D03*
X123087500Y-205476500D03*
X108087500Y-200523500D03*
X104912500Y-200523500D03*
X104912500Y-205476500D03*
X108087500Y-205476500D03*
X93087500Y-200523500D03*
X89912500Y-200523500D03*
X89912500Y-205476500D03*
X93087500Y-205476500D03*
X78087500Y-200523500D03*
X74912500Y-200523500D03*
X74912500Y-205476500D03*
X78087500Y-205476500D03*
X63087500Y-200523500D03*
X59912500Y-200523500D03*
X59912500Y-205476500D03*
X63087500Y-205476500D03*
X258087500Y-184523500D03*
X254912500Y-184523500D03*
X254912500Y-189476500D03*
X258087500Y-189476500D03*
X243087500Y-184523500D03*
X239912500Y-184523500D03*
X239912500Y-189476500D03*
X243087500Y-189476500D03*
X228087500Y-184523500D03*
X224912500Y-184523500D03*
X224912500Y-189476500D03*
X228087500Y-189476500D03*
X213087500Y-184523500D03*
X209912500Y-184523500D03*
X209912500Y-189476500D03*
X213087500Y-189476500D03*
X198087500Y-184523500D03*
X194912500Y-184523500D03*
X194912500Y-189476500D03*
X198087500Y-189476500D03*
X183087500Y-184523500D03*
X179912500Y-184523500D03*
X179912500Y-189476500D03*
X183087500Y-189476500D03*
X168087500Y-184523500D03*
X164912500Y-184523500D03*
X164912500Y-189476500D03*
X168087500Y-189476500D03*
X153087500Y-184523500D03*
X149912500Y-184523500D03*
X149912500Y-189476500D03*
X153087500Y-189476500D03*
X138087500Y-184523500D03*
X134912500Y-184523500D03*
X134912500Y-189476500D03*
X138087500Y-189476500D03*
X123087500Y-184523500D03*
X119912500Y-184523500D03*
X119912500Y-189476500D03*
X123087500Y-189476500D03*
X108087500Y-184523500D03*
X104912500Y-184523500D03*
X104912500Y-189476500D03*
X108087500Y-189476500D03*
X93087500Y-184523500D03*
X89912500Y-184523500D03*
X89912500Y-189476500D03*
X93087500Y-189476500D03*
X78087500Y-184523500D03*
X74912500Y-184523500D03*
X74912500Y-189476500D03*
X78087500Y-189476500D03*
X63087500Y-184523500D03*
X59912500Y-184523500D03*
X59912500Y-189476500D03*
X63087500Y-189476500D03*
X258087500Y-168523500D03*
X254912500Y-168523500D03*
X254912500Y-173476500D03*
X258087500Y-173476500D03*
X243087500Y-168523500D03*
X239912500Y-168523500D03*
X239912500Y-173476500D03*
X243087500Y-173476500D03*
X228087500Y-168523500D03*
X224912500Y-168523500D03*
X224912500Y-173476500D03*
X228087500Y-173476500D03*
X213087500Y-168523500D03*
X209912500Y-168523500D03*
X209912500Y-173476500D03*
X213087500Y-173476500D03*
X198087500Y-168523500D03*
X194912500Y-168523500D03*
X194912500Y-173476500D03*
X198087500Y-173476500D03*
X183087500Y-168523500D03*
X179912500Y-168523500D03*
X179912500Y-173476500D03*
X183087500Y-173476500D03*
X168087500Y-168523500D03*
X164912500Y-168523500D03*
X164912500Y-173476500D03*
X168087500Y-173476500D03*
X153087500Y-168523500D03*
X149912500Y-168523500D03*
X149912500Y-173476500D03*
X153087500Y-173476500D03*
X138087500Y-168523500D03*
X134912500Y-168523500D03*
X134912500Y-173476500D03*
X138087500Y-173476500D03*
X123087500Y-168523500D03*
X119912500Y-168523500D03*
X119912500Y-173476500D03*
X123087500Y-173476500D03*
X108087500Y-168523500D03*
X104912500Y-168523500D03*
X104912500Y-173476500D03*
X108087500Y-173476500D03*
X93087500Y-168523500D03*
X89912500Y-168523500D03*
X89912500Y-173476500D03*
X93087500Y-173476500D03*
X78087500Y-168523500D03*
X74912500Y-168523500D03*
X74912500Y-173476500D03*
X78087500Y-173476500D03*
X63087500Y-168523500D03*
X59912500Y-168523500D03*
X59912500Y-173476500D03*
X63087500Y-173476500D03*
X258087500Y-152523500D03*
X254912500Y-152523500D03*
X254912500Y-157476500D03*
X258087500Y-157476500D03*
X243087500Y-152523500D03*
X239912500Y-152523500D03*
X239912500Y-157476500D03*
X243087500Y-157476500D03*
X228087500Y-152523500D03*
X224912500Y-152523500D03*
X224912500Y-157476500D03*
X228087500Y-157476500D03*
X213087500Y-152523500D03*
X209912500Y-152523500D03*
X209912500Y-157476500D03*
X213087500Y-157476500D03*
X198087500Y-152523500D03*
X194912500Y-152523500D03*
X194912500Y-157476500D03*
X198087500Y-157476500D03*
X183087500Y-152523500D03*
X179912500Y-152523500D03*
X179912500Y-157476500D03*
X183087500Y-157476500D03*
X168087500Y-152523500D03*
X164912500Y-152523500D03*
X164912500Y-157476500D03*
X168087500Y-157476500D03*
X153087500Y-152523500D03*
X149912500Y-152523500D03*
X149912500Y-157476500D03*
X153087500Y-157476500D03*
X138087500Y-152523500D03*
X134912500Y-152523500D03*
X134912500Y-157476500D03*
X138087500Y-157476500D03*
X123087500Y-152523500D03*
X119912500Y-152523500D03*
X119912500Y-157476500D03*
X123087500Y-157476500D03*
X108087500Y-152523500D03*
X104912500Y-152523500D03*
X104912500Y-157476500D03*
X108087500Y-157476500D03*
X93087500Y-152523500D03*
X89912500Y-152523500D03*
X89912500Y-157476500D03*
X93087500Y-157476500D03*
X78087500Y-152523500D03*
X74912500Y-152523500D03*
X74912500Y-157476500D03*
X78087500Y-157476500D03*
X63087500Y-152523500D03*
X59912500Y-152523500D03*
X59912500Y-157476500D03*
X63087500Y-157476500D03*
X258087500Y-136523500D03*
X254912500Y-136523500D03*
X254912500Y-141476500D03*
X258087500Y-141476500D03*
X243087500Y-136523500D03*
X239912500Y-136523500D03*
X239912500Y-141476500D03*
X243087500Y-141476500D03*
X228087500Y-136523500D03*
X224912500Y-136523500D03*
X224912500Y-141476500D03*
X228087500Y-141476500D03*
X213087500Y-136523500D03*
X209912500Y-136523500D03*
X209912500Y-141476500D03*
X213087500Y-141476500D03*
X198087500Y-136523500D03*
X194912500Y-136523500D03*
X194912500Y-141476500D03*
X198087500Y-141476500D03*
X183087500Y-136523500D03*
X179912500Y-136523500D03*
X179912500Y-141476500D03*
X183087500Y-141476500D03*
X168087500Y-136523500D03*
X164912500Y-136523500D03*
X164912500Y-141476500D03*
X168087500Y-141476500D03*
X153087500Y-136523500D03*
X149912500Y-136523500D03*
X149912500Y-141476500D03*
X153087500Y-141476500D03*
X138087500Y-136523500D03*
X134912500Y-136523500D03*
X134912500Y-141476500D03*
X138087500Y-141476500D03*
X123087500Y-136523500D03*
X119912500Y-136523500D03*
X119912500Y-141476500D03*
X123087500Y-141476500D03*
X108087500Y-136523500D03*
X104912500Y-136523500D03*
X104912500Y-141476500D03*
X108087500Y-141476500D03*
X93087500Y-136523500D03*
X89912500Y-136523500D03*
X89912500Y-141476500D03*
X93087500Y-141476500D03*
X78087500Y-136523500D03*
X74912500Y-136523500D03*
X74912500Y-141476500D03*
X78087500Y-141476500D03*
X63087500Y-136523500D03*
X59912500Y-136523500D03*
X59912500Y-141476500D03*
X63087500Y-141476500D03*
X258087500Y-120523500D03*
X254912500Y-120523500D03*
X254912500Y-125476500D03*
X258087500Y-125476500D03*
X243087500Y-120523500D03*
X239912500Y-120523500D03*
X239912500Y-125476500D03*
X243087500Y-125476500D03*
X228087500Y-120523500D03*
X224912500Y-120523500D03*
X224912500Y-125476500D03*
X228087500Y-125476500D03*
X213087500Y-120523500D03*
X209912500Y-120523500D03*
X209912500Y-125476500D03*
X213087500Y-125476500D03*
X198087500Y-120523500D03*
X194912500Y-120523500D03*
X194912500Y-125476500D03*
X198087500Y-125476500D03*
X183087500Y-120523500D03*
X179912500Y-120523500D03*
X179912500Y-125476500D03*
X183087500Y-125476500D03*
X168087500Y-120523500D03*
X164912500Y-120523500D03*
X164912500Y-125476500D03*
X168087500Y-125476500D03*
X153087500Y-120523500D03*
X149912500Y-120523500D03*
X149912500Y-125476500D03*
X153087500Y-125476500D03*
X138087500Y-120523500D03*
X134912500Y-120523500D03*
X134912500Y-125476500D03*
X138087500Y-125476500D03*
X123087500Y-120523500D03*
X119912500Y-120523500D03*
X119912500Y-125476500D03*
X123087500Y-125476500D03*
X108087500Y-120523500D03*
X104912500Y-120523500D03*
X104912500Y-125476500D03*
X108087500Y-125476500D03*
X93087500Y-120523500D03*
X89912500Y-120523500D03*
X89912500Y-125476500D03*
X93087500Y-125476500D03*
X78087500Y-120523500D03*
X74912500Y-120523500D03*
X74912500Y-125476500D03*
X78087500Y-125476500D03*
X63087500Y-120523500D03*
X59912500Y-120523500D03*
X59912500Y-125476500D03*
X63087500Y-125476500D03*
X258087500Y-104523500D03*
X254912500Y-104523500D03*
X254912500Y-109476500D03*
X258087500Y-109476500D03*
X243087500Y-104523500D03*
X239912500Y-104523500D03*
X239912500Y-109476500D03*
X243087500Y-109476500D03*
X228087500Y-104523500D03*
X224912500Y-104523500D03*
X224912500Y-109476500D03*
X228087500Y-109476500D03*
X213087500Y-104523500D03*
X209912500Y-104523500D03*
X209912500Y-109476500D03*
X213087500Y-109476500D03*
X198087500Y-104523500D03*
X194912500Y-104523500D03*
X194912500Y-109476500D03*
X198087500Y-109476500D03*
X183087500Y-104523500D03*
X179912500Y-104523500D03*
X179912500Y-109476500D03*
X183087500Y-109476500D03*
X168087500Y-104523500D03*
X164912500Y-104523500D03*
X164912500Y-109476500D03*
X168087500Y-109476500D03*
X153087500Y-104523500D03*
X149912500Y-104523500D03*
X149912500Y-109476500D03*
X153087500Y-109476500D03*
X138087500Y-104523500D03*
X134912500Y-104523500D03*
X134912500Y-109476500D03*
X138087500Y-109476500D03*
X123087500Y-104523500D03*
X119912500Y-104523500D03*
X119912500Y-109476500D03*
X123087500Y-109476500D03*
X108087500Y-104523500D03*
X104912500Y-104523500D03*
X104912500Y-109476500D03*
X108087500Y-109476500D03*
X93087500Y-104523500D03*
X89912500Y-104523500D03*
X89912500Y-109476500D03*
X93087500Y-109476500D03*
X78087500Y-104523500D03*
X74912500Y-104523500D03*
X74912500Y-109476500D03*
X78087500Y-109476500D03*
X63087500Y-104523500D03*
X59912500Y-104523500D03*
X59912500Y-109476500D03*
X63087500Y-109476500D03*
X258087500Y-88523500D03*
X254912500Y-88523500D03*
X254912500Y-93476500D03*
X258087500Y-93476500D03*
X243087500Y-88523500D03*
X239912500Y-88523500D03*
X239912500Y-93476500D03*
X243087500Y-93476500D03*
X228087500Y-88523500D03*
X224912500Y-88523500D03*
X224912500Y-93476500D03*
X228087500Y-93476500D03*
X213087500Y-88523500D03*
X209912500Y-88523500D03*
X209912500Y-93476500D03*
X213087500Y-93476500D03*
X198087500Y-88523500D03*
X194912500Y-88523500D03*
X194912500Y-93476500D03*
X198087500Y-93476500D03*
X183087500Y-88523500D03*
X179912500Y-88523500D03*
X179912500Y-93476500D03*
X183087500Y-93476500D03*
X168087500Y-88523500D03*
X164912500Y-88523500D03*
X164912500Y-93476500D03*
X168087500Y-93476500D03*
X153087500Y-88523500D03*
X149912500Y-88523500D03*
X149912500Y-93476500D03*
X153087500Y-93476500D03*
X138087500Y-88523500D03*
X134912500Y-88523500D03*
X134912500Y-93476500D03*
X138087500Y-93476500D03*
X123087500Y-88523500D03*
X119912500Y-88523500D03*
X119912500Y-93476500D03*
X123087500Y-93476500D03*
X108087500Y-88523500D03*
X104912500Y-88523500D03*
X104912500Y-93476500D03*
X108087500Y-93476500D03*
X93087500Y-88523500D03*
X89912500Y-88523500D03*
X89912500Y-93476500D03*
X93087500Y-93476500D03*
X78087500Y-88523500D03*
X74912500Y-88523500D03*
X74912500Y-93476500D03*
X78087500Y-93476500D03*
X63087500Y-88523500D03*
X59912500Y-88523500D03*
X59912500Y-93476500D03*
X63087500Y-93476500D03*
X258087500Y-72523500D03*
X254912500Y-72523500D03*
X254912500Y-77476500D03*
X258087500Y-77476500D03*
X243087500Y-72523500D03*
X239912500Y-72523500D03*
X239912500Y-77476500D03*
X243087500Y-77476500D03*
X228087500Y-72523500D03*
X224912500Y-72523500D03*
X224912500Y-77476500D03*
X228087500Y-77476500D03*
X213087500Y-72523500D03*
X209912500Y-72523500D03*
X209912500Y-77476500D03*
X213087500Y-77476500D03*
X198087500Y-72523500D03*
X194912500Y-72523500D03*
X194912500Y-77476500D03*
X198087500Y-77476500D03*
X183087500Y-72523500D03*
X179912500Y-72523500D03*
X179912500Y-77476500D03*
X183087500Y-77476500D03*
X168087500Y-72523500D03*
X164912500Y-72523500D03*
X164912500Y-77476500D03*
X168087500Y-77476500D03*
X153087500Y-72523500D03*
X149912500Y-72523500D03*
X149912500Y-77476500D03*
X153087500Y-77476500D03*
X123087500Y-72523500D03*
X119912500Y-72523500D03*
X119912500Y-77476500D03*
X123087500Y-77476500D03*
X108087500Y-72523500D03*
X104912500Y-72523500D03*
X104912500Y-77476500D03*
X108087500Y-77476500D03*
X93087500Y-72523500D03*
X89912500Y-72523500D03*
X89912500Y-77476500D03*
X93087500Y-77476500D03*
X78087500Y-72523500D03*
X74912500Y-72523500D03*
X74912500Y-77476500D03*
X78087500Y-77476500D03*
X63087500Y-72523500D03*
X59912500Y-72523500D03*
X59912500Y-77476500D03*
X63087500Y-77476500D03*
X258087500Y-56523500D03*
X254912500Y-56523500D03*
X254912500Y-61476500D03*
X258087500Y-61476500D03*
X243087500Y-56523500D03*
X239912500Y-56523500D03*
X239912500Y-61476500D03*
X243087500Y-61476500D03*
X228087500Y-56523500D03*
X224912500Y-56523500D03*
X224912500Y-61476500D03*
X228087500Y-61476500D03*
X213087500Y-56523500D03*
X209912500Y-56523500D03*
X209912500Y-61476500D03*
X213087500Y-61476500D03*
X198087500Y-56523500D03*
X194912500Y-56523500D03*
X194912500Y-61476500D03*
X198087500Y-61476500D03*
X183087500Y-56523500D03*
X179912500Y-56523500D03*
X179912500Y-61476500D03*
X183087500Y-61476500D03*
X168087500Y-56523500D03*
X164912500Y-56523500D03*
X164912500Y-61476500D03*
X168087500Y-61476500D03*
X153087500Y-56523500D03*
X149912500Y-56523500D03*
X149912500Y-61476500D03*
X153087500Y-61476500D03*
X138087500Y-56523500D03*
X134912500Y-56523500D03*
X134912500Y-61476500D03*
X138087500Y-61476500D03*
X123087500Y-56523500D03*
X119912500Y-56523500D03*
X119912500Y-61476500D03*
X123087500Y-61476500D03*
X108087500Y-56523500D03*
X104912500Y-56523500D03*
X104912500Y-61476500D03*
X108087500Y-61476500D03*
X93087500Y-56523500D03*
X89912500Y-56523500D03*
X89912500Y-61476500D03*
X93087500Y-61476500D03*
X78087500Y-56523500D03*
X74912500Y-56523500D03*
X74912500Y-61476500D03*
X78087500Y-61476500D03*
X63087500Y-56523500D03*
X59912500Y-56523500D03*
X59912500Y-61476500D03*
X63087500Y-61476500D03*
M02*
