M48
;DRILL file {kicad (2014-09-25 BZR 5147)-product} date Friday 10 October 2014 04:41:18 PM IST
;FORMAT={-:-/ absolute / inch / decimal}
FMAT,2
INCH,TZ
T1C0.025
T2C0.039
T3C0.040
T4C0.050
T5C0.079
T6C0.094
T7C0.128
%
G90
G05
M72
T1
X2.5689Y-2.1358
X3.2283Y-2.815
X3.311Y-3.1299
X3.5591Y-2.7795
X3.8583Y-3.1299
X4.0866Y-2.6299
X4.1969Y-2.6772
X5.2264Y-2.5394
X5.4173Y-2.0945
X5.437Y-3.4094
X5.6102Y-2.1949
X6.2283Y-2.6299
X6.2598Y-2.1949
X6.2835Y-2.6772
X6.9783Y-2.5
X7.4114Y-2.1949
X9.2126Y-2.5
X10.2953Y-9.7835
T3
X4.6795Y-1.761
X4.6795Y-1.861
X4.6929Y-3.1969
X4.7795Y-1.761
X4.7795Y-1.861
X4.874Y-3.1969
X4.8795Y-1.761
X4.8795Y-1.861
X4.9921Y-3.1969
X5.7559Y-3.1969
X5.874Y-3.1969
X5.885Y-1.7618
X5.985Y-1.7618
X6.5035Y-1.7618
X6.6035Y-1.7618
X6.7035Y-1.7618
X6.8035Y-1.7618
X6.9957Y-1.9685
X7.0957Y-1.9685
X7.1957Y-1.9685
X7.2957Y-1.9685
X7.637Y-1.7618
X7.737Y-1.7618
X8.372Y-1.7618
X8.472Y-1.7618
X8.572Y-1.7618
X8.672Y-1.7618
X8.772Y-1.7618
X8.872Y-1.7618
X9.4204Y-1.7047
X9.4204Y-1.9597
X9.4579Y-1.8847
X9.5579Y-1.8847
X9.5954Y-1.7047
X9.5954Y-1.9597
T4
X9.3704Y-1.8047
X9.6454Y-1.8047
T5
X7.3622Y-10.2835
X7.3661Y-10.5197
X8.1496Y-10.2835
X8.1496Y-10.5197
T6
X6.1024Y-10.4016
T7
X2.3228Y-1.811
X2.3228Y-10.3937
X10.1969Y-1.811
X10.1969Y-10.3937
T2
X6.0295Y-10.2559G85X6.0886Y-10.2559
G05
X6.0295Y-10.5472G85X6.0886Y-10.5472
G05
X6.2638Y-10.378G85X6.2638Y-10.4252
G05
X6.3268Y-10.2717G85X6.374Y-10.2717
G05
X6.3268Y-10.5315G85X6.374Y-10.5315
G05
T0
M30
