G04 (created by PCBNEW (2013-07-07 BZR 4022)-stable) date 9/10/2014 3:29:02 PM*
%MOIN*%
G04 Gerber Fmt 3.4, Leading zero omitted, Abs format*
%FSLAX34Y34*%
G01*
G70*
G90*
G04 APERTURE LIST*
%ADD10C,0.00590551*%
%ADD11R,0.0354331X0.0590551*%
%ADD12R,0.12X0.12*%
%ADD13R,0.055X0.035*%
%ADD14R,0.035X0.055*%
G04 APERTURE END LIST*
G54D10*
G54D11*
X94468Y-93523D03*
X95649Y-93523D03*
X95649Y-91555D03*
X94468Y-91555D03*
X100374Y-93523D03*
X101555Y-93523D03*
X101555Y-91555D03*
X100374Y-91555D03*
X23602Y-99822D03*
X24783Y-99822D03*
X24783Y-97854D03*
X23602Y-97854D03*
X29507Y-99822D03*
X30688Y-99822D03*
X30688Y-97854D03*
X29507Y-97854D03*
X35413Y-99822D03*
X36594Y-99822D03*
X36594Y-97854D03*
X35413Y-97854D03*
X41318Y-99822D03*
X42500Y-99822D03*
X42500Y-97854D03*
X41318Y-97854D03*
X47224Y-99822D03*
X48405Y-99822D03*
X48405Y-97854D03*
X47224Y-97854D03*
X59035Y-99822D03*
X60216Y-99822D03*
X60216Y-97854D03*
X59035Y-97854D03*
X64940Y-99822D03*
X66122Y-99822D03*
X66122Y-97854D03*
X64940Y-97854D03*
X70846Y-99822D03*
X72027Y-99822D03*
X72027Y-97854D03*
X70846Y-97854D03*
X76751Y-99822D03*
X77933Y-99822D03*
X77933Y-97854D03*
X76751Y-97854D03*
X82657Y-99822D03*
X83838Y-99822D03*
X83838Y-97854D03*
X82657Y-97854D03*
X88562Y-99822D03*
X89744Y-99822D03*
X89744Y-97854D03*
X88562Y-97854D03*
X94468Y-99822D03*
X95649Y-99822D03*
X95649Y-97854D03*
X94468Y-97854D03*
X100374Y-99822D03*
X101555Y-99822D03*
X101555Y-97854D03*
X100374Y-97854D03*
X53129Y-99822D03*
X54311Y-99822D03*
X54311Y-97854D03*
X53129Y-97854D03*
X76751Y-87224D03*
X77933Y-87224D03*
X77933Y-85255D03*
X76751Y-85255D03*
X82657Y-87224D03*
X83838Y-87224D03*
X83838Y-85255D03*
X82657Y-85255D03*
X88562Y-87224D03*
X89744Y-87224D03*
X89744Y-85255D03*
X88562Y-85255D03*
X94468Y-87224D03*
X95649Y-87224D03*
X95649Y-85255D03*
X94468Y-85255D03*
X100374Y-87224D03*
X101555Y-87224D03*
X101555Y-85255D03*
X100374Y-85255D03*
X23602Y-93523D03*
X24783Y-93523D03*
X24783Y-91555D03*
X23602Y-91555D03*
X29507Y-93523D03*
X30688Y-93523D03*
X30688Y-91555D03*
X29507Y-91555D03*
X88562Y-93523D03*
X89744Y-93523D03*
X89744Y-91555D03*
X88562Y-91555D03*
X41318Y-93523D03*
X42500Y-93523D03*
X42500Y-91555D03*
X41318Y-91555D03*
X47224Y-93523D03*
X48405Y-93523D03*
X48405Y-91555D03*
X47224Y-91555D03*
X53129Y-93523D03*
X54311Y-93523D03*
X54311Y-91555D03*
X53129Y-91555D03*
X59035Y-93523D03*
X60216Y-93523D03*
X60216Y-91555D03*
X59035Y-91555D03*
X64940Y-93523D03*
X66122Y-93523D03*
X66122Y-91555D03*
X64940Y-91555D03*
X70846Y-93523D03*
X72027Y-93523D03*
X72027Y-91555D03*
X70846Y-91555D03*
X76751Y-93523D03*
X77933Y-93523D03*
X77933Y-91555D03*
X76751Y-91555D03*
X82657Y-93523D03*
X83838Y-93523D03*
X83838Y-91555D03*
X82657Y-91555D03*
X35413Y-93523D03*
X36594Y-93523D03*
X36594Y-91555D03*
X35413Y-91555D03*
X100374Y-80925D03*
X101555Y-80925D03*
X101555Y-78956D03*
X100374Y-78956D03*
X94468Y-80925D03*
X95649Y-80925D03*
X95649Y-78956D03*
X94468Y-78956D03*
X88562Y-80925D03*
X89744Y-80925D03*
X89744Y-78956D03*
X88562Y-78956D03*
X82657Y-80925D03*
X83838Y-80925D03*
X83838Y-78956D03*
X82657Y-78956D03*
X76751Y-80925D03*
X77933Y-80925D03*
X77933Y-78956D03*
X76751Y-78956D03*
X70846Y-80925D03*
X72027Y-80925D03*
X72027Y-78956D03*
X70846Y-78956D03*
X64940Y-80925D03*
X66122Y-80925D03*
X66122Y-78956D03*
X64940Y-78956D03*
X59035Y-80925D03*
X60216Y-80925D03*
X60216Y-78956D03*
X59035Y-78956D03*
X53129Y-80925D03*
X54311Y-80925D03*
X54311Y-78956D03*
X53129Y-78956D03*
X47224Y-80925D03*
X48405Y-80925D03*
X48405Y-78956D03*
X47224Y-78956D03*
X41318Y-80925D03*
X42500Y-80925D03*
X42500Y-78956D03*
X41318Y-78956D03*
X53129Y-87224D03*
X54311Y-87224D03*
X54311Y-85255D03*
X53129Y-85255D03*
X29507Y-80925D03*
X30688Y-80925D03*
X30688Y-78956D03*
X29507Y-78956D03*
X23602Y-80925D03*
X24783Y-80925D03*
X24783Y-78956D03*
X23602Y-78956D03*
X23602Y-87224D03*
X24783Y-87224D03*
X24783Y-85255D03*
X23602Y-85255D03*
X100374Y-74625D03*
X101555Y-74625D03*
X101555Y-72657D03*
X100374Y-72657D03*
X29507Y-87224D03*
X30688Y-87224D03*
X30688Y-85255D03*
X29507Y-85255D03*
X35413Y-87224D03*
X36594Y-87224D03*
X36594Y-85255D03*
X35413Y-85255D03*
X41318Y-87224D03*
X42500Y-87224D03*
X42500Y-85255D03*
X41318Y-85255D03*
X47224Y-87224D03*
X48405Y-87224D03*
X48405Y-85255D03*
X47224Y-85255D03*
X59035Y-87224D03*
X60216Y-87224D03*
X60216Y-85255D03*
X59035Y-85255D03*
X64940Y-87224D03*
X66122Y-87224D03*
X66122Y-85255D03*
X64940Y-85255D03*
X70846Y-87224D03*
X72027Y-87224D03*
X72027Y-85255D03*
X70846Y-85255D03*
X35413Y-80925D03*
X36594Y-80925D03*
X36594Y-78956D03*
X35413Y-78956D03*
X59035Y-74625D03*
X60216Y-74625D03*
X60216Y-72657D03*
X59035Y-72657D03*
X53129Y-74625D03*
X54311Y-74625D03*
X54311Y-72657D03*
X53129Y-72657D03*
X47224Y-74625D03*
X48405Y-74625D03*
X48405Y-72657D03*
X47224Y-72657D03*
X41318Y-74625D03*
X42500Y-74625D03*
X42500Y-72657D03*
X41318Y-72657D03*
X35413Y-74625D03*
X36594Y-74625D03*
X36594Y-72657D03*
X35413Y-72657D03*
X29507Y-74625D03*
X30688Y-74625D03*
X30688Y-72657D03*
X29507Y-72657D03*
X23602Y-74625D03*
X24783Y-74625D03*
X24783Y-72657D03*
X23602Y-72657D03*
X64940Y-74625D03*
X66122Y-74625D03*
X66122Y-72657D03*
X64940Y-72657D03*
X70846Y-74625D03*
X72027Y-74625D03*
X72027Y-72657D03*
X70846Y-72657D03*
X76751Y-74625D03*
X77933Y-74625D03*
X77933Y-72657D03*
X76751Y-72657D03*
X82657Y-74625D03*
X83838Y-74625D03*
X83838Y-72657D03*
X82657Y-72657D03*
X88562Y-74625D03*
X89744Y-74625D03*
X89744Y-72657D03*
X88562Y-72657D03*
X35413Y-68326D03*
X36594Y-68326D03*
X36594Y-66358D03*
X35413Y-66358D03*
X41318Y-68326D03*
X42500Y-68326D03*
X42500Y-66358D03*
X41318Y-66358D03*
X47224Y-68326D03*
X48405Y-68326D03*
X48405Y-66358D03*
X47224Y-66358D03*
X53129Y-68326D03*
X54311Y-68326D03*
X54311Y-66358D03*
X53129Y-66358D03*
X59035Y-68326D03*
X60216Y-68326D03*
X60216Y-66358D03*
X59035Y-66358D03*
X23602Y-68326D03*
X24783Y-68326D03*
X24783Y-66358D03*
X23602Y-66358D03*
X29507Y-68326D03*
X30688Y-68326D03*
X30688Y-66358D03*
X29507Y-66358D03*
X100374Y-68326D03*
X101555Y-68326D03*
X101555Y-66358D03*
X100374Y-66358D03*
X94468Y-68326D03*
X95649Y-68326D03*
X95649Y-66358D03*
X94468Y-66358D03*
X88562Y-68326D03*
X89744Y-68326D03*
X89744Y-66358D03*
X88562Y-66358D03*
X82657Y-68326D03*
X83838Y-68326D03*
X83838Y-66358D03*
X82657Y-66358D03*
X76751Y-68326D03*
X77933Y-68326D03*
X77933Y-66358D03*
X76751Y-66358D03*
X70846Y-68326D03*
X72027Y-68326D03*
X72027Y-66358D03*
X70846Y-66358D03*
X64940Y-68326D03*
X66122Y-68326D03*
X66122Y-66358D03*
X64940Y-66358D03*
X94468Y-74625D03*
X95649Y-74625D03*
X95649Y-72657D03*
X94468Y-72657D03*
X70846Y-62027D03*
X72027Y-62027D03*
X72027Y-60059D03*
X70846Y-60059D03*
X100374Y-62027D03*
X101555Y-62027D03*
X101555Y-60059D03*
X100374Y-60059D03*
X94468Y-62027D03*
X95649Y-62027D03*
X95649Y-60059D03*
X94468Y-60059D03*
X88562Y-62027D03*
X89744Y-62027D03*
X89744Y-60059D03*
X88562Y-60059D03*
X82657Y-62027D03*
X83838Y-62027D03*
X83838Y-60059D03*
X82657Y-60059D03*
X76751Y-62027D03*
X77933Y-62027D03*
X77933Y-60059D03*
X76751Y-60059D03*
X41318Y-55728D03*
X42500Y-55728D03*
X42500Y-53759D03*
X41318Y-53759D03*
X47224Y-55728D03*
X48405Y-55728D03*
X48405Y-53759D03*
X47224Y-53759D03*
X53129Y-55728D03*
X54311Y-55728D03*
X54311Y-53759D03*
X53129Y-53759D03*
X59035Y-55728D03*
X60216Y-55728D03*
X60216Y-53759D03*
X59035Y-53759D03*
X64940Y-55728D03*
X66122Y-55728D03*
X66122Y-53759D03*
X64940Y-53759D03*
X70846Y-55728D03*
X72027Y-55728D03*
X72027Y-53759D03*
X70846Y-53759D03*
X76751Y-55728D03*
X77933Y-55728D03*
X77933Y-53759D03*
X76751Y-53759D03*
X82657Y-55728D03*
X83838Y-55728D03*
X83838Y-53759D03*
X82657Y-53759D03*
X23602Y-62027D03*
X24783Y-62027D03*
X24783Y-60059D03*
X23602Y-60059D03*
X94468Y-55728D03*
X95649Y-55728D03*
X95649Y-53759D03*
X94468Y-53759D03*
X100374Y-55728D03*
X101555Y-55728D03*
X101555Y-53759D03*
X100374Y-53759D03*
X29507Y-62027D03*
X30688Y-62027D03*
X30688Y-60059D03*
X29507Y-60059D03*
X35413Y-62027D03*
X36594Y-62027D03*
X36594Y-60059D03*
X35413Y-60059D03*
X41318Y-62027D03*
X42500Y-62027D03*
X42500Y-60059D03*
X41318Y-60059D03*
X47224Y-62027D03*
X48405Y-62027D03*
X48405Y-60059D03*
X47224Y-60059D03*
X53129Y-62027D03*
X54311Y-62027D03*
X54311Y-60059D03*
X53129Y-60059D03*
X59035Y-62027D03*
X60216Y-62027D03*
X60216Y-60059D03*
X59035Y-60059D03*
X64940Y-62027D03*
X66122Y-62027D03*
X66122Y-60059D03*
X64940Y-60059D03*
X88562Y-55728D03*
X89744Y-55728D03*
X89744Y-53759D03*
X88562Y-53759D03*
X59035Y-49429D03*
X60216Y-49429D03*
X60216Y-47460D03*
X59035Y-47460D03*
X64940Y-49429D03*
X66122Y-49429D03*
X66122Y-47460D03*
X64940Y-47460D03*
X70846Y-49429D03*
X72027Y-49429D03*
X72027Y-47460D03*
X70846Y-47460D03*
X76751Y-49429D03*
X77933Y-49429D03*
X77933Y-47460D03*
X76751Y-47460D03*
X35413Y-55728D03*
X36594Y-55728D03*
X36594Y-53759D03*
X35413Y-53759D03*
X29507Y-55728D03*
X30688Y-55728D03*
X30688Y-53759D03*
X29507Y-53759D03*
X23602Y-55728D03*
X24783Y-55728D03*
X24783Y-53759D03*
X23602Y-53759D03*
X100374Y-43129D03*
X101555Y-43129D03*
X101555Y-41161D03*
X100374Y-41161D03*
X88562Y-43129D03*
X89744Y-43129D03*
X89744Y-41161D03*
X88562Y-41161D03*
X82657Y-49429D03*
X83838Y-49429D03*
X83838Y-47460D03*
X82657Y-47460D03*
X88562Y-49429D03*
X89744Y-49429D03*
X89744Y-47460D03*
X88562Y-47460D03*
X94468Y-49429D03*
X95649Y-49429D03*
X95649Y-47460D03*
X94468Y-47460D03*
X100374Y-49429D03*
X101555Y-49429D03*
X101555Y-47460D03*
X100374Y-47460D03*
X53129Y-49429D03*
X54311Y-49429D03*
X54311Y-47460D03*
X53129Y-47460D03*
X23602Y-49429D03*
X24783Y-49429D03*
X24783Y-47460D03*
X23602Y-47460D03*
X29507Y-49429D03*
X30688Y-49429D03*
X30688Y-47460D03*
X29507Y-47460D03*
X35413Y-49429D03*
X36594Y-49429D03*
X36594Y-47460D03*
X35413Y-47460D03*
X41318Y-49429D03*
X42500Y-49429D03*
X42500Y-47460D03*
X41318Y-47460D03*
X47224Y-49429D03*
X48405Y-49429D03*
X48405Y-47460D03*
X47224Y-47460D03*
X94468Y-43129D03*
X95649Y-43129D03*
X95649Y-41161D03*
X94468Y-41161D03*
X82657Y-43129D03*
X83838Y-43129D03*
X83838Y-41161D03*
X82657Y-41161D03*
X23602Y-43129D03*
X24783Y-43129D03*
X24783Y-41161D03*
X23602Y-41161D03*
X29507Y-43129D03*
X30688Y-43129D03*
X30688Y-41161D03*
X29507Y-41161D03*
X35413Y-43129D03*
X36594Y-43129D03*
X36594Y-41161D03*
X35413Y-41161D03*
X41318Y-43129D03*
X42500Y-43129D03*
X42500Y-41161D03*
X41318Y-41161D03*
X47224Y-43129D03*
X48405Y-43129D03*
X48405Y-41161D03*
X47224Y-41161D03*
X53129Y-43129D03*
X54311Y-43129D03*
X54311Y-41161D03*
X53129Y-41161D03*
X100374Y-36830D03*
X101555Y-36830D03*
X101555Y-34862D03*
X100374Y-34862D03*
X94468Y-36830D03*
X95649Y-36830D03*
X95649Y-34862D03*
X94468Y-34862D03*
X82657Y-36830D03*
X83838Y-36830D03*
X83838Y-34862D03*
X82657Y-34862D03*
X76751Y-36830D03*
X77933Y-36830D03*
X77933Y-34862D03*
X76751Y-34862D03*
X70846Y-36830D03*
X72027Y-36830D03*
X72027Y-34862D03*
X70846Y-34862D03*
X64940Y-36830D03*
X66122Y-36830D03*
X66122Y-34862D03*
X64940Y-34862D03*
X59035Y-36830D03*
X60216Y-36830D03*
X60216Y-34862D03*
X59035Y-34862D03*
X53129Y-36830D03*
X54311Y-36830D03*
X54311Y-34862D03*
X53129Y-34862D03*
X47224Y-36830D03*
X48405Y-36830D03*
X48405Y-34862D03*
X47224Y-34862D03*
X41318Y-36830D03*
X42500Y-36830D03*
X42500Y-34862D03*
X41318Y-34862D03*
X35413Y-36830D03*
X36594Y-36830D03*
X36594Y-34862D03*
X35413Y-34862D03*
X29507Y-36830D03*
X30688Y-36830D03*
X30688Y-34862D03*
X29507Y-34862D03*
X23602Y-36830D03*
X24783Y-36830D03*
X24783Y-34862D03*
X23602Y-34862D03*
X59035Y-43129D03*
X60216Y-43129D03*
X60216Y-41161D03*
X59035Y-41161D03*
X64940Y-43129D03*
X66122Y-43129D03*
X66122Y-41161D03*
X64940Y-41161D03*
X70846Y-43129D03*
X72027Y-43129D03*
X72027Y-41161D03*
X70846Y-41161D03*
X76751Y-43129D03*
X77933Y-43129D03*
X77933Y-41161D03*
X76751Y-41161D03*
X88562Y-36830D03*
X89744Y-36830D03*
X89744Y-34862D03*
X88562Y-34862D03*
X23602Y-30531D03*
X24783Y-30531D03*
X24783Y-28562D03*
X23602Y-28562D03*
X35413Y-30531D03*
X36594Y-30531D03*
X36594Y-28562D03*
X35413Y-28562D03*
X41318Y-30531D03*
X42500Y-30531D03*
X42500Y-28562D03*
X41318Y-28562D03*
X47224Y-30531D03*
X48405Y-30531D03*
X48405Y-28562D03*
X47224Y-28562D03*
X100374Y-30531D03*
X101555Y-30531D03*
X101555Y-28562D03*
X100374Y-28562D03*
X94468Y-30531D03*
X95649Y-30531D03*
X95649Y-28562D03*
X94468Y-28562D03*
X88562Y-30531D03*
X89744Y-30531D03*
X89744Y-28562D03*
X88562Y-28562D03*
X82657Y-30531D03*
X83838Y-30531D03*
X83838Y-28562D03*
X82657Y-28562D03*
X76751Y-30531D03*
X77933Y-30531D03*
X77933Y-28562D03*
X76751Y-28562D03*
X70846Y-30531D03*
X72027Y-30531D03*
X72027Y-28562D03*
X70846Y-28562D03*
X64940Y-30531D03*
X66122Y-30531D03*
X66122Y-28562D03*
X64940Y-28562D03*
X59035Y-30531D03*
X60216Y-30531D03*
X60216Y-28562D03*
X59035Y-28562D03*
X53129Y-30531D03*
X54311Y-30531D03*
X54311Y-28562D03*
X53129Y-28562D03*
X29507Y-30531D03*
X30688Y-30531D03*
X30688Y-28562D03*
X29507Y-28562D03*
X23602Y-24232D03*
X24783Y-24232D03*
X24783Y-22263D03*
X23602Y-22263D03*
X29507Y-24232D03*
X30688Y-24232D03*
X30688Y-22263D03*
X29507Y-22263D03*
X35413Y-24232D03*
X36594Y-24232D03*
X36594Y-22263D03*
X35413Y-22263D03*
X41318Y-24232D03*
X42500Y-24232D03*
X42500Y-22263D03*
X41318Y-22263D03*
X47224Y-24232D03*
X48405Y-24232D03*
X48405Y-22263D03*
X47224Y-22263D03*
X53129Y-24232D03*
X54311Y-24232D03*
X54311Y-22263D03*
X53129Y-22263D03*
X59035Y-24232D03*
X60216Y-24232D03*
X60216Y-22263D03*
X59035Y-22263D03*
X64940Y-24232D03*
X66122Y-24232D03*
X66122Y-22263D03*
X64940Y-22263D03*
X70846Y-24232D03*
X72027Y-24232D03*
X72027Y-22263D03*
X70846Y-22263D03*
X76751Y-24232D03*
X77933Y-24232D03*
X77933Y-22263D03*
X76751Y-22263D03*
X82657Y-24232D03*
X83838Y-24232D03*
X83838Y-22263D03*
X82657Y-22263D03*
X88562Y-24232D03*
X89744Y-24232D03*
X89744Y-22263D03*
X88562Y-22263D03*
X94468Y-24232D03*
X95649Y-24232D03*
X95649Y-22263D03*
X94468Y-22263D03*
X100374Y-24232D03*
X101555Y-24232D03*
X101555Y-22263D03*
X100374Y-22263D03*
G54D12*
X28419Y-103641D03*
X31619Y-103641D03*
X34423Y-103641D03*
X37623Y-103641D03*
X40329Y-103641D03*
X43529Y-103641D03*
X46234Y-103641D03*
X49434Y-103641D03*
G54D13*
X93503Y-22853D03*
X93503Y-23603D03*
X87598Y-22853D03*
X87598Y-23603D03*
X81692Y-22853D03*
X81692Y-23603D03*
X75787Y-22853D03*
X75787Y-23603D03*
X69881Y-22853D03*
X69881Y-23603D03*
X63976Y-22853D03*
X63976Y-23603D03*
X58070Y-22853D03*
X58070Y-23603D03*
X52165Y-22853D03*
X52165Y-23603D03*
X46259Y-22853D03*
X46259Y-23603D03*
X28543Y-22853D03*
X28543Y-23603D03*
X40354Y-22853D03*
X40354Y-23603D03*
X34448Y-22853D03*
X34448Y-23603D03*
X99507Y-22853D03*
X99507Y-23603D03*
X22736Y-22853D03*
X22736Y-23603D03*
X81791Y-29152D03*
X81791Y-29902D03*
X22736Y-29152D03*
X22736Y-29902D03*
X28641Y-29152D03*
X28641Y-29902D03*
X34547Y-29152D03*
X34547Y-29902D03*
X40452Y-29152D03*
X40452Y-29902D03*
X46358Y-29152D03*
X46358Y-29902D03*
X52263Y-29152D03*
X52263Y-29902D03*
X58169Y-29152D03*
X58169Y-29902D03*
X64074Y-29152D03*
X64074Y-29902D03*
X69980Y-29152D03*
X69980Y-29902D03*
X75885Y-29152D03*
X75885Y-29902D03*
X87696Y-29152D03*
X87696Y-29902D03*
X93602Y-29152D03*
X93602Y-29902D03*
X99507Y-29152D03*
X99507Y-29902D03*
X22736Y-35451D03*
X22736Y-36201D03*
X52263Y-35451D03*
X52263Y-36201D03*
X46358Y-35451D03*
X46358Y-36201D03*
X40452Y-35451D03*
X40452Y-36201D03*
X34547Y-35451D03*
X34547Y-36201D03*
X81791Y-35451D03*
X81791Y-36201D03*
X58169Y-35451D03*
X58169Y-36201D03*
X64074Y-35451D03*
X64074Y-36201D03*
X28641Y-35451D03*
X28641Y-36201D03*
X69881Y-35451D03*
X69881Y-36201D03*
X75885Y-35451D03*
X75885Y-36201D03*
X22736Y-41750D03*
X22736Y-42500D03*
X99507Y-35451D03*
X99507Y-36201D03*
X93602Y-35451D03*
X93602Y-36201D03*
X87696Y-35451D03*
X87696Y-36201D03*
X69980Y-41750D03*
X69980Y-42500D03*
X99507Y-41750D03*
X99507Y-42500D03*
X64074Y-48050D03*
X64074Y-48800D03*
X58169Y-48050D03*
X58169Y-48800D03*
X52263Y-48050D03*
X52263Y-48800D03*
X46358Y-48050D03*
X46358Y-48800D03*
X40452Y-48050D03*
X40452Y-48800D03*
X34547Y-48050D03*
X34547Y-48800D03*
X28641Y-48050D03*
X28641Y-48800D03*
X28641Y-41750D03*
X28641Y-42500D03*
X22736Y-48050D03*
X22736Y-48800D03*
X93602Y-41750D03*
X93602Y-42500D03*
X87696Y-41750D03*
X87696Y-42500D03*
X81791Y-41750D03*
X81791Y-42500D03*
X75885Y-41750D03*
X75885Y-42500D03*
X64074Y-41750D03*
X64074Y-42500D03*
X58169Y-41750D03*
X58169Y-42500D03*
X52263Y-41750D03*
X52263Y-42500D03*
X46358Y-41750D03*
X46358Y-42500D03*
X40452Y-41750D03*
X40452Y-42500D03*
X34547Y-41750D03*
X34547Y-42500D03*
X87696Y-54349D03*
X87696Y-55099D03*
X64074Y-54349D03*
X64074Y-55099D03*
X69980Y-54349D03*
X69980Y-55099D03*
X75885Y-54349D03*
X75885Y-55099D03*
X81791Y-54349D03*
X81791Y-55099D03*
X52263Y-60648D03*
X52263Y-61398D03*
X93602Y-54349D03*
X93602Y-55099D03*
X99507Y-54349D03*
X99507Y-55099D03*
X22736Y-60648D03*
X22736Y-61398D03*
X28641Y-60648D03*
X28641Y-61398D03*
X34547Y-60648D03*
X34547Y-61398D03*
X40452Y-60648D03*
X40452Y-61398D03*
X46358Y-60648D03*
X46358Y-61398D03*
X22736Y-54349D03*
X22736Y-55099D03*
X58169Y-54349D03*
X58169Y-55099D03*
X52263Y-54349D03*
X52263Y-55099D03*
X46358Y-54349D03*
X46358Y-55099D03*
X40452Y-54349D03*
X40452Y-55099D03*
X34547Y-54349D03*
X34547Y-55099D03*
X28641Y-54349D03*
X28641Y-55099D03*
X99507Y-48050D03*
X99507Y-48800D03*
X93602Y-48050D03*
X93602Y-48800D03*
X87696Y-48050D03*
X87696Y-48800D03*
X81791Y-48050D03*
X81791Y-48800D03*
X75885Y-48050D03*
X75885Y-48800D03*
X69980Y-48050D03*
X69980Y-48800D03*
X75885Y-60648D03*
X75885Y-61398D03*
X69980Y-60648D03*
X69980Y-61398D03*
X64074Y-60648D03*
X64074Y-61398D03*
X58169Y-60648D03*
X58169Y-61398D03*
X93602Y-60648D03*
X93602Y-61398D03*
X28641Y-66947D03*
X28641Y-67697D03*
X34547Y-66947D03*
X34547Y-67697D03*
X40452Y-66947D03*
X40452Y-67697D03*
X46358Y-66947D03*
X46358Y-67697D03*
X52263Y-66947D03*
X52263Y-67697D03*
X58169Y-66947D03*
X58169Y-67697D03*
X64074Y-66947D03*
X64074Y-67697D03*
X81791Y-60648D03*
X81791Y-61398D03*
X87696Y-60648D03*
X87696Y-61398D03*
X87696Y-66947D03*
X87696Y-67697D03*
X99507Y-60648D03*
X99507Y-61398D03*
X22736Y-66947D03*
X22736Y-67697D03*
X69980Y-66947D03*
X69980Y-67697D03*
X75885Y-66947D03*
X75885Y-67697D03*
X81791Y-66947D03*
X81791Y-67697D03*
X93602Y-66947D03*
X93602Y-67697D03*
X99507Y-66947D03*
X99507Y-67697D03*
X22736Y-73247D03*
X22736Y-73997D03*
X28641Y-73247D03*
X28641Y-73997D03*
X34547Y-73247D03*
X34547Y-73997D03*
X40452Y-73247D03*
X40452Y-73997D03*
X46358Y-73247D03*
X46358Y-73997D03*
X52263Y-73247D03*
X52263Y-73997D03*
X58169Y-73247D03*
X58169Y-73997D03*
X99507Y-98443D03*
X99507Y-99193D03*
X28641Y-85845D03*
X28641Y-86595D03*
X34547Y-85845D03*
X34547Y-86595D03*
X40452Y-85845D03*
X40452Y-86595D03*
X46358Y-85845D03*
X46358Y-86595D03*
X69980Y-85845D03*
X69980Y-86595D03*
X52263Y-85845D03*
X52263Y-86595D03*
X58169Y-85845D03*
X58169Y-86595D03*
X64074Y-85845D03*
X64074Y-86595D03*
X75885Y-85845D03*
X75885Y-86595D03*
X81791Y-85845D03*
X81791Y-86595D03*
X40452Y-79546D03*
X40452Y-80296D03*
X22736Y-85845D03*
X22736Y-86595D03*
X64074Y-73247D03*
X64074Y-73997D03*
X69980Y-73247D03*
X69980Y-73997D03*
X75885Y-73247D03*
X75885Y-73997D03*
X81791Y-73247D03*
X81791Y-73997D03*
X87696Y-73247D03*
X87696Y-73997D03*
X93602Y-73247D03*
X93602Y-73997D03*
X99507Y-73247D03*
X99507Y-73997D03*
X22736Y-79546D03*
X22736Y-80296D03*
X28641Y-79546D03*
X28641Y-80296D03*
X34547Y-79546D03*
X34547Y-80296D03*
X46358Y-79546D03*
X46358Y-80296D03*
X52263Y-79546D03*
X52263Y-80296D03*
X58169Y-79546D03*
X58169Y-80296D03*
X64074Y-79546D03*
X64074Y-80296D03*
X69980Y-79546D03*
X69980Y-80296D03*
X75885Y-79546D03*
X75885Y-80296D03*
X81791Y-79546D03*
X81791Y-80296D03*
X87696Y-79546D03*
X87696Y-80296D03*
X93602Y-79546D03*
X93602Y-80296D03*
X99507Y-79546D03*
X99507Y-80296D03*
X64074Y-98443D03*
X64074Y-99193D03*
X99507Y-92144D03*
X99507Y-92894D03*
X22736Y-98443D03*
X22736Y-99193D03*
X28641Y-98443D03*
X28641Y-99193D03*
X34547Y-98443D03*
X34547Y-99193D03*
X40452Y-98443D03*
X40452Y-99193D03*
X46358Y-98443D03*
X46358Y-99193D03*
X52263Y-98443D03*
X52263Y-99193D03*
X58169Y-98443D03*
X58169Y-99193D03*
X99507Y-85845D03*
X99507Y-86595D03*
X69980Y-98443D03*
X69980Y-99193D03*
X75885Y-98443D03*
X75885Y-99193D03*
X81791Y-98443D03*
X81791Y-99193D03*
X87696Y-98443D03*
X87696Y-99193D03*
X93602Y-98443D03*
X93602Y-99193D03*
X52263Y-92144D03*
X52263Y-92894D03*
X93602Y-85845D03*
X93602Y-86595D03*
X87696Y-85845D03*
X87696Y-86595D03*
X22736Y-92144D03*
X22736Y-92894D03*
X28641Y-92144D03*
X28641Y-92894D03*
X34547Y-92144D03*
X34547Y-92894D03*
X40452Y-92144D03*
X40452Y-92894D03*
X46358Y-92144D03*
X46358Y-92894D03*
X93602Y-92144D03*
X93602Y-92894D03*
X58169Y-92144D03*
X58169Y-92894D03*
X64074Y-92144D03*
X64074Y-92894D03*
X69980Y-92144D03*
X69980Y-92894D03*
X75885Y-92144D03*
X75885Y-92894D03*
X81791Y-92144D03*
X81791Y-92894D03*
X87696Y-92144D03*
X87696Y-92894D03*
X75098Y-17597D03*
X75098Y-18347D03*
X90944Y-17774D03*
X90944Y-18524D03*
X61023Y-18581D03*
X61023Y-19331D03*
X57775Y-18581D03*
X57775Y-19331D03*
X59940Y-19312D03*
X59940Y-18562D03*
X58858Y-18581D03*
X58858Y-19331D03*
X92716Y-18524D03*
X92716Y-17774D03*
G54D14*
X53325Y-103740D03*
X54075Y-103740D03*
X24528Y-21358D03*
X23778Y-21358D03*
M02*
