M48
;DRILL file {kicad 0.201501251816+5388~20~ubuntu14.10.1-product} date Tuesday 27 January 2015 11:09:37 PM IST
;FORMAT={-:-/ absolute / inch / decimal}
FMAT,2
INCH,TZ
T1C0.025
T2C0.040
T3C0.047
T4C0.071
T5C0.128
%
G90
G05
M72
T1
X2.3583Y-2.1614
X2.6713Y-2.2854
X2.6929Y-2.5807
X2.8839Y-10.1575
X3.2913Y-2.7795
X3.311Y-3.1299
X3.5079Y-10.1575
X3.5591Y-2.7795
X3.6024Y-9.7087
X3.8583Y-3.1299
X4.0866Y-2.6299
X4.0984Y-10.1575
X4.1929Y-9.7087
X4.1969Y-2.6772
X4.626Y-3.878
X4.685Y-10.1575
X4.7835Y-9.7087
X4.9114Y-3.2776
X4.9409Y-3.878
X5.0098Y-2.5
X5.1299Y-2.1496
X5.2382Y-10.1575
X5.374Y-9.7087
X5.437Y-3.4094
X5.5394Y-3.1811
X5.5748Y-3.2362
X5.7441Y-3.1811
X5.748Y-2.5709
X5.7835Y-3.2362
X5.9154Y-2.5689
X5.9646Y-9.7087
X6.1024Y-2.5689
X6.2283Y-2.6299
X6.2835Y-2.6772
X6.4094Y-2.1496
X6.5551Y-9.7087
X6.6732Y-2.7795
X6.9783Y-2.5
X7.4016Y-7.3228
X7.4803Y-2.1496
X9.2126Y-2.5
X9.5276Y-2.1496
X9.5709Y-2.7795
X10.0098Y-2.628
T2
X2.8618Y-10.3937
X2.9618Y-10.3937
X3.0618Y-10.3937
X3.1618Y-10.3937
X4.6835Y-1.761
X4.6835Y-1.861
X4.7146Y-2.5689
X4.7835Y-1.761
X4.7835Y-1.861
X4.7953Y-3.1969
X4.8835Y-1.761
X4.8835Y-1.861
X5.2067Y-2.5689
X5.5413Y-2.5689
X5.6693Y-2.8445
X6.5035Y-1.7717
X6.6035Y-1.7717
X6.7035Y-1.7717
X6.8035Y-1.7717
X6.976Y-1.9685
X7.076Y-1.9685
X7.176Y-1.9685
X7.276Y-1.9685
X8.4114Y-1.7717
X8.5114Y-1.7717
X8.6114Y-1.7717
X8.7114Y-1.7717
X8.8114Y-1.7717
X8.9114Y-1.7717
T3
X2.5984Y-2.2328
X2.5984Y-2.4128
X6.8685Y-10.374
X6.9685Y-10.374
X7.0685Y-10.374
X7.3228Y-7.2722
X7.3228Y-7.4522
X7.3228Y-10.3134
X7.3228Y-10.4134
X7.3228Y-10.5134
X10.2657Y-2.2328
X10.2657Y-2.4128
T5
X2.3228Y-1.811
X2.3228Y-10.3937
X10.1969Y-1.811
X10.1969Y-10.3937
T4
X7.6969Y-10.3051G85X7.7756Y-10.3051
G05
X7.6969Y-10.502G85X7.7756Y-10.502
G05
X8.2874Y-10.3051G85X8.3661Y-10.3051
G05
X8.2874Y-10.502G85X8.3661Y-10.502
G05
T0
M30
