G04 (created by PCBNEW (2013-07-07 BZR 4022)-stable) date 9/10/2014 3:29:02 PM*
%MOIN*%
G04 Gerber Fmt 3.4, Leading zero omitted, Abs format*
%FSLAX34Y34*%
G01*
G70*
G90*
G04 APERTURE LIST*
%ADD10C,0.00590551*%
%ADD11R,0.0177X0.0787*%
%ADD12R,0.0787X0.0177*%
%ADD13R,0.0787X0.0236*%
%ADD14R,0.0984252X0.11811*%
%ADD15R,0.035X0.055*%
%ADD16R,0.055X0.035*%
%ADD17C,0.354331*%
G04 APERTURE END LIST*
G54D10*
G54D11*
X52647Y-31423D03*
X52962Y-31423D03*
X53277Y-31423D03*
X53592Y-31423D03*
X53907Y-31423D03*
X54222Y-31423D03*
X54537Y-31423D03*
X54852Y-31423D03*
X54850Y-27657D03*
X52640Y-27657D03*
X52960Y-27657D03*
X53280Y-27657D03*
X53590Y-27657D03*
X53910Y-27657D03*
X54220Y-27657D03*
X54540Y-27657D03*
G54D12*
X55640Y-30639D03*
X55640Y-30325D03*
X55640Y-30009D03*
X55640Y-29695D03*
X55640Y-29379D03*
X55640Y-29065D03*
X55640Y-28749D03*
X55640Y-28435D03*
X51860Y-30637D03*
X51860Y-30327D03*
X51860Y-30007D03*
X51860Y-29697D03*
X51860Y-29387D03*
X51860Y-29067D03*
X51860Y-28747D03*
X51860Y-28427D03*
G54D13*
X34094Y-28127D03*
X34094Y-27627D03*
X34094Y-27127D03*
X34094Y-26627D03*
X34094Y-26127D03*
X34094Y-25627D03*
X34094Y-25127D03*
X34094Y-24627D03*
X37756Y-24627D03*
X37756Y-25127D03*
X37756Y-25627D03*
X37756Y-26127D03*
X37756Y-26627D03*
X37756Y-27127D03*
X37756Y-27627D03*
X37756Y-28127D03*
G54D14*
X51284Y-34744D03*
X53834Y-34744D03*
G54D15*
X53365Y-25984D03*
X54115Y-25984D03*
X53621Y-32972D03*
X54371Y-32972D03*
G54D16*
X50098Y-35945D03*
X50098Y-35195D03*
X55118Y-35215D03*
X55118Y-35965D03*
G54D15*
X50808Y-18700D03*
X50058Y-18700D03*
G54D16*
X38681Y-18778D03*
X38681Y-19528D03*
G54D15*
X31475Y-26968D03*
X32225Y-26968D03*
X31475Y-28346D03*
X32225Y-28346D03*
G54D16*
X39685Y-26750D03*
X39685Y-27500D03*
X39685Y-28997D03*
X39685Y-28247D03*
G54D17*
X33070Y-19094D03*
M02*
