M48
;DRILL file {Pcbnew (2013-07-07 BZR 4022)-stable} date 8/10/2014 10:25:24 PM
;FORMAT={-:-/ absolute / metric / decimal}
FMAT,2
METRIC,TZ
T1C0.635
T2C0.813
T3C1.016
T4C2.000
T5C3.000
T6C3.048
%
G90
G05
M71
T1
X66.75Y-54.25
X83.25Y-70.25
X101.75Y-64.25
X101.75Y-66.
X110.5Y-66.
X121.25Y-68.5
X124.Y-70.25
X130.75Y-68.5
X130.75Y-70.5
X133.5Y-47.75
X136.5Y-75.
X137.75Y-53.25
X141.Y-85.
X146.25Y-44.75
X152.25Y-52.
X155.Y-44.75
X156.25Y-64.75
X157.25Y-66.
X192.5Y-53.25
X202.Y-44.75
X219.5Y-47.25
X221.75Y-47.25
X233.75Y-43.75
T2
X149.48Y-44.75
X152.02Y-44.75
X193.98Y-44.75
X196.52Y-44.75
X237.69Y-43.71
X237.69Y-48.79
X245.31Y-43.71
X245.31Y-48.79
T3
X118.96Y-47.48
X118.96Y-50.02
X119.25Y-85.25
X121.5Y-47.48
X121.5Y-50.02
X123.75Y-85.25
X124.04Y-47.48
X124.04Y-50.02
X126.75Y-85.25
X146.25Y-85.25
X149.25Y-85.25
X212.65Y-44.75
X215.19Y-44.75
X217.73Y-44.75
X220.27Y-44.75
X222.81Y-44.75
X225.35Y-44.75
T4
X73.4Y-48.5
X73.4Y-48.5
X94.6Y-48.5
T5
X59.Y-46.
X59.Y-264.
X259.Y-46.
T6
X259.Y-264.
T3
X144.154Y-266.512G85X144.154Y-264.988
G05
X148.726Y-260.67G85X147.202Y-260.67
G05
X150.25Y-266.512G85X150.25Y-264.988
G05
T0
M30
