G04 (created by PCBNEW (2013-07-07 BZR 4022)-stable) date 8/10/2014 10:25:08 PM*
%MOIN*%
G04 Gerber Fmt 3.4, Leading zero omitted, Abs format*
%FSLAX34Y34*%
G01*
G70*
G90*
G04 APERTURE LIST*
%ADD10C,0.00590551*%
%ADD11R,0.055X0.055*%
%ADD12C,0.055*%
%ADD13C,0.15748*%
%ADD14R,0.19685X0.19685*%
%ADD15R,0.055X0.035*%
%ADD16R,0.035X0.055*%
%ADD17C,0.19685*%
%ADD18R,0.0177X0.0787*%
%ADD19R,0.0787X0.0177*%
%ADD20R,0.0787X0.0236*%
%ADD21R,0.0984252X0.11811*%
%ADD22R,0.06X0.06*%
%ADD23C,0.06*%
%ADD24C,0.16*%
%ADD25C,0.189*%
%ADD26R,0.189X0.189*%
%ADD27C,0.035*%
%ADD28C,0.01*%
G04 APERTURE END LIST*
G54D10*
G54D11*
X58850Y-17618D03*
G54D12*
X59850Y-17618D03*
G54D13*
X28897Y-19094D03*
G54D14*
X33070Y-19094D03*
G54D13*
X28897Y-19094D03*
X37244Y-19094D03*
G54D15*
X42421Y-26792D03*
X42421Y-26042D03*
X41338Y-26792D03*
X41338Y-26042D03*
G54D16*
X31475Y-28346D03*
X32225Y-28346D03*
X31475Y-26968D03*
X32225Y-26968D03*
G54D17*
X23228Y-103937D03*
X23228Y-18110D03*
X101968Y-18110D03*
G54D18*
X52647Y-31423D03*
X52962Y-31423D03*
X53277Y-31423D03*
X53592Y-31423D03*
X53907Y-31423D03*
X54222Y-31423D03*
X54537Y-31423D03*
X54852Y-31423D03*
X54850Y-27657D03*
X52640Y-27657D03*
X52960Y-27657D03*
X53280Y-27657D03*
X53590Y-27657D03*
X53910Y-27657D03*
X54220Y-27657D03*
X54540Y-27657D03*
G54D19*
X55640Y-30639D03*
X55640Y-30325D03*
X55640Y-30009D03*
X55640Y-29695D03*
X55640Y-29379D03*
X55640Y-29065D03*
X55640Y-28749D03*
X55640Y-28435D03*
X51860Y-30637D03*
X51860Y-30327D03*
X51860Y-30007D03*
X51860Y-29697D03*
X51860Y-29387D03*
X51860Y-29067D03*
X51860Y-28747D03*
X51860Y-28427D03*
G54D15*
X38681Y-18778D03*
X38681Y-19528D03*
G54D20*
X34094Y-28127D03*
X34094Y-27627D03*
X34094Y-27127D03*
X34094Y-26627D03*
X34094Y-26127D03*
X34094Y-25627D03*
X34094Y-25127D03*
X34094Y-24627D03*
X37756Y-24627D03*
X37756Y-25127D03*
X37756Y-25627D03*
X37756Y-26127D03*
X37756Y-26627D03*
X37756Y-27127D03*
X37756Y-27627D03*
X37756Y-28127D03*
G54D21*
X51284Y-34744D03*
X53834Y-34744D03*
G54D12*
X93578Y-19208D03*
X93578Y-17208D03*
X96578Y-19208D03*
X96578Y-17208D03*
G54D15*
X50000Y-19508D03*
X50000Y-18758D03*
X55118Y-35215D03*
X55118Y-35965D03*
X50098Y-35945D03*
X50098Y-35195D03*
G54D16*
X54014Y-32775D03*
X54764Y-32775D03*
X53227Y-26476D03*
X53977Y-26476D03*
G54D22*
X83720Y-17618D03*
X84720Y-17618D03*
G54D23*
X85720Y-17618D03*
X86720Y-17618D03*
X87720Y-17618D03*
X88720Y-17618D03*
G54D24*
X101968Y-103937D03*
G54D11*
X76370Y-17618D03*
G54D12*
X77370Y-17618D03*
G54D22*
X46834Y-18692D03*
G54D23*
X46834Y-19692D03*
X47834Y-18692D03*
X47834Y-19692D03*
X48834Y-18692D03*
X48834Y-19692D03*
G54D25*
X59153Y-104625D03*
G54D26*
X56753Y-104625D03*
G54D25*
X58253Y-102625D03*
G54D22*
X58759Y-33562D03*
X57578Y-33562D03*
X49901Y-33562D03*
X48720Y-33562D03*
X46948Y-33562D03*
G54D27*
X57578Y-17618D03*
X61023Y-17618D03*
X79527Y-17618D03*
X75787Y-20964D03*
X54232Y-20964D03*
X26279Y-21358D03*
X48818Y-27657D03*
X51476Y-27755D03*
X92027Y-17224D03*
X86417Y-18602D03*
X47736Y-26968D03*
X51476Y-26968D03*
X43503Y-25984D03*
X61909Y-25984D03*
X61515Y-25492D03*
X40059Y-25295D03*
X59940Y-20472D03*
X87303Y-18602D03*
X53740Y-29527D03*
X52559Y-18799D03*
X40059Y-25984D03*
X32775Y-27657D03*
X55511Y-33464D03*
G54D28*
X54850Y-27657D02*
X54850Y-20346D01*
X54850Y-20346D02*
X57578Y-17618D01*
X55640Y-28749D02*
X56486Y-28749D01*
X61909Y-18503D02*
X61023Y-17618D01*
X61909Y-23326D02*
X61909Y-18503D01*
X56486Y-28749D02*
X61909Y-23326D01*
X54852Y-31423D02*
X56620Y-31423D01*
X56620Y-31423D02*
X58759Y-33562D01*
X54537Y-31423D02*
X54537Y-31899D01*
X56200Y-32185D02*
X57578Y-33562D01*
X54822Y-32185D02*
X56200Y-32185D01*
X54537Y-31899D02*
X54822Y-32185D01*
X51860Y-30637D02*
X51252Y-30637D01*
X49901Y-31988D02*
X49901Y-33562D01*
X51252Y-30637D02*
X49901Y-31988D01*
X51860Y-30327D02*
X50971Y-30327D01*
X48720Y-32578D02*
X48720Y-33562D01*
X50971Y-30327D02*
X48720Y-32578D01*
X51860Y-30007D02*
X50504Y-30007D01*
X50504Y-30007D02*
X46948Y-33562D01*
X54540Y-27657D02*
X54540Y-21272D01*
X79429Y-17716D02*
X79527Y-17618D01*
X79429Y-20177D02*
X79429Y-17716D01*
X78641Y-20964D02*
X79429Y-20177D01*
X75787Y-20964D02*
X78641Y-20964D01*
X54540Y-21272D02*
X54232Y-20964D01*
X55640Y-30639D02*
X67253Y-30639D01*
X27362Y-22440D02*
X26279Y-21358D01*
X27362Y-36417D02*
X27362Y-22440D01*
X29330Y-38385D02*
X27362Y-36417D01*
X67322Y-38385D02*
X29330Y-38385D01*
X68110Y-37598D02*
X67322Y-38385D01*
X68110Y-31496D02*
X68110Y-37598D01*
X67253Y-30639D02*
X68110Y-31496D01*
X51860Y-28427D02*
X51860Y-28139D01*
X48834Y-27641D02*
X48834Y-19692D01*
X48818Y-27657D02*
X48834Y-27641D01*
X51860Y-28139D02*
X51476Y-27755D01*
X51860Y-28747D02*
X51090Y-28747D01*
X47834Y-17716D02*
X47834Y-18692D01*
X48228Y-17322D02*
X47834Y-17716D01*
X53444Y-17322D02*
X48228Y-17322D01*
X53740Y-17618D02*
X53444Y-17322D01*
X53740Y-18405D02*
X53740Y-17618D01*
X50492Y-21653D02*
X53740Y-18405D01*
X50492Y-28149D02*
X50492Y-21653D01*
X51090Y-28747D02*
X50492Y-28149D01*
X55640Y-29695D02*
X80146Y-29695D01*
X81791Y-17618D02*
X80807Y-16633D01*
X81791Y-28051D02*
X81791Y-17618D01*
X80146Y-29695D02*
X81791Y-28051D01*
X92027Y-17224D02*
X92027Y-17125D01*
X34048Y-26673D02*
X34094Y-26627D01*
X33267Y-26673D02*
X34048Y-26673D01*
X33070Y-26476D02*
X33267Y-26673D01*
X33070Y-24212D02*
X33070Y-26476D01*
X34055Y-23228D02*
X33070Y-24212D01*
X37696Y-23228D02*
X34055Y-23228D01*
X91535Y-16633D02*
X80807Y-16633D01*
X92027Y-17125D02*
X91535Y-16633D01*
X42814Y-18110D02*
X37696Y-23228D01*
X80807Y-16633D02*
X44291Y-16633D01*
X44291Y-16633D02*
X42814Y-18110D01*
X42814Y-19389D02*
X42814Y-18110D01*
X43118Y-19692D02*
X42814Y-19389D01*
X46834Y-19692D02*
X43118Y-19692D01*
X55640Y-30009D02*
X86033Y-30009D01*
X86417Y-29330D02*
X86417Y-18602D01*
X86033Y-30009D02*
X86417Y-29330D01*
X52640Y-27657D02*
X52165Y-27657D01*
X47834Y-26870D02*
X47834Y-19692D01*
X47736Y-26968D02*
X47834Y-26870D01*
X52165Y-27657D02*
X51476Y-26968D01*
X43503Y-25984D02*
X43503Y-27066D01*
X42442Y-28127D02*
X37756Y-28127D01*
X43503Y-27066D02*
X42442Y-28127D01*
X42421Y-26042D02*
X43445Y-26042D01*
X58514Y-29379D02*
X55640Y-29379D01*
X58514Y-29379D02*
X61909Y-25984D01*
X43445Y-26042D02*
X43503Y-25984D01*
X41338Y-26042D02*
X40806Y-26042D01*
X40806Y-26042D02*
X40059Y-25295D01*
X37756Y-27627D02*
X38316Y-27627D01*
X58139Y-29065D02*
X61515Y-25492D01*
X58139Y-29065D02*
X55640Y-29065D01*
X38316Y-27627D02*
X40059Y-25295D01*
X55640Y-28435D02*
X55640Y-24773D01*
X55640Y-24773D02*
X59940Y-20472D01*
X55640Y-30325D02*
X86308Y-30325D01*
X87303Y-28937D02*
X87303Y-18602D01*
X86308Y-30325D02*
X87303Y-28937D01*
X53277Y-31423D02*
X53277Y-30344D01*
X53277Y-30147D02*
X53277Y-29990D01*
X53277Y-29990D02*
X53740Y-29527D01*
X48834Y-18692D02*
X49934Y-18692D01*
X49934Y-18692D02*
X50000Y-18758D01*
X52559Y-18799D02*
X50040Y-18799D01*
X50040Y-18799D02*
X50000Y-18758D01*
X41338Y-26792D02*
X40867Y-26792D01*
X40867Y-26792D02*
X40059Y-25984D01*
X42421Y-26792D02*
X41338Y-26792D01*
X53907Y-31423D02*
X53907Y-32667D01*
X53907Y-32667D02*
X54014Y-32775D01*
X52960Y-27657D02*
X52960Y-29830D01*
X52960Y-29830D02*
X53277Y-30147D01*
X53907Y-31423D02*
X53907Y-30974D01*
X53907Y-30974D02*
X53277Y-30344D01*
X53277Y-30344D02*
X53277Y-30147D01*
X31475Y-28346D02*
X31475Y-27973D01*
X31791Y-27657D02*
X32775Y-27657D01*
X31475Y-27973D02*
X31791Y-27657D01*
X31475Y-26968D02*
X31475Y-28346D01*
X32775Y-27657D02*
X34064Y-27657D01*
X34064Y-27657D02*
X34094Y-27627D01*
X54764Y-32775D02*
X54822Y-32775D01*
X54822Y-32775D02*
X55511Y-33464D01*
X53592Y-31423D02*
X53592Y-33218D01*
X54075Y-33464D02*
X54764Y-32775D01*
X53838Y-33464D02*
X54075Y-33464D01*
X53592Y-33218D02*
X53838Y-33464D01*
X53910Y-27657D02*
X53910Y-26543D01*
X53910Y-26543D02*
X53977Y-26476D01*
X54222Y-31423D02*
X54222Y-31937D01*
X54222Y-31937D02*
X54764Y-32775D01*
X32225Y-26968D02*
X32775Y-26968D01*
X32935Y-27127D02*
X34094Y-27127D01*
X32775Y-26968D02*
X32935Y-27127D01*
X50098Y-35195D02*
X50832Y-35195D01*
X50832Y-35195D02*
X51284Y-34744D01*
X51284Y-34744D02*
X51284Y-32786D01*
X51284Y-32786D02*
X52647Y-31423D01*
X32225Y-28346D02*
X32677Y-28346D01*
X32895Y-28127D02*
X34094Y-28127D01*
X32677Y-28346D02*
X32895Y-28127D01*
X52962Y-31423D02*
X52962Y-33872D01*
X52962Y-33872D02*
X53834Y-34744D01*
X53834Y-34744D02*
X54646Y-34744D01*
X54646Y-34744D02*
X55118Y-35215D01*
X28897Y-19094D02*
X28897Y-19547D01*
X35472Y-20866D02*
X37244Y-19094D01*
X30216Y-20866D02*
X35472Y-20866D01*
X28897Y-19547D02*
X30216Y-20866D01*
X28897Y-19094D02*
X28897Y-28011D01*
X36750Y-27127D02*
X37756Y-27127D01*
X36122Y-27755D02*
X36750Y-27127D01*
X36122Y-28543D02*
X36122Y-27755D01*
X35236Y-29429D02*
X36122Y-28543D01*
X30314Y-29429D02*
X35236Y-29429D01*
X28897Y-28011D02*
X30314Y-29429D01*
X37244Y-19094D02*
X37244Y-18759D01*
X37244Y-18759D02*
X37262Y-18778D01*
X37262Y-18778D02*
X38681Y-18778D01*
X53590Y-27657D02*
X53590Y-27212D01*
X53227Y-26849D02*
X53227Y-26476D01*
X53590Y-27212D02*
X53227Y-26849D01*
G54D10*
G36*
X54486Y-32272D02*
X54448Y-32288D01*
X54389Y-32347D01*
X54331Y-32288D01*
X54239Y-32250D01*
X54207Y-32250D01*
X54207Y-31959D01*
X54207Y-31958D01*
X54222Y-31923D01*
X54236Y-31958D01*
X54251Y-31973D01*
X54259Y-32014D01*
X54295Y-32067D01*
X54295Y-32067D01*
X54325Y-32111D01*
X54486Y-32272D01*
X54486Y-32272D01*
G37*
G54D28*
X54486Y-32272D02*
X54448Y-32288D01*
X54389Y-32347D01*
X54331Y-32288D01*
X54239Y-32250D01*
X54207Y-32250D01*
X54207Y-31959D01*
X54207Y-31958D01*
X54222Y-31923D01*
X54236Y-31958D01*
X54251Y-31973D01*
X54259Y-32014D01*
X54295Y-32067D01*
X54295Y-32067D01*
X54325Y-32111D01*
X54486Y-32272D01*
G54D10*
G36*
X81491Y-27926D02*
X80022Y-29395D01*
X79952Y-29395D01*
X79952Y-17533D01*
X79888Y-17377D01*
X79768Y-17258D01*
X79612Y-17193D01*
X79443Y-17193D01*
X79287Y-17257D01*
X79167Y-17377D01*
X79102Y-17533D01*
X79102Y-17702D01*
X79129Y-17766D01*
X79129Y-20052D01*
X78517Y-20664D01*
X77895Y-20664D01*
X77895Y-17514D01*
X77815Y-17321D01*
X77667Y-17173D01*
X77474Y-17093D01*
X77266Y-17093D01*
X77073Y-17172D01*
X76925Y-17320D01*
X76895Y-17392D01*
X76895Y-17293D01*
X76857Y-17201D01*
X76786Y-17131D01*
X76695Y-17093D01*
X76595Y-17093D01*
X76045Y-17093D01*
X75953Y-17131D01*
X75883Y-17201D01*
X75845Y-17293D01*
X75845Y-17392D01*
X75845Y-17942D01*
X75883Y-18034D01*
X75953Y-18104D01*
X76045Y-18143D01*
X76144Y-18143D01*
X76694Y-18143D01*
X76786Y-18105D01*
X76856Y-18034D01*
X76895Y-17943D01*
X76895Y-17843D01*
X76895Y-17843D01*
X76924Y-17915D01*
X77072Y-18062D01*
X77265Y-18143D01*
X77474Y-18143D01*
X77667Y-18063D01*
X77814Y-17915D01*
X77894Y-17722D01*
X77895Y-17514D01*
X77895Y-20664D01*
X76088Y-20664D01*
X76028Y-20604D01*
X75872Y-20539D01*
X75703Y-20539D01*
X75546Y-20604D01*
X75427Y-20723D01*
X75362Y-20879D01*
X75362Y-21048D01*
X75426Y-21204D01*
X75546Y-21324D01*
X75702Y-21389D01*
X75871Y-21389D01*
X76027Y-21325D01*
X76088Y-21264D01*
X78641Y-21264D01*
X78641Y-21264D01*
X78756Y-21241D01*
X78756Y-21241D01*
X78853Y-21176D01*
X79641Y-20389D01*
X79706Y-20291D01*
X79729Y-20177D01*
X79729Y-20177D01*
X79729Y-17994D01*
X79767Y-17978D01*
X79887Y-17859D01*
X79952Y-17703D01*
X79952Y-17533D01*
X79952Y-29395D01*
X58922Y-29395D01*
X61908Y-26409D01*
X61993Y-26409D01*
X62149Y-26344D01*
X62269Y-26225D01*
X62334Y-26069D01*
X62334Y-25900D01*
X62269Y-25743D01*
X62150Y-25624D01*
X61994Y-25559D01*
X61940Y-25559D01*
X61940Y-25407D01*
X61876Y-25251D01*
X61756Y-25132D01*
X61600Y-25067D01*
X61431Y-25067D01*
X61275Y-25131D01*
X61155Y-25251D01*
X61090Y-25407D01*
X61090Y-25507D01*
X58009Y-28765D01*
X56894Y-28765D01*
X62121Y-23538D01*
X62121Y-23538D01*
X62186Y-23441D01*
X62209Y-23326D01*
X62209Y-23326D01*
X62209Y-18503D01*
X62186Y-18389D01*
X62121Y-18291D01*
X62121Y-18291D01*
X61448Y-17618D01*
X61448Y-17533D01*
X61384Y-17377D01*
X61264Y-17258D01*
X61108Y-17193D01*
X60939Y-17193D01*
X60783Y-17257D01*
X60663Y-17377D01*
X60598Y-17533D01*
X60598Y-17702D01*
X60663Y-17858D01*
X60782Y-17978D01*
X60938Y-18043D01*
X61024Y-18043D01*
X61609Y-18628D01*
X61609Y-23202D01*
X60375Y-24436D01*
X60375Y-17514D01*
X60295Y-17321D01*
X60148Y-17173D01*
X59955Y-17093D01*
X59746Y-17093D01*
X59553Y-17172D01*
X59405Y-17320D01*
X59375Y-17392D01*
X59375Y-17293D01*
X59337Y-17201D01*
X59267Y-17131D01*
X59175Y-17093D01*
X59075Y-17093D01*
X58525Y-17093D01*
X58433Y-17131D01*
X58363Y-17201D01*
X58325Y-17293D01*
X58325Y-17392D01*
X58325Y-17942D01*
X58363Y-18034D01*
X58433Y-18104D01*
X58525Y-18143D01*
X58624Y-18143D01*
X59174Y-18143D01*
X59266Y-18105D01*
X59337Y-18034D01*
X59375Y-17943D01*
X59375Y-17843D01*
X59375Y-17843D01*
X59405Y-17915D01*
X59552Y-18062D01*
X59745Y-18143D01*
X59954Y-18143D01*
X60147Y-18063D01*
X60295Y-17915D01*
X60375Y-17722D01*
X60375Y-17514D01*
X60375Y-24436D01*
X56362Y-28449D01*
X56283Y-28449D01*
X56283Y-28297D01*
X56245Y-28205D01*
X56175Y-28135D01*
X56083Y-28097D01*
X55984Y-28097D01*
X55940Y-28097D01*
X55940Y-24897D01*
X59940Y-20897D01*
X60025Y-20897D01*
X60181Y-20832D01*
X60301Y-20713D01*
X60365Y-20557D01*
X60366Y-20388D01*
X60301Y-20232D01*
X60182Y-20112D01*
X60025Y-20047D01*
X59856Y-20047D01*
X59700Y-20111D01*
X59580Y-20231D01*
X59516Y-20387D01*
X59515Y-20473D01*
X55428Y-24561D01*
X55362Y-24658D01*
X55340Y-24773D01*
X55340Y-28097D01*
X55197Y-28097D01*
X55188Y-28100D01*
X55188Y-28001D01*
X55188Y-27214D01*
X55150Y-27122D01*
X55150Y-27122D01*
X55150Y-20470D01*
X57578Y-18043D01*
X57662Y-18043D01*
X57819Y-17978D01*
X57938Y-17859D01*
X58003Y-17703D01*
X58003Y-17533D01*
X57939Y-17377D01*
X57819Y-17258D01*
X57663Y-17193D01*
X57494Y-17193D01*
X57338Y-17257D01*
X57218Y-17377D01*
X57153Y-17533D01*
X57153Y-17618D01*
X54638Y-20134D01*
X54572Y-20231D01*
X54550Y-20346D01*
X54550Y-20681D01*
X54473Y-20604D01*
X54317Y-20539D01*
X54148Y-20539D01*
X53991Y-20604D01*
X53872Y-20723D01*
X53807Y-20879D01*
X53807Y-21048D01*
X53871Y-21204D01*
X53991Y-21324D01*
X54147Y-21389D01*
X54233Y-21389D01*
X54240Y-21396D01*
X54240Y-25967D01*
X54201Y-25951D01*
X54089Y-25951D01*
X54027Y-26013D01*
X54027Y-26426D01*
X54035Y-26426D01*
X54035Y-26526D01*
X54027Y-26526D01*
X54027Y-26938D01*
X54089Y-27001D01*
X54201Y-27001D01*
X54240Y-26985D01*
X54240Y-27014D01*
X54082Y-27014D01*
X54065Y-27021D01*
X54048Y-27014D01*
X54016Y-27014D01*
X53954Y-27076D01*
X53954Y-27087D01*
X53919Y-27122D01*
X53905Y-27157D01*
X53890Y-27122D01*
X53867Y-27099D01*
X53867Y-27097D01*
X53865Y-27095D01*
X53865Y-27076D01*
X53828Y-27038D01*
X53828Y-27038D01*
X53811Y-27014D01*
X53811Y-27014D01*
X53803Y-27001D01*
X53864Y-27001D01*
X53927Y-26938D01*
X53927Y-26526D01*
X53919Y-26526D01*
X53919Y-26426D01*
X53927Y-26426D01*
X53927Y-26013D01*
X53864Y-25951D01*
X53752Y-25951D01*
X53660Y-25989D01*
X53602Y-26047D01*
X53544Y-25989D01*
X53452Y-25951D01*
X53352Y-25951D01*
X53002Y-25951D01*
X52910Y-25989D01*
X52840Y-26059D01*
X52802Y-26151D01*
X52802Y-26250D01*
X52802Y-26800D01*
X52840Y-26892D01*
X52910Y-26963D01*
X52964Y-26985D01*
X52983Y-27014D01*
X52822Y-27014D01*
X52800Y-27023D01*
X52778Y-27014D01*
X52679Y-27014D01*
X52502Y-27014D01*
X52410Y-27051D01*
X52339Y-27122D01*
X52301Y-27214D01*
X52301Y-27313D01*
X52301Y-27357D01*
X52289Y-27357D01*
X51901Y-26969D01*
X51901Y-26884D01*
X51836Y-26728D01*
X51717Y-26608D01*
X51561Y-26543D01*
X51392Y-26543D01*
X51235Y-26607D01*
X51116Y-26727D01*
X51051Y-26883D01*
X51051Y-27052D01*
X51115Y-27208D01*
X51235Y-27328D01*
X51316Y-27362D01*
X51235Y-27395D01*
X51116Y-27514D01*
X51051Y-27670D01*
X51051Y-27840D01*
X51115Y-27996D01*
X51235Y-28115D01*
X51306Y-28145D01*
X51254Y-28197D01*
X51216Y-28289D01*
X51216Y-28388D01*
X51216Y-28447D01*
X51214Y-28447D01*
X50792Y-28025D01*
X50792Y-21777D01*
X53952Y-18617D01*
X53952Y-18617D01*
X54017Y-18520D01*
X54040Y-18405D01*
X54040Y-18405D01*
X54040Y-17618D01*
X54017Y-17503D01*
X53952Y-17405D01*
X53657Y-17110D01*
X53559Y-17045D01*
X53444Y-17022D01*
X48228Y-17022D01*
X48113Y-17045D01*
X48016Y-17110D01*
X47622Y-17504D01*
X47557Y-17601D01*
X47534Y-17716D01*
X47534Y-18221D01*
X47523Y-18226D01*
X47384Y-18365D01*
X47384Y-18342D01*
X47346Y-18251D01*
X47276Y-18180D01*
X47184Y-18142D01*
X46947Y-18142D01*
X46884Y-18205D01*
X46884Y-18642D01*
X46892Y-18642D01*
X46892Y-18742D01*
X46884Y-18742D01*
X46884Y-18750D01*
X46784Y-18750D01*
X46784Y-18742D01*
X46784Y-18642D01*
X46784Y-18205D01*
X46722Y-18142D01*
X46485Y-18142D01*
X46393Y-18180D01*
X46322Y-18251D01*
X46284Y-18342D01*
X46284Y-18442D01*
X46284Y-18580D01*
X46347Y-18642D01*
X46784Y-18642D01*
X46784Y-18742D01*
X46347Y-18742D01*
X46284Y-18805D01*
X46284Y-18943D01*
X46284Y-19042D01*
X46322Y-19134D01*
X46393Y-19204D01*
X46485Y-19242D01*
X46506Y-19242D01*
X46368Y-19380D01*
X46363Y-19392D01*
X43242Y-19392D01*
X43114Y-19265D01*
X43114Y-18234D01*
X44415Y-16933D01*
X80682Y-16933D01*
X81491Y-17742D01*
X81491Y-27926D01*
X81491Y-27926D01*
G37*
G54D28*
X81491Y-27926D02*
X80022Y-29395D01*
X79952Y-29395D01*
X79952Y-17533D01*
X79888Y-17377D01*
X79768Y-17258D01*
X79612Y-17193D01*
X79443Y-17193D01*
X79287Y-17257D01*
X79167Y-17377D01*
X79102Y-17533D01*
X79102Y-17702D01*
X79129Y-17766D01*
X79129Y-20052D01*
X78517Y-20664D01*
X77895Y-20664D01*
X77895Y-17514D01*
X77815Y-17321D01*
X77667Y-17173D01*
X77474Y-17093D01*
X77266Y-17093D01*
X77073Y-17172D01*
X76925Y-17320D01*
X76895Y-17392D01*
X76895Y-17293D01*
X76857Y-17201D01*
X76786Y-17131D01*
X76695Y-17093D01*
X76595Y-17093D01*
X76045Y-17093D01*
X75953Y-17131D01*
X75883Y-17201D01*
X75845Y-17293D01*
X75845Y-17392D01*
X75845Y-17942D01*
X75883Y-18034D01*
X75953Y-18104D01*
X76045Y-18143D01*
X76144Y-18143D01*
X76694Y-18143D01*
X76786Y-18105D01*
X76856Y-18034D01*
X76895Y-17943D01*
X76895Y-17843D01*
X76895Y-17843D01*
X76924Y-17915D01*
X77072Y-18062D01*
X77265Y-18143D01*
X77474Y-18143D01*
X77667Y-18063D01*
X77814Y-17915D01*
X77894Y-17722D01*
X77895Y-17514D01*
X77895Y-20664D01*
X76088Y-20664D01*
X76028Y-20604D01*
X75872Y-20539D01*
X75703Y-20539D01*
X75546Y-20604D01*
X75427Y-20723D01*
X75362Y-20879D01*
X75362Y-21048D01*
X75426Y-21204D01*
X75546Y-21324D01*
X75702Y-21389D01*
X75871Y-21389D01*
X76027Y-21325D01*
X76088Y-21264D01*
X78641Y-21264D01*
X78641Y-21264D01*
X78756Y-21241D01*
X78756Y-21241D01*
X78853Y-21176D01*
X79641Y-20389D01*
X79706Y-20291D01*
X79729Y-20177D01*
X79729Y-20177D01*
X79729Y-17994D01*
X79767Y-17978D01*
X79887Y-17859D01*
X79952Y-17703D01*
X79952Y-17533D01*
X79952Y-29395D01*
X58922Y-29395D01*
X61908Y-26409D01*
X61993Y-26409D01*
X62149Y-26344D01*
X62269Y-26225D01*
X62334Y-26069D01*
X62334Y-25900D01*
X62269Y-25743D01*
X62150Y-25624D01*
X61994Y-25559D01*
X61940Y-25559D01*
X61940Y-25407D01*
X61876Y-25251D01*
X61756Y-25132D01*
X61600Y-25067D01*
X61431Y-25067D01*
X61275Y-25131D01*
X61155Y-25251D01*
X61090Y-25407D01*
X61090Y-25507D01*
X58009Y-28765D01*
X56894Y-28765D01*
X62121Y-23538D01*
X62121Y-23538D01*
X62186Y-23441D01*
X62209Y-23326D01*
X62209Y-23326D01*
X62209Y-18503D01*
X62186Y-18389D01*
X62121Y-18291D01*
X62121Y-18291D01*
X61448Y-17618D01*
X61448Y-17533D01*
X61384Y-17377D01*
X61264Y-17258D01*
X61108Y-17193D01*
X60939Y-17193D01*
X60783Y-17257D01*
X60663Y-17377D01*
X60598Y-17533D01*
X60598Y-17702D01*
X60663Y-17858D01*
X60782Y-17978D01*
X60938Y-18043D01*
X61024Y-18043D01*
X61609Y-18628D01*
X61609Y-23202D01*
X60375Y-24436D01*
X60375Y-17514D01*
X60295Y-17321D01*
X60148Y-17173D01*
X59955Y-17093D01*
X59746Y-17093D01*
X59553Y-17172D01*
X59405Y-17320D01*
X59375Y-17392D01*
X59375Y-17293D01*
X59337Y-17201D01*
X59267Y-17131D01*
X59175Y-17093D01*
X59075Y-17093D01*
X58525Y-17093D01*
X58433Y-17131D01*
X58363Y-17201D01*
X58325Y-17293D01*
X58325Y-17392D01*
X58325Y-17942D01*
X58363Y-18034D01*
X58433Y-18104D01*
X58525Y-18143D01*
X58624Y-18143D01*
X59174Y-18143D01*
X59266Y-18105D01*
X59337Y-18034D01*
X59375Y-17943D01*
X59375Y-17843D01*
X59375Y-17843D01*
X59405Y-17915D01*
X59552Y-18062D01*
X59745Y-18143D01*
X59954Y-18143D01*
X60147Y-18063D01*
X60295Y-17915D01*
X60375Y-17722D01*
X60375Y-17514D01*
X60375Y-24436D01*
X56362Y-28449D01*
X56283Y-28449D01*
X56283Y-28297D01*
X56245Y-28205D01*
X56175Y-28135D01*
X56083Y-28097D01*
X55984Y-28097D01*
X55940Y-28097D01*
X55940Y-24897D01*
X59940Y-20897D01*
X60025Y-20897D01*
X60181Y-20832D01*
X60301Y-20713D01*
X60365Y-20557D01*
X60366Y-20388D01*
X60301Y-20232D01*
X60182Y-20112D01*
X60025Y-20047D01*
X59856Y-20047D01*
X59700Y-20111D01*
X59580Y-20231D01*
X59516Y-20387D01*
X59515Y-20473D01*
X55428Y-24561D01*
X55362Y-24658D01*
X55340Y-24773D01*
X55340Y-28097D01*
X55197Y-28097D01*
X55188Y-28100D01*
X55188Y-28001D01*
X55188Y-27214D01*
X55150Y-27122D01*
X55150Y-27122D01*
X55150Y-20470D01*
X57578Y-18043D01*
X57662Y-18043D01*
X57819Y-17978D01*
X57938Y-17859D01*
X58003Y-17703D01*
X58003Y-17533D01*
X57939Y-17377D01*
X57819Y-17258D01*
X57663Y-17193D01*
X57494Y-17193D01*
X57338Y-17257D01*
X57218Y-17377D01*
X57153Y-17533D01*
X57153Y-17618D01*
X54638Y-20134D01*
X54572Y-20231D01*
X54550Y-20346D01*
X54550Y-20681D01*
X54473Y-20604D01*
X54317Y-20539D01*
X54148Y-20539D01*
X53991Y-20604D01*
X53872Y-20723D01*
X53807Y-20879D01*
X53807Y-21048D01*
X53871Y-21204D01*
X53991Y-21324D01*
X54147Y-21389D01*
X54233Y-21389D01*
X54240Y-21396D01*
X54240Y-25967D01*
X54201Y-25951D01*
X54089Y-25951D01*
X54027Y-26013D01*
X54027Y-26426D01*
X54035Y-26426D01*
X54035Y-26526D01*
X54027Y-26526D01*
X54027Y-26938D01*
X54089Y-27001D01*
X54201Y-27001D01*
X54240Y-26985D01*
X54240Y-27014D01*
X54082Y-27014D01*
X54065Y-27021D01*
X54048Y-27014D01*
X54016Y-27014D01*
X53954Y-27076D01*
X53954Y-27087D01*
X53919Y-27122D01*
X53905Y-27157D01*
X53890Y-27122D01*
X53867Y-27099D01*
X53867Y-27097D01*
X53865Y-27095D01*
X53865Y-27076D01*
X53828Y-27038D01*
X53828Y-27038D01*
X53811Y-27014D01*
X53811Y-27014D01*
X53803Y-27001D01*
X53864Y-27001D01*
X53927Y-26938D01*
X53927Y-26526D01*
X53919Y-26526D01*
X53919Y-26426D01*
X53927Y-26426D01*
X53927Y-26013D01*
X53864Y-25951D01*
X53752Y-25951D01*
X53660Y-25989D01*
X53602Y-26047D01*
X53544Y-25989D01*
X53452Y-25951D01*
X53352Y-25951D01*
X53002Y-25951D01*
X52910Y-25989D01*
X52840Y-26059D01*
X52802Y-26151D01*
X52802Y-26250D01*
X52802Y-26800D01*
X52840Y-26892D01*
X52910Y-26963D01*
X52964Y-26985D01*
X52983Y-27014D01*
X52822Y-27014D01*
X52800Y-27023D01*
X52778Y-27014D01*
X52679Y-27014D01*
X52502Y-27014D01*
X52410Y-27051D01*
X52339Y-27122D01*
X52301Y-27214D01*
X52301Y-27313D01*
X52301Y-27357D01*
X52289Y-27357D01*
X51901Y-26969D01*
X51901Y-26884D01*
X51836Y-26728D01*
X51717Y-26608D01*
X51561Y-26543D01*
X51392Y-26543D01*
X51235Y-26607D01*
X51116Y-26727D01*
X51051Y-26883D01*
X51051Y-27052D01*
X51115Y-27208D01*
X51235Y-27328D01*
X51316Y-27362D01*
X51235Y-27395D01*
X51116Y-27514D01*
X51051Y-27670D01*
X51051Y-27840D01*
X51115Y-27996D01*
X51235Y-28115D01*
X51306Y-28145D01*
X51254Y-28197D01*
X51216Y-28289D01*
X51216Y-28388D01*
X51216Y-28447D01*
X51214Y-28447D01*
X50792Y-28025D01*
X50792Y-21777D01*
X53952Y-18617D01*
X53952Y-18617D01*
X54017Y-18520D01*
X54040Y-18405D01*
X54040Y-18405D01*
X54040Y-17618D01*
X54017Y-17503D01*
X53952Y-17405D01*
X53657Y-17110D01*
X53559Y-17045D01*
X53444Y-17022D01*
X48228Y-17022D01*
X48113Y-17045D01*
X48016Y-17110D01*
X47622Y-17504D01*
X47557Y-17601D01*
X47534Y-17716D01*
X47534Y-18221D01*
X47523Y-18226D01*
X47384Y-18365D01*
X47384Y-18342D01*
X47346Y-18251D01*
X47276Y-18180D01*
X47184Y-18142D01*
X46947Y-18142D01*
X46884Y-18205D01*
X46884Y-18642D01*
X46892Y-18642D01*
X46892Y-18742D01*
X46884Y-18742D01*
X46884Y-18750D01*
X46784Y-18750D01*
X46784Y-18742D01*
X46784Y-18642D01*
X46784Y-18205D01*
X46722Y-18142D01*
X46485Y-18142D01*
X46393Y-18180D01*
X46322Y-18251D01*
X46284Y-18342D01*
X46284Y-18442D01*
X46284Y-18580D01*
X46347Y-18642D01*
X46784Y-18642D01*
X46784Y-18742D01*
X46347Y-18742D01*
X46284Y-18805D01*
X46284Y-18943D01*
X46284Y-19042D01*
X46322Y-19134D01*
X46393Y-19204D01*
X46485Y-19242D01*
X46506Y-19242D01*
X46368Y-19380D01*
X46363Y-19392D01*
X43242Y-19392D01*
X43114Y-19265D01*
X43114Y-18234D01*
X44415Y-16933D01*
X80682Y-16933D01*
X81491Y-17742D01*
X81491Y-27926D01*
G54D10*
G36*
X103667Y-105635D02*
X103202Y-105635D01*
X103202Y-17865D01*
X103015Y-17412D01*
X102668Y-17064D01*
X102215Y-16876D01*
X101724Y-16875D01*
X101270Y-17063D01*
X100922Y-17410D01*
X100734Y-17863D01*
X100734Y-18354D01*
X100921Y-18808D01*
X101268Y-19155D01*
X101721Y-19344D01*
X102212Y-19344D01*
X102666Y-19157D01*
X103014Y-18810D01*
X103202Y-18356D01*
X103202Y-17865D01*
X103202Y-105635D01*
X103018Y-105635D01*
X103018Y-103729D01*
X102859Y-103343D01*
X102564Y-103047D01*
X102178Y-102887D01*
X101760Y-102886D01*
X101374Y-103046D01*
X101078Y-103341D01*
X100918Y-103727D01*
X100918Y-104144D01*
X101077Y-104531D01*
X101372Y-104826D01*
X101758Y-104986D01*
X102176Y-104987D01*
X102562Y-104827D01*
X102858Y-104532D01*
X103018Y-104146D01*
X103018Y-103729D01*
X103018Y-105635D01*
X97108Y-105635D01*
X97108Y-19284D01*
X97103Y-19196D01*
X97103Y-17104D01*
X97024Y-16911D01*
X96876Y-16763D01*
X96683Y-16683D01*
X96474Y-16683D01*
X96281Y-16763D01*
X96133Y-16910D01*
X96053Y-17103D01*
X96053Y-17312D01*
X96133Y-17505D01*
X96280Y-17653D01*
X96473Y-17733D01*
X96682Y-17733D01*
X96875Y-17653D01*
X97023Y-17506D01*
X97103Y-17313D01*
X97103Y-17104D01*
X97103Y-19196D01*
X97097Y-19075D01*
X97039Y-18935D01*
X96946Y-18911D01*
X96875Y-18982D01*
X96875Y-18840D01*
X96851Y-18748D01*
X96654Y-18678D01*
X96445Y-18690D01*
X96305Y-18748D01*
X96281Y-18840D01*
X96578Y-19137D01*
X96875Y-18840D01*
X96875Y-18982D01*
X96649Y-19208D01*
X96946Y-19505D01*
X97039Y-19481D01*
X97108Y-19284D01*
X97108Y-105635D01*
X96875Y-105635D01*
X96875Y-19576D01*
X96578Y-19279D01*
X96508Y-19350D01*
X96508Y-19208D01*
X96210Y-18911D01*
X96118Y-18935D01*
X96048Y-19132D01*
X96060Y-19341D01*
X96118Y-19481D01*
X96210Y-19505D01*
X96508Y-19208D01*
X96508Y-19350D01*
X96281Y-19576D01*
X96305Y-19669D01*
X96502Y-19738D01*
X96711Y-19727D01*
X96851Y-19669D01*
X96875Y-19576D01*
X96875Y-105635D01*
X94108Y-105635D01*
X94108Y-19284D01*
X94103Y-19196D01*
X94103Y-17104D01*
X94024Y-16911D01*
X93876Y-16763D01*
X93683Y-16683D01*
X93474Y-16683D01*
X93281Y-16763D01*
X93133Y-16910D01*
X93053Y-17103D01*
X93053Y-17312D01*
X93133Y-17505D01*
X93280Y-17653D01*
X93473Y-17733D01*
X93682Y-17733D01*
X93875Y-17653D01*
X94023Y-17506D01*
X94103Y-17313D01*
X94103Y-17104D01*
X94103Y-19196D01*
X94097Y-19075D01*
X94039Y-18935D01*
X93946Y-18911D01*
X93875Y-18982D01*
X93875Y-18840D01*
X93851Y-18748D01*
X93654Y-18678D01*
X93445Y-18690D01*
X93305Y-18748D01*
X93281Y-18840D01*
X93578Y-19137D01*
X93875Y-18840D01*
X93875Y-18982D01*
X93649Y-19208D01*
X93946Y-19505D01*
X94039Y-19481D01*
X94108Y-19284D01*
X94108Y-105635D01*
X93875Y-105635D01*
X93875Y-19576D01*
X93578Y-19279D01*
X93508Y-19350D01*
X93508Y-19208D01*
X93210Y-18911D01*
X93118Y-18935D01*
X93048Y-19132D01*
X93060Y-19341D01*
X93118Y-19481D01*
X93210Y-19505D01*
X93508Y-19208D01*
X93508Y-19350D01*
X93281Y-19576D01*
X93305Y-19669D01*
X93502Y-19738D01*
X93711Y-19727D01*
X93851Y-19669D01*
X93875Y-19576D01*
X93875Y-105635D01*
X89270Y-105635D01*
X89270Y-17509D01*
X89187Y-17306D01*
X89032Y-17152D01*
X88830Y-17068D01*
X88611Y-17068D01*
X88409Y-17151D01*
X88254Y-17306D01*
X88220Y-17387D01*
X88187Y-17306D01*
X88032Y-17152D01*
X87830Y-17068D01*
X87611Y-17068D01*
X87409Y-17151D01*
X87254Y-17306D01*
X87220Y-17387D01*
X87187Y-17306D01*
X87032Y-17152D01*
X86830Y-17068D01*
X86611Y-17068D01*
X86409Y-17151D01*
X86254Y-17306D01*
X86220Y-17387D01*
X86187Y-17306D01*
X86032Y-17152D01*
X85830Y-17068D01*
X85611Y-17068D01*
X85409Y-17151D01*
X85270Y-17290D01*
X85270Y-17268D01*
X85232Y-17176D01*
X85161Y-17106D01*
X85069Y-17068D01*
X84832Y-17068D01*
X84770Y-17130D01*
X84770Y-17568D01*
X84778Y-17568D01*
X84778Y-17668D01*
X84770Y-17668D01*
X84770Y-18105D01*
X84832Y-18168D01*
X85069Y-18168D01*
X85161Y-18130D01*
X85232Y-18059D01*
X85270Y-17968D01*
X85270Y-17945D01*
X85408Y-18084D01*
X85610Y-18168D01*
X85829Y-18168D01*
X86031Y-18084D01*
X86186Y-17930D01*
X86220Y-17848D01*
X86253Y-17929D01*
X86408Y-18084D01*
X86610Y-18168D01*
X86829Y-18168D01*
X87031Y-18084D01*
X87186Y-17930D01*
X87220Y-17848D01*
X87253Y-17929D01*
X87408Y-18084D01*
X87610Y-18168D01*
X87829Y-18168D01*
X88031Y-18084D01*
X88186Y-17930D01*
X88220Y-17848D01*
X88253Y-17929D01*
X88408Y-18084D01*
X88610Y-18168D01*
X88829Y-18168D01*
X89031Y-18084D01*
X89186Y-17930D01*
X89270Y-17727D01*
X89270Y-17509D01*
X89270Y-105635D01*
X60348Y-105635D01*
X60348Y-104861D01*
X60348Y-104386D01*
X60167Y-103950D01*
X60005Y-103844D01*
X59224Y-104625D01*
X60005Y-105407D01*
X60167Y-105301D01*
X60348Y-104861D01*
X60348Y-105635D01*
X59831Y-105635D01*
X59934Y-105477D01*
X59153Y-104696D01*
X59082Y-104767D01*
X58372Y-105477D01*
X58475Y-105635D01*
X57942Y-105635D01*
X57948Y-105620D01*
X57948Y-105521D01*
X57948Y-103792D01*
X58017Y-103821D01*
X58277Y-103820D01*
X58301Y-103844D01*
X58139Y-103950D01*
X57958Y-104390D01*
X57958Y-104865D01*
X58139Y-105301D01*
X58301Y-105407D01*
X59082Y-104625D01*
X59077Y-104620D01*
X59147Y-104549D01*
X59153Y-104555D01*
X59934Y-103774D01*
X59828Y-103611D01*
X59448Y-103455D01*
X59389Y-103430D01*
X59129Y-103431D01*
X59105Y-103407D01*
X59267Y-103301D01*
X59448Y-102861D01*
X59448Y-102386D01*
X59267Y-101950D01*
X59105Y-101844D01*
X59034Y-101915D01*
X59034Y-101774D01*
X58928Y-101611D01*
X58489Y-101430D01*
X58013Y-101431D01*
X57578Y-101611D01*
X57472Y-101774D01*
X58253Y-102555D01*
X59034Y-101774D01*
X59034Y-101915D01*
X58324Y-102625D01*
X58329Y-102631D01*
X58259Y-102702D01*
X58253Y-102696D01*
X58247Y-102702D01*
X58182Y-102637D01*
X58177Y-102631D01*
X58182Y-102625D01*
X57401Y-101844D01*
X57239Y-101950D01*
X57058Y-102390D01*
X57058Y-102865D01*
X57239Y-103301D01*
X57401Y-103407D01*
X57377Y-103430D01*
X55759Y-103430D01*
X55667Y-103468D01*
X55596Y-103539D01*
X55558Y-103631D01*
X55558Y-103730D01*
X55558Y-105620D01*
X55564Y-105635D01*
X24462Y-105635D01*
X24462Y-103692D01*
X24462Y-17865D01*
X24275Y-17412D01*
X23928Y-17064D01*
X23474Y-16876D01*
X22983Y-16875D01*
X22530Y-17063D01*
X22182Y-17410D01*
X21994Y-17863D01*
X21993Y-18354D01*
X22181Y-18808D01*
X22528Y-19155D01*
X22981Y-19344D01*
X23472Y-19344D01*
X23926Y-19157D01*
X24274Y-18810D01*
X24462Y-18356D01*
X24462Y-17865D01*
X24462Y-103692D01*
X24275Y-103238D01*
X23928Y-102891D01*
X23474Y-102702D01*
X22983Y-102702D01*
X22530Y-102890D01*
X22182Y-103236D01*
X21994Y-103690D01*
X21993Y-104181D01*
X22181Y-104635D01*
X22528Y-104982D01*
X22981Y-105171D01*
X23472Y-105171D01*
X23926Y-104983D01*
X24274Y-104637D01*
X24462Y-104183D01*
X24462Y-103692D01*
X24462Y-105635D01*
X21529Y-105635D01*
X21529Y-16411D01*
X30036Y-16411D01*
X31317Y-17265D01*
X31322Y-17271D01*
X31420Y-17311D01*
X33017Y-17630D01*
X33122Y-17630D01*
X33129Y-17628D01*
X34714Y-17311D01*
X34721Y-17311D01*
X34818Y-17271D01*
X36107Y-16411D01*
X44094Y-16411D01*
X44079Y-16421D01*
X42602Y-17898D01*
X42602Y-17898D01*
X39206Y-21294D01*
X39206Y-19753D01*
X39206Y-19641D01*
X39143Y-19578D01*
X38731Y-19578D01*
X38731Y-19891D01*
X38793Y-19953D01*
X38906Y-19953D01*
X39006Y-19953D01*
X39097Y-19915D01*
X39168Y-19844D01*
X39206Y-19753D01*
X39206Y-21294D01*
X38631Y-21869D01*
X37572Y-22928D01*
X34055Y-22928D01*
X33940Y-22951D01*
X33842Y-23016D01*
X32858Y-24000D01*
X32793Y-24097D01*
X32770Y-24212D01*
X32770Y-26476D01*
X32793Y-26591D01*
X32856Y-26684D01*
X32775Y-26668D01*
X32650Y-26668D01*
X32650Y-26643D01*
X32612Y-26552D01*
X32542Y-26481D01*
X32450Y-26443D01*
X32350Y-26443D01*
X32000Y-26443D01*
X31908Y-26481D01*
X31850Y-26539D01*
X31792Y-26481D01*
X31700Y-26443D01*
X31600Y-26443D01*
X31250Y-26443D01*
X31158Y-26481D01*
X31088Y-26551D01*
X31050Y-26643D01*
X31050Y-26743D01*
X31050Y-27293D01*
X31088Y-27384D01*
X31158Y-27455D01*
X31175Y-27462D01*
X31175Y-27852D01*
X31158Y-27859D01*
X31088Y-27929D01*
X31050Y-28021D01*
X31050Y-28120D01*
X31050Y-28670D01*
X31088Y-28762D01*
X31158Y-28833D01*
X31250Y-28871D01*
X31349Y-28871D01*
X31699Y-28871D01*
X31791Y-28833D01*
X31850Y-28775D01*
X31908Y-28833D01*
X32000Y-28871D01*
X32099Y-28871D01*
X32449Y-28871D01*
X32541Y-28833D01*
X32612Y-28763D01*
X32650Y-28671D01*
X32650Y-28646D01*
X32677Y-28646D01*
X32677Y-28646D01*
X32791Y-28623D01*
X32791Y-28623D01*
X32889Y-28558D01*
X33019Y-28427D01*
X33529Y-28427D01*
X33558Y-28457D01*
X33650Y-28495D01*
X33750Y-28495D01*
X34537Y-28495D01*
X34629Y-28458D01*
X34699Y-28387D01*
X34737Y-28295D01*
X34737Y-28196D01*
X34737Y-27960D01*
X34703Y-27877D01*
X34737Y-27795D01*
X34737Y-27696D01*
X34737Y-27460D01*
X34703Y-27377D01*
X34737Y-27295D01*
X34737Y-27196D01*
X34737Y-26960D01*
X34703Y-26877D01*
X34737Y-26795D01*
X34737Y-26696D01*
X34737Y-26460D01*
X34703Y-26377D01*
X34737Y-26295D01*
X34737Y-25960D01*
X34703Y-25877D01*
X34737Y-25795D01*
X34737Y-25460D01*
X34703Y-25377D01*
X34737Y-25295D01*
X34737Y-24960D01*
X34703Y-24877D01*
X34737Y-24795D01*
X34737Y-24460D01*
X34699Y-24368D01*
X34629Y-24298D01*
X34537Y-24259D01*
X34438Y-24259D01*
X34206Y-24259D01*
X34144Y-24322D01*
X34144Y-24577D01*
X34675Y-24577D01*
X34737Y-24515D01*
X34737Y-24460D01*
X34737Y-24795D01*
X34737Y-24740D01*
X34675Y-24677D01*
X34144Y-24677D01*
X34144Y-24822D01*
X34144Y-24933D01*
X34144Y-25077D01*
X34675Y-25077D01*
X34737Y-25015D01*
X34737Y-24960D01*
X34737Y-25295D01*
X34737Y-25240D01*
X34675Y-25177D01*
X34144Y-25177D01*
X34144Y-25322D01*
X34144Y-25433D01*
X34144Y-25577D01*
X34675Y-25577D01*
X34737Y-25515D01*
X34737Y-25460D01*
X34737Y-25795D01*
X34737Y-25740D01*
X34675Y-25677D01*
X34144Y-25677D01*
X34144Y-25822D01*
X34144Y-25933D01*
X34144Y-26077D01*
X34675Y-26077D01*
X34737Y-26015D01*
X34737Y-25960D01*
X34737Y-26295D01*
X34737Y-26240D01*
X34675Y-26177D01*
X34144Y-26177D01*
X34144Y-26185D01*
X34044Y-26185D01*
X34044Y-26177D01*
X34044Y-26077D01*
X34044Y-25933D01*
X34044Y-25822D01*
X34044Y-25677D01*
X34044Y-25577D01*
X34044Y-25433D01*
X34044Y-25322D01*
X34044Y-25177D01*
X34044Y-25077D01*
X34044Y-24933D01*
X34044Y-24822D01*
X34044Y-24677D01*
X34044Y-24577D01*
X34044Y-24322D01*
X33981Y-24259D01*
X33750Y-24259D01*
X33650Y-24259D01*
X33558Y-24298D01*
X33488Y-24368D01*
X33450Y-24460D01*
X33450Y-24515D01*
X33513Y-24577D01*
X34044Y-24577D01*
X34044Y-24677D01*
X33513Y-24677D01*
X33450Y-24740D01*
X33450Y-24795D01*
X33484Y-24877D01*
X33450Y-24960D01*
X33450Y-25015D01*
X33513Y-25077D01*
X34044Y-25077D01*
X34044Y-25177D01*
X33513Y-25177D01*
X33450Y-25240D01*
X33450Y-25295D01*
X33484Y-25377D01*
X33450Y-25460D01*
X33450Y-25515D01*
X33513Y-25577D01*
X34044Y-25577D01*
X34044Y-25677D01*
X33513Y-25677D01*
X33450Y-25740D01*
X33450Y-25795D01*
X33484Y-25877D01*
X33450Y-25960D01*
X33450Y-26015D01*
X33513Y-26077D01*
X34044Y-26077D01*
X34044Y-26177D01*
X33513Y-26177D01*
X33450Y-26240D01*
X33450Y-26295D01*
X33482Y-26373D01*
X33391Y-26373D01*
X33370Y-26352D01*
X33370Y-24336D01*
X34179Y-23528D01*
X37696Y-23528D01*
X37696Y-23528D01*
X37811Y-23505D01*
X37811Y-23505D01*
X37908Y-23440D01*
X42514Y-18834D01*
X42514Y-19389D01*
X42537Y-19504D01*
X42602Y-19601D01*
X42905Y-19905D01*
X42905Y-19905D01*
X43003Y-19970D01*
X43118Y-19992D01*
X46363Y-19992D01*
X46368Y-20004D01*
X46522Y-20158D01*
X46724Y-20242D01*
X46943Y-20243D01*
X47145Y-20159D01*
X47300Y-20004D01*
X47334Y-19923D01*
X47368Y-20004D01*
X47522Y-20158D01*
X47534Y-20163D01*
X47534Y-26591D01*
X47495Y-26607D01*
X47376Y-26727D01*
X47311Y-26883D01*
X47311Y-27052D01*
X47375Y-27208D01*
X47495Y-27328D01*
X47651Y-27393D01*
X47820Y-27393D01*
X47976Y-27329D01*
X48096Y-27209D01*
X48161Y-27053D01*
X48161Y-26884D01*
X48134Y-26819D01*
X48134Y-20164D01*
X48145Y-20159D01*
X48300Y-20004D01*
X48334Y-19923D01*
X48368Y-20004D01*
X48522Y-20158D01*
X48534Y-20163D01*
X48534Y-27340D01*
X48458Y-27416D01*
X48393Y-27572D01*
X48393Y-27741D01*
X48458Y-27897D01*
X48577Y-28017D01*
X48733Y-28082D01*
X48903Y-28082D01*
X49059Y-28017D01*
X49178Y-27898D01*
X49243Y-27742D01*
X49243Y-27573D01*
X49179Y-27417D01*
X49134Y-27372D01*
X49134Y-20164D01*
X49145Y-20159D01*
X49300Y-20004D01*
X49384Y-19802D01*
X49384Y-19583D01*
X49301Y-19381D01*
X49146Y-19226D01*
X49064Y-19192D01*
X49145Y-19159D01*
X49300Y-19004D01*
X49305Y-18992D01*
X49478Y-18992D01*
X49512Y-19075D01*
X49571Y-19133D01*
X49512Y-19192D01*
X49474Y-19284D01*
X49475Y-19396D01*
X49537Y-19458D01*
X49950Y-19458D01*
X49950Y-19450D01*
X50050Y-19450D01*
X50050Y-19458D01*
X50462Y-19458D01*
X50525Y-19396D01*
X50525Y-19284D01*
X50487Y-19192D01*
X50428Y-19133D01*
X50463Y-19099D01*
X52258Y-19099D01*
X52317Y-19159D01*
X52474Y-19224D01*
X52497Y-19224D01*
X50525Y-21196D01*
X50525Y-19733D01*
X50525Y-19621D01*
X50462Y-19558D01*
X50050Y-19558D01*
X50050Y-19871D01*
X50112Y-19933D01*
X50225Y-19933D01*
X50324Y-19933D01*
X50416Y-19895D01*
X50487Y-19825D01*
X50525Y-19733D01*
X50525Y-21196D01*
X50279Y-21441D01*
X50214Y-21538D01*
X50192Y-21653D01*
X50192Y-28149D01*
X50214Y-28264D01*
X50279Y-28361D01*
X50877Y-28959D01*
X50877Y-28959D01*
X50975Y-29024D01*
X51090Y-29047D01*
X51216Y-29047D01*
X51216Y-29205D01*
X51225Y-29227D01*
X51216Y-29249D01*
X51216Y-29348D01*
X51216Y-29525D01*
X51223Y-29542D01*
X51216Y-29559D01*
X51216Y-29658D01*
X51216Y-29707D01*
X50504Y-29707D01*
X50389Y-29730D01*
X50292Y-29795D01*
X49950Y-30137D01*
X49950Y-19871D01*
X49950Y-19558D01*
X49537Y-19558D01*
X49475Y-19621D01*
X49474Y-19733D01*
X49512Y-19825D01*
X49583Y-19895D01*
X49675Y-19933D01*
X49774Y-19933D01*
X49887Y-19933D01*
X49950Y-19871D01*
X49950Y-30137D01*
X47074Y-33012D01*
X46599Y-33012D01*
X46507Y-33050D01*
X46437Y-33121D01*
X46398Y-33213D01*
X46398Y-33312D01*
X46398Y-33912D01*
X46436Y-34004D01*
X46507Y-34074D01*
X46598Y-34112D01*
X46698Y-34113D01*
X47298Y-34113D01*
X47390Y-34075D01*
X47460Y-34004D01*
X47498Y-33912D01*
X47498Y-33813D01*
X47498Y-33437D01*
X48436Y-32499D01*
X48420Y-32578D01*
X48420Y-33012D01*
X48370Y-33012D01*
X48279Y-33050D01*
X48208Y-33121D01*
X48170Y-33213D01*
X48170Y-33312D01*
X48170Y-33912D01*
X48208Y-34004D01*
X48278Y-34074D01*
X48370Y-34112D01*
X48469Y-34113D01*
X49069Y-34113D01*
X49161Y-34075D01*
X49232Y-34004D01*
X49270Y-33912D01*
X49270Y-33813D01*
X49270Y-33213D01*
X49232Y-33121D01*
X49162Y-33051D01*
X49070Y-33013D01*
X49020Y-33012D01*
X49020Y-32703D01*
X49601Y-32121D01*
X49601Y-33012D01*
X49552Y-33012D01*
X49460Y-33050D01*
X49389Y-33121D01*
X49351Y-33213D01*
X49351Y-33312D01*
X49351Y-33912D01*
X49389Y-34004D01*
X49459Y-34074D01*
X49551Y-34112D01*
X49651Y-34113D01*
X50251Y-34113D01*
X50343Y-34075D01*
X50413Y-34004D01*
X50451Y-33912D01*
X50451Y-33813D01*
X50451Y-33213D01*
X50413Y-33121D01*
X50343Y-33051D01*
X50251Y-33013D01*
X50201Y-33012D01*
X50201Y-32112D01*
X51361Y-30952D01*
X51416Y-30976D01*
X51516Y-30976D01*
X52303Y-30976D01*
X52311Y-30972D01*
X52308Y-30980D01*
X52308Y-31079D01*
X52308Y-31337D01*
X51071Y-32574D01*
X51006Y-32671D01*
X50984Y-32786D01*
X50984Y-33903D01*
X50742Y-33903D01*
X50650Y-33941D01*
X50580Y-34011D01*
X50541Y-34103D01*
X50541Y-34203D01*
X50541Y-34835D01*
X50515Y-34809D01*
X50423Y-34770D01*
X50323Y-34770D01*
X49773Y-34770D01*
X49681Y-34808D01*
X49611Y-34879D01*
X49573Y-34970D01*
X49573Y-35070D01*
X49573Y-35420D01*
X49611Y-35512D01*
X49669Y-35570D01*
X49611Y-35629D01*
X49573Y-35721D01*
X49573Y-35833D01*
X49635Y-35895D01*
X50048Y-35895D01*
X50048Y-35887D01*
X50148Y-35887D01*
X50148Y-35895D01*
X50560Y-35895D01*
X50623Y-35833D01*
X50623Y-35721D01*
X50585Y-35629D01*
X50526Y-35570D01*
X50585Y-35512D01*
X50592Y-35495D01*
X50599Y-35495D01*
X50650Y-35546D01*
X50741Y-35584D01*
X50841Y-35584D01*
X51825Y-35584D01*
X51917Y-35546D01*
X51987Y-35476D01*
X52026Y-35384D01*
X52026Y-35285D01*
X52026Y-34104D01*
X51988Y-34012D01*
X51917Y-33941D01*
X51826Y-33903D01*
X51726Y-33903D01*
X51584Y-33903D01*
X51584Y-32910D01*
X52451Y-32043D01*
X52508Y-32067D01*
X52608Y-32067D01*
X52662Y-32067D01*
X52662Y-33872D01*
X52684Y-33987D01*
X52750Y-34084D01*
X53091Y-34426D01*
X53091Y-35384D01*
X53129Y-35476D01*
X53200Y-35546D01*
X53291Y-35584D01*
X53391Y-35584D01*
X54375Y-35584D01*
X54467Y-35546D01*
X54537Y-35476D01*
X54576Y-35384D01*
X54576Y-35285D01*
X54576Y-35097D01*
X54593Y-35114D01*
X54593Y-35440D01*
X54631Y-35531D01*
X54689Y-35590D01*
X54631Y-35649D01*
X54593Y-35741D01*
X54593Y-35853D01*
X54655Y-35915D01*
X55068Y-35915D01*
X55068Y-35907D01*
X55168Y-35907D01*
X55168Y-35915D01*
X55580Y-35915D01*
X55643Y-35853D01*
X55643Y-35741D01*
X55605Y-35649D01*
X55546Y-35590D01*
X55604Y-35532D01*
X55643Y-35440D01*
X55643Y-35341D01*
X55643Y-34991D01*
X55605Y-34899D01*
X55534Y-34828D01*
X55443Y-34790D01*
X55343Y-34790D01*
X55189Y-34790D01*
X55189Y-33001D01*
X55189Y-32888D01*
X55127Y-32825D01*
X54814Y-32825D01*
X54814Y-33238D01*
X54877Y-33300D01*
X54989Y-33300D01*
X55081Y-33262D01*
X55151Y-33192D01*
X55189Y-33100D01*
X55189Y-33001D01*
X55189Y-34790D01*
X55117Y-34790D01*
X54858Y-34531D01*
X54761Y-34466D01*
X54646Y-34444D01*
X54576Y-34444D01*
X54576Y-34104D01*
X54538Y-34012D01*
X54467Y-33941D01*
X54376Y-33903D01*
X54276Y-33903D01*
X53417Y-33903D01*
X53262Y-33747D01*
X53262Y-32067D01*
X53415Y-32067D01*
X53434Y-32059D01*
X53453Y-32067D01*
X53485Y-32067D01*
X53547Y-32004D01*
X53547Y-31988D01*
X53577Y-31958D01*
X53592Y-31923D01*
X53606Y-31958D01*
X53607Y-31959D01*
X53607Y-32408D01*
X53589Y-32450D01*
X53589Y-32550D01*
X53589Y-33100D01*
X53627Y-33192D01*
X53697Y-33262D01*
X53789Y-33300D01*
X53889Y-33300D01*
X54239Y-33300D01*
X54331Y-33262D01*
X54389Y-33204D01*
X54448Y-33262D01*
X54540Y-33300D01*
X54652Y-33300D01*
X54714Y-33238D01*
X54714Y-32825D01*
X54706Y-32825D01*
X54706Y-32725D01*
X54714Y-32725D01*
X54714Y-32717D01*
X54814Y-32717D01*
X54814Y-32725D01*
X55127Y-32725D01*
X55189Y-32663D01*
X55189Y-32550D01*
X55189Y-32485D01*
X56076Y-32485D01*
X57028Y-33437D01*
X57028Y-33912D01*
X57066Y-34004D01*
X57136Y-34074D01*
X57228Y-34112D01*
X57328Y-34113D01*
X57928Y-34113D01*
X58020Y-34075D01*
X58090Y-34004D01*
X58128Y-33912D01*
X58128Y-33813D01*
X58128Y-33356D01*
X58209Y-33437D01*
X58209Y-33912D01*
X58247Y-34004D01*
X58318Y-34074D01*
X58409Y-34112D01*
X58509Y-34113D01*
X59109Y-34113D01*
X59201Y-34075D01*
X59271Y-34004D01*
X59309Y-33912D01*
X59309Y-33813D01*
X59309Y-33213D01*
X59271Y-33121D01*
X59201Y-33051D01*
X59109Y-33013D01*
X59010Y-33012D01*
X58634Y-33012D01*
X56832Y-31211D01*
X56735Y-31146D01*
X56620Y-31123D01*
X55190Y-31123D01*
X55190Y-30980D01*
X55188Y-30974D01*
X55196Y-30978D01*
X55296Y-30978D01*
X56083Y-30978D01*
X56175Y-30940D01*
X56175Y-30939D01*
X67129Y-30939D01*
X67810Y-31620D01*
X67810Y-37474D01*
X67198Y-38085D01*
X55643Y-38085D01*
X55643Y-36190D01*
X55643Y-36078D01*
X55580Y-36015D01*
X55168Y-36015D01*
X55168Y-36328D01*
X55230Y-36390D01*
X55343Y-36390D01*
X55443Y-36390D01*
X55534Y-36352D01*
X55605Y-36281D01*
X55643Y-36190D01*
X55643Y-38085D01*
X55068Y-38085D01*
X55068Y-36328D01*
X55068Y-36015D01*
X54655Y-36015D01*
X54593Y-36078D01*
X54593Y-36190D01*
X54631Y-36281D01*
X54701Y-36352D01*
X54793Y-36390D01*
X54892Y-36390D01*
X55005Y-36390D01*
X55068Y-36328D01*
X55068Y-38085D01*
X50623Y-38085D01*
X50623Y-36170D01*
X50623Y-36058D01*
X50560Y-35995D01*
X50148Y-35995D01*
X50148Y-36308D01*
X50210Y-36370D01*
X50323Y-36370D01*
X50423Y-36370D01*
X50515Y-36332D01*
X50585Y-36262D01*
X50623Y-36170D01*
X50623Y-38085D01*
X50048Y-38085D01*
X50048Y-36308D01*
X50048Y-35995D01*
X49635Y-35995D01*
X49573Y-36058D01*
X49573Y-36170D01*
X49611Y-36262D01*
X49681Y-36332D01*
X49773Y-36370D01*
X49872Y-36370D01*
X49985Y-36370D01*
X50048Y-36308D01*
X50048Y-38085D01*
X43929Y-38085D01*
X43929Y-25900D01*
X43864Y-25743D01*
X43744Y-25624D01*
X43588Y-25559D01*
X43419Y-25559D01*
X43263Y-25623D01*
X43144Y-25742D01*
X42915Y-25742D01*
X42908Y-25725D01*
X42838Y-25655D01*
X42746Y-25617D01*
X42646Y-25617D01*
X42096Y-25617D01*
X42004Y-25655D01*
X41934Y-25725D01*
X41896Y-25817D01*
X41896Y-25916D01*
X41896Y-26266D01*
X41934Y-26358D01*
X41992Y-26417D01*
X41934Y-26475D01*
X41927Y-26492D01*
X41832Y-26492D01*
X41825Y-26475D01*
X41767Y-26417D01*
X41825Y-26359D01*
X41863Y-26267D01*
X41863Y-26167D01*
X41863Y-25817D01*
X41825Y-25725D01*
X41755Y-25655D01*
X41663Y-25617D01*
X41564Y-25617D01*
X41014Y-25617D01*
X40922Y-25655D01*
X40882Y-25694D01*
X40484Y-25296D01*
X40484Y-25211D01*
X40419Y-25054D01*
X40300Y-24935D01*
X40143Y-24870D01*
X39974Y-24870D01*
X39818Y-24934D01*
X39698Y-25054D01*
X39634Y-25210D01*
X39633Y-25366D01*
X38399Y-27016D01*
X38399Y-26960D01*
X38365Y-26877D01*
X38399Y-26795D01*
X38399Y-26460D01*
X38365Y-26377D01*
X38399Y-26295D01*
X38399Y-25960D01*
X38365Y-25877D01*
X38399Y-25795D01*
X38399Y-25460D01*
X38365Y-25377D01*
X38399Y-25295D01*
X38399Y-24960D01*
X38365Y-24877D01*
X38399Y-24795D01*
X38399Y-24460D01*
X38361Y-24368D01*
X38291Y-24298D01*
X38199Y-24259D01*
X38100Y-24259D01*
X37868Y-24259D01*
X37806Y-24322D01*
X37806Y-24577D01*
X38337Y-24577D01*
X38399Y-24515D01*
X38399Y-24460D01*
X38399Y-24795D01*
X38399Y-24740D01*
X38337Y-24677D01*
X37806Y-24677D01*
X37806Y-24822D01*
X37806Y-24933D01*
X37806Y-25077D01*
X38337Y-25077D01*
X38399Y-25015D01*
X38399Y-24960D01*
X38399Y-25295D01*
X38399Y-25240D01*
X38337Y-25177D01*
X37806Y-25177D01*
X37806Y-25322D01*
X37806Y-25433D01*
X37806Y-25577D01*
X38337Y-25577D01*
X38399Y-25515D01*
X38399Y-25460D01*
X38399Y-25795D01*
X38399Y-25740D01*
X38337Y-25677D01*
X37806Y-25677D01*
X37806Y-25822D01*
X37806Y-25933D01*
X37806Y-26077D01*
X38337Y-26077D01*
X38399Y-26015D01*
X38399Y-25960D01*
X38399Y-26295D01*
X38399Y-26240D01*
X38337Y-26177D01*
X37806Y-26177D01*
X37806Y-26322D01*
X37806Y-26433D01*
X37806Y-26577D01*
X38337Y-26577D01*
X38399Y-26515D01*
X38399Y-26460D01*
X38399Y-26795D01*
X38399Y-26740D01*
X38337Y-26677D01*
X37806Y-26677D01*
X37806Y-26685D01*
X37706Y-26685D01*
X37706Y-26677D01*
X37706Y-26577D01*
X37706Y-26433D01*
X37706Y-26322D01*
X37706Y-26177D01*
X37706Y-26077D01*
X37706Y-25933D01*
X37706Y-25822D01*
X37706Y-25677D01*
X37706Y-25577D01*
X37706Y-25433D01*
X37706Y-25322D01*
X37706Y-25177D01*
X37706Y-25077D01*
X37706Y-24933D01*
X37706Y-24822D01*
X37706Y-24677D01*
X37706Y-24577D01*
X37706Y-24322D01*
X37643Y-24259D01*
X37412Y-24259D01*
X37312Y-24259D01*
X37220Y-24298D01*
X37150Y-24368D01*
X37112Y-24460D01*
X37112Y-24515D01*
X37175Y-24577D01*
X37706Y-24577D01*
X37706Y-24677D01*
X37175Y-24677D01*
X37112Y-24740D01*
X37112Y-24795D01*
X37146Y-24877D01*
X37112Y-24960D01*
X37112Y-25015D01*
X37175Y-25077D01*
X37706Y-25077D01*
X37706Y-25177D01*
X37175Y-25177D01*
X37112Y-25240D01*
X37112Y-25295D01*
X37146Y-25377D01*
X37112Y-25460D01*
X37112Y-25515D01*
X37175Y-25577D01*
X37706Y-25577D01*
X37706Y-25677D01*
X37175Y-25677D01*
X37112Y-25740D01*
X37112Y-25795D01*
X37146Y-25877D01*
X37112Y-25960D01*
X37112Y-26015D01*
X37175Y-26077D01*
X37706Y-26077D01*
X37706Y-26177D01*
X37175Y-26177D01*
X37112Y-26240D01*
X37112Y-26295D01*
X37146Y-26377D01*
X37112Y-26460D01*
X37112Y-26515D01*
X37175Y-26577D01*
X37706Y-26577D01*
X37706Y-26677D01*
X37175Y-26677D01*
X37112Y-26740D01*
X37112Y-26795D01*
X37126Y-26827D01*
X36750Y-26827D01*
X36635Y-26850D01*
X36537Y-26915D01*
X35909Y-27543D01*
X35844Y-27641D01*
X35822Y-27755D01*
X35822Y-28419D01*
X35111Y-29129D01*
X30439Y-29129D01*
X29197Y-27887D01*
X29197Y-20271D01*
X30004Y-21078D01*
X30004Y-21078D01*
X30101Y-21143D01*
X30216Y-21166D01*
X35472Y-21166D01*
X35472Y-21166D01*
X35587Y-21143D01*
X35587Y-21143D01*
X35684Y-21078D01*
X36750Y-20012D01*
X37036Y-20131D01*
X37449Y-20132D01*
X37830Y-19974D01*
X38123Y-19682D01*
X38166Y-19578D01*
X38218Y-19578D01*
X38156Y-19641D01*
X38156Y-19753D01*
X38194Y-19844D01*
X38264Y-19915D01*
X38356Y-19953D01*
X38455Y-19953D01*
X38568Y-19953D01*
X38631Y-19891D01*
X38631Y-19578D01*
X38623Y-19578D01*
X38623Y-19478D01*
X38631Y-19478D01*
X38631Y-19470D01*
X38731Y-19470D01*
X38731Y-19478D01*
X39143Y-19478D01*
X39206Y-19416D01*
X39206Y-19304D01*
X39168Y-19212D01*
X39109Y-19153D01*
X39167Y-19095D01*
X39206Y-19003D01*
X39206Y-18904D01*
X39206Y-18554D01*
X39168Y-18462D01*
X39097Y-18391D01*
X39006Y-18353D01*
X38906Y-18353D01*
X38356Y-18353D01*
X38264Y-18391D01*
X38194Y-18461D01*
X38187Y-18478D01*
X38095Y-18478D01*
X37832Y-18215D01*
X37451Y-18057D01*
X37038Y-18056D01*
X36657Y-18214D01*
X36365Y-18506D01*
X36206Y-18887D01*
X36206Y-19299D01*
X36325Y-19588D01*
X35348Y-20566D01*
X34305Y-20566D01*
X34305Y-20029D01*
X34305Y-18159D01*
X34305Y-18060D01*
X34266Y-17968D01*
X34196Y-17898D01*
X34104Y-17860D01*
X33183Y-17860D01*
X33120Y-17922D01*
X33120Y-19044D01*
X34242Y-19044D01*
X34305Y-18981D01*
X34305Y-18159D01*
X34305Y-20029D01*
X34305Y-19206D01*
X34242Y-19144D01*
X33120Y-19144D01*
X33120Y-20266D01*
X33183Y-20328D01*
X34104Y-20328D01*
X34196Y-20290D01*
X34266Y-20220D01*
X34305Y-20128D01*
X34305Y-20029D01*
X34305Y-20566D01*
X33020Y-20566D01*
X33020Y-20266D01*
X33020Y-19144D01*
X33020Y-19044D01*
X33020Y-17922D01*
X32958Y-17860D01*
X32037Y-17860D01*
X31945Y-17898D01*
X31874Y-17968D01*
X31836Y-18060D01*
X31836Y-18159D01*
X31836Y-18981D01*
X31899Y-19044D01*
X33020Y-19044D01*
X33020Y-19144D01*
X31899Y-19144D01*
X31836Y-19206D01*
X31836Y-20029D01*
X31836Y-20128D01*
X31874Y-20220D01*
X31945Y-20290D01*
X32037Y-20328D01*
X32958Y-20328D01*
X33020Y-20266D01*
X33020Y-20566D01*
X30340Y-20566D01*
X29616Y-19842D01*
X29776Y-19682D01*
X29934Y-19301D01*
X29935Y-18889D01*
X29777Y-18507D01*
X29486Y-18215D01*
X29104Y-18057D01*
X28692Y-18056D01*
X28310Y-18214D01*
X28018Y-18506D01*
X27860Y-18887D01*
X27860Y-19299D01*
X28017Y-19681D01*
X28309Y-19973D01*
X28597Y-20093D01*
X28597Y-28011D01*
X28620Y-28126D01*
X28685Y-28223D01*
X30102Y-29641D01*
X30102Y-29641D01*
X30200Y-29706D01*
X30314Y-29729D01*
X30314Y-29729D01*
X35236Y-29729D01*
X35236Y-29729D01*
X35351Y-29706D01*
X35351Y-29706D01*
X35448Y-29641D01*
X36334Y-28755D01*
X36334Y-28755D01*
X36399Y-28658D01*
X36422Y-28543D01*
X36422Y-28543D01*
X36422Y-27880D01*
X36874Y-27427D01*
X37126Y-27427D01*
X37112Y-27460D01*
X37112Y-27559D01*
X37112Y-27795D01*
X37146Y-27878D01*
X37112Y-27960D01*
X37112Y-28059D01*
X37112Y-28295D01*
X37150Y-28387D01*
X37220Y-28457D01*
X37312Y-28495D01*
X37412Y-28495D01*
X38199Y-28495D01*
X38291Y-28458D01*
X38321Y-28427D01*
X42442Y-28427D01*
X42442Y-28427D01*
X42557Y-28405D01*
X42557Y-28405D01*
X42655Y-28340D01*
X43716Y-27279D01*
X43716Y-27279D01*
X43781Y-27181D01*
X43803Y-27066D01*
X43803Y-27066D01*
X43803Y-26285D01*
X43864Y-26225D01*
X43928Y-26069D01*
X43929Y-25900D01*
X43929Y-38085D01*
X29454Y-38085D01*
X27662Y-36293D01*
X27662Y-22440D01*
X27639Y-22326D01*
X27574Y-22228D01*
X27574Y-22228D01*
X26704Y-21359D01*
X26704Y-21274D01*
X26640Y-21117D01*
X26520Y-20998D01*
X26364Y-20933D01*
X26195Y-20933D01*
X26039Y-20997D01*
X25919Y-21117D01*
X25854Y-21273D01*
X25854Y-21442D01*
X25919Y-21598D01*
X26038Y-21718D01*
X26194Y-21783D01*
X26280Y-21783D01*
X27062Y-22565D01*
X27062Y-36417D01*
X27085Y-36532D01*
X27150Y-36629D01*
X29118Y-38597D01*
X29118Y-38597D01*
X29215Y-38662D01*
X29330Y-38685D01*
X29330Y-38685D01*
X67322Y-38685D01*
X67322Y-38685D01*
X67437Y-38662D01*
X67437Y-38662D01*
X67534Y-38597D01*
X68322Y-37810D01*
X68387Y-37713D01*
X68410Y-37598D01*
X68410Y-37598D01*
X68410Y-31496D01*
X68410Y-31496D01*
X68387Y-31381D01*
X68322Y-31283D01*
X68322Y-31283D01*
X67663Y-30625D01*
X86308Y-30625D01*
X86332Y-30620D01*
X86357Y-30621D01*
X86389Y-30609D01*
X86423Y-30602D01*
X86443Y-30588D01*
X86466Y-30580D01*
X86491Y-30556D01*
X86520Y-30537D01*
X86534Y-30517D01*
X86552Y-30500D01*
X87546Y-29111D01*
X87559Y-29083D01*
X87580Y-29051D01*
X87585Y-29024D01*
X87594Y-29004D01*
X87595Y-28973D01*
X87603Y-28937D01*
X87603Y-18903D01*
X87663Y-18843D01*
X87728Y-18687D01*
X87728Y-18518D01*
X87663Y-18361D01*
X87544Y-18242D01*
X87388Y-18177D01*
X87218Y-18177D01*
X87062Y-18241D01*
X86943Y-18361D01*
X86878Y-18517D01*
X86878Y-18686D01*
X86942Y-18842D01*
X87003Y-18903D01*
X87003Y-28839D01*
X86717Y-29238D01*
X86717Y-18903D01*
X86777Y-18843D01*
X86842Y-18687D01*
X86842Y-18518D01*
X86777Y-18361D01*
X86658Y-18242D01*
X86502Y-18177D01*
X86333Y-18177D01*
X86176Y-18241D01*
X86057Y-18361D01*
X85992Y-18517D01*
X85992Y-18686D01*
X86056Y-18842D01*
X86117Y-18903D01*
X86117Y-29252D01*
X85858Y-29709D01*
X84670Y-29709D01*
X84670Y-18105D01*
X84670Y-17668D01*
X84670Y-17568D01*
X84670Y-17130D01*
X84607Y-17068D01*
X84370Y-17068D01*
X84279Y-17106D01*
X84220Y-17164D01*
X84161Y-17106D01*
X84069Y-17068D01*
X83832Y-17068D01*
X83770Y-17130D01*
X83770Y-17568D01*
X84207Y-17568D01*
X84220Y-17555D01*
X84232Y-17568D01*
X84670Y-17568D01*
X84670Y-17668D01*
X84232Y-17668D01*
X84220Y-17680D01*
X84207Y-17668D01*
X83770Y-17668D01*
X83770Y-18105D01*
X83832Y-18168D01*
X84069Y-18168D01*
X84161Y-18130D01*
X84220Y-18071D01*
X84279Y-18130D01*
X84370Y-18168D01*
X84607Y-18168D01*
X84670Y-18105D01*
X84670Y-29709D01*
X83670Y-29709D01*
X83670Y-18105D01*
X83670Y-17668D01*
X83670Y-17568D01*
X83670Y-17130D01*
X83607Y-17068D01*
X83370Y-17068D01*
X83279Y-17106D01*
X83208Y-17176D01*
X83170Y-17268D01*
X83170Y-17367D01*
X83170Y-17505D01*
X83232Y-17568D01*
X83670Y-17568D01*
X83670Y-17668D01*
X83232Y-17668D01*
X83170Y-17730D01*
X83170Y-17868D01*
X83170Y-17968D01*
X83208Y-18059D01*
X83279Y-18130D01*
X83370Y-18168D01*
X83607Y-18168D01*
X83670Y-18105D01*
X83670Y-29709D01*
X80557Y-29709D01*
X82003Y-28263D01*
X82068Y-28165D01*
X82091Y-28051D01*
X82091Y-28051D01*
X82091Y-17618D01*
X82091Y-17618D01*
X82068Y-17503D01*
X82003Y-17405D01*
X82003Y-17405D01*
X81531Y-16933D01*
X91411Y-16933D01*
X91606Y-17129D01*
X91602Y-17139D01*
X91602Y-17308D01*
X91667Y-17464D01*
X91786Y-17584D01*
X91942Y-17649D01*
X92111Y-17649D01*
X92267Y-17584D01*
X92387Y-17465D01*
X92452Y-17309D01*
X92452Y-17140D01*
X92388Y-16983D01*
X92268Y-16864D01*
X92134Y-16808D01*
X91747Y-16421D01*
X91732Y-16411D01*
X103667Y-16411D01*
X103667Y-105635D01*
X103667Y-105635D01*
G37*
G54D28*
X103667Y-105635D02*
X103202Y-105635D01*
X103202Y-17865D01*
X103015Y-17412D01*
X102668Y-17064D01*
X102215Y-16876D01*
X101724Y-16875D01*
X101270Y-17063D01*
X100922Y-17410D01*
X100734Y-17863D01*
X100734Y-18354D01*
X100921Y-18808D01*
X101268Y-19155D01*
X101721Y-19344D01*
X102212Y-19344D01*
X102666Y-19157D01*
X103014Y-18810D01*
X103202Y-18356D01*
X103202Y-17865D01*
X103202Y-105635D01*
X103018Y-105635D01*
X103018Y-103729D01*
X102859Y-103343D01*
X102564Y-103047D01*
X102178Y-102887D01*
X101760Y-102886D01*
X101374Y-103046D01*
X101078Y-103341D01*
X100918Y-103727D01*
X100918Y-104144D01*
X101077Y-104531D01*
X101372Y-104826D01*
X101758Y-104986D01*
X102176Y-104987D01*
X102562Y-104827D01*
X102858Y-104532D01*
X103018Y-104146D01*
X103018Y-103729D01*
X103018Y-105635D01*
X97108Y-105635D01*
X97108Y-19284D01*
X97103Y-19196D01*
X97103Y-17104D01*
X97024Y-16911D01*
X96876Y-16763D01*
X96683Y-16683D01*
X96474Y-16683D01*
X96281Y-16763D01*
X96133Y-16910D01*
X96053Y-17103D01*
X96053Y-17312D01*
X96133Y-17505D01*
X96280Y-17653D01*
X96473Y-17733D01*
X96682Y-17733D01*
X96875Y-17653D01*
X97023Y-17506D01*
X97103Y-17313D01*
X97103Y-17104D01*
X97103Y-19196D01*
X97097Y-19075D01*
X97039Y-18935D01*
X96946Y-18911D01*
X96875Y-18982D01*
X96875Y-18840D01*
X96851Y-18748D01*
X96654Y-18678D01*
X96445Y-18690D01*
X96305Y-18748D01*
X96281Y-18840D01*
X96578Y-19137D01*
X96875Y-18840D01*
X96875Y-18982D01*
X96649Y-19208D01*
X96946Y-19505D01*
X97039Y-19481D01*
X97108Y-19284D01*
X97108Y-105635D01*
X96875Y-105635D01*
X96875Y-19576D01*
X96578Y-19279D01*
X96508Y-19350D01*
X96508Y-19208D01*
X96210Y-18911D01*
X96118Y-18935D01*
X96048Y-19132D01*
X96060Y-19341D01*
X96118Y-19481D01*
X96210Y-19505D01*
X96508Y-19208D01*
X96508Y-19350D01*
X96281Y-19576D01*
X96305Y-19669D01*
X96502Y-19738D01*
X96711Y-19727D01*
X96851Y-19669D01*
X96875Y-19576D01*
X96875Y-105635D01*
X94108Y-105635D01*
X94108Y-19284D01*
X94103Y-19196D01*
X94103Y-17104D01*
X94024Y-16911D01*
X93876Y-16763D01*
X93683Y-16683D01*
X93474Y-16683D01*
X93281Y-16763D01*
X93133Y-16910D01*
X93053Y-17103D01*
X93053Y-17312D01*
X93133Y-17505D01*
X93280Y-17653D01*
X93473Y-17733D01*
X93682Y-17733D01*
X93875Y-17653D01*
X94023Y-17506D01*
X94103Y-17313D01*
X94103Y-17104D01*
X94103Y-19196D01*
X94097Y-19075D01*
X94039Y-18935D01*
X93946Y-18911D01*
X93875Y-18982D01*
X93875Y-18840D01*
X93851Y-18748D01*
X93654Y-18678D01*
X93445Y-18690D01*
X93305Y-18748D01*
X93281Y-18840D01*
X93578Y-19137D01*
X93875Y-18840D01*
X93875Y-18982D01*
X93649Y-19208D01*
X93946Y-19505D01*
X94039Y-19481D01*
X94108Y-19284D01*
X94108Y-105635D01*
X93875Y-105635D01*
X93875Y-19576D01*
X93578Y-19279D01*
X93508Y-19350D01*
X93508Y-19208D01*
X93210Y-18911D01*
X93118Y-18935D01*
X93048Y-19132D01*
X93060Y-19341D01*
X93118Y-19481D01*
X93210Y-19505D01*
X93508Y-19208D01*
X93508Y-19350D01*
X93281Y-19576D01*
X93305Y-19669D01*
X93502Y-19738D01*
X93711Y-19727D01*
X93851Y-19669D01*
X93875Y-19576D01*
X93875Y-105635D01*
X89270Y-105635D01*
X89270Y-17509D01*
X89187Y-17306D01*
X89032Y-17152D01*
X88830Y-17068D01*
X88611Y-17068D01*
X88409Y-17151D01*
X88254Y-17306D01*
X88220Y-17387D01*
X88187Y-17306D01*
X88032Y-17152D01*
X87830Y-17068D01*
X87611Y-17068D01*
X87409Y-17151D01*
X87254Y-17306D01*
X87220Y-17387D01*
X87187Y-17306D01*
X87032Y-17152D01*
X86830Y-17068D01*
X86611Y-17068D01*
X86409Y-17151D01*
X86254Y-17306D01*
X86220Y-17387D01*
X86187Y-17306D01*
X86032Y-17152D01*
X85830Y-17068D01*
X85611Y-17068D01*
X85409Y-17151D01*
X85270Y-17290D01*
X85270Y-17268D01*
X85232Y-17176D01*
X85161Y-17106D01*
X85069Y-17068D01*
X84832Y-17068D01*
X84770Y-17130D01*
X84770Y-17568D01*
X84778Y-17568D01*
X84778Y-17668D01*
X84770Y-17668D01*
X84770Y-18105D01*
X84832Y-18168D01*
X85069Y-18168D01*
X85161Y-18130D01*
X85232Y-18059D01*
X85270Y-17968D01*
X85270Y-17945D01*
X85408Y-18084D01*
X85610Y-18168D01*
X85829Y-18168D01*
X86031Y-18084D01*
X86186Y-17930D01*
X86220Y-17848D01*
X86253Y-17929D01*
X86408Y-18084D01*
X86610Y-18168D01*
X86829Y-18168D01*
X87031Y-18084D01*
X87186Y-17930D01*
X87220Y-17848D01*
X87253Y-17929D01*
X87408Y-18084D01*
X87610Y-18168D01*
X87829Y-18168D01*
X88031Y-18084D01*
X88186Y-17930D01*
X88220Y-17848D01*
X88253Y-17929D01*
X88408Y-18084D01*
X88610Y-18168D01*
X88829Y-18168D01*
X89031Y-18084D01*
X89186Y-17930D01*
X89270Y-17727D01*
X89270Y-17509D01*
X89270Y-105635D01*
X60348Y-105635D01*
X60348Y-104861D01*
X60348Y-104386D01*
X60167Y-103950D01*
X60005Y-103844D01*
X59224Y-104625D01*
X60005Y-105407D01*
X60167Y-105301D01*
X60348Y-104861D01*
X60348Y-105635D01*
X59831Y-105635D01*
X59934Y-105477D01*
X59153Y-104696D01*
X59082Y-104767D01*
X58372Y-105477D01*
X58475Y-105635D01*
X57942Y-105635D01*
X57948Y-105620D01*
X57948Y-105521D01*
X57948Y-103792D01*
X58017Y-103821D01*
X58277Y-103820D01*
X58301Y-103844D01*
X58139Y-103950D01*
X57958Y-104390D01*
X57958Y-104865D01*
X58139Y-105301D01*
X58301Y-105407D01*
X59082Y-104625D01*
X59077Y-104620D01*
X59147Y-104549D01*
X59153Y-104555D01*
X59934Y-103774D01*
X59828Y-103611D01*
X59448Y-103455D01*
X59389Y-103430D01*
X59129Y-103431D01*
X59105Y-103407D01*
X59267Y-103301D01*
X59448Y-102861D01*
X59448Y-102386D01*
X59267Y-101950D01*
X59105Y-101844D01*
X59034Y-101915D01*
X59034Y-101774D01*
X58928Y-101611D01*
X58489Y-101430D01*
X58013Y-101431D01*
X57578Y-101611D01*
X57472Y-101774D01*
X58253Y-102555D01*
X59034Y-101774D01*
X59034Y-101915D01*
X58324Y-102625D01*
X58329Y-102631D01*
X58259Y-102702D01*
X58253Y-102696D01*
X58247Y-102702D01*
X58182Y-102637D01*
X58177Y-102631D01*
X58182Y-102625D01*
X57401Y-101844D01*
X57239Y-101950D01*
X57058Y-102390D01*
X57058Y-102865D01*
X57239Y-103301D01*
X57401Y-103407D01*
X57377Y-103430D01*
X55759Y-103430D01*
X55667Y-103468D01*
X55596Y-103539D01*
X55558Y-103631D01*
X55558Y-103730D01*
X55558Y-105620D01*
X55564Y-105635D01*
X24462Y-105635D01*
X24462Y-103692D01*
X24462Y-17865D01*
X24275Y-17412D01*
X23928Y-17064D01*
X23474Y-16876D01*
X22983Y-16875D01*
X22530Y-17063D01*
X22182Y-17410D01*
X21994Y-17863D01*
X21993Y-18354D01*
X22181Y-18808D01*
X22528Y-19155D01*
X22981Y-19344D01*
X23472Y-19344D01*
X23926Y-19157D01*
X24274Y-18810D01*
X24462Y-18356D01*
X24462Y-17865D01*
X24462Y-103692D01*
X24275Y-103238D01*
X23928Y-102891D01*
X23474Y-102702D01*
X22983Y-102702D01*
X22530Y-102890D01*
X22182Y-103236D01*
X21994Y-103690D01*
X21993Y-104181D01*
X22181Y-104635D01*
X22528Y-104982D01*
X22981Y-105171D01*
X23472Y-105171D01*
X23926Y-104983D01*
X24274Y-104637D01*
X24462Y-104183D01*
X24462Y-103692D01*
X24462Y-105635D01*
X21529Y-105635D01*
X21529Y-16411D01*
X30036Y-16411D01*
X31317Y-17265D01*
X31322Y-17271D01*
X31420Y-17311D01*
X33017Y-17630D01*
X33122Y-17630D01*
X33129Y-17628D01*
X34714Y-17311D01*
X34721Y-17311D01*
X34818Y-17271D01*
X36107Y-16411D01*
X44094Y-16411D01*
X44079Y-16421D01*
X42602Y-17898D01*
X42602Y-17898D01*
X39206Y-21294D01*
X39206Y-19753D01*
X39206Y-19641D01*
X39143Y-19578D01*
X38731Y-19578D01*
X38731Y-19891D01*
X38793Y-19953D01*
X38906Y-19953D01*
X39006Y-19953D01*
X39097Y-19915D01*
X39168Y-19844D01*
X39206Y-19753D01*
X39206Y-21294D01*
X38631Y-21869D01*
X37572Y-22928D01*
X34055Y-22928D01*
X33940Y-22951D01*
X33842Y-23016D01*
X32858Y-24000D01*
X32793Y-24097D01*
X32770Y-24212D01*
X32770Y-26476D01*
X32793Y-26591D01*
X32856Y-26684D01*
X32775Y-26668D01*
X32650Y-26668D01*
X32650Y-26643D01*
X32612Y-26552D01*
X32542Y-26481D01*
X32450Y-26443D01*
X32350Y-26443D01*
X32000Y-26443D01*
X31908Y-26481D01*
X31850Y-26539D01*
X31792Y-26481D01*
X31700Y-26443D01*
X31600Y-26443D01*
X31250Y-26443D01*
X31158Y-26481D01*
X31088Y-26551D01*
X31050Y-26643D01*
X31050Y-26743D01*
X31050Y-27293D01*
X31088Y-27384D01*
X31158Y-27455D01*
X31175Y-27462D01*
X31175Y-27852D01*
X31158Y-27859D01*
X31088Y-27929D01*
X31050Y-28021D01*
X31050Y-28120D01*
X31050Y-28670D01*
X31088Y-28762D01*
X31158Y-28833D01*
X31250Y-28871D01*
X31349Y-28871D01*
X31699Y-28871D01*
X31791Y-28833D01*
X31850Y-28775D01*
X31908Y-28833D01*
X32000Y-28871D01*
X32099Y-28871D01*
X32449Y-28871D01*
X32541Y-28833D01*
X32612Y-28763D01*
X32650Y-28671D01*
X32650Y-28646D01*
X32677Y-28646D01*
X32677Y-28646D01*
X32791Y-28623D01*
X32791Y-28623D01*
X32889Y-28558D01*
X33019Y-28427D01*
X33529Y-28427D01*
X33558Y-28457D01*
X33650Y-28495D01*
X33750Y-28495D01*
X34537Y-28495D01*
X34629Y-28458D01*
X34699Y-28387D01*
X34737Y-28295D01*
X34737Y-28196D01*
X34737Y-27960D01*
X34703Y-27877D01*
X34737Y-27795D01*
X34737Y-27696D01*
X34737Y-27460D01*
X34703Y-27377D01*
X34737Y-27295D01*
X34737Y-27196D01*
X34737Y-26960D01*
X34703Y-26877D01*
X34737Y-26795D01*
X34737Y-26696D01*
X34737Y-26460D01*
X34703Y-26377D01*
X34737Y-26295D01*
X34737Y-25960D01*
X34703Y-25877D01*
X34737Y-25795D01*
X34737Y-25460D01*
X34703Y-25377D01*
X34737Y-25295D01*
X34737Y-24960D01*
X34703Y-24877D01*
X34737Y-24795D01*
X34737Y-24460D01*
X34699Y-24368D01*
X34629Y-24298D01*
X34537Y-24259D01*
X34438Y-24259D01*
X34206Y-24259D01*
X34144Y-24322D01*
X34144Y-24577D01*
X34675Y-24577D01*
X34737Y-24515D01*
X34737Y-24460D01*
X34737Y-24795D01*
X34737Y-24740D01*
X34675Y-24677D01*
X34144Y-24677D01*
X34144Y-24822D01*
X34144Y-24933D01*
X34144Y-25077D01*
X34675Y-25077D01*
X34737Y-25015D01*
X34737Y-24960D01*
X34737Y-25295D01*
X34737Y-25240D01*
X34675Y-25177D01*
X34144Y-25177D01*
X34144Y-25322D01*
X34144Y-25433D01*
X34144Y-25577D01*
X34675Y-25577D01*
X34737Y-25515D01*
X34737Y-25460D01*
X34737Y-25795D01*
X34737Y-25740D01*
X34675Y-25677D01*
X34144Y-25677D01*
X34144Y-25822D01*
X34144Y-25933D01*
X34144Y-26077D01*
X34675Y-26077D01*
X34737Y-26015D01*
X34737Y-25960D01*
X34737Y-26295D01*
X34737Y-26240D01*
X34675Y-26177D01*
X34144Y-26177D01*
X34144Y-26185D01*
X34044Y-26185D01*
X34044Y-26177D01*
X34044Y-26077D01*
X34044Y-25933D01*
X34044Y-25822D01*
X34044Y-25677D01*
X34044Y-25577D01*
X34044Y-25433D01*
X34044Y-25322D01*
X34044Y-25177D01*
X34044Y-25077D01*
X34044Y-24933D01*
X34044Y-24822D01*
X34044Y-24677D01*
X34044Y-24577D01*
X34044Y-24322D01*
X33981Y-24259D01*
X33750Y-24259D01*
X33650Y-24259D01*
X33558Y-24298D01*
X33488Y-24368D01*
X33450Y-24460D01*
X33450Y-24515D01*
X33513Y-24577D01*
X34044Y-24577D01*
X34044Y-24677D01*
X33513Y-24677D01*
X33450Y-24740D01*
X33450Y-24795D01*
X33484Y-24877D01*
X33450Y-24960D01*
X33450Y-25015D01*
X33513Y-25077D01*
X34044Y-25077D01*
X34044Y-25177D01*
X33513Y-25177D01*
X33450Y-25240D01*
X33450Y-25295D01*
X33484Y-25377D01*
X33450Y-25460D01*
X33450Y-25515D01*
X33513Y-25577D01*
X34044Y-25577D01*
X34044Y-25677D01*
X33513Y-25677D01*
X33450Y-25740D01*
X33450Y-25795D01*
X33484Y-25877D01*
X33450Y-25960D01*
X33450Y-26015D01*
X33513Y-26077D01*
X34044Y-26077D01*
X34044Y-26177D01*
X33513Y-26177D01*
X33450Y-26240D01*
X33450Y-26295D01*
X33482Y-26373D01*
X33391Y-26373D01*
X33370Y-26352D01*
X33370Y-24336D01*
X34179Y-23528D01*
X37696Y-23528D01*
X37696Y-23528D01*
X37811Y-23505D01*
X37811Y-23505D01*
X37908Y-23440D01*
X42514Y-18834D01*
X42514Y-19389D01*
X42537Y-19504D01*
X42602Y-19601D01*
X42905Y-19905D01*
X42905Y-19905D01*
X43003Y-19970D01*
X43118Y-19992D01*
X46363Y-19992D01*
X46368Y-20004D01*
X46522Y-20158D01*
X46724Y-20242D01*
X46943Y-20243D01*
X47145Y-20159D01*
X47300Y-20004D01*
X47334Y-19923D01*
X47368Y-20004D01*
X47522Y-20158D01*
X47534Y-20163D01*
X47534Y-26591D01*
X47495Y-26607D01*
X47376Y-26727D01*
X47311Y-26883D01*
X47311Y-27052D01*
X47375Y-27208D01*
X47495Y-27328D01*
X47651Y-27393D01*
X47820Y-27393D01*
X47976Y-27329D01*
X48096Y-27209D01*
X48161Y-27053D01*
X48161Y-26884D01*
X48134Y-26819D01*
X48134Y-20164D01*
X48145Y-20159D01*
X48300Y-20004D01*
X48334Y-19923D01*
X48368Y-20004D01*
X48522Y-20158D01*
X48534Y-20163D01*
X48534Y-27340D01*
X48458Y-27416D01*
X48393Y-27572D01*
X48393Y-27741D01*
X48458Y-27897D01*
X48577Y-28017D01*
X48733Y-28082D01*
X48903Y-28082D01*
X49059Y-28017D01*
X49178Y-27898D01*
X49243Y-27742D01*
X49243Y-27573D01*
X49179Y-27417D01*
X49134Y-27372D01*
X49134Y-20164D01*
X49145Y-20159D01*
X49300Y-20004D01*
X49384Y-19802D01*
X49384Y-19583D01*
X49301Y-19381D01*
X49146Y-19226D01*
X49064Y-19192D01*
X49145Y-19159D01*
X49300Y-19004D01*
X49305Y-18992D01*
X49478Y-18992D01*
X49512Y-19075D01*
X49571Y-19133D01*
X49512Y-19192D01*
X49474Y-19284D01*
X49475Y-19396D01*
X49537Y-19458D01*
X49950Y-19458D01*
X49950Y-19450D01*
X50050Y-19450D01*
X50050Y-19458D01*
X50462Y-19458D01*
X50525Y-19396D01*
X50525Y-19284D01*
X50487Y-19192D01*
X50428Y-19133D01*
X50463Y-19099D01*
X52258Y-19099D01*
X52317Y-19159D01*
X52474Y-19224D01*
X52497Y-19224D01*
X50525Y-21196D01*
X50525Y-19733D01*
X50525Y-19621D01*
X50462Y-19558D01*
X50050Y-19558D01*
X50050Y-19871D01*
X50112Y-19933D01*
X50225Y-19933D01*
X50324Y-19933D01*
X50416Y-19895D01*
X50487Y-19825D01*
X50525Y-19733D01*
X50525Y-21196D01*
X50279Y-21441D01*
X50214Y-21538D01*
X50192Y-21653D01*
X50192Y-28149D01*
X50214Y-28264D01*
X50279Y-28361D01*
X50877Y-28959D01*
X50877Y-28959D01*
X50975Y-29024D01*
X51090Y-29047D01*
X51216Y-29047D01*
X51216Y-29205D01*
X51225Y-29227D01*
X51216Y-29249D01*
X51216Y-29348D01*
X51216Y-29525D01*
X51223Y-29542D01*
X51216Y-29559D01*
X51216Y-29658D01*
X51216Y-29707D01*
X50504Y-29707D01*
X50389Y-29730D01*
X50292Y-29795D01*
X49950Y-30137D01*
X49950Y-19871D01*
X49950Y-19558D01*
X49537Y-19558D01*
X49475Y-19621D01*
X49474Y-19733D01*
X49512Y-19825D01*
X49583Y-19895D01*
X49675Y-19933D01*
X49774Y-19933D01*
X49887Y-19933D01*
X49950Y-19871D01*
X49950Y-30137D01*
X47074Y-33012D01*
X46599Y-33012D01*
X46507Y-33050D01*
X46437Y-33121D01*
X46398Y-33213D01*
X46398Y-33312D01*
X46398Y-33912D01*
X46436Y-34004D01*
X46507Y-34074D01*
X46598Y-34112D01*
X46698Y-34113D01*
X47298Y-34113D01*
X47390Y-34075D01*
X47460Y-34004D01*
X47498Y-33912D01*
X47498Y-33813D01*
X47498Y-33437D01*
X48436Y-32499D01*
X48420Y-32578D01*
X48420Y-33012D01*
X48370Y-33012D01*
X48279Y-33050D01*
X48208Y-33121D01*
X48170Y-33213D01*
X48170Y-33312D01*
X48170Y-33912D01*
X48208Y-34004D01*
X48278Y-34074D01*
X48370Y-34112D01*
X48469Y-34113D01*
X49069Y-34113D01*
X49161Y-34075D01*
X49232Y-34004D01*
X49270Y-33912D01*
X49270Y-33813D01*
X49270Y-33213D01*
X49232Y-33121D01*
X49162Y-33051D01*
X49070Y-33013D01*
X49020Y-33012D01*
X49020Y-32703D01*
X49601Y-32121D01*
X49601Y-33012D01*
X49552Y-33012D01*
X49460Y-33050D01*
X49389Y-33121D01*
X49351Y-33213D01*
X49351Y-33312D01*
X49351Y-33912D01*
X49389Y-34004D01*
X49459Y-34074D01*
X49551Y-34112D01*
X49651Y-34113D01*
X50251Y-34113D01*
X50343Y-34075D01*
X50413Y-34004D01*
X50451Y-33912D01*
X50451Y-33813D01*
X50451Y-33213D01*
X50413Y-33121D01*
X50343Y-33051D01*
X50251Y-33013D01*
X50201Y-33012D01*
X50201Y-32112D01*
X51361Y-30952D01*
X51416Y-30976D01*
X51516Y-30976D01*
X52303Y-30976D01*
X52311Y-30972D01*
X52308Y-30980D01*
X52308Y-31079D01*
X52308Y-31337D01*
X51071Y-32574D01*
X51006Y-32671D01*
X50984Y-32786D01*
X50984Y-33903D01*
X50742Y-33903D01*
X50650Y-33941D01*
X50580Y-34011D01*
X50541Y-34103D01*
X50541Y-34203D01*
X50541Y-34835D01*
X50515Y-34809D01*
X50423Y-34770D01*
X50323Y-34770D01*
X49773Y-34770D01*
X49681Y-34808D01*
X49611Y-34879D01*
X49573Y-34970D01*
X49573Y-35070D01*
X49573Y-35420D01*
X49611Y-35512D01*
X49669Y-35570D01*
X49611Y-35629D01*
X49573Y-35721D01*
X49573Y-35833D01*
X49635Y-35895D01*
X50048Y-35895D01*
X50048Y-35887D01*
X50148Y-35887D01*
X50148Y-35895D01*
X50560Y-35895D01*
X50623Y-35833D01*
X50623Y-35721D01*
X50585Y-35629D01*
X50526Y-35570D01*
X50585Y-35512D01*
X50592Y-35495D01*
X50599Y-35495D01*
X50650Y-35546D01*
X50741Y-35584D01*
X50841Y-35584D01*
X51825Y-35584D01*
X51917Y-35546D01*
X51987Y-35476D01*
X52026Y-35384D01*
X52026Y-35285D01*
X52026Y-34104D01*
X51988Y-34012D01*
X51917Y-33941D01*
X51826Y-33903D01*
X51726Y-33903D01*
X51584Y-33903D01*
X51584Y-32910D01*
X52451Y-32043D01*
X52508Y-32067D01*
X52608Y-32067D01*
X52662Y-32067D01*
X52662Y-33872D01*
X52684Y-33987D01*
X52750Y-34084D01*
X53091Y-34426D01*
X53091Y-35384D01*
X53129Y-35476D01*
X53200Y-35546D01*
X53291Y-35584D01*
X53391Y-35584D01*
X54375Y-35584D01*
X54467Y-35546D01*
X54537Y-35476D01*
X54576Y-35384D01*
X54576Y-35285D01*
X54576Y-35097D01*
X54593Y-35114D01*
X54593Y-35440D01*
X54631Y-35531D01*
X54689Y-35590D01*
X54631Y-35649D01*
X54593Y-35741D01*
X54593Y-35853D01*
X54655Y-35915D01*
X55068Y-35915D01*
X55068Y-35907D01*
X55168Y-35907D01*
X55168Y-35915D01*
X55580Y-35915D01*
X55643Y-35853D01*
X55643Y-35741D01*
X55605Y-35649D01*
X55546Y-35590D01*
X55604Y-35532D01*
X55643Y-35440D01*
X55643Y-35341D01*
X55643Y-34991D01*
X55605Y-34899D01*
X55534Y-34828D01*
X55443Y-34790D01*
X55343Y-34790D01*
X55189Y-34790D01*
X55189Y-33001D01*
X55189Y-32888D01*
X55127Y-32825D01*
X54814Y-32825D01*
X54814Y-33238D01*
X54877Y-33300D01*
X54989Y-33300D01*
X55081Y-33262D01*
X55151Y-33192D01*
X55189Y-33100D01*
X55189Y-33001D01*
X55189Y-34790D01*
X55117Y-34790D01*
X54858Y-34531D01*
X54761Y-34466D01*
X54646Y-34444D01*
X54576Y-34444D01*
X54576Y-34104D01*
X54538Y-34012D01*
X54467Y-33941D01*
X54376Y-33903D01*
X54276Y-33903D01*
X53417Y-33903D01*
X53262Y-33747D01*
X53262Y-32067D01*
X53415Y-32067D01*
X53434Y-32059D01*
X53453Y-32067D01*
X53485Y-32067D01*
X53547Y-32004D01*
X53547Y-31988D01*
X53577Y-31958D01*
X53592Y-31923D01*
X53606Y-31958D01*
X53607Y-31959D01*
X53607Y-32408D01*
X53589Y-32450D01*
X53589Y-32550D01*
X53589Y-33100D01*
X53627Y-33192D01*
X53697Y-33262D01*
X53789Y-33300D01*
X53889Y-33300D01*
X54239Y-33300D01*
X54331Y-33262D01*
X54389Y-33204D01*
X54448Y-33262D01*
X54540Y-33300D01*
X54652Y-33300D01*
X54714Y-33238D01*
X54714Y-32825D01*
X54706Y-32825D01*
X54706Y-32725D01*
X54714Y-32725D01*
X54714Y-32717D01*
X54814Y-32717D01*
X54814Y-32725D01*
X55127Y-32725D01*
X55189Y-32663D01*
X55189Y-32550D01*
X55189Y-32485D01*
X56076Y-32485D01*
X57028Y-33437D01*
X57028Y-33912D01*
X57066Y-34004D01*
X57136Y-34074D01*
X57228Y-34112D01*
X57328Y-34113D01*
X57928Y-34113D01*
X58020Y-34075D01*
X58090Y-34004D01*
X58128Y-33912D01*
X58128Y-33813D01*
X58128Y-33356D01*
X58209Y-33437D01*
X58209Y-33912D01*
X58247Y-34004D01*
X58318Y-34074D01*
X58409Y-34112D01*
X58509Y-34113D01*
X59109Y-34113D01*
X59201Y-34075D01*
X59271Y-34004D01*
X59309Y-33912D01*
X59309Y-33813D01*
X59309Y-33213D01*
X59271Y-33121D01*
X59201Y-33051D01*
X59109Y-33013D01*
X59010Y-33012D01*
X58634Y-33012D01*
X56832Y-31211D01*
X56735Y-31146D01*
X56620Y-31123D01*
X55190Y-31123D01*
X55190Y-30980D01*
X55188Y-30974D01*
X55196Y-30978D01*
X55296Y-30978D01*
X56083Y-30978D01*
X56175Y-30940D01*
X56175Y-30939D01*
X67129Y-30939D01*
X67810Y-31620D01*
X67810Y-37474D01*
X67198Y-38085D01*
X55643Y-38085D01*
X55643Y-36190D01*
X55643Y-36078D01*
X55580Y-36015D01*
X55168Y-36015D01*
X55168Y-36328D01*
X55230Y-36390D01*
X55343Y-36390D01*
X55443Y-36390D01*
X55534Y-36352D01*
X55605Y-36281D01*
X55643Y-36190D01*
X55643Y-38085D01*
X55068Y-38085D01*
X55068Y-36328D01*
X55068Y-36015D01*
X54655Y-36015D01*
X54593Y-36078D01*
X54593Y-36190D01*
X54631Y-36281D01*
X54701Y-36352D01*
X54793Y-36390D01*
X54892Y-36390D01*
X55005Y-36390D01*
X55068Y-36328D01*
X55068Y-38085D01*
X50623Y-38085D01*
X50623Y-36170D01*
X50623Y-36058D01*
X50560Y-35995D01*
X50148Y-35995D01*
X50148Y-36308D01*
X50210Y-36370D01*
X50323Y-36370D01*
X50423Y-36370D01*
X50515Y-36332D01*
X50585Y-36262D01*
X50623Y-36170D01*
X50623Y-38085D01*
X50048Y-38085D01*
X50048Y-36308D01*
X50048Y-35995D01*
X49635Y-35995D01*
X49573Y-36058D01*
X49573Y-36170D01*
X49611Y-36262D01*
X49681Y-36332D01*
X49773Y-36370D01*
X49872Y-36370D01*
X49985Y-36370D01*
X50048Y-36308D01*
X50048Y-38085D01*
X43929Y-38085D01*
X43929Y-25900D01*
X43864Y-25743D01*
X43744Y-25624D01*
X43588Y-25559D01*
X43419Y-25559D01*
X43263Y-25623D01*
X43144Y-25742D01*
X42915Y-25742D01*
X42908Y-25725D01*
X42838Y-25655D01*
X42746Y-25617D01*
X42646Y-25617D01*
X42096Y-25617D01*
X42004Y-25655D01*
X41934Y-25725D01*
X41896Y-25817D01*
X41896Y-25916D01*
X41896Y-26266D01*
X41934Y-26358D01*
X41992Y-26417D01*
X41934Y-26475D01*
X41927Y-26492D01*
X41832Y-26492D01*
X41825Y-26475D01*
X41767Y-26417D01*
X41825Y-26359D01*
X41863Y-26267D01*
X41863Y-26167D01*
X41863Y-25817D01*
X41825Y-25725D01*
X41755Y-25655D01*
X41663Y-25617D01*
X41564Y-25617D01*
X41014Y-25617D01*
X40922Y-25655D01*
X40882Y-25694D01*
X40484Y-25296D01*
X40484Y-25211D01*
X40419Y-25054D01*
X40300Y-24935D01*
X40143Y-24870D01*
X39974Y-24870D01*
X39818Y-24934D01*
X39698Y-25054D01*
X39634Y-25210D01*
X39633Y-25366D01*
X38399Y-27016D01*
X38399Y-26960D01*
X38365Y-26877D01*
X38399Y-26795D01*
X38399Y-26460D01*
X38365Y-26377D01*
X38399Y-26295D01*
X38399Y-25960D01*
X38365Y-25877D01*
X38399Y-25795D01*
X38399Y-25460D01*
X38365Y-25377D01*
X38399Y-25295D01*
X38399Y-24960D01*
X38365Y-24877D01*
X38399Y-24795D01*
X38399Y-24460D01*
X38361Y-24368D01*
X38291Y-24298D01*
X38199Y-24259D01*
X38100Y-24259D01*
X37868Y-24259D01*
X37806Y-24322D01*
X37806Y-24577D01*
X38337Y-24577D01*
X38399Y-24515D01*
X38399Y-24460D01*
X38399Y-24795D01*
X38399Y-24740D01*
X38337Y-24677D01*
X37806Y-24677D01*
X37806Y-24822D01*
X37806Y-24933D01*
X37806Y-25077D01*
X38337Y-25077D01*
X38399Y-25015D01*
X38399Y-24960D01*
X38399Y-25295D01*
X38399Y-25240D01*
X38337Y-25177D01*
X37806Y-25177D01*
X37806Y-25322D01*
X37806Y-25433D01*
X37806Y-25577D01*
X38337Y-25577D01*
X38399Y-25515D01*
X38399Y-25460D01*
X38399Y-25795D01*
X38399Y-25740D01*
X38337Y-25677D01*
X37806Y-25677D01*
X37806Y-25822D01*
X37806Y-25933D01*
X37806Y-26077D01*
X38337Y-26077D01*
X38399Y-26015D01*
X38399Y-25960D01*
X38399Y-26295D01*
X38399Y-26240D01*
X38337Y-26177D01*
X37806Y-26177D01*
X37806Y-26322D01*
X37806Y-26433D01*
X37806Y-26577D01*
X38337Y-26577D01*
X38399Y-26515D01*
X38399Y-26460D01*
X38399Y-26795D01*
X38399Y-26740D01*
X38337Y-26677D01*
X37806Y-26677D01*
X37806Y-26685D01*
X37706Y-26685D01*
X37706Y-26677D01*
X37706Y-26577D01*
X37706Y-26433D01*
X37706Y-26322D01*
X37706Y-26177D01*
X37706Y-26077D01*
X37706Y-25933D01*
X37706Y-25822D01*
X37706Y-25677D01*
X37706Y-25577D01*
X37706Y-25433D01*
X37706Y-25322D01*
X37706Y-25177D01*
X37706Y-25077D01*
X37706Y-24933D01*
X37706Y-24822D01*
X37706Y-24677D01*
X37706Y-24577D01*
X37706Y-24322D01*
X37643Y-24259D01*
X37412Y-24259D01*
X37312Y-24259D01*
X37220Y-24298D01*
X37150Y-24368D01*
X37112Y-24460D01*
X37112Y-24515D01*
X37175Y-24577D01*
X37706Y-24577D01*
X37706Y-24677D01*
X37175Y-24677D01*
X37112Y-24740D01*
X37112Y-24795D01*
X37146Y-24877D01*
X37112Y-24960D01*
X37112Y-25015D01*
X37175Y-25077D01*
X37706Y-25077D01*
X37706Y-25177D01*
X37175Y-25177D01*
X37112Y-25240D01*
X37112Y-25295D01*
X37146Y-25377D01*
X37112Y-25460D01*
X37112Y-25515D01*
X37175Y-25577D01*
X37706Y-25577D01*
X37706Y-25677D01*
X37175Y-25677D01*
X37112Y-25740D01*
X37112Y-25795D01*
X37146Y-25877D01*
X37112Y-25960D01*
X37112Y-26015D01*
X37175Y-26077D01*
X37706Y-26077D01*
X37706Y-26177D01*
X37175Y-26177D01*
X37112Y-26240D01*
X37112Y-26295D01*
X37146Y-26377D01*
X37112Y-26460D01*
X37112Y-26515D01*
X37175Y-26577D01*
X37706Y-26577D01*
X37706Y-26677D01*
X37175Y-26677D01*
X37112Y-26740D01*
X37112Y-26795D01*
X37126Y-26827D01*
X36750Y-26827D01*
X36635Y-26850D01*
X36537Y-26915D01*
X35909Y-27543D01*
X35844Y-27641D01*
X35822Y-27755D01*
X35822Y-28419D01*
X35111Y-29129D01*
X30439Y-29129D01*
X29197Y-27887D01*
X29197Y-20271D01*
X30004Y-21078D01*
X30004Y-21078D01*
X30101Y-21143D01*
X30216Y-21166D01*
X35472Y-21166D01*
X35472Y-21166D01*
X35587Y-21143D01*
X35587Y-21143D01*
X35684Y-21078D01*
X36750Y-20012D01*
X37036Y-20131D01*
X37449Y-20132D01*
X37830Y-19974D01*
X38123Y-19682D01*
X38166Y-19578D01*
X38218Y-19578D01*
X38156Y-19641D01*
X38156Y-19753D01*
X38194Y-19844D01*
X38264Y-19915D01*
X38356Y-19953D01*
X38455Y-19953D01*
X38568Y-19953D01*
X38631Y-19891D01*
X38631Y-19578D01*
X38623Y-19578D01*
X38623Y-19478D01*
X38631Y-19478D01*
X38631Y-19470D01*
X38731Y-19470D01*
X38731Y-19478D01*
X39143Y-19478D01*
X39206Y-19416D01*
X39206Y-19304D01*
X39168Y-19212D01*
X39109Y-19153D01*
X39167Y-19095D01*
X39206Y-19003D01*
X39206Y-18904D01*
X39206Y-18554D01*
X39168Y-18462D01*
X39097Y-18391D01*
X39006Y-18353D01*
X38906Y-18353D01*
X38356Y-18353D01*
X38264Y-18391D01*
X38194Y-18461D01*
X38187Y-18478D01*
X38095Y-18478D01*
X37832Y-18215D01*
X37451Y-18057D01*
X37038Y-18056D01*
X36657Y-18214D01*
X36365Y-18506D01*
X36206Y-18887D01*
X36206Y-19299D01*
X36325Y-19588D01*
X35348Y-20566D01*
X34305Y-20566D01*
X34305Y-20029D01*
X34305Y-18159D01*
X34305Y-18060D01*
X34266Y-17968D01*
X34196Y-17898D01*
X34104Y-17860D01*
X33183Y-17860D01*
X33120Y-17922D01*
X33120Y-19044D01*
X34242Y-19044D01*
X34305Y-18981D01*
X34305Y-18159D01*
X34305Y-20029D01*
X34305Y-19206D01*
X34242Y-19144D01*
X33120Y-19144D01*
X33120Y-20266D01*
X33183Y-20328D01*
X34104Y-20328D01*
X34196Y-20290D01*
X34266Y-20220D01*
X34305Y-20128D01*
X34305Y-20029D01*
X34305Y-20566D01*
X33020Y-20566D01*
X33020Y-20266D01*
X33020Y-19144D01*
X33020Y-19044D01*
X33020Y-17922D01*
X32958Y-17860D01*
X32037Y-17860D01*
X31945Y-17898D01*
X31874Y-17968D01*
X31836Y-18060D01*
X31836Y-18159D01*
X31836Y-18981D01*
X31899Y-19044D01*
X33020Y-19044D01*
X33020Y-19144D01*
X31899Y-19144D01*
X31836Y-19206D01*
X31836Y-20029D01*
X31836Y-20128D01*
X31874Y-20220D01*
X31945Y-20290D01*
X32037Y-20328D01*
X32958Y-20328D01*
X33020Y-20266D01*
X33020Y-20566D01*
X30340Y-20566D01*
X29616Y-19842D01*
X29776Y-19682D01*
X29934Y-19301D01*
X29935Y-18889D01*
X29777Y-18507D01*
X29486Y-18215D01*
X29104Y-18057D01*
X28692Y-18056D01*
X28310Y-18214D01*
X28018Y-18506D01*
X27860Y-18887D01*
X27860Y-19299D01*
X28017Y-19681D01*
X28309Y-19973D01*
X28597Y-20093D01*
X28597Y-28011D01*
X28620Y-28126D01*
X28685Y-28223D01*
X30102Y-29641D01*
X30102Y-29641D01*
X30200Y-29706D01*
X30314Y-29729D01*
X30314Y-29729D01*
X35236Y-29729D01*
X35236Y-29729D01*
X35351Y-29706D01*
X35351Y-29706D01*
X35448Y-29641D01*
X36334Y-28755D01*
X36334Y-28755D01*
X36399Y-28658D01*
X36422Y-28543D01*
X36422Y-28543D01*
X36422Y-27880D01*
X36874Y-27427D01*
X37126Y-27427D01*
X37112Y-27460D01*
X37112Y-27559D01*
X37112Y-27795D01*
X37146Y-27878D01*
X37112Y-27960D01*
X37112Y-28059D01*
X37112Y-28295D01*
X37150Y-28387D01*
X37220Y-28457D01*
X37312Y-28495D01*
X37412Y-28495D01*
X38199Y-28495D01*
X38291Y-28458D01*
X38321Y-28427D01*
X42442Y-28427D01*
X42442Y-28427D01*
X42557Y-28405D01*
X42557Y-28405D01*
X42655Y-28340D01*
X43716Y-27279D01*
X43716Y-27279D01*
X43781Y-27181D01*
X43803Y-27066D01*
X43803Y-27066D01*
X43803Y-26285D01*
X43864Y-26225D01*
X43928Y-26069D01*
X43929Y-25900D01*
X43929Y-38085D01*
X29454Y-38085D01*
X27662Y-36293D01*
X27662Y-22440D01*
X27639Y-22326D01*
X27574Y-22228D01*
X27574Y-22228D01*
X26704Y-21359D01*
X26704Y-21274D01*
X26640Y-21117D01*
X26520Y-20998D01*
X26364Y-20933D01*
X26195Y-20933D01*
X26039Y-20997D01*
X25919Y-21117D01*
X25854Y-21273D01*
X25854Y-21442D01*
X25919Y-21598D01*
X26038Y-21718D01*
X26194Y-21783D01*
X26280Y-21783D01*
X27062Y-22565D01*
X27062Y-36417D01*
X27085Y-36532D01*
X27150Y-36629D01*
X29118Y-38597D01*
X29118Y-38597D01*
X29215Y-38662D01*
X29330Y-38685D01*
X29330Y-38685D01*
X67322Y-38685D01*
X67322Y-38685D01*
X67437Y-38662D01*
X67437Y-38662D01*
X67534Y-38597D01*
X68322Y-37810D01*
X68387Y-37713D01*
X68410Y-37598D01*
X68410Y-37598D01*
X68410Y-31496D01*
X68410Y-31496D01*
X68387Y-31381D01*
X68322Y-31283D01*
X68322Y-31283D01*
X67663Y-30625D01*
X86308Y-30625D01*
X86332Y-30620D01*
X86357Y-30621D01*
X86389Y-30609D01*
X86423Y-30602D01*
X86443Y-30588D01*
X86466Y-30580D01*
X86491Y-30556D01*
X86520Y-30537D01*
X86534Y-30517D01*
X86552Y-30500D01*
X87546Y-29111D01*
X87559Y-29083D01*
X87580Y-29051D01*
X87585Y-29024D01*
X87594Y-29004D01*
X87595Y-28973D01*
X87603Y-28937D01*
X87603Y-18903D01*
X87663Y-18843D01*
X87728Y-18687D01*
X87728Y-18518D01*
X87663Y-18361D01*
X87544Y-18242D01*
X87388Y-18177D01*
X87218Y-18177D01*
X87062Y-18241D01*
X86943Y-18361D01*
X86878Y-18517D01*
X86878Y-18686D01*
X86942Y-18842D01*
X87003Y-18903D01*
X87003Y-28839D01*
X86717Y-29238D01*
X86717Y-18903D01*
X86777Y-18843D01*
X86842Y-18687D01*
X86842Y-18518D01*
X86777Y-18361D01*
X86658Y-18242D01*
X86502Y-18177D01*
X86333Y-18177D01*
X86176Y-18241D01*
X86057Y-18361D01*
X85992Y-18517D01*
X85992Y-18686D01*
X86056Y-18842D01*
X86117Y-18903D01*
X86117Y-29252D01*
X85858Y-29709D01*
X84670Y-29709D01*
X84670Y-18105D01*
X84670Y-17668D01*
X84670Y-17568D01*
X84670Y-17130D01*
X84607Y-17068D01*
X84370Y-17068D01*
X84279Y-17106D01*
X84220Y-17164D01*
X84161Y-17106D01*
X84069Y-17068D01*
X83832Y-17068D01*
X83770Y-17130D01*
X83770Y-17568D01*
X84207Y-17568D01*
X84220Y-17555D01*
X84232Y-17568D01*
X84670Y-17568D01*
X84670Y-17668D01*
X84232Y-17668D01*
X84220Y-17680D01*
X84207Y-17668D01*
X83770Y-17668D01*
X83770Y-18105D01*
X83832Y-18168D01*
X84069Y-18168D01*
X84161Y-18130D01*
X84220Y-18071D01*
X84279Y-18130D01*
X84370Y-18168D01*
X84607Y-18168D01*
X84670Y-18105D01*
X84670Y-29709D01*
X83670Y-29709D01*
X83670Y-18105D01*
X83670Y-17668D01*
X83670Y-17568D01*
X83670Y-17130D01*
X83607Y-17068D01*
X83370Y-17068D01*
X83279Y-17106D01*
X83208Y-17176D01*
X83170Y-17268D01*
X83170Y-17367D01*
X83170Y-17505D01*
X83232Y-17568D01*
X83670Y-17568D01*
X83670Y-17668D01*
X83232Y-17668D01*
X83170Y-17730D01*
X83170Y-17868D01*
X83170Y-17968D01*
X83208Y-18059D01*
X83279Y-18130D01*
X83370Y-18168D01*
X83607Y-18168D01*
X83670Y-18105D01*
X83670Y-29709D01*
X80557Y-29709D01*
X82003Y-28263D01*
X82068Y-28165D01*
X82091Y-28051D01*
X82091Y-28051D01*
X82091Y-17618D01*
X82091Y-17618D01*
X82068Y-17503D01*
X82003Y-17405D01*
X82003Y-17405D01*
X81531Y-16933D01*
X91411Y-16933D01*
X91606Y-17129D01*
X91602Y-17139D01*
X91602Y-17308D01*
X91667Y-17464D01*
X91786Y-17584D01*
X91942Y-17649D01*
X92111Y-17649D01*
X92267Y-17584D01*
X92387Y-17465D01*
X92452Y-17309D01*
X92452Y-17140D01*
X92388Y-16983D01*
X92268Y-16864D01*
X92134Y-16808D01*
X91747Y-16421D01*
X91732Y-16411D01*
X103667Y-16411D01*
X103667Y-105635D01*
M02*
