G04 #@! TF.FileFunction,Paste,Top*
%FSLAX46Y46*%
G04 Gerber Fmt 4.6, Leading zero omitted, Abs format (unit mm)*
G04 Created by KiCad (PCBNEW (2014-12-11 BZR 5320)-product) date Thu Jan 29 13:35:59 2015*
%MOMM*%
G01*
G04 APERTURE LIST*
%ADD10C,0.150000*%
%ADD11C,0.300000*%
%ADD12C,0.400000*%
%ADD13C,0.100000*%
%ADD14R,1.550000X1.350000*%
%ADD15R,1.016000X1.524000*%
%ADD16R,1.498600X1.300480*%
G04 APERTURE END LIST*
D10*
X299989000Y-253002200D02*
X299989000Y-285002200D01*
X407989000Y-285002200D01*
X407989000Y-253002200D01*
X299989000Y-253002200D01*
X10000000Y-10000000D02*
X10000000Y-287002200D01*
X409989000Y-287002200D01*
X409989000Y-10000000D01*
X10000000Y-10000000D01*
X12000000Y-12000000D02*
X12000000Y-285002200D01*
X407989000Y-285002200D01*
X407989000Y-12000000D01*
X12000000Y-12000000D01*
X60000000Y-12000000D02*
X60000000Y-10000000D01*
X110000000Y-12000000D02*
X110000000Y-10000000D01*
X160000000Y-12000000D02*
X160000000Y-10000000D01*
X210000000Y-12000000D02*
X210000000Y-10000000D01*
X260000000Y-12000000D02*
X260000000Y-10000000D01*
X310000000Y-12000000D02*
X310000000Y-10000000D01*
X360000000Y-12000000D02*
X360000000Y-10000000D01*
X35990476Y-11588095D02*
X35247619Y-11588095D01*
X35619048Y-11588095D02*
X35619048Y-10288095D01*
X35495238Y-10473810D01*
X35371429Y-10597619D01*
X35247619Y-10659524D01*
X85247619Y-10411905D02*
X85309524Y-10350000D01*
X85433333Y-10288095D01*
X85742857Y-10288095D01*
X85866667Y-10350000D01*
X85928571Y-10411905D01*
X85990476Y-10535714D01*
X85990476Y-10659524D01*
X85928571Y-10845238D01*
X85185714Y-11588095D01*
X85990476Y-11588095D01*
X135185714Y-10288095D02*
X135990476Y-10288095D01*
X135557143Y-10783333D01*
X135742857Y-10783333D01*
X135866667Y-10845238D01*
X135928571Y-10907143D01*
X135990476Y-11030952D01*
X135990476Y-11340476D01*
X135928571Y-11464286D01*
X135866667Y-11526190D01*
X135742857Y-11588095D01*
X135371429Y-11588095D01*
X135247619Y-11526190D01*
X135185714Y-11464286D01*
X185866667Y-10721429D02*
X185866667Y-11588095D01*
X185557143Y-10226190D02*
X185247619Y-11154762D01*
X186052381Y-11154762D01*
X235928571Y-10288095D02*
X235309524Y-10288095D01*
X235247619Y-10907143D01*
X235309524Y-10845238D01*
X235433333Y-10783333D01*
X235742857Y-10783333D01*
X235866667Y-10845238D01*
X235928571Y-10907143D01*
X235990476Y-11030952D01*
X235990476Y-11340476D01*
X235928571Y-11464286D01*
X235866667Y-11526190D01*
X235742857Y-11588095D01*
X235433333Y-11588095D01*
X235309524Y-11526190D01*
X235247619Y-11464286D01*
X285866667Y-10288095D02*
X285619048Y-10288095D01*
X285495238Y-10350000D01*
X285433333Y-10411905D01*
X285309524Y-10597619D01*
X285247619Y-10845238D01*
X285247619Y-11340476D01*
X285309524Y-11464286D01*
X285371429Y-11526190D01*
X285495238Y-11588095D01*
X285742857Y-11588095D01*
X285866667Y-11526190D01*
X285928571Y-11464286D01*
X285990476Y-11340476D01*
X285990476Y-11030952D01*
X285928571Y-10907143D01*
X285866667Y-10845238D01*
X285742857Y-10783333D01*
X285495238Y-10783333D01*
X285371429Y-10845238D01*
X285309524Y-10907143D01*
X285247619Y-11030952D01*
X335185714Y-10288095D02*
X336052381Y-10288095D01*
X335495238Y-11588095D01*
X385495238Y-10845238D02*
X385371429Y-10783333D01*
X385309524Y-10721429D01*
X385247619Y-10597619D01*
X385247619Y-10535714D01*
X385309524Y-10411905D01*
X385371429Y-10350000D01*
X385495238Y-10288095D01*
X385742857Y-10288095D01*
X385866667Y-10350000D01*
X385928571Y-10411905D01*
X385990476Y-10535714D01*
X385990476Y-10597619D01*
X385928571Y-10721429D01*
X385866667Y-10783333D01*
X385742857Y-10845238D01*
X385495238Y-10845238D01*
X385371429Y-10907143D01*
X385309524Y-10969048D01*
X385247619Y-11092857D01*
X385247619Y-11340476D01*
X385309524Y-11464286D01*
X385371429Y-11526190D01*
X385495238Y-11588095D01*
X385742857Y-11588095D01*
X385866667Y-11526190D01*
X385928571Y-11464286D01*
X385990476Y-11340476D01*
X385990476Y-11092857D01*
X385928571Y-10969048D01*
X385866667Y-10907143D01*
X385742857Y-10845238D01*
X60000000Y-285002200D02*
X60000000Y-287002200D01*
X110000000Y-285002200D02*
X110000000Y-287002200D01*
X160000000Y-285002200D02*
X160000000Y-287002200D01*
X210000000Y-285002200D02*
X210000000Y-287002200D01*
X260000000Y-285002200D02*
X260000000Y-287002200D01*
X310000000Y-285002200D02*
X310000000Y-287002200D01*
X360000000Y-285002200D02*
X360000000Y-287002200D01*
X35990476Y-286590295D02*
X35247619Y-286590295D01*
X35619048Y-286590295D02*
X35619048Y-285290295D01*
X35495238Y-285476010D01*
X35371429Y-285599819D01*
X35247619Y-285661724D01*
X85247619Y-285414105D02*
X85309524Y-285352200D01*
X85433333Y-285290295D01*
X85742857Y-285290295D01*
X85866667Y-285352200D01*
X85928571Y-285414105D01*
X85990476Y-285537914D01*
X85990476Y-285661724D01*
X85928571Y-285847438D01*
X85185714Y-286590295D01*
X85990476Y-286590295D01*
X135185714Y-285290295D02*
X135990476Y-285290295D01*
X135557143Y-285785533D01*
X135742857Y-285785533D01*
X135866667Y-285847438D01*
X135928571Y-285909343D01*
X135990476Y-286033152D01*
X135990476Y-286342676D01*
X135928571Y-286466486D01*
X135866667Y-286528390D01*
X135742857Y-286590295D01*
X135371429Y-286590295D01*
X135247619Y-286528390D01*
X135185714Y-286466486D01*
X185866667Y-285723629D02*
X185866667Y-286590295D01*
X185557143Y-285228390D02*
X185247619Y-286156962D01*
X186052381Y-286156962D01*
X235928571Y-285290295D02*
X235309524Y-285290295D01*
X235247619Y-285909343D01*
X235309524Y-285847438D01*
X235433333Y-285785533D01*
X235742857Y-285785533D01*
X235866667Y-285847438D01*
X235928571Y-285909343D01*
X235990476Y-286033152D01*
X235990476Y-286342676D01*
X235928571Y-286466486D01*
X235866667Y-286528390D01*
X235742857Y-286590295D01*
X235433333Y-286590295D01*
X235309524Y-286528390D01*
X235247619Y-286466486D01*
X285866667Y-285290295D02*
X285619048Y-285290295D01*
X285495238Y-285352200D01*
X285433333Y-285414105D01*
X285309524Y-285599819D01*
X285247619Y-285847438D01*
X285247619Y-286342676D01*
X285309524Y-286466486D01*
X285371429Y-286528390D01*
X285495238Y-286590295D01*
X285742857Y-286590295D01*
X285866667Y-286528390D01*
X285928571Y-286466486D01*
X285990476Y-286342676D01*
X285990476Y-286033152D01*
X285928571Y-285909343D01*
X285866667Y-285847438D01*
X285742857Y-285785533D01*
X285495238Y-285785533D01*
X285371429Y-285847438D01*
X285309524Y-285909343D01*
X285247619Y-286033152D01*
X335185714Y-285290295D02*
X336052381Y-285290295D01*
X335495238Y-286590295D01*
X385495238Y-285847438D02*
X385371429Y-285785533D01*
X385309524Y-285723629D01*
X385247619Y-285599819D01*
X385247619Y-285537914D01*
X385309524Y-285414105D01*
X385371429Y-285352200D01*
X385495238Y-285290295D01*
X385742857Y-285290295D01*
X385866667Y-285352200D01*
X385928571Y-285414105D01*
X385990476Y-285537914D01*
X385990476Y-285599819D01*
X385928571Y-285723629D01*
X385866667Y-285785533D01*
X385742857Y-285847438D01*
X385495238Y-285847438D01*
X385371429Y-285909343D01*
X385309524Y-285971248D01*
X385247619Y-286095057D01*
X385247619Y-286342676D01*
X385309524Y-286466486D01*
X385371429Y-286528390D01*
X385495238Y-286590295D01*
X385742857Y-286590295D01*
X385866667Y-286528390D01*
X385928571Y-286466486D01*
X385990476Y-286342676D01*
X385990476Y-286095057D01*
X385928571Y-285971248D01*
X385866667Y-285909343D01*
X385742857Y-285847438D01*
X10000000Y-60000000D02*
X12000000Y-60000000D01*
X10000000Y-110000000D02*
X12000000Y-110000000D01*
X10000000Y-160000000D02*
X12000000Y-160000000D01*
X10000000Y-210000000D02*
X12000000Y-210000000D01*
X10000000Y-260000000D02*
X12000000Y-260000000D01*
X10690476Y-35216667D02*
X11309524Y-35216667D01*
X10566667Y-35588095D02*
X11000000Y-34288095D01*
X11433333Y-35588095D01*
X11092857Y-84907143D02*
X11278571Y-84969048D01*
X11340476Y-85030952D01*
X11402381Y-85154762D01*
X11402381Y-85340476D01*
X11340476Y-85464286D01*
X11278571Y-85526190D01*
X11154762Y-85588095D01*
X10659524Y-85588095D01*
X10659524Y-84288095D01*
X11092857Y-84288095D01*
X11216667Y-84350000D01*
X11278571Y-84411905D01*
X11340476Y-84535714D01*
X11340476Y-84659524D01*
X11278571Y-84783333D01*
X11216667Y-84845238D01*
X11092857Y-84907143D01*
X10659524Y-84907143D01*
X11402381Y-135464286D02*
X11340476Y-135526190D01*
X11154762Y-135588095D01*
X11030952Y-135588095D01*
X10845238Y-135526190D01*
X10721429Y-135402381D01*
X10659524Y-135278571D01*
X10597619Y-135030952D01*
X10597619Y-134845238D01*
X10659524Y-134597619D01*
X10721429Y-134473810D01*
X10845238Y-134350000D01*
X11030952Y-134288095D01*
X11154762Y-134288095D01*
X11340476Y-134350000D01*
X11402381Y-134411905D01*
X10659524Y-185588095D02*
X10659524Y-184288095D01*
X10969048Y-184288095D01*
X11154762Y-184350000D01*
X11278571Y-184473810D01*
X11340476Y-184597619D01*
X11402381Y-184845238D01*
X11402381Y-185030952D01*
X11340476Y-185278571D01*
X11278571Y-185402381D01*
X11154762Y-185526190D01*
X10969048Y-185588095D01*
X10659524Y-185588095D01*
X10721429Y-234907143D02*
X11154762Y-234907143D01*
X11340476Y-235588095D02*
X10721429Y-235588095D01*
X10721429Y-234288095D01*
X11340476Y-234288095D01*
X11185714Y-284907143D02*
X10752381Y-284907143D01*
X10752381Y-285588095D02*
X10752381Y-284288095D01*
X11371428Y-284288095D01*
X409989000Y-60000000D02*
X407989000Y-60000000D01*
X409989000Y-110000000D02*
X407989000Y-110000000D01*
X409989000Y-160000000D02*
X407989000Y-160000000D01*
X409989000Y-210000000D02*
X407989000Y-210000000D01*
X409989000Y-260000000D02*
X407989000Y-260000000D01*
X408679476Y-35216667D02*
X409298524Y-35216667D01*
X408555667Y-35588095D02*
X408989000Y-34288095D01*
X409422333Y-35588095D01*
X409081857Y-84907143D02*
X409267571Y-84969048D01*
X409329476Y-85030952D01*
X409391381Y-85154762D01*
X409391381Y-85340476D01*
X409329476Y-85464286D01*
X409267571Y-85526190D01*
X409143762Y-85588095D01*
X408648524Y-85588095D01*
X408648524Y-84288095D01*
X409081857Y-84288095D01*
X409205667Y-84350000D01*
X409267571Y-84411905D01*
X409329476Y-84535714D01*
X409329476Y-84659524D01*
X409267571Y-84783333D01*
X409205667Y-84845238D01*
X409081857Y-84907143D01*
X408648524Y-84907143D01*
X409391381Y-135464286D02*
X409329476Y-135526190D01*
X409143762Y-135588095D01*
X409019952Y-135588095D01*
X408834238Y-135526190D01*
X408710429Y-135402381D01*
X408648524Y-135278571D01*
X408586619Y-135030952D01*
X408586619Y-134845238D01*
X408648524Y-134597619D01*
X408710429Y-134473810D01*
X408834238Y-134350000D01*
X409019952Y-134288095D01*
X409143762Y-134288095D01*
X409329476Y-134350000D01*
X409391381Y-134411905D01*
X408648524Y-185588095D02*
X408648524Y-184288095D01*
X408958048Y-184288095D01*
X409143762Y-184350000D01*
X409267571Y-184473810D01*
X409329476Y-184597619D01*
X409391381Y-184845238D01*
X409391381Y-185030952D01*
X409329476Y-185278571D01*
X409267571Y-185402381D01*
X409143762Y-185526190D01*
X408958048Y-185588095D01*
X408648524Y-185588095D01*
X408710429Y-234907143D02*
X409143762Y-234907143D01*
X409329476Y-235588095D02*
X408710429Y-235588095D01*
X408710429Y-234288095D01*
X409329476Y-234288095D01*
X409174714Y-284907143D02*
X408741381Y-284907143D01*
X408741381Y-285588095D02*
X408741381Y-284288095D01*
X409360428Y-284288095D01*
X323346143Y-280780771D02*
X323346143Y-279280771D01*
X323703286Y-279280771D01*
X323917571Y-279352200D01*
X324060429Y-279495057D01*
X324131857Y-279637914D01*
X324203286Y-279923629D01*
X324203286Y-280137914D01*
X324131857Y-280423629D01*
X324060429Y-280566486D01*
X323917571Y-280709343D01*
X323703286Y-280780771D01*
X323346143Y-280780771D01*
X325489000Y-280780771D02*
X325489000Y-279995057D01*
X325417571Y-279852200D01*
X325274714Y-279780771D01*
X324989000Y-279780771D01*
X324846143Y-279852200D01*
X325489000Y-280709343D02*
X325346143Y-280780771D01*
X324989000Y-280780771D01*
X324846143Y-280709343D01*
X324774714Y-280566486D01*
X324774714Y-280423629D01*
X324846143Y-280280771D01*
X324989000Y-280209343D01*
X325346143Y-280209343D01*
X325489000Y-280137914D01*
X325989000Y-279780771D02*
X326560429Y-279780771D01*
X326203286Y-279280771D02*
X326203286Y-280566486D01*
X326274714Y-280709343D01*
X326417572Y-280780771D01*
X326560429Y-280780771D01*
X327631857Y-280709343D02*
X327489000Y-280780771D01*
X327203286Y-280780771D01*
X327060429Y-280709343D01*
X326989000Y-280566486D01*
X326989000Y-279995057D01*
X327060429Y-279852200D01*
X327203286Y-279780771D01*
X327489000Y-279780771D01*
X327631857Y-279852200D01*
X327703286Y-279995057D01*
X327703286Y-280137914D01*
X326989000Y-280280771D01*
X328346143Y-280637914D02*
X328417571Y-280709343D01*
X328346143Y-280780771D01*
X328274714Y-280709343D01*
X328346143Y-280637914D01*
X328346143Y-280780771D01*
X328346143Y-279852200D02*
X328417571Y-279923629D01*
X328346143Y-279995057D01*
X328274714Y-279923629D01*
X328346143Y-279852200D01*
X328346143Y-279995057D01*
X299989000Y-281502200D02*
X407989000Y-281502200D01*
X301346143Y-283580771D02*
X301346143Y-282080771D01*
X302203286Y-283580771D02*
X301560429Y-282723629D01*
X302203286Y-282080771D02*
X301346143Y-282937914D01*
X302846143Y-283580771D02*
X302846143Y-282580771D01*
X302846143Y-282080771D02*
X302774714Y-282152200D01*
X302846143Y-282223629D01*
X302917571Y-282152200D01*
X302846143Y-282080771D01*
X302846143Y-282223629D01*
X304417572Y-283437914D02*
X304346143Y-283509343D01*
X304131857Y-283580771D01*
X303989000Y-283580771D01*
X303774715Y-283509343D01*
X303631857Y-283366486D01*
X303560429Y-283223629D01*
X303489000Y-282937914D01*
X303489000Y-282723629D01*
X303560429Y-282437914D01*
X303631857Y-282295057D01*
X303774715Y-282152200D01*
X303989000Y-282080771D01*
X304131857Y-282080771D01*
X304346143Y-282152200D01*
X304417572Y-282223629D01*
X305703286Y-283580771D02*
X305703286Y-282795057D01*
X305631857Y-282652200D01*
X305489000Y-282580771D01*
X305203286Y-282580771D01*
X305060429Y-282652200D01*
X305703286Y-283509343D02*
X305560429Y-283580771D01*
X305203286Y-283580771D01*
X305060429Y-283509343D01*
X304989000Y-283366486D01*
X304989000Y-283223629D01*
X305060429Y-283080771D01*
X305203286Y-283009343D01*
X305560429Y-283009343D01*
X305703286Y-282937914D01*
X307060429Y-283580771D02*
X307060429Y-282080771D01*
X307060429Y-283509343D02*
X306917572Y-283580771D01*
X306631858Y-283580771D01*
X306489000Y-283509343D01*
X306417572Y-283437914D01*
X306346143Y-283295057D01*
X306346143Y-282866486D01*
X306417572Y-282723629D01*
X306489000Y-282652200D01*
X306631858Y-282580771D01*
X306917572Y-282580771D01*
X307060429Y-282652200D01*
X308917572Y-282795057D02*
X309417572Y-282795057D01*
X309631858Y-283580771D02*
X308917572Y-283580771D01*
X308917572Y-282080771D01*
X309631858Y-282080771D01*
X310274715Y-283437914D02*
X310346143Y-283509343D01*
X310274715Y-283580771D01*
X310203286Y-283509343D01*
X310274715Y-283437914D01*
X310274715Y-283580771D01*
X310989001Y-283580771D02*
X310989001Y-282080771D01*
X311346144Y-282080771D01*
X311560429Y-282152200D01*
X311703287Y-282295057D01*
X311774715Y-282437914D01*
X311846144Y-282723629D01*
X311846144Y-282937914D01*
X311774715Y-283223629D01*
X311703287Y-283366486D01*
X311560429Y-283509343D01*
X311346144Y-283580771D01*
X310989001Y-283580771D01*
X312489001Y-283437914D02*
X312560429Y-283509343D01*
X312489001Y-283580771D01*
X312417572Y-283509343D01*
X312489001Y-283437914D01*
X312489001Y-283580771D01*
X313131858Y-283152200D02*
X313846144Y-283152200D01*
X312989001Y-283580771D02*
X313489001Y-282080771D01*
X313989001Y-283580771D01*
X314489001Y-283437914D02*
X314560429Y-283509343D01*
X314489001Y-283580771D01*
X314417572Y-283509343D01*
X314489001Y-283437914D01*
X314489001Y-283580771D01*
X317489001Y-283580771D02*
X317489001Y-282080771D01*
X317631858Y-283009343D02*
X318060429Y-283580771D01*
X318060429Y-282580771D02*
X317489001Y-283152200D01*
X318703287Y-283580771D02*
X318703287Y-282580771D01*
X318703287Y-282080771D02*
X318631858Y-282152200D01*
X318703287Y-282223629D01*
X318774715Y-282152200D01*
X318703287Y-282080771D01*
X318703287Y-282223629D01*
X320060430Y-283509343D02*
X319917573Y-283580771D01*
X319631859Y-283580771D01*
X319489001Y-283509343D01*
X319417573Y-283437914D01*
X319346144Y-283295057D01*
X319346144Y-282866486D01*
X319417573Y-282723629D01*
X319489001Y-282652200D01*
X319631859Y-282580771D01*
X319917573Y-282580771D01*
X320060430Y-282652200D01*
X321346144Y-283580771D02*
X321346144Y-282795057D01*
X321274715Y-282652200D01*
X321131858Y-282580771D01*
X320846144Y-282580771D01*
X320703287Y-282652200D01*
X321346144Y-283509343D02*
X321203287Y-283580771D01*
X320846144Y-283580771D01*
X320703287Y-283509343D01*
X320631858Y-283366486D01*
X320631858Y-283223629D01*
X320703287Y-283080771D01*
X320846144Y-283009343D01*
X321203287Y-283009343D01*
X321346144Y-282937914D01*
X322703287Y-283580771D02*
X322703287Y-282080771D01*
X322703287Y-283509343D02*
X322560430Y-283580771D01*
X322274716Y-283580771D01*
X322131858Y-283509343D01*
X322060430Y-283437914D01*
X321989001Y-283295057D01*
X321989001Y-282866486D01*
X322060430Y-282723629D01*
X322131858Y-282652200D01*
X322274716Y-282580771D01*
X322560430Y-282580771D01*
X322703287Y-282652200D01*
X324989001Y-284152200D02*
X324917573Y-284080771D01*
X324774716Y-283866486D01*
X324703287Y-283723629D01*
X324631858Y-283509343D01*
X324560430Y-283152200D01*
X324560430Y-282866486D01*
X324631858Y-282509343D01*
X324703287Y-282295057D01*
X324774716Y-282152200D01*
X324917573Y-281937914D01*
X324989001Y-281866486D01*
X325489001Y-282223629D02*
X325560430Y-282152200D01*
X325703287Y-282080771D01*
X326060430Y-282080771D01*
X326203287Y-282152200D01*
X326274716Y-282223629D01*
X326346144Y-282366486D01*
X326346144Y-282509343D01*
X326274716Y-282723629D01*
X325417573Y-283580771D01*
X326346144Y-283580771D01*
X327274715Y-282080771D02*
X327417572Y-282080771D01*
X327560429Y-282152200D01*
X327631858Y-282223629D01*
X327703287Y-282366486D01*
X327774715Y-282652200D01*
X327774715Y-283009343D01*
X327703287Y-283295057D01*
X327631858Y-283437914D01*
X327560429Y-283509343D01*
X327417572Y-283580771D01*
X327274715Y-283580771D01*
X327131858Y-283509343D01*
X327060429Y-283437914D01*
X326989001Y-283295057D01*
X326917572Y-283009343D01*
X326917572Y-282652200D01*
X326989001Y-282366486D01*
X327060429Y-282223629D01*
X327131858Y-282152200D01*
X327274715Y-282080771D01*
X329203286Y-283580771D02*
X328346143Y-283580771D01*
X328774715Y-283580771D02*
X328774715Y-282080771D01*
X328631858Y-282295057D01*
X328489000Y-282437914D01*
X328346143Y-282509343D01*
X330489000Y-282580771D02*
X330489000Y-283580771D01*
X330131857Y-282009343D02*
X329774714Y-283080771D01*
X330703286Y-283080771D01*
X331274714Y-283009343D02*
X332417571Y-283009343D01*
X333917571Y-283580771D02*
X333060428Y-283580771D01*
X333489000Y-283580771D02*
X333489000Y-282080771D01*
X333346143Y-282295057D01*
X333203285Y-282437914D01*
X333060428Y-282509343D01*
X334488999Y-282223629D02*
X334560428Y-282152200D01*
X334703285Y-282080771D01*
X335060428Y-282080771D01*
X335203285Y-282152200D01*
X335274714Y-282223629D01*
X335346142Y-282366486D01*
X335346142Y-282509343D01*
X335274714Y-282723629D01*
X334417571Y-283580771D01*
X335346142Y-283580771D01*
X335988999Y-283009343D02*
X337131856Y-283009343D01*
X338631856Y-283580771D02*
X337774713Y-283580771D01*
X338203285Y-283580771D02*
X338203285Y-282080771D01*
X338060428Y-282295057D01*
X337917570Y-282437914D01*
X337774713Y-282509343D01*
X340060427Y-283580771D02*
X339203284Y-283580771D01*
X339631856Y-283580771D02*
X339631856Y-282080771D01*
X339488999Y-282295057D01*
X339346141Y-282437914D01*
X339203284Y-282509343D01*
X342346141Y-282795057D02*
X342560427Y-282866486D01*
X342631855Y-282937914D01*
X342703284Y-283080771D01*
X342703284Y-283295057D01*
X342631855Y-283437914D01*
X342560427Y-283509343D01*
X342417569Y-283580771D01*
X341846141Y-283580771D01*
X341846141Y-282080771D01*
X342346141Y-282080771D01*
X342488998Y-282152200D01*
X342560427Y-282223629D01*
X342631855Y-282366486D01*
X342631855Y-282509343D01*
X342560427Y-282652200D01*
X342488998Y-282723629D01*
X342346141Y-282795057D01*
X341846141Y-282795057D01*
X343203284Y-282080771D02*
X344203284Y-282080771D01*
X343203284Y-283580771D01*
X344203284Y-283580771D01*
X345631855Y-283580771D02*
X345131855Y-282866486D01*
X344774712Y-283580771D02*
X344774712Y-282080771D01*
X345346140Y-282080771D01*
X345488998Y-282152200D01*
X345560426Y-282223629D01*
X345631855Y-282366486D01*
X345631855Y-282580771D01*
X345560426Y-282723629D01*
X345488998Y-282795057D01*
X345346140Y-282866486D01*
X344774712Y-282866486D01*
X348131855Y-282080771D02*
X347417569Y-282080771D01*
X347346140Y-282795057D01*
X347417569Y-282723629D01*
X347560426Y-282652200D01*
X347917569Y-282652200D01*
X348060426Y-282723629D01*
X348131855Y-282795057D01*
X348203283Y-282937914D01*
X348203283Y-283295057D01*
X348131855Y-283437914D01*
X348060426Y-283509343D01*
X347917569Y-283580771D01*
X347560426Y-283580771D01*
X347417569Y-283509343D01*
X347346140Y-283437914D01*
X348703283Y-282080771D02*
X349631854Y-282080771D01*
X349131854Y-282652200D01*
X349346140Y-282652200D01*
X349488997Y-282723629D01*
X349560426Y-282795057D01*
X349631854Y-282937914D01*
X349631854Y-283295057D01*
X349560426Y-283437914D01*
X349488997Y-283509343D01*
X349346140Y-283580771D01*
X348917568Y-283580771D01*
X348774711Y-283509343D01*
X348703283Y-283437914D01*
X350203282Y-282223629D02*
X350274711Y-282152200D01*
X350417568Y-282080771D01*
X350774711Y-282080771D01*
X350917568Y-282152200D01*
X350988997Y-282223629D01*
X351060425Y-282366486D01*
X351060425Y-282509343D01*
X350988997Y-282723629D01*
X350131854Y-283580771D01*
X351060425Y-283580771D01*
X351988996Y-282080771D02*
X352131853Y-282080771D01*
X352274710Y-282152200D01*
X352346139Y-282223629D01*
X352417568Y-282366486D01*
X352488996Y-282652200D01*
X352488996Y-283009343D01*
X352417568Y-283295057D01*
X352346139Y-283437914D01*
X352274710Y-283509343D01*
X352131853Y-283580771D01*
X351988996Y-283580771D01*
X351846139Y-283509343D01*
X351774710Y-283437914D01*
X351703282Y-283295057D01*
X351631853Y-283009343D01*
X351631853Y-282652200D01*
X351703282Y-282366486D01*
X351774710Y-282223629D01*
X351846139Y-282152200D01*
X351988996Y-282080771D01*
X352988996Y-284152200D02*
X353060424Y-284080771D01*
X353203281Y-283866486D01*
X353274710Y-283723629D01*
X353346139Y-283509343D01*
X353417567Y-283152200D01*
X353417567Y-282866486D01*
X353346139Y-282509343D01*
X353274710Y-282295057D01*
X353203281Y-282152200D01*
X353060424Y-281937914D01*
X352988996Y-281866486D01*
X354131853Y-283009343D02*
X355274710Y-283009343D01*
X355988996Y-282580771D02*
X355988996Y-284080771D01*
X355988996Y-282652200D02*
X356131853Y-282580771D01*
X356417567Y-282580771D01*
X356560424Y-282652200D01*
X356631853Y-282723629D01*
X356703282Y-282866486D01*
X356703282Y-283295057D01*
X356631853Y-283437914D01*
X356560424Y-283509343D01*
X356417567Y-283580771D01*
X356131853Y-283580771D01*
X355988996Y-283509343D01*
X357346139Y-283580771D02*
X357346139Y-282580771D01*
X357346139Y-282866486D02*
X357417567Y-282723629D01*
X357488996Y-282652200D01*
X357631853Y-282580771D01*
X357774710Y-282580771D01*
X358488996Y-283580771D02*
X358346138Y-283509343D01*
X358274710Y-283437914D01*
X358203281Y-283295057D01*
X358203281Y-282866486D01*
X358274710Y-282723629D01*
X358346138Y-282652200D01*
X358488996Y-282580771D01*
X358703281Y-282580771D01*
X358846138Y-282652200D01*
X358917567Y-282723629D01*
X358988996Y-282866486D01*
X358988996Y-283295057D01*
X358917567Y-283437914D01*
X358846138Y-283509343D01*
X358703281Y-283580771D01*
X358488996Y-283580771D01*
X360274710Y-283580771D02*
X360274710Y-282080771D01*
X360274710Y-283509343D02*
X360131853Y-283580771D01*
X359846139Y-283580771D01*
X359703281Y-283509343D01*
X359631853Y-283437914D01*
X359560424Y-283295057D01*
X359560424Y-282866486D01*
X359631853Y-282723629D01*
X359703281Y-282652200D01*
X359846139Y-282580771D01*
X360131853Y-282580771D01*
X360274710Y-282652200D01*
X361631853Y-282580771D02*
X361631853Y-283580771D01*
X360988996Y-282580771D02*
X360988996Y-283366486D01*
X361060424Y-283509343D01*
X361203282Y-283580771D01*
X361417567Y-283580771D01*
X361560424Y-283509343D01*
X361631853Y-283437914D01*
X362988996Y-283509343D02*
X362846139Y-283580771D01*
X362560425Y-283580771D01*
X362417567Y-283509343D01*
X362346139Y-283437914D01*
X362274710Y-283295057D01*
X362274710Y-282866486D01*
X362346139Y-282723629D01*
X362417567Y-282652200D01*
X362560425Y-282580771D01*
X362846139Y-282580771D01*
X362988996Y-282652200D01*
X363417567Y-282580771D02*
X363988996Y-282580771D01*
X363631853Y-282080771D02*
X363631853Y-283366486D01*
X363703281Y-283509343D01*
X363846139Y-283580771D01*
X363988996Y-283580771D01*
X299989000Y-278502200D02*
X407989000Y-278502200D01*
D11*
X387203286Y-280780771D02*
X386703286Y-280066486D01*
X386346143Y-280780771D02*
X386346143Y-279280771D01*
X386917571Y-279280771D01*
X387060429Y-279352200D01*
X387131857Y-279423629D01*
X387203286Y-279566486D01*
X387203286Y-279780771D01*
X387131857Y-279923629D01*
X387060429Y-279995057D01*
X386917571Y-280066486D01*
X386346143Y-280066486D01*
X388417571Y-280709343D02*
X388274714Y-280780771D01*
X387989000Y-280780771D01*
X387846143Y-280709343D01*
X387774714Y-280566486D01*
X387774714Y-279995057D01*
X387846143Y-279852200D01*
X387989000Y-279780771D01*
X388274714Y-279780771D01*
X388417571Y-279852200D01*
X388489000Y-279995057D01*
X388489000Y-280137914D01*
X387774714Y-280280771D01*
X388989000Y-279780771D02*
X389346143Y-280780771D01*
X389703285Y-279780771D01*
X390274714Y-280637914D02*
X390346142Y-280709343D01*
X390274714Y-280780771D01*
X390203285Y-280709343D01*
X390274714Y-280637914D01*
X390274714Y-280780771D01*
X390274714Y-279852200D02*
X390346142Y-279923629D01*
X390274714Y-279995057D01*
X390203285Y-279923629D01*
X390274714Y-279852200D01*
X390274714Y-279995057D01*
D10*
X301274714Y-280709343D02*
X301489000Y-280780771D01*
X301846143Y-280780771D01*
X301989000Y-280709343D01*
X302060429Y-280637914D01*
X302131857Y-280495057D01*
X302131857Y-280352200D01*
X302060429Y-280209343D01*
X301989000Y-280137914D01*
X301846143Y-280066486D01*
X301560429Y-279995057D01*
X301417571Y-279923629D01*
X301346143Y-279852200D01*
X301274714Y-279709343D01*
X301274714Y-279566486D01*
X301346143Y-279423629D01*
X301417571Y-279352200D01*
X301560429Y-279280771D01*
X301917571Y-279280771D01*
X302131857Y-279352200D01*
X302774714Y-280780771D02*
X302774714Y-279780771D01*
X302774714Y-279280771D02*
X302703285Y-279352200D01*
X302774714Y-279423629D01*
X302846142Y-279352200D01*
X302774714Y-279280771D01*
X302774714Y-279423629D01*
X303346143Y-279780771D02*
X304131857Y-279780771D01*
X303346143Y-280780771D01*
X304131857Y-280780771D01*
X305274714Y-280709343D02*
X305131857Y-280780771D01*
X304846143Y-280780771D01*
X304703286Y-280709343D01*
X304631857Y-280566486D01*
X304631857Y-279995057D01*
X304703286Y-279852200D01*
X304846143Y-279780771D01*
X305131857Y-279780771D01*
X305274714Y-279852200D01*
X305346143Y-279995057D01*
X305346143Y-280137914D01*
X304631857Y-280280771D01*
X305989000Y-280637914D02*
X306060428Y-280709343D01*
X305989000Y-280780771D01*
X305917571Y-280709343D01*
X305989000Y-280637914D01*
X305989000Y-280780771D01*
X305989000Y-279852200D02*
X306060428Y-279923629D01*
X305989000Y-279995057D01*
X305917571Y-279923629D01*
X305989000Y-279852200D01*
X305989000Y-279995057D01*
X307774714Y-280352200D02*
X308489000Y-280352200D01*
X307631857Y-280780771D02*
X308131857Y-279280771D01*
X308631857Y-280780771D01*
X308989000Y-279280771D02*
X309917571Y-279280771D01*
X309417571Y-279852200D01*
X309631857Y-279852200D01*
X309774714Y-279923629D01*
X309846143Y-279995057D01*
X309917571Y-280137914D01*
X309917571Y-280495057D01*
X309846143Y-280637914D01*
X309774714Y-280709343D01*
X309631857Y-280780771D01*
X309203285Y-280780771D01*
X309060428Y-280709343D01*
X308989000Y-280637914D01*
X386346143Y-283580771D02*
X386346143Y-282080771D01*
X387703286Y-283580771D02*
X387703286Y-282080771D01*
X387703286Y-283509343D02*
X387560429Y-283580771D01*
X387274715Y-283580771D01*
X387131857Y-283509343D01*
X387060429Y-283437914D01*
X386989000Y-283295057D01*
X386989000Y-282866486D01*
X387060429Y-282723629D01*
X387131857Y-282652200D01*
X387274715Y-282580771D01*
X387560429Y-282580771D01*
X387703286Y-282652200D01*
X388417572Y-283437914D02*
X388489000Y-283509343D01*
X388417572Y-283580771D01*
X388346143Y-283509343D01*
X388417572Y-283437914D01*
X388417572Y-283580771D01*
X388417572Y-282652200D02*
X388489000Y-282723629D01*
X388417572Y-282795057D01*
X388346143Y-282723629D01*
X388417572Y-282652200D01*
X388417572Y-282795057D01*
X391060429Y-283580771D02*
X390203286Y-283580771D01*
X390631858Y-283580771D02*
X390631858Y-282080771D01*
X390489001Y-282295057D01*
X390346143Y-282437914D01*
X390203286Y-282509343D01*
X392774714Y-282009343D02*
X391489000Y-283937914D01*
X394060429Y-283580771D02*
X393203286Y-283580771D01*
X393631858Y-283580771D02*
X393631858Y-282080771D01*
X393489001Y-282295057D01*
X393346143Y-282437914D01*
X393203286Y-282509343D01*
X299989000Y-274502200D02*
X407989000Y-274502200D01*
D12*
X301441381Y-275206962D02*
X302584238Y-275206962D01*
X301762810Y-277206962D02*
X302012810Y-275206962D01*
X303000905Y-277206962D02*
X303167571Y-275873629D01*
X303250905Y-275206962D02*
X303143762Y-275302200D01*
X303227095Y-275397438D01*
X303334239Y-275302200D01*
X303250905Y-275206962D01*
X303227095Y-275397438D01*
X303834238Y-275873629D02*
X304596143Y-275873629D01*
X304203286Y-275206962D02*
X303989000Y-276921248D01*
X304060430Y-277111724D01*
X304239001Y-277206962D01*
X304429477Y-277206962D01*
X305381858Y-277206962D02*
X305203287Y-277111724D01*
X305131857Y-276921248D01*
X305346143Y-275206962D01*
X306917572Y-277111724D02*
X306715191Y-277206962D01*
X306334239Y-277206962D01*
X306155667Y-277111724D01*
X306084238Y-276921248D01*
X306179476Y-276159343D01*
X306298524Y-275968867D01*
X306500905Y-275873629D01*
X306881857Y-275873629D01*
X307060429Y-275968867D01*
X307131857Y-276159343D01*
X307108048Y-276349819D01*
X306131857Y-276540295D01*
X307881857Y-277016486D02*
X307965192Y-277111724D01*
X307858048Y-277206962D01*
X307774715Y-277111724D01*
X307881857Y-277016486D01*
X307858048Y-277206962D01*
X308012810Y-275968867D02*
X308096144Y-276064105D01*
X307989000Y-276159343D01*
X307905667Y-276064105D01*
X308012810Y-275968867D01*
X307989000Y-276159343D01*
X311500906Y-277016486D02*
X311393764Y-277111724D01*
X311096144Y-277206962D01*
X310905668Y-277206962D01*
X310631859Y-277111724D01*
X310465192Y-276921248D01*
X310393763Y-276730771D01*
X310346144Y-276349819D01*
X310381858Y-276064105D01*
X310524715Y-275683152D01*
X310643764Y-275492676D01*
X310858049Y-275302200D01*
X311155668Y-275206962D01*
X311346144Y-275206962D01*
X311619954Y-275302200D01*
X311703287Y-275397438D01*
X312619954Y-277206962D02*
X312441383Y-277111724D01*
X312369953Y-276921248D01*
X312584239Y-275206962D01*
X313667573Y-277206962D02*
X313489002Y-277111724D01*
X313405667Y-277016486D01*
X313334239Y-276826010D01*
X313405667Y-276254581D01*
X313524715Y-276064105D01*
X313631859Y-275968867D01*
X313834239Y-275873629D01*
X314119953Y-275873629D01*
X314298525Y-275968867D01*
X314381858Y-276064105D01*
X314453286Y-276254581D01*
X314381858Y-276826010D01*
X314262810Y-277016486D01*
X314155668Y-277111724D01*
X313953287Y-277206962D01*
X313667573Y-277206962D01*
X316060430Y-277111724D02*
X315858049Y-277206962D01*
X315477097Y-277206962D01*
X315298526Y-277111724D01*
X315215191Y-277016486D01*
X315143763Y-276826010D01*
X315215191Y-276254581D01*
X315334239Y-276064105D01*
X315441383Y-275968867D01*
X315643763Y-275873629D01*
X316024715Y-275873629D01*
X316203287Y-275968867D01*
X316905668Y-277206962D02*
X317155668Y-275206962D01*
X317191383Y-276445057D02*
X317667573Y-277206962D01*
X317834239Y-275873629D02*
X316977096Y-276635533D01*
X319322335Y-276159343D02*
X318655668Y-276159343D01*
X318524716Y-277206962D02*
X318774716Y-275206962D01*
X319727097Y-275206962D01*
X320869955Y-275206962D02*
X321250907Y-275206962D01*
X321429478Y-275302200D01*
X321596146Y-275492676D01*
X321643764Y-275873629D01*
X321560431Y-276540295D01*
X321417574Y-276921248D01*
X321203288Y-277111724D01*
X321000907Y-277206962D01*
X320619955Y-277206962D01*
X320441384Y-277111724D01*
X320274716Y-276921248D01*
X320227097Y-276540295D01*
X320310430Y-275873629D01*
X320453288Y-275492676D01*
X320667574Y-275302200D01*
X320869955Y-275206962D01*
X322584240Y-275206962D02*
X322381859Y-276826010D01*
X322453288Y-277016486D01*
X322536622Y-277111724D01*
X322715193Y-277206962D01*
X323096145Y-277206962D01*
X323298526Y-277111724D01*
X323405669Y-277016486D01*
X323524717Y-276826010D01*
X323727098Y-275206962D01*
X325572336Y-277206962D02*
X325024716Y-276254581D01*
X324429478Y-277206962D02*
X324679478Y-275206962D01*
X325441383Y-275206962D01*
X325619954Y-275302200D01*
X325703288Y-275397438D01*
X325774717Y-275587914D01*
X325739002Y-275873629D01*
X325619955Y-276064105D01*
X325512811Y-276159343D01*
X325310430Y-276254581D01*
X324548525Y-276254581D01*
D10*
X301846143Y-272595057D02*
X301346143Y-272595057D01*
X301346143Y-273380771D02*
X301346143Y-271880771D01*
X302060429Y-271880771D01*
X302631857Y-273380771D02*
X302631857Y-272380771D01*
X302631857Y-271880771D02*
X302560428Y-271952200D01*
X302631857Y-272023629D01*
X302703285Y-271952200D01*
X302631857Y-271880771D01*
X302631857Y-272023629D01*
X303560429Y-273380771D02*
X303417571Y-273309343D01*
X303346143Y-273166486D01*
X303346143Y-271880771D01*
X304703285Y-273309343D02*
X304560428Y-273380771D01*
X304274714Y-273380771D01*
X304131857Y-273309343D01*
X304060428Y-273166486D01*
X304060428Y-272595057D01*
X304131857Y-272452200D01*
X304274714Y-272380771D01*
X304560428Y-272380771D01*
X304703285Y-272452200D01*
X304774714Y-272595057D01*
X304774714Y-272737914D01*
X304060428Y-272880771D01*
X305417571Y-273237914D02*
X305488999Y-273309343D01*
X305417571Y-273380771D01*
X305346142Y-273309343D01*
X305417571Y-273237914D01*
X305417571Y-273380771D01*
X305417571Y-272452200D02*
X305488999Y-272523629D01*
X305417571Y-272595057D01*
X305346142Y-272523629D01*
X305417571Y-272452200D01*
X305417571Y-272595057D01*
X308131857Y-273237914D02*
X308060428Y-273309343D01*
X307846142Y-273380771D01*
X307703285Y-273380771D01*
X307489000Y-273309343D01*
X307346142Y-273166486D01*
X307274714Y-273023629D01*
X307203285Y-272737914D01*
X307203285Y-272523629D01*
X307274714Y-272237914D01*
X307346142Y-272095057D01*
X307489000Y-271952200D01*
X307703285Y-271880771D01*
X307846142Y-271880771D01*
X308060428Y-271952200D01*
X308131857Y-272023629D01*
X308989000Y-273380771D02*
X308846142Y-273309343D01*
X308774714Y-273166486D01*
X308774714Y-271880771D01*
X309774714Y-273380771D02*
X309631856Y-273309343D01*
X309560428Y-273237914D01*
X309488999Y-273095057D01*
X309488999Y-272666486D01*
X309560428Y-272523629D01*
X309631856Y-272452200D01*
X309774714Y-272380771D01*
X309988999Y-272380771D01*
X310131856Y-272452200D01*
X310203285Y-272523629D01*
X310274714Y-272666486D01*
X310274714Y-273095057D01*
X310203285Y-273237914D01*
X310131856Y-273309343D01*
X309988999Y-273380771D01*
X309774714Y-273380771D01*
X311560428Y-273309343D02*
X311417571Y-273380771D01*
X311131857Y-273380771D01*
X310988999Y-273309343D01*
X310917571Y-273237914D01*
X310846142Y-273095057D01*
X310846142Y-272666486D01*
X310917571Y-272523629D01*
X310988999Y-272452200D01*
X311131857Y-272380771D01*
X311417571Y-272380771D01*
X311560428Y-272452200D01*
X312203285Y-273380771D02*
X312203285Y-271880771D01*
X312346142Y-272809343D02*
X312774713Y-273380771D01*
X312774713Y-272380771D02*
X312203285Y-272952200D01*
X313917571Y-272595057D02*
X313417571Y-272595057D01*
X313417571Y-273380771D02*
X313417571Y-271880771D01*
X314131857Y-271880771D01*
X314988999Y-271880771D02*
X315274713Y-271880771D01*
X315417571Y-271952200D01*
X315560428Y-272095057D01*
X315631856Y-272380771D01*
X315631856Y-272880771D01*
X315560428Y-273166486D01*
X315417571Y-273309343D01*
X315274713Y-273380771D01*
X314988999Y-273380771D01*
X314846142Y-273309343D01*
X314703285Y-273166486D01*
X314631856Y-272880771D01*
X314631856Y-272380771D01*
X314703285Y-272095057D01*
X314846142Y-271952200D01*
X314988999Y-271880771D01*
X316274714Y-271880771D02*
X316274714Y-273095057D01*
X316346142Y-273237914D01*
X316417571Y-273309343D01*
X316560428Y-273380771D01*
X316846142Y-273380771D01*
X316989000Y-273309343D01*
X317060428Y-273237914D01*
X317131857Y-273095057D01*
X317131857Y-271880771D01*
X318703286Y-273380771D02*
X318203286Y-272666486D01*
X317846143Y-273380771D02*
X317846143Y-271880771D01*
X318417571Y-271880771D01*
X318560429Y-271952200D01*
X318631857Y-272023629D01*
X318703286Y-272166486D01*
X318703286Y-272380771D01*
X318631857Y-272523629D01*
X318560429Y-272595057D01*
X318417571Y-272666486D01*
X317846143Y-272666486D01*
X319346143Y-273237914D02*
X319417571Y-273309343D01*
X319346143Y-273380771D01*
X319274714Y-273309343D01*
X319346143Y-273237914D01*
X319346143Y-273380771D01*
X320060429Y-273380771D02*
X320060429Y-271880771D01*
X320203286Y-272809343D02*
X320631857Y-273380771D01*
X320631857Y-272380771D02*
X320060429Y-272952200D01*
X321274715Y-273380771D02*
X321274715Y-272380771D01*
X321274715Y-271880771D02*
X321203286Y-271952200D01*
X321274715Y-272023629D01*
X321346143Y-271952200D01*
X321274715Y-271880771D01*
X321274715Y-272023629D01*
X322631858Y-273309343D02*
X322489001Y-273380771D01*
X322203287Y-273380771D01*
X322060429Y-273309343D01*
X321989001Y-273237914D01*
X321917572Y-273095057D01*
X321917572Y-272666486D01*
X321989001Y-272523629D01*
X322060429Y-272452200D01*
X322203287Y-272380771D01*
X322489001Y-272380771D01*
X322631858Y-272452200D01*
X323917572Y-273380771D02*
X323917572Y-272595057D01*
X323846143Y-272452200D01*
X323703286Y-272380771D01*
X323417572Y-272380771D01*
X323274715Y-272452200D01*
X323917572Y-273309343D02*
X323774715Y-273380771D01*
X323417572Y-273380771D01*
X323274715Y-273309343D01*
X323203286Y-273166486D01*
X323203286Y-273023629D01*
X323274715Y-272880771D01*
X323417572Y-272809343D01*
X323774715Y-272809343D01*
X323917572Y-272737914D01*
X325274715Y-273380771D02*
X325274715Y-271880771D01*
X325274715Y-273309343D02*
X325131858Y-273380771D01*
X324846144Y-273380771D01*
X324703286Y-273309343D01*
X324631858Y-273237914D01*
X324560429Y-273095057D01*
X324560429Y-272666486D01*
X324631858Y-272523629D01*
X324703286Y-272452200D01*
X324846144Y-272380771D01*
X325131858Y-272380771D01*
X325274715Y-272452200D01*
X325631858Y-273523629D02*
X326774715Y-273523629D01*
X327131858Y-272380771D02*
X327131858Y-273880771D01*
X327131858Y-272452200D02*
X327274715Y-272380771D01*
X327560429Y-272380771D01*
X327703286Y-272452200D01*
X327774715Y-272523629D01*
X327846144Y-272666486D01*
X327846144Y-273095057D01*
X327774715Y-273237914D01*
X327703286Y-273309343D01*
X327560429Y-273380771D01*
X327274715Y-273380771D01*
X327131858Y-273309343D01*
X329131858Y-273309343D02*
X328989001Y-273380771D01*
X328703287Y-273380771D01*
X328560429Y-273309343D01*
X328489001Y-273237914D01*
X328417572Y-273095057D01*
X328417572Y-272666486D01*
X328489001Y-272523629D01*
X328560429Y-272452200D01*
X328703287Y-272380771D01*
X328989001Y-272380771D01*
X329131858Y-272452200D01*
X329774715Y-273380771D02*
X329774715Y-271880771D01*
X329774715Y-272452200D02*
X329917572Y-272380771D01*
X330203286Y-272380771D01*
X330346143Y-272452200D01*
X330417572Y-272523629D01*
X330489001Y-272666486D01*
X330489001Y-273095057D01*
X330417572Y-273237914D01*
X330346143Y-273309343D01*
X330203286Y-273380771D01*
X329917572Y-273380771D01*
X329774715Y-273309343D01*
X299989000Y-268502200D02*
X407989000Y-268502200D01*
X301274714Y-270609343D02*
X301489000Y-270680771D01*
X301846143Y-270680771D01*
X301989000Y-270609343D01*
X302060429Y-270537914D01*
X302131857Y-270395057D01*
X302131857Y-270252200D01*
X302060429Y-270109343D01*
X301989000Y-270037914D01*
X301846143Y-269966486D01*
X301560429Y-269895057D01*
X301417571Y-269823629D01*
X301346143Y-269752200D01*
X301274714Y-269609343D01*
X301274714Y-269466486D01*
X301346143Y-269323629D01*
X301417571Y-269252200D01*
X301560429Y-269180771D01*
X301917571Y-269180771D01*
X302131857Y-269252200D01*
X302774714Y-270680771D02*
X302774714Y-269180771D01*
X303417571Y-270680771D02*
X303417571Y-269895057D01*
X303346142Y-269752200D01*
X303203285Y-269680771D01*
X302989000Y-269680771D01*
X302846142Y-269752200D01*
X302774714Y-269823629D01*
X304703285Y-270609343D02*
X304560428Y-270680771D01*
X304274714Y-270680771D01*
X304131857Y-270609343D01*
X304060428Y-270466486D01*
X304060428Y-269895057D01*
X304131857Y-269752200D01*
X304274714Y-269680771D01*
X304560428Y-269680771D01*
X304703285Y-269752200D01*
X304774714Y-269895057D01*
X304774714Y-270037914D01*
X304060428Y-270180771D01*
X305988999Y-270609343D02*
X305846142Y-270680771D01*
X305560428Y-270680771D01*
X305417571Y-270609343D01*
X305346142Y-270466486D01*
X305346142Y-269895057D01*
X305417571Y-269752200D01*
X305560428Y-269680771D01*
X305846142Y-269680771D01*
X305988999Y-269752200D01*
X306060428Y-269895057D01*
X306060428Y-270037914D01*
X305346142Y-270180771D01*
X306488999Y-269680771D02*
X307060428Y-269680771D01*
X306703285Y-269180771D02*
X306703285Y-270466486D01*
X306774713Y-270609343D01*
X306917571Y-270680771D01*
X307060428Y-270680771D01*
X307560428Y-270537914D02*
X307631856Y-270609343D01*
X307560428Y-270680771D01*
X307488999Y-270609343D01*
X307560428Y-270537914D01*
X307560428Y-270680771D01*
X307560428Y-269752200D02*
X307631856Y-269823629D01*
X307560428Y-269895057D01*
X307488999Y-269823629D01*
X307560428Y-269752200D01*
X307560428Y-269895057D01*
D11*
X301203286Y-266180771D02*
X301560429Y-267680771D01*
X301846143Y-266609343D01*
X302131857Y-267680771D01*
X302489000Y-266180771D01*
X302917572Y-266680771D02*
X303274715Y-267680771D01*
X303631857Y-266680771D02*
X303274715Y-267680771D01*
X303131857Y-268037914D01*
X303060429Y-268109343D01*
X302917572Y-268180771D01*
X304417572Y-267680771D02*
X304274714Y-267609343D01*
X304203286Y-267537914D01*
X304131857Y-267395057D01*
X304131857Y-266966486D01*
X304203286Y-266823629D01*
X304274714Y-266752200D01*
X304417572Y-266680771D01*
X304631857Y-266680771D01*
X304774714Y-266752200D01*
X304846143Y-266823629D01*
X304917572Y-266966486D01*
X304917572Y-267395057D01*
X304846143Y-267537914D01*
X304774714Y-267609343D01*
X304631857Y-267680771D01*
X304417572Y-267680771D01*
X306274715Y-267680771D02*
X305560429Y-267680771D01*
X305560429Y-266180771D01*
X307417572Y-266680771D02*
X307417572Y-267680771D01*
X306774715Y-266680771D02*
X306774715Y-267466486D01*
X306846143Y-267609343D01*
X306989001Y-267680771D01*
X307203286Y-267680771D01*
X307346143Y-267609343D01*
X307417572Y-267537914D01*
X308131858Y-267680771D02*
X308131858Y-266680771D01*
X308131858Y-266823629D02*
X308203286Y-266752200D01*
X308346144Y-266680771D01*
X308560429Y-266680771D01*
X308703286Y-266752200D01*
X308774715Y-266895057D01*
X308774715Y-267680771D01*
X308774715Y-266895057D02*
X308846144Y-266752200D01*
X308989001Y-266680771D01*
X309203286Y-266680771D01*
X309346144Y-266752200D01*
X309417572Y-266895057D01*
X309417572Y-267680771D01*
D10*
X301203286Y-263680771D02*
X301489000Y-264680771D01*
X301774714Y-263966486D01*
X302060429Y-264680771D01*
X302346143Y-263680771D01*
X302774715Y-263680771D02*
X303060429Y-264680771D01*
X303346143Y-263966486D01*
X303631858Y-264680771D01*
X303917572Y-263680771D01*
X304346144Y-263680771D02*
X304631858Y-264680771D01*
X304917572Y-263966486D01*
X305203287Y-264680771D01*
X305489001Y-263680771D01*
X306060430Y-264537914D02*
X306131858Y-264609343D01*
X306060430Y-264680771D01*
X305989001Y-264609343D01*
X306060430Y-264537914D01*
X306060430Y-264680771D01*
X306631859Y-263680771D02*
X306917573Y-264680771D01*
X307203287Y-263966486D01*
X307489002Y-264680771D01*
X307774716Y-263680771D01*
X308203288Y-263680771D02*
X308560431Y-264680771D01*
X308917573Y-263680771D02*
X308560431Y-264680771D01*
X308417573Y-265037914D01*
X308346145Y-265109343D01*
X308203288Y-265180771D01*
X309703288Y-264680771D02*
X309560430Y-264609343D01*
X309489002Y-264537914D01*
X309417573Y-264395057D01*
X309417573Y-263966486D01*
X309489002Y-263823629D01*
X309560430Y-263752200D01*
X309703288Y-263680771D01*
X309917573Y-263680771D01*
X310060430Y-263752200D01*
X310131859Y-263823629D01*
X310203288Y-263966486D01*
X310203288Y-264395057D01*
X310131859Y-264537914D01*
X310060430Y-264609343D01*
X309917573Y-264680771D01*
X309703288Y-264680771D01*
X311060431Y-264680771D02*
X310917573Y-264609343D01*
X310846145Y-264466486D01*
X310846145Y-263180771D01*
X312274716Y-263680771D02*
X312274716Y-264680771D01*
X311631859Y-263680771D02*
X311631859Y-264466486D01*
X311703287Y-264609343D01*
X311846145Y-264680771D01*
X312060430Y-264680771D01*
X312203287Y-264609343D01*
X312274716Y-264537914D01*
X312989002Y-264680771D02*
X312989002Y-263680771D01*
X312989002Y-263823629D02*
X313060430Y-263752200D01*
X313203288Y-263680771D01*
X313417573Y-263680771D01*
X313560430Y-263752200D01*
X313631859Y-263895057D01*
X313631859Y-264680771D01*
X313631859Y-263895057D02*
X313703288Y-263752200D01*
X313846145Y-263680771D01*
X314060430Y-263680771D01*
X314203288Y-263752200D01*
X314274716Y-263895057D01*
X314274716Y-264680771D01*
X314989002Y-264537914D02*
X315060430Y-264609343D01*
X314989002Y-264680771D01*
X314917573Y-264609343D01*
X314989002Y-264537914D01*
X314989002Y-264680771D01*
X316346145Y-264609343D02*
X316203288Y-264680771D01*
X315917574Y-264680771D01*
X315774716Y-264609343D01*
X315703288Y-264537914D01*
X315631859Y-264395057D01*
X315631859Y-263966486D01*
X315703288Y-263823629D01*
X315774716Y-263752200D01*
X315917574Y-263680771D01*
X316203288Y-263680771D01*
X316346145Y-263752200D01*
X317203288Y-264680771D02*
X317060430Y-264609343D01*
X316989002Y-264537914D01*
X316917573Y-264395057D01*
X316917573Y-263966486D01*
X316989002Y-263823629D01*
X317060430Y-263752200D01*
X317203288Y-263680771D01*
X317417573Y-263680771D01*
X317560430Y-263752200D01*
X317631859Y-263823629D01*
X317703288Y-263966486D01*
X317703288Y-264395057D01*
X317631859Y-264537914D01*
X317560430Y-264609343D01*
X317417573Y-264680771D01*
X317203288Y-264680771D01*
X318346145Y-264680771D02*
X318346145Y-263680771D01*
X318346145Y-263823629D02*
X318417573Y-263752200D01*
X318560431Y-263680771D01*
X318774716Y-263680771D01*
X318917573Y-263752200D01*
X318989002Y-263895057D01*
X318989002Y-264680771D01*
X318989002Y-263895057D02*
X319060431Y-263752200D01*
X319203288Y-263680771D01*
X319417573Y-263680771D01*
X319560431Y-263752200D01*
X319631859Y-263895057D01*
X319631859Y-264680771D01*
X301346143Y-261680771D02*
X301346143Y-260180771D01*
X301703286Y-260180771D01*
X301917571Y-260252200D01*
X302060429Y-260395057D01*
X302131857Y-260537914D01*
X302203286Y-260823629D01*
X302203286Y-261037914D01*
X302131857Y-261323629D01*
X302060429Y-261466486D01*
X301917571Y-261609343D01*
X301703286Y-261680771D01*
X301346143Y-261680771D01*
X303489000Y-261680771D02*
X303489000Y-260895057D01*
X303417571Y-260752200D01*
X303274714Y-260680771D01*
X302989000Y-260680771D01*
X302846143Y-260752200D01*
X303489000Y-261609343D02*
X303346143Y-261680771D01*
X302989000Y-261680771D01*
X302846143Y-261609343D01*
X302774714Y-261466486D01*
X302774714Y-261323629D01*
X302846143Y-261180771D01*
X302989000Y-261109343D01*
X303346143Y-261109343D01*
X303489000Y-261037914D01*
X304060429Y-260680771D02*
X304417572Y-261680771D01*
X304774714Y-260680771D01*
X305346143Y-261680771D02*
X305346143Y-260680771D01*
X305346143Y-260180771D02*
X305274714Y-260252200D01*
X305346143Y-260323629D01*
X305417571Y-260252200D01*
X305346143Y-260180771D01*
X305346143Y-260323629D01*
X306703286Y-261680771D02*
X306703286Y-260180771D01*
X306703286Y-261609343D02*
X306560429Y-261680771D01*
X306274715Y-261680771D01*
X306131857Y-261609343D01*
X306060429Y-261537914D01*
X305989000Y-261395057D01*
X305989000Y-260966486D01*
X306060429Y-260823629D01*
X306131857Y-260752200D01*
X306274715Y-260680771D01*
X306560429Y-260680771D01*
X306703286Y-260752200D01*
X308560429Y-261680771D02*
X308560429Y-260180771D01*
X309131857Y-260180771D01*
X309274715Y-260252200D01*
X309346143Y-260323629D01*
X309417572Y-260466486D01*
X309417572Y-260680771D01*
X309346143Y-260823629D01*
X309274715Y-260895057D01*
X309131857Y-260966486D01*
X308560429Y-260966486D01*
X310060429Y-261680771D02*
X310060429Y-260680771D01*
X310060429Y-260180771D02*
X309989000Y-260252200D01*
X310060429Y-260323629D01*
X310131857Y-260252200D01*
X310060429Y-260180771D01*
X310060429Y-260323629D01*
X310774715Y-260680771D02*
X310774715Y-261680771D01*
X310774715Y-260823629D02*
X310846143Y-260752200D01*
X310989001Y-260680771D01*
X311203286Y-260680771D01*
X311346143Y-260752200D01*
X311417572Y-260895057D01*
X311417572Y-261680771D01*
X312774715Y-261609343D02*
X312631858Y-261680771D01*
X312346144Y-261680771D01*
X312203286Y-261609343D01*
X312131858Y-261537914D01*
X312060429Y-261395057D01*
X312060429Y-260966486D01*
X312131858Y-260823629D01*
X312203286Y-260752200D01*
X312346144Y-260680771D01*
X312631858Y-260680771D01*
X312774715Y-260752200D01*
X314060429Y-260680771D02*
X314060429Y-261680771D01*
X313417572Y-260680771D02*
X313417572Y-261466486D01*
X313489000Y-261609343D01*
X313631858Y-261680771D01*
X313846143Y-261680771D01*
X313989000Y-261609343D01*
X314060429Y-261537914D01*
X314703286Y-261609343D02*
X314846143Y-261680771D01*
X315131858Y-261680771D01*
X315274715Y-261609343D01*
X315346143Y-261466486D01*
X315346143Y-261395057D01*
X315274715Y-261252200D01*
X315131858Y-261180771D01*
X314917572Y-261180771D01*
X314774715Y-261109343D01*
X314703286Y-260966486D01*
X314703286Y-260895057D01*
X314774715Y-260752200D01*
X314917572Y-260680771D01*
X315131858Y-260680771D01*
X315274715Y-260752200D01*
X319989000Y-278502200D02*
X319989000Y-281502200D01*
X383989000Y-278502200D02*
X383989000Y-285002200D01*
D13*
X220000000Y-269000000D02*
X59000000Y-269000000D01*
X233000000Y-269000000D02*
X259000000Y-269000000D01*
X231500000Y-261500000D02*
X231500000Y-267500000D01*
X221500000Y-267500000D02*
X221500000Y-261500000D01*
X231500000Y-267500000D02*
G75*
G03X233000000Y-269000000I1500000J0D01*
G01*
X220000000Y-269000000D02*
G75*
G03X221500000Y-267500000I0J1500000D01*
G01*
X231500000Y-261500000D02*
G75*
G03X230000000Y-260000000I-1500000J0D01*
G01*
X223000000Y-260000000D02*
G75*
G03X221500000Y-261500000I0J-1500000D01*
G01*
X264000000Y-46000000D02*
X264000000Y-264000000D01*
X93000000Y-41000000D02*
X259000000Y-41000000D01*
X75000000Y-41000000D02*
X59000000Y-41000000D01*
X76500000Y-42500000D02*
X76500000Y-42600000D01*
X76500000Y-42500000D02*
G75*
G03X75000000Y-41000000I-1500000J0D01*
G01*
X91500000Y-42500000D02*
X91500000Y-42600000D01*
X93000000Y-41000000D02*
G75*
G03X91500000Y-42500000I0J-1500000D01*
G01*
X90000000Y-44100000D02*
G75*
G03X91500000Y-42600000I0J1500000D01*
G01*
X76500000Y-42600000D02*
G75*
G03X78000000Y-44100000I1500000J0D01*
G01*
X84000000Y-44100000D02*
X90000000Y-44100000D01*
X84000000Y-44100000D02*
X78000000Y-44100000D01*
X54000000Y-264000000D02*
X54000000Y-46000000D01*
X259000000Y-269000000D02*
G75*
G03X264000000Y-264000000I0J5000000D01*
G01*
X264000000Y-46000000D02*
G75*
G03X259000000Y-41000000I-5000000J0D01*
G01*
X59000000Y-41000000D02*
G75*
G03X54000000Y-46000000I0J-5000000D01*
G01*
X54000000Y-264000000D02*
G75*
G03X59000000Y-269000000I5000000J0D01*
G01*
X230000000Y-260000000D02*
X223000000Y-260000000D01*
D14*
X252250000Y-250000000D03*
X252250000Y-252000000D03*
X237250000Y-250000000D03*
X237250000Y-252000000D03*
X222250000Y-250000000D03*
X222250000Y-252000000D03*
X207250000Y-250000000D03*
X207250000Y-252000000D03*
X192250000Y-250000000D03*
X192250000Y-252000000D03*
X177250000Y-250000000D03*
X177250000Y-252000000D03*
X162250000Y-250000000D03*
X162250000Y-252000000D03*
X147250000Y-250000000D03*
X147250000Y-252000000D03*
X132250000Y-250000000D03*
X132250000Y-252000000D03*
X117250000Y-250000000D03*
X117250000Y-252000000D03*
X102250000Y-250000000D03*
X102250000Y-252000000D03*
X87250000Y-250000000D03*
X87250000Y-252000000D03*
X72250000Y-250000000D03*
X72250000Y-252000000D03*
X57250000Y-250000000D03*
X57250000Y-252000000D03*
X252250000Y-234000000D03*
X252250000Y-236000000D03*
X237250000Y-234000000D03*
X237250000Y-236000000D03*
X222250000Y-234000000D03*
X222250000Y-236000000D03*
X207250000Y-234000000D03*
X207250000Y-236000000D03*
X192250000Y-234000000D03*
X192250000Y-236000000D03*
X177250000Y-234000000D03*
X177250000Y-236000000D03*
X162250000Y-234000000D03*
X162250000Y-236000000D03*
X147250000Y-234000000D03*
X147250000Y-236000000D03*
X132250000Y-234000000D03*
X132250000Y-236000000D03*
X117250000Y-234000000D03*
X117250000Y-236000000D03*
X102250000Y-234000000D03*
X102250000Y-236000000D03*
X87250000Y-234000000D03*
X87250000Y-236000000D03*
X72250000Y-234000000D03*
X72250000Y-236000000D03*
X57250000Y-234000000D03*
X57250000Y-236000000D03*
X252250000Y-218000000D03*
X252250000Y-220000000D03*
X237250000Y-218000000D03*
X237250000Y-220000000D03*
X222250000Y-218000000D03*
X222250000Y-220000000D03*
X207250000Y-218000000D03*
X207250000Y-220000000D03*
X192250000Y-218000000D03*
X192250000Y-220000000D03*
X177250000Y-218000000D03*
X177250000Y-220000000D03*
X162250000Y-218000000D03*
X162250000Y-220000000D03*
X147250000Y-218000000D03*
X147250000Y-220000000D03*
X132250000Y-218000000D03*
X132250000Y-220000000D03*
X117250000Y-218000000D03*
X117250000Y-220000000D03*
X102250000Y-218000000D03*
X102250000Y-220000000D03*
X87250000Y-218000000D03*
X87250000Y-220000000D03*
X72250000Y-218000000D03*
X72250000Y-220000000D03*
X57250000Y-218000000D03*
X57250000Y-220000000D03*
X252250000Y-202000000D03*
X252250000Y-204000000D03*
X237250000Y-202000000D03*
X237250000Y-204000000D03*
X222250000Y-202000000D03*
X222250000Y-204000000D03*
X207250000Y-202000000D03*
X207250000Y-204000000D03*
X192250000Y-202000000D03*
X192250000Y-204000000D03*
X177250000Y-202000000D03*
X177250000Y-204000000D03*
X162250000Y-202000000D03*
X162250000Y-204000000D03*
X147250000Y-202000000D03*
X147250000Y-204000000D03*
X132250000Y-202000000D03*
X132250000Y-204000000D03*
X117250000Y-202000000D03*
X117250000Y-204000000D03*
X102250000Y-202000000D03*
X102250000Y-204000000D03*
X87250000Y-202000000D03*
X87250000Y-204000000D03*
X72250000Y-202000000D03*
X72250000Y-204000000D03*
X57250000Y-202000000D03*
X57250000Y-204000000D03*
X252250000Y-186000000D03*
X252250000Y-188000000D03*
X237250000Y-186000000D03*
X237250000Y-188000000D03*
X222250000Y-186000000D03*
X222250000Y-188000000D03*
X207250000Y-186000000D03*
X207250000Y-188000000D03*
X192250000Y-186000000D03*
X192250000Y-188000000D03*
X177250000Y-186000000D03*
X177250000Y-188000000D03*
X162250000Y-186000000D03*
X162250000Y-188000000D03*
X147250000Y-186000000D03*
X147250000Y-188000000D03*
X132250000Y-186000000D03*
X132250000Y-188000000D03*
X117250000Y-186000000D03*
X117250000Y-188000000D03*
X102250000Y-186000000D03*
X102250000Y-188000000D03*
X87250000Y-186000000D03*
X87250000Y-188000000D03*
X72250000Y-186000000D03*
X72250000Y-188000000D03*
X57250000Y-186000000D03*
X57250000Y-188000000D03*
X252250000Y-170000000D03*
X252250000Y-172000000D03*
X237250000Y-170000000D03*
X237250000Y-172000000D03*
X222250000Y-170000000D03*
X222250000Y-172000000D03*
X207250000Y-170000000D03*
X207250000Y-172000000D03*
X192250000Y-170000000D03*
X192250000Y-172000000D03*
X177250000Y-170000000D03*
X177250000Y-172000000D03*
X162250000Y-170000000D03*
X162250000Y-172000000D03*
X147250000Y-170000000D03*
X147250000Y-172000000D03*
X132250000Y-170000000D03*
X132250000Y-172000000D03*
X117250000Y-170000000D03*
X117250000Y-172000000D03*
X102250000Y-170000000D03*
X102250000Y-172000000D03*
X87250000Y-170000000D03*
X87250000Y-172000000D03*
X72250000Y-170000000D03*
X72250000Y-172000000D03*
X57250000Y-170000000D03*
X57250000Y-172000000D03*
X252250000Y-154000000D03*
X252250000Y-156000000D03*
X237250000Y-154000000D03*
X237250000Y-156000000D03*
X222250000Y-154000000D03*
X222250000Y-156000000D03*
X207250000Y-154000000D03*
X207250000Y-156000000D03*
X192250000Y-154000000D03*
X192250000Y-156000000D03*
X177250000Y-154000000D03*
X177250000Y-156000000D03*
X162250000Y-154000000D03*
X162250000Y-156000000D03*
X147250000Y-154000000D03*
X147250000Y-156000000D03*
X132250000Y-154000000D03*
X132250000Y-156000000D03*
X117250000Y-154000000D03*
X117250000Y-156000000D03*
X102250000Y-154000000D03*
X102250000Y-156000000D03*
X87250000Y-154000000D03*
X87250000Y-156000000D03*
X72250000Y-154000000D03*
X72250000Y-156000000D03*
X57250000Y-154000000D03*
X57250000Y-156000000D03*
X252250000Y-138000000D03*
X252250000Y-140000000D03*
X237250000Y-138000000D03*
X237250000Y-140000000D03*
X222250000Y-138000000D03*
X222250000Y-140000000D03*
X207250000Y-138000000D03*
X207250000Y-140000000D03*
X192250000Y-138000000D03*
X192250000Y-140000000D03*
X177250000Y-138000000D03*
X177250000Y-140000000D03*
X162250000Y-138000000D03*
X162250000Y-140000000D03*
X147250000Y-138000000D03*
X147250000Y-140000000D03*
X132250000Y-138000000D03*
X132250000Y-140000000D03*
X117250000Y-138000000D03*
X117250000Y-140000000D03*
X102250000Y-138000000D03*
X102250000Y-140000000D03*
X87250000Y-138000000D03*
X87250000Y-140000000D03*
X72250000Y-138000000D03*
X72250000Y-140000000D03*
X57250000Y-138000000D03*
X57250000Y-140000000D03*
X252250000Y-122000000D03*
X252250000Y-124000000D03*
X237250000Y-122000000D03*
X237250000Y-124000000D03*
X222250000Y-122000000D03*
X222250000Y-124000000D03*
X207250000Y-122000000D03*
X207250000Y-124000000D03*
X192250000Y-122000000D03*
X192250000Y-124000000D03*
X177250000Y-122000000D03*
X177250000Y-124000000D03*
X162250000Y-122000000D03*
X162250000Y-124000000D03*
X147250000Y-122000000D03*
X147250000Y-124000000D03*
X132250000Y-122000000D03*
X132250000Y-124000000D03*
X117250000Y-122000000D03*
X117250000Y-124000000D03*
X102250000Y-122000000D03*
X102250000Y-124000000D03*
X87250000Y-122000000D03*
X87250000Y-124000000D03*
X72250000Y-122000000D03*
X72250000Y-124000000D03*
X57250000Y-122000000D03*
X57250000Y-124000000D03*
X252250000Y-106000000D03*
X252250000Y-108000000D03*
X237250000Y-106000000D03*
X237250000Y-108000000D03*
X222250000Y-106000000D03*
X222250000Y-108000000D03*
X207250000Y-106000000D03*
X207250000Y-108000000D03*
X192250000Y-106000000D03*
X192250000Y-108000000D03*
X177250000Y-106000000D03*
X177250000Y-108000000D03*
X162250000Y-106000000D03*
X162250000Y-108000000D03*
X147250000Y-106000000D03*
X147250000Y-108000000D03*
X132250000Y-106000000D03*
X132250000Y-108000000D03*
X117250000Y-106000000D03*
X117250000Y-108000000D03*
X102250000Y-106000000D03*
X102250000Y-108000000D03*
X87250000Y-106000000D03*
X87250000Y-108000000D03*
X72250000Y-106000000D03*
X72250000Y-108000000D03*
X57250000Y-106000000D03*
X57250000Y-108000000D03*
X252250000Y-90000000D03*
X252250000Y-92000000D03*
X237250000Y-90000000D03*
X237250000Y-92000000D03*
X222250000Y-90000000D03*
X222250000Y-92000000D03*
X207250000Y-90000000D03*
X207250000Y-92000000D03*
X192250000Y-90000000D03*
X192250000Y-92000000D03*
X177000000Y-90000000D03*
X177000000Y-92000000D03*
X162250000Y-90000000D03*
X162250000Y-92000000D03*
X147250000Y-90000000D03*
X147250000Y-92000000D03*
X132250000Y-90000000D03*
X132250000Y-92000000D03*
X117250000Y-90000000D03*
X117250000Y-92000000D03*
X102250000Y-90000000D03*
X102250000Y-92000000D03*
X87250000Y-90000000D03*
X87250000Y-92000000D03*
X72250000Y-90000000D03*
X72250000Y-92000000D03*
X57250000Y-90000000D03*
X57250000Y-92000000D03*
X252250000Y-74000000D03*
X252250000Y-76000000D03*
X237250000Y-74000000D03*
X237250000Y-76000000D03*
X222250000Y-74000000D03*
X222250000Y-76000000D03*
X207250000Y-74000000D03*
X207250000Y-76000000D03*
X192250000Y-74000000D03*
X192250000Y-76000000D03*
X177250000Y-74000000D03*
X177250000Y-76000000D03*
X162250000Y-74000000D03*
X162250000Y-76000000D03*
X147250000Y-74000000D03*
X147250000Y-76000000D03*
X132250000Y-74000000D03*
X132250000Y-76000000D03*
X117250000Y-74000000D03*
X117250000Y-76000000D03*
X102250000Y-74000000D03*
X102250000Y-76000000D03*
X87250000Y-74000000D03*
X87250000Y-76000000D03*
X72250000Y-74000000D03*
X72250000Y-76000000D03*
X57250000Y-74000000D03*
X57250000Y-76000000D03*
X252250000Y-58000000D03*
X252250000Y-60000000D03*
X237250000Y-58000000D03*
X237250000Y-60000000D03*
X222250000Y-58000000D03*
X222250000Y-60000000D03*
X207250000Y-58000000D03*
X207250000Y-60000000D03*
X192250000Y-58000000D03*
X192250000Y-60000000D03*
X177250000Y-58000000D03*
X177250000Y-60000000D03*
X162250000Y-58000000D03*
X162250000Y-60000000D03*
X147250000Y-58000000D03*
X147250000Y-60000000D03*
X132250000Y-58000000D03*
X132250000Y-60000000D03*
X117250000Y-58000000D03*
X117250000Y-60000000D03*
X102250000Y-58000000D03*
X102250000Y-60000000D03*
X87250000Y-58000000D03*
X87250000Y-60000000D03*
X72250000Y-58000000D03*
X72250000Y-60000000D03*
X57250000Y-58000000D03*
X57250000Y-60000000D03*
D15*
X138087500Y-72523500D03*
X134912500Y-72523500D03*
X134912500Y-77476500D03*
X138087500Y-77476500D03*
X258087500Y-248523500D03*
X254912500Y-248523500D03*
X254912500Y-253476500D03*
X258087500Y-253476500D03*
X243087500Y-248523500D03*
X239912500Y-248523500D03*
X239912500Y-253476500D03*
X243087500Y-253476500D03*
X228087500Y-248523500D03*
X224912500Y-248523500D03*
X224912500Y-253476500D03*
X228087500Y-253476500D03*
X213087500Y-248523500D03*
X209912500Y-248523500D03*
X209912500Y-253476500D03*
X213087500Y-253476500D03*
X198087500Y-248523500D03*
X194912500Y-248523500D03*
X194912500Y-253476500D03*
X198087500Y-253476500D03*
X183087500Y-248523500D03*
X179912500Y-248523500D03*
X179912500Y-253476500D03*
X183087500Y-253476500D03*
X168087500Y-248523500D03*
X164912500Y-248523500D03*
X164912500Y-253476500D03*
X168087500Y-253476500D03*
X153087500Y-248523500D03*
X149912500Y-248523500D03*
X149912500Y-253476500D03*
X153087500Y-253476500D03*
X138087500Y-248523500D03*
X134912500Y-248523500D03*
X134912500Y-253476500D03*
X138087500Y-253476500D03*
X123087500Y-248523500D03*
X119912500Y-248523500D03*
X119912500Y-253476500D03*
X123087500Y-253476500D03*
X108087500Y-248523500D03*
X104912500Y-248523500D03*
X104912500Y-253476500D03*
X108087500Y-253476500D03*
X93087500Y-248523500D03*
X89912500Y-248523500D03*
X89912500Y-253476500D03*
X93087500Y-253476500D03*
X78087500Y-248523500D03*
X74912500Y-248523500D03*
X74912500Y-253476500D03*
X78087500Y-253476500D03*
X63087500Y-248523500D03*
X59912500Y-248523500D03*
X59912500Y-253476500D03*
X63087500Y-253476500D03*
X258087500Y-232523500D03*
X254912500Y-232523500D03*
X254912500Y-237476500D03*
X258087500Y-237476500D03*
X243087500Y-232523500D03*
X239912500Y-232523500D03*
X239912500Y-237476500D03*
X243087500Y-237476500D03*
X228087500Y-232523500D03*
X224912500Y-232523500D03*
X224912500Y-237476500D03*
X228087500Y-237476500D03*
X213087500Y-232523500D03*
X209912500Y-232523500D03*
X209912500Y-237476500D03*
X213087500Y-237476500D03*
X198087500Y-232523500D03*
X194912500Y-232523500D03*
X194912500Y-237476500D03*
X198087500Y-237476500D03*
X183087500Y-232523500D03*
X179912500Y-232523500D03*
X179912500Y-237476500D03*
X183087500Y-237476500D03*
X168087500Y-232523500D03*
X164912500Y-232523500D03*
X164912500Y-237476500D03*
X168087500Y-237476500D03*
X153087500Y-232523500D03*
X149912500Y-232523500D03*
X149912500Y-237476500D03*
X153087500Y-237476500D03*
X138087500Y-232523500D03*
X134912500Y-232523500D03*
X134912500Y-237476500D03*
X138087500Y-237476500D03*
X123087500Y-232523500D03*
X119912500Y-232523500D03*
X119912500Y-237476500D03*
X123087500Y-237476500D03*
X108087500Y-232523500D03*
X104912500Y-232523500D03*
X104912500Y-237476500D03*
X108087500Y-237476500D03*
X93087500Y-232523500D03*
X89912500Y-232523500D03*
X89912500Y-237476500D03*
X93087500Y-237476500D03*
X78087500Y-232523500D03*
X74912500Y-232523500D03*
X74912500Y-237476500D03*
X78087500Y-237476500D03*
X63087500Y-232523500D03*
X59912500Y-232523500D03*
X59912500Y-237476500D03*
X63087500Y-237476500D03*
X258087500Y-216523500D03*
X254912500Y-216523500D03*
X254912500Y-221476500D03*
X258087500Y-221476500D03*
X243087500Y-216523500D03*
X239912500Y-216523500D03*
X239912500Y-221476500D03*
X243087500Y-221476500D03*
X228087500Y-216523500D03*
X224912500Y-216523500D03*
X224912500Y-221476500D03*
X228087500Y-221476500D03*
X213087500Y-216523500D03*
X209912500Y-216523500D03*
X209912500Y-221476500D03*
X213087500Y-221476500D03*
X198087500Y-216523500D03*
X194912500Y-216523500D03*
X194912500Y-221476500D03*
X198087500Y-221476500D03*
X183087500Y-216523500D03*
X179912500Y-216523500D03*
X179912500Y-221476500D03*
X183087500Y-221476500D03*
X168087500Y-216523500D03*
X164912500Y-216523500D03*
X164912500Y-221476500D03*
X168087500Y-221476500D03*
X153087500Y-216523500D03*
X149912500Y-216523500D03*
X149912500Y-221476500D03*
X153087500Y-221476500D03*
X138087500Y-216523500D03*
X134912500Y-216523500D03*
X134912500Y-221476500D03*
X138087500Y-221476500D03*
X123087500Y-216523500D03*
X119912500Y-216523500D03*
X119912500Y-221476500D03*
X123087500Y-221476500D03*
X108087500Y-216523500D03*
X104912500Y-216523500D03*
X104912500Y-221476500D03*
X108087500Y-221476500D03*
X93087500Y-216523500D03*
X89912500Y-216523500D03*
X89912500Y-221476500D03*
X93087500Y-221476500D03*
X78087500Y-216523500D03*
X74912500Y-216523500D03*
X74912500Y-221476500D03*
X78087500Y-221476500D03*
X63087500Y-216523500D03*
X59912500Y-216523500D03*
X59912500Y-221476500D03*
X63087500Y-221476500D03*
X258087500Y-200523500D03*
X254912500Y-200523500D03*
X254912500Y-205476500D03*
X258087500Y-205476500D03*
X243087500Y-200523500D03*
X239912500Y-200523500D03*
X239912500Y-205476500D03*
X243087500Y-205476500D03*
X228087500Y-200523500D03*
X224912500Y-200523500D03*
X224912500Y-205476500D03*
X228087500Y-205476500D03*
X213087500Y-200523500D03*
X209912500Y-200523500D03*
X209912500Y-205476500D03*
X213087500Y-205476500D03*
X198087500Y-200523500D03*
X194912500Y-200523500D03*
X194912500Y-205476500D03*
X198087500Y-205476500D03*
X183087500Y-200523500D03*
X179912500Y-200523500D03*
X179912500Y-205476500D03*
X183087500Y-205476500D03*
X168087500Y-200523500D03*
X164912500Y-200523500D03*
X164912500Y-205476500D03*
X168087500Y-205476500D03*
X153087500Y-200523500D03*
X149912500Y-200523500D03*
X149912500Y-205476500D03*
X153087500Y-205476500D03*
X138087500Y-200523500D03*
X134912500Y-200523500D03*
X134912500Y-205476500D03*
X138087500Y-205476500D03*
X123087500Y-200523500D03*
X119912500Y-200523500D03*
X119912500Y-205476500D03*
X123087500Y-205476500D03*
X108087500Y-200523500D03*
X104912500Y-200523500D03*
X104912500Y-205476500D03*
X108087500Y-205476500D03*
X93087500Y-200523500D03*
X89912500Y-200523500D03*
X89912500Y-205476500D03*
X93087500Y-205476500D03*
X78087500Y-200523500D03*
X74912500Y-200523500D03*
X74912500Y-205476500D03*
X78087500Y-205476500D03*
X63087500Y-200523500D03*
X59912500Y-200523500D03*
X59912500Y-205476500D03*
X63087500Y-205476500D03*
X258087500Y-184523500D03*
X254912500Y-184523500D03*
X254912500Y-189476500D03*
X258087500Y-189476500D03*
X243087500Y-184523500D03*
X239912500Y-184523500D03*
X239912500Y-189476500D03*
X243087500Y-189476500D03*
X228087500Y-184523500D03*
X224912500Y-184523500D03*
X224912500Y-189476500D03*
X228087500Y-189476500D03*
X213087500Y-184523500D03*
X209912500Y-184523500D03*
X209912500Y-189476500D03*
X213087500Y-189476500D03*
X198087500Y-184523500D03*
X194912500Y-184523500D03*
X194912500Y-189476500D03*
X198087500Y-189476500D03*
X183087500Y-184523500D03*
X179912500Y-184523500D03*
X179912500Y-189476500D03*
X183087500Y-189476500D03*
X168087500Y-184523500D03*
X164912500Y-184523500D03*
X164912500Y-189476500D03*
X168087500Y-189476500D03*
X153087500Y-184523500D03*
X149912500Y-184523500D03*
X149912500Y-189476500D03*
X153087500Y-189476500D03*
X138087500Y-184523500D03*
X134912500Y-184523500D03*
X134912500Y-189476500D03*
X138087500Y-189476500D03*
X123087500Y-184523500D03*
X119912500Y-184523500D03*
X119912500Y-189476500D03*
X123087500Y-189476500D03*
X108087500Y-184523500D03*
X104912500Y-184523500D03*
X104912500Y-189476500D03*
X108087500Y-189476500D03*
X93087500Y-184523500D03*
X89912500Y-184523500D03*
X89912500Y-189476500D03*
X93087500Y-189476500D03*
X78087500Y-184523500D03*
X74912500Y-184523500D03*
X74912500Y-189476500D03*
X78087500Y-189476500D03*
X63087500Y-184523500D03*
X59912500Y-184523500D03*
X59912500Y-189476500D03*
X63087500Y-189476500D03*
X258087500Y-168523500D03*
X254912500Y-168523500D03*
X254912500Y-173476500D03*
X258087500Y-173476500D03*
X243087500Y-168523500D03*
X239912500Y-168523500D03*
X239912500Y-173476500D03*
X243087500Y-173476500D03*
X228087500Y-168523500D03*
X224912500Y-168523500D03*
X224912500Y-173476500D03*
X228087500Y-173476500D03*
X213087500Y-168523500D03*
X209912500Y-168523500D03*
X209912500Y-173476500D03*
X213087500Y-173476500D03*
X198087500Y-168523500D03*
X194912500Y-168523500D03*
X194912500Y-173476500D03*
X198087500Y-173476500D03*
X183087500Y-168523500D03*
X179912500Y-168523500D03*
X179912500Y-173476500D03*
X183087500Y-173476500D03*
X168087500Y-168523500D03*
X164912500Y-168523500D03*
X164912500Y-173476500D03*
X168087500Y-173476500D03*
X153087500Y-168523500D03*
X149912500Y-168523500D03*
X149912500Y-173476500D03*
X153087500Y-173476500D03*
X138087500Y-168523500D03*
X134912500Y-168523500D03*
X134912500Y-173476500D03*
X138087500Y-173476500D03*
X123087500Y-168523500D03*
X119912500Y-168523500D03*
X119912500Y-173476500D03*
X123087500Y-173476500D03*
X108087500Y-168523500D03*
X104912500Y-168523500D03*
X104912500Y-173476500D03*
X108087500Y-173476500D03*
X93087500Y-168523500D03*
X89912500Y-168523500D03*
X89912500Y-173476500D03*
X93087500Y-173476500D03*
X78087500Y-168523500D03*
X74912500Y-168523500D03*
X74912500Y-173476500D03*
X78087500Y-173476500D03*
X63087500Y-168523500D03*
X59912500Y-168523500D03*
X59912500Y-173476500D03*
X63087500Y-173476500D03*
X258087500Y-152523500D03*
X254912500Y-152523500D03*
X254912500Y-157476500D03*
X258087500Y-157476500D03*
X243087500Y-152523500D03*
X239912500Y-152523500D03*
X239912500Y-157476500D03*
X243087500Y-157476500D03*
X228087500Y-152523500D03*
X224912500Y-152523500D03*
X224912500Y-157476500D03*
X228087500Y-157476500D03*
X213087500Y-152523500D03*
X209912500Y-152523500D03*
X209912500Y-157476500D03*
X213087500Y-157476500D03*
X198087500Y-152523500D03*
X194912500Y-152523500D03*
X194912500Y-157476500D03*
X198087500Y-157476500D03*
X183087500Y-152523500D03*
X179912500Y-152523500D03*
X179912500Y-157476500D03*
X183087500Y-157476500D03*
X168087500Y-152523500D03*
X164912500Y-152523500D03*
X164912500Y-157476500D03*
X168087500Y-157476500D03*
X153087500Y-152523500D03*
X149912500Y-152523500D03*
X149912500Y-157476500D03*
X153087500Y-157476500D03*
X138087500Y-152523500D03*
X134912500Y-152523500D03*
X134912500Y-157476500D03*
X138087500Y-157476500D03*
X123087500Y-152523500D03*
X119912500Y-152523500D03*
X119912500Y-157476500D03*
X123087500Y-157476500D03*
X108087500Y-152523500D03*
X104912500Y-152523500D03*
X104912500Y-157476500D03*
X108087500Y-157476500D03*
X93087500Y-152523500D03*
X89912500Y-152523500D03*
X89912500Y-157476500D03*
X93087500Y-157476500D03*
X78087500Y-152523500D03*
X74912500Y-152523500D03*
X74912500Y-157476500D03*
X78087500Y-157476500D03*
X63087500Y-152523500D03*
X59912500Y-152523500D03*
X59912500Y-157476500D03*
X63087500Y-157476500D03*
X258087500Y-136523500D03*
X254912500Y-136523500D03*
X254912500Y-141476500D03*
X258087500Y-141476500D03*
X243087500Y-136523500D03*
X239912500Y-136523500D03*
X239912500Y-141476500D03*
X243087500Y-141476500D03*
X228087500Y-136523500D03*
X224912500Y-136523500D03*
X224912500Y-141476500D03*
X228087500Y-141476500D03*
X213087500Y-136523500D03*
X209912500Y-136523500D03*
X209912500Y-141476500D03*
X213087500Y-141476500D03*
X198087500Y-136523500D03*
X194912500Y-136523500D03*
X194912500Y-141476500D03*
X198087500Y-141476500D03*
X183087500Y-136523500D03*
X179912500Y-136523500D03*
X179912500Y-141476500D03*
X183087500Y-141476500D03*
X168087500Y-136523500D03*
X164912500Y-136523500D03*
X164912500Y-141476500D03*
X168087500Y-141476500D03*
X153087500Y-136523500D03*
X149912500Y-136523500D03*
X149912500Y-141476500D03*
X153087500Y-141476500D03*
X138087500Y-136523500D03*
X134912500Y-136523500D03*
X134912500Y-141476500D03*
X138087500Y-141476500D03*
X123087500Y-136523500D03*
X119912500Y-136523500D03*
X119912500Y-141476500D03*
X123087500Y-141476500D03*
X108087500Y-136523500D03*
X104912500Y-136523500D03*
X104912500Y-141476500D03*
X108087500Y-141476500D03*
X93087500Y-136523500D03*
X89912500Y-136523500D03*
X89912500Y-141476500D03*
X93087500Y-141476500D03*
X78087500Y-136523500D03*
X74912500Y-136523500D03*
X74912500Y-141476500D03*
X78087500Y-141476500D03*
X63087500Y-136523500D03*
X59912500Y-136523500D03*
X59912500Y-141476500D03*
X63087500Y-141476500D03*
X258087500Y-120523500D03*
X254912500Y-120523500D03*
X254912500Y-125476500D03*
X258087500Y-125476500D03*
X243087500Y-120523500D03*
X239912500Y-120523500D03*
X239912500Y-125476500D03*
X243087500Y-125476500D03*
X228087500Y-120523500D03*
X224912500Y-120523500D03*
X224912500Y-125476500D03*
X228087500Y-125476500D03*
X213087500Y-120523500D03*
X209912500Y-120523500D03*
X209912500Y-125476500D03*
X213087500Y-125476500D03*
X198087500Y-120523500D03*
X194912500Y-120523500D03*
X194912500Y-125476500D03*
X198087500Y-125476500D03*
X183087500Y-120523500D03*
X179912500Y-120523500D03*
X179912500Y-125476500D03*
X183087500Y-125476500D03*
X168087500Y-120523500D03*
X164912500Y-120523500D03*
X164912500Y-125476500D03*
X168087500Y-125476500D03*
X153087500Y-120523500D03*
X149912500Y-120523500D03*
X149912500Y-125476500D03*
X153087500Y-125476500D03*
X138087500Y-120523500D03*
X134912500Y-120523500D03*
X134912500Y-125476500D03*
X138087500Y-125476500D03*
X123087500Y-120523500D03*
X119912500Y-120523500D03*
X119912500Y-125476500D03*
X123087500Y-125476500D03*
X108087500Y-120523500D03*
X104912500Y-120523500D03*
X104912500Y-125476500D03*
X108087500Y-125476500D03*
X93087500Y-120523500D03*
X89912500Y-120523500D03*
X89912500Y-125476500D03*
X93087500Y-125476500D03*
X78087500Y-120523500D03*
X74912500Y-120523500D03*
X74912500Y-125476500D03*
X78087500Y-125476500D03*
X63087500Y-120523500D03*
X59912500Y-120523500D03*
X59912500Y-125476500D03*
X63087500Y-125476500D03*
X258087500Y-104523500D03*
X254912500Y-104523500D03*
X254912500Y-109476500D03*
X258087500Y-109476500D03*
X243087500Y-104523500D03*
X239912500Y-104523500D03*
X239912500Y-109476500D03*
X243087500Y-109476500D03*
X228087500Y-104523500D03*
X224912500Y-104523500D03*
X224912500Y-109476500D03*
X228087500Y-109476500D03*
X213087500Y-104523500D03*
X209912500Y-104523500D03*
X209912500Y-109476500D03*
X213087500Y-109476500D03*
X198087500Y-104523500D03*
X194912500Y-104523500D03*
X194912500Y-109476500D03*
X198087500Y-109476500D03*
X183087500Y-104523500D03*
X179912500Y-104523500D03*
X179912500Y-109476500D03*
X183087500Y-109476500D03*
X168087500Y-104523500D03*
X164912500Y-104523500D03*
X164912500Y-109476500D03*
X168087500Y-109476500D03*
X153087500Y-104523500D03*
X149912500Y-104523500D03*
X149912500Y-109476500D03*
X153087500Y-109476500D03*
X138087500Y-104523500D03*
X134912500Y-104523500D03*
X134912500Y-109476500D03*
X138087500Y-109476500D03*
X123087500Y-104523500D03*
X119912500Y-104523500D03*
X119912500Y-109476500D03*
X123087500Y-109476500D03*
X108087500Y-104523500D03*
X104912500Y-104523500D03*
X104912500Y-109476500D03*
X108087500Y-109476500D03*
X93087500Y-104523500D03*
X89912500Y-104523500D03*
X89912500Y-109476500D03*
X93087500Y-109476500D03*
X78087500Y-104523500D03*
X74912500Y-104523500D03*
X74912500Y-109476500D03*
X78087500Y-109476500D03*
X63087500Y-104523500D03*
X59912500Y-104523500D03*
X59912500Y-109476500D03*
X63087500Y-109476500D03*
X258087500Y-88523500D03*
X254912500Y-88523500D03*
X254912500Y-93476500D03*
X258087500Y-93476500D03*
X243087500Y-88523500D03*
X239912500Y-88523500D03*
X239912500Y-93476500D03*
X243087500Y-93476500D03*
X228087500Y-88523500D03*
X224912500Y-88523500D03*
X224912500Y-93476500D03*
X228087500Y-93476500D03*
X213087500Y-88523500D03*
X209912500Y-88523500D03*
X209912500Y-93476500D03*
X213087500Y-93476500D03*
X198087500Y-88523500D03*
X194912500Y-88523500D03*
X194912500Y-93476500D03*
X198087500Y-93476500D03*
X183087500Y-88523500D03*
X179912500Y-88523500D03*
X179912500Y-93476500D03*
X183087500Y-93476500D03*
X168087500Y-88523500D03*
X164912500Y-88523500D03*
X164912500Y-93476500D03*
X168087500Y-93476500D03*
X153087500Y-88523500D03*
X149912500Y-88523500D03*
X149912500Y-93476500D03*
X153087500Y-93476500D03*
X138087500Y-88523500D03*
X134912500Y-88523500D03*
X134912500Y-93476500D03*
X138087500Y-93476500D03*
X123087500Y-88523500D03*
X119912500Y-88523500D03*
X119912500Y-93476500D03*
X123087500Y-93476500D03*
X108087500Y-88523500D03*
X104912500Y-88523500D03*
X104912500Y-93476500D03*
X108087500Y-93476500D03*
X93087500Y-88523500D03*
X89912500Y-88523500D03*
X89912500Y-93476500D03*
X93087500Y-93476500D03*
X78087500Y-88523500D03*
X74912500Y-88523500D03*
X74912500Y-93476500D03*
X78087500Y-93476500D03*
X63087500Y-88523500D03*
X59912500Y-88523500D03*
X59912500Y-93476500D03*
X63087500Y-93476500D03*
X258087500Y-72523500D03*
X254912500Y-72523500D03*
X254912500Y-77476500D03*
X258087500Y-77476500D03*
X243087500Y-72523500D03*
X239912500Y-72523500D03*
X239912500Y-77476500D03*
X243087500Y-77476500D03*
X228087500Y-72523500D03*
X224912500Y-72523500D03*
X224912500Y-77476500D03*
X228087500Y-77476500D03*
X213087500Y-72523500D03*
X209912500Y-72523500D03*
X209912500Y-77476500D03*
X213087500Y-77476500D03*
X198087500Y-72523500D03*
X194912500Y-72523500D03*
X194912500Y-77476500D03*
X198087500Y-77476500D03*
X183087500Y-72523500D03*
X179912500Y-72523500D03*
X179912500Y-77476500D03*
X183087500Y-77476500D03*
X168087500Y-72523500D03*
X164912500Y-72523500D03*
X164912500Y-77476500D03*
X168087500Y-77476500D03*
X153087500Y-72523500D03*
X149912500Y-72523500D03*
X149912500Y-77476500D03*
X153087500Y-77476500D03*
X123087500Y-72523500D03*
X119912500Y-72523500D03*
X119912500Y-77476500D03*
X123087500Y-77476500D03*
X108087500Y-72523500D03*
X104912500Y-72523500D03*
X104912500Y-77476500D03*
X108087500Y-77476500D03*
X93087500Y-72523500D03*
X89912500Y-72523500D03*
X89912500Y-77476500D03*
X93087500Y-77476500D03*
X78087500Y-72523500D03*
X74912500Y-72523500D03*
X74912500Y-77476500D03*
X78087500Y-77476500D03*
X63087500Y-72523500D03*
X59912500Y-72523500D03*
X59912500Y-77476500D03*
X63087500Y-77476500D03*
X258087500Y-56523500D03*
X254912500Y-56523500D03*
X254912500Y-61476500D03*
X258087500Y-61476500D03*
X243087500Y-56523500D03*
X239912500Y-56523500D03*
X239912500Y-61476500D03*
X243087500Y-61476500D03*
X228087500Y-56523500D03*
X224912500Y-56523500D03*
X224912500Y-61476500D03*
X228087500Y-61476500D03*
X213087500Y-56523500D03*
X209912500Y-56523500D03*
X209912500Y-61476500D03*
X213087500Y-61476500D03*
X198087500Y-56523500D03*
X194912500Y-56523500D03*
X194912500Y-61476500D03*
X198087500Y-61476500D03*
X183087500Y-56523500D03*
X179912500Y-56523500D03*
X179912500Y-61476500D03*
X183087500Y-61476500D03*
X168087500Y-56523500D03*
X164912500Y-56523500D03*
X164912500Y-61476500D03*
X168087500Y-61476500D03*
X153087500Y-56523500D03*
X149912500Y-56523500D03*
X149912500Y-61476500D03*
X153087500Y-61476500D03*
X138087500Y-56523500D03*
X134912500Y-56523500D03*
X134912500Y-61476500D03*
X138087500Y-61476500D03*
X123087500Y-56523500D03*
X119912500Y-56523500D03*
X119912500Y-61476500D03*
X123087500Y-61476500D03*
X108087500Y-56523500D03*
X104912500Y-56523500D03*
X104912500Y-61476500D03*
X108087500Y-61476500D03*
X93087500Y-56523500D03*
X89912500Y-56523500D03*
X89912500Y-61476500D03*
X93087500Y-61476500D03*
X78087500Y-56523500D03*
X74912500Y-56523500D03*
X74912500Y-61476500D03*
X78087500Y-61476500D03*
X63087500Y-56523500D03*
X59912500Y-56523500D03*
X59912500Y-61476500D03*
X63087500Y-61476500D03*
D16*
X66000000Y-59952500D03*
X66000000Y-58047500D03*
X260750000Y-58047500D03*
X260750000Y-59952500D03*
X186000000Y-187952500D03*
X186000000Y-186047500D03*
M02*
