G04 (created by PCBNEW (2013-07-07 BZR 4022)-stable) date 9/10/2014 3:29:01 PM*
%MOIN*%
G04 Gerber Fmt 3.4, Leading zero omitted, Abs format*
%FSLAX34Y34*%
G01*
G70*
G90*
G04 APERTURE LIST*
%ADD10C,0.00590551*%
%ADD11R,0.06X0.06*%
%ADD12C,0.06*%
%ADD13R,0.0177X0.0787*%
%ADD14R,0.0787X0.0177*%
%ADD15R,0.0787X0.0236*%
%ADD16R,0.0984252X0.11811*%
%ADD17C,0.189*%
%ADD18R,0.189X0.189*%
%ADD19R,0.035X0.055*%
%ADD20R,0.055X0.035*%
%ADD21C,0.19685*%
%ADD22C,0.15748*%
%ADD23C,0.354331*%
%ADD24C,0.035*%
%ADD25C,0.01*%
%ADD26C,0.02*%
G04 APERTURE END LIST*
G54D10*
G54D11*
X58850Y-17618D03*
G54D12*
X59850Y-17618D03*
G54D13*
X52647Y-31423D03*
X52962Y-31423D03*
X53277Y-31423D03*
X53592Y-31423D03*
X53907Y-31423D03*
X54222Y-31423D03*
X54537Y-31423D03*
X54852Y-31423D03*
X54850Y-27657D03*
X52640Y-27657D03*
X52960Y-27657D03*
X53280Y-27657D03*
X53590Y-27657D03*
X53910Y-27657D03*
X54220Y-27657D03*
X54540Y-27657D03*
G54D14*
X55640Y-30639D03*
X55640Y-30325D03*
X55640Y-30009D03*
X55640Y-29695D03*
X55640Y-29379D03*
X55640Y-29065D03*
X55640Y-28749D03*
X55640Y-28435D03*
X51860Y-30637D03*
X51860Y-30327D03*
X51860Y-30007D03*
X51860Y-29697D03*
X51860Y-29387D03*
X51860Y-29067D03*
X51860Y-28747D03*
X51860Y-28427D03*
G54D15*
X34094Y-28127D03*
X34094Y-27627D03*
X34094Y-27127D03*
X34094Y-26627D03*
X34094Y-26127D03*
X34094Y-25627D03*
X34094Y-25127D03*
X34094Y-24627D03*
X37756Y-24627D03*
X37756Y-25127D03*
X37756Y-25627D03*
X37756Y-26127D03*
X37756Y-26627D03*
X37756Y-27127D03*
X37756Y-27627D03*
X37756Y-28127D03*
G54D16*
X51284Y-34744D03*
X53834Y-34744D03*
G54D12*
X93578Y-19208D03*
X93578Y-17208D03*
X96578Y-19208D03*
X96578Y-17208D03*
G54D11*
X83720Y-17618D03*
X84720Y-17618D03*
G54D12*
X85720Y-17618D03*
X86720Y-17618D03*
X87720Y-17618D03*
X88720Y-17618D03*
G54D11*
X77370Y-17618D03*
G54D12*
X76370Y-17618D03*
G54D11*
X46834Y-18692D03*
G54D12*
X46834Y-19692D03*
X47834Y-18692D03*
X47834Y-19692D03*
X48834Y-18692D03*
X48834Y-19692D03*
G54D17*
X63484Y-104625D03*
G54D18*
X61084Y-104625D03*
G54D17*
X62584Y-102625D03*
G54D11*
X58740Y-31968D03*
X57559Y-31968D03*
X49921Y-31968D03*
X48740Y-31968D03*
X46929Y-31968D03*
G54D19*
X53365Y-25984D03*
X54115Y-25984D03*
X53621Y-32972D03*
X54371Y-32972D03*
G54D20*
X50098Y-35945D03*
X50098Y-35195D03*
X55118Y-35215D03*
X55118Y-35965D03*
G54D19*
X50808Y-18700D03*
X50058Y-18700D03*
G54D20*
X38681Y-18778D03*
X38681Y-19528D03*
G54D19*
X31475Y-26968D03*
X32225Y-26968D03*
X31475Y-28346D03*
X32225Y-28346D03*
G54D20*
X39685Y-26750D03*
X39685Y-27500D03*
X39685Y-28997D03*
X39685Y-28247D03*
G54D21*
X101968Y-103937D03*
X101968Y-18110D03*
X23228Y-18110D03*
X23228Y-103937D03*
G54D22*
X28897Y-19094D03*
G54D23*
X33070Y-19094D03*
G54D22*
X28897Y-19094D03*
X37244Y-19094D03*
G54D24*
X54960Y-20944D03*
X26279Y-21358D03*
X41574Y-26771D03*
X62834Y-26771D03*
X62283Y-26299D03*
X40866Y-26299D03*
X59370Y-20314D03*
X50236Y-24566D03*
X30708Y-25433D03*
X39685Y-30708D03*
X39685Y-25354D03*
X58188Y-20157D03*
X60551Y-20157D03*
G54D25*
X58850Y-17618D02*
X58070Y-17618D01*
X58070Y-17618D02*
X57578Y-18110D01*
X57578Y-18110D02*
X57578Y-27263D01*
X57184Y-27657D02*
X54850Y-27657D01*
X57578Y-27263D02*
X57184Y-27657D01*
X59850Y-17618D02*
X60531Y-17618D01*
X60531Y-17618D02*
X61023Y-18110D01*
X61023Y-18110D02*
X61023Y-28346D01*
X60620Y-28749D02*
X55640Y-28749D01*
X61023Y-28346D02*
X60620Y-28749D01*
X58740Y-31968D02*
X58740Y-31653D01*
X58740Y-31653D02*
X58510Y-31423D01*
X54852Y-31423D02*
X58510Y-31423D01*
X54537Y-31423D02*
X54537Y-32017D01*
X57401Y-32519D02*
X57559Y-32362D01*
X55039Y-32519D02*
X57401Y-32519D01*
X54537Y-32017D02*
X55039Y-32519D01*
X57559Y-32362D02*
X57559Y-31968D01*
X49921Y-31968D02*
X49921Y-30944D01*
X50228Y-30637D02*
X51860Y-30637D01*
X49921Y-30944D02*
X50228Y-30637D01*
X48740Y-31968D02*
X48740Y-30708D01*
X49121Y-30327D02*
X51860Y-30327D01*
X48740Y-30708D02*
X49121Y-30327D01*
X46929Y-31968D02*
X46929Y-30314D01*
X47236Y-30007D02*
X51860Y-30007D01*
X46929Y-30314D02*
X47236Y-30007D01*
X54540Y-27657D02*
X54540Y-21365D01*
X54540Y-21365D02*
X54960Y-20944D01*
X55640Y-30639D02*
X59281Y-30639D01*
X26279Y-36220D02*
X26279Y-21358D01*
X26968Y-36909D02*
X26279Y-36220D01*
X58858Y-36909D02*
X26968Y-36909D01*
X59744Y-36023D02*
X58858Y-36909D01*
X59744Y-31102D02*
X59744Y-36023D01*
X59281Y-30639D02*
X59744Y-31102D01*
X48834Y-19692D02*
X48834Y-20881D01*
X49212Y-27952D02*
X49687Y-28427D01*
X49212Y-21259D02*
X49212Y-27952D01*
X48834Y-20881D02*
X49212Y-21259D01*
X51860Y-28427D02*
X49687Y-28427D01*
X47322Y-19204D02*
X47322Y-20314D01*
X48740Y-28188D02*
X49298Y-28747D01*
X48740Y-21732D02*
X48740Y-28188D01*
X47322Y-20314D02*
X48740Y-21732D01*
X51860Y-28747D02*
X49298Y-28747D01*
X47322Y-19204D02*
X47834Y-18692D01*
X47834Y-18692D02*
X47905Y-18692D01*
X55640Y-29695D02*
X63926Y-29695D01*
X64409Y-29212D02*
X64409Y-16633D01*
X63926Y-29695D02*
X64409Y-29212D01*
X93578Y-17208D02*
X89748Y-17208D01*
X89173Y-16633D02*
X64409Y-16633D01*
X89748Y-17208D02*
X89173Y-16633D01*
X46834Y-19692D02*
X46070Y-19692D01*
X64409Y-16633D02*
X46161Y-16633D01*
X46070Y-19692D02*
X45767Y-19389D01*
X45767Y-19389D02*
X45767Y-17027D01*
X45767Y-17027D02*
X46161Y-16633D01*
X35531Y-23917D02*
X46259Y-23917D01*
X46834Y-23342D02*
X46834Y-19692D01*
X46259Y-23917D02*
X46834Y-23342D01*
X34094Y-26627D02*
X34986Y-26627D01*
X35236Y-24212D02*
X35531Y-23917D01*
X35236Y-26377D02*
X35236Y-24212D01*
X34986Y-26627D02*
X35236Y-26377D01*
X34048Y-26673D02*
X34094Y-26627D01*
X86720Y-17618D02*
X86720Y-29519D01*
X86230Y-30009D02*
X55640Y-30009D01*
X86720Y-29519D02*
X86230Y-30009D01*
X49606Y-19448D02*
X49606Y-27165D01*
X50098Y-27657D02*
X52640Y-27657D01*
X49606Y-27165D02*
X50098Y-27657D01*
X48314Y-19212D02*
X47834Y-19692D01*
X49370Y-19212D02*
X48314Y-19212D01*
X49606Y-19448D02*
X49370Y-19212D01*
X55640Y-29379D02*
X62431Y-29379D01*
X62834Y-28976D02*
X62834Y-26771D01*
X62431Y-29379D02*
X62834Y-28976D01*
X41280Y-28247D02*
X39685Y-28247D01*
X41574Y-27952D02*
X41280Y-28247D01*
X41574Y-26771D02*
X41574Y-27952D01*
X37756Y-28127D02*
X38521Y-28127D01*
X38640Y-28247D02*
X39685Y-28247D01*
X38521Y-28127D02*
X38640Y-28247D01*
X55640Y-29065D02*
X61879Y-29065D01*
X62283Y-28661D02*
X62283Y-26299D01*
X61879Y-29065D02*
X62283Y-28661D01*
X40609Y-27500D02*
X39685Y-27500D01*
X40866Y-26299D02*
X40866Y-27244D01*
X40866Y-27244D02*
X40609Y-27500D01*
X37756Y-27627D02*
X38592Y-27627D01*
X38719Y-27500D02*
X39685Y-27500D01*
X38592Y-27627D02*
X38719Y-27500D01*
X59370Y-20314D02*
X59370Y-28110D01*
X59044Y-28435D02*
X55640Y-28435D01*
X59370Y-28110D02*
X59044Y-28435D01*
X55640Y-30325D02*
X86800Y-30325D01*
X87720Y-29405D02*
X87720Y-17618D01*
X86800Y-30325D02*
X87720Y-29405D01*
G54D26*
X50236Y-24566D02*
X50236Y-26062D01*
X52960Y-26975D02*
X52960Y-27657D01*
X52598Y-26614D02*
X52960Y-26975D01*
X50787Y-26614D02*
X52598Y-26614D01*
X50236Y-26062D02*
X50787Y-26614D01*
X50058Y-18700D02*
X50058Y-24152D01*
X50236Y-24330D02*
X50236Y-24566D01*
X50058Y-24152D02*
X50236Y-24330D01*
X31496Y-27657D02*
X30885Y-27657D01*
X30708Y-27480D02*
X30708Y-25433D01*
X30885Y-27657D02*
X30708Y-27480D01*
X39685Y-28997D02*
X39685Y-30708D01*
X39685Y-26750D02*
X39685Y-25354D01*
X53277Y-31423D02*
X53277Y-32628D01*
X53277Y-32628D02*
X53621Y-32972D01*
X53740Y-29527D02*
X53740Y-29133D01*
X53740Y-29133D02*
X52960Y-28353D01*
X52960Y-28353D02*
X52960Y-27657D01*
X53277Y-31423D02*
X53277Y-29990D01*
X53277Y-29990D02*
X53740Y-29527D01*
X53907Y-31423D02*
X53907Y-29694D01*
X53907Y-29694D02*
X53740Y-29527D01*
X48834Y-18692D02*
X50050Y-18692D01*
X50050Y-18692D02*
X50058Y-18700D01*
X34094Y-27627D02*
X33395Y-27627D01*
X33366Y-27657D02*
X31496Y-27657D01*
X31496Y-27657D02*
X31475Y-27657D01*
X33395Y-27627D02*
X33366Y-27657D01*
X31475Y-26968D02*
X31475Y-27657D01*
X31475Y-28346D02*
X31475Y-27657D01*
G54D25*
X34064Y-27657D02*
X34094Y-27627D01*
X50040Y-18799D02*
X50000Y-18758D01*
X49934Y-18692D02*
X50000Y-18758D01*
G54D26*
X60551Y-20157D02*
X60551Y-19685D01*
X58188Y-19685D02*
X58188Y-20157D01*
X58425Y-19448D02*
X58188Y-19685D01*
X60314Y-19448D02*
X58425Y-19448D01*
X60551Y-19685D02*
X60314Y-19448D01*
X53910Y-27657D02*
X53910Y-26877D01*
X54115Y-26672D02*
X54115Y-25984D01*
X53910Y-26877D02*
X54115Y-26672D01*
X54371Y-32972D02*
X54371Y-32333D01*
X54371Y-32333D02*
X54222Y-32185D01*
X53592Y-31423D02*
X53592Y-32037D01*
X53740Y-32185D02*
X54222Y-32185D01*
X53592Y-32037D02*
X53740Y-32185D01*
X54222Y-31423D02*
X54222Y-32185D01*
G54D25*
X54047Y-26051D02*
X54115Y-25984D01*
X32775Y-26968D02*
X32935Y-27127D01*
X32935Y-27127D02*
X34094Y-27127D01*
X32225Y-26968D02*
X32775Y-26968D01*
X51284Y-34744D02*
X50295Y-34744D01*
X50098Y-34940D02*
X50098Y-35195D01*
X50295Y-34744D02*
X50098Y-34940D01*
X52647Y-31423D02*
X52647Y-34360D01*
X52263Y-34744D02*
X51284Y-34744D01*
X52647Y-34360D02*
X52263Y-34744D01*
X50832Y-35195D02*
X51284Y-34744D01*
X32677Y-28346D02*
X32895Y-28127D01*
X32895Y-28127D02*
X34094Y-28127D01*
X32225Y-28346D02*
X32677Y-28346D01*
X53834Y-34744D02*
X54921Y-34744D01*
X55118Y-34940D02*
X55118Y-35215D01*
X54921Y-34744D02*
X55118Y-34940D01*
X52962Y-31423D02*
X52962Y-34458D01*
X53248Y-34744D02*
X53834Y-34744D01*
X52962Y-34458D02*
X53248Y-34744D01*
X36318Y-22834D02*
X28897Y-22834D01*
X37244Y-19094D02*
X37795Y-19094D01*
X37795Y-19094D02*
X38111Y-18778D01*
X38111Y-18778D02*
X38681Y-18778D01*
X37244Y-19094D02*
X37244Y-21909D01*
X37244Y-21909D02*
X36318Y-22834D01*
X37244Y-18759D02*
X37262Y-18778D01*
X28897Y-28996D02*
X29330Y-29429D01*
X29330Y-29429D02*
X35728Y-29429D01*
X35728Y-29429D02*
X36122Y-29035D01*
X36122Y-29035D02*
X36122Y-27460D01*
X36122Y-27460D02*
X36454Y-27127D01*
X36454Y-27127D02*
X37756Y-27127D01*
X28897Y-22834D02*
X28897Y-28996D01*
X28897Y-19094D02*
X28897Y-22834D01*
X28897Y-19094D02*
X28897Y-19547D01*
X53590Y-27657D02*
X53590Y-26975D01*
X53365Y-26750D02*
X53365Y-25984D01*
X53590Y-26975D02*
X53365Y-26750D01*
G54D10*
G36*
X60723Y-28222D02*
X60496Y-28449D01*
X59455Y-28449D01*
X59582Y-28322D01*
X59582Y-28322D01*
X59647Y-28225D01*
X59670Y-28110D01*
X59670Y-28110D01*
X59670Y-20616D01*
X59730Y-20556D01*
X59795Y-20399D01*
X59795Y-20230D01*
X59730Y-20074D01*
X59611Y-19954D01*
X59454Y-19890D01*
X59285Y-19889D01*
X59129Y-19954D01*
X59009Y-20073D01*
X58945Y-20230D01*
X58945Y-20399D01*
X59009Y-20555D01*
X59070Y-20616D01*
X59070Y-27985D01*
X58920Y-28135D01*
X56175Y-28135D01*
X56175Y-28135D01*
X56083Y-28097D01*
X55984Y-28097D01*
X55197Y-28097D01*
X55188Y-28100D01*
X55188Y-28001D01*
X55188Y-27957D01*
X57184Y-27957D01*
X57184Y-27957D01*
X57299Y-27934D01*
X57299Y-27934D01*
X57397Y-27869D01*
X57790Y-27475D01*
X57790Y-27475D01*
X57855Y-27378D01*
X57878Y-27263D01*
X57878Y-27263D01*
X57878Y-18234D01*
X58195Y-17918D01*
X58300Y-17918D01*
X58300Y-17967D01*
X58338Y-18059D01*
X58408Y-18129D01*
X58500Y-18168D01*
X58599Y-18168D01*
X59199Y-18168D01*
X59291Y-18130D01*
X59362Y-18059D01*
X59400Y-17968D01*
X59400Y-17945D01*
X59538Y-18084D01*
X59740Y-18168D01*
X59959Y-18168D01*
X60161Y-18084D01*
X60316Y-17930D01*
X60321Y-17918D01*
X60407Y-17918D01*
X60723Y-18234D01*
X60723Y-28222D01*
X60723Y-28222D01*
G37*
G54D25*
X60723Y-28222D02*
X60496Y-28449D01*
X59455Y-28449D01*
X59582Y-28322D01*
X59582Y-28322D01*
X59647Y-28225D01*
X59670Y-28110D01*
X59670Y-28110D01*
X59670Y-20616D01*
X59730Y-20556D01*
X59795Y-20399D01*
X59795Y-20230D01*
X59730Y-20074D01*
X59611Y-19954D01*
X59454Y-19890D01*
X59285Y-19889D01*
X59129Y-19954D01*
X59009Y-20073D01*
X58945Y-20230D01*
X58945Y-20399D01*
X59009Y-20555D01*
X59070Y-20616D01*
X59070Y-27985D01*
X58920Y-28135D01*
X56175Y-28135D01*
X56175Y-28135D01*
X56083Y-28097D01*
X55984Y-28097D01*
X55197Y-28097D01*
X55188Y-28100D01*
X55188Y-28001D01*
X55188Y-27957D01*
X57184Y-27957D01*
X57184Y-27957D01*
X57299Y-27934D01*
X57299Y-27934D01*
X57397Y-27869D01*
X57790Y-27475D01*
X57790Y-27475D01*
X57855Y-27378D01*
X57878Y-27263D01*
X57878Y-27263D01*
X57878Y-18234D01*
X58195Y-17918D01*
X58300Y-17918D01*
X58300Y-17967D01*
X58338Y-18059D01*
X58408Y-18129D01*
X58500Y-18168D01*
X58599Y-18168D01*
X59199Y-18168D01*
X59291Y-18130D01*
X59362Y-18059D01*
X59400Y-17968D01*
X59400Y-17945D01*
X59538Y-18084D01*
X59740Y-18168D01*
X59959Y-18168D01*
X60161Y-18084D01*
X60316Y-17930D01*
X60321Y-17918D01*
X60407Y-17918D01*
X60723Y-18234D01*
X60723Y-28222D01*
G54D10*
G36*
X64109Y-29088D02*
X63802Y-29395D01*
X62839Y-29395D01*
X63046Y-29188D01*
X63046Y-29188D01*
X63111Y-29091D01*
X63134Y-28976D01*
X63134Y-28976D01*
X63134Y-27072D01*
X63194Y-27012D01*
X63259Y-26856D01*
X63259Y-26687D01*
X63195Y-26531D01*
X63075Y-26411D01*
X62919Y-26346D01*
X62750Y-26346D01*
X62708Y-26363D01*
X62708Y-26215D01*
X62643Y-26058D01*
X62524Y-25939D01*
X62368Y-25874D01*
X62199Y-25874D01*
X62043Y-25938D01*
X61923Y-26058D01*
X61858Y-26214D01*
X61858Y-26383D01*
X61922Y-26539D01*
X61983Y-26600D01*
X61983Y-28537D01*
X61755Y-28765D01*
X61028Y-28765D01*
X61235Y-28558D01*
X61235Y-28558D01*
X61300Y-28461D01*
X61323Y-28346D01*
X61323Y-28346D01*
X61323Y-18110D01*
X61323Y-18110D01*
X61300Y-17995D01*
X61235Y-17898D01*
X61235Y-17898D01*
X60743Y-17405D01*
X60646Y-17340D01*
X60531Y-17318D01*
X60321Y-17318D01*
X60316Y-17306D01*
X60162Y-17152D01*
X59960Y-17068D01*
X59741Y-17068D01*
X59539Y-17151D01*
X59400Y-17290D01*
X59400Y-17268D01*
X59362Y-17176D01*
X59292Y-17106D01*
X59200Y-17068D01*
X59100Y-17068D01*
X58500Y-17068D01*
X58408Y-17106D01*
X58338Y-17176D01*
X58300Y-17268D01*
X58300Y-17318D01*
X58070Y-17318D01*
X57956Y-17340D01*
X57858Y-17405D01*
X57366Y-17898D01*
X57301Y-17995D01*
X57278Y-18110D01*
X57278Y-27139D01*
X57060Y-27357D01*
X55188Y-27357D01*
X55188Y-27214D01*
X55150Y-27122D01*
X55080Y-27052D01*
X54988Y-27014D01*
X54889Y-27014D01*
X54840Y-27014D01*
X54840Y-21489D01*
X54959Y-21369D01*
X55044Y-21369D01*
X55201Y-21305D01*
X55320Y-21185D01*
X55385Y-21029D01*
X55385Y-20860D01*
X55321Y-20704D01*
X55201Y-20584D01*
X55045Y-20519D01*
X54876Y-20519D01*
X54720Y-20584D01*
X54600Y-20703D01*
X54535Y-20859D01*
X54535Y-20945D01*
X54328Y-21153D01*
X54262Y-21250D01*
X54240Y-21365D01*
X54240Y-25459D01*
X54227Y-25459D01*
X54165Y-25521D01*
X54165Y-25934D01*
X54173Y-25934D01*
X54173Y-26034D01*
X54165Y-26034D01*
X54165Y-26446D01*
X54227Y-26509D01*
X54240Y-26509D01*
X54240Y-27014D01*
X54082Y-27014D01*
X54065Y-27021D01*
X54048Y-27014D01*
X54016Y-27014D01*
X53954Y-27076D01*
X53954Y-27087D01*
X53919Y-27122D01*
X53905Y-27157D01*
X53890Y-27122D01*
X53890Y-27122D01*
X53890Y-26975D01*
X53867Y-26861D01*
X53802Y-26763D01*
X53665Y-26626D01*
X53665Y-26478D01*
X53681Y-26471D01*
X53740Y-26412D01*
X53798Y-26471D01*
X53890Y-26509D01*
X54002Y-26509D01*
X54065Y-26446D01*
X54065Y-26034D01*
X54057Y-26034D01*
X54057Y-25934D01*
X54065Y-25934D01*
X54065Y-25521D01*
X54002Y-25459D01*
X53890Y-25459D01*
X53798Y-25497D01*
X53740Y-25555D01*
X53681Y-25497D01*
X53590Y-25459D01*
X53490Y-25459D01*
X53140Y-25459D01*
X53048Y-25497D01*
X52978Y-25567D01*
X52940Y-25659D01*
X52940Y-25758D01*
X52940Y-26308D01*
X52978Y-26400D01*
X53048Y-26471D01*
X53065Y-26478D01*
X53065Y-26585D01*
X52845Y-26366D01*
X52732Y-26290D01*
X52598Y-26264D01*
X51233Y-26264D01*
X51233Y-18926D01*
X51233Y-18475D01*
X51233Y-18375D01*
X51194Y-18283D01*
X51124Y-18213D01*
X51032Y-18175D01*
X50920Y-18175D01*
X50858Y-18238D01*
X50858Y-18650D01*
X51170Y-18650D01*
X51233Y-18588D01*
X51233Y-18475D01*
X51233Y-18926D01*
X51233Y-18813D01*
X51170Y-18750D01*
X50858Y-18750D01*
X50858Y-19163D01*
X50920Y-19225D01*
X51032Y-19225D01*
X51124Y-19187D01*
X51194Y-19117D01*
X51233Y-19025D01*
X51233Y-18926D01*
X51233Y-26264D01*
X50932Y-26264D01*
X50586Y-25918D01*
X50586Y-24818D01*
X50596Y-24807D01*
X50661Y-24651D01*
X50661Y-24482D01*
X50596Y-24326D01*
X50582Y-24312D01*
X50559Y-24196D01*
X50483Y-24083D01*
X50483Y-24083D01*
X50408Y-24007D01*
X50408Y-19154D01*
X50433Y-19129D01*
X50491Y-19187D01*
X50583Y-19225D01*
X50695Y-19225D01*
X50758Y-19163D01*
X50758Y-18750D01*
X50750Y-18750D01*
X50750Y-18650D01*
X50758Y-18650D01*
X50758Y-18238D01*
X50695Y-18175D01*
X50583Y-18175D01*
X50491Y-18213D01*
X50433Y-18272D01*
X50374Y-18213D01*
X50283Y-18175D01*
X50183Y-18175D01*
X49833Y-18175D01*
X49741Y-18213D01*
X49671Y-18283D01*
X49646Y-18342D01*
X49262Y-18342D01*
X49146Y-18226D01*
X48944Y-18143D01*
X48725Y-18142D01*
X48523Y-18226D01*
X48368Y-18380D01*
X48334Y-18462D01*
X48301Y-18381D01*
X48146Y-18226D01*
X47944Y-18143D01*
X47725Y-18142D01*
X47523Y-18226D01*
X47384Y-18365D01*
X47384Y-18342D01*
X47346Y-18251D01*
X47276Y-18180D01*
X47184Y-18142D01*
X46947Y-18142D01*
X46884Y-18205D01*
X46884Y-18642D01*
X46892Y-18642D01*
X46892Y-18742D01*
X46884Y-18742D01*
X46884Y-18750D01*
X46784Y-18750D01*
X46784Y-18742D01*
X46784Y-18642D01*
X46784Y-18205D01*
X46722Y-18142D01*
X46485Y-18142D01*
X46393Y-18180D01*
X46322Y-18251D01*
X46284Y-18342D01*
X46284Y-18442D01*
X46284Y-18580D01*
X46347Y-18642D01*
X46784Y-18642D01*
X46784Y-18742D01*
X46347Y-18742D01*
X46284Y-18805D01*
X46284Y-18943D01*
X46284Y-19042D01*
X46322Y-19134D01*
X46393Y-19204D01*
X46485Y-19242D01*
X46506Y-19242D01*
X46368Y-19380D01*
X46363Y-19392D01*
X46195Y-19392D01*
X46067Y-19265D01*
X46067Y-17151D01*
X46285Y-16933D01*
X64109Y-16933D01*
X64109Y-29088D01*
X64109Y-29088D01*
G37*
G54D25*
X64109Y-29088D02*
X63802Y-29395D01*
X62839Y-29395D01*
X63046Y-29188D01*
X63046Y-29188D01*
X63111Y-29091D01*
X63134Y-28976D01*
X63134Y-28976D01*
X63134Y-27072D01*
X63194Y-27012D01*
X63259Y-26856D01*
X63259Y-26687D01*
X63195Y-26531D01*
X63075Y-26411D01*
X62919Y-26346D01*
X62750Y-26346D01*
X62708Y-26363D01*
X62708Y-26215D01*
X62643Y-26058D01*
X62524Y-25939D01*
X62368Y-25874D01*
X62199Y-25874D01*
X62043Y-25938D01*
X61923Y-26058D01*
X61858Y-26214D01*
X61858Y-26383D01*
X61922Y-26539D01*
X61983Y-26600D01*
X61983Y-28537D01*
X61755Y-28765D01*
X61028Y-28765D01*
X61235Y-28558D01*
X61235Y-28558D01*
X61300Y-28461D01*
X61323Y-28346D01*
X61323Y-28346D01*
X61323Y-18110D01*
X61323Y-18110D01*
X61300Y-17995D01*
X61235Y-17898D01*
X61235Y-17898D01*
X60743Y-17405D01*
X60646Y-17340D01*
X60531Y-17318D01*
X60321Y-17318D01*
X60316Y-17306D01*
X60162Y-17152D01*
X59960Y-17068D01*
X59741Y-17068D01*
X59539Y-17151D01*
X59400Y-17290D01*
X59400Y-17268D01*
X59362Y-17176D01*
X59292Y-17106D01*
X59200Y-17068D01*
X59100Y-17068D01*
X58500Y-17068D01*
X58408Y-17106D01*
X58338Y-17176D01*
X58300Y-17268D01*
X58300Y-17318D01*
X58070Y-17318D01*
X57956Y-17340D01*
X57858Y-17405D01*
X57366Y-17898D01*
X57301Y-17995D01*
X57278Y-18110D01*
X57278Y-27139D01*
X57060Y-27357D01*
X55188Y-27357D01*
X55188Y-27214D01*
X55150Y-27122D01*
X55080Y-27052D01*
X54988Y-27014D01*
X54889Y-27014D01*
X54840Y-27014D01*
X54840Y-21489D01*
X54959Y-21369D01*
X55044Y-21369D01*
X55201Y-21305D01*
X55320Y-21185D01*
X55385Y-21029D01*
X55385Y-20860D01*
X55321Y-20704D01*
X55201Y-20584D01*
X55045Y-20519D01*
X54876Y-20519D01*
X54720Y-20584D01*
X54600Y-20703D01*
X54535Y-20859D01*
X54535Y-20945D01*
X54328Y-21153D01*
X54262Y-21250D01*
X54240Y-21365D01*
X54240Y-25459D01*
X54227Y-25459D01*
X54165Y-25521D01*
X54165Y-25934D01*
X54173Y-25934D01*
X54173Y-26034D01*
X54165Y-26034D01*
X54165Y-26446D01*
X54227Y-26509D01*
X54240Y-26509D01*
X54240Y-27014D01*
X54082Y-27014D01*
X54065Y-27021D01*
X54048Y-27014D01*
X54016Y-27014D01*
X53954Y-27076D01*
X53954Y-27087D01*
X53919Y-27122D01*
X53905Y-27157D01*
X53890Y-27122D01*
X53890Y-27122D01*
X53890Y-26975D01*
X53867Y-26861D01*
X53802Y-26763D01*
X53665Y-26626D01*
X53665Y-26478D01*
X53681Y-26471D01*
X53740Y-26412D01*
X53798Y-26471D01*
X53890Y-26509D01*
X54002Y-26509D01*
X54065Y-26446D01*
X54065Y-26034D01*
X54057Y-26034D01*
X54057Y-25934D01*
X54065Y-25934D01*
X54065Y-25521D01*
X54002Y-25459D01*
X53890Y-25459D01*
X53798Y-25497D01*
X53740Y-25555D01*
X53681Y-25497D01*
X53590Y-25459D01*
X53490Y-25459D01*
X53140Y-25459D01*
X53048Y-25497D01*
X52978Y-25567D01*
X52940Y-25659D01*
X52940Y-25758D01*
X52940Y-26308D01*
X52978Y-26400D01*
X53048Y-26471D01*
X53065Y-26478D01*
X53065Y-26585D01*
X52845Y-26366D01*
X52732Y-26290D01*
X52598Y-26264D01*
X51233Y-26264D01*
X51233Y-18926D01*
X51233Y-18475D01*
X51233Y-18375D01*
X51194Y-18283D01*
X51124Y-18213D01*
X51032Y-18175D01*
X50920Y-18175D01*
X50858Y-18238D01*
X50858Y-18650D01*
X51170Y-18650D01*
X51233Y-18588D01*
X51233Y-18475D01*
X51233Y-18926D01*
X51233Y-18813D01*
X51170Y-18750D01*
X50858Y-18750D01*
X50858Y-19163D01*
X50920Y-19225D01*
X51032Y-19225D01*
X51124Y-19187D01*
X51194Y-19117D01*
X51233Y-19025D01*
X51233Y-18926D01*
X51233Y-26264D01*
X50932Y-26264D01*
X50586Y-25918D01*
X50586Y-24818D01*
X50596Y-24807D01*
X50661Y-24651D01*
X50661Y-24482D01*
X50596Y-24326D01*
X50582Y-24312D01*
X50559Y-24196D01*
X50483Y-24083D01*
X50483Y-24083D01*
X50408Y-24007D01*
X50408Y-19154D01*
X50433Y-19129D01*
X50491Y-19187D01*
X50583Y-19225D01*
X50695Y-19225D01*
X50758Y-19163D01*
X50758Y-18750D01*
X50750Y-18750D01*
X50750Y-18650D01*
X50758Y-18650D01*
X50758Y-18238D01*
X50695Y-18175D01*
X50583Y-18175D01*
X50491Y-18213D01*
X50433Y-18272D01*
X50374Y-18213D01*
X50283Y-18175D01*
X50183Y-18175D01*
X49833Y-18175D01*
X49741Y-18213D01*
X49671Y-18283D01*
X49646Y-18342D01*
X49262Y-18342D01*
X49146Y-18226D01*
X48944Y-18143D01*
X48725Y-18142D01*
X48523Y-18226D01*
X48368Y-18380D01*
X48334Y-18462D01*
X48301Y-18381D01*
X48146Y-18226D01*
X47944Y-18143D01*
X47725Y-18142D01*
X47523Y-18226D01*
X47384Y-18365D01*
X47384Y-18342D01*
X47346Y-18251D01*
X47276Y-18180D01*
X47184Y-18142D01*
X46947Y-18142D01*
X46884Y-18205D01*
X46884Y-18642D01*
X46892Y-18642D01*
X46892Y-18742D01*
X46884Y-18742D01*
X46884Y-18750D01*
X46784Y-18750D01*
X46784Y-18742D01*
X46784Y-18642D01*
X46784Y-18205D01*
X46722Y-18142D01*
X46485Y-18142D01*
X46393Y-18180D01*
X46322Y-18251D01*
X46284Y-18342D01*
X46284Y-18442D01*
X46284Y-18580D01*
X46347Y-18642D01*
X46784Y-18642D01*
X46784Y-18742D01*
X46347Y-18742D01*
X46284Y-18805D01*
X46284Y-18943D01*
X46284Y-19042D01*
X46322Y-19134D01*
X46393Y-19204D01*
X46485Y-19242D01*
X46506Y-19242D01*
X46368Y-19380D01*
X46363Y-19392D01*
X46195Y-19392D01*
X46067Y-19265D01*
X46067Y-17151D01*
X46285Y-16933D01*
X64109Y-16933D01*
X64109Y-29088D01*
G54D10*
G36*
X103667Y-105635D02*
X103202Y-105635D01*
X103202Y-103692D01*
X103202Y-17865D01*
X103015Y-17412D01*
X102668Y-17064D01*
X102215Y-16876D01*
X101724Y-16875D01*
X101270Y-17063D01*
X100922Y-17410D01*
X100734Y-17863D01*
X100734Y-18354D01*
X100921Y-18808D01*
X101268Y-19155D01*
X101721Y-19344D01*
X102212Y-19344D01*
X102666Y-19157D01*
X103014Y-18810D01*
X103202Y-18356D01*
X103202Y-17865D01*
X103202Y-103692D01*
X103015Y-103238D01*
X102668Y-102891D01*
X102215Y-102702D01*
X101724Y-102702D01*
X101270Y-102890D01*
X100922Y-103236D01*
X100734Y-103690D01*
X100734Y-104181D01*
X100921Y-104635D01*
X101268Y-104982D01*
X101721Y-105171D01*
X102212Y-105171D01*
X102666Y-104983D01*
X103014Y-104637D01*
X103202Y-104183D01*
X103202Y-103692D01*
X103202Y-105635D01*
X97133Y-105635D01*
X97133Y-19290D01*
X97128Y-19196D01*
X97128Y-17099D01*
X97045Y-16897D01*
X96890Y-16742D01*
X96688Y-16658D01*
X96469Y-16658D01*
X96267Y-16742D01*
X96112Y-16896D01*
X96028Y-17098D01*
X96028Y-17317D01*
X96112Y-17519D01*
X96266Y-17674D01*
X96468Y-17758D01*
X96687Y-17758D01*
X96889Y-17675D01*
X97044Y-17520D01*
X97128Y-17318D01*
X97128Y-17099D01*
X97128Y-19196D01*
X97122Y-19071D01*
X97059Y-18920D01*
X96964Y-18893D01*
X96893Y-18964D01*
X96893Y-18822D01*
X96866Y-18727D01*
X96660Y-18653D01*
X96441Y-18664D01*
X96290Y-18727D01*
X96263Y-18822D01*
X96578Y-19137D01*
X96893Y-18822D01*
X96893Y-18964D01*
X96649Y-19208D01*
X96964Y-19523D01*
X97059Y-19496D01*
X97133Y-19290D01*
X97133Y-105635D01*
X96893Y-105635D01*
X96893Y-19594D01*
X96578Y-19279D01*
X96508Y-19350D01*
X96508Y-19208D01*
X96192Y-18893D01*
X96097Y-18920D01*
X96023Y-19126D01*
X96034Y-19345D01*
X96097Y-19496D01*
X96192Y-19523D01*
X96508Y-19208D01*
X96508Y-19350D01*
X96263Y-19594D01*
X96290Y-19689D01*
X96496Y-19763D01*
X96715Y-19752D01*
X96866Y-19689D01*
X96893Y-19594D01*
X96893Y-105635D01*
X94133Y-105635D01*
X94133Y-19290D01*
X94122Y-19071D01*
X94059Y-18920D01*
X93964Y-18893D01*
X93893Y-18964D01*
X93893Y-18822D01*
X93866Y-18727D01*
X93660Y-18653D01*
X93441Y-18664D01*
X93290Y-18727D01*
X93263Y-18822D01*
X93578Y-19137D01*
X93893Y-18822D01*
X93893Y-18964D01*
X93649Y-19208D01*
X93964Y-19523D01*
X94059Y-19496D01*
X94133Y-19290D01*
X94133Y-105635D01*
X93893Y-105635D01*
X93893Y-19594D01*
X93578Y-19279D01*
X93508Y-19350D01*
X93508Y-19208D01*
X93192Y-18893D01*
X93097Y-18920D01*
X93023Y-19126D01*
X93034Y-19345D01*
X93097Y-19496D01*
X93192Y-19523D01*
X93508Y-19208D01*
X93508Y-19350D01*
X93263Y-19594D01*
X93290Y-19689D01*
X93496Y-19763D01*
X93715Y-19752D01*
X93866Y-19689D01*
X93893Y-19594D01*
X93893Y-105635D01*
X64679Y-105635D01*
X64679Y-104861D01*
X64678Y-104386D01*
X64498Y-103950D01*
X64336Y-103844D01*
X63554Y-104625D01*
X64336Y-105407D01*
X64498Y-105301D01*
X64679Y-104861D01*
X64679Y-105635D01*
X64162Y-105635D01*
X64265Y-105477D01*
X63484Y-104696D01*
X63413Y-104767D01*
X62703Y-105477D01*
X62806Y-105635D01*
X62273Y-105635D01*
X62279Y-105620D01*
X62279Y-105521D01*
X62279Y-103792D01*
X62348Y-103821D01*
X62608Y-103820D01*
X62632Y-103844D01*
X62469Y-103950D01*
X62288Y-104390D01*
X62289Y-104865D01*
X62469Y-105301D01*
X62632Y-105407D01*
X63413Y-104625D01*
X63407Y-104620D01*
X63478Y-104549D01*
X63484Y-104555D01*
X64265Y-103774D01*
X64159Y-103611D01*
X63779Y-103455D01*
X63719Y-103430D01*
X63460Y-103431D01*
X63436Y-103407D01*
X63598Y-103301D01*
X63779Y-102861D01*
X63778Y-102386D01*
X63598Y-101950D01*
X63436Y-101844D01*
X63365Y-101915D01*
X63365Y-101774D01*
X63259Y-101611D01*
X62819Y-101430D01*
X62344Y-101431D01*
X61909Y-101611D01*
X61803Y-101774D01*
X62584Y-102555D01*
X63365Y-101774D01*
X63365Y-101915D01*
X62654Y-102625D01*
X62660Y-102631D01*
X62589Y-102702D01*
X62584Y-102696D01*
X62578Y-102702D01*
X62513Y-102637D01*
X62507Y-102631D01*
X62513Y-102625D01*
X61732Y-101844D01*
X61569Y-101950D01*
X61388Y-102390D01*
X61389Y-102865D01*
X61569Y-103301D01*
X61732Y-103407D01*
X61708Y-103430D01*
X60089Y-103430D01*
X59997Y-103468D01*
X59927Y-103539D01*
X59889Y-103631D01*
X59889Y-103730D01*
X59889Y-105620D01*
X59895Y-105635D01*
X24462Y-105635D01*
X24462Y-103692D01*
X24462Y-17865D01*
X24275Y-17412D01*
X23928Y-17064D01*
X23474Y-16876D01*
X22983Y-16875D01*
X22530Y-17063D01*
X22182Y-17410D01*
X21994Y-17863D01*
X21993Y-18354D01*
X22181Y-18808D01*
X22528Y-19155D01*
X22981Y-19344D01*
X23472Y-19344D01*
X23926Y-19157D01*
X24274Y-18810D01*
X24462Y-18356D01*
X24462Y-17865D01*
X24462Y-103692D01*
X24275Y-103238D01*
X23928Y-102891D01*
X23474Y-102702D01*
X22983Y-102702D01*
X22530Y-102890D01*
X22182Y-103236D01*
X21994Y-103690D01*
X21993Y-104181D01*
X22181Y-104635D01*
X22528Y-104982D01*
X22981Y-105171D01*
X23472Y-105171D01*
X23926Y-104983D01*
X24274Y-104637D01*
X24462Y-104183D01*
X24462Y-103692D01*
X24462Y-105635D01*
X21529Y-105635D01*
X21529Y-16411D01*
X30036Y-16411D01*
X31317Y-17265D01*
X31322Y-17271D01*
X31420Y-17311D01*
X31893Y-17405D01*
X31693Y-17646D01*
X33070Y-19023D01*
X34448Y-17646D01*
X34247Y-17404D01*
X34714Y-17311D01*
X34721Y-17311D01*
X34818Y-17271D01*
X36107Y-16411D01*
X45964Y-16411D01*
X45949Y-16421D01*
X45555Y-16815D01*
X45490Y-16912D01*
X45467Y-17027D01*
X45467Y-19389D01*
X45490Y-19504D01*
X45555Y-19601D01*
X45858Y-19905D01*
X45858Y-19905D01*
X45956Y-19970D01*
X46070Y-19992D01*
X46363Y-19992D01*
X46368Y-20004D01*
X46522Y-20158D01*
X46534Y-20163D01*
X46534Y-23218D01*
X46135Y-23617D01*
X39206Y-23617D01*
X39206Y-19753D01*
X39206Y-19641D01*
X39143Y-19578D01*
X38731Y-19578D01*
X38731Y-19891D01*
X38793Y-19953D01*
X38906Y-19953D01*
X39006Y-19953D01*
X39097Y-19915D01*
X39168Y-19844D01*
X39206Y-19753D01*
X39206Y-23617D01*
X38631Y-23617D01*
X35531Y-23617D01*
X35416Y-23640D01*
X35319Y-23705D01*
X35024Y-24000D01*
X34959Y-24097D01*
X34936Y-24212D01*
X34936Y-26253D01*
X34861Y-26327D01*
X34724Y-26327D01*
X34737Y-26295D01*
X34737Y-25960D01*
X34703Y-25877D01*
X34737Y-25795D01*
X34737Y-25460D01*
X34703Y-25377D01*
X34737Y-25295D01*
X34737Y-24960D01*
X34703Y-24877D01*
X34737Y-24795D01*
X34737Y-24460D01*
X34699Y-24368D01*
X34629Y-24298D01*
X34537Y-24259D01*
X34438Y-24259D01*
X34206Y-24259D01*
X34144Y-24322D01*
X34144Y-24577D01*
X34675Y-24577D01*
X34737Y-24515D01*
X34737Y-24460D01*
X34737Y-24795D01*
X34737Y-24740D01*
X34675Y-24677D01*
X34144Y-24677D01*
X34144Y-24822D01*
X34144Y-24933D01*
X34144Y-25077D01*
X34675Y-25077D01*
X34737Y-25015D01*
X34737Y-24960D01*
X34737Y-25295D01*
X34737Y-25240D01*
X34675Y-25177D01*
X34144Y-25177D01*
X34144Y-25322D01*
X34144Y-25433D01*
X34144Y-25577D01*
X34675Y-25577D01*
X34737Y-25515D01*
X34737Y-25460D01*
X34737Y-25795D01*
X34737Y-25740D01*
X34675Y-25677D01*
X34144Y-25677D01*
X34144Y-25822D01*
X34144Y-25933D01*
X34144Y-26077D01*
X34675Y-26077D01*
X34737Y-26015D01*
X34737Y-25960D01*
X34737Y-26295D01*
X34737Y-26240D01*
X34675Y-26177D01*
X34144Y-26177D01*
X34144Y-26185D01*
X34044Y-26185D01*
X34044Y-26177D01*
X34044Y-26077D01*
X34044Y-25933D01*
X34044Y-25822D01*
X34044Y-25677D01*
X34044Y-25577D01*
X34044Y-25433D01*
X34044Y-25322D01*
X34044Y-25177D01*
X34044Y-25077D01*
X34044Y-24933D01*
X34044Y-24822D01*
X34044Y-24677D01*
X34044Y-24577D01*
X34044Y-24322D01*
X33981Y-24259D01*
X33750Y-24259D01*
X33650Y-24259D01*
X33558Y-24298D01*
X33488Y-24368D01*
X33450Y-24460D01*
X33450Y-24515D01*
X33513Y-24577D01*
X34044Y-24577D01*
X34044Y-24677D01*
X33513Y-24677D01*
X33450Y-24740D01*
X33450Y-24795D01*
X33484Y-24877D01*
X33450Y-24960D01*
X33450Y-25015D01*
X33513Y-25077D01*
X34044Y-25077D01*
X34044Y-25177D01*
X33513Y-25177D01*
X33450Y-25240D01*
X33450Y-25295D01*
X33484Y-25377D01*
X33450Y-25460D01*
X33450Y-25515D01*
X33513Y-25577D01*
X34044Y-25577D01*
X34044Y-25677D01*
X33513Y-25677D01*
X33450Y-25740D01*
X33450Y-25795D01*
X33484Y-25877D01*
X33450Y-25960D01*
X33450Y-26015D01*
X33513Y-26077D01*
X34044Y-26077D01*
X34044Y-26177D01*
X33513Y-26177D01*
X33450Y-26240D01*
X33450Y-26295D01*
X33484Y-26378D01*
X33450Y-26460D01*
X33450Y-26559D01*
X33450Y-26795D01*
X33464Y-26827D01*
X33059Y-26827D01*
X32987Y-26756D01*
X32890Y-26691D01*
X32775Y-26668D01*
X32650Y-26668D01*
X32650Y-26643D01*
X32612Y-26552D01*
X32542Y-26481D01*
X32450Y-26443D01*
X32350Y-26443D01*
X32000Y-26443D01*
X31908Y-26481D01*
X31850Y-26539D01*
X31792Y-26481D01*
X31700Y-26443D01*
X31600Y-26443D01*
X31250Y-26443D01*
X31158Y-26481D01*
X31088Y-26551D01*
X31058Y-26623D01*
X31058Y-25684D01*
X31068Y-25674D01*
X31133Y-25517D01*
X31133Y-25348D01*
X31069Y-25192D01*
X30949Y-25072D01*
X30793Y-25008D01*
X30624Y-25007D01*
X30468Y-25072D01*
X30348Y-25192D01*
X30283Y-25348D01*
X30283Y-25517D01*
X30348Y-25673D01*
X30358Y-25684D01*
X30358Y-27480D01*
X30385Y-27614D01*
X30461Y-27727D01*
X30638Y-27904D01*
X30751Y-27980D01*
X30751Y-27980D01*
X30885Y-28007D01*
X31056Y-28007D01*
X31050Y-28021D01*
X31050Y-28120D01*
X31050Y-28670D01*
X31088Y-28762D01*
X31158Y-28833D01*
X31250Y-28871D01*
X31349Y-28871D01*
X31699Y-28871D01*
X31791Y-28833D01*
X31850Y-28775D01*
X31908Y-28833D01*
X32000Y-28871D01*
X32099Y-28871D01*
X32449Y-28871D01*
X32541Y-28833D01*
X32612Y-28763D01*
X32650Y-28671D01*
X32650Y-28646D01*
X32677Y-28646D01*
X32677Y-28646D01*
X32791Y-28623D01*
X32791Y-28623D01*
X32889Y-28558D01*
X33019Y-28427D01*
X33529Y-28427D01*
X33558Y-28457D01*
X33650Y-28495D01*
X33750Y-28495D01*
X34537Y-28495D01*
X34629Y-28458D01*
X34699Y-28387D01*
X34737Y-28295D01*
X34737Y-28196D01*
X34737Y-27960D01*
X34703Y-27877D01*
X34737Y-27795D01*
X34737Y-27696D01*
X34737Y-27460D01*
X34703Y-27377D01*
X34737Y-27295D01*
X34737Y-27196D01*
X34737Y-26960D01*
X34724Y-26927D01*
X34986Y-26927D01*
X34986Y-26927D01*
X35101Y-26905D01*
X35101Y-26905D01*
X35198Y-26840D01*
X35448Y-26590D01*
X35448Y-26590D01*
X35513Y-26492D01*
X35536Y-26377D01*
X35536Y-26377D01*
X35536Y-24336D01*
X35655Y-24217D01*
X46259Y-24217D01*
X46259Y-24217D01*
X46374Y-24194D01*
X46374Y-24194D01*
X46471Y-24129D01*
X47046Y-23554D01*
X47046Y-23554D01*
X47111Y-23457D01*
X47134Y-23342D01*
X47134Y-23342D01*
X47134Y-20551D01*
X48440Y-21856D01*
X48440Y-28188D01*
X48462Y-28303D01*
X48528Y-28401D01*
X49086Y-28959D01*
X49086Y-28959D01*
X49183Y-29024D01*
X49298Y-29047D01*
X51216Y-29047D01*
X51216Y-29205D01*
X51225Y-29227D01*
X51216Y-29249D01*
X51216Y-29348D01*
X51216Y-29525D01*
X51223Y-29542D01*
X51216Y-29559D01*
X51216Y-29658D01*
X51216Y-29707D01*
X47236Y-29707D01*
X47121Y-29730D01*
X47024Y-29795D01*
X46717Y-30102D01*
X46651Y-30200D01*
X46629Y-30314D01*
X46629Y-31418D01*
X46579Y-31418D01*
X46487Y-31456D01*
X46417Y-31526D01*
X46379Y-31618D01*
X46379Y-31718D01*
X46379Y-32318D01*
X46417Y-32409D01*
X46487Y-32480D01*
X46579Y-32518D01*
X46678Y-32518D01*
X47278Y-32518D01*
X47370Y-32480D01*
X47440Y-32410D01*
X47479Y-32318D01*
X47479Y-32218D01*
X47479Y-31618D01*
X47441Y-31527D01*
X47370Y-31456D01*
X47279Y-31418D01*
X47229Y-31418D01*
X47229Y-30439D01*
X47360Y-30307D01*
X48716Y-30307D01*
X48528Y-30496D01*
X48462Y-30593D01*
X48440Y-30708D01*
X48440Y-31418D01*
X48390Y-31418D01*
X48298Y-31456D01*
X48228Y-31526D01*
X48190Y-31618D01*
X48190Y-31718D01*
X48190Y-32318D01*
X48228Y-32409D01*
X48298Y-32480D01*
X48390Y-32518D01*
X48489Y-32518D01*
X49089Y-32518D01*
X49181Y-32480D01*
X49251Y-32410D01*
X49290Y-32318D01*
X49290Y-32218D01*
X49290Y-31618D01*
X49252Y-31527D01*
X49181Y-31456D01*
X49090Y-31418D01*
X49040Y-31418D01*
X49040Y-30832D01*
X49245Y-30627D01*
X49814Y-30627D01*
X49709Y-30732D01*
X49644Y-30830D01*
X49621Y-30944D01*
X49621Y-31418D01*
X49571Y-31418D01*
X49479Y-31456D01*
X49409Y-31526D01*
X49371Y-31618D01*
X49371Y-31718D01*
X49371Y-32318D01*
X49409Y-32409D01*
X49479Y-32480D01*
X49571Y-32518D01*
X49670Y-32518D01*
X50270Y-32518D01*
X50362Y-32480D01*
X50433Y-32410D01*
X50471Y-32318D01*
X50471Y-32218D01*
X50471Y-31618D01*
X50433Y-31527D01*
X50363Y-31456D01*
X50271Y-31418D01*
X50221Y-31418D01*
X50221Y-31069D01*
X50352Y-30937D01*
X51324Y-30937D01*
X51324Y-30937D01*
X51416Y-30976D01*
X51516Y-30976D01*
X52303Y-30976D01*
X52311Y-30972D01*
X52308Y-30980D01*
X52308Y-31079D01*
X52308Y-31866D01*
X52346Y-31958D01*
X52347Y-31959D01*
X52347Y-34236D01*
X52139Y-34444D01*
X52026Y-34444D01*
X52026Y-34104D01*
X51988Y-34012D01*
X51917Y-33941D01*
X51826Y-33903D01*
X51726Y-33903D01*
X50742Y-33903D01*
X50650Y-33941D01*
X50580Y-34011D01*
X50541Y-34103D01*
X50541Y-34203D01*
X50541Y-34444D01*
X50295Y-34444D01*
X50180Y-34466D01*
X50083Y-34531D01*
X49886Y-34728D01*
X49858Y-34770D01*
X49773Y-34770D01*
X49681Y-34808D01*
X49611Y-34879D01*
X49573Y-34970D01*
X49573Y-35070D01*
X49573Y-35420D01*
X49611Y-35512D01*
X49669Y-35570D01*
X49611Y-35629D01*
X49573Y-35721D01*
X49573Y-35833D01*
X49635Y-35895D01*
X50048Y-35895D01*
X50048Y-35887D01*
X50148Y-35887D01*
X50148Y-35895D01*
X50560Y-35895D01*
X50623Y-35833D01*
X50623Y-35721D01*
X50585Y-35629D01*
X50526Y-35570D01*
X50585Y-35512D01*
X50594Y-35490D01*
X50650Y-35546D01*
X50741Y-35584D01*
X50841Y-35584D01*
X51825Y-35584D01*
X51917Y-35546D01*
X51987Y-35476D01*
X52026Y-35384D01*
X52026Y-35285D01*
X52026Y-35044D01*
X52263Y-35044D01*
X52263Y-35044D01*
X52378Y-35021D01*
X52378Y-35021D01*
X52475Y-34956D01*
X52755Y-34676D01*
X53035Y-34956D01*
X53035Y-34956D01*
X53091Y-34993D01*
X53091Y-35384D01*
X53129Y-35476D01*
X53200Y-35546D01*
X53291Y-35584D01*
X53391Y-35584D01*
X54375Y-35584D01*
X54467Y-35546D01*
X54537Y-35476D01*
X54576Y-35384D01*
X54576Y-35285D01*
X54576Y-35044D01*
X54593Y-35044D01*
X54593Y-35090D01*
X54593Y-35440D01*
X54631Y-35531D01*
X54689Y-35590D01*
X54631Y-35649D01*
X54593Y-35741D01*
X54593Y-35853D01*
X54655Y-35915D01*
X55068Y-35915D01*
X55068Y-35907D01*
X55168Y-35907D01*
X55168Y-35915D01*
X55580Y-35915D01*
X55643Y-35853D01*
X55643Y-35741D01*
X55605Y-35649D01*
X55546Y-35590D01*
X55604Y-35532D01*
X55643Y-35440D01*
X55643Y-35341D01*
X55643Y-34991D01*
X55605Y-34899D01*
X55534Y-34828D01*
X55443Y-34790D01*
X55371Y-34790D01*
X55330Y-34728D01*
X55330Y-34728D01*
X55133Y-34531D01*
X55036Y-34466D01*
X54921Y-34444D01*
X54796Y-34444D01*
X54796Y-33197D01*
X54796Y-33084D01*
X54733Y-33022D01*
X54421Y-33022D01*
X54421Y-33434D01*
X54483Y-33497D01*
X54595Y-33497D01*
X54687Y-33459D01*
X54757Y-33389D01*
X54796Y-33297D01*
X54796Y-33197D01*
X54796Y-34444D01*
X54576Y-34444D01*
X54576Y-34104D01*
X54538Y-34012D01*
X54467Y-33941D01*
X54376Y-33903D01*
X54276Y-33903D01*
X53292Y-33903D01*
X53262Y-33916D01*
X53262Y-33417D01*
X53304Y-33459D01*
X53396Y-33497D01*
X53495Y-33497D01*
X53845Y-33497D01*
X53937Y-33459D01*
X53996Y-33401D01*
X54054Y-33459D01*
X54146Y-33497D01*
X54258Y-33497D01*
X54321Y-33434D01*
X54321Y-33022D01*
X54313Y-33022D01*
X54313Y-32922D01*
X54321Y-32922D01*
X54321Y-32509D01*
X54258Y-32447D01*
X54146Y-32447D01*
X54054Y-32485D01*
X53996Y-32543D01*
X53937Y-32485D01*
X53846Y-32447D01*
X53746Y-32447D01*
X53627Y-32447D01*
X53627Y-32067D01*
X53642Y-32067D01*
X53642Y-32010D01*
X53698Y-32067D01*
X53730Y-32067D01*
X53749Y-32059D01*
X53768Y-32067D01*
X53868Y-32067D01*
X54045Y-32067D01*
X54064Y-32059D01*
X54083Y-32067D01*
X54115Y-32067D01*
X54177Y-32004D01*
X54177Y-31988D01*
X54207Y-31958D01*
X54222Y-31923D01*
X54236Y-31958D01*
X54237Y-31959D01*
X54237Y-32017D01*
X54259Y-32132D01*
X54325Y-32229D01*
X54542Y-32447D01*
X54483Y-32447D01*
X54421Y-32509D01*
X54421Y-32922D01*
X54733Y-32922D01*
X54796Y-32859D01*
X54796Y-32746D01*
X54796Y-32700D01*
X54827Y-32731D01*
X54924Y-32796D01*
X55039Y-32819D01*
X57401Y-32819D01*
X57401Y-32819D01*
X57516Y-32796D01*
X57516Y-32796D01*
X57613Y-32731D01*
X57771Y-32574D01*
X57771Y-32574D01*
X57808Y-32518D01*
X57908Y-32518D01*
X58000Y-32480D01*
X58070Y-32410D01*
X58109Y-32318D01*
X58109Y-32218D01*
X58109Y-31723D01*
X58190Y-31723D01*
X58190Y-32318D01*
X58228Y-32409D01*
X58298Y-32480D01*
X58390Y-32518D01*
X58489Y-32518D01*
X59089Y-32518D01*
X59181Y-32480D01*
X59251Y-32410D01*
X59290Y-32318D01*
X59290Y-32218D01*
X59290Y-31618D01*
X59252Y-31527D01*
X59181Y-31456D01*
X59090Y-31418D01*
X58990Y-31418D01*
X58929Y-31418D01*
X58722Y-31211D01*
X58624Y-31146D01*
X58510Y-31123D01*
X55190Y-31123D01*
X55190Y-30980D01*
X55188Y-30974D01*
X55196Y-30978D01*
X55296Y-30978D01*
X56083Y-30978D01*
X56175Y-30940D01*
X56175Y-30939D01*
X59157Y-30939D01*
X59444Y-31226D01*
X59444Y-35899D01*
X58734Y-36609D01*
X55643Y-36609D01*
X55643Y-36190D01*
X55643Y-36078D01*
X55580Y-36015D01*
X55168Y-36015D01*
X55168Y-36328D01*
X55230Y-36390D01*
X55343Y-36390D01*
X55443Y-36390D01*
X55534Y-36352D01*
X55605Y-36281D01*
X55643Y-36190D01*
X55643Y-36609D01*
X55068Y-36609D01*
X55068Y-36328D01*
X55068Y-36015D01*
X54655Y-36015D01*
X54593Y-36078D01*
X54593Y-36190D01*
X54631Y-36281D01*
X54701Y-36352D01*
X54793Y-36390D01*
X54892Y-36390D01*
X55005Y-36390D01*
X55068Y-36328D01*
X55068Y-36609D01*
X50623Y-36609D01*
X50623Y-36170D01*
X50623Y-36058D01*
X50560Y-35995D01*
X50148Y-35995D01*
X50148Y-36308D01*
X50210Y-36370D01*
X50323Y-36370D01*
X50423Y-36370D01*
X50515Y-36332D01*
X50585Y-36262D01*
X50623Y-36170D01*
X50623Y-36609D01*
X50048Y-36609D01*
X50048Y-36308D01*
X50048Y-35995D01*
X49635Y-35995D01*
X49573Y-36058D01*
X49573Y-36170D01*
X49611Y-36262D01*
X49681Y-36332D01*
X49773Y-36370D01*
X49872Y-36370D01*
X49985Y-36370D01*
X50048Y-36308D01*
X50048Y-36609D01*
X41999Y-36609D01*
X41999Y-26687D01*
X41935Y-26531D01*
X41815Y-26411D01*
X41659Y-26346D01*
X41490Y-26346D01*
X41334Y-26411D01*
X41241Y-26504D01*
X41291Y-26384D01*
X41291Y-26215D01*
X41226Y-26058D01*
X41107Y-25939D01*
X40951Y-25874D01*
X40781Y-25874D01*
X40625Y-25938D01*
X40506Y-26058D01*
X40441Y-26214D01*
X40441Y-26383D01*
X40505Y-26539D01*
X40566Y-26600D01*
X40566Y-27119D01*
X40484Y-27200D01*
X40178Y-27200D01*
X40172Y-27184D01*
X40113Y-27125D01*
X40171Y-27067D01*
X40209Y-26975D01*
X40210Y-26876D01*
X40210Y-26526D01*
X40172Y-26434D01*
X40101Y-26364D01*
X40035Y-26336D01*
X40035Y-25605D01*
X40045Y-25595D01*
X40109Y-25439D01*
X40110Y-25270D01*
X40045Y-25113D01*
X39926Y-24994D01*
X39769Y-24929D01*
X39600Y-24929D01*
X39444Y-24993D01*
X39324Y-25113D01*
X39260Y-25269D01*
X39259Y-25438D01*
X39324Y-25594D01*
X39335Y-25605D01*
X39335Y-26336D01*
X39268Y-26363D01*
X39198Y-26434D01*
X39160Y-26526D01*
X39159Y-26625D01*
X39159Y-26975D01*
X39197Y-27067D01*
X39256Y-27126D01*
X39198Y-27184D01*
X39191Y-27200D01*
X38719Y-27200D01*
X38604Y-27223D01*
X38507Y-27288D01*
X38468Y-27327D01*
X38386Y-27327D01*
X38399Y-27295D01*
X38399Y-27196D01*
X38399Y-26960D01*
X38365Y-26877D01*
X38399Y-26795D01*
X38399Y-26460D01*
X38365Y-26377D01*
X38399Y-26295D01*
X38399Y-25960D01*
X38365Y-25877D01*
X38399Y-25795D01*
X38399Y-25460D01*
X38365Y-25377D01*
X38399Y-25295D01*
X38399Y-24960D01*
X38365Y-24877D01*
X38399Y-24795D01*
X38399Y-24460D01*
X38361Y-24368D01*
X38291Y-24298D01*
X38199Y-24259D01*
X38100Y-24259D01*
X37868Y-24259D01*
X37806Y-24322D01*
X37806Y-24577D01*
X38337Y-24577D01*
X38399Y-24515D01*
X38399Y-24460D01*
X38399Y-24795D01*
X38399Y-24740D01*
X38337Y-24677D01*
X37806Y-24677D01*
X37806Y-24822D01*
X37806Y-24933D01*
X37806Y-25077D01*
X38337Y-25077D01*
X38399Y-25015D01*
X38399Y-24960D01*
X38399Y-25295D01*
X38399Y-25240D01*
X38337Y-25177D01*
X37806Y-25177D01*
X37806Y-25322D01*
X37806Y-25433D01*
X37806Y-25577D01*
X38337Y-25577D01*
X38399Y-25515D01*
X38399Y-25460D01*
X38399Y-25795D01*
X38399Y-25740D01*
X38337Y-25677D01*
X37806Y-25677D01*
X37806Y-25822D01*
X37806Y-25933D01*
X37806Y-26077D01*
X38337Y-26077D01*
X38399Y-26015D01*
X38399Y-25960D01*
X38399Y-26295D01*
X38399Y-26240D01*
X38337Y-26177D01*
X37806Y-26177D01*
X37806Y-26322D01*
X37806Y-26433D01*
X37806Y-26577D01*
X38337Y-26577D01*
X38399Y-26515D01*
X38399Y-26460D01*
X38399Y-26795D01*
X38399Y-26740D01*
X38337Y-26677D01*
X37806Y-26677D01*
X37806Y-26685D01*
X37706Y-26685D01*
X37706Y-26677D01*
X37706Y-26577D01*
X37706Y-26433D01*
X37706Y-26322D01*
X37706Y-26177D01*
X37706Y-26077D01*
X37706Y-25933D01*
X37706Y-25822D01*
X37706Y-25677D01*
X37706Y-25577D01*
X37706Y-25433D01*
X37706Y-25322D01*
X37706Y-25177D01*
X37706Y-25077D01*
X37706Y-24933D01*
X37706Y-24822D01*
X37706Y-24677D01*
X37706Y-24577D01*
X37706Y-24322D01*
X37643Y-24259D01*
X37412Y-24259D01*
X37312Y-24259D01*
X37220Y-24298D01*
X37150Y-24368D01*
X37112Y-24460D01*
X37112Y-24515D01*
X37175Y-24577D01*
X37706Y-24577D01*
X37706Y-24677D01*
X37175Y-24677D01*
X37112Y-24740D01*
X37112Y-24795D01*
X37146Y-24877D01*
X37112Y-24960D01*
X37112Y-25015D01*
X37175Y-25077D01*
X37706Y-25077D01*
X37706Y-25177D01*
X37175Y-25177D01*
X37112Y-25240D01*
X37112Y-25295D01*
X37146Y-25377D01*
X37112Y-25460D01*
X37112Y-25515D01*
X37175Y-25577D01*
X37706Y-25577D01*
X37706Y-25677D01*
X37175Y-25677D01*
X37112Y-25740D01*
X37112Y-25795D01*
X37146Y-25877D01*
X37112Y-25960D01*
X37112Y-26015D01*
X37175Y-26077D01*
X37706Y-26077D01*
X37706Y-26177D01*
X37175Y-26177D01*
X37112Y-26240D01*
X37112Y-26295D01*
X37146Y-26377D01*
X37112Y-26460D01*
X37112Y-26515D01*
X37175Y-26577D01*
X37706Y-26577D01*
X37706Y-26677D01*
X37175Y-26677D01*
X37112Y-26740D01*
X37112Y-26795D01*
X37126Y-26827D01*
X36454Y-26827D01*
X36339Y-26850D01*
X36242Y-26915D01*
X35909Y-27248D01*
X35844Y-27345D01*
X35822Y-27460D01*
X35822Y-28911D01*
X35604Y-29129D01*
X29454Y-29129D01*
X29197Y-28871D01*
X29197Y-23134D01*
X36318Y-23134D01*
X36318Y-23134D01*
X36433Y-23111D01*
X36433Y-23111D01*
X36531Y-23046D01*
X37456Y-22121D01*
X37456Y-22121D01*
X37521Y-22024D01*
X37544Y-21909D01*
X37544Y-21909D01*
X37544Y-20093D01*
X37830Y-19974D01*
X38123Y-19682D01*
X38166Y-19578D01*
X38218Y-19578D01*
X38156Y-19641D01*
X38156Y-19753D01*
X38194Y-19844D01*
X38264Y-19915D01*
X38356Y-19953D01*
X38455Y-19953D01*
X38568Y-19953D01*
X38631Y-19891D01*
X38631Y-19578D01*
X38623Y-19578D01*
X38623Y-19478D01*
X38631Y-19478D01*
X38631Y-19470D01*
X38731Y-19470D01*
X38731Y-19478D01*
X39143Y-19478D01*
X39206Y-19416D01*
X39206Y-19304D01*
X39168Y-19212D01*
X39109Y-19153D01*
X39167Y-19095D01*
X39206Y-19003D01*
X39206Y-18904D01*
X39206Y-18554D01*
X39168Y-18462D01*
X39097Y-18391D01*
X39006Y-18353D01*
X38906Y-18353D01*
X38356Y-18353D01*
X38264Y-18391D01*
X38194Y-18461D01*
X38187Y-18478D01*
X38111Y-18478D01*
X38097Y-18481D01*
X37832Y-18215D01*
X37451Y-18057D01*
X37038Y-18056D01*
X36657Y-18214D01*
X36365Y-18506D01*
X36206Y-18887D01*
X36206Y-19299D01*
X36364Y-19681D01*
X36655Y-19973D01*
X36944Y-20093D01*
X36944Y-21785D01*
X36194Y-22534D01*
X35098Y-22534D01*
X35098Y-18722D01*
X34801Y-17975D01*
X34767Y-17923D01*
X34519Y-17716D01*
X33141Y-19094D01*
X34519Y-20472D01*
X34767Y-20265D01*
X35086Y-19526D01*
X35098Y-18722D01*
X35098Y-22534D01*
X34448Y-22534D01*
X34448Y-20542D01*
X33070Y-19165D01*
X33000Y-19235D01*
X33000Y-19094D01*
X31622Y-17716D01*
X31374Y-17923D01*
X31055Y-18662D01*
X31043Y-19466D01*
X31339Y-20213D01*
X31374Y-20265D01*
X31622Y-20472D01*
X33000Y-19094D01*
X33000Y-19235D01*
X31693Y-20542D01*
X31900Y-20790D01*
X32638Y-21109D01*
X33442Y-21121D01*
X34190Y-20825D01*
X34241Y-20790D01*
X34448Y-20542D01*
X34448Y-22534D01*
X29197Y-22534D01*
X29197Y-20093D01*
X29484Y-19974D01*
X29776Y-19682D01*
X29934Y-19301D01*
X29935Y-18889D01*
X29777Y-18507D01*
X29486Y-18215D01*
X29104Y-18057D01*
X28692Y-18056D01*
X28310Y-18214D01*
X28018Y-18506D01*
X27860Y-18887D01*
X27860Y-19299D01*
X28017Y-19681D01*
X28309Y-19973D01*
X28597Y-20093D01*
X28597Y-22834D01*
X28597Y-28996D01*
X28620Y-29110D01*
X28685Y-29208D01*
X29118Y-29641D01*
X29118Y-29641D01*
X29215Y-29706D01*
X29330Y-29729D01*
X29330Y-29729D01*
X35728Y-29729D01*
X35728Y-29729D01*
X35843Y-29706D01*
X35843Y-29706D01*
X35940Y-29641D01*
X36334Y-29247D01*
X36334Y-29247D01*
X36399Y-29150D01*
X36422Y-29035D01*
X36422Y-29035D01*
X36422Y-27584D01*
X36578Y-27427D01*
X37126Y-27427D01*
X37112Y-27460D01*
X37112Y-27559D01*
X37112Y-27795D01*
X37146Y-27878D01*
X37112Y-27960D01*
X37112Y-28059D01*
X37112Y-28295D01*
X37150Y-28387D01*
X37220Y-28457D01*
X37312Y-28495D01*
X37412Y-28495D01*
X38199Y-28495D01*
X38291Y-28458D01*
X38321Y-28427D01*
X38397Y-28427D01*
X38428Y-28459D01*
X38428Y-28459D01*
X38525Y-28524D01*
X38640Y-28547D01*
X39191Y-28547D01*
X39197Y-28563D01*
X39256Y-28622D01*
X39198Y-28680D01*
X39160Y-28772D01*
X39159Y-28871D01*
X39159Y-29221D01*
X39197Y-29313D01*
X39268Y-29383D01*
X39335Y-29411D01*
X39335Y-30457D01*
X39324Y-30467D01*
X39260Y-30623D01*
X39259Y-30792D01*
X39324Y-30949D01*
X39443Y-31068D01*
X39600Y-31133D01*
X39769Y-31133D01*
X39925Y-31069D01*
X40045Y-30949D01*
X40109Y-30793D01*
X40110Y-30624D01*
X40045Y-30468D01*
X40035Y-30457D01*
X40035Y-29411D01*
X40101Y-29384D01*
X40171Y-29313D01*
X40209Y-29221D01*
X40210Y-29122D01*
X40210Y-28772D01*
X40172Y-28680D01*
X40113Y-28622D01*
X40171Y-28563D01*
X40178Y-28547D01*
X41280Y-28547D01*
X41280Y-28547D01*
X41395Y-28524D01*
X41395Y-28524D01*
X41492Y-28459D01*
X41786Y-28164D01*
X41786Y-28164D01*
X41851Y-28067D01*
X41874Y-27952D01*
X41874Y-27952D01*
X41874Y-27072D01*
X41934Y-27012D01*
X41999Y-26856D01*
X41999Y-26687D01*
X41999Y-36609D01*
X27092Y-36609D01*
X26579Y-36096D01*
X26579Y-21659D01*
X26639Y-21599D01*
X26704Y-21443D01*
X26704Y-21274D01*
X26640Y-21117D01*
X26520Y-20998D01*
X26364Y-20933D01*
X26195Y-20933D01*
X26039Y-20997D01*
X25919Y-21117D01*
X25854Y-21273D01*
X25854Y-21442D01*
X25919Y-21598D01*
X25979Y-21659D01*
X25979Y-36220D01*
X26002Y-36335D01*
X26067Y-36432D01*
X26756Y-37121D01*
X26756Y-37121D01*
X26853Y-37186D01*
X26968Y-37209D01*
X26968Y-37209D01*
X58858Y-37209D01*
X58858Y-37209D01*
X58973Y-37186D01*
X58973Y-37186D01*
X59070Y-37121D01*
X59956Y-36235D01*
X59956Y-36235D01*
X60021Y-36138D01*
X60044Y-36023D01*
X60044Y-36023D01*
X60044Y-31102D01*
X60021Y-30987D01*
X59956Y-30890D01*
X59956Y-30890D01*
X59691Y-30625D01*
X86800Y-30625D01*
X86800Y-30625D01*
X86915Y-30602D01*
X86915Y-30602D01*
X87012Y-30537D01*
X87932Y-29617D01*
X87932Y-29617D01*
X87997Y-29520D01*
X88020Y-29405D01*
X88020Y-29405D01*
X88020Y-18089D01*
X88031Y-18084D01*
X88186Y-17930D01*
X88220Y-17848D01*
X88253Y-17929D01*
X88408Y-18084D01*
X88610Y-18168D01*
X88829Y-18168D01*
X89031Y-18084D01*
X89186Y-17930D01*
X89270Y-17727D01*
X89270Y-17509D01*
X89187Y-17306D01*
X89032Y-17152D01*
X88830Y-17068D01*
X88611Y-17068D01*
X88409Y-17151D01*
X88254Y-17306D01*
X88220Y-17387D01*
X88187Y-17306D01*
X88032Y-17152D01*
X87830Y-17068D01*
X87611Y-17068D01*
X87409Y-17151D01*
X87254Y-17306D01*
X87220Y-17387D01*
X87187Y-17306D01*
X87032Y-17152D01*
X86830Y-17068D01*
X86611Y-17068D01*
X86409Y-17151D01*
X86254Y-17306D01*
X86220Y-17387D01*
X86187Y-17306D01*
X86032Y-17152D01*
X85830Y-17068D01*
X85611Y-17068D01*
X85409Y-17151D01*
X85270Y-17290D01*
X85270Y-17268D01*
X85232Y-17176D01*
X85161Y-17106D01*
X85069Y-17068D01*
X84832Y-17068D01*
X84770Y-17130D01*
X84770Y-17568D01*
X84778Y-17568D01*
X84778Y-17668D01*
X84770Y-17668D01*
X84770Y-18105D01*
X84832Y-18168D01*
X85069Y-18168D01*
X85161Y-18130D01*
X85232Y-18059D01*
X85270Y-17968D01*
X85270Y-17945D01*
X85408Y-18084D01*
X85610Y-18168D01*
X85829Y-18168D01*
X86031Y-18084D01*
X86186Y-17930D01*
X86220Y-17848D01*
X86253Y-17929D01*
X86408Y-18084D01*
X86420Y-18089D01*
X86420Y-29395D01*
X86106Y-29709D01*
X84670Y-29709D01*
X84670Y-18105D01*
X84670Y-17668D01*
X84670Y-17568D01*
X84670Y-17130D01*
X84607Y-17068D01*
X84370Y-17068D01*
X84279Y-17106D01*
X84220Y-17164D01*
X84161Y-17106D01*
X84069Y-17068D01*
X83832Y-17068D01*
X83770Y-17130D01*
X83770Y-17568D01*
X84207Y-17568D01*
X84220Y-17555D01*
X84232Y-17568D01*
X84670Y-17568D01*
X84670Y-17668D01*
X84232Y-17668D01*
X84220Y-17680D01*
X84207Y-17668D01*
X83770Y-17668D01*
X83770Y-18105D01*
X83832Y-18168D01*
X84069Y-18168D01*
X84161Y-18130D01*
X84220Y-18071D01*
X84279Y-18130D01*
X84370Y-18168D01*
X84607Y-18168D01*
X84670Y-18105D01*
X84670Y-29709D01*
X83670Y-29709D01*
X83670Y-18105D01*
X83670Y-17668D01*
X83670Y-17568D01*
X83670Y-17130D01*
X83607Y-17068D01*
X83370Y-17068D01*
X83279Y-17106D01*
X83208Y-17176D01*
X83170Y-17268D01*
X83170Y-17367D01*
X83170Y-17505D01*
X83232Y-17568D01*
X83670Y-17568D01*
X83670Y-17668D01*
X83232Y-17668D01*
X83170Y-17730D01*
X83170Y-17868D01*
X83170Y-17968D01*
X83208Y-18059D01*
X83279Y-18130D01*
X83370Y-18168D01*
X83607Y-18168D01*
X83670Y-18105D01*
X83670Y-29709D01*
X77920Y-29709D01*
X77920Y-17868D01*
X77920Y-17268D01*
X77882Y-17176D01*
X77811Y-17106D01*
X77720Y-17068D01*
X77620Y-17068D01*
X77020Y-17068D01*
X76928Y-17106D01*
X76858Y-17176D01*
X76820Y-17268D01*
X76820Y-17290D01*
X76682Y-17152D01*
X76479Y-17068D01*
X76261Y-17068D01*
X76058Y-17151D01*
X75904Y-17306D01*
X75820Y-17508D01*
X75819Y-17727D01*
X75903Y-17929D01*
X76058Y-18084D01*
X76260Y-18168D01*
X76479Y-18168D01*
X76681Y-18084D01*
X76820Y-17946D01*
X76820Y-17967D01*
X76858Y-18059D01*
X76928Y-18129D01*
X77020Y-18168D01*
X77119Y-18168D01*
X77719Y-18168D01*
X77811Y-18130D01*
X77881Y-18059D01*
X77920Y-17968D01*
X77920Y-17868D01*
X77920Y-29709D01*
X64336Y-29709D01*
X64621Y-29424D01*
X64686Y-29327D01*
X64709Y-29212D01*
X64709Y-29212D01*
X64709Y-16933D01*
X89048Y-16933D01*
X89535Y-17420D01*
X89535Y-17420D01*
X89633Y-17485D01*
X89748Y-17508D01*
X89748Y-17508D01*
X93107Y-17508D01*
X93112Y-17519D01*
X93266Y-17674D01*
X93468Y-17758D01*
X93687Y-17758D01*
X93889Y-17675D01*
X94044Y-17520D01*
X94128Y-17318D01*
X94128Y-17099D01*
X94045Y-16897D01*
X93890Y-16742D01*
X93688Y-16658D01*
X93469Y-16658D01*
X93267Y-16742D01*
X93112Y-16896D01*
X93107Y-16908D01*
X89872Y-16908D01*
X89385Y-16421D01*
X89369Y-16411D01*
X103667Y-16411D01*
X103667Y-105635D01*
X103667Y-105635D01*
G37*
G54D25*
X103667Y-105635D02*
X103202Y-105635D01*
X103202Y-103692D01*
X103202Y-17865D01*
X103015Y-17412D01*
X102668Y-17064D01*
X102215Y-16876D01*
X101724Y-16875D01*
X101270Y-17063D01*
X100922Y-17410D01*
X100734Y-17863D01*
X100734Y-18354D01*
X100921Y-18808D01*
X101268Y-19155D01*
X101721Y-19344D01*
X102212Y-19344D01*
X102666Y-19157D01*
X103014Y-18810D01*
X103202Y-18356D01*
X103202Y-17865D01*
X103202Y-103692D01*
X103015Y-103238D01*
X102668Y-102891D01*
X102215Y-102702D01*
X101724Y-102702D01*
X101270Y-102890D01*
X100922Y-103236D01*
X100734Y-103690D01*
X100734Y-104181D01*
X100921Y-104635D01*
X101268Y-104982D01*
X101721Y-105171D01*
X102212Y-105171D01*
X102666Y-104983D01*
X103014Y-104637D01*
X103202Y-104183D01*
X103202Y-103692D01*
X103202Y-105635D01*
X97133Y-105635D01*
X97133Y-19290D01*
X97128Y-19196D01*
X97128Y-17099D01*
X97045Y-16897D01*
X96890Y-16742D01*
X96688Y-16658D01*
X96469Y-16658D01*
X96267Y-16742D01*
X96112Y-16896D01*
X96028Y-17098D01*
X96028Y-17317D01*
X96112Y-17519D01*
X96266Y-17674D01*
X96468Y-17758D01*
X96687Y-17758D01*
X96889Y-17675D01*
X97044Y-17520D01*
X97128Y-17318D01*
X97128Y-17099D01*
X97128Y-19196D01*
X97122Y-19071D01*
X97059Y-18920D01*
X96964Y-18893D01*
X96893Y-18964D01*
X96893Y-18822D01*
X96866Y-18727D01*
X96660Y-18653D01*
X96441Y-18664D01*
X96290Y-18727D01*
X96263Y-18822D01*
X96578Y-19137D01*
X96893Y-18822D01*
X96893Y-18964D01*
X96649Y-19208D01*
X96964Y-19523D01*
X97059Y-19496D01*
X97133Y-19290D01*
X97133Y-105635D01*
X96893Y-105635D01*
X96893Y-19594D01*
X96578Y-19279D01*
X96508Y-19350D01*
X96508Y-19208D01*
X96192Y-18893D01*
X96097Y-18920D01*
X96023Y-19126D01*
X96034Y-19345D01*
X96097Y-19496D01*
X96192Y-19523D01*
X96508Y-19208D01*
X96508Y-19350D01*
X96263Y-19594D01*
X96290Y-19689D01*
X96496Y-19763D01*
X96715Y-19752D01*
X96866Y-19689D01*
X96893Y-19594D01*
X96893Y-105635D01*
X94133Y-105635D01*
X94133Y-19290D01*
X94122Y-19071D01*
X94059Y-18920D01*
X93964Y-18893D01*
X93893Y-18964D01*
X93893Y-18822D01*
X93866Y-18727D01*
X93660Y-18653D01*
X93441Y-18664D01*
X93290Y-18727D01*
X93263Y-18822D01*
X93578Y-19137D01*
X93893Y-18822D01*
X93893Y-18964D01*
X93649Y-19208D01*
X93964Y-19523D01*
X94059Y-19496D01*
X94133Y-19290D01*
X94133Y-105635D01*
X93893Y-105635D01*
X93893Y-19594D01*
X93578Y-19279D01*
X93508Y-19350D01*
X93508Y-19208D01*
X93192Y-18893D01*
X93097Y-18920D01*
X93023Y-19126D01*
X93034Y-19345D01*
X93097Y-19496D01*
X93192Y-19523D01*
X93508Y-19208D01*
X93508Y-19350D01*
X93263Y-19594D01*
X93290Y-19689D01*
X93496Y-19763D01*
X93715Y-19752D01*
X93866Y-19689D01*
X93893Y-19594D01*
X93893Y-105635D01*
X64679Y-105635D01*
X64679Y-104861D01*
X64678Y-104386D01*
X64498Y-103950D01*
X64336Y-103844D01*
X63554Y-104625D01*
X64336Y-105407D01*
X64498Y-105301D01*
X64679Y-104861D01*
X64679Y-105635D01*
X64162Y-105635D01*
X64265Y-105477D01*
X63484Y-104696D01*
X63413Y-104767D01*
X62703Y-105477D01*
X62806Y-105635D01*
X62273Y-105635D01*
X62279Y-105620D01*
X62279Y-105521D01*
X62279Y-103792D01*
X62348Y-103821D01*
X62608Y-103820D01*
X62632Y-103844D01*
X62469Y-103950D01*
X62288Y-104390D01*
X62289Y-104865D01*
X62469Y-105301D01*
X62632Y-105407D01*
X63413Y-104625D01*
X63407Y-104620D01*
X63478Y-104549D01*
X63484Y-104555D01*
X64265Y-103774D01*
X64159Y-103611D01*
X63779Y-103455D01*
X63719Y-103430D01*
X63460Y-103431D01*
X63436Y-103407D01*
X63598Y-103301D01*
X63779Y-102861D01*
X63778Y-102386D01*
X63598Y-101950D01*
X63436Y-101844D01*
X63365Y-101915D01*
X63365Y-101774D01*
X63259Y-101611D01*
X62819Y-101430D01*
X62344Y-101431D01*
X61909Y-101611D01*
X61803Y-101774D01*
X62584Y-102555D01*
X63365Y-101774D01*
X63365Y-101915D01*
X62654Y-102625D01*
X62660Y-102631D01*
X62589Y-102702D01*
X62584Y-102696D01*
X62578Y-102702D01*
X62513Y-102637D01*
X62507Y-102631D01*
X62513Y-102625D01*
X61732Y-101844D01*
X61569Y-101950D01*
X61388Y-102390D01*
X61389Y-102865D01*
X61569Y-103301D01*
X61732Y-103407D01*
X61708Y-103430D01*
X60089Y-103430D01*
X59997Y-103468D01*
X59927Y-103539D01*
X59889Y-103631D01*
X59889Y-103730D01*
X59889Y-105620D01*
X59895Y-105635D01*
X24462Y-105635D01*
X24462Y-103692D01*
X24462Y-17865D01*
X24275Y-17412D01*
X23928Y-17064D01*
X23474Y-16876D01*
X22983Y-16875D01*
X22530Y-17063D01*
X22182Y-17410D01*
X21994Y-17863D01*
X21993Y-18354D01*
X22181Y-18808D01*
X22528Y-19155D01*
X22981Y-19344D01*
X23472Y-19344D01*
X23926Y-19157D01*
X24274Y-18810D01*
X24462Y-18356D01*
X24462Y-17865D01*
X24462Y-103692D01*
X24275Y-103238D01*
X23928Y-102891D01*
X23474Y-102702D01*
X22983Y-102702D01*
X22530Y-102890D01*
X22182Y-103236D01*
X21994Y-103690D01*
X21993Y-104181D01*
X22181Y-104635D01*
X22528Y-104982D01*
X22981Y-105171D01*
X23472Y-105171D01*
X23926Y-104983D01*
X24274Y-104637D01*
X24462Y-104183D01*
X24462Y-103692D01*
X24462Y-105635D01*
X21529Y-105635D01*
X21529Y-16411D01*
X30036Y-16411D01*
X31317Y-17265D01*
X31322Y-17271D01*
X31420Y-17311D01*
X31893Y-17405D01*
X31693Y-17646D01*
X33070Y-19023D01*
X34448Y-17646D01*
X34247Y-17404D01*
X34714Y-17311D01*
X34721Y-17311D01*
X34818Y-17271D01*
X36107Y-16411D01*
X45964Y-16411D01*
X45949Y-16421D01*
X45555Y-16815D01*
X45490Y-16912D01*
X45467Y-17027D01*
X45467Y-19389D01*
X45490Y-19504D01*
X45555Y-19601D01*
X45858Y-19905D01*
X45858Y-19905D01*
X45956Y-19970D01*
X46070Y-19992D01*
X46363Y-19992D01*
X46368Y-20004D01*
X46522Y-20158D01*
X46534Y-20163D01*
X46534Y-23218D01*
X46135Y-23617D01*
X39206Y-23617D01*
X39206Y-19753D01*
X39206Y-19641D01*
X39143Y-19578D01*
X38731Y-19578D01*
X38731Y-19891D01*
X38793Y-19953D01*
X38906Y-19953D01*
X39006Y-19953D01*
X39097Y-19915D01*
X39168Y-19844D01*
X39206Y-19753D01*
X39206Y-23617D01*
X38631Y-23617D01*
X35531Y-23617D01*
X35416Y-23640D01*
X35319Y-23705D01*
X35024Y-24000D01*
X34959Y-24097D01*
X34936Y-24212D01*
X34936Y-26253D01*
X34861Y-26327D01*
X34724Y-26327D01*
X34737Y-26295D01*
X34737Y-25960D01*
X34703Y-25877D01*
X34737Y-25795D01*
X34737Y-25460D01*
X34703Y-25377D01*
X34737Y-25295D01*
X34737Y-24960D01*
X34703Y-24877D01*
X34737Y-24795D01*
X34737Y-24460D01*
X34699Y-24368D01*
X34629Y-24298D01*
X34537Y-24259D01*
X34438Y-24259D01*
X34206Y-24259D01*
X34144Y-24322D01*
X34144Y-24577D01*
X34675Y-24577D01*
X34737Y-24515D01*
X34737Y-24460D01*
X34737Y-24795D01*
X34737Y-24740D01*
X34675Y-24677D01*
X34144Y-24677D01*
X34144Y-24822D01*
X34144Y-24933D01*
X34144Y-25077D01*
X34675Y-25077D01*
X34737Y-25015D01*
X34737Y-24960D01*
X34737Y-25295D01*
X34737Y-25240D01*
X34675Y-25177D01*
X34144Y-25177D01*
X34144Y-25322D01*
X34144Y-25433D01*
X34144Y-25577D01*
X34675Y-25577D01*
X34737Y-25515D01*
X34737Y-25460D01*
X34737Y-25795D01*
X34737Y-25740D01*
X34675Y-25677D01*
X34144Y-25677D01*
X34144Y-25822D01*
X34144Y-25933D01*
X34144Y-26077D01*
X34675Y-26077D01*
X34737Y-26015D01*
X34737Y-25960D01*
X34737Y-26295D01*
X34737Y-26240D01*
X34675Y-26177D01*
X34144Y-26177D01*
X34144Y-26185D01*
X34044Y-26185D01*
X34044Y-26177D01*
X34044Y-26077D01*
X34044Y-25933D01*
X34044Y-25822D01*
X34044Y-25677D01*
X34044Y-25577D01*
X34044Y-25433D01*
X34044Y-25322D01*
X34044Y-25177D01*
X34044Y-25077D01*
X34044Y-24933D01*
X34044Y-24822D01*
X34044Y-24677D01*
X34044Y-24577D01*
X34044Y-24322D01*
X33981Y-24259D01*
X33750Y-24259D01*
X33650Y-24259D01*
X33558Y-24298D01*
X33488Y-24368D01*
X33450Y-24460D01*
X33450Y-24515D01*
X33513Y-24577D01*
X34044Y-24577D01*
X34044Y-24677D01*
X33513Y-24677D01*
X33450Y-24740D01*
X33450Y-24795D01*
X33484Y-24877D01*
X33450Y-24960D01*
X33450Y-25015D01*
X33513Y-25077D01*
X34044Y-25077D01*
X34044Y-25177D01*
X33513Y-25177D01*
X33450Y-25240D01*
X33450Y-25295D01*
X33484Y-25377D01*
X33450Y-25460D01*
X33450Y-25515D01*
X33513Y-25577D01*
X34044Y-25577D01*
X34044Y-25677D01*
X33513Y-25677D01*
X33450Y-25740D01*
X33450Y-25795D01*
X33484Y-25877D01*
X33450Y-25960D01*
X33450Y-26015D01*
X33513Y-26077D01*
X34044Y-26077D01*
X34044Y-26177D01*
X33513Y-26177D01*
X33450Y-26240D01*
X33450Y-26295D01*
X33484Y-26378D01*
X33450Y-26460D01*
X33450Y-26559D01*
X33450Y-26795D01*
X33464Y-26827D01*
X33059Y-26827D01*
X32987Y-26756D01*
X32890Y-26691D01*
X32775Y-26668D01*
X32650Y-26668D01*
X32650Y-26643D01*
X32612Y-26552D01*
X32542Y-26481D01*
X32450Y-26443D01*
X32350Y-26443D01*
X32000Y-26443D01*
X31908Y-26481D01*
X31850Y-26539D01*
X31792Y-26481D01*
X31700Y-26443D01*
X31600Y-26443D01*
X31250Y-26443D01*
X31158Y-26481D01*
X31088Y-26551D01*
X31058Y-26623D01*
X31058Y-25684D01*
X31068Y-25674D01*
X31133Y-25517D01*
X31133Y-25348D01*
X31069Y-25192D01*
X30949Y-25072D01*
X30793Y-25008D01*
X30624Y-25007D01*
X30468Y-25072D01*
X30348Y-25192D01*
X30283Y-25348D01*
X30283Y-25517D01*
X30348Y-25673D01*
X30358Y-25684D01*
X30358Y-27480D01*
X30385Y-27614D01*
X30461Y-27727D01*
X30638Y-27904D01*
X30751Y-27980D01*
X30751Y-27980D01*
X30885Y-28007D01*
X31056Y-28007D01*
X31050Y-28021D01*
X31050Y-28120D01*
X31050Y-28670D01*
X31088Y-28762D01*
X31158Y-28833D01*
X31250Y-28871D01*
X31349Y-28871D01*
X31699Y-28871D01*
X31791Y-28833D01*
X31850Y-28775D01*
X31908Y-28833D01*
X32000Y-28871D01*
X32099Y-28871D01*
X32449Y-28871D01*
X32541Y-28833D01*
X32612Y-28763D01*
X32650Y-28671D01*
X32650Y-28646D01*
X32677Y-28646D01*
X32677Y-28646D01*
X32791Y-28623D01*
X32791Y-28623D01*
X32889Y-28558D01*
X33019Y-28427D01*
X33529Y-28427D01*
X33558Y-28457D01*
X33650Y-28495D01*
X33750Y-28495D01*
X34537Y-28495D01*
X34629Y-28458D01*
X34699Y-28387D01*
X34737Y-28295D01*
X34737Y-28196D01*
X34737Y-27960D01*
X34703Y-27877D01*
X34737Y-27795D01*
X34737Y-27696D01*
X34737Y-27460D01*
X34703Y-27377D01*
X34737Y-27295D01*
X34737Y-27196D01*
X34737Y-26960D01*
X34724Y-26927D01*
X34986Y-26927D01*
X34986Y-26927D01*
X35101Y-26905D01*
X35101Y-26905D01*
X35198Y-26840D01*
X35448Y-26590D01*
X35448Y-26590D01*
X35513Y-26492D01*
X35536Y-26377D01*
X35536Y-26377D01*
X35536Y-24336D01*
X35655Y-24217D01*
X46259Y-24217D01*
X46259Y-24217D01*
X46374Y-24194D01*
X46374Y-24194D01*
X46471Y-24129D01*
X47046Y-23554D01*
X47046Y-23554D01*
X47111Y-23457D01*
X47134Y-23342D01*
X47134Y-23342D01*
X47134Y-20551D01*
X48440Y-21856D01*
X48440Y-28188D01*
X48462Y-28303D01*
X48528Y-28401D01*
X49086Y-28959D01*
X49086Y-28959D01*
X49183Y-29024D01*
X49298Y-29047D01*
X51216Y-29047D01*
X51216Y-29205D01*
X51225Y-29227D01*
X51216Y-29249D01*
X51216Y-29348D01*
X51216Y-29525D01*
X51223Y-29542D01*
X51216Y-29559D01*
X51216Y-29658D01*
X51216Y-29707D01*
X47236Y-29707D01*
X47121Y-29730D01*
X47024Y-29795D01*
X46717Y-30102D01*
X46651Y-30200D01*
X46629Y-30314D01*
X46629Y-31418D01*
X46579Y-31418D01*
X46487Y-31456D01*
X46417Y-31526D01*
X46379Y-31618D01*
X46379Y-31718D01*
X46379Y-32318D01*
X46417Y-32409D01*
X46487Y-32480D01*
X46579Y-32518D01*
X46678Y-32518D01*
X47278Y-32518D01*
X47370Y-32480D01*
X47440Y-32410D01*
X47479Y-32318D01*
X47479Y-32218D01*
X47479Y-31618D01*
X47441Y-31527D01*
X47370Y-31456D01*
X47279Y-31418D01*
X47229Y-31418D01*
X47229Y-30439D01*
X47360Y-30307D01*
X48716Y-30307D01*
X48528Y-30496D01*
X48462Y-30593D01*
X48440Y-30708D01*
X48440Y-31418D01*
X48390Y-31418D01*
X48298Y-31456D01*
X48228Y-31526D01*
X48190Y-31618D01*
X48190Y-31718D01*
X48190Y-32318D01*
X48228Y-32409D01*
X48298Y-32480D01*
X48390Y-32518D01*
X48489Y-32518D01*
X49089Y-32518D01*
X49181Y-32480D01*
X49251Y-32410D01*
X49290Y-32318D01*
X49290Y-32218D01*
X49290Y-31618D01*
X49252Y-31527D01*
X49181Y-31456D01*
X49090Y-31418D01*
X49040Y-31418D01*
X49040Y-30832D01*
X49245Y-30627D01*
X49814Y-30627D01*
X49709Y-30732D01*
X49644Y-30830D01*
X49621Y-30944D01*
X49621Y-31418D01*
X49571Y-31418D01*
X49479Y-31456D01*
X49409Y-31526D01*
X49371Y-31618D01*
X49371Y-31718D01*
X49371Y-32318D01*
X49409Y-32409D01*
X49479Y-32480D01*
X49571Y-32518D01*
X49670Y-32518D01*
X50270Y-32518D01*
X50362Y-32480D01*
X50433Y-32410D01*
X50471Y-32318D01*
X50471Y-32218D01*
X50471Y-31618D01*
X50433Y-31527D01*
X50363Y-31456D01*
X50271Y-31418D01*
X50221Y-31418D01*
X50221Y-31069D01*
X50352Y-30937D01*
X51324Y-30937D01*
X51324Y-30937D01*
X51416Y-30976D01*
X51516Y-30976D01*
X52303Y-30976D01*
X52311Y-30972D01*
X52308Y-30980D01*
X52308Y-31079D01*
X52308Y-31866D01*
X52346Y-31958D01*
X52347Y-31959D01*
X52347Y-34236D01*
X52139Y-34444D01*
X52026Y-34444D01*
X52026Y-34104D01*
X51988Y-34012D01*
X51917Y-33941D01*
X51826Y-33903D01*
X51726Y-33903D01*
X50742Y-33903D01*
X50650Y-33941D01*
X50580Y-34011D01*
X50541Y-34103D01*
X50541Y-34203D01*
X50541Y-34444D01*
X50295Y-34444D01*
X50180Y-34466D01*
X50083Y-34531D01*
X49886Y-34728D01*
X49858Y-34770D01*
X49773Y-34770D01*
X49681Y-34808D01*
X49611Y-34879D01*
X49573Y-34970D01*
X49573Y-35070D01*
X49573Y-35420D01*
X49611Y-35512D01*
X49669Y-35570D01*
X49611Y-35629D01*
X49573Y-35721D01*
X49573Y-35833D01*
X49635Y-35895D01*
X50048Y-35895D01*
X50048Y-35887D01*
X50148Y-35887D01*
X50148Y-35895D01*
X50560Y-35895D01*
X50623Y-35833D01*
X50623Y-35721D01*
X50585Y-35629D01*
X50526Y-35570D01*
X50585Y-35512D01*
X50594Y-35490D01*
X50650Y-35546D01*
X50741Y-35584D01*
X50841Y-35584D01*
X51825Y-35584D01*
X51917Y-35546D01*
X51987Y-35476D01*
X52026Y-35384D01*
X52026Y-35285D01*
X52026Y-35044D01*
X52263Y-35044D01*
X52263Y-35044D01*
X52378Y-35021D01*
X52378Y-35021D01*
X52475Y-34956D01*
X52755Y-34676D01*
X53035Y-34956D01*
X53035Y-34956D01*
X53091Y-34993D01*
X53091Y-35384D01*
X53129Y-35476D01*
X53200Y-35546D01*
X53291Y-35584D01*
X53391Y-35584D01*
X54375Y-35584D01*
X54467Y-35546D01*
X54537Y-35476D01*
X54576Y-35384D01*
X54576Y-35285D01*
X54576Y-35044D01*
X54593Y-35044D01*
X54593Y-35090D01*
X54593Y-35440D01*
X54631Y-35531D01*
X54689Y-35590D01*
X54631Y-35649D01*
X54593Y-35741D01*
X54593Y-35853D01*
X54655Y-35915D01*
X55068Y-35915D01*
X55068Y-35907D01*
X55168Y-35907D01*
X55168Y-35915D01*
X55580Y-35915D01*
X55643Y-35853D01*
X55643Y-35741D01*
X55605Y-35649D01*
X55546Y-35590D01*
X55604Y-35532D01*
X55643Y-35440D01*
X55643Y-35341D01*
X55643Y-34991D01*
X55605Y-34899D01*
X55534Y-34828D01*
X55443Y-34790D01*
X55371Y-34790D01*
X55330Y-34728D01*
X55330Y-34728D01*
X55133Y-34531D01*
X55036Y-34466D01*
X54921Y-34444D01*
X54796Y-34444D01*
X54796Y-33197D01*
X54796Y-33084D01*
X54733Y-33022D01*
X54421Y-33022D01*
X54421Y-33434D01*
X54483Y-33497D01*
X54595Y-33497D01*
X54687Y-33459D01*
X54757Y-33389D01*
X54796Y-33297D01*
X54796Y-33197D01*
X54796Y-34444D01*
X54576Y-34444D01*
X54576Y-34104D01*
X54538Y-34012D01*
X54467Y-33941D01*
X54376Y-33903D01*
X54276Y-33903D01*
X53292Y-33903D01*
X53262Y-33916D01*
X53262Y-33417D01*
X53304Y-33459D01*
X53396Y-33497D01*
X53495Y-33497D01*
X53845Y-33497D01*
X53937Y-33459D01*
X53996Y-33401D01*
X54054Y-33459D01*
X54146Y-33497D01*
X54258Y-33497D01*
X54321Y-33434D01*
X54321Y-33022D01*
X54313Y-33022D01*
X54313Y-32922D01*
X54321Y-32922D01*
X54321Y-32509D01*
X54258Y-32447D01*
X54146Y-32447D01*
X54054Y-32485D01*
X53996Y-32543D01*
X53937Y-32485D01*
X53846Y-32447D01*
X53746Y-32447D01*
X53627Y-32447D01*
X53627Y-32067D01*
X53642Y-32067D01*
X53642Y-32010D01*
X53698Y-32067D01*
X53730Y-32067D01*
X53749Y-32059D01*
X53768Y-32067D01*
X53868Y-32067D01*
X54045Y-32067D01*
X54064Y-32059D01*
X54083Y-32067D01*
X54115Y-32067D01*
X54177Y-32004D01*
X54177Y-31988D01*
X54207Y-31958D01*
X54222Y-31923D01*
X54236Y-31958D01*
X54237Y-31959D01*
X54237Y-32017D01*
X54259Y-32132D01*
X54325Y-32229D01*
X54542Y-32447D01*
X54483Y-32447D01*
X54421Y-32509D01*
X54421Y-32922D01*
X54733Y-32922D01*
X54796Y-32859D01*
X54796Y-32746D01*
X54796Y-32700D01*
X54827Y-32731D01*
X54924Y-32796D01*
X55039Y-32819D01*
X57401Y-32819D01*
X57401Y-32819D01*
X57516Y-32796D01*
X57516Y-32796D01*
X57613Y-32731D01*
X57771Y-32574D01*
X57771Y-32574D01*
X57808Y-32518D01*
X57908Y-32518D01*
X58000Y-32480D01*
X58070Y-32410D01*
X58109Y-32318D01*
X58109Y-32218D01*
X58109Y-31723D01*
X58190Y-31723D01*
X58190Y-32318D01*
X58228Y-32409D01*
X58298Y-32480D01*
X58390Y-32518D01*
X58489Y-32518D01*
X59089Y-32518D01*
X59181Y-32480D01*
X59251Y-32410D01*
X59290Y-32318D01*
X59290Y-32218D01*
X59290Y-31618D01*
X59252Y-31527D01*
X59181Y-31456D01*
X59090Y-31418D01*
X58990Y-31418D01*
X58929Y-31418D01*
X58722Y-31211D01*
X58624Y-31146D01*
X58510Y-31123D01*
X55190Y-31123D01*
X55190Y-30980D01*
X55188Y-30974D01*
X55196Y-30978D01*
X55296Y-30978D01*
X56083Y-30978D01*
X56175Y-30940D01*
X56175Y-30939D01*
X59157Y-30939D01*
X59444Y-31226D01*
X59444Y-35899D01*
X58734Y-36609D01*
X55643Y-36609D01*
X55643Y-36190D01*
X55643Y-36078D01*
X55580Y-36015D01*
X55168Y-36015D01*
X55168Y-36328D01*
X55230Y-36390D01*
X55343Y-36390D01*
X55443Y-36390D01*
X55534Y-36352D01*
X55605Y-36281D01*
X55643Y-36190D01*
X55643Y-36609D01*
X55068Y-36609D01*
X55068Y-36328D01*
X55068Y-36015D01*
X54655Y-36015D01*
X54593Y-36078D01*
X54593Y-36190D01*
X54631Y-36281D01*
X54701Y-36352D01*
X54793Y-36390D01*
X54892Y-36390D01*
X55005Y-36390D01*
X55068Y-36328D01*
X55068Y-36609D01*
X50623Y-36609D01*
X50623Y-36170D01*
X50623Y-36058D01*
X50560Y-35995D01*
X50148Y-35995D01*
X50148Y-36308D01*
X50210Y-36370D01*
X50323Y-36370D01*
X50423Y-36370D01*
X50515Y-36332D01*
X50585Y-36262D01*
X50623Y-36170D01*
X50623Y-36609D01*
X50048Y-36609D01*
X50048Y-36308D01*
X50048Y-35995D01*
X49635Y-35995D01*
X49573Y-36058D01*
X49573Y-36170D01*
X49611Y-36262D01*
X49681Y-36332D01*
X49773Y-36370D01*
X49872Y-36370D01*
X49985Y-36370D01*
X50048Y-36308D01*
X50048Y-36609D01*
X41999Y-36609D01*
X41999Y-26687D01*
X41935Y-26531D01*
X41815Y-26411D01*
X41659Y-26346D01*
X41490Y-26346D01*
X41334Y-26411D01*
X41241Y-26504D01*
X41291Y-26384D01*
X41291Y-26215D01*
X41226Y-26058D01*
X41107Y-25939D01*
X40951Y-25874D01*
X40781Y-25874D01*
X40625Y-25938D01*
X40506Y-26058D01*
X40441Y-26214D01*
X40441Y-26383D01*
X40505Y-26539D01*
X40566Y-26600D01*
X40566Y-27119D01*
X40484Y-27200D01*
X40178Y-27200D01*
X40172Y-27184D01*
X40113Y-27125D01*
X40171Y-27067D01*
X40209Y-26975D01*
X40210Y-26876D01*
X40210Y-26526D01*
X40172Y-26434D01*
X40101Y-26364D01*
X40035Y-26336D01*
X40035Y-25605D01*
X40045Y-25595D01*
X40109Y-25439D01*
X40110Y-25270D01*
X40045Y-25113D01*
X39926Y-24994D01*
X39769Y-24929D01*
X39600Y-24929D01*
X39444Y-24993D01*
X39324Y-25113D01*
X39260Y-25269D01*
X39259Y-25438D01*
X39324Y-25594D01*
X39335Y-25605D01*
X39335Y-26336D01*
X39268Y-26363D01*
X39198Y-26434D01*
X39160Y-26526D01*
X39159Y-26625D01*
X39159Y-26975D01*
X39197Y-27067D01*
X39256Y-27126D01*
X39198Y-27184D01*
X39191Y-27200D01*
X38719Y-27200D01*
X38604Y-27223D01*
X38507Y-27288D01*
X38468Y-27327D01*
X38386Y-27327D01*
X38399Y-27295D01*
X38399Y-27196D01*
X38399Y-26960D01*
X38365Y-26877D01*
X38399Y-26795D01*
X38399Y-26460D01*
X38365Y-26377D01*
X38399Y-26295D01*
X38399Y-25960D01*
X38365Y-25877D01*
X38399Y-25795D01*
X38399Y-25460D01*
X38365Y-25377D01*
X38399Y-25295D01*
X38399Y-24960D01*
X38365Y-24877D01*
X38399Y-24795D01*
X38399Y-24460D01*
X38361Y-24368D01*
X38291Y-24298D01*
X38199Y-24259D01*
X38100Y-24259D01*
X37868Y-24259D01*
X37806Y-24322D01*
X37806Y-24577D01*
X38337Y-24577D01*
X38399Y-24515D01*
X38399Y-24460D01*
X38399Y-24795D01*
X38399Y-24740D01*
X38337Y-24677D01*
X37806Y-24677D01*
X37806Y-24822D01*
X37806Y-24933D01*
X37806Y-25077D01*
X38337Y-25077D01*
X38399Y-25015D01*
X38399Y-24960D01*
X38399Y-25295D01*
X38399Y-25240D01*
X38337Y-25177D01*
X37806Y-25177D01*
X37806Y-25322D01*
X37806Y-25433D01*
X37806Y-25577D01*
X38337Y-25577D01*
X38399Y-25515D01*
X38399Y-25460D01*
X38399Y-25795D01*
X38399Y-25740D01*
X38337Y-25677D01*
X37806Y-25677D01*
X37806Y-25822D01*
X37806Y-25933D01*
X37806Y-26077D01*
X38337Y-26077D01*
X38399Y-26015D01*
X38399Y-25960D01*
X38399Y-26295D01*
X38399Y-26240D01*
X38337Y-26177D01*
X37806Y-26177D01*
X37806Y-26322D01*
X37806Y-26433D01*
X37806Y-26577D01*
X38337Y-26577D01*
X38399Y-26515D01*
X38399Y-26460D01*
X38399Y-26795D01*
X38399Y-26740D01*
X38337Y-26677D01*
X37806Y-26677D01*
X37806Y-26685D01*
X37706Y-26685D01*
X37706Y-26677D01*
X37706Y-26577D01*
X37706Y-26433D01*
X37706Y-26322D01*
X37706Y-26177D01*
X37706Y-26077D01*
X37706Y-25933D01*
X37706Y-25822D01*
X37706Y-25677D01*
X37706Y-25577D01*
X37706Y-25433D01*
X37706Y-25322D01*
X37706Y-25177D01*
X37706Y-25077D01*
X37706Y-24933D01*
X37706Y-24822D01*
X37706Y-24677D01*
X37706Y-24577D01*
X37706Y-24322D01*
X37643Y-24259D01*
X37412Y-24259D01*
X37312Y-24259D01*
X37220Y-24298D01*
X37150Y-24368D01*
X37112Y-24460D01*
X37112Y-24515D01*
X37175Y-24577D01*
X37706Y-24577D01*
X37706Y-24677D01*
X37175Y-24677D01*
X37112Y-24740D01*
X37112Y-24795D01*
X37146Y-24877D01*
X37112Y-24960D01*
X37112Y-25015D01*
X37175Y-25077D01*
X37706Y-25077D01*
X37706Y-25177D01*
X37175Y-25177D01*
X37112Y-25240D01*
X37112Y-25295D01*
X37146Y-25377D01*
X37112Y-25460D01*
X37112Y-25515D01*
X37175Y-25577D01*
X37706Y-25577D01*
X37706Y-25677D01*
X37175Y-25677D01*
X37112Y-25740D01*
X37112Y-25795D01*
X37146Y-25877D01*
X37112Y-25960D01*
X37112Y-26015D01*
X37175Y-26077D01*
X37706Y-26077D01*
X37706Y-26177D01*
X37175Y-26177D01*
X37112Y-26240D01*
X37112Y-26295D01*
X37146Y-26377D01*
X37112Y-26460D01*
X37112Y-26515D01*
X37175Y-26577D01*
X37706Y-26577D01*
X37706Y-26677D01*
X37175Y-26677D01*
X37112Y-26740D01*
X37112Y-26795D01*
X37126Y-26827D01*
X36454Y-26827D01*
X36339Y-26850D01*
X36242Y-26915D01*
X35909Y-27248D01*
X35844Y-27345D01*
X35822Y-27460D01*
X35822Y-28911D01*
X35604Y-29129D01*
X29454Y-29129D01*
X29197Y-28871D01*
X29197Y-23134D01*
X36318Y-23134D01*
X36318Y-23134D01*
X36433Y-23111D01*
X36433Y-23111D01*
X36531Y-23046D01*
X37456Y-22121D01*
X37456Y-22121D01*
X37521Y-22024D01*
X37544Y-21909D01*
X37544Y-21909D01*
X37544Y-20093D01*
X37830Y-19974D01*
X38123Y-19682D01*
X38166Y-19578D01*
X38218Y-19578D01*
X38156Y-19641D01*
X38156Y-19753D01*
X38194Y-19844D01*
X38264Y-19915D01*
X38356Y-19953D01*
X38455Y-19953D01*
X38568Y-19953D01*
X38631Y-19891D01*
X38631Y-19578D01*
X38623Y-19578D01*
X38623Y-19478D01*
X38631Y-19478D01*
X38631Y-19470D01*
X38731Y-19470D01*
X38731Y-19478D01*
X39143Y-19478D01*
X39206Y-19416D01*
X39206Y-19304D01*
X39168Y-19212D01*
X39109Y-19153D01*
X39167Y-19095D01*
X39206Y-19003D01*
X39206Y-18904D01*
X39206Y-18554D01*
X39168Y-18462D01*
X39097Y-18391D01*
X39006Y-18353D01*
X38906Y-18353D01*
X38356Y-18353D01*
X38264Y-18391D01*
X38194Y-18461D01*
X38187Y-18478D01*
X38111Y-18478D01*
X38097Y-18481D01*
X37832Y-18215D01*
X37451Y-18057D01*
X37038Y-18056D01*
X36657Y-18214D01*
X36365Y-18506D01*
X36206Y-18887D01*
X36206Y-19299D01*
X36364Y-19681D01*
X36655Y-19973D01*
X36944Y-20093D01*
X36944Y-21785D01*
X36194Y-22534D01*
X35098Y-22534D01*
X35098Y-18722D01*
X34801Y-17975D01*
X34767Y-17923D01*
X34519Y-17716D01*
X33141Y-19094D01*
X34519Y-20472D01*
X34767Y-20265D01*
X35086Y-19526D01*
X35098Y-18722D01*
X35098Y-22534D01*
X34448Y-22534D01*
X34448Y-20542D01*
X33070Y-19165D01*
X33000Y-19235D01*
X33000Y-19094D01*
X31622Y-17716D01*
X31374Y-17923D01*
X31055Y-18662D01*
X31043Y-19466D01*
X31339Y-20213D01*
X31374Y-20265D01*
X31622Y-20472D01*
X33000Y-19094D01*
X33000Y-19235D01*
X31693Y-20542D01*
X31900Y-20790D01*
X32638Y-21109D01*
X33442Y-21121D01*
X34190Y-20825D01*
X34241Y-20790D01*
X34448Y-20542D01*
X34448Y-22534D01*
X29197Y-22534D01*
X29197Y-20093D01*
X29484Y-19974D01*
X29776Y-19682D01*
X29934Y-19301D01*
X29935Y-18889D01*
X29777Y-18507D01*
X29486Y-18215D01*
X29104Y-18057D01*
X28692Y-18056D01*
X28310Y-18214D01*
X28018Y-18506D01*
X27860Y-18887D01*
X27860Y-19299D01*
X28017Y-19681D01*
X28309Y-19973D01*
X28597Y-20093D01*
X28597Y-22834D01*
X28597Y-28996D01*
X28620Y-29110D01*
X28685Y-29208D01*
X29118Y-29641D01*
X29118Y-29641D01*
X29215Y-29706D01*
X29330Y-29729D01*
X29330Y-29729D01*
X35728Y-29729D01*
X35728Y-29729D01*
X35843Y-29706D01*
X35843Y-29706D01*
X35940Y-29641D01*
X36334Y-29247D01*
X36334Y-29247D01*
X36399Y-29150D01*
X36422Y-29035D01*
X36422Y-29035D01*
X36422Y-27584D01*
X36578Y-27427D01*
X37126Y-27427D01*
X37112Y-27460D01*
X37112Y-27559D01*
X37112Y-27795D01*
X37146Y-27878D01*
X37112Y-27960D01*
X37112Y-28059D01*
X37112Y-28295D01*
X37150Y-28387D01*
X37220Y-28457D01*
X37312Y-28495D01*
X37412Y-28495D01*
X38199Y-28495D01*
X38291Y-28458D01*
X38321Y-28427D01*
X38397Y-28427D01*
X38428Y-28459D01*
X38428Y-28459D01*
X38525Y-28524D01*
X38640Y-28547D01*
X39191Y-28547D01*
X39197Y-28563D01*
X39256Y-28622D01*
X39198Y-28680D01*
X39160Y-28772D01*
X39159Y-28871D01*
X39159Y-29221D01*
X39197Y-29313D01*
X39268Y-29383D01*
X39335Y-29411D01*
X39335Y-30457D01*
X39324Y-30467D01*
X39260Y-30623D01*
X39259Y-30792D01*
X39324Y-30949D01*
X39443Y-31068D01*
X39600Y-31133D01*
X39769Y-31133D01*
X39925Y-31069D01*
X40045Y-30949D01*
X40109Y-30793D01*
X40110Y-30624D01*
X40045Y-30468D01*
X40035Y-30457D01*
X40035Y-29411D01*
X40101Y-29384D01*
X40171Y-29313D01*
X40209Y-29221D01*
X40210Y-29122D01*
X40210Y-28772D01*
X40172Y-28680D01*
X40113Y-28622D01*
X40171Y-28563D01*
X40178Y-28547D01*
X41280Y-28547D01*
X41280Y-28547D01*
X41395Y-28524D01*
X41395Y-28524D01*
X41492Y-28459D01*
X41786Y-28164D01*
X41786Y-28164D01*
X41851Y-28067D01*
X41874Y-27952D01*
X41874Y-27952D01*
X41874Y-27072D01*
X41934Y-27012D01*
X41999Y-26856D01*
X41999Y-26687D01*
X41999Y-36609D01*
X27092Y-36609D01*
X26579Y-36096D01*
X26579Y-21659D01*
X26639Y-21599D01*
X26704Y-21443D01*
X26704Y-21274D01*
X26640Y-21117D01*
X26520Y-20998D01*
X26364Y-20933D01*
X26195Y-20933D01*
X26039Y-20997D01*
X25919Y-21117D01*
X25854Y-21273D01*
X25854Y-21442D01*
X25919Y-21598D01*
X25979Y-21659D01*
X25979Y-36220D01*
X26002Y-36335D01*
X26067Y-36432D01*
X26756Y-37121D01*
X26756Y-37121D01*
X26853Y-37186D01*
X26968Y-37209D01*
X26968Y-37209D01*
X58858Y-37209D01*
X58858Y-37209D01*
X58973Y-37186D01*
X58973Y-37186D01*
X59070Y-37121D01*
X59956Y-36235D01*
X59956Y-36235D01*
X60021Y-36138D01*
X60044Y-36023D01*
X60044Y-36023D01*
X60044Y-31102D01*
X60021Y-30987D01*
X59956Y-30890D01*
X59956Y-30890D01*
X59691Y-30625D01*
X86800Y-30625D01*
X86800Y-30625D01*
X86915Y-30602D01*
X86915Y-30602D01*
X87012Y-30537D01*
X87932Y-29617D01*
X87932Y-29617D01*
X87997Y-29520D01*
X88020Y-29405D01*
X88020Y-29405D01*
X88020Y-18089D01*
X88031Y-18084D01*
X88186Y-17930D01*
X88220Y-17848D01*
X88253Y-17929D01*
X88408Y-18084D01*
X88610Y-18168D01*
X88829Y-18168D01*
X89031Y-18084D01*
X89186Y-17930D01*
X89270Y-17727D01*
X89270Y-17509D01*
X89187Y-17306D01*
X89032Y-17152D01*
X88830Y-17068D01*
X88611Y-17068D01*
X88409Y-17151D01*
X88254Y-17306D01*
X88220Y-17387D01*
X88187Y-17306D01*
X88032Y-17152D01*
X87830Y-17068D01*
X87611Y-17068D01*
X87409Y-17151D01*
X87254Y-17306D01*
X87220Y-17387D01*
X87187Y-17306D01*
X87032Y-17152D01*
X86830Y-17068D01*
X86611Y-17068D01*
X86409Y-17151D01*
X86254Y-17306D01*
X86220Y-17387D01*
X86187Y-17306D01*
X86032Y-17152D01*
X85830Y-17068D01*
X85611Y-17068D01*
X85409Y-17151D01*
X85270Y-17290D01*
X85270Y-17268D01*
X85232Y-17176D01*
X85161Y-17106D01*
X85069Y-17068D01*
X84832Y-17068D01*
X84770Y-17130D01*
X84770Y-17568D01*
X84778Y-17568D01*
X84778Y-17668D01*
X84770Y-17668D01*
X84770Y-18105D01*
X84832Y-18168D01*
X85069Y-18168D01*
X85161Y-18130D01*
X85232Y-18059D01*
X85270Y-17968D01*
X85270Y-17945D01*
X85408Y-18084D01*
X85610Y-18168D01*
X85829Y-18168D01*
X86031Y-18084D01*
X86186Y-17930D01*
X86220Y-17848D01*
X86253Y-17929D01*
X86408Y-18084D01*
X86420Y-18089D01*
X86420Y-29395D01*
X86106Y-29709D01*
X84670Y-29709D01*
X84670Y-18105D01*
X84670Y-17668D01*
X84670Y-17568D01*
X84670Y-17130D01*
X84607Y-17068D01*
X84370Y-17068D01*
X84279Y-17106D01*
X84220Y-17164D01*
X84161Y-17106D01*
X84069Y-17068D01*
X83832Y-17068D01*
X83770Y-17130D01*
X83770Y-17568D01*
X84207Y-17568D01*
X84220Y-17555D01*
X84232Y-17568D01*
X84670Y-17568D01*
X84670Y-17668D01*
X84232Y-17668D01*
X84220Y-17680D01*
X84207Y-17668D01*
X83770Y-17668D01*
X83770Y-18105D01*
X83832Y-18168D01*
X84069Y-18168D01*
X84161Y-18130D01*
X84220Y-18071D01*
X84279Y-18130D01*
X84370Y-18168D01*
X84607Y-18168D01*
X84670Y-18105D01*
X84670Y-29709D01*
X83670Y-29709D01*
X83670Y-18105D01*
X83670Y-17668D01*
X83670Y-17568D01*
X83670Y-17130D01*
X83607Y-17068D01*
X83370Y-17068D01*
X83279Y-17106D01*
X83208Y-17176D01*
X83170Y-17268D01*
X83170Y-17367D01*
X83170Y-17505D01*
X83232Y-17568D01*
X83670Y-17568D01*
X83670Y-17668D01*
X83232Y-17668D01*
X83170Y-17730D01*
X83170Y-17868D01*
X83170Y-17968D01*
X83208Y-18059D01*
X83279Y-18130D01*
X83370Y-18168D01*
X83607Y-18168D01*
X83670Y-18105D01*
X83670Y-29709D01*
X77920Y-29709D01*
X77920Y-17868D01*
X77920Y-17268D01*
X77882Y-17176D01*
X77811Y-17106D01*
X77720Y-17068D01*
X77620Y-17068D01*
X77020Y-17068D01*
X76928Y-17106D01*
X76858Y-17176D01*
X76820Y-17268D01*
X76820Y-17290D01*
X76682Y-17152D01*
X76479Y-17068D01*
X76261Y-17068D01*
X76058Y-17151D01*
X75904Y-17306D01*
X75820Y-17508D01*
X75819Y-17727D01*
X75903Y-17929D01*
X76058Y-18084D01*
X76260Y-18168D01*
X76479Y-18168D01*
X76681Y-18084D01*
X76820Y-17946D01*
X76820Y-17967D01*
X76858Y-18059D01*
X76928Y-18129D01*
X77020Y-18168D01*
X77119Y-18168D01*
X77719Y-18168D01*
X77811Y-18130D01*
X77881Y-18059D01*
X77920Y-17968D01*
X77920Y-17868D01*
X77920Y-29709D01*
X64336Y-29709D01*
X64621Y-29424D01*
X64686Y-29327D01*
X64709Y-29212D01*
X64709Y-29212D01*
X64709Y-16933D01*
X89048Y-16933D01*
X89535Y-17420D01*
X89535Y-17420D01*
X89633Y-17485D01*
X89748Y-17508D01*
X89748Y-17508D01*
X93107Y-17508D01*
X93112Y-17519D01*
X93266Y-17674D01*
X93468Y-17758D01*
X93687Y-17758D01*
X93889Y-17675D01*
X94044Y-17520D01*
X94128Y-17318D01*
X94128Y-17099D01*
X94045Y-16897D01*
X93890Y-16742D01*
X93688Y-16658D01*
X93469Y-16658D01*
X93267Y-16742D01*
X93112Y-16896D01*
X93107Y-16908D01*
X89872Y-16908D01*
X89385Y-16421D01*
X89369Y-16411D01*
X103667Y-16411D01*
X103667Y-105635D01*
M02*
