M48
;DRILL file {kicad (2014-09-25 BZR 5147)-product} date Tuesday 14 October 2014 06:08:07 PM IST
;FORMAT={-:-/ absolute / inch / decimal}
FMAT,2
INCH,TZ
T1C0.025
T2C0.039
T3C0.040
T4C0.079
T5C0.094
T6C0.128
%
G90
G05
M72
T1
X2.3583Y-2.1614
X2.9134Y-10.1575
X3.0118Y-9.7087
X3.2913Y-2.7795
X3.311Y-3.1299
X3.5079Y-10.1575
X3.5591Y-2.7795
X3.6024Y-9.7087
X3.8583Y-3.1299
X4.0866Y-2.6299
X4.0984Y-10.1575
X4.1929Y-9.7087
X4.1969Y-2.6772
X4.685Y-10.1575
X4.7835Y-9.7087
X4.9921Y-3.7992
X4.9921Y-3.9488
X5.0098Y-2.5
X5.1299Y-2.1496
X5.2598Y-10.1575
X5.374Y-9.7087
X5.4173Y-2.0945
X5.437Y-3.4094
X5.5394Y-3.1811
X5.5748Y-3.2362
X5.5906Y-2.1496
X5.7441Y-3.1811
X5.7835Y-3.2362
X5.7835Y-10.1575
X6.2205Y-2.1496
X6.2283Y-2.6299
X6.2835Y-2.6772
X6.4094Y-2.1496
X6.6732Y-2.7795
X6.9783Y-2.5
X7.4803Y-2.1496
X9.2126Y-2.5
X9.5276Y-2.1496
X9.5709Y-2.7795
X10.2953Y-9.7835
T3
X4.6835Y-1.761
X4.6835Y-1.861
X4.7146Y-2.5689
X4.7835Y-1.761
X4.7835Y-1.861
X4.7953Y-3.1969
X4.8835Y-1.761
X4.8835Y-1.861
X4.8937Y-3.1969
X4.9921Y-3.1969
X5.2067Y-2.5689
X5.5413Y-2.5689
X5.8555Y-1.7717
X5.8646Y-10.4055
X5.9555Y-1.7717
X5.9646Y-10.4055
X6.0646Y-10.4055
X6.5035Y-1.7717
X6.6035Y-1.7717
X6.7035Y-1.7717
X6.8035Y-1.7717
X6.976Y-1.9685
X7.076Y-1.9685
X7.176Y-1.9685
X7.276Y-1.9685
X7.6272Y-1.7717
X7.7272Y-1.7717
X8.4114Y-1.7717
X8.5114Y-1.7717
X8.6114Y-1.7717
X8.7114Y-1.7717
X8.8114Y-1.7717
X8.9114Y-1.7717
T4
X7.7362Y-10.2835
X7.7362Y-10.5197
X8.3268Y-10.2835
X8.3268Y-10.5197
T5
X6.4882Y-10.4055
T6
X2.3228Y-1.811
X2.3228Y-10.3937
X10.1969Y-1.811
X10.1969Y-10.3937
T2
X6.4154Y-10.2598G85X6.4744Y-10.2598
G05
X6.4154Y-10.5512G85X6.4744Y-10.5512
G05
X6.6496Y-10.3819G85X6.6496Y-10.4291
G05
X6.7126Y-10.2756G85X6.7598Y-10.2756
G05
X6.7126Y-10.5354G85X6.7598Y-10.5354
G05
T0
M30
