G04 (created by PCBNEW (2013-07-07 BZR 4022)-stable) date 8/10/2014 10:25:09 PM*
%MOIN*%
G04 Gerber Fmt 3.4, Leading zero omitted, Abs format*
%FSLAX34Y34*%
G01*
G70*
G90*
G04 APERTURE LIST*
%ADD10C,0.00590551*%
%ADD11R,0.055X0.055*%
%ADD12C,0.055*%
%ADD13C,0.15748*%
%ADD14R,0.19685X0.19685*%
%ADD15R,0.055X0.035*%
%ADD16R,0.035X0.055*%
%ADD17C,0.19685*%
%ADD18R,0.0177X0.0787*%
%ADD19R,0.0787X0.0177*%
%ADD20R,0.0787X0.0236*%
%ADD21R,0.0984252X0.11811*%
%ADD22R,0.06X0.06*%
%ADD23C,0.06*%
%ADD24C,0.16*%
%ADD25C,0.189*%
%ADD26R,0.189X0.189*%
G04 APERTURE END LIST*
G54D10*
G54D11*
X58850Y-17618D03*
G54D12*
X59850Y-17618D03*
G54D13*
X28897Y-19094D03*
G54D14*
X33070Y-19094D03*
G54D13*
X28897Y-19094D03*
X37244Y-19094D03*
G54D15*
X42421Y-26792D03*
X42421Y-26042D03*
X41338Y-26792D03*
X41338Y-26042D03*
G54D16*
X31475Y-28346D03*
X32225Y-28346D03*
X31475Y-26968D03*
X32225Y-26968D03*
G54D17*
X23228Y-103937D03*
X23228Y-18110D03*
X101968Y-18110D03*
G54D18*
X52647Y-31423D03*
X52962Y-31423D03*
X53277Y-31423D03*
X53592Y-31423D03*
X53907Y-31423D03*
X54222Y-31423D03*
X54537Y-31423D03*
X54852Y-31423D03*
X54850Y-27657D03*
X52640Y-27657D03*
X52960Y-27657D03*
X53280Y-27657D03*
X53590Y-27657D03*
X53910Y-27657D03*
X54220Y-27657D03*
X54540Y-27657D03*
G54D19*
X55640Y-30639D03*
X55640Y-30325D03*
X55640Y-30009D03*
X55640Y-29695D03*
X55640Y-29379D03*
X55640Y-29065D03*
X55640Y-28749D03*
X55640Y-28435D03*
X51860Y-30637D03*
X51860Y-30327D03*
X51860Y-30007D03*
X51860Y-29697D03*
X51860Y-29387D03*
X51860Y-29067D03*
X51860Y-28747D03*
X51860Y-28427D03*
G54D15*
X38681Y-18778D03*
X38681Y-19528D03*
G54D20*
X34094Y-28127D03*
X34094Y-27627D03*
X34094Y-27127D03*
X34094Y-26627D03*
X34094Y-26127D03*
X34094Y-25627D03*
X34094Y-25127D03*
X34094Y-24627D03*
X37756Y-24627D03*
X37756Y-25127D03*
X37756Y-25627D03*
X37756Y-26127D03*
X37756Y-26627D03*
X37756Y-27127D03*
X37756Y-27627D03*
X37756Y-28127D03*
G54D21*
X51284Y-34744D03*
X53834Y-34744D03*
G54D12*
X93578Y-19208D03*
X93578Y-17208D03*
X96578Y-19208D03*
X96578Y-17208D03*
G54D15*
X50000Y-19508D03*
X50000Y-18758D03*
X55118Y-35215D03*
X55118Y-35965D03*
X50098Y-35945D03*
X50098Y-35195D03*
G54D16*
X54014Y-32775D03*
X54764Y-32775D03*
X53227Y-26476D03*
X53977Y-26476D03*
G54D22*
X83720Y-17618D03*
X84720Y-17618D03*
G54D23*
X85720Y-17618D03*
X86720Y-17618D03*
X87720Y-17618D03*
X88720Y-17618D03*
G54D24*
X101968Y-103937D03*
G54D11*
X76370Y-17618D03*
G54D12*
X77370Y-17618D03*
G54D22*
X46834Y-18692D03*
G54D23*
X46834Y-19692D03*
X47834Y-18692D03*
X47834Y-19692D03*
X48834Y-18692D03*
X48834Y-19692D03*
G54D25*
X59153Y-104625D03*
G54D26*
X56753Y-104625D03*
G54D25*
X58253Y-102625D03*
G54D22*
X58759Y-33562D03*
X57578Y-33562D03*
X49901Y-33562D03*
X48720Y-33562D03*
X46948Y-33562D03*
M02*
