M48
;DRILL file {Pcbnew (2013-07-07 BZR 4022)-stable} date 9/10/2014 3:29:04 PM
;FORMAT={-:-/ absolute / metric / decimal}
FMAT,2
METRIC,TZ
T1C0.635
T2C1.016
T3C2.000
T4C3.250
%
G90
G05
M71
T1
X66.75Y-54.25
X78.Y-64.6
X100.8Y-64.4
X100.8Y-78.
X103.8Y-66.8
X105.6Y-68.
X127.6Y-62.4
X139.6Y-53.2
X147.8Y-51.2
X150.8Y-51.6
X153.8Y-51.2
X158.2Y-66.8
X159.6Y-68.
T2
X118.96Y-47.48
X118.96Y-50.02
X119.2Y-81.2
X121.5Y-47.48
X121.5Y-50.02
X123.8Y-81.2
X124.04Y-47.48
X124.04Y-50.02
X126.8Y-81.2
X146.2Y-81.2
X149.2Y-81.2
X149.48Y-44.75
X152.02Y-44.75
X193.98Y-44.75
X196.52Y-44.75
X212.65Y-44.75
X215.19Y-44.75
X217.73Y-44.75
X220.27Y-44.75
X222.81Y-44.75
X225.35Y-44.75
X237.69Y-43.71
X237.69Y-48.79
X245.31Y-43.71
X245.31Y-48.79
T3
X73.4Y-48.5
X73.4Y-48.5
X94.6Y-48.5
T4
X59.Y-46.
X59.Y-264.
X259.Y-46.
X259.Y-264.
T2
X155.154Y-266.512G85X155.154Y-264.988
G05
X159.726Y-260.67G85X158.202Y-260.67
G05
X161.25Y-266.512G85X161.25Y-264.988
G05
T0
M30
