%FSLAX46Y46*%
G04 Gerber Fmt 4.6, Leading zero omitted, Abs format (unit mm)*
G04 Created by KiCad (PCBNEW (2014-09-25 BZR 5147)-product) date Friday 10 October 2014 04:41:16 PM IST*
%MOMM*%
G01*
G04 APERTURE LIST*
%ADD10C,0.150000*%
%ADD11C,0.100000*%
%ADD12C,2.000000*%
%ADD13C,0.200000*%
%ADD14C,0.300000*%
G04 APERTURE END LIST*
D10*
D11*
X264000000Y-46000000D02*
X264000000Y-264000000D01*
X93000000Y-41000000D02*
X259000000Y-41000000D01*
X75000000Y-41000000D02*
X59000000Y-41000000D01*
X76500000Y-42500000D02*
X76500000Y-42600000D01*
X76500000Y-42500000D02*
G75*
G03X75000000Y-41000000I-1500000J0D01*
G74*
G01*
X91500000Y-42500000D02*
X91500000Y-42600000D01*
X93000000Y-41000000D02*
G75*
G03X91500000Y-42500000I0J-1500000D01*
G74*
G01*
X90000000Y-44100000D02*
G75*
G03X91500000Y-42600000I0J1500000D01*
G74*
G01*
X76500000Y-42600000D02*
G75*
G03X78000000Y-44100000I1500000J0D01*
G74*
G01*
X84000000Y-44100000D02*
X90000000Y-44100000D01*
X84000000Y-44100000D02*
X78000000Y-44100000D01*
X54000000Y-264000000D02*
X54000000Y-46000000D01*
X225500000Y-269000000D02*
X59000000Y-269000000D01*
X259000000Y-269000000D02*
X238500000Y-269000000D01*
X259000000Y-269000000D02*
G75*
G03X264000000Y-264000000I0J5000000D01*
G74*
G01*
X264000000Y-46000000D02*
G75*
G03X259000000Y-41000000I-5000000J0D01*
G74*
G01*
X59000000Y-41000000D02*
G75*
G03X54000000Y-46000000I0J-5000000D01*
G74*
G01*
X54000000Y-264000000D02*
G75*
G03X59000000Y-269000000I5000000J0D01*
G74*
G01*
X237000000Y-267500000D02*
X237000000Y-261200000D01*
X227000000Y-261200000D02*
X227000000Y-267500000D01*
X225500000Y-269000000D02*
G75*
G03X227000000Y-267500000I0J1500000D01*
G74*
G01*
X237000000Y-267500000D02*
G75*
G03X238500000Y-269000000I1500000J0D01*
G74*
G01*
X237000000Y-261200000D02*
G75*
G03X235500000Y-259700000I-1500000J0D01*
G74*
G01*
X228500000Y-259700000D02*
G75*
G03X227000000Y-261200000I0J-1500000D01*
G74*
G01*
X235500000Y-259700000D02*
X228500000Y-259700000D01*
D12*
X54000000Y-83000000D02*
X264000000Y-83000000D01*
X54000000Y-67000000D02*
X264000000Y-67000000D01*
X54000000Y-51000000D02*
X264000000Y-51000000D01*
D13*
X76500000Y-51000000D02*
X76500000Y-259000000D01*
X196500000Y-259000000D02*
X196500000Y-51000000D01*
X181500000Y-51000000D02*
X181500000Y-259000000D01*
D12*
X189000000Y-259000000D02*
X189000000Y-51000000D01*
D13*
X264000000Y-251000000D02*
X54000000Y-251000000D01*
X54000000Y-235000000D02*
X264000000Y-235000000D01*
X264000000Y-219000000D02*
X54000000Y-219000000D01*
X54000000Y-203000000D02*
X264000000Y-203000000D01*
X264000000Y-187000000D02*
X54000000Y-187000000D01*
X54000000Y-171000000D02*
X264000000Y-171000000D01*
X264000000Y-155000000D02*
X54000000Y-155000000D01*
X54000000Y-139000000D02*
X264000000Y-139000000D01*
X264000000Y-123000000D02*
X54000000Y-123000000D01*
X54000000Y-107000000D02*
X264000000Y-107000000D01*
X54000000Y-91000000D02*
X264000000Y-91000000D01*
D12*
X54000000Y-99000000D02*
X264000000Y-99000000D01*
D13*
X69000000Y-67000000D02*
X69000000Y-83000000D01*
X69000000Y-67000000D02*
X69000000Y-83000000D01*
X69000000Y-67000000D02*
X69000000Y-83000000D01*
X69000000Y-67000000D02*
X69000000Y-83000000D01*
X264000000Y-59000000D02*
X54000000Y-59000000D01*
X54000000Y-75000000D02*
X264000000Y-75000000D01*
X256500000Y-51000000D02*
X256500000Y-259000000D01*
X241500000Y-259000000D02*
X241500000Y-51000000D01*
X226500000Y-51000000D02*
X226500000Y-259000000D01*
X211500000Y-259000000D02*
X211500000Y-51000000D01*
X166500000Y-51000000D02*
X166500000Y-259000000D01*
X151500000Y-259000000D02*
X151500000Y-51000000D01*
X136500000Y-51000000D02*
X136500000Y-259000000D01*
X121500000Y-259000000D02*
X121500000Y-51000000D01*
X106500000Y-51000000D02*
X106500000Y-259000000D01*
X91500000Y-259000000D02*
X91500000Y-51000000D01*
X61500000Y-259000000D02*
X77000000Y-259000000D01*
X61500000Y-51000000D02*
X61500000Y-259000000D01*
D12*
X54000000Y-243000000D02*
X264000000Y-243000000D01*
X54000000Y-227000000D02*
X264000000Y-227000000D01*
X264000000Y-211000000D02*
X54000000Y-211000000D01*
X54000000Y-195000000D02*
X264000000Y-195000000D01*
X264000000Y-179000000D02*
X54000000Y-179000000D01*
X54000000Y-163000000D02*
X264000000Y-163000000D01*
X264000000Y-147000000D02*
X54000000Y-147000000D01*
X54000000Y-131000000D02*
X264000000Y-131000000D01*
X264000000Y-115000000D02*
X54000000Y-115000000D01*
X249000000Y-259000000D02*
X249000000Y-51000000D01*
X234000000Y-51000000D02*
X234000000Y-259000000D01*
X219000000Y-259000000D02*
X219000000Y-51000000D01*
X204000000Y-51000000D02*
X204000000Y-259000000D01*
X174000000Y-51000000D02*
X174000000Y-259000000D01*
X159000000Y-259000000D02*
X159000000Y-51000000D01*
X144000000Y-51000000D02*
X144000000Y-259000000D01*
X129000000Y-259000000D02*
X129000000Y-51000000D01*
X114000000Y-51000000D02*
X114000000Y-259000000D01*
X99000000Y-51000000D02*
X99000000Y-259000000D01*
X84000000Y-51000000D02*
X84000000Y-259000000D01*
X69000000Y-51000000D02*
X69000000Y-259000000D01*
D13*
X84000000Y-51000000D02*
X84000000Y-67000000D01*
X84000000Y-67000000D02*
X69000000Y-67000000D01*
X84000000Y-67000000D02*
X69000000Y-67000000D01*
X84000000Y-51000000D02*
X84000000Y-67000000D01*
X84000000Y-51000000D02*
X84000000Y-67000000D01*
X84000000Y-67000000D02*
X69000000Y-67000000D01*
X84000000Y-67000000D02*
X69000000Y-67000000D01*
X84000000Y-51000000D02*
X84000000Y-67000000D01*
X99000000Y-51000000D02*
X99000000Y-67000000D01*
X99000000Y-67000000D02*
X84000000Y-67000000D01*
X84000000Y-67000000D02*
X84000000Y-51000000D01*
X84000000Y-67000000D02*
X84000000Y-51000000D01*
X99000000Y-67000000D02*
X84000000Y-67000000D01*
X99000000Y-51000000D02*
X99000000Y-67000000D01*
X99000000Y-51000000D02*
X99000000Y-67000000D01*
X99000000Y-67000000D02*
X84000000Y-67000000D01*
X84000000Y-67000000D02*
X84000000Y-51000000D01*
X84000000Y-67000000D02*
X84000000Y-51000000D01*
X99000000Y-67000000D02*
X84000000Y-67000000D01*
X99000000Y-51000000D02*
X99000000Y-67000000D01*
X69000000Y-67000000D02*
X84000000Y-67000000D01*
X69000000Y-67000000D02*
X84000000Y-67000000D01*
X69000000Y-67000000D02*
X84000000Y-67000000D01*
X69000000Y-67000000D02*
X84000000Y-67000000D01*
X54000000Y-67000000D02*
X69000000Y-67000000D01*
X54000000Y-67000000D02*
X69000000Y-67000000D01*
X54000000Y-67000000D02*
X69000000Y-67000000D01*
X54000000Y-67000000D02*
X69000000Y-67000000D01*
D12*
X54000000Y-259000000D02*
X264000000Y-259000000D01*
D13*
X84000000Y-51000000D02*
X84000000Y-67000000D01*
X84000000Y-67000000D02*
X69000000Y-67000000D01*
X69000000Y-67000000D02*
X69000000Y-51000000D01*
X69000000Y-67000000D02*
X69000000Y-51000000D01*
X84000000Y-67000000D02*
X69000000Y-67000000D01*
X84000000Y-51000000D02*
X84000000Y-67000000D01*
X84000000Y-51000000D02*
X84000000Y-67000000D01*
X84000000Y-67000000D02*
X69000000Y-67000000D01*
X69000000Y-67000000D02*
X69000000Y-51000000D01*
X69000000Y-67000000D02*
X69000000Y-51000000D01*
X84000000Y-67000000D02*
X69000000Y-67000000D01*
X84000000Y-51000000D02*
X84000000Y-67000000D01*
X69000000Y-51000000D02*
X69000000Y-67000000D01*
X69000000Y-67000000D02*
X54000000Y-67000000D01*
X69000000Y-67000000D02*
X54000000Y-67000000D01*
X69000000Y-51000000D02*
X69000000Y-67000000D01*
X69000000Y-51000000D02*
X69000000Y-67000000D01*
X69000000Y-67000000D02*
X54000000Y-67000000D01*
X69000000Y-67000000D02*
X54000000Y-67000000D01*
X69000000Y-51000000D02*
X69000000Y-67000000D01*
D14*
X152071430Y-274671428D02*
X152142859Y-274599999D01*
X152285716Y-274528570D01*
X152642859Y-274528570D01*
X152785716Y-274599999D01*
X152857145Y-274671428D01*
X152928573Y-274814285D01*
X152928573Y-274957142D01*
X152857145Y-275171428D01*
X152000002Y-276028570D01*
X152928573Y-276028570D01*
X154357144Y-276028570D02*
X153500001Y-276028570D01*
X153928573Y-276028570D02*
X153928573Y-274528570D01*
X153785716Y-274742856D01*
X153642858Y-274885713D01*
X153500001Y-274957142D01*
X155285715Y-274528570D02*
X155428572Y-274528570D01*
X155571429Y-274599999D01*
X155642858Y-274671428D01*
X155714287Y-274814285D01*
X155785715Y-275099999D01*
X155785715Y-275457142D01*
X155714287Y-275742856D01*
X155642858Y-275885713D01*
X155571429Y-275957142D01*
X155428572Y-276028570D01*
X155285715Y-276028570D01*
X155142858Y-275957142D01*
X155071429Y-275885713D01*
X155000001Y-275742856D01*
X154928572Y-275457142D01*
X154928572Y-275099999D01*
X155000001Y-274814285D01*
X155071429Y-274671428D01*
X155142858Y-274599999D01*
X155285715Y-274528570D01*
X156428572Y-275885713D02*
X156500000Y-275957142D01*
X156428572Y-276028570D01*
X156357143Y-275957142D01*
X156428572Y-275885713D01*
X156428572Y-276028570D01*
X157428572Y-274528570D02*
X157571429Y-274528570D01*
X157714286Y-274599999D01*
X157785715Y-274671428D01*
X157857144Y-274814285D01*
X157928572Y-275099999D01*
X157928572Y-275457142D01*
X157857144Y-275742856D01*
X157785715Y-275885713D01*
X157714286Y-275957142D01*
X157571429Y-276028570D01*
X157428572Y-276028570D01*
X157285715Y-275957142D01*
X157214286Y-275885713D01*
X157142858Y-275742856D01*
X157071429Y-275457142D01*
X157071429Y-275099999D01*
X157142858Y-274814285D01*
X157214286Y-274671428D01*
X157285715Y-274599999D01*
X157428572Y-274528570D01*
X158857143Y-274528570D02*
X159000000Y-274528570D01*
X159142857Y-274599999D01*
X159214286Y-274671428D01*
X159285715Y-274814285D01*
X159357143Y-275099999D01*
X159357143Y-275457142D01*
X159285715Y-275742856D01*
X159214286Y-275885713D01*
X159142857Y-275957142D01*
X159000000Y-276028570D01*
X158857143Y-276028570D01*
X158714286Y-275957142D01*
X158642857Y-275885713D01*
X158571429Y-275742856D01*
X158500000Y-275457142D01*
X158500000Y-275099999D01*
X158571429Y-274814285D01*
X158642857Y-274671428D01*
X158714286Y-274599999D01*
X158857143Y-274528570D01*
X160285714Y-274528570D02*
X160428571Y-274528570D01*
X160571428Y-274599999D01*
X160642857Y-274671428D01*
X160714286Y-274814285D01*
X160785714Y-275099999D01*
X160785714Y-275457142D01*
X160714286Y-275742856D01*
X160642857Y-275885713D01*
X160571428Y-275957142D01*
X160428571Y-276028570D01*
X160285714Y-276028570D01*
X160142857Y-275957142D01*
X160071428Y-275885713D01*
X160000000Y-275742856D01*
X159928571Y-275457142D01*
X159928571Y-275099999D01*
X160000000Y-274814285D01*
X160071428Y-274671428D01*
X160142857Y-274599999D01*
X160285714Y-274528570D01*
X162571428Y-276028570D02*
X162571428Y-275028570D01*
X162571428Y-275171428D02*
X162642856Y-275099999D01*
X162785714Y-275028570D01*
X162999999Y-275028570D01*
X163142856Y-275099999D01*
X163214285Y-275242856D01*
X163214285Y-276028570D01*
X163214285Y-275242856D02*
X163285714Y-275099999D01*
X163428571Y-275028570D01*
X163642856Y-275028570D01*
X163785714Y-275099999D01*
X163857142Y-275242856D01*
X163857142Y-276028570D01*
X164571428Y-276028570D02*
X164571428Y-275028570D01*
X164571428Y-275171428D02*
X164642856Y-275099999D01*
X164785714Y-275028570D01*
X164999999Y-275028570D01*
X165142856Y-275099999D01*
X165214285Y-275242856D01*
X165214285Y-276028570D01*
X165214285Y-275242856D02*
X165285714Y-275099999D01*
X165428571Y-275028570D01*
X165642856Y-275028570D01*
X165785714Y-275099999D01*
X165857142Y-275242856D01*
X165857142Y-276028570D01*
X54000000Y-273999999D02*
X264000000Y-273999999D01*
X54000000Y-269000000D02*
X54000000Y-276699999D01*
X264000000Y-269000000D02*
X264000000Y-276699999D01*
X264000000Y-273999999D02*
X262873497Y-274586419D01*
X264000000Y-273999999D02*
X262873497Y-273413579D01*
X54000000Y-273999999D02*
X55126503Y-274586419D01*
X54000000Y-273999999D02*
X55126503Y-273413579D01*
M02*
