%FSLAX46Y46*%
G04 Gerber Fmt 4.6, Leading zero omitted, Abs format (unit mm)*
G04 Created by KiCad (PCBNEW (2014-09-25 BZR 5147)-product) date Friday 10 October 2014 06:15:43 PM IST*
%MOMM*%
G01*
G04 APERTURE LIST*
%ADD10C,0.150000*%
%ADD11C,0.100000*%
%ADD12C,6.500000*%
%ADD13R,1.524000X1.524000*%
%ADD14O,2.000000X3.500000*%
%ADD15O,3.500000X2.000000*%
%ADD16C,2.500000*%
%ADD17C,2.100000*%
%ADD18R,1.998980X0.599440*%
%ADD19R,1.498600X1.300480*%
%ADD20R,1.300480X1.049020*%
%ADD21R,0.449580X1.998980*%
%ADD22R,1.998980X0.449580*%
%ADD23R,1.600000X1.600000*%
%ADD24C,1.600000*%
%ADD25C,1.524000*%
%ADD26C,1.778000*%
%ADD27C,2.032000*%
%ADD28R,1.550000X1.350000*%
%ADD29R,1.350000X1.550000*%
%ADD30R,1.778000X1.778000*%
%ADD31R,2.800000X5.100000*%
%ADD32C,18.000000*%
G04 APERTURE END LIST*
D10*
D11*
X264000000Y-46000000D02*
X264000000Y-264000000D01*
X93000000Y-41000000D02*
X259000000Y-41000000D01*
X75000000Y-41000000D02*
X59000000Y-41000000D01*
X76500000Y-42500000D02*
X76500000Y-42600000D01*
X76500000Y-42500000D02*
G75*
G03X75000000Y-41000000I-1500000J0D01*
G74*
G01*
X91500000Y-42500000D02*
X91500000Y-42600000D01*
X93000000Y-41000000D02*
G75*
G03X91500000Y-42500000I0J-1500000D01*
G74*
G01*
X90000000Y-44100000D02*
G75*
G03X91500000Y-42600000I0J1500000D01*
G74*
G01*
X76500000Y-42600000D02*
G75*
G03X78000000Y-44100000I1500000J0D01*
G74*
G01*
X84000000Y-44100000D02*
X90000000Y-44100000D01*
X84000000Y-44100000D02*
X78000000Y-44100000D01*
X54000000Y-264000000D02*
X54000000Y-46000000D01*
X225500000Y-269000000D02*
X59000000Y-269000000D01*
X259000000Y-269000000D02*
X238500000Y-269000000D01*
X259000000Y-269000000D02*
G75*
G03X264000000Y-264000000I0J5000000D01*
G74*
G01*
X264000000Y-46000000D02*
G75*
G03X259000000Y-41000000I-5000000J0D01*
G74*
G01*
X59000000Y-41000000D02*
G75*
G03X54000000Y-46000000I0J-5000000D01*
G74*
G01*
X54000000Y-264000000D02*
G75*
G03X59000000Y-269000000I5000000J0D01*
G74*
G01*
X237000000Y-267500000D02*
X237000000Y-261200000D01*
X227000000Y-261200000D02*
X227000000Y-267500000D01*
X225500000Y-269000000D02*
G75*
G03X227000000Y-267500000I0J1500000D01*
G74*
G01*
X237000000Y-267500000D02*
G75*
G03X238500000Y-269000000I1500000J0D01*
G74*
G01*
X237000000Y-261200000D02*
G75*
G03X235500000Y-259700000I-1500000J0D01*
G74*
G01*
X228500000Y-259700000D02*
G75*
G03X227000000Y-261200000I0J-1500000D01*
G74*
G01*
X235500000Y-259700000D02*
X228500000Y-259700000D01*
D12*
X259000000Y-264000000D03*
X59000000Y-264000000D03*
X259000000Y-46000000D03*
X59000000Y-46000000D03*
D13*
X119200000Y-81200000D03*
X123800000Y-81200000D03*
X126800000Y-81200000D03*
X146200000Y-81200000D03*
X149200000Y-81200000D03*
D14*
X159100000Y-264200000D03*
D15*
X161300000Y-260900000D03*
X161300000Y-267500000D03*
X153900000Y-260500000D03*
X153900000Y-267900000D03*
D16*
X155000000Y-264200000D03*
D17*
X207000000Y-261200000D03*
X207000000Y-267200000D03*
X187000000Y-261200000D03*
X187100000Y-267200000D03*
D18*
X86649260Y-72845000D03*
X86649260Y-71575000D03*
X86649260Y-70305000D03*
X86649260Y-69035000D03*
X86649260Y-67765000D03*
X86649260Y-66495000D03*
X86649260Y-65225000D03*
X86649260Y-63955000D03*
X95950740Y-63955000D03*
X95950740Y-65225000D03*
X95950740Y-66495000D03*
X95950740Y-67765000D03*
X95950740Y-69035000D03*
X95950740Y-70305000D03*
X95950740Y-71575000D03*
X95950740Y-72845000D03*
D19*
X86300000Y-78252500D03*
X86300000Y-76347500D03*
X88900000Y-78252500D03*
X88900000Y-76347500D03*
X93700000Y-78252500D03*
X93700000Y-76347500D03*
D20*
X132543000Y-88502500D03*
X130257000Y-86597500D03*
X132543000Y-86597500D03*
X130257000Y-88502500D03*
D21*
X133700920Y-79150360D03*
X134501020Y-79150360D03*
X135301120Y-79150360D03*
X136101220Y-79150360D03*
X136898780Y-79150360D03*
X137698880Y-79150360D03*
X138498980Y-79150360D03*
X139299080Y-79150360D03*
X139299080Y-70849640D03*
X133700920Y-70849640D03*
X134501020Y-70849640D03*
X135301120Y-70849640D03*
X136101220Y-70849640D03*
X136898780Y-70849640D03*
X137698880Y-70849640D03*
X138498980Y-70849640D03*
D22*
X140650360Y-77799080D03*
X140650360Y-76998980D03*
X140650360Y-76198880D03*
X140650360Y-75398780D03*
X140650360Y-74601220D03*
X140650360Y-73801120D03*
X140650360Y-73001020D03*
X140650360Y-72200920D03*
X132349640Y-77799080D03*
X132349640Y-76998980D03*
X132349640Y-76198880D03*
X132349640Y-75398780D03*
X132349640Y-74601220D03*
X132349640Y-73801120D03*
X132349640Y-73001020D03*
X132349640Y-72200920D03*
D23*
X123940000Y-47270000D03*
D24*
X123940000Y-44730000D03*
X121400000Y-47270000D03*
X121400000Y-44730000D03*
X118860000Y-47270000D03*
X118860000Y-44730000D03*
D19*
X146000000Y-44797500D03*
X146000000Y-46702500D03*
D13*
X149480000Y-44750000D03*
D25*
X152020000Y-44750000D03*
D19*
X155500000Y-46702500D03*
X155500000Y-44797500D03*
X190000000Y-44797500D03*
X190000000Y-46702500D03*
D13*
X196520000Y-44750000D03*
D25*
X193980000Y-44750000D03*
D19*
X200000000Y-44797500D03*
X200000000Y-46702500D03*
X234000000Y-46702500D03*
X234000000Y-44797500D03*
D26*
X239277500Y-43300000D03*
X243722500Y-43300000D03*
D27*
X238007500Y-45840000D03*
X244992500Y-45840000D03*
D26*
X243722500Y-49777000D03*
X239277500Y-49777000D03*
X242770000Y-47872000D03*
X240230000Y-47872000D03*
D19*
X96300000Y-78252500D03*
X96300000Y-76347500D03*
D28*
X229500000Y-44750000D03*
X229500000Y-46750000D03*
X159000000Y-44750000D03*
X159000000Y-46750000D03*
X142500000Y-44750000D03*
X142500000Y-46750000D03*
X129750000Y-46750000D03*
X129750000Y-44750000D03*
X104000000Y-46750000D03*
X104000000Y-44750000D03*
D29*
X135600000Y-66000000D03*
X137600000Y-66000000D03*
X136250000Y-83750000D03*
X138250000Y-83750000D03*
X132400000Y-83800000D03*
X130400000Y-83800000D03*
X132400000Y-91250000D03*
X130400000Y-91250000D03*
D13*
X212650000Y-44750000D03*
X215190000Y-44750000D03*
D25*
X217730000Y-44750000D03*
X220270000Y-44750000D03*
X222810000Y-44750000D03*
X225350000Y-44750000D03*
D28*
X181000000Y-55750000D03*
X181000000Y-57750000D03*
X169500000Y-55750000D03*
X169500000Y-57750000D03*
D19*
X177750000Y-57702500D03*
X177750000Y-55797500D03*
X172750000Y-57702500D03*
X172750000Y-55797500D03*
D26*
X165190000Y-44750000D03*
X167730000Y-44750000D03*
X170270000Y-44750000D03*
D30*
X172810000Y-44750000D03*
D26*
X177690000Y-50000000D03*
X180230000Y-50000000D03*
X182770000Y-50000000D03*
D30*
X185310000Y-50000000D03*
D31*
X95000000Y-50200000D03*
X73000000Y-50200000D03*
D32*
X84000000Y-50200000D03*
M02*
