%FSLAX45Y45*%
G04 Gerber Fmt 4.5, Leading zero omitted, Abs format (unit mm)*
G04 Created by KiCad (PCBNEW (2014-09-25 BZR 5147)-product) date Friday 10 October 2014 06:15:03 PM IST*
%MOMM*%
G01*
G04 APERTURE LIST*
%ADD10C,0.127000*%
%ADD11C,0.100000*%
%ADD12C,0.200000*%
%ADD13C,0.300000*%
G04 APERTURE END LIST*
D10*
D11*
X26400000Y-4600000D02*
X26400000Y-26400000D01*
X9300000Y-4100000D02*
X25900000Y-4100000D01*
X7500000Y-4100000D02*
X5900000Y-4100000D01*
X7650000Y-4250000D02*
X7650000Y-4260000D01*
X7650000Y-4250000D02*
G75*
G03X7500000Y-4100000I-150000J0D01*
G74*
G01*
X9150000Y-4250000D02*
X9150000Y-4260000D01*
X9300000Y-4100000D02*
G75*
G03X9150000Y-4250000I0J-150000D01*
G74*
G01*
X9000000Y-4410000D02*
G75*
G03X9150000Y-4260000I0J150000D01*
G74*
G01*
X7650000Y-4260000D02*
G75*
G03X7800000Y-4410000I150000J0D01*
G74*
G01*
X8400000Y-4410000D02*
X9000000Y-4410000D01*
X8400000Y-4410000D02*
X7800000Y-4410000D01*
X5400000Y-26400000D02*
X5400000Y-4600000D01*
X22550000Y-26900000D02*
X5900000Y-26900000D01*
X25900000Y-26900000D02*
X23850000Y-26900000D01*
X25900000Y-26900000D02*
G75*
G03X26400000Y-26400000I0J500000D01*
G74*
G01*
X26400000Y-4600000D02*
G75*
G03X25900000Y-4100000I-500000J0D01*
G74*
G01*
X5900000Y-4100000D02*
G75*
G03X5400000Y-4600000I0J-500000D01*
G74*
G01*
X5400000Y-26400000D02*
G75*
G03X5900000Y-26900000I500000J0D01*
G74*
G01*
X23700000Y-26750000D02*
X23700000Y-26120000D01*
X22700000Y-26120000D02*
X22700000Y-26750000D01*
X22550000Y-26900000D02*
G75*
G03X22700000Y-26750000I0J150000D01*
G74*
G01*
X23700000Y-26750000D02*
G75*
G03X23850000Y-26900000I150000J0D01*
G74*
G01*
X23700000Y-26120000D02*
G75*
G03X23550000Y-25970000I-150000J0D01*
G74*
G01*
X22850000Y-25970000D02*
G75*
G03X22700000Y-26120000I0J-150000D01*
G74*
G01*
X23550000Y-25970000D02*
X22850000Y-25970000D01*
D12*
X6493250Y-5393250D02*
X6556750Y-5456750D01*
X6556750Y-5393250D02*
X6493250Y-5456750D01*
X8168250Y-7118250D02*
X8231750Y-7181750D01*
X8231750Y-7118250D02*
X8168250Y-7181750D01*
X8378250Y-7918250D02*
X8441750Y-7981750D01*
X8441750Y-7918250D02*
X8378250Y-7981750D01*
X9008250Y-7028250D02*
X9071750Y-7091750D01*
X9071750Y-7028250D02*
X9008250Y-7091750D01*
X9768250Y-7918250D02*
X9831750Y-7981750D01*
X9831750Y-7918250D02*
X9768250Y-7981750D01*
X10348250Y-6648250D02*
X10411750Y-6711750D01*
X10411750Y-6648250D02*
X10348250Y-6711750D01*
X10628250Y-6768250D02*
X10691750Y-6831750D01*
X10691750Y-6768250D02*
X10628250Y-6831750D01*
X13243250Y-6418250D02*
X13306750Y-6481750D01*
X13306750Y-6418250D02*
X13243250Y-6481750D01*
X13728250Y-5288250D02*
X13791750Y-5351750D01*
X13791750Y-5288250D02*
X13728250Y-5351750D01*
X13778250Y-8628250D02*
X13841750Y-8691750D01*
X13841750Y-8628250D02*
X13778250Y-8691750D01*
X14218250Y-5543250D02*
X14281750Y-5606750D01*
X14281750Y-5543250D02*
X14218250Y-5606750D01*
X15788250Y-6648250D02*
X15851750Y-6711750D01*
X15851750Y-6648250D02*
X15788250Y-6711750D01*
X15868250Y-5543250D02*
X15931750Y-5606750D01*
X15931750Y-5543250D02*
X15868250Y-5606750D01*
X15928250Y-6768250D02*
X15991750Y-6831750D01*
X15991750Y-6768250D02*
X15928250Y-6831750D01*
X17693250Y-6318250D02*
X17756750Y-6381750D01*
X17756750Y-6318250D02*
X17693250Y-6381750D01*
X18793250Y-5543250D02*
X18856750Y-5606750D01*
X18856750Y-5543250D02*
X18793250Y-5606750D01*
X23368250Y-6318250D02*
X23431750Y-6381750D01*
X23431750Y-6318250D02*
X23368250Y-6381750D01*
X26118250Y-24818250D02*
X26181750Y-24881750D01*
X26181750Y-24818250D02*
X26118250Y-24881750D01*
X15440000Y-26050000D02*
G75*
G03X15440000Y-26050000I-50000J0D01*
G74*
G01*
X15315000Y-26090000D02*
X15465000Y-26090000D01*
X15315000Y-26010000D02*
X15465000Y-26010000D01*
X15465000Y-26090000D02*
G75*
G03X15465000Y-26010000I0J40000D01*
G74*
G01*
X15315000Y-26010000D02*
G75*
G03X15315000Y-26090000I0J-40000D01*
G74*
G01*
X15440000Y-26790000D02*
G75*
G03X15440000Y-26790000I-50000J0D01*
G74*
G01*
X15315000Y-26830000D02*
X15465000Y-26830000D01*
X15315000Y-26750000D02*
X15465000Y-26750000D01*
X15465000Y-26830000D02*
G75*
G03X15465000Y-26750000I0J40000D01*
G74*
G01*
X15315000Y-26750000D02*
G75*
G03X15315000Y-26830000I0J-40000D01*
G74*
G01*
X15960000Y-26420000D02*
G75*
G03X15960000Y-26420000I-50000J0D01*
G74*
G01*
X15870000Y-26360000D02*
X15870000Y-26480000D01*
X15950000Y-26360000D02*
X15950000Y-26480000D01*
X15870000Y-26480000D02*
G75*
G03X15950000Y-26480000I40000J0D01*
G74*
G01*
X15950000Y-26360000D02*
G75*
G03X15870000Y-26360000I-40000J0D01*
G74*
G01*
X16180000Y-26090000D02*
G75*
G03X16180000Y-26090000I-50000J0D01*
G74*
G01*
X16070000Y-26130000D02*
X16190000Y-26130000D01*
X16070000Y-26050000D02*
X16190000Y-26050000D01*
X16190000Y-26130000D02*
G75*
G03X16190000Y-26050000I0J40000D01*
G74*
G01*
X16070000Y-26050000D02*
G75*
G03X16070000Y-26130000I0J-40000D01*
G74*
G01*
X16180000Y-26750000D02*
G75*
G03X16180000Y-26750000I-50000J0D01*
G74*
G01*
X16070000Y-26790000D02*
X16190000Y-26790000D01*
X16070000Y-26710000D02*
X16190000Y-26710000D01*
X16190000Y-26790000D02*
G75*
G03X16190000Y-26710000I0J40000D01*
G74*
G01*
X16070000Y-26710000D02*
G75*
G03X16070000Y-26790000I0J-40000D01*
G74*
G01*
X11886000Y-4422000D02*
X11886000Y-4524000D01*
X11835000Y-4473000D02*
X11937000Y-4473000D01*
X11886000Y-4676000D02*
X11886000Y-4778000D01*
X11835000Y-4727000D02*
X11937000Y-4727000D01*
X11920000Y-8069000D02*
X11920000Y-8171000D01*
X11869000Y-8120000D02*
X11971000Y-8120000D01*
X12140000Y-4422000D02*
X12140000Y-4524000D01*
X12089000Y-4473000D02*
X12191000Y-4473000D01*
X12140000Y-4676000D02*
X12140000Y-4778000D01*
X12089000Y-4727000D02*
X12191000Y-4727000D01*
X12380000Y-8069000D02*
X12380000Y-8171000D01*
X12329000Y-8120000D02*
X12431000Y-8120000D01*
X12394000Y-4422000D02*
X12394000Y-4524000D01*
X12343000Y-4473000D02*
X12445000Y-4473000D01*
X12394000Y-4676000D02*
X12394000Y-4778000D01*
X12343000Y-4727000D02*
X12445000Y-4727000D01*
X12680000Y-8069000D02*
X12680000Y-8171000D01*
X12629000Y-8120000D02*
X12731000Y-8120000D01*
X14620000Y-8069000D02*
X14620000Y-8171000D01*
X14569000Y-8120000D02*
X14671000Y-8120000D01*
X14920000Y-8069000D02*
X14920000Y-8171000D01*
X14869000Y-8120000D02*
X14971000Y-8120000D01*
X14948000Y-4424000D02*
X14948000Y-4526000D01*
X14897000Y-4475000D02*
X14999000Y-4475000D01*
X15202000Y-4424000D02*
X15202000Y-4526000D01*
X15151000Y-4475000D02*
X15253000Y-4475000D01*
X16519000Y-4424000D02*
X16519000Y-4526000D01*
X16468000Y-4475000D02*
X16570000Y-4475000D01*
X16773000Y-4424000D02*
X16773000Y-4526000D01*
X16722000Y-4475000D02*
X16824000Y-4475000D01*
X17027000Y-4424000D02*
X17027000Y-4526000D01*
X16976000Y-4475000D02*
X17078000Y-4475000D01*
X17281000Y-4424000D02*
X17281000Y-4526000D01*
X17230000Y-4475000D02*
X17332000Y-4475000D01*
X17769000Y-4949000D02*
X17769000Y-5051000D01*
X17718000Y-5000000D02*
X17820000Y-5000000D01*
X18023000Y-4949000D02*
X18023000Y-5051000D01*
X17972000Y-5000000D02*
X18074000Y-5000000D01*
X18277000Y-4949000D02*
X18277000Y-5051000D01*
X18226000Y-5000000D02*
X18328000Y-5000000D01*
X18531000Y-4949000D02*
X18531000Y-5051000D01*
X18480000Y-5000000D02*
X18582000Y-5000000D01*
X19398000Y-4424000D02*
X19398000Y-4526000D01*
X19347000Y-4475000D02*
X19449000Y-4475000D01*
X19652000Y-4424000D02*
X19652000Y-4526000D01*
X19601000Y-4475000D02*
X19703000Y-4475000D01*
X21265000Y-4424000D02*
X21265000Y-4526000D01*
X21214000Y-4475000D02*
X21316000Y-4475000D01*
X21519000Y-4424000D02*
X21519000Y-4526000D01*
X21468000Y-4475000D02*
X21570000Y-4475000D01*
X21773000Y-4424000D02*
X21773000Y-4526000D01*
X21722000Y-4475000D02*
X21824000Y-4475000D01*
X22027000Y-4424000D02*
X22027000Y-4526000D01*
X21976000Y-4475000D02*
X22078000Y-4475000D01*
X22281000Y-4424000D02*
X22281000Y-4526000D01*
X22230000Y-4475000D02*
X22332000Y-4475000D01*
X22535000Y-4424000D02*
X22535000Y-4526000D01*
X22484000Y-4475000D02*
X22586000Y-4475000D01*
X23927750Y-4279000D02*
X23927750Y-4381000D01*
X23876750Y-4330000D02*
X23978750Y-4330000D01*
X23927750Y-4926700D02*
X23927750Y-5028700D01*
X23876750Y-4977700D02*
X23978750Y-4977700D01*
X24023000Y-4736200D02*
X24023000Y-4838200D01*
X23972000Y-4787200D02*
X24074000Y-4787200D01*
X24277000Y-4736200D02*
X24277000Y-4838200D01*
X24226000Y-4787200D02*
X24328000Y-4787200D01*
X24372250Y-4279000D02*
X24372250Y-4381000D01*
X24321250Y-4330000D02*
X24423250Y-4330000D01*
X24372250Y-4926700D02*
X24372250Y-5028700D01*
X24321250Y-4977700D02*
X24423250Y-4977700D01*
X15380000Y-26300000D02*
X15620000Y-26540000D01*
X15620000Y-26300000D02*
X15380000Y-26540000D01*
X15620000Y-26420000D02*
G75*
G03X15620000Y-26420000I-120000J0D01*
G74*
G01*
X5737500Y-4437500D02*
X6062500Y-4762500D01*
X6062500Y-4437500D02*
X5737500Y-4762500D01*
X5900000Y-4437500D02*
X5900000Y-4762500D01*
X5737500Y-4600000D02*
X6062500Y-4600000D01*
X5737500Y-26237500D02*
X6062500Y-26562500D01*
X6062500Y-26237500D02*
X5737500Y-26562500D01*
X5900000Y-26237500D02*
X5900000Y-26562500D01*
X5737500Y-26400000D02*
X6062500Y-26400000D01*
X25737500Y-4437500D02*
X26062500Y-4762500D01*
X26062500Y-4437500D02*
X25737500Y-4762500D01*
X25900000Y-4437500D02*
X25900000Y-4762500D01*
X25737500Y-4600000D02*
X26062500Y-4600000D01*
X25737500Y-26237500D02*
X26062500Y-26562500D01*
X26062500Y-26237500D02*
X25737500Y-26562500D01*
X25900000Y-26237500D02*
X25900000Y-26562500D01*
X25737500Y-26400000D02*
X26062500Y-26400000D01*
D13*
X5666428Y-27370714D02*
X5666428Y-27070714D01*
X5737857Y-27070714D01*
X5780714Y-27085000D01*
X5809286Y-27113571D01*
X5823571Y-27142143D01*
X5837857Y-27199286D01*
X5837857Y-27242143D01*
X5823571Y-27299286D01*
X5809286Y-27327857D01*
X5780714Y-27356429D01*
X5737857Y-27370714D01*
X5666428Y-27370714D01*
X5966428Y-27370714D02*
X5966428Y-27170714D01*
X5966428Y-27227857D02*
X5980714Y-27199286D01*
X5995000Y-27185000D01*
X6023571Y-27170714D01*
X6052143Y-27170714D01*
X6152143Y-27370714D02*
X6152143Y-27170714D01*
X6152143Y-27070714D02*
X6137857Y-27085000D01*
X6152143Y-27099286D01*
X6166428Y-27085000D01*
X6152143Y-27070714D01*
X6152143Y-27099286D01*
X6337857Y-27370714D02*
X6309286Y-27356429D01*
X6295000Y-27327857D01*
X6295000Y-27070714D01*
X6495000Y-27370714D02*
X6466428Y-27356429D01*
X6452143Y-27327857D01*
X6452143Y-27070714D01*
X6837857Y-27370714D02*
X6837857Y-27070714D01*
X6937857Y-27285000D01*
X7037857Y-27070714D01*
X7037857Y-27370714D01*
X7309286Y-27370714D02*
X7309286Y-27213571D01*
X7295000Y-27185000D01*
X7266428Y-27170714D01*
X7209286Y-27170714D01*
X7180714Y-27185000D01*
X7309286Y-27356429D02*
X7280714Y-27370714D01*
X7209286Y-27370714D01*
X7180714Y-27356429D01*
X7166428Y-27327857D01*
X7166428Y-27299286D01*
X7180714Y-27270714D01*
X7209286Y-27256429D01*
X7280714Y-27256429D01*
X7309286Y-27242143D01*
X7452143Y-27170714D02*
X7452143Y-27470714D01*
X7452143Y-27185000D02*
X7480714Y-27170714D01*
X7537857Y-27170714D01*
X7566428Y-27185000D01*
X7580714Y-27199286D01*
X7595000Y-27227857D01*
X7595000Y-27313571D01*
X7580714Y-27342143D01*
X7566428Y-27356429D01*
X7537857Y-27370714D01*
X7480714Y-27370714D01*
X7452143Y-27356429D01*
X7723571Y-27342143D02*
X7737857Y-27356429D01*
X7723571Y-27370714D01*
X7709286Y-27356429D01*
X7723571Y-27342143D01*
X7723571Y-27370714D01*
X7723571Y-27185000D02*
X7737857Y-27199286D01*
X7723571Y-27213571D01*
X7709286Y-27199286D01*
X7723571Y-27185000D01*
X7723571Y-27213571D01*
X5331500Y-27833250D02*
X5395000Y-27896750D01*
X5395000Y-27833250D02*
X5331500Y-27896750D01*
X5723571Y-27700714D02*
X5752143Y-27700714D01*
X5780714Y-27715000D01*
X5795000Y-27729286D01*
X5809286Y-27757857D01*
X5823571Y-27815000D01*
X5823571Y-27886429D01*
X5809286Y-27943571D01*
X5795000Y-27972143D01*
X5780714Y-27986429D01*
X5752143Y-28000714D01*
X5723571Y-28000714D01*
X5695000Y-27986429D01*
X5680714Y-27972143D01*
X5666428Y-27943571D01*
X5652143Y-27886429D01*
X5652143Y-27815000D01*
X5666428Y-27757857D01*
X5680714Y-27729286D01*
X5695000Y-27715000D01*
X5723571Y-27700714D01*
X5952143Y-27972143D02*
X5966428Y-27986429D01*
X5952143Y-28000714D01*
X5937857Y-27986429D01*
X5952143Y-27972143D01*
X5952143Y-28000714D01*
X6223571Y-27700714D02*
X6166428Y-27700714D01*
X6137857Y-27715000D01*
X6123571Y-27729286D01*
X6095000Y-27772143D01*
X6080714Y-27829286D01*
X6080714Y-27943571D01*
X6095000Y-27972143D01*
X6109286Y-27986429D01*
X6137857Y-28000714D01*
X6195000Y-28000714D01*
X6223571Y-27986429D01*
X6237857Y-27972143D01*
X6252143Y-27943571D01*
X6252143Y-27872143D01*
X6237857Y-27843571D01*
X6223571Y-27829286D01*
X6195000Y-27815000D01*
X6137857Y-27815000D01*
X6109286Y-27829286D01*
X6095000Y-27843571D01*
X6080714Y-27872143D01*
X6509286Y-27800714D02*
X6509286Y-28000714D01*
X6437857Y-27686429D02*
X6366428Y-27900714D01*
X6552143Y-27900714D01*
X6666428Y-28000714D02*
X6666428Y-27800714D01*
X6666428Y-27829286D02*
X6680714Y-27815000D01*
X6709286Y-27800714D01*
X6752143Y-27800714D01*
X6780714Y-27815000D01*
X6795000Y-27843571D01*
X6795000Y-28000714D01*
X6795000Y-27843571D02*
X6809286Y-27815000D01*
X6837857Y-27800714D01*
X6880714Y-27800714D01*
X6909286Y-27815000D01*
X6923571Y-27843571D01*
X6923571Y-28000714D01*
X7066428Y-28000714D02*
X7066428Y-27800714D01*
X7066428Y-27829286D02*
X7080714Y-27815000D01*
X7109286Y-27800714D01*
X7152143Y-27800714D01*
X7180714Y-27815000D01*
X7195000Y-27843571D01*
X7195000Y-28000714D01*
X7195000Y-27843571D02*
X7209286Y-27815000D01*
X7237857Y-27800714D01*
X7280714Y-27800714D01*
X7309286Y-27815000D01*
X7323571Y-27843571D01*
X7323571Y-28000714D01*
X7909286Y-27686429D02*
X7652143Y-28072143D01*
X8295000Y-27700714D02*
X8323571Y-27700714D01*
X8352143Y-27715000D01*
X8366428Y-27729286D01*
X8380714Y-27757857D01*
X8395000Y-27815000D01*
X8395000Y-27886429D01*
X8380714Y-27943571D01*
X8366428Y-27972143D01*
X8352143Y-27986429D01*
X8323571Y-28000714D01*
X8295000Y-28000714D01*
X8266428Y-27986429D01*
X8252143Y-27972143D01*
X8237857Y-27943571D01*
X8223571Y-27886429D01*
X8223571Y-27815000D01*
X8237857Y-27757857D01*
X8252143Y-27729286D01*
X8266428Y-27715000D01*
X8295000Y-27700714D01*
X8523571Y-27972143D02*
X8537857Y-27986429D01*
X8523571Y-28000714D01*
X8509286Y-27986429D01*
X8523571Y-27972143D01*
X8523571Y-28000714D01*
X8723571Y-27700714D02*
X8752143Y-27700714D01*
X8780714Y-27715000D01*
X8795000Y-27729286D01*
X8809286Y-27757857D01*
X8823571Y-27815000D01*
X8823571Y-27886429D01*
X8809286Y-27943571D01*
X8795000Y-27972143D01*
X8780714Y-27986429D01*
X8752143Y-28000714D01*
X8723571Y-28000714D01*
X8695000Y-27986429D01*
X8680714Y-27972143D01*
X8666428Y-27943571D01*
X8652143Y-27886429D01*
X8652143Y-27815000D01*
X8666428Y-27757857D01*
X8680714Y-27729286D01*
X8695000Y-27715000D01*
X8723571Y-27700714D01*
X8937857Y-27729286D02*
X8952143Y-27715000D01*
X8980714Y-27700714D01*
X9052143Y-27700714D01*
X9080714Y-27715000D01*
X9095000Y-27729286D01*
X9109286Y-27757857D01*
X9109286Y-27786429D01*
X9095000Y-27829286D01*
X8923571Y-28000714D01*
X9109286Y-28000714D01*
X9380714Y-27700714D02*
X9237857Y-27700714D01*
X9223571Y-27843571D01*
X9237857Y-27829286D01*
X9266428Y-27815000D01*
X9337857Y-27815000D01*
X9366428Y-27829286D01*
X9380714Y-27843571D01*
X9395000Y-27872143D01*
X9395000Y-27943571D01*
X9380714Y-27972143D01*
X9366428Y-27986429D01*
X9337857Y-28000714D01*
X9266428Y-28000714D01*
X9237857Y-27986429D01*
X9223571Y-27972143D01*
X9509286Y-27700714D02*
X9509286Y-27757857D01*
X9623571Y-27700714D02*
X9623571Y-27757857D01*
X10066428Y-28115000D02*
X10052143Y-28100714D01*
X10023571Y-28057857D01*
X10009286Y-28029286D01*
X9995000Y-27986429D01*
X9980714Y-27915000D01*
X9980714Y-27857857D01*
X9995000Y-27786429D01*
X10009286Y-27743571D01*
X10023571Y-27715000D01*
X10052143Y-27672143D01*
X10066428Y-27657857D01*
X10337857Y-28000714D02*
X10166428Y-28000714D01*
X10252143Y-28000714D02*
X10252143Y-27700714D01*
X10223571Y-27743571D01*
X10195000Y-27772143D01*
X10166428Y-27786429D01*
X10509286Y-27829286D02*
X10480714Y-27815000D01*
X10466428Y-27800714D01*
X10452143Y-27772143D01*
X10452143Y-27757857D01*
X10466428Y-27729286D01*
X10480714Y-27715000D01*
X10509286Y-27700714D01*
X10566428Y-27700714D01*
X10595000Y-27715000D01*
X10609286Y-27729286D01*
X10623571Y-27757857D01*
X10623571Y-27772143D01*
X10609286Y-27800714D01*
X10595000Y-27815000D01*
X10566428Y-27829286D01*
X10509286Y-27829286D01*
X10480714Y-27843571D01*
X10466428Y-27857857D01*
X10452143Y-27886429D01*
X10452143Y-27943571D01*
X10466428Y-27972143D01*
X10480714Y-27986429D01*
X10509286Y-28000714D01*
X10566428Y-28000714D01*
X10595000Y-27986429D01*
X10609286Y-27972143D01*
X10623571Y-27943571D01*
X10623571Y-27886429D01*
X10609286Y-27857857D01*
X10595000Y-27843571D01*
X10566428Y-27829286D01*
X10980714Y-28000714D02*
X10980714Y-27700714D01*
X11109286Y-28000714D02*
X11109286Y-27843571D01*
X11095000Y-27815000D01*
X11066428Y-27800714D01*
X11023571Y-27800714D01*
X10995000Y-27815000D01*
X10980714Y-27829286D01*
X11295000Y-28000714D02*
X11266428Y-27986429D01*
X11252143Y-27972143D01*
X11237857Y-27943571D01*
X11237857Y-27857857D01*
X11252143Y-27829286D01*
X11266428Y-27815000D01*
X11295000Y-27800714D01*
X11337857Y-27800714D01*
X11366428Y-27815000D01*
X11380714Y-27829286D01*
X11395000Y-27857857D01*
X11395000Y-27943571D01*
X11380714Y-27972143D01*
X11366428Y-27986429D01*
X11337857Y-28000714D01*
X11295000Y-28000714D01*
X11566428Y-28000714D02*
X11537857Y-27986429D01*
X11523571Y-27957857D01*
X11523571Y-27700714D01*
X11795000Y-27986429D02*
X11766428Y-28000714D01*
X11709286Y-28000714D01*
X11680714Y-27986429D01*
X11666428Y-27957857D01*
X11666428Y-27843571D01*
X11680714Y-27815000D01*
X11709286Y-27800714D01*
X11766428Y-27800714D01*
X11795000Y-27815000D01*
X11809286Y-27843571D01*
X11809286Y-27872143D01*
X11666428Y-27900714D01*
X11923571Y-27986429D02*
X11952143Y-28000714D01*
X12009286Y-28000714D01*
X12037857Y-27986429D01*
X12052143Y-27957857D01*
X12052143Y-27943571D01*
X12037857Y-27915000D01*
X12009286Y-27900714D01*
X11966428Y-27900714D01*
X11937857Y-27886429D01*
X11923571Y-27857857D01*
X11923571Y-27843571D01*
X11937857Y-27815000D01*
X11966428Y-27800714D01*
X12009286Y-27800714D01*
X12037857Y-27815000D01*
X12152143Y-28115000D02*
X12166428Y-28100714D01*
X12195000Y-28057857D01*
X12209286Y-28029286D01*
X12223571Y-27986429D01*
X12237857Y-27915000D01*
X12237857Y-27857857D01*
X12223571Y-27786429D01*
X12209286Y-27743571D01*
X12195000Y-27715000D01*
X12166428Y-27672143D01*
X12152143Y-27657857D01*
D12*
X5395000Y-28261000D02*
G75*
G03X5395000Y-28261000I-50000J0D01*
G74*
G01*
D13*
X5823571Y-28396714D02*
X5652143Y-28396714D01*
X5737857Y-28396714D02*
X5737857Y-28096714D01*
X5709286Y-28139571D01*
X5680714Y-28168143D01*
X5652143Y-28182429D01*
X5952143Y-28368143D02*
X5966428Y-28382429D01*
X5952143Y-28396714D01*
X5937857Y-28382429D01*
X5952143Y-28368143D01*
X5952143Y-28396714D01*
X6152143Y-28096714D02*
X6180714Y-28096714D01*
X6209286Y-28111000D01*
X6223571Y-28125286D01*
X6237857Y-28153857D01*
X6252143Y-28211000D01*
X6252143Y-28282429D01*
X6237857Y-28339571D01*
X6223571Y-28368143D01*
X6209286Y-28382429D01*
X6180714Y-28396714D01*
X6152143Y-28396714D01*
X6123571Y-28382429D01*
X6109286Y-28368143D01*
X6095000Y-28339571D01*
X6080714Y-28282429D01*
X6080714Y-28211000D01*
X6095000Y-28153857D01*
X6109286Y-28125286D01*
X6123571Y-28111000D01*
X6152143Y-28096714D01*
X6437857Y-28096714D02*
X6466428Y-28096714D01*
X6495000Y-28111000D01*
X6509286Y-28125286D01*
X6523571Y-28153857D01*
X6537857Y-28211000D01*
X6537857Y-28282429D01*
X6523571Y-28339571D01*
X6509286Y-28368143D01*
X6495000Y-28382429D01*
X6466428Y-28396714D01*
X6437857Y-28396714D01*
X6409286Y-28382429D01*
X6395000Y-28368143D01*
X6380714Y-28339571D01*
X6366428Y-28282429D01*
X6366428Y-28211000D01*
X6380714Y-28153857D01*
X6395000Y-28125286D01*
X6409286Y-28111000D01*
X6437857Y-28096714D01*
X6666428Y-28396714D02*
X6666428Y-28196714D01*
X6666428Y-28225286D02*
X6680714Y-28211000D01*
X6709286Y-28196714D01*
X6752143Y-28196714D01*
X6780714Y-28211000D01*
X6795000Y-28239571D01*
X6795000Y-28396714D01*
X6795000Y-28239571D02*
X6809286Y-28211000D01*
X6837857Y-28196714D01*
X6880714Y-28196714D01*
X6909286Y-28211000D01*
X6923571Y-28239571D01*
X6923571Y-28396714D01*
X7066428Y-28396714D02*
X7066428Y-28196714D01*
X7066428Y-28225286D02*
X7080714Y-28211000D01*
X7109286Y-28196714D01*
X7152143Y-28196714D01*
X7180714Y-28211000D01*
X7195000Y-28239571D01*
X7195000Y-28396714D01*
X7195000Y-28239571D02*
X7209286Y-28211000D01*
X7237857Y-28196714D01*
X7280714Y-28196714D01*
X7309286Y-28211000D01*
X7323571Y-28239571D01*
X7323571Y-28396714D01*
X7909286Y-28082429D02*
X7652143Y-28468143D01*
X8295000Y-28096714D02*
X8323571Y-28096714D01*
X8352143Y-28111000D01*
X8366428Y-28125286D01*
X8380714Y-28153857D01*
X8395000Y-28211000D01*
X8395000Y-28282429D01*
X8380714Y-28339571D01*
X8366428Y-28368143D01*
X8352143Y-28382429D01*
X8323571Y-28396714D01*
X8295000Y-28396714D01*
X8266428Y-28382429D01*
X8252143Y-28368143D01*
X8237857Y-28339571D01*
X8223571Y-28282429D01*
X8223571Y-28211000D01*
X8237857Y-28153857D01*
X8252143Y-28125286D01*
X8266428Y-28111000D01*
X8295000Y-28096714D01*
X8523571Y-28368143D02*
X8537857Y-28382429D01*
X8523571Y-28396714D01*
X8509286Y-28382429D01*
X8523571Y-28368143D01*
X8523571Y-28396714D01*
X8723571Y-28096714D02*
X8752143Y-28096714D01*
X8780714Y-28111000D01*
X8795000Y-28125286D01*
X8809286Y-28153857D01*
X8823571Y-28211000D01*
X8823571Y-28282429D01*
X8809286Y-28339571D01*
X8795000Y-28368143D01*
X8780714Y-28382429D01*
X8752143Y-28396714D01*
X8723571Y-28396714D01*
X8695000Y-28382429D01*
X8680714Y-28368143D01*
X8666428Y-28339571D01*
X8652143Y-28282429D01*
X8652143Y-28211000D01*
X8666428Y-28153857D01*
X8680714Y-28125286D01*
X8695000Y-28111000D01*
X8723571Y-28096714D01*
X8923571Y-28096714D02*
X9109286Y-28096714D01*
X9009286Y-28211000D01*
X9052143Y-28211000D01*
X9080714Y-28225286D01*
X9095000Y-28239571D01*
X9109286Y-28268143D01*
X9109286Y-28339571D01*
X9095000Y-28368143D01*
X9080714Y-28382429D01*
X9052143Y-28396714D01*
X8966428Y-28396714D01*
X8937857Y-28382429D01*
X8923571Y-28368143D01*
X9252143Y-28396714D02*
X9309286Y-28396714D01*
X9337857Y-28382429D01*
X9352143Y-28368143D01*
X9380714Y-28325286D01*
X9395000Y-28268143D01*
X9395000Y-28153857D01*
X9380714Y-28125286D01*
X9366428Y-28111000D01*
X9337857Y-28096714D01*
X9280714Y-28096714D01*
X9252143Y-28111000D01*
X9237857Y-28125286D01*
X9223571Y-28153857D01*
X9223571Y-28225286D01*
X9237857Y-28253857D01*
X9252143Y-28268143D01*
X9280714Y-28282429D01*
X9337857Y-28282429D01*
X9366428Y-28268143D01*
X9380714Y-28253857D01*
X9395000Y-28225286D01*
X9509286Y-28096714D02*
X9509286Y-28153857D01*
X9623571Y-28096714D02*
X9623571Y-28153857D01*
X10066428Y-28511000D02*
X10052143Y-28496714D01*
X10023571Y-28453857D01*
X10009286Y-28425286D01*
X9995000Y-28382429D01*
X9980714Y-28311000D01*
X9980714Y-28253857D01*
X9995000Y-28182429D01*
X10009286Y-28139571D01*
X10023571Y-28111000D01*
X10052143Y-28068143D01*
X10066428Y-28053857D01*
X10237857Y-28096714D02*
X10266428Y-28096714D01*
X10295000Y-28111000D01*
X10309286Y-28125286D01*
X10323571Y-28153857D01*
X10337857Y-28211000D01*
X10337857Y-28282429D01*
X10323571Y-28339571D01*
X10309286Y-28368143D01*
X10295000Y-28382429D01*
X10266428Y-28396714D01*
X10237857Y-28396714D01*
X10209286Y-28382429D01*
X10195000Y-28368143D01*
X10180714Y-28339571D01*
X10166428Y-28282429D01*
X10166428Y-28211000D01*
X10180714Y-28153857D01*
X10195000Y-28125286D01*
X10209286Y-28111000D01*
X10237857Y-28096714D01*
X10695000Y-28396714D02*
X10695000Y-28096714D01*
X10823571Y-28396714D02*
X10823571Y-28239571D01*
X10809286Y-28211000D01*
X10780714Y-28196714D01*
X10737857Y-28196714D01*
X10709286Y-28211000D01*
X10695000Y-28225286D01*
X11009286Y-28396714D02*
X10980714Y-28382429D01*
X10966428Y-28368143D01*
X10952143Y-28339571D01*
X10952143Y-28253857D01*
X10966428Y-28225286D01*
X10980714Y-28211000D01*
X11009286Y-28196714D01*
X11052143Y-28196714D01*
X11080714Y-28211000D01*
X11095000Y-28225286D01*
X11109286Y-28253857D01*
X11109286Y-28339571D01*
X11095000Y-28368143D01*
X11080714Y-28382429D01*
X11052143Y-28396714D01*
X11009286Y-28396714D01*
X11280714Y-28396714D02*
X11252143Y-28382429D01*
X11237857Y-28353857D01*
X11237857Y-28096714D01*
X11509286Y-28382429D02*
X11480714Y-28396714D01*
X11423571Y-28396714D01*
X11395000Y-28382429D01*
X11380714Y-28353857D01*
X11380714Y-28239571D01*
X11395000Y-28211000D01*
X11423571Y-28196714D01*
X11480714Y-28196714D01*
X11509286Y-28211000D01*
X11523571Y-28239571D01*
X11523571Y-28268143D01*
X11380714Y-28296714D01*
X11637857Y-28382429D02*
X11666428Y-28396714D01*
X11723571Y-28396714D01*
X11752143Y-28382429D01*
X11766428Y-28353857D01*
X11766428Y-28339571D01*
X11752143Y-28311000D01*
X11723571Y-28296714D01*
X11680714Y-28296714D01*
X11652143Y-28282429D01*
X11637857Y-28253857D01*
X11637857Y-28239571D01*
X11652143Y-28211000D01*
X11680714Y-28196714D01*
X11723571Y-28196714D01*
X11752143Y-28211000D01*
X12123571Y-28282429D02*
X12352143Y-28282429D01*
X12237857Y-28396714D02*
X12237857Y-28168143D01*
X12866428Y-28096714D02*
X12723571Y-28096714D01*
X12709286Y-28239571D01*
X12723571Y-28225286D01*
X12752143Y-28211000D01*
X12823571Y-28211000D01*
X12852143Y-28225286D01*
X12866428Y-28239571D01*
X12880714Y-28268143D01*
X12880714Y-28339571D01*
X12866428Y-28368143D01*
X12852143Y-28382429D01*
X12823571Y-28396714D01*
X12752143Y-28396714D01*
X12723571Y-28382429D01*
X12709286Y-28368143D01*
X13223571Y-28382429D02*
X13252143Y-28396714D01*
X13309285Y-28396714D01*
X13337857Y-28382429D01*
X13352143Y-28353857D01*
X13352143Y-28339571D01*
X13337857Y-28311000D01*
X13309285Y-28296714D01*
X13266428Y-28296714D01*
X13237857Y-28282429D01*
X13223571Y-28253857D01*
X13223571Y-28239571D01*
X13237857Y-28211000D01*
X13266428Y-28196714D01*
X13309285Y-28196714D01*
X13337857Y-28211000D01*
X13523571Y-28396714D02*
X13495000Y-28382429D01*
X13480714Y-28353857D01*
X13480714Y-28096714D01*
X13680714Y-28396714D02*
X13652143Y-28382429D01*
X13637857Y-28368143D01*
X13623571Y-28339571D01*
X13623571Y-28253857D01*
X13637857Y-28225286D01*
X13652143Y-28211000D01*
X13680714Y-28196714D01*
X13723571Y-28196714D01*
X13752143Y-28211000D01*
X13766428Y-28225286D01*
X13780714Y-28253857D01*
X13780714Y-28339571D01*
X13766428Y-28368143D01*
X13752143Y-28382429D01*
X13723571Y-28396714D01*
X13680714Y-28396714D01*
X13866428Y-28196714D02*
X13980714Y-28196714D01*
X13909286Y-28096714D02*
X13909286Y-28353857D01*
X13923571Y-28382429D01*
X13952143Y-28396714D01*
X13980714Y-28396714D01*
X14066428Y-28382429D02*
X14095000Y-28396714D01*
X14152143Y-28396714D01*
X14180714Y-28382429D01*
X14195000Y-28353857D01*
X14195000Y-28339571D01*
X14180714Y-28311000D01*
X14152143Y-28296714D01*
X14109286Y-28296714D01*
X14080714Y-28282429D01*
X14066428Y-28253857D01*
X14066428Y-28239571D01*
X14080714Y-28211000D01*
X14109286Y-28196714D01*
X14152143Y-28196714D01*
X14180714Y-28211000D01*
X14295000Y-28511000D02*
X14309286Y-28496714D01*
X14337857Y-28453857D01*
X14352143Y-28425286D01*
X14366428Y-28382429D01*
X14380714Y-28311000D01*
X14380714Y-28253857D01*
X14366428Y-28182429D01*
X14352143Y-28139571D01*
X14337857Y-28111000D01*
X14309286Y-28068143D01*
X14295000Y-28053857D01*
X5344000Y-28606000D02*
X5344000Y-28708000D01*
X5293000Y-28657000D02*
X5395000Y-28657000D01*
X5823571Y-28792714D02*
X5652143Y-28792714D01*
X5737857Y-28792714D02*
X5737857Y-28492714D01*
X5709286Y-28535571D01*
X5680714Y-28564143D01*
X5652143Y-28578429D01*
X5952143Y-28764143D02*
X5966428Y-28778429D01*
X5952143Y-28792714D01*
X5937857Y-28778429D01*
X5952143Y-28764143D01*
X5952143Y-28792714D01*
X6152143Y-28492714D02*
X6180714Y-28492714D01*
X6209286Y-28507000D01*
X6223571Y-28521286D01*
X6237857Y-28549857D01*
X6252143Y-28607000D01*
X6252143Y-28678429D01*
X6237857Y-28735571D01*
X6223571Y-28764143D01*
X6209286Y-28778429D01*
X6180714Y-28792714D01*
X6152143Y-28792714D01*
X6123571Y-28778429D01*
X6109286Y-28764143D01*
X6095000Y-28735571D01*
X6080714Y-28678429D01*
X6080714Y-28607000D01*
X6095000Y-28549857D01*
X6109286Y-28521286D01*
X6123571Y-28507000D01*
X6152143Y-28492714D01*
X6366428Y-28521286D02*
X6380714Y-28507000D01*
X6409286Y-28492714D01*
X6480714Y-28492714D01*
X6509286Y-28507000D01*
X6523571Y-28521286D01*
X6537857Y-28549857D01*
X6537857Y-28578429D01*
X6523571Y-28621286D01*
X6352143Y-28792714D01*
X6537857Y-28792714D01*
X6666428Y-28792714D02*
X6666428Y-28592714D01*
X6666428Y-28621286D02*
X6680714Y-28607000D01*
X6709286Y-28592714D01*
X6752143Y-28592714D01*
X6780714Y-28607000D01*
X6795000Y-28635571D01*
X6795000Y-28792714D01*
X6795000Y-28635571D02*
X6809286Y-28607000D01*
X6837857Y-28592714D01*
X6880714Y-28592714D01*
X6909286Y-28607000D01*
X6923571Y-28635571D01*
X6923571Y-28792714D01*
X7066428Y-28792714D02*
X7066428Y-28592714D01*
X7066428Y-28621286D02*
X7080714Y-28607000D01*
X7109286Y-28592714D01*
X7152143Y-28592714D01*
X7180714Y-28607000D01*
X7195000Y-28635571D01*
X7195000Y-28792714D01*
X7195000Y-28635571D02*
X7209286Y-28607000D01*
X7237857Y-28592714D01*
X7280714Y-28592714D01*
X7309286Y-28607000D01*
X7323571Y-28635571D01*
X7323571Y-28792714D01*
X7909286Y-28478429D02*
X7652143Y-28864143D01*
X8295000Y-28492714D02*
X8323571Y-28492714D01*
X8352143Y-28507000D01*
X8366428Y-28521286D01*
X8380714Y-28549857D01*
X8395000Y-28607000D01*
X8395000Y-28678429D01*
X8380714Y-28735571D01*
X8366428Y-28764143D01*
X8352143Y-28778429D01*
X8323571Y-28792714D01*
X8295000Y-28792714D01*
X8266428Y-28778429D01*
X8252143Y-28764143D01*
X8237857Y-28735571D01*
X8223571Y-28678429D01*
X8223571Y-28607000D01*
X8237857Y-28549857D01*
X8252143Y-28521286D01*
X8266428Y-28507000D01*
X8295000Y-28492714D01*
X8523571Y-28764143D02*
X8537857Y-28778429D01*
X8523571Y-28792714D01*
X8509286Y-28778429D01*
X8523571Y-28764143D01*
X8523571Y-28792714D01*
X8723571Y-28492714D02*
X8752143Y-28492714D01*
X8780714Y-28507000D01*
X8795000Y-28521286D01*
X8809286Y-28549857D01*
X8823571Y-28607000D01*
X8823571Y-28678429D01*
X8809286Y-28735571D01*
X8795000Y-28764143D01*
X8780714Y-28778429D01*
X8752143Y-28792714D01*
X8723571Y-28792714D01*
X8695000Y-28778429D01*
X8680714Y-28764143D01*
X8666428Y-28735571D01*
X8652143Y-28678429D01*
X8652143Y-28607000D01*
X8666428Y-28549857D01*
X8680714Y-28521286D01*
X8695000Y-28507000D01*
X8723571Y-28492714D01*
X9080714Y-28592714D02*
X9080714Y-28792714D01*
X9009286Y-28478429D02*
X8937857Y-28692714D01*
X9123571Y-28692714D01*
X9295000Y-28492714D02*
X9323571Y-28492714D01*
X9352143Y-28507000D01*
X9366428Y-28521286D01*
X9380714Y-28549857D01*
X9395000Y-28607000D01*
X9395000Y-28678429D01*
X9380714Y-28735571D01*
X9366428Y-28764143D01*
X9352143Y-28778429D01*
X9323571Y-28792714D01*
X9295000Y-28792714D01*
X9266428Y-28778429D01*
X9252143Y-28764143D01*
X9237857Y-28735571D01*
X9223571Y-28678429D01*
X9223571Y-28607000D01*
X9237857Y-28549857D01*
X9252143Y-28521286D01*
X9266428Y-28507000D01*
X9295000Y-28492714D01*
X9509286Y-28492714D02*
X9509286Y-28549857D01*
X9623571Y-28492714D02*
X9623571Y-28549857D01*
X10066428Y-28907000D02*
X10052143Y-28892714D01*
X10023571Y-28849857D01*
X10009286Y-28821286D01*
X9995000Y-28778429D01*
X9980714Y-28707000D01*
X9980714Y-28649857D01*
X9995000Y-28578429D01*
X10009286Y-28535571D01*
X10023571Y-28507000D01*
X10052143Y-28464143D01*
X10066428Y-28449857D01*
X10152143Y-28492714D02*
X10337857Y-28492714D01*
X10237857Y-28607000D01*
X10280714Y-28607000D01*
X10309286Y-28621286D01*
X10323571Y-28635571D01*
X10337857Y-28664143D01*
X10337857Y-28735571D01*
X10323571Y-28764143D01*
X10309286Y-28778429D01*
X10280714Y-28792714D01*
X10195000Y-28792714D01*
X10166428Y-28778429D01*
X10152143Y-28764143D01*
X10609286Y-28492714D02*
X10466428Y-28492714D01*
X10452143Y-28635571D01*
X10466428Y-28621286D01*
X10495000Y-28607000D01*
X10566428Y-28607000D01*
X10595000Y-28621286D01*
X10609286Y-28635571D01*
X10623571Y-28664143D01*
X10623571Y-28735571D01*
X10609286Y-28764143D01*
X10595000Y-28778429D01*
X10566428Y-28792714D01*
X10495000Y-28792714D01*
X10466428Y-28778429D01*
X10452143Y-28764143D01*
X10980714Y-28792714D02*
X10980714Y-28492714D01*
X11109286Y-28792714D02*
X11109286Y-28635571D01*
X11095000Y-28607000D01*
X11066428Y-28592714D01*
X11023571Y-28592714D01*
X10995000Y-28607000D01*
X10980714Y-28621286D01*
X11295000Y-28792714D02*
X11266428Y-28778429D01*
X11252143Y-28764143D01*
X11237857Y-28735571D01*
X11237857Y-28649857D01*
X11252143Y-28621286D01*
X11266428Y-28607000D01*
X11295000Y-28592714D01*
X11337857Y-28592714D01*
X11366428Y-28607000D01*
X11380714Y-28621286D01*
X11395000Y-28649857D01*
X11395000Y-28735571D01*
X11380714Y-28764143D01*
X11366428Y-28778429D01*
X11337857Y-28792714D01*
X11295000Y-28792714D01*
X11566428Y-28792714D02*
X11537857Y-28778429D01*
X11523571Y-28749857D01*
X11523571Y-28492714D01*
X11795000Y-28778429D02*
X11766428Y-28792714D01*
X11709286Y-28792714D01*
X11680714Y-28778429D01*
X11666428Y-28749857D01*
X11666428Y-28635571D01*
X11680714Y-28607000D01*
X11709286Y-28592714D01*
X11766428Y-28592714D01*
X11795000Y-28607000D01*
X11809286Y-28635571D01*
X11809286Y-28664143D01*
X11666428Y-28692714D01*
X11923571Y-28778429D02*
X11952143Y-28792714D01*
X12009286Y-28792714D01*
X12037857Y-28778429D01*
X12052143Y-28749857D01*
X12052143Y-28735571D01*
X12037857Y-28707000D01*
X12009286Y-28692714D01*
X11966428Y-28692714D01*
X11937857Y-28678429D01*
X11923571Y-28649857D01*
X11923571Y-28635571D01*
X11937857Y-28607000D01*
X11966428Y-28592714D01*
X12009286Y-28592714D01*
X12037857Y-28607000D01*
X12152143Y-28907000D02*
X12166428Y-28892714D01*
X12195000Y-28849857D01*
X12209286Y-28821286D01*
X12223571Y-28778429D01*
X12237857Y-28707000D01*
X12237857Y-28649857D01*
X12223571Y-28578429D01*
X12209286Y-28535571D01*
X12195000Y-28507000D01*
X12166428Y-28464143D01*
X12152143Y-28449857D01*
D12*
D13*
X5823571Y-29188714D02*
X5652143Y-29188714D01*
X5737857Y-29188714D02*
X5737857Y-28888714D01*
X5709286Y-28931571D01*
X5680714Y-28960143D01*
X5652143Y-28974429D01*
X5952143Y-29160143D02*
X5966428Y-29174429D01*
X5952143Y-29188714D01*
X5937857Y-29174429D01*
X5952143Y-29160143D01*
X5952143Y-29188714D01*
X6080714Y-28917286D02*
X6095000Y-28903000D01*
X6123571Y-28888714D01*
X6195000Y-28888714D01*
X6223571Y-28903000D01*
X6237857Y-28917286D01*
X6252143Y-28945857D01*
X6252143Y-28974429D01*
X6237857Y-29017286D01*
X6066428Y-29188714D01*
X6252143Y-29188714D01*
X6352143Y-28888714D02*
X6552143Y-28888714D01*
X6423571Y-29188714D01*
X6666428Y-29188714D02*
X6666428Y-28988714D01*
X6666428Y-29017286D02*
X6680714Y-29003000D01*
X6709286Y-28988714D01*
X6752143Y-28988714D01*
X6780714Y-29003000D01*
X6795000Y-29031571D01*
X6795000Y-29188714D01*
X6795000Y-29031571D02*
X6809286Y-29003000D01*
X6837857Y-28988714D01*
X6880714Y-28988714D01*
X6909286Y-29003000D01*
X6923571Y-29031571D01*
X6923571Y-29188714D01*
X7066428Y-29188714D02*
X7066428Y-28988714D01*
X7066428Y-29017286D02*
X7080714Y-29003000D01*
X7109286Y-28988714D01*
X7152143Y-28988714D01*
X7180714Y-29003000D01*
X7195000Y-29031571D01*
X7195000Y-29188714D01*
X7195000Y-29031571D02*
X7209286Y-29003000D01*
X7237857Y-28988714D01*
X7280714Y-28988714D01*
X7309286Y-29003000D01*
X7323571Y-29031571D01*
X7323571Y-29188714D01*
X7909286Y-28874429D02*
X7652143Y-29260143D01*
X8295000Y-28888714D02*
X8323571Y-28888714D01*
X8352143Y-28903000D01*
X8366428Y-28917286D01*
X8380714Y-28945857D01*
X8395000Y-29003000D01*
X8395000Y-29074429D01*
X8380714Y-29131571D01*
X8366428Y-29160143D01*
X8352143Y-29174429D01*
X8323571Y-29188714D01*
X8295000Y-29188714D01*
X8266428Y-29174429D01*
X8252143Y-29160143D01*
X8237857Y-29131571D01*
X8223571Y-29074429D01*
X8223571Y-29003000D01*
X8237857Y-28945857D01*
X8252143Y-28917286D01*
X8266428Y-28903000D01*
X8295000Y-28888714D01*
X8523571Y-29160143D02*
X8537857Y-29174429D01*
X8523571Y-29188714D01*
X8509286Y-29174429D01*
X8523571Y-29160143D01*
X8523571Y-29188714D01*
X8723571Y-28888714D02*
X8752143Y-28888714D01*
X8780714Y-28903000D01*
X8795000Y-28917286D01*
X8809286Y-28945857D01*
X8823571Y-29003000D01*
X8823571Y-29074429D01*
X8809286Y-29131571D01*
X8795000Y-29160143D01*
X8780714Y-29174429D01*
X8752143Y-29188714D01*
X8723571Y-29188714D01*
X8695000Y-29174429D01*
X8680714Y-29160143D01*
X8666428Y-29131571D01*
X8652143Y-29074429D01*
X8652143Y-29003000D01*
X8666428Y-28945857D01*
X8680714Y-28917286D01*
X8695000Y-28903000D01*
X8723571Y-28888714D01*
X9095000Y-28888714D02*
X8952143Y-28888714D01*
X8937857Y-29031571D01*
X8952143Y-29017286D01*
X8980714Y-29003000D01*
X9052143Y-29003000D01*
X9080714Y-29017286D01*
X9095000Y-29031571D01*
X9109286Y-29060143D01*
X9109286Y-29131571D01*
X9095000Y-29160143D01*
X9080714Y-29174429D01*
X9052143Y-29188714D01*
X8980714Y-29188714D01*
X8952143Y-29174429D01*
X8937857Y-29160143D01*
X9295000Y-28888714D02*
X9323571Y-28888714D01*
X9352143Y-28903000D01*
X9366428Y-28917286D01*
X9380714Y-28945857D01*
X9395000Y-29003000D01*
X9395000Y-29074429D01*
X9380714Y-29131571D01*
X9366428Y-29160143D01*
X9352143Y-29174429D01*
X9323571Y-29188714D01*
X9295000Y-29188714D01*
X9266428Y-29174429D01*
X9252143Y-29160143D01*
X9237857Y-29131571D01*
X9223571Y-29074429D01*
X9223571Y-29003000D01*
X9237857Y-28945857D01*
X9252143Y-28917286D01*
X9266428Y-28903000D01*
X9295000Y-28888714D01*
X9509286Y-28888714D02*
X9509286Y-28945857D01*
X9623571Y-28888714D02*
X9623571Y-28945857D01*
X10066428Y-29303000D02*
X10052143Y-29288714D01*
X10023571Y-29245857D01*
X10009286Y-29217286D01*
X9995000Y-29174429D01*
X9980714Y-29103000D01*
X9980714Y-29045857D01*
X9995000Y-28974429D01*
X10009286Y-28931571D01*
X10023571Y-28903000D01*
X10052143Y-28860143D01*
X10066428Y-28845857D01*
X10166428Y-28917286D02*
X10180714Y-28903000D01*
X10209286Y-28888714D01*
X10280714Y-28888714D01*
X10309286Y-28903000D01*
X10323571Y-28917286D01*
X10337857Y-28945857D01*
X10337857Y-28974429D01*
X10323571Y-29017286D01*
X10152143Y-29188714D01*
X10337857Y-29188714D01*
X10695000Y-29188714D02*
X10695000Y-28888714D01*
X10823571Y-29188714D02*
X10823571Y-29031571D01*
X10809286Y-29003000D01*
X10780714Y-28988714D01*
X10737857Y-28988714D01*
X10709286Y-29003000D01*
X10695000Y-29017286D01*
X11009286Y-29188714D02*
X10980714Y-29174429D01*
X10966428Y-29160143D01*
X10952143Y-29131571D01*
X10952143Y-29045857D01*
X10966428Y-29017286D01*
X10980714Y-29003000D01*
X11009286Y-28988714D01*
X11052143Y-28988714D01*
X11080714Y-29003000D01*
X11095000Y-29017286D01*
X11109286Y-29045857D01*
X11109286Y-29131571D01*
X11095000Y-29160143D01*
X11080714Y-29174429D01*
X11052143Y-29188714D01*
X11009286Y-29188714D01*
X11280714Y-29188714D02*
X11252143Y-29174429D01*
X11237857Y-29145857D01*
X11237857Y-28888714D01*
X11509286Y-29174429D02*
X11480714Y-29188714D01*
X11423571Y-29188714D01*
X11395000Y-29174429D01*
X11380714Y-29145857D01*
X11380714Y-29031571D01*
X11395000Y-29003000D01*
X11423571Y-28988714D01*
X11480714Y-28988714D01*
X11509286Y-29003000D01*
X11523571Y-29031571D01*
X11523571Y-29060143D01*
X11380714Y-29088714D01*
X11637857Y-29174429D02*
X11666428Y-29188714D01*
X11723571Y-29188714D01*
X11752143Y-29174429D01*
X11766428Y-29145857D01*
X11766428Y-29131571D01*
X11752143Y-29103000D01*
X11723571Y-29088714D01*
X11680714Y-29088714D01*
X11652143Y-29074429D01*
X11637857Y-29045857D01*
X11637857Y-29031571D01*
X11652143Y-29003000D01*
X11680714Y-28988714D01*
X11723571Y-28988714D01*
X11752143Y-29003000D01*
X11866428Y-29303000D02*
X11880714Y-29288714D01*
X11909286Y-29245857D01*
X11923571Y-29217286D01*
X11937857Y-29174429D01*
X11952143Y-29103000D01*
X11952143Y-29045857D01*
X11937857Y-28974429D01*
X11923571Y-28931571D01*
X11909286Y-28903000D01*
X11880714Y-28860143D01*
X11866428Y-28845857D01*
D12*
D13*
X5652143Y-29313286D02*
X5666428Y-29299000D01*
X5695000Y-29284714D01*
X5766428Y-29284714D01*
X5795000Y-29299000D01*
X5809286Y-29313286D01*
X5823571Y-29341857D01*
X5823571Y-29370429D01*
X5809286Y-29413286D01*
X5637857Y-29584714D01*
X5823571Y-29584714D01*
X5952143Y-29556143D02*
X5966428Y-29570429D01*
X5952143Y-29584714D01*
X5937857Y-29570429D01*
X5952143Y-29556143D01*
X5952143Y-29584714D01*
X6152143Y-29284714D02*
X6180714Y-29284714D01*
X6209286Y-29299000D01*
X6223571Y-29313286D01*
X6237857Y-29341857D01*
X6252143Y-29399000D01*
X6252143Y-29470429D01*
X6237857Y-29527571D01*
X6223571Y-29556143D01*
X6209286Y-29570429D01*
X6180714Y-29584714D01*
X6152143Y-29584714D01*
X6123571Y-29570429D01*
X6109286Y-29556143D01*
X6095000Y-29527571D01*
X6080714Y-29470429D01*
X6080714Y-29399000D01*
X6095000Y-29341857D01*
X6109286Y-29313286D01*
X6123571Y-29299000D01*
X6152143Y-29284714D01*
X6437857Y-29284714D02*
X6466428Y-29284714D01*
X6495000Y-29299000D01*
X6509286Y-29313286D01*
X6523571Y-29341857D01*
X6537857Y-29399000D01*
X6537857Y-29470429D01*
X6523571Y-29527571D01*
X6509286Y-29556143D01*
X6495000Y-29570429D01*
X6466428Y-29584714D01*
X6437857Y-29584714D01*
X6409286Y-29570429D01*
X6395000Y-29556143D01*
X6380714Y-29527571D01*
X6366428Y-29470429D01*
X6366428Y-29399000D01*
X6380714Y-29341857D01*
X6395000Y-29313286D01*
X6409286Y-29299000D01*
X6437857Y-29284714D01*
X6666428Y-29584714D02*
X6666428Y-29384714D01*
X6666428Y-29413286D02*
X6680714Y-29399000D01*
X6709286Y-29384714D01*
X6752143Y-29384714D01*
X6780714Y-29399000D01*
X6795000Y-29427571D01*
X6795000Y-29584714D01*
X6795000Y-29427571D02*
X6809286Y-29399000D01*
X6837857Y-29384714D01*
X6880714Y-29384714D01*
X6909286Y-29399000D01*
X6923571Y-29427571D01*
X6923571Y-29584714D01*
X7066428Y-29584714D02*
X7066428Y-29384714D01*
X7066428Y-29413286D02*
X7080714Y-29399000D01*
X7109286Y-29384714D01*
X7152143Y-29384714D01*
X7180714Y-29399000D01*
X7195000Y-29427571D01*
X7195000Y-29584714D01*
X7195000Y-29427571D02*
X7209286Y-29399000D01*
X7237857Y-29384714D01*
X7280714Y-29384714D01*
X7309286Y-29399000D01*
X7323571Y-29427571D01*
X7323571Y-29584714D01*
X7909286Y-29270429D02*
X7652143Y-29656143D01*
X8295000Y-29284714D02*
X8323571Y-29284714D01*
X8352143Y-29299000D01*
X8366428Y-29313286D01*
X8380714Y-29341857D01*
X8395000Y-29399000D01*
X8395000Y-29470429D01*
X8380714Y-29527571D01*
X8366428Y-29556143D01*
X8352143Y-29570429D01*
X8323571Y-29584714D01*
X8295000Y-29584714D01*
X8266428Y-29570429D01*
X8252143Y-29556143D01*
X8237857Y-29527571D01*
X8223571Y-29470429D01*
X8223571Y-29399000D01*
X8237857Y-29341857D01*
X8252143Y-29313286D01*
X8266428Y-29299000D01*
X8295000Y-29284714D01*
X8523571Y-29556143D02*
X8537857Y-29570429D01*
X8523571Y-29584714D01*
X8509286Y-29570429D01*
X8523571Y-29556143D01*
X8523571Y-29584714D01*
X8723571Y-29284714D02*
X8752143Y-29284714D01*
X8780714Y-29299000D01*
X8795000Y-29313286D01*
X8809286Y-29341857D01*
X8823571Y-29399000D01*
X8823571Y-29470429D01*
X8809286Y-29527571D01*
X8795000Y-29556143D01*
X8780714Y-29570429D01*
X8752143Y-29584714D01*
X8723571Y-29584714D01*
X8695000Y-29570429D01*
X8680714Y-29556143D01*
X8666428Y-29527571D01*
X8652143Y-29470429D01*
X8652143Y-29399000D01*
X8666428Y-29341857D01*
X8680714Y-29313286D01*
X8695000Y-29299000D01*
X8723571Y-29284714D01*
X8923571Y-29284714D02*
X9123571Y-29284714D01*
X8995000Y-29584714D01*
X9252143Y-29584714D02*
X9309286Y-29584714D01*
X9337857Y-29570429D01*
X9352143Y-29556143D01*
X9380714Y-29513286D01*
X9395000Y-29456143D01*
X9395000Y-29341857D01*
X9380714Y-29313286D01*
X9366428Y-29299000D01*
X9337857Y-29284714D01*
X9280714Y-29284714D01*
X9252143Y-29299000D01*
X9237857Y-29313286D01*
X9223571Y-29341857D01*
X9223571Y-29413286D01*
X9237857Y-29441857D01*
X9252143Y-29456143D01*
X9280714Y-29470429D01*
X9337857Y-29470429D01*
X9366428Y-29456143D01*
X9380714Y-29441857D01*
X9395000Y-29413286D01*
X9509286Y-29284714D02*
X9509286Y-29341857D01*
X9623571Y-29284714D02*
X9623571Y-29341857D01*
X10066428Y-29699000D02*
X10052143Y-29684714D01*
X10023571Y-29641857D01*
X10009286Y-29613286D01*
X9995000Y-29570429D01*
X9980714Y-29499000D01*
X9980714Y-29441857D01*
X9995000Y-29370429D01*
X10009286Y-29327571D01*
X10023571Y-29299000D01*
X10052143Y-29256143D01*
X10066428Y-29241857D01*
X10309286Y-29384714D02*
X10309286Y-29584714D01*
X10237857Y-29270429D02*
X10166428Y-29484714D01*
X10352143Y-29484714D01*
X10695000Y-29584714D02*
X10695000Y-29284714D01*
X10823571Y-29584714D02*
X10823571Y-29427571D01*
X10809286Y-29399000D01*
X10780714Y-29384714D01*
X10737857Y-29384714D01*
X10709286Y-29399000D01*
X10695000Y-29413286D01*
X11009286Y-29584714D02*
X10980714Y-29570429D01*
X10966428Y-29556143D01*
X10952143Y-29527571D01*
X10952143Y-29441857D01*
X10966428Y-29413286D01*
X10980714Y-29399000D01*
X11009286Y-29384714D01*
X11052143Y-29384714D01*
X11080714Y-29399000D01*
X11095000Y-29413286D01*
X11109286Y-29441857D01*
X11109286Y-29527571D01*
X11095000Y-29556143D01*
X11080714Y-29570429D01*
X11052143Y-29584714D01*
X11009286Y-29584714D01*
X11280714Y-29584714D02*
X11252143Y-29570429D01*
X11237857Y-29541857D01*
X11237857Y-29284714D01*
X11509286Y-29570429D02*
X11480714Y-29584714D01*
X11423571Y-29584714D01*
X11395000Y-29570429D01*
X11380714Y-29541857D01*
X11380714Y-29427571D01*
X11395000Y-29399000D01*
X11423571Y-29384714D01*
X11480714Y-29384714D01*
X11509286Y-29399000D01*
X11523571Y-29427571D01*
X11523571Y-29456143D01*
X11380714Y-29484714D01*
X11637857Y-29570429D02*
X11666428Y-29584714D01*
X11723571Y-29584714D01*
X11752143Y-29570429D01*
X11766428Y-29541857D01*
X11766428Y-29527571D01*
X11752143Y-29499000D01*
X11723571Y-29484714D01*
X11680714Y-29484714D01*
X11652143Y-29470429D01*
X11637857Y-29441857D01*
X11637857Y-29427571D01*
X11652143Y-29399000D01*
X11680714Y-29384714D01*
X11723571Y-29384714D01*
X11752143Y-29399000D01*
X11866428Y-29699000D02*
X11880714Y-29684714D01*
X11909286Y-29641857D01*
X11923571Y-29613286D01*
X11937857Y-29570429D01*
X11952143Y-29499000D01*
X11952143Y-29441857D01*
X11937857Y-29370429D01*
X11923571Y-29327571D01*
X11909286Y-29299000D01*
X11880714Y-29256143D01*
X11866428Y-29241857D01*
X5155000Y-29725000D02*
X5395000Y-29965000D01*
X5395000Y-29725000D02*
X5155000Y-29965000D01*
D12*
X5395000Y-29845000D02*
G75*
G03X5395000Y-29845000I-120000J0D01*
G74*
G01*
D13*
X5652143Y-29709286D02*
X5666428Y-29695000D01*
X5695000Y-29680714D01*
X5766428Y-29680714D01*
X5795000Y-29695000D01*
X5809286Y-29709286D01*
X5823571Y-29737857D01*
X5823571Y-29766429D01*
X5809286Y-29809286D01*
X5637857Y-29980714D01*
X5823571Y-29980714D01*
X5952143Y-29952143D02*
X5966428Y-29966429D01*
X5952143Y-29980714D01*
X5937857Y-29966429D01*
X5952143Y-29952143D01*
X5952143Y-29980714D01*
X6223571Y-29780714D02*
X6223571Y-29980714D01*
X6152143Y-29666429D02*
X6080714Y-29880714D01*
X6266428Y-29880714D01*
X6437857Y-29680714D02*
X6466428Y-29680714D01*
X6495000Y-29695000D01*
X6509286Y-29709286D01*
X6523571Y-29737857D01*
X6537857Y-29795000D01*
X6537857Y-29866429D01*
X6523571Y-29923571D01*
X6509286Y-29952143D01*
X6495000Y-29966429D01*
X6466428Y-29980714D01*
X6437857Y-29980714D01*
X6409286Y-29966429D01*
X6395000Y-29952143D01*
X6380714Y-29923571D01*
X6366428Y-29866429D01*
X6366428Y-29795000D01*
X6380714Y-29737857D01*
X6395000Y-29709286D01*
X6409286Y-29695000D01*
X6437857Y-29680714D01*
X6666428Y-29980714D02*
X6666428Y-29780714D01*
X6666428Y-29809286D02*
X6680714Y-29795000D01*
X6709286Y-29780714D01*
X6752143Y-29780714D01*
X6780714Y-29795000D01*
X6795000Y-29823571D01*
X6795000Y-29980714D01*
X6795000Y-29823571D02*
X6809286Y-29795000D01*
X6837857Y-29780714D01*
X6880714Y-29780714D01*
X6909286Y-29795000D01*
X6923571Y-29823571D01*
X6923571Y-29980714D01*
X7066428Y-29980714D02*
X7066428Y-29780714D01*
X7066428Y-29809286D02*
X7080714Y-29795000D01*
X7109286Y-29780714D01*
X7152143Y-29780714D01*
X7180714Y-29795000D01*
X7195000Y-29823571D01*
X7195000Y-29980714D01*
X7195000Y-29823571D02*
X7209286Y-29795000D01*
X7237857Y-29780714D01*
X7280714Y-29780714D01*
X7309286Y-29795000D01*
X7323571Y-29823571D01*
X7323571Y-29980714D01*
X7909286Y-29666429D02*
X7652143Y-30052143D01*
X8295000Y-29680714D02*
X8323571Y-29680714D01*
X8352143Y-29695000D01*
X8366428Y-29709286D01*
X8380714Y-29737857D01*
X8395000Y-29795000D01*
X8395000Y-29866429D01*
X8380714Y-29923571D01*
X8366428Y-29952143D01*
X8352143Y-29966429D01*
X8323571Y-29980714D01*
X8295000Y-29980714D01*
X8266428Y-29966429D01*
X8252143Y-29952143D01*
X8237857Y-29923571D01*
X8223571Y-29866429D01*
X8223571Y-29795000D01*
X8237857Y-29737857D01*
X8252143Y-29709286D01*
X8266428Y-29695000D01*
X8295000Y-29680714D01*
X8523571Y-29952143D02*
X8537857Y-29966429D01*
X8523571Y-29980714D01*
X8509286Y-29966429D01*
X8523571Y-29952143D01*
X8523571Y-29980714D01*
X8723571Y-29680714D02*
X8752143Y-29680714D01*
X8780714Y-29695000D01*
X8795000Y-29709286D01*
X8809286Y-29737857D01*
X8823571Y-29795000D01*
X8823571Y-29866429D01*
X8809286Y-29923571D01*
X8795000Y-29952143D01*
X8780714Y-29966429D01*
X8752143Y-29980714D01*
X8723571Y-29980714D01*
X8695000Y-29966429D01*
X8680714Y-29952143D01*
X8666428Y-29923571D01*
X8652143Y-29866429D01*
X8652143Y-29795000D01*
X8666428Y-29737857D01*
X8680714Y-29709286D01*
X8695000Y-29695000D01*
X8723571Y-29680714D01*
X8966428Y-29980714D02*
X9023571Y-29980714D01*
X9052143Y-29966429D01*
X9066428Y-29952143D01*
X9095000Y-29909286D01*
X9109286Y-29852143D01*
X9109286Y-29737857D01*
X9095000Y-29709286D01*
X9080714Y-29695000D01*
X9052143Y-29680714D01*
X8995000Y-29680714D01*
X8966428Y-29695000D01*
X8952143Y-29709286D01*
X8937857Y-29737857D01*
X8937857Y-29809286D01*
X8952143Y-29837857D01*
X8966428Y-29852143D01*
X8995000Y-29866429D01*
X9052143Y-29866429D01*
X9080714Y-29852143D01*
X9095000Y-29837857D01*
X9109286Y-29809286D01*
X9366428Y-29780714D02*
X9366428Y-29980714D01*
X9295000Y-29666429D02*
X9223571Y-29880714D01*
X9409286Y-29880714D01*
X9509286Y-29680714D02*
X9509286Y-29737857D01*
X9623571Y-29680714D02*
X9623571Y-29737857D01*
X10066428Y-30095000D02*
X10052143Y-30080714D01*
X10023571Y-30037857D01*
X10009286Y-30009286D01*
X9995000Y-29966429D01*
X9980714Y-29895000D01*
X9980714Y-29837857D01*
X9995000Y-29766429D01*
X10009286Y-29723571D01*
X10023571Y-29695000D01*
X10052143Y-29652143D01*
X10066428Y-29637857D01*
X10337857Y-29980714D02*
X10166428Y-29980714D01*
X10252143Y-29980714D02*
X10252143Y-29680714D01*
X10223571Y-29723571D01*
X10195000Y-29752143D01*
X10166428Y-29766429D01*
X10695000Y-29980714D02*
X10695000Y-29680714D01*
X10823571Y-29980714D02*
X10823571Y-29823571D01*
X10809286Y-29795000D01*
X10780714Y-29780714D01*
X10737857Y-29780714D01*
X10709286Y-29795000D01*
X10695000Y-29809286D01*
X11009286Y-29980714D02*
X10980714Y-29966429D01*
X10966428Y-29952143D01*
X10952143Y-29923571D01*
X10952143Y-29837857D01*
X10966428Y-29809286D01*
X10980714Y-29795000D01*
X11009286Y-29780714D01*
X11052143Y-29780714D01*
X11080714Y-29795000D01*
X11095000Y-29809286D01*
X11109286Y-29837857D01*
X11109286Y-29923571D01*
X11095000Y-29952143D01*
X11080714Y-29966429D01*
X11052143Y-29980714D01*
X11009286Y-29980714D01*
X11280714Y-29980714D02*
X11252143Y-29966429D01*
X11237857Y-29937857D01*
X11237857Y-29680714D01*
X11509286Y-29966429D02*
X11480714Y-29980714D01*
X11423571Y-29980714D01*
X11395000Y-29966429D01*
X11380714Y-29937857D01*
X11380714Y-29823571D01*
X11395000Y-29795000D01*
X11423571Y-29780714D01*
X11480714Y-29780714D01*
X11509286Y-29795000D01*
X11523571Y-29823571D01*
X11523571Y-29852143D01*
X11380714Y-29880714D01*
X11623571Y-30095000D02*
X11637857Y-30080714D01*
X11666428Y-30037857D01*
X11680714Y-30009286D01*
X11695000Y-29966429D01*
X11709286Y-29895000D01*
X11709286Y-29837857D01*
X11695000Y-29766429D01*
X11680714Y-29723571D01*
X11666428Y-29695000D01*
X11637857Y-29652143D01*
X11623571Y-29637857D01*
X5070000Y-30078500D02*
X5395000Y-30403500D01*
X5395000Y-30078500D02*
X5070000Y-30403500D01*
X5232500Y-30078500D02*
X5232500Y-30403500D01*
X5070000Y-30241000D02*
X5395000Y-30241000D01*
X5637857Y-30076714D02*
X5823571Y-30076714D01*
X5723571Y-30191000D01*
X5766428Y-30191000D01*
X5795000Y-30205286D01*
X5809286Y-30219571D01*
X5823571Y-30248143D01*
X5823571Y-30319571D01*
X5809286Y-30348143D01*
X5795000Y-30362429D01*
X5766428Y-30376714D01*
X5680714Y-30376714D01*
X5652143Y-30362429D01*
X5637857Y-30348143D01*
X5952143Y-30348143D02*
X5966428Y-30362429D01*
X5952143Y-30376714D01*
X5937857Y-30362429D01*
X5952143Y-30348143D01*
X5952143Y-30376714D01*
X6080714Y-30105286D02*
X6095000Y-30091000D01*
X6123571Y-30076714D01*
X6195000Y-30076714D01*
X6223571Y-30091000D01*
X6237857Y-30105286D01*
X6252143Y-30133857D01*
X6252143Y-30162429D01*
X6237857Y-30205286D01*
X6066428Y-30376714D01*
X6252143Y-30376714D01*
X6523571Y-30076714D02*
X6380714Y-30076714D01*
X6366428Y-30219571D01*
X6380714Y-30205286D01*
X6409286Y-30191000D01*
X6480714Y-30191000D01*
X6509286Y-30205286D01*
X6523571Y-30219571D01*
X6537857Y-30248143D01*
X6537857Y-30319571D01*
X6523571Y-30348143D01*
X6509286Y-30362429D01*
X6480714Y-30376714D01*
X6409286Y-30376714D01*
X6380714Y-30362429D01*
X6366428Y-30348143D01*
X6666428Y-30376714D02*
X6666428Y-30176714D01*
X6666428Y-30205286D02*
X6680714Y-30191000D01*
X6709286Y-30176714D01*
X6752143Y-30176714D01*
X6780714Y-30191000D01*
X6795000Y-30219571D01*
X6795000Y-30376714D01*
X6795000Y-30219571D02*
X6809286Y-30191000D01*
X6837857Y-30176714D01*
X6880714Y-30176714D01*
X6909286Y-30191000D01*
X6923571Y-30219571D01*
X6923571Y-30376714D01*
X7066428Y-30376714D02*
X7066428Y-30176714D01*
X7066428Y-30205286D02*
X7080714Y-30191000D01*
X7109286Y-30176714D01*
X7152143Y-30176714D01*
X7180714Y-30191000D01*
X7195000Y-30219571D01*
X7195000Y-30376714D01*
X7195000Y-30219571D02*
X7209286Y-30191000D01*
X7237857Y-30176714D01*
X7280714Y-30176714D01*
X7309286Y-30191000D01*
X7323571Y-30219571D01*
X7323571Y-30376714D01*
X7909286Y-30062429D02*
X7652143Y-30448143D01*
X8295000Y-30076714D02*
X8323571Y-30076714D01*
X8352143Y-30091000D01*
X8366428Y-30105286D01*
X8380714Y-30133857D01*
X8395000Y-30191000D01*
X8395000Y-30262429D01*
X8380714Y-30319571D01*
X8366428Y-30348143D01*
X8352143Y-30362429D01*
X8323571Y-30376714D01*
X8295000Y-30376714D01*
X8266428Y-30362429D01*
X8252143Y-30348143D01*
X8237857Y-30319571D01*
X8223571Y-30262429D01*
X8223571Y-30191000D01*
X8237857Y-30133857D01*
X8252143Y-30105286D01*
X8266428Y-30091000D01*
X8295000Y-30076714D01*
X8523571Y-30348143D02*
X8537857Y-30362429D01*
X8523571Y-30376714D01*
X8509286Y-30362429D01*
X8523571Y-30348143D01*
X8523571Y-30376714D01*
X8823571Y-30376714D02*
X8652143Y-30376714D01*
X8737857Y-30376714D02*
X8737857Y-30076714D01*
X8709286Y-30119571D01*
X8680714Y-30148143D01*
X8652143Y-30162429D01*
X8937857Y-30105286D02*
X8952143Y-30091000D01*
X8980714Y-30076714D01*
X9052143Y-30076714D01*
X9080714Y-30091000D01*
X9095000Y-30105286D01*
X9109286Y-30133857D01*
X9109286Y-30162429D01*
X9095000Y-30205286D01*
X8923571Y-30376714D01*
X9109286Y-30376714D01*
X9280714Y-30205286D02*
X9252143Y-30191000D01*
X9237857Y-30176714D01*
X9223571Y-30148143D01*
X9223571Y-30133857D01*
X9237857Y-30105286D01*
X9252143Y-30091000D01*
X9280714Y-30076714D01*
X9337857Y-30076714D01*
X9366428Y-30091000D01*
X9380714Y-30105286D01*
X9395000Y-30133857D01*
X9395000Y-30148143D01*
X9380714Y-30176714D01*
X9366428Y-30191000D01*
X9337857Y-30205286D01*
X9280714Y-30205286D01*
X9252143Y-30219571D01*
X9237857Y-30233857D01*
X9223571Y-30262429D01*
X9223571Y-30319571D01*
X9237857Y-30348143D01*
X9252143Y-30362429D01*
X9280714Y-30376714D01*
X9337857Y-30376714D01*
X9366428Y-30362429D01*
X9380714Y-30348143D01*
X9395000Y-30319571D01*
X9395000Y-30262429D01*
X9380714Y-30233857D01*
X9366428Y-30219571D01*
X9337857Y-30205286D01*
X9509286Y-30076714D02*
X9509286Y-30133857D01*
X9623571Y-30076714D02*
X9623571Y-30133857D01*
X10066428Y-30491000D02*
X10052143Y-30476714D01*
X10023571Y-30433857D01*
X10009286Y-30405286D01*
X9995000Y-30362429D01*
X9980714Y-30291000D01*
X9980714Y-30233857D01*
X9995000Y-30162429D01*
X10009286Y-30119571D01*
X10023571Y-30091000D01*
X10052143Y-30048143D01*
X10066428Y-30033857D01*
X10309286Y-30176714D02*
X10309286Y-30376714D01*
X10237857Y-30062429D02*
X10166428Y-30276714D01*
X10352143Y-30276714D01*
X10695000Y-30376714D02*
X10695000Y-30076714D01*
X10823571Y-30376714D02*
X10823571Y-30219571D01*
X10809286Y-30191000D01*
X10780714Y-30176714D01*
X10737857Y-30176714D01*
X10709286Y-30191000D01*
X10695000Y-30205286D01*
X11009286Y-30376714D02*
X10980714Y-30362429D01*
X10966428Y-30348143D01*
X10952143Y-30319571D01*
X10952143Y-30233857D01*
X10966428Y-30205286D01*
X10980714Y-30191000D01*
X11009286Y-30176714D01*
X11052143Y-30176714D01*
X11080714Y-30191000D01*
X11095000Y-30205286D01*
X11109286Y-30233857D01*
X11109286Y-30319571D01*
X11095000Y-30348143D01*
X11080714Y-30362429D01*
X11052143Y-30376714D01*
X11009286Y-30376714D01*
X11280714Y-30376714D02*
X11252143Y-30362429D01*
X11237857Y-30333857D01*
X11237857Y-30076714D01*
X11509286Y-30362429D02*
X11480714Y-30376714D01*
X11423571Y-30376714D01*
X11395000Y-30362429D01*
X11380714Y-30333857D01*
X11380714Y-30219571D01*
X11395000Y-30191000D01*
X11423571Y-30176714D01*
X11480714Y-30176714D01*
X11509286Y-30191000D01*
X11523571Y-30219571D01*
X11523571Y-30248143D01*
X11380714Y-30276714D01*
X11637857Y-30362429D02*
X11666428Y-30376714D01*
X11723571Y-30376714D01*
X11752143Y-30362429D01*
X11766428Y-30333857D01*
X11766428Y-30319571D01*
X11752143Y-30291000D01*
X11723571Y-30276714D01*
X11680714Y-30276714D01*
X11652143Y-30262429D01*
X11637857Y-30233857D01*
X11637857Y-30219571D01*
X11652143Y-30191000D01*
X11680714Y-30176714D01*
X11723571Y-30176714D01*
X11752143Y-30191000D01*
X11866428Y-30491000D02*
X11880714Y-30476714D01*
X11909286Y-30433857D01*
X11923571Y-30405286D01*
X11937857Y-30362429D01*
X11952143Y-30291000D01*
X11952143Y-30233857D01*
X11937857Y-30162429D01*
X11923571Y-30119571D01*
X11909286Y-30091000D01*
X11880714Y-30048143D01*
X11866428Y-30033857D01*
M02*
