M48
INCH,TZ
T1C0.025
T2C0.039
T3C0.083
T4C0.128
%
G90
G05
T1
X023583Y-021614
X026929Y-025807
X028839Y-101575
X032913Y-027795
X033110Y-031299
X035079Y-101575
X035591Y-027795
X036024Y-097087
X038583Y-031299
X040866Y-026299
X040984Y-101575
X041929Y-097087
X041969Y-026772
X046260Y-038780
X046850Y-101575
X047835Y-097087
X049409Y-038780
X050098Y-025000
X051299Y-021496
X052382Y-101575
X053740Y-097087
X054370Y-034094
X055394Y-031811
X055748Y-032362
X056693Y-026280
X057441Y-031811
X057835Y-032362
X058366Y-026280
X059646Y-097087
X060039Y-026280
X062283Y-026299
X062835Y-026772
X064094Y-021496
X065551Y-097087
X066732Y-027795
X069783Y-025000
X074803Y-021496
X092126Y-025000
X095276Y-021496
X095709Y-027795
X100098Y-026280
T2
X025984Y-022328
X025984Y-024128
X028618Y-103150
X029618Y-103150
X030618Y-103150
X031618Y-103150
X046835Y-018299
X046835Y-019299
X047146Y-025689
X047835Y-018299
X047835Y-019299
X047953Y-031969
X048835Y-018299
X048835Y-019299
X052067Y-025689
X055413Y-025689
X059730Y-019291
X061530Y-019291
X065035Y-019291
X065535Y-104035
X066035Y-019291
X066535Y-104035
X067035Y-019291
X067535Y-104035
X068035Y-019291
X069291Y-103035
X069291Y-104035
X069291Y-105035
X069760Y-019291
X070760Y-019291
X071760Y-019291
X072760Y-019291
X073228Y-072722
X073228Y-074522
X084114Y-019291
X085114Y-019291
X086114Y-019291
X087114Y-019291
X088114Y-019291
X089114Y-019291
X102657Y-022328
X102657Y-024128
T4
X023228Y-018110
X023228Y-103937
X054724Y-103937
X062598Y-103937
X101969Y-018110
X101969Y-103937
T3
X076870Y-103051G85X077854Y-103051
G05
X076870Y-105020G85X077854Y-105020
G05
X082776Y-103051G85X083760Y-103051
G05
X082776Y-105020G85X083760Y-105020
G05
T0
M30
