%FSLAX46Y46*%
G04 Gerber Fmt 4.6, Leading zero omitted, Abs format (unit mm)*
G04 Created by KiCad (PCBNEW (2014-09-25 BZR 5147)-product) date Monday 13 October 2014 06:08:43 PM IST*
%MOMM*%
G01*
G04 APERTURE LIST*
%ADD10C,0.150000*%
%ADD11C,0.300000*%
%ADD12C,0.100000*%
%ADD13C,2.000000*%
%ADD14C,0.200000*%
G04 APERTURE END LIST*
D10*
D11*
X242892858Y-272028570D02*
X243821429Y-272028570D01*
X243321429Y-272599999D01*
X243535715Y-272599999D01*
X243678572Y-272671428D01*
X243750001Y-272742856D01*
X243821429Y-272885713D01*
X243821429Y-273242856D01*
X243750001Y-273385713D01*
X243678572Y-273457142D01*
X243535715Y-273528570D01*
X243107143Y-273528570D01*
X242964286Y-273457142D01*
X242892858Y-273385713D01*
X244392857Y-272171428D02*
X244464286Y-272099999D01*
X244607143Y-272028570D01*
X244964286Y-272028570D01*
X245107143Y-272099999D01*
X245178572Y-272171428D01*
X245250000Y-272314285D01*
X245250000Y-272457142D01*
X245178572Y-272671428D01*
X244321429Y-273528570D01*
X245250000Y-273528570D01*
X245892857Y-273385713D02*
X245964285Y-273457142D01*
X245892857Y-273528570D01*
X245821428Y-273457142D01*
X245892857Y-273385713D01*
X245892857Y-273528570D01*
X247321429Y-272028570D02*
X246607143Y-272028570D01*
X246535714Y-272742856D01*
X246607143Y-272671428D01*
X246750000Y-272599999D01*
X247107143Y-272599999D01*
X247250000Y-272671428D01*
X247321429Y-272742856D01*
X247392857Y-272885713D01*
X247392857Y-273242856D01*
X247321429Y-273385713D01*
X247250000Y-273457142D01*
X247107143Y-273528570D01*
X246750000Y-273528570D01*
X246607143Y-273457142D01*
X246535714Y-273385713D01*
X249178571Y-273528570D02*
X249178571Y-272528570D01*
X249178571Y-272671428D02*
X249249999Y-272599999D01*
X249392857Y-272528570D01*
X249607142Y-272528570D01*
X249749999Y-272599999D01*
X249821428Y-272742856D01*
X249821428Y-273528570D01*
X249821428Y-272742856D02*
X249892857Y-272599999D01*
X250035714Y-272528570D01*
X250249999Y-272528570D01*
X250392857Y-272599999D01*
X250464285Y-272742856D01*
X250464285Y-273528570D01*
X251178571Y-273528570D02*
X251178571Y-272528570D01*
X251178571Y-272671428D02*
X251249999Y-272599999D01*
X251392857Y-272528570D01*
X251607142Y-272528570D01*
X251749999Y-272599999D01*
X251821428Y-272742856D01*
X251821428Y-273528570D01*
X251821428Y-272742856D02*
X251892857Y-272599999D01*
X252035714Y-272528570D01*
X252249999Y-272528570D01*
X252392857Y-272599999D01*
X252464285Y-272742856D01*
X252464285Y-273528570D01*
X231500000Y-271499999D02*
X264000000Y-271499999D01*
X231500000Y-269000000D02*
X231500000Y-274199999D01*
X264000000Y-269000000D02*
X264000000Y-274199999D01*
X264000000Y-271499999D02*
X262873496Y-272086420D01*
X264000000Y-271499999D02*
X262873496Y-270913578D01*
X231500000Y-271499999D02*
X232626504Y-272086420D01*
X231500000Y-271499999D02*
X232626504Y-270913578D01*
X223642858Y-273528570D02*
X222785715Y-273528570D01*
X223214287Y-273528570D02*
X223214287Y-272028570D01*
X223071430Y-272242856D01*
X222928572Y-272385713D01*
X222785715Y-272457142D01*
X224571429Y-272028570D02*
X224714286Y-272028570D01*
X224857143Y-272099999D01*
X224928572Y-272171428D01*
X225000001Y-272314285D01*
X225071429Y-272599999D01*
X225071429Y-272957142D01*
X225000001Y-273242856D01*
X224928572Y-273385713D01*
X224857143Y-273457142D01*
X224714286Y-273528570D01*
X224571429Y-273528570D01*
X224428572Y-273457142D01*
X224357143Y-273385713D01*
X224285715Y-273242856D01*
X224214286Y-272957142D01*
X224214286Y-272599999D01*
X224285715Y-272314285D01*
X224357143Y-272171428D01*
X224428572Y-272099999D01*
X224571429Y-272028570D01*
X226857143Y-273528570D02*
X226857143Y-272528570D01*
X226857143Y-272671428D02*
X226928571Y-272599999D01*
X227071429Y-272528570D01*
X227285714Y-272528570D01*
X227428571Y-272599999D01*
X227500000Y-272742856D01*
X227500000Y-273528570D01*
X227500000Y-272742856D02*
X227571429Y-272599999D01*
X227714286Y-272528570D01*
X227928571Y-272528570D01*
X228071429Y-272599999D01*
X228142857Y-272742856D01*
X228142857Y-273528570D01*
X228857143Y-273528570D02*
X228857143Y-272528570D01*
X228857143Y-272671428D02*
X228928571Y-272599999D01*
X229071429Y-272528570D01*
X229285714Y-272528570D01*
X229428571Y-272599999D01*
X229500000Y-272742856D01*
X229500000Y-273528570D01*
X229500000Y-272742856D02*
X229571429Y-272599999D01*
X229714286Y-272528570D01*
X229928571Y-272528570D01*
X230071429Y-272599999D01*
X230142857Y-272742856D01*
X230142857Y-273528570D01*
X221500000Y-271499999D02*
X231500000Y-271499999D01*
X221500000Y-269000000D02*
X221500000Y-274199999D01*
X231500000Y-269000000D02*
X231500000Y-274199999D01*
X231500000Y-271499999D02*
X230373496Y-272086420D01*
X231500000Y-271499999D02*
X230373496Y-270913578D01*
X221500000Y-271499999D02*
X222626504Y-272086420D01*
X221500000Y-271499999D02*
X222626504Y-270913578D01*
X213642858Y-273528570D02*
X212785715Y-273528570D01*
X213214287Y-273528570D02*
X213214287Y-272028570D01*
X213071430Y-272242856D01*
X212928572Y-272385713D01*
X212785715Y-272457142D01*
X214571429Y-272028570D02*
X214714286Y-272028570D01*
X214857143Y-272099999D01*
X214928572Y-272171428D01*
X215000001Y-272314285D01*
X215071429Y-272599999D01*
X215071429Y-272957142D01*
X215000001Y-273242856D01*
X214928572Y-273385713D01*
X214857143Y-273457142D01*
X214714286Y-273528570D01*
X214571429Y-273528570D01*
X214428572Y-273457142D01*
X214357143Y-273385713D01*
X214285715Y-273242856D01*
X214214286Y-272957142D01*
X214214286Y-272599999D01*
X214285715Y-272314285D01*
X214357143Y-272171428D01*
X214428572Y-272099999D01*
X214571429Y-272028570D01*
X216857143Y-273528570D02*
X216857143Y-272528570D01*
X216857143Y-272671428D02*
X216928571Y-272599999D01*
X217071429Y-272528570D01*
X217285714Y-272528570D01*
X217428571Y-272599999D01*
X217500000Y-272742856D01*
X217500000Y-273528570D01*
X217500000Y-272742856D02*
X217571429Y-272599999D01*
X217714286Y-272528570D01*
X217928571Y-272528570D01*
X218071429Y-272599999D01*
X218142857Y-272742856D01*
X218142857Y-273528570D01*
X218857143Y-273528570D02*
X218857143Y-272528570D01*
X218857143Y-272671428D02*
X218928571Y-272599999D01*
X219071429Y-272528570D01*
X219285714Y-272528570D01*
X219428571Y-272599999D01*
X219500000Y-272742856D01*
X219500000Y-273528570D01*
X219500000Y-272742856D02*
X219571429Y-272599999D01*
X219714286Y-272528570D01*
X219928571Y-272528570D01*
X220071429Y-272599999D01*
X220142857Y-272742856D01*
X220142857Y-273528570D01*
X211500000Y-271499999D02*
X221500000Y-271499999D01*
X211500000Y-269000000D02*
X211500000Y-274199999D01*
X221500000Y-269000000D02*
X221500000Y-274199999D01*
X221500000Y-271499999D02*
X220373496Y-272086420D01*
X221500000Y-271499999D02*
X220373496Y-270913578D01*
X211500000Y-271499999D02*
X212626504Y-272086420D01*
X211500000Y-271499999D02*
X212626504Y-270913578D01*
X201142858Y-273528570D02*
X200285715Y-273528570D01*
X200714287Y-273528570D02*
X200714287Y-272028570D01*
X200571430Y-272242856D01*
X200428572Y-272385713D01*
X200285715Y-272457142D01*
X202500001Y-272028570D02*
X201785715Y-272028570D01*
X201714286Y-272742856D01*
X201785715Y-272671428D01*
X201928572Y-272599999D01*
X202285715Y-272599999D01*
X202428572Y-272671428D01*
X202500001Y-272742856D01*
X202571429Y-272885713D01*
X202571429Y-273242856D01*
X202500001Y-273385713D01*
X202428572Y-273457142D01*
X202285715Y-273528570D01*
X201928572Y-273528570D01*
X201785715Y-273457142D01*
X201714286Y-273385713D01*
X204357143Y-273528570D02*
X204357143Y-272528570D01*
X204357143Y-272671428D02*
X204428571Y-272599999D01*
X204571429Y-272528570D01*
X204785714Y-272528570D01*
X204928571Y-272599999D01*
X205000000Y-272742856D01*
X205000000Y-273528570D01*
X205000000Y-272742856D02*
X205071429Y-272599999D01*
X205214286Y-272528570D01*
X205428571Y-272528570D01*
X205571429Y-272599999D01*
X205642857Y-272742856D01*
X205642857Y-273528570D01*
X206357143Y-273528570D02*
X206357143Y-272528570D01*
X206357143Y-272671428D02*
X206428571Y-272599999D01*
X206571429Y-272528570D01*
X206785714Y-272528570D01*
X206928571Y-272599999D01*
X207000000Y-272742856D01*
X207000000Y-273528570D01*
X207000000Y-272742856D02*
X207071429Y-272599999D01*
X207214286Y-272528570D01*
X207428571Y-272528570D01*
X207571429Y-272599999D01*
X207642857Y-272742856D01*
X207642857Y-273528570D01*
X196500000Y-271499999D02*
X211500000Y-271499999D01*
X196500000Y-269000000D02*
X196500000Y-274199999D01*
X211500000Y-269000000D02*
X211500000Y-274199999D01*
X211500000Y-271499999D02*
X210373496Y-272086420D01*
X211500000Y-271499999D02*
X210373496Y-270913578D01*
X196500000Y-271499999D02*
X197626504Y-272086420D01*
X196500000Y-271499999D02*
X197626504Y-270913578D01*
X120607144Y-273528570D02*
X119750001Y-273528570D01*
X120178573Y-273528570D02*
X120178573Y-272028570D01*
X120035716Y-272242856D01*
X119892858Y-272385713D01*
X119750001Y-272457142D01*
X121892858Y-272528570D02*
X121892858Y-273528570D01*
X121535715Y-271957142D02*
X121178572Y-273028570D01*
X122107144Y-273028570D01*
X122607143Y-272171428D02*
X122678572Y-272099999D01*
X122821429Y-272028570D01*
X123178572Y-272028570D01*
X123321429Y-272099999D01*
X123392858Y-272171428D01*
X123464286Y-272314285D01*
X123464286Y-272457142D01*
X123392858Y-272671428D01*
X122535715Y-273528570D01*
X123464286Y-273528570D01*
X124107143Y-273385713D02*
X124178571Y-273457142D01*
X124107143Y-273528570D01*
X124035714Y-273457142D01*
X124107143Y-273385713D01*
X124107143Y-273528570D01*
X125535715Y-272028570D02*
X124821429Y-272028570D01*
X124750000Y-272742856D01*
X124821429Y-272671428D01*
X124964286Y-272599999D01*
X125321429Y-272599999D01*
X125464286Y-272671428D01*
X125535715Y-272742856D01*
X125607143Y-272885713D01*
X125607143Y-273242856D01*
X125535715Y-273385713D01*
X125464286Y-273457142D01*
X125321429Y-273528570D01*
X124964286Y-273528570D01*
X124821429Y-273457142D01*
X124750000Y-273385713D01*
X127392857Y-273528570D02*
X127392857Y-272528570D01*
X127392857Y-272671428D02*
X127464285Y-272599999D01*
X127607143Y-272528570D01*
X127821428Y-272528570D01*
X127964285Y-272599999D01*
X128035714Y-272742856D01*
X128035714Y-273528570D01*
X128035714Y-272742856D02*
X128107143Y-272599999D01*
X128250000Y-272528570D01*
X128464285Y-272528570D01*
X128607143Y-272599999D01*
X128678571Y-272742856D01*
X128678571Y-273528570D01*
X129392857Y-273528570D02*
X129392857Y-272528570D01*
X129392857Y-272671428D02*
X129464285Y-272599999D01*
X129607143Y-272528570D01*
X129821428Y-272528570D01*
X129964285Y-272599999D01*
X130035714Y-272742856D01*
X130035714Y-273528570D01*
X130035714Y-272742856D02*
X130107143Y-272599999D01*
X130250000Y-272528570D01*
X130464285Y-272528570D01*
X130607143Y-272599999D01*
X130678571Y-272742856D01*
X130678571Y-273528570D01*
X54000000Y-271499999D02*
X196500000Y-271499999D01*
X54000000Y-269000000D02*
X54000000Y-274199999D01*
X196500000Y-269000000D02*
X196500000Y-274199999D01*
X196500000Y-271499999D02*
X195373496Y-272086420D01*
X196500000Y-271499999D02*
X195373496Y-270913578D01*
X54000000Y-271499999D02*
X55126504Y-272086420D01*
X54000000Y-271499999D02*
X55126504Y-270913578D01*
D12*
X220000000Y-269000000D02*
X59000000Y-269000000D01*
X233000000Y-269000000D02*
X259000000Y-269000000D01*
X231500000Y-261500000D02*
X231500000Y-267500000D01*
X221500000Y-267500000D02*
X221500000Y-261500000D01*
X231500000Y-267500000D02*
G75*
G03X233000000Y-269000000I1500000J0D01*
G74*
G01*
X220000000Y-269000000D02*
G75*
G03X221500000Y-267500000I0J1500000D01*
G74*
G01*
X231500000Y-261500000D02*
G75*
G03X230000000Y-260000000I-1500000J0D01*
G74*
G01*
X223000000Y-260000000D02*
G75*
G03X221500000Y-261500000I0J-1500000D01*
G74*
G01*
D11*
X268471429Y-56142858D02*
X268471429Y-55285715D01*
X268471429Y-55714287D02*
X269971429Y-55714287D01*
X269757143Y-55571430D01*
X269614286Y-55428572D01*
X269542857Y-55285715D01*
X269971429Y-57428572D02*
X269971429Y-57142858D01*
X269900000Y-57000001D01*
X269828571Y-56928572D01*
X269614286Y-56785715D01*
X269328571Y-56714286D01*
X268757143Y-56714286D01*
X268614286Y-56785715D01*
X268542857Y-56857143D01*
X268471429Y-57000001D01*
X268471429Y-57285715D01*
X268542857Y-57428572D01*
X268614286Y-57500001D01*
X268757143Y-57571429D01*
X269114286Y-57571429D01*
X269257143Y-57500001D01*
X269328571Y-57428572D01*
X269400000Y-57285715D01*
X269400000Y-57000001D01*
X269328571Y-56857143D01*
X269257143Y-56785715D01*
X269114286Y-56714286D01*
X268471429Y-59357143D02*
X269471429Y-59357143D01*
X269328571Y-59357143D02*
X269400000Y-59428571D01*
X269471429Y-59571429D01*
X269471429Y-59785714D01*
X269400000Y-59928571D01*
X269257143Y-60000000D01*
X268471429Y-60000000D01*
X269257143Y-60000000D02*
X269400000Y-60071429D01*
X269471429Y-60214286D01*
X269471429Y-60428571D01*
X269400000Y-60571429D01*
X269257143Y-60642857D01*
X268471429Y-60642857D01*
X268471429Y-61357143D02*
X269471429Y-61357143D01*
X269328571Y-61357143D02*
X269400000Y-61428571D01*
X269471429Y-61571429D01*
X269471429Y-61785714D01*
X269400000Y-61928571D01*
X269257143Y-62000000D01*
X268471429Y-62000000D01*
X269257143Y-62000000D02*
X269400000Y-62071429D01*
X269471429Y-62214286D01*
X269471429Y-62428571D01*
X269400000Y-62571429D01*
X269257143Y-62642857D01*
X268471429Y-62642857D01*
X267800000Y-51000000D02*
X267800000Y-67000000D01*
X264000000Y-51000000D02*
X270500000Y-51000000D01*
X264000000Y-67000000D02*
X270500000Y-67000000D01*
X267800000Y-67000000D02*
X267213579Y-65873496D01*
X267800000Y-67000000D02*
X268386421Y-65873496D01*
X267800000Y-51000000D02*
X267213579Y-52126504D01*
X267800000Y-51000000D02*
X268386421Y-52126504D01*
X253642858Y-37928571D02*
X252785715Y-37928571D01*
X253214287Y-37928571D02*
X253214287Y-36428571D01*
X253071430Y-36642857D01*
X252928572Y-36785714D01*
X252785715Y-36857143D01*
X255000001Y-36428571D02*
X254285715Y-36428571D01*
X254214286Y-37142857D01*
X254285715Y-37071429D01*
X254428572Y-37000000D01*
X254785715Y-37000000D01*
X254928572Y-37071429D01*
X255000001Y-37142857D01*
X255071429Y-37285714D01*
X255071429Y-37642857D01*
X255000001Y-37785714D01*
X254928572Y-37857143D01*
X254785715Y-37928571D01*
X254428572Y-37928571D01*
X254285715Y-37857143D01*
X254214286Y-37785714D01*
X256857143Y-37928571D02*
X256857143Y-36928571D01*
X256857143Y-37071429D02*
X256928571Y-37000000D01*
X257071429Y-36928571D01*
X257285714Y-36928571D01*
X257428571Y-37000000D01*
X257500000Y-37142857D01*
X257500000Y-37928571D01*
X257500000Y-37142857D02*
X257571429Y-37000000D01*
X257714286Y-36928571D01*
X257928571Y-36928571D01*
X258071429Y-37000000D01*
X258142857Y-37142857D01*
X258142857Y-37928571D01*
X258857143Y-37928571D02*
X258857143Y-36928571D01*
X258857143Y-37071429D02*
X258928571Y-37000000D01*
X259071429Y-36928571D01*
X259285714Y-36928571D01*
X259428571Y-37000000D01*
X259500000Y-37142857D01*
X259500000Y-37928571D01*
X259500000Y-37142857D02*
X259571429Y-37000000D01*
X259714286Y-36928571D01*
X259928571Y-36928571D01*
X260071429Y-37000000D01*
X260142857Y-37142857D01*
X260142857Y-37928571D01*
X249000000Y-38600000D02*
X264000000Y-38600000D01*
X249000000Y-51000000D02*
X249000000Y-35900000D01*
X264000000Y-51000000D02*
X264000000Y-35900000D01*
X264000000Y-38600000D02*
X262873496Y-39186421D01*
X264000000Y-38600000D02*
X262873496Y-38013579D01*
X249000000Y-38600000D02*
X250126504Y-39186421D01*
X249000000Y-38600000D02*
X250126504Y-38013579D01*
X227285715Y-36471429D02*
X227357144Y-36400000D01*
X227500001Y-36328571D01*
X227857144Y-36328571D01*
X228000001Y-36400000D01*
X228071430Y-36471429D01*
X228142858Y-36614286D01*
X228142858Y-36757143D01*
X228071430Y-36971429D01*
X227214287Y-37828571D01*
X228142858Y-37828571D01*
X228714286Y-36471429D02*
X228785715Y-36400000D01*
X228928572Y-36328571D01*
X229285715Y-36328571D01*
X229428572Y-36400000D01*
X229500001Y-36471429D01*
X229571429Y-36614286D01*
X229571429Y-36757143D01*
X229500001Y-36971429D01*
X228642858Y-37828571D01*
X229571429Y-37828571D01*
X231357143Y-37828571D02*
X231357143Y-36828571D01*
X231357143Y-36971429D02*
X231428571Y-36900000D01*
X231571429Y-36828571D01*
X231785714Y-36828571D01*
X231928571Y-36900000D01*
X232000000Y-37042857D01*
X232000000Y-37828571D01*
X232000000Y-37042857D02*
X232071429Y-36900000D01*
X232214286Y-36828571D01*
X232428571Y-36828571D01*
X232571429Y-36900000D01*
X232642857Y-37042857D01*
X232642857Y-37828571D01*
X233357143Y-37828571D02*
X233357143Y-36828571D01*
X233357143Y-36971429D02*
X233428571Y-36900000D01*
X233571429Y-36828571D01*
X233785714Y-36828571D01*
X233928571Y-36900000D01*
X234000000Y-37042857D01*
X234000000Y-37828571D01*
X234000000Y-37042857D02*
X234071429Y-36900000D01*
X234214286Y-36828571D01*
X234428571Y-36828571D01*
X234571429Y-36900000D01*
X234642857Y-37042857D01*
X234642857Y-37828571D01*
X220000000Y-38500000D02*
X242000000Y-38500000D01*
X220000000Y-41000000D02*
X220000000Y-35800000D01*
X242000000Y-41000000D02*
X242000000Y-35800000D01*
X242000000Y-38500000D02*
X240873496Y-39086421D01*
X242000000Y-38500000D02*
X240873496Y-37913579D01*
X220000000Y-38500000D02*
X221126504Y-39086421D01*
X220000000Y-38500000D02*
X221126504Y-37913579D01*
X203785715Y-36471429D02*
X203857144Y-36400000D01*
X204000001Y-36328571D01*
X204357144Y-36328571D01*
X204500001Y-36400000D01*
X204571430Y-36471429D01*
X204642858Y-36614286D01*
X204642858Y-36757143D01*
X204571430Y-36971429D01*
X203714287Y-37828571D01*
X204642858Y-37828571D01*
X206000001Y-36328571D02*
X205285715Y-36328571D01*
X205214286Y-37042857D01*
X205285715Y-36971429D01*
X205428572Y-36900000D01*
X205785715Y-36900000D01*
X205928572Y-36971429D01*
X206000001Y-37042857D01*
X206071429Y-37185714D01*
X206071429Y-37542857D01*
X206000001Y-37685714D01*
X205928572Y-37757143D01*
X205785715Y-37828571D01*
X205428572Y-37828571D01*
X205285715Y-37757143D01*
X205214286Y-37685714D01*
X207857143Y-37828571D02*
X207857143Y-36828571D01*
X207857143Y-36971429D02*
X207928571Y-36900000D01*
X208071429Y-36828571D01*
X208285714Y-36828571D01*
X208428571Y-36900000D01*
X208500000Y-37042857D01*
X208500000Y-37828571D01*
X208500000Y-37042857D02*
X208571429Y-36900000D01*
X208714286Y-36828571D01*
X208928571Y-36828571D01*
X209071429Y-36900000D01*
X209142857Y-37042857D01*
X209142857Y-37828571D01*
X209857143Y-37828571D02*
X209857143Y-36828571D01*
X209857143Y-36971429D02*
X209928571Y-36900000D01*
X210071429Y-36828571D01*
X210285714Y-36828571D01*
X210428571Y-36900000D01*
X210500000Y-37042857D01*
X210500000Y-37828571D01*
X210500000Y-37042857D02*
X210571429Y-36900000D01*
X210714286Y-36828571D01*
X210928571Y-36828571D01*
X211071429Y-36900000D01*
X211142857Y-37042857D01*
X211142857Y-37828571D01*
X195000000Y-38500000D02*
X220000000Y-38500000D01*
X195000000Y-41000000D02*
X195000000Y-35800000D01*
X220000000Y-41000000D02*
X220000000Y-35800000D01*
X220000000Y-38500000D02*
X218873496Y-39086421D01*
X220000000Y-38500000D02*
X218873496Y-37913579D01*
X195000000Y-38500000D02*
X196126504Y-39086421D01*
X195000000Y-38500000D02*
X196126504Y-37913579D01*
X185142858Y-37828571D02*
X184285715Y-37828571D01*
X184714287Y-37828571D02*
X184714287Y-36328571D01*
X184571430Y-36542857D01*
X184428572Y-36685714D01*
X184285715Y-36757143D01*
X186428572Y-36828571D02*
X186428572Y-37828571D01*
X186071429Y-36257143D02*
X185714286Y-37328571D01*
X186642858Y-37328571D01*
X188357143Y-37828571D02*
X188357143Y-36828571D01*
X188357143Y-36971429D02*
X188428571Y-36900000D01*
X188571429Y-36828571D01*
X188785714Y-36828571D01*
X188928571Y-36900000D01*
X189000000Y-37042857D01*
X189000000Y-37828571D01*
X189000000Y-37042857D02*
X189071429Y-36900000D01*
X189214286Y-36828571D01*
X189428571Y-36828571D01*
X189571429Y-36900000D01*
X189642857Y-37042857D01*
X189642857Y-37828571D01*
X190357143Y-37828571D02*
X190357143Y-36828571D01*
X190357143Y-36971429D02*
X190428571Y-36900000D01*
X190571429Y-36828571D01*
X190785714Y-36828571D01*
X190928571Y-36900000D01*
X191000000Y-37042857D01*
X191000000Y-37828571D01*
X191000000Y-37042857D02*
X191071429Y-36900000D01*
X191214286Y-36828571D01*
X191428571Y-36828571D01*
X191571429Y-36900000D01*
X191642857Y-37042857D01*
X191642857Y-37828571D01*
X181000000Y-38500000D02*
X195000000Y-38500000D01*
X181000000Y-41000000D02*
X181000000Y-35800000D01*
X195000000Y-41000000D02*
X195000000Y-35800000D01*
X195000000Y-38500000D02*
X193873496Y-39086421D01*
X195000000Y-38500000D02*
X193873496Y-37913579D01*
X181000000Y-38500000D02*
X182126504Y-39086421D01*
X181000000Y-38500000D02*
X182126504Y-37913579D01*
X172142858Y-37828571D02*
X171285715Y-37828571D01*
X171714287Y-37828571D02*
X171714287Y-36328571D01*
X171571430Y-36542857D01*
X171428572Y-36685714D01*
X171285715Y-36757143D01*
X172714286Y-36471429D02*
X172785715Y-36400000D01*
X172928572Y-36328571D01*
X173285715Y-36328571D01*
X173428572Y-36400000D01*
X173500001Y-36471429D01*
X173571429Y-36614286D01*
X173571429Y-36757143D01*
X173500001Y-36971429D01*
X172642858Y-37828571D01*
X173571429Y-37828571D01*
X175357143Y-37828571D02*
X175357143Y-36828571D01*
X175357143Y-36971429D02*
X175428571Y-36900000D01*
X175571429Y-36828571D01*
X175785714Y-36828571D01*
X175928571Y-36900000D01*
X176000000Y-37042857D01*
X176000000Y-37828571D01*
X176000000Y-37042857D02*
X176071429Y-36900000D01*
X176214286Y-36828571D01*
X176428571Y-36828571D01*
X176571429Y-36900000D01*
X176642857Y-37042857D01*
X176642857Y-37828571D01*
X177357143Y-37828571D02*
X177357143Y-36828571D01*
X177357143Y-36971429D02*
X177428571Y-36900000D01*
X177571429Y-36828571D01*
X177785714Y-36828571D01*
X177928571Y-36900000D01*
X178000000Y-37042857D01*
X178000000Y-37828571D01*
X178000000Y-37042857D02*
X178071429Y-36900000D01*
X178214286Y-36828571D01*
X178428571Y-36828571D01*
X178571429Y-36900000D01*
X178642857Y-37042857D01*
X178642857Y-37828571D01*
X169000000Y-38500000D02*
X181000000Y-38500000D01*
X169000000Y-41000000D02*
X169000000Y-35800000D01*
X181000000Y-41000000D02*
X181000000Y-35800000D01*
X181000000Y-38500000D02*
X179873496Y-39086421D01*
X181000000Y-38500000D02*
X179873496Y-37913579D01*
X169000000Y-38500000D02*
X170126504Y-39086421D01*
X169000000Y-38500000D02*
X170126504Y-37913579D01*
X156642858Y-37828571D02*
X155785715Y-37828571D01*
X156214287Y-37828571D02*
X156214287Y-36328571D01*
X156071430Y-36542857D01*
X155928572Y-36685714D01*
X155785715Y-36757143D01*
X157357143Y-37828571D02*
X157642858Y-37828571D01*
X157785715Y-37757143D01*
X157857143Y-37685714D01*
X158000001Y-37471429D01*
X158071429Y-37185714D01*
X158071429Y-36614286D01*
X158000001Y-36471429D01*
X157928572Y-36400000D01*
X157785715Y-36328571D01*
X157500001Y-36328571D01*
X157357143Y-36400000D01*
X157285715Y-36471429D01*
X157214286Y-36614286D01*
X157214286Y-36971429D01*
X157285715Y-37114286D01*
X157357143Y-37185714D01*
X157500001Y-37257143D01*
X157785715Y-37257143D01*
X157928572Y-37185714D01*
X158000001Y-37114286D01*
X158071429Y-36971429D01*
X159857143Y-37828571D02*
X159857143Y-36828571D01*
X159857143Y-36971429D02*
X159928571Y-36900000D01*
X160071429Y-36828571D01*
X160285714Y-36828571D01*
X160428571Y-36900000D01*
X160500000Y-37042857D01*
X160500000Y-37828571D01*
X160500000Y-37042857D02*
X160571429Y-36900000D01*
X160714286Y-36828571D01*
X160928571Y-36828571D01*
X161071429Y-36900000D01*
X161142857Y-37042857D01*
X161142857Y-37828571D01*
X161857143Y-37828571D02*
X161857143Y-36828571D01*
X161857143Y-36971429D02*
X161928571Y-36900000D01*
X162071429Y-36828571D01*
X162285714Y-36828571D01*
X162428571Y-36900000D01*
X162500000Y-37042857D01*
X162500000Y-37828571D01*
X162500000Y-37042857D02*
X162571429Y-36900000D01*
X162714286Y-36828571D01*
X162928571Y-36828571D01*
X163071429Y-36900000D01*
X163142857Y-37042857D01*
X163142857Y-37828571D01*
X150000000Y-38500000D02*
X169000000Y-38500000D01*
X150000000Y-41000000D02*
X150000000Y-35800000D01*
X169000000Y-41000000D02*
X169000000Y-35800000D01*
X169000000Y-38500000D02*
X167873496Y-39086421D01*
X169000000Y-38500000D02*
X167873496Y-37913579D01*
X150000000Y-38500000D02*
X151126504Y-39086421D01*
X150000000Y-38500000D02*
X151126504Y-37913579D01*
X130964286Y-36471429D02*
X131035715Y-36400000D01*
X131178572Y-36328571D01*
X131535715Y-36328571D01*
X131678572Y-36400000D01*
X131750001Y-36471429D01*
X131821429Y-36614286D01*
X131821429Y-36757143D01*
X131750001Y-36971429D01*
X130892858Y-37828571D01*
X131821429Y-37828571D01*
X132678572Y-36971429D02*
X132535714Y-36900000D01*
X132464286Y-36828571D01*
X132392857Y-36685714D01*
X132392857Y-36614286D01*
X132464286Y-36471429D01*
X132535714Y-36400000D01*
X132678572Y-36328571D01*
X132964286Y-36328571D01*
X133107143Y-36400000D01*
X133178572Y-36471429D01*
X133250000Y-36614286D01*
X133250000Y-36685714D01*
X133178572Y-36828571D01*
X133107143Y-36900000D01*
X132964286Y-36971429D01*
X132678572Y-36971429D01*
X132535714Y-37042857D01*
X132464286Y-37114286D01*
X132392857Y-37257143D01*
X132392857Y-37542857D01*
X132464286Y-37685714D01*
X132535714Y-37757143D01*
X132678572Y-37828571D01*
X132964286Y-37828571D01*
X133107143Y-37757143D01*
X133178572Y-37685714D01*
X133250000Y-37542857D01*
X133250000Y-37257143D01*
X133178572Y-37114286D01*
X133107143Y-37042857D01*
X132964286Y-36971429D01*
X133892857Y-37685714D02*
X133964285Y-37757143D01*
X133892857Y-37828571D01*
X133821428Y-37757143D01*
X133892857Y-37685714D01*
X133892857Y-37828571D01*
X135321429Y-36328571D02*
X134607143Y-36328571D01*
X134535714Y-37042857D01*
X134607143Y-36971429D01*
X134750000Y-36900000D01*
X135107143Y-36900000D01*
X135250000Y-36971429D01*
X135321429Y-37042857D01*
X135392857Y-37185714D01*
X135392857Y-37542857D01*
X135321429Y-37685714D01*
X135250000Y-37757143D01*
X135107143Y-37828571D01*
X134750000Y-37828571D01*
X134607143Y-37757143D01*
X134535714Y-37685714D01*
X137178571Y-37828571D02*
X137178571Y-36828571D01*
X137178571Y-36971429D02*
X137249999Y-36900000D01*
X137392857Y-36828571D01*
X137607142Y-36828571D01*
X137749999Y-36900000D01*
X137821428Y-37042857D01*
X137821428Y-37828571D01*
X137821428Y-37042857D02*
X137892857Y-36900000D01*
X138035714Y-36828571D01*
X138249999Y-36828571D01*
X138392857Y-36900000D01*
X138464285Y-37042857D01*
X138464285Y-37828571D01*
X139178571Y-37828571D02*
X139178571Y-36828571D01*
X139178571Y-36971429D02*
X139249999Y-36900000D01*
X139392857Y-36828571D01*
X139607142Y-36828571D01*
X139749999Y-36900000D01*
X139821428Y-37042857D01*
X139821428Y-37828571D01*
X139821428Y-37042857D02*
X139892857Y-36900000D01*
X140035714Y-36828571D01*
X140249999Y-36828571D01*
X140392857Y-36900000D01*
X140464285Y-37042857D01*
X140464285Y-37828571D01*
X121500000Y-38500000D02*
X150000000Y-38500000D01*
X121500000Y-41000000D02*
X121500000Y-35800000D01*
X150000000Y-41000000D02*
X150000000Y-35800000D01*
X150000000Y-38500000D02*
X148873496Y-39086421D01*
X150000000Y-38500000D02*
X148873496Y-37913579D01*
X121500000Y-38500000D02*
X122626504Y-39086421D01*
X121500000Y-38500000D02*
X122626504Y-37913579D01*
X102714287Y-36428571D02*
X103642858Y-36428571D01*
X103142858Y-37000000D01*
X103357144Y-37000000D01*
X103500001Y-37071429D01*
X103571430Y-37142857D01*
X103642858Y-37285714D01*
X103642858Y-37642857D01*
X103571430Y-37785714D01*
X103500001Y-37857143D01*
X103357144Y-37928571D01*
X102928572Y-37928571D01*
X102785715Y-37857143D01*
X102714287Y-37785714D01*
X104571429Y-36428571D02*
X104714286Y-36428571D01*
X104857143Y-36500000D01*
X104928572Y-36571429D01*
X105000001Y-36714286D01*
X105071429Y-37000000D01*
X105071429Y-37357143D01*
X105000001Y-37642857D01*
X104928572Y-37785714D01*
X104857143Y-37857143D01*
X104714286Y-37928571D01*
X104571429Y-37928571D01*
X104428572Y-37857143D01*
X104357143Y-37785714D01*
X104285715Y-37642857D01*
X104214286Y-37357143D01*
X104214286Y-37000000D01*
X104285715Y-36714286D01*
X104357143Y-36571429D01*
X104428572Y-36500000D01*
X104571429Y-36428571D01*
X106857143Y-37928571D02*
X106857143Y-36928571D01*
X106857143Y-37071429D02*
X106928571Y-37000000D01*
X107071429Y-36928571D01*
X107285714Y-36928571D01*
X107428571Y-37000000D01*
X107500000Y-37142857D01*
X107500000Y-37928571D01*
X107500000Y-37142857D02*
X107571429Y-37000000D01*
X107714286Y-36928571D01*
X107928571Y-36928571D01*
X108071429Y-37000000D01*
X108142857Y-37142857D01*
X108142857Y-37928571D01*
X108857143Y-37928571D02*
X108857143Y-36928571D01*
X108857143Y-37071429D02*
X108928571Y-37000000D01*
X109071429Y-36928571D01*
X109285714Y-36928571D01*
X109428571Y-37000000D01*
X109500000Y-37142857D01*
X109500000Y-37928571D01*
X109500000Y-37142857D02*
X109571429Y-37000000D01*
X109714286Y-36928571D01*
X109928571Y-36928571D01*
X110071429Y-37000000D01*
X110142857Y-37142857D01*
X110142857Y-37928571D01*
X91500000Y-38600000D02*
X121500000Y-38600000D01*
X91500000Y-41000000D02*
X91500000Y-35900000D01*
X121500000Y-41000000D02*
X121500000Y-35900000D01*
X121500000Y-38600000D02*
X120373496Y-39186421D01*
X121500000Y-38600000D02*
X120373496Y-38013579D01*
X91500000Y-38600000D02*
X92626504Y-39186421D01*
X91500000Y-38600000D02*
X92626504Y-38013579D01*
X81142858Y-37928571D02*
X80285715Y-37928571D01*
X80714287Y-37928571D02*
X80714287Y-36428571D01*
X80571430Y-36642857D01*
X80428572Y-36785714D01*
X80285715Y-36857143D01*
X82500001Y-36428571D02*
X81785715Y-36428571D01*
X81714286Y-37142857D01*
X81785715Y-37071429D01*
X81928572Y-37000000D01*
X82285715Y-37000000D01*
X82428572Y-37071429D01*
X82500001Y-37142857D01*
X82571429Y-37285714D01*
X82571429Y-37642857D01*
X82500001Y-37785714D01*
X82428572Y-37857143D01*
X82285715Y-37928571D01*
X81928572Y-37928571D01*
X81785715Y-37857143D01*
X81714286Y-37785714D01*
X84357143Y-37928571D02*
X84357143Y-36928571D01*
X84357143Y-37071429D02*
X84428571Y-37000000D01*
X84571429Y-36928571D01*
X84785714Y-36928571D01*
X84928571Y-37000000D01*
X85000000Y-37142857D01*
X85000000Y-37928571D01*
X85000000Y-37142857D02*
X85071429Y-37000000D01*
X85214286Y-36928571D01*
X85428571Y-36928571D01*
X85571429Y-37000000D01*
X85642857Y-37142857D01*
X85642857Y-37928571D01*
X86357143Y-37928571D02*
X86357143Y-36928571D01*
X86357143Y-37071429D02*
X86428571Y-37000000D01*
X86571429Y-36928571D01*
X86785714Y-36928571D01*
X86928571Y-37000000D01*
X87000000Y-37142857D01*
X87000000Y-37928571D01*
X87000000Y-37142857D02*
X87071429Y-37000000D01*
X87214286Y-36928571D01*
X87428571Y-36928571D01*
X87571429Y-37000000D01*
X87642857Y-37142857D01*
X87642857Y-37928571D01*
X76500000Y-38600000D02*
X91500000Y-38600000D01*
X76500000Y-41000000D02*
X76500000Y-35900000D01*
X91500000Y-41000000D02*
X91500000Y-35900000D01*
X91500000Y-38600000D02*
X90373496Y-39186421D01*
X91500000Y-38600000D02*
X90373496Y-38013579D01*
X76500000Y-38600000D02*
X77626504Y-39186421D01*
X76500000Y-38600000D02*
X77626504Y-38013579D01*
X60464286Y-36571429D02*
X60535715Y-36500000D01*
X60678572Y-36428571D01*
X61035715Y-36428571D01*
X61178572Y-36500000D01*
X61250001Y-36571429D01*
X61321429Y-36714286D01*
X61321429Y-36857143D01*
X61250001Y-37071429D01*
X60392858Y-37928571D01*
X61321429Y-37928571D01*
X61892857Y-36571429D02*
X61964286Y-36500000D01*
X62107143Y-36428571D01*
X62464286Y-36428571D01*
X62607143Y-36500000D01*
X62678572Y-36571429D01*
X62750000Y-36714286D01*
X62750000Y-36857143D01*
X62678572Y-37071429D01*
X61821429Y-37928571D01*
X62750000Y-37928571D01*
X63392857Y-37785714D02*
X63464285Y-37857143D01*
X63392857Y-37928571D01*
X63321428Y-37857143D01*
X63392857Y-37785714D01*
X63392857Y-37928571D01*
X64821429Y-36428571D02*
X64107143Y-36428571D01*
X64035714Y-37142857D01*
X64107143Y-37071429D01*
X64250000Y-37000000D01*
X64607143Y-37000000D01*
X64750000Y-37071429D01*
X64821429Y-37142857D01*
X64892857Y-37285714D01*
X64892857Y-37642857D01*
X64821429Y-37785714D01*
X64750000Y-37857143D01*
X64607143Y-37928571D01*
X64250000Y-37928571D01*
X64107143Y-37857143D01*
X64035714Y-37785714D01*
X66678571Y-37928571D02*
X66678571Y-36928571D01*
X66678571Y-37071429D02*
X66749999Y-37000000D01*
X66892857Y-36928571D01*
X67107142Y-36928571D01*
X67249999Y-37000000D01*
X67321428Y-37142857D01*
X67321428Y-37928571D01*
X67321428Y-37142857D02*
X67392857Y-37000000D01*
X67535714Y-36928571D01*
X67749999Y-36928571D01*
X67892857Y-37000000D01*
X67964285Y-37142857D01*
X67964285Y-37928571D01*
X68678571Y-37928571D02*
X68678571Y-36928571D01*
X68678571Y-37071429D02*
X68749999Y-37000000D01*
X68892857Y-36928571D01*
X69107142Y-36928571D01*
X69249999Y-37000000D01*
X69321428Y-37142857D01*
X69321428Y-37928571D01*
X69321428Y-37142857D02*
X69392857Y-37000000D01*
X69535714Y-36928571D01*
X69749999Y-36928571D01*
X69892857Y-37000000D01*
X69964285Y-37142857D01*
X69964285Y-37928571D01*
X54000000Y-38600000D02*
X76500000Y-38600000D01*
X54000000Y-41000000D02*
X54000000Y-35900000D01*
X76500000Y-41000000D02*
X76500000Y-35900000D01*
X76500000Y-38600000D02*
X75373496Y-39186421D01*
X76500000Y-38600000D02*
X75373496Y-38013579D01*
X54000000Y-38600000D02*
X55126504Y-39186421D01*
X54000000Y-38600000D02*
X55126504Y-38013579D01*
X154571429Y-19071429D02*
X154642858Y-19000000D01*
X154785715Y-18928571D01*
X155142858Y-18928571D01*
X155285715Y-19000000D01*
X155357144Y-19071429D01*
X155428572Y-19214286D01*
X155428572Y-19357143D01*
X155357144Y-19571429D01*
X154500001Y-20428571D01*
X155428572Y-20428571D01*
X156357143Y-18928571D02*
X156500000Y-18928571D01*
X156642857Y-19000000D01*
X156714286Y-19071429D01*
X156785715Y-19214286D01*
X156857143Y-19500000D01*
X156857143Y-19857143D01*
X156785715Y-20142857D01*
X156714286Y-20285714D01*
X156642857Y-20357143D01*
X156500000Y-20428571D01*
X156357143Y-20428571D01*
X156214286Y-20357143D01*
X156142857Y-20285714D01*
X156071429Y-20142857D01*
X156000000Y-19857143D01*
X156000000Y-19500000D01*
X156071429Y-19214286D01*
X156142857Y-19071429D01*
X156214286Y-19000000D01*
X156357143Y-18928571D01*
X157785714Y-18928571D02*
X157928571Y-18928571D01*
X158071428Y-19000000D01*
X158142857Y-19071429D01*
X158214286Y-19214286D01*
X158285714Y-19500000D01*
X158285714Y-19857143D01*
X158214286Y-20142857D01*
X158142857Y-20285714D01*
X158071428Y-20357143D01*
X157928571Y-20428571D01*
X157785714Y-20428571D01*
X157642857Y-20357143D01*
X157571428Y-20285714D01*
X157500000Y-20142857D01*
X157428571Y-19857143D01*
X157428571Y-19500000D01*
X157500000Y-19214286D01*
X157571428Y-19071429D01*
X157642857Y-19000000D01*
X157785714Y-18928571D01*
X160071428Y-20428571D02*
X160071428Y-19428571D01*
X160071428Y-19571429D02*
X160142856Y-19500000D01*
X160285714Y-19428571D01*
X160499999Y-19428571D01*
X160642856Y-19500000D01*
X160714285Y-19642857D01*
X160714285Y-20428571D01*
X160714285Y-19642857D02*
X160785714Y-19500000D01*
X160928571Y-19428571D01*
X161142856Y-19428571D01*
X161285714Y-19500000D01*
X161357142Y-19642857D01*
X161357142Y-20428571D01*
X162071428Y-20428571D02*
X162071428Y-19428571D01*
X162071428Y-19571429D02*
X162142856Y-19500000D01*
X162285714Y-19428571D01*
X162499999Y-19428571D01*
X162642856Y-19500000D01*
X162714285Y-19642857D01*
X162714285Y-20428571D01*
X162714285Y-19642857D02*
X162785714Y-19500000D01*
X162928571Y-19428571D01*
X163142856Y-19428571D01*
X163285714Y-19500000D01*
X163357142Y-19642857D01*
X163357142Y-20428571D01*
X59000000Y-21100000D02*
X259000000Y-21100000D01*
X59000000Y-46000000D02*
X59000000Y-18400000D01*
X259000000Y-46000000D02*
X259000000Y-18400000D01*
X259000000Y-21100000D02*
X257873496Y-21686421D01*
X259000000Y-21100000D02*
X257873496Y-20513579D01*
X59000000Y-21100000D02*
X60126504Y-21686421D01*
X59000000Y-21100000D02*
X60126504Y-20513579D01*
X154571429Y-15471429D02*
X154642858Y-15400000D01*
X154785715Y-15328571D01*
X155142858Y-15328571D01*
X155285715Y-15400000D01*
X155357144Y-15471429D01*
X155428572Y-15614286D01*
X155428572Y-15757143D01*
X155357144Y-15971429D01*
X154500001Y-16828571D01*
X155428572Y-16828571D01*
X156857143Y-16828571D02*
X156000000Y-16828571D01*
X156428572Y-16828571D02*
X156428572Y-15328571D01*
X156285715Y-15542857D01*
X156142857Y-15685714D01*
X156000000Y-15757143D01*
X157785714Y-15328571D02*
X157928571Y-15328571D01*
X158071428Y-15400000D01*
X158142857Y-15471429D01*
X158214286Y-15614286D01*
X158285714Y-15900000D01*
X158285714Y-16257143D01*
X158214286Y-16542857D01*
X158142857Y-16685714D01*
X158071428Y-16757143D01*
X157928571Y-16828571D01*
X157785714Y-16828571D01*
X157642857Y-16757143D01*
X157571428Y-16685714D01*
X157500000Y-16542857D01*
X157428571Y-16257143D01*
X157428571Y-15900000D01*
X157500000Y-15614286D01*
X157571428Y-15471429D01*
X157642857Y-15400000D01*
X157785714Y-15328571D01*
X160071428Y-16828571D02*
X160071428Y-15828571D01*
X160071428Y-15971429D02*
X160142856Y-15900000D01*
X160285714Y-15828571D01*
X160499999Y-15828571D01*
X160642856Y-15900000D01*
X160714285Y-16042857D01*
X160714285Y-16828571D01*
X160714285Y-16042857D02*
X160785714Y-15900000D01*
X160928571Y-15828571D01*
X161142856Y-15828571D01*
X161285714Y-15900000D01*
X161357142Y-16042857D01*
X161357142Y-16828571D01*
X162071428Y-16828571D02*
X162071428Y-15828571D01*
X162071428Y-15971429D02*
X162142856Y-15900000D01*
X162285714Y-15828571D01*
X162499999Y-15828571D01*
X162642856Y-15900000D01*
X162714285Y-16042857D01*
X162714285Y-16828571D01*
X162714285Y-16042857D02*
X162785714Y-15900000D01*
X162928571Y-15828571D01*
X163142856Y-15828571D01*
X163285714Y-15900000D01*
X163357142Y-16042857D01*
X163357142Y-16828571D01*
X54000000Y-17500000D02*
X264000000Y-17500000D01*
X54000000Y-41000000D02*
X54000000Y-14800000D01*
X264000000Y-41000000D02*
X264000000Y-14800000D01*
X264000000Y-17500000D02*
X262873496Y-18086421D01*
X264000000Y-17500000D02*
X262873496Y-16913579D01*
X54000000Y-17500000D02*
X55126504Y-18086421D01*
X54000000Y-17500000D02*
X55126504Y-16913579D01*
X42428572Y-150571429D02*
X42500001Y-150642858D01*
X42571430Y-150785715D01*
X42571430Y-151142858D01*
X42500001Y-151285715D01*
X42428572Y-151357144D01*
X42285715Y-151428572D01*
X42142858Y-151428572D01*
X41928572Y-151357144D01*
X41071430Y-150500001D01*
X41071430Y-151428572D01*
X42428572Y-152000000D02*
X42500001Y-152071429D01*
X42571430Y-152214286D01*
X42571430Y-152571429D01*
X42500001Y-152714286D01*
X42428572Y-152785715D01*
X42285715Y-152857143D01*
X42142858Y-152857143D01*
X41928572Y-152785715D01*
X41071430Y-151928572D01*
X41071430Y-152857143D01*
X41928572Y-153714286D02*
X42000001Y-153571428D01*
X42071430Y-153500000D01*
X42214287Y-153428571D01*
X42285715Y-153428571D01*
X42428572Y-153500000D01*
X42500001Y-153571428D01*
X42571430Y-153714286D01*
X42571430Y-154000000D01*
X42500001Y-154142857D01*
X42428572Y-154214286D01*
X42285715Y-154285714D01*
X42214287Y-154285714D01*
X42071430Y-154214286D01*
X42000001Y-154142857D01*
X41928572Y-154000000D01*
X41928572Y-153714286D01*
X41857144Y-153571428D01*
X41785715Y-153500000D01*
X41642858Y-153428571D01*
X41357144Y-153428571D01*
X41214287Y-153500000D01*
X41142858Y-153571428D01*
X41071430Y-153714286D01*
X41071430Y-154000000D01*
X41142858Y-154142857D01*
X41214287Y-154214286D01*
X41357144Y-154285714D01*
X41642858Y-154285714D01*
X41785715Y-154214286D01*
X41857144Y-154142857D01*
X41928572Y-154000000D01*
X41071430Y-156071428D02*
X42071430Y-156071428D01*
X41928572Y-156071428D02*
X42000001Y-156142856D01*
X42071430Y-156285714D01*
X42071430Y-156499999D01*
X42000001Y-156642856D01*
X41857144Y-156714285D01*
X41071430Y-156714285D01*
X41857144Y-156714285D02*
X42000001Y-156785714D01*
X42071430Y-156928571D01*
X42071430Y-157142856D01*
X42000001Y-157285714D01*
X41857144Y-157357142D01*
X41071430Y-157357142D01*
X41071430Y-158071428D02*
X42071430Y-158071428D01*
X41928572Y-158071428D02*
X42000001Y-158142856D01*
X42071430Y-158285714D01*
X42071430Y-158499999D01*
X42000001Y-158642856D01*
X41857144Y-158714285D01*
X41071430Y-158714285D01*
X41857144Y-158714285D02*
X42000001Y-158785714D01*
X42071430Y-158928571D01*
X42071430Y-159142856D01*
X42000001Y-159285714D01*
X41857144Y-159357142D01*
X41071430Y-159357142D01*
X43100001Y-41000000D02*
X43100001Y-269000000D01*
X54000000Y-41000000D02*
X40400001Y-41000000D01*
X54000000Y-269000000D02*
X40400001Y-269000000D01*
X43100001Y-269000000D02*
X42513580Y-267873496D01*
X43100001Y-269000000D02*
X43686422Y-267873496D01*
X43100001Y-41000000D02*
X42513580Y-42126504D01*
X43100001Y-41000000D02*
X43686422Y-42126504D01*
X46828572Y-150571429D02*
X46900001Y-150642858D01*
X46971430Y-150785715D01*
X46971430Y-151142858D01*
X46900001Y-151285715D01*
X46828572Y-151357144D01*
X46685715Y-151428572D01*
X46542858Y-151428572D01*
X46328572Y-151357144D01*
X45471430Y-150500001D01*
X45471430Y-151428572D01*
X45471430Y-152857143D02*
X45471430Y-152000000D01*
X45471430Y-152428572D02*
X46971430Y-152428572D01*
X46757144Y-152285715D01*
X46614287Y-152142857D01*
X46542858Y-152000000D01*
X46328572Y-153714286D02*
X46400001Y-153571428D01*
X46471430Y-153500000D01*
X46614287Y-153428571D01*
X46685715Y-153428571D01*
X46828572Y-153500000D01*
X46900001Y-153571428D01*
X46971430Y-153714286D01*
X46971430Y-154000000D01*
X46900001Y-154142857D01*
X46828572Y-154214286D01*
X46685715Y-154285714D01*
X46614287Y-154285714D01*
X46471430Y-154214286D01*
X46400001Y-154142857D01*
X46328572Y-154000000D01*
X46328572Y-153714286D01*
X46257144Y-153571428D01*
X46185715Y-153500000D01*
X46042858Y-153428571D01*
X45757144Y-153428571D01*
X45614287Y-153500000D01*
X45542858Y-153571428D01*
X45471430Y-153714286D01*
X45471430Y-154000000D01*
X45542858Y-154142857D01*
X45614287Y-154214286D01*
X45757144Y-154285714D01*
X46042858Y-154285714D01*
X46185715Y-154214286D01*
X46257144Y-154142857D01*
X46328572Y-154000000D01*
X45471430Y-156071428D02*
X46471430Y-156071428D01*
X46328572Y-156071428D02*
X46400001Y-156142856D01*
X46471430Y-156285714D01*
X46471430Y-156499999D01*
X46400001Y-156642856D01*
X46257144Y-156714285D01*
X45471430Y-156714285D01*
X46257144Y-156714285D02*
X46400001Y-156785714D01*
X46471430Y-156928571D01*
X46471430Y-157142856D01*
X46400001Y-157285714D01*
X46257144Y-157357142D01*
X45471430Y-157357142D01*
X45471430Y-158071428D02*
X46471430Y-158071428D01*
X46328572Y-158071428D02*
X46400001Y-158142856D01*
X46471430Y-158285714D01*
X46471430Y-158499999D01*
X46400001Y-158642856D01*
X46257144Y-158714285D01*
X45471430Y-158714285D01*
X46257144Y-158714285D02*
X46400001Y-158785714D01*
X46471430Y-158928571D01*
X46471430Y-159142856D01*
X46400001Y-159285714D01*
X46257144Y-159357142D01*
X45471430Y-159357142D01*
X47500001Y-46000000D02*
X47500001Y-264000000D01*
X59000000Y-46000000D02*
X44800001Y-46000000D01*
X59000000Y-264000000D02*
X44800001Y-264000000D01*
X47500001Y-264000000D02*
X46913580Y-262873496D01*
X47500001Y-264000000D02*
X48086422Y-262873496D01*
X47500001Y-46000000D02*
X46913580Y-47126504D01*
X47500001Y-46000000D02*
X48086422Y-47126504D01*
D12*
X264000000Y-46000000D02*
X264000000Y-264000000D01*
X93000000Y-41000000D02*
X259000000Y-41000000D01*
X75000000Y-41000000D02*
X59000000Y-41000000D01*
X76500000Y-42500000D02*
X76500000Y-42600000D01*
X76500000Y-42500000D02*
G75*
G03X75000000Y-41000000I-1500000J0D01*
G74*
G01*
X91500000Y-42500000D02*
X91500000Y-42600000D01*
X93000000Y-41000000D02*
G75*
G03X91500000Y-42500000I0J-1500000D01*
G74*
G01*
X90000000Y-44100000D02*
G75*
G03X91500000Y-42600000I0J1500000D01*
G74*
G01*
X76500000Y-42600000D02*
G75*
G03X78000000Y-44100000I1500000J0D01*
G74*
G01*
X84000000Y-44100000D02*
X90000000Y-44100000D01*
X84000000Y-44100000D02*
X78000000Y-44100000D01*
X54000000Y-264000000D02*
X54000000Y-46000000D01*
X259000000Y-269000000D02*
G75*
G03X264000000Y-264000000I0J5000000D01*
G74*
G01*
X264000000Y-46000000D02*
G75*
G03X259000000Y-41000000I-5000000J0D01*
G74*
G01*
X59000000Y-41000000D02*
G75*
G03X54000000Y-46000000I0J-5000000D01*
G74*
G01*
X54000000Y-264000000D02*
G75*
G03X59000000Y-269000000I5000000J0D01*
G74*
G01*
X230000000Y-260000000D02*
X223000000Y-260000000D01*
D13*
X54000000Y-83000000D02*
X264000000Y-83000000D01*
X54000000Y-67000000D02*
X264000000Y-67000000D01*
X54000000Y-51000000D02*
X264000000Y-51000000D01*
D14*
X76500000Y-51000000D02*
X76500000Y-259000000D01*
X196500000Y-259000000D02*
X196500000Y-51000000D01*
X181500000Y-51000000D02*
X181500000Y-259000000D01*
D13*
X189000000Y-259000000D02*
X189000000Y-51000000D01*
D14*
X264000000Y-251000000D02*
X54000000Y-251000000D01*
X54000000Y-235000000D02*
X264000000Y-235000000D01*
X264000000Y-219000000D02*
X54000000Y-219000000D01*
X54000000Y-203000000D02*
X264000000Y-203000000D01*
X264000000Y-187000000D02*
X54000000Y-187000000D01*
X54000000Y-171000000D02*
X264000000Y-171000000D01*
X264000000Y-155000000D02*
X54000000Y-155000000D01*
X54000000Y-139000000D02*
X264000000Y-139000000D01*
X264000000Y-123000000D02*
X54000000Y-123000000D01*
X54000000Y-107000000D02*
X264000000Y-107000000D01*
X54000000Y-91000000D02*
X264000000Y-91000000D01*
D13*
X54000000Y-99000000D02*
X264000000Y-99000000D01*
D14*
X69000000Y-67000000D02*
X69000000Y-83000000D01*
X69000000Y-67000000D02*
X69000000Y-83000000D01*
X69000000Y-67000000D02*
X69000000Y-83000000D01*
X69000000Y-67000000D02*
X69000000Y-83000000D01*
X264000000Y-59000000D02*
X54000000Y-59000000D01*
X54000000Y-75000000D02*
X264000000Y-75000000D01*
X256500000Y-51000000D02*
X256500000Y-259000000D01*
X241500000Y-259000000D02*
X241500000Y-51000000D01*
X226500000Y-51000000D02*
X226500000Y-259000000D01*
X211500000Y-259000000D02*
X211500000Y-51000000D01*
X166500000Y-51000000D02*
X166500000Y-259000000D01*
X151500000Y-259000000D02*
X151500000Y-51000000D01*
X136500000Y-51000000D02*
X136500000Y-259000000D01*
X121500000Y-259000000D02*
X121500000Y-51000000D01*
X106500000Y-51000000D02*
X106500000Y-259000000D01*
X91500000Y-259000000D02*
X91500000Y-51000000D01*
X61500000Y-259000000D02*
X77000000Y-259000000D01*
X61500000Y-51000000D02*
X61500000Y-259000000D01*
D13*
X54000000Y-243000000D02*
X264000000Y-243000000D01*
X54000000Y-227000000D02*
X264000000Y-227000000D01*
X264000000Y-211000000D02*
X54000000Y-211000000D01*
X54000000Y-195000000D02*
X264000000Y-195000000D01*
X264000000Y-179000000D02*
X54000000Y-179000000D01*
X54000000Y-163000000D02*
X264000000Y-163000000D01*
X264000000Y-147000000D02*
X54000000Y-147000000D01*
X54000000Y-131000000D02*
X264000000Y-131000000D01*
X264000000Y-115000000D02*
X54000000Y-115000000D01*
X249000000Y-259000000D02*
X249000000Y-51000000D01*
X234000000Y-51000000D02*
X234000000Y-259000000D01*
X219000000Y-259000000D02*
X219000000Y-51000000D01*
X204000000Y-51000000D02*
X204000000Y-259000000D01*
X174000000Y-51000000D02*
X174000000Y-259000000D01*
X159000000Y-259000000D02*
X159000000Y-51000000D01*
X144000000Y-51000000D02*
X144000000Y-259000000D01*
X129000000Y-259000000D02*
X129000000Y-51000000D01*
X114000000Y-51000000D02*
X114000000Y-259000000D01*
X99000000Y-51000000D02*
X99000000Y-259000000D01*
X84000000Y-51000000D02*
X84000000Y-259000000D01*
X69000000Y-51000000D02*
X69000000Y-259000000D01*
D14*
X84000000Y-51000000D02*
X84000000Y-67000000D01*
X84000000Y-67000000D02*
X69000000Y-67000000D01*
X84000000Y-67000000D02*
X69000000Y-67000000D01*
X84000000Y-51000000D02*
X84000000Y-67000000D01*
X84000000Y-51000000D02*
X84000000Y-67000000D01*
X84000000Y-67000000D02*
X69000000Y-67000000D01*
X84000000Y-67000000D02*
X69000000Y-67000000D01*
X84000000Y-51000000D02*
X84000000Y-67000000D01*
X99000000Y-51000000D02*
X99000000Y-67000000D01*
X99000000Y-67000000D02*
X84000000Y-67000000D01*
X84000000Y-67000000D02*
X84000000Y-51000000D01*
X84000000Y-67000000D02*
X84000000Y-51000000D01*
X99000000Y-67000000D02*
X84000000Y-67000000D01*
X99000000Y-51000000D02*
X99000000Y-67000000D01*
X99000000Y-51000000D02*
X99000000Y-67000000D01*
X99000000Y-67000000D02*
X84000000Y-67000000D01*
X84000000Y-67000000D02*
X84000000Y-51000000D01*
X84000000Y-67000000D02*
X84000000Y-51000000D01*
X99000000Y-67000000D02*
X84000000Y-67000000D01*
X99000000Y-51000000D02*
X99000000Y-67000000D01*
X69000000Y-67000000D02*
X84000000Y-67000000D01*
X69000000Y-67000000D02*
X84000000Y-67000000D01*
X69000000Y-67000000D02*
X84000000Y-67000000D01*
X69000000Y-67000000D02*
X84000000Y-67000000D01*
X54000000Y-67000000D02*
X69000000Y-67000000D01*
X54000000Y-67000000D02*
X69000000Y-67000000D01*
X54000000Y-67000000D02*
X69000000Y-67000000D01*
X54000000Y-67000000D02*
X69000000Y-67000000D01*
D13*
X54000000Y-259000000D02*
X264000000Y-259000000D01*
D14*
X84000000Y-51000000D02*
X84000000Y-67000000D01*
X84000000Y-67000000D02*
X69000000Y-67000000D01*
X69000000Y-67000000D02*
X69000000Y-51000000D01*
X69000000Y-67000000D02*
X69000000Y-51000000D01*
X84000000Y-67000000D02*
X69000000Y-67000000D01*
X84000000Y-51000000D02*
X84000000Y-67000000D01*
X84000000Y-51000000D02*
X84000000Y-67000000D01*
X84000000Y-67000000D02*
X69000000Y-67000000D01*
X69000000Y-67000000D02*
X69000000Y-51000000D01*
X69000000Y-67000000D02*
X69000000Y-51000000D01*
X84000000Y-67000000D02*
X69000000Y-67000000D01*
X84000000Y-51000000D02*
X84000000Y-67000000D01*
X69000000Y-51000000D02*
X69000000Y-67000000D01*
X69000000Y-67000000D02*
X54000000Y-67000000D01*
X69000000Y-67000000D02*
X54000000Y-67000000D01*
X69000000Y-51000000D02*
X69000000Y-67000000D01*
X69000000Y-51000000D02*
X69000000Y-67000000D01*
X69000000Y-67000000D02*
X54000000Y-67000000D01*
X69000000Y-67000000D02*
X54000000Y-67000000D01*
X69000000Y-51000000D02*
X69000000Y-67000000D01*
M02*
