%FSLAX46Y46*%
G04 Gerber Fmt 4.6, Leading zero omitted, Abs format (unit mm)*
G04 Created by KiCad (PCBNEW (2014-09-25 BZR 5147)-product) date Friday 10 October 2014 04:41:16 PM IST*
%MOMM*%
G01*
G04 APERTURE LIST*
%ADD10C,0.150000*%
%ADD11C,0.100000*%
G04 APERTURE END LIST*
D10*
D11*
X264000000Y-46000000D02*
X264000000Y-264000000D01*
X93000000Y-41000000D02*
X259000000Y-41000000D01*
X75000000Y-41000000D02*
X59000000Y-41000000D01*
X76500000Y-42500000D02*
X76500000Y-42600000D01*
X76500000Y-42500000D02*
G75*
G03X75000000Y-41000000I-1500000J0D01*
G74*
G01*
X91500000Y-42500000D02*
X91500000Y-42600000D01*
X93000000Y-41000000D02*
G75*
G03X91500000Y-42500000I0J-1500000D01*
G74*
G01*
X90000000Y-44100000D02*
G75*
G03X91500000Y-42600000I0J1500000D01*
G74*
G01*
X76500000Y-42600000D02*
G75*
G03X78000000Y-44100000I1500000J0D01*
G74*
G01*
X84000000Y-44100000D02*
X90000000Y-44100000D01*
X84000000Y-44100000D02*
X78000000Y-44100000D01*
X54000000Y-264000000D02*
X54000000Y-46000000D01*
X225500000Y-269000000D02*
X59000000Y-269000000D01*
X259000000Y-269000000D02*
X238500000Y-269000000D01*
X259000000Y-269000000D02*
G75*
G03X264000000Y-264000000I0J5000000D01*
G74*
G01*
X264000000Y-46000000D02*
G75*
G03X259000000Y-41000000I-5000000J0D01*
G74*
G01*
X59000000Y-41000000D02*
G75*
G03X54000000Y-46000000I0J-5000000D01*
G74*
G01*
X54000000Y-264000000D02*
G75*
G03X59000000Y-269000000I5000000J0D01*
G74*
G01*
X237000000Y-267500000D02*
X237000000Y-261200000D01*
X227000000Y-261200000D02*
X227000000Y-267500000D01*
X225500000Y-269000000D02*
G75*
G03X227000000Y-267500000I0J1500000D01*
G74*
G01*
X237000000Y-267500000D02*
G75*
G03X238500000Y-269000000I1500000J0D01*
G74*
G01*
X237000000Y-261200000D02*
G75*
G03X235500000Y-259700000I-1500000J0D01*
G74*
G01*
X228500000Y-259700000D02*
G75*
G03X227000000Y-261200000I0J-1500000D01*
G74*
G01*
X235500000Y-259700000D02*
X228500000Y-259700000D01*
M02*
